<svg width="43" height="59" viewBox="0 0 43 59" fill="none" xmlns="http://www.w3.org/2000/svg">
<path d="M17.5987 15.2639C21.0851 15.2639 24.5714 15.2639 28.0754 15.2639C28.3748 15.2639 28.7445 15.3501 28.9382 15.195C29.2904 14.9194 29.7482 14.5232 29.7482 14.1614C29.7658 13.7996 29.3256 13.3689 28.9911 13.0933C28.7798 12.9382 28.3748 13.0071 28.0578 13.0071C21.1379 13.0071 14.218 13.0071 7.29803 13.0071C6.98108 13.0071 6.64653 13.0071 6.3472 13.076C5.74852 13.2311 5.37876 13.679 5.55484 14.2303C5.67809 14.6265 6.10068 14.9538 6.47045 15.2123C6.68175 15.3501 7.03391 15.2639 7.33324 15.2639C10.7316 15.2639 14.1651 15.2639 17.5987 15.2639ZM13.9362 7.83885C16.2781 7.83885 18.62 7.83885 20.9618 7.83885C21.6661 7.83885 22.2648 7.6838 22.3881 6.89133C22.5113 6.08163 21.9831 5.58203 20.9794 5.58203C16.3309 5.58203 11.6648 5.58203 7.0163 5.58203C6.01264 5.58203 5.4668 5.99549 5.4668 6.70183C5.4668 7.44261 5.97743 7.82162 6.99869 7.83885C9.32294 7.83885 11.6296 7.83885 13.9362 7.83885ZM12.1402 22.7235C13.8482 22.7235 15.5386 22.7235 17.2465 22.7235C18.2326 22.7235 18.8136 22.2928 18.8312 21.5865C18.8489 20.8801 18.2678 20.3978 17.2994 20.3978C13.8658 20.3805 10.4322 20.3805 6.99869 20.3978C5.99504 20.3978 5.4668 20.8457 5.4844 21.5692C5.4844 22.2928 6.03025 22.7063 7.03391 22.7063C8.72427 22.7407 10.4322 22.7235 12.1402 22.7235ZM9.04122 27.8745C8.24886 27.8745 7.4565 27.8745 6.66414 27.8745C5.97743 27.8745 5.53723 28.2191 5.4844 28.891C5.43158 29.5801 5.85417 30.0625 6.48806 30.0797C8.16082 30.1486 9.83357 30.1486 11.4887 30.0797C12.1226 30.0452 12.5628 29.5629 12.4924 28.891C12.4219 28.2363 12.017 27.8745 11.3126 27.8745C10.5555 27.8745 9.79836 27.8745 9.04122 27.8745ZM8.97078 35.2996C8.21364 35.2996 7.43889 35.2996 6.68175 35.2996C5.94221 35.2996 5.50201 35.6614 5.4844 36.3678C5.4668 37.0741 5.9246 37.5048 6.62892 37.522C8.17842 37.5565 9.72793 37.5565 11.2774 37.522C12.0346 37.5048 12.5628 36.988 12.4924 36.3333C12.4219 35.627 11.9817 35.2824 11.2422 35.2824C10.5027 35.3169 9.74553 35.2996 8.97078 35.2996Z" fill="#589CE7"/>
<path d="M32.97 10.1471C30.7337 10.1471 28.6208 10.1471 26.5254 10.1471C25.2929 10.1471 24.9055 9.78528 24.9055 8.54489C24.9055 6.47758 24.9055 4.42749 24.9055 2.3085C17.3693 2.3085 9.90351 2.3085 2.36729 2.3085C2.36729 15.1258 2.36729 27.9432 2.36729 40.8466C2.70185 40.8466 3.01879 40.8466 3.33573 40.8466C6.68125 40.8466 10.0268 40.8466 13.3723 40.8466C13.5836 40.8466 13.7773 40.8294 13.9886 40.8466C14.6577 40.9156 15.2035 41.4668 15.1155 42.0353C15.0274 42.6728 14.6577 43.0862 13.9357 43.0862C9.6746 43.0862 5.43108 43.0862 1.16995 43.0862C0.430417 43.0862 0.0430417 42.69 0.00782577 41.9664C-0.00978221 41.7597 0.00782577 41.5702 0.00782577 41.3635C0.00782577 28.1671 0.00782577 14.9708 0.00782577 1.75722C0.00782577 0.275642 0.271945 0.0172276 1.78623 0.0172276C9.70982 0.0172276 17.6334 0.0172276 25.557 0C26.2613 0 26.7719 0.189504 27.265 0.671876C29.7125 3.10097 32.2128 5.4956 34.6427 7.94192C34.9773 8.28648 35.2414 8.87222 35.259 9.35459C35.3118 13.1102 35.2942 16.8831 35.2766 20.6387C35.2766 21.6034 34.9244 22.0513 34.1673 22.0686C33.3925 22.0858 32.9876 21.5862 32.9876 20.587C32.9876 17.4516 32.9876 14.3334 32.9876 11.1979C32.97 10.8878 32.97 10.5777 32.97 10.1471ZM30.945 7.89024C29.7301 6.68431 28.4799 5.46115 27.3354 4.32413C27.3354 5.37501 27.3354 6.6154 27.3354 7.89024C28.6384 7.89024 29.8533 7.89024 30.945 7.89024Z" fill="#589CE7"/>
<path d="M31.8077 44.9987C31.5612 44.568 31.3323 44.1717 31.1034 43.7927C23.7961 46.5147 17.5276 42.6902 15.3266 37.7114C12.8967 32.1985 15.0097 25.8588 20.3097 22.8612C25.5569 19.898 32.2479 21.259 35.9104 25.9966C39.3791 30.493 39.4143 38.0042 33.2339 42.6557C33.4452 43.0347 33.6741 43.4137 33.9207 43.8444C34.1496 43.7583 34.3432 43.6894 34.5193 43.6032C35.5054 43.1381 35.9808 43.2759 36.5442 44.2234C38.6044 47.7895 40.6469 51.3729 42.6894 54.9562C43.2353 55.921 43.0768 56.455 42.0908 57.0063C41.1047 57.5576 40.101 58.1089 39.0974 58.6429C37.9881 59.2459 37.4775 59.1081 36.8788 58.0572C34.9419 54.6806 33.005 51.304 31.0682 47.9273C30.1349 46.2735 30.1702 46.1184 31.8077 44.9987ZM16.7529 32.9738C16.7353 38.0904 21.0492 42.3456 26.2964 42.3801C31.4908 42.4145 35.8927 38.1421 35.9104 33.0255C35.928 27.9261 31.5612 23.6364 26.3492 23.6364C21.0844 23.6192 16.7529 27.84 16.7529 32.9738ZM33.322 46.9798C35.1004 50.0808 36.8436 53.1129 38.6044 56.1794C39.1502 55.8693 39.6256 55.6109 40.1539 55.318C38.3755 52.217 36.6323 49.185 34.8715 46.1184C34.3256 46.4113 33.8678 46.6697 33.322 46.9798Z" fill="#589CE7"/>
<path d="M17.5983 15.2633C14.1647 15.2633 10.7312 15.2633 7.29763 15.2633C6.9983 15.2633 6.64614 15.3494 6.43484 15.2116C6.06507 14.9532 5.62488 14.6259 5.51923 14.2296C5.36076 13.6783 5.73052 13.2304 6.31159 13.0754C6.61092 13.0065 6.94547 13.0065 7.26242 13.0065C14.1824 13.0065 21.1023 13.0065 28.0222 13.0065C28.3392 13.0065 28.7618 12.9376 28.9554 13.0926C29.3076 13.3683 29.7302 13.7989 29.7126 14.1607C29.695 14.5225 29.2548 14.9187 28.9026 15.1944C28.7089 15.3322 28.3392 15.2633 28.0398 15.2633C24.5711 15.2633 21.0847 15.2633 17.5983 15.2633Z" fill="#589CE7"/>
<path d="M13.9362 7.83885C11.6296 7.83885 9.30534 7.83885 6.99869 7.83885C5.97743 7.83885 5.4668 7.44261 5.4668 6.70183C5.4668 5.97827 6.01264 5.58203 7.0163 5.58203C11.6648 5.58203 16.3309 5.58203 20.9794 5.58203C21.9831 5.58203 22.5113 6.08163 22.3881 6.89133C22.2648 7.6838 21.6661 7.83885 20.9618 7.83885C18.62 7.83885 16.2781 7.83885 13.9362 7.83885Z" fill="#589CE7"/>
<path d="M12.1402 22.7238C10.4322 22.7238 8.74185 22.7238 7.03388 22.7238C6.03022 22.7238 5.48438 22.3103 5.48438 21.5867C5.48438 20.846 5.99501 20.4153 6.99866 20.4153C10.4322 20.398 13.8658 20.398 17.2993 20.4153C18.2678 20.4153 18.8488 20.8976 18.8312 21.604C18.8136 22.3103 18.2325 22.7238 17.2465 22.741C15.5385 22.741 13.8306 22.7238 12.1402 22.7238Z" fill="#589CE7"/>
<path d="M9.03991 27.874C9.79705 27.874 10.5718 27.874 11.3289 27.874C12.0333 27.874 12.4382 28.2358 12.5087 28.8905C12.5791 29.5796 12.1389 30.0619 11.505 30.0792C9.83227 30.1481 8.15951 30.1481 6.50436 30.0792C5.85287 30.0447 5.44788 29.5796 5.50071 28.8905C5.55353 28.2186 5.97612 27.874 6.68044 27.874C7.45519 27.874 8.24755 27.8913 9.03991 27.874Z" fill="#589CE7"/>
<path d="M8.97121 35.2994C9.72836 35.2994 10.5031 35.2994 11.2603 35.2994C11.9998 35.2822 12.4224 35.644 12.5104 36.3503C12.5808 36.9877 12.0526 37.5218 11.2955 37.539C9.74596 37.5735 8.19646 37.5735 6.64696 37.539C5.94264 37.5218 5.48484 37.1083 5.50244 36.3848C5.52005 35.6784 5.96025 35.2994 6.69979 35.3166C7.45693 35.3166 8.21407 35.2994 8.97121 35.2994Z" fill="#589CE7"/>
<path d="M25.8027 35.5929C27.3522 33.3016 28.8488 31.1137 30.3455 28.9258C30.504 28.6846 30.6448 28.3229 30.8561 28.2539C31.314 28.0989 31.8598 27.9439 32.2824 28.0817C32.8458 28.2539 32.9515 28.8397 32.7578 29.391C32.6698 29.6494 32.4761 29.8906 32.3176 30.1318C30.6272 32.6125 28.9369 35.0933 27.2465 37.5741C26.4894 38.6766 25.9083 38.7456 24.9046 37.8842C23.496 36.661 22.0874 35.4551 20.6963 34.2147C20.0096 33.6117 19.904 32.9571 20.3618 32.423C20.802 31.9062 21.5591 31.9407 22.2282 32.5092C23.3904 33.5084 24.5525 34.5076 25.8027 35.5929Z" fill="#589CE7"/>
</svg>
