<svg width="62" height="61" viewBox="0 0 62 61" fill="none" xmlns="http://www.w3.org/2000/svg">
<mask id="path-1-outside-1_467_3399" maskUnits="userSpaceOnUse" x="0" y="0" width="62" height="61" fill="black">
<rect fill="white" width="62" height="61"/>
<path d="M43.9558 19.7045L41.7168 17.444C41.1583 16.8801 40.2865 16.8163 39.6648 17.3189L36.9911 19.3269C36.2456 18.8881 35.437 18.5743 34.6283 18.3217L34.1329 14.9971C34.0091 14.2444 33.3242 13.6167 32.5787 13.6167H29.4704C28.7249 13.6167 28.0401 14.1806 27.9162 14.9971L27.4184 18.3241C26.6098 18.5742 25.8011 18.888 25.0556 19.3294L22.3843 17.3189C21.7627 16.8801 20.8933 16.9414 20.3323 17.444L18.0933 19.7045C17.5348 20.2685 17.4717 21.1487 17.9695 21.7763L19.9583 24.4757C19.5236 25.2284 19.2128 26.0449 18.9627 26.8613L15.6698 27.3615C14.9243 27.4865 14.3026 28.1779 14.3026 28.9306V32.0689C14.3026 32.8216 14.8611 33.513 15.6698 33.638L18.9651 34.1406C19.2128 34.9571 19.5236 35.7735 19.9608 36.5262L17.9695 39.2232C17.5348 39.8509 17.5955 40.7286 18.0933 41.295L20.3323 43.5555C20.8909 44.1194 21.7627 44.1832 22.3843 43.6806L25.058 41.6726C25.8035 42.1114 26.6122 42.4253 27.4208 42.6778L27.9187 46.0049C28.0425 46.7576 28.7273 47.3852 29.4728 47.3852H32.5812C33.3267 47.3852 34.0115 46.8213 34.1353 46.0049L34.6332 42.6778C35.4418 42.4277 36.2505 42.1139 36.996 41.6726L39.6697 43.6806C40.2913 44.1194 41.1607 44.0581 41.7217 43.5555L43.9607 41.295C44.5192 40.7311 44.5823 39.8509 44.0845 39.2232L42.0957 36.5238C42.5304 35.7711 42.8412 34.9546 43.0913 34.1382L46.3867 33.6356C47.1322 33.5105 47.7538 32.8191 47.7538 32.0664V28.9282C47.7538 28.1755 47.1953 27.4841 46.3867 27.359L43.0913 26.8564C42.8436 26.04 42.5328 25.2235 42.0957 24.4708L44.0845 21.7714C44.5775 21.1487 44.5143 20.2685 43.9558 19.7045ZM43.084 21.0212L40.845 24.0344C40.7212 24.2232 40.6581 24.4733 40.7819 24.7258C41.2797 25.6036 41.7144 26.545 41.9621 27.5503C42.0252 27.8004 42.2098 27.9892 42.4599 27.9892L46.1899 28.5531C46.3769 28.5531 46.5007 28.7419 46.5007 28.8669V32.0052C46.5007 32.194 46.3769 32.319 46.1899 32.319L42.4599 32.8829C42.2122 32.9467 42.0252 33.0717 41.9621 33.3218C41.7144 34.327 41.3404 35.2685 40.7819 36.1462C40.6581 36.335 40.6581 36.6488 40.845 36.8376L43.084 39.8509C43.2079 39.9759 43.1472 40.1647 43.0209 40.2898L40.7819 42.5503C40.6581 42.6754 40.4711 42.6754 40.3472 42.6141L37.3627 40.3535C37.1757 40.2285 36.928 40.1647 36.6779 40.2898C35.8086 40.7924 34.8761 41.2312 33.8804 41.4813C33.6327 41.545 33.4457 41.7314 33.4457 41.9839L32.8872 45.7498C32.8872 45.9386 32.7002 46.0637 32.5763 46.0637H29.468C29.281 46.0637 29.1572 45.9386 29.1572 45.7498L28.5986 41.9839C28.5355 41.7338 28.4117 41.545 28.164 41.4813C27.1683 41.2312 26.2358 40.8536 25.3665 40.2898C25.2426 40.226 25.1795 40.226 25.0556 40.226C24.9318 40.226 24.8079 40.2898 24.6816 40.3511L21.6971 42.6116C21.5733 42.7367 21.3863 42.6754 21.2625 42.5479L19.0235 40.2873C18.8996 40.1623 18.8996 39.9735 18.9603 39.8484L21.1993 36.8352C21.3232 36.6464 21.3863 36.3963 21.2625 36.1438C20.7646 35.2661 20.33 34.3246 20.0823 33.3193C20.0192 33.0692 19.8346 32.8805 19.5845 32.8805L15.8545 32.3165C15.6675 32.3165 15.5436 32.1278 15.5436 32.0027V28.8644C15.5436 28.6757 15.6675 28.5506 15.8545 28.5506L19.5845 27.9867C19.8322 27.923 20.0192 27.7979 20.0823 27.5478C20.33 26.5426 20.704 25.6011 21.2625 24.7234C21.3863 24.5346 21.3863 24.2208 21.1993 24.032L18.9603 21.0187C18.8365 20.8937 18.8972 20.7049 19.0235 20.5799L21.2625 18.3193C21.3863 18.1943 21.5733 18.1943 21.6971 18.2556L24.6816 20.5161C24.8686 20.6412 25.1163 20.7049 25.3665 20.5799C26.2358 20.0772 27.1683 19.6384 28.164 19.3883C28.4117 19.3246 28.5987 19.1382 28.5987 18.8857L29.1572 15.1198C29.1572 14.931 29.3442 14.806 29.468 14.806H32.5764C32.7634 14.806 32.8872 14.931 32.8872 15.1198L33.4457 18.8857C33.5089 19.1358 33.6327 19.3246 33.8804 19.3883C34.8761 19.6384 35.8086 20.016 36.6779 20.5799C36.8649 20.7049 37.1757 20.7049 37.3628 20.5161L40.3473 18.2556C40.4711 18.1305 40.6581 18.1918 40.7819 18.3193L43.0209 20.5799C43.2104 20.7074 43.2103 20.8961 43.084 21.0212ZM60.367 52.9067L57.5064 50.0184C57.0717 49.5796 56.45 49.327 55.8284 49.327C55.2067 49.327 54.585 49.5771 54.1504 50.0184C53.5918 50.5824 53.3417 51.4626 53.4655 52.2152L46.1926 52.2177C47.3728 51.34 48.5555 50.3985 49.6118 49.2682C54.5851 44.247 57.3192 37.5926 57.3192 30.4386C57.3192 23.3454 54.5849 16.6302 49.6118 11.6089C45.571 7.5905 40.413 4.95454 34.7552 4.20198C35.0029 3.38553 34.8183 2.38279 34.1335 1.75513C33.6988 1.25006 33.0772 1 32.4555 1C31.8338 1 31.2122 1.25008 30.7775 1.69142L27.9168 4.57964C26.9843 5.52112 26.9843 7.09026 27.9168 8.03174L30.7775 10.92C31.2122 11.3588 31.8338 11.6114 32.4555 11.6114C33.0772 11.6114 33.6989 11.3613 34.1335 10.92C34.6313 10.4173 34.879 9.72842 34.8184 9.10076C44.9522 10.9837 52.4725 19.9598 52.4725 30.441C52.4725 42.4305 42.8366 52.1591 30.9615 52.1591L3.42351 52.1542C2.11701 52.1542 1 53.2207 1 54.6011C1 55.9202 2.05634 57.0479 3.42351 57.0479H21.9498C22.2607 57.0479 22.5715 56.7978 22.5715 56.4203C22.5715 56.1064 22.3238 55.7926 21.9498 55.7926L3.42351 55.7951C2.80184 55.7951 2.24334 55.2924 2.24334 54.6035C2.24334 53.9759 2.74115 53.412 3.42351 53.412L31.0243 53.4095C43.5814 53.4095 53.7786 43.1173 53.7786 30.4361C53.7786 24.851 51.7898 19.4522 48.1204 15.3084C44.4536 11.1673 39.4805 8.4682 34.1329 7.77904C33.8852 7.71529 33.6982 7.84278 33.5112 8.02912C33.3874 8.21791 33.3874 8.46799 33.5112 8.65678C33.7589 9.09565 33.6982 9.72329 33.3242 10.1009C33.0766 10.351 32.8264 10.4785 32.5156 10.4785C32.2047 10.4785 31.8939 10.3534 31.7069 10.1009L28.8463 7.21267C28.4116 6.7738 28.4116 6.02113 28.8463 5.5185L31.6462 2.63274C31.8332 2.38021 32.144 2.25516 32.4548 2.25516C32.7657 2.25516 33.0765 2.38021 33.2635 2.63274C33.6375 3.01031 33.6982 3.63799 33.4505 4.07684L33.2635 4.26563C33.0765 4.45442 33.0158 4.7045 33.1397 4.89328C33.2028 5.14337 33.4505 5.27086 33.6375 5.33215C39.4195 5.95981 44.6404 8.47043 48.7446 12.6142C53.4703 17.3854 56.0809 23.7871 56.0809 30.5024C56.0809 37.2817 53.4704 43.6191 48.7446 48.3905C44.0165 53.1593 37.7392 55.8565 31.0246 55.8565H26.0513C25.7404 55.8565 25.4296 56.1066 25.4296 56.4841C25.4296 56.798 25.6773 57.1118 26.0513 57.1118H53.4047C53.2808 57.8645 53.4678 58.7447 54.0895 59.3086C54.5242 59.7474 55.1458 60 55.7675 60C56.3892 60 57.0108 59.7499 57.4455 59.3086L60.3062 56.4204C60.7408 55.9815 60.991 55.3538 60.991 54.7262C61.0517 53.9735 60.8017 53.4092 60.367 52.9067ZM59.4977 55.481L56.637 58.3693C56.3893 58.6194 56.1392 58.7468 55.8284 58.7468C55.5175 58.7468 55.2067 58.6218 55.0197 58.3693C54.585 57.9304 54.585 57.3028 54.8958 56.8001C55.0197 56.6113 55.0828 56.3613 54.959 56.1725C54.8351 55.9837 54.6481 55.8586 54.4004 55.8586L39.0434 55.8562C40.9084 55.2923 42.6496 54.4759 44.3276 53.4706H54.3377C54.5854 53.4706 54.7723 53.3456 54.8962 53.1568C55.02 52.968 54.9593 52.7179 54.8331 52.5291C54.4591 52.0903 54.5222 51.3988 54.9569 50.96C55.2046 50.7099 55.4547 50.5824 55.7656 50.5824C56.0764 50.5824 56.3872 50.7075 56.5742 50.96L59.4349 53.8482C59.6826 54.0983 59.8089 54.3508 59.8089 54.6647C59.8089 54.9785 59.6847 55.2923 59.4977 55.481ZM4.41669 36.8403C2.86252 31.0026 3.36035 24.726 5.84702 19.202C7.33803 15.8137 9.51386 12.8005 12.2508 10.2899C14.8613 7.90432 17.9697 6.08513 21.3284 4.89108C21.8869 4.76604 22.5086 4.76604 23.0672 5.01612C23.6888 5.2662 24.1235 5.83257 24.3737 6.46023C24.5606 7.08788 24.5606 7.71554 24.2498 8.34319C23.939 8.9071 23.5043 9.34844 22.8826 9.5985C20.1483 10.54 17.6616 12.0454 15.486 13.9921C13.247 16.0001 11.5083 18.4494 10.265 21.2741C6.53501 29.6835 8.46317 39.601 15.1145 45.9416C16.1102 46.8831 16.1102 48.3884 15.2384 49.3937C14.7405 49.8963 14.1189 50.1464 13.4972 50.1464C12.8755 50.1464 12.317 49.8963 11.8192 49.4549C9.26936 47.0081 7.28052 44.1837 5.85019 40.9176C5.72634 40.6038 5.85019 40.2262 6.16102 40.1011C6.47186 39.9761 6.84585 40.1011 6.96969 40.415C8.33686 43.4895 10.2019 46.2527 12.6279 48.5105C13.1257 48.9493 13.8712 48.9493 14.3059 48.4467C14.7405 47.9441 14.7405 47.1914 14.2427 46.7525C7.21477 40.1032 5.16327 29.622 9.07996 20.7074C10.3865 17.7579 12.2515 15.1835 14.6118 13.0506C16.9115 10.9789 19.522 9.40973 22.4461 8.40699C22.7569 8.28195 23.0046 8.09316 23.1309 7.77933C23.2547 7.4655 23.3179 7.15168 23.194 6.90162C23.0702 6.58779 22.8832 6.33771 22.5724 6.2102C22.2591 6.02141 21.9483 6.02141 21.7006 6.14645C18.4684 7.27673 15.6078 8.9709 13.0607 11.2927C10.4502 13.6783 8.39816 16.5028 6.96782 19.7661C4.60499 25.0373 4.17032 30.9998 5.60065 36.5878C5.66379 36.9017 5.4768 37.2793 5.16597 37.3405C4.792 37.4043 4.48114 37.1542 4.41804 36.8403L4.41669 36.8403ZM31.0247 22.5907C26.7362 22.5907 23.1904 26.1678 23.1904 30.5004C23.1904 34.8302 26.7334 38.4101 31.0247 38.4101C35.3132 38.4101 38.8589 34.8305 38.8589 30.5004C38.8589 26.1703 35.3135 22.5907 31.0247 22.5907ZM31.0247 37.1542C27.3578 37.1542 24.4338 34.1409 24.4338 30.4998C24.4338 26.8586 27.3575 23.8454 31.0247 23.8454C34.6918 23.8454 37.6156 26.7973 37.6156 30.4998C37.6156 34.2022 34.6918 37.1542 31.0247 37.1542Z"/>
</mask>
<path d="M43.9558 19.7045L41.7168 17.444C41.1583 16.8801 40.2865 16.8163 39.6648 17.3189L36.9911 19.3269C36.2456 18.8881 35.437 18.5743 34.6283 18.3217L34.1329 14.9971C34.0091 14.2444 33.3242 13.6167 32.5787 13.6167H29.4704C28.7249 13.6167 28.0401 14.1806 27.9162 14.9971L27.4184 18.3241C26.6098 18.5742 25.8011 18.888 25.0556 19.3294L22.3843 17.3189C21.7627 16.8801 20.8933 16.9414 20.3323 17.444L18.0933 19.7045C17.5348 20.2685 17.4717 21.1487 17.9695 21.7763L19.9583 24.4757C19.5236 25.2284 19.2128 26.0449 18.9627 26.8613L15.6698 27.3615C14.9243 27.4865 14.3026 28.1779 14.3026 28.9306V32.0689C14.3026 32.8216 14.8611 33.513 15.6698 33.638L18.9651 34.1406C19.2128 34.9571 19.5236 35.7735 19.9608 36.5262L17.9695 39.2232C17.5348 39.8509 17.5955 40.7286 18.0933 41.295L20.3323 43.5555C20.8909 44.1194 21.7627 44.1832 22.3843 43.6806L25.058 41.6726C25.8035 42.1114 26.6122 42.4253 27.4208 42.6778L27.9187 46.0049C28.0425 46.7576 28.7273 47.3852 29.4728 47.3852H32.5812C33.3267 47.3852 34.0115 46.8213 34.1353 46.0049L34.6332 42.6778C35.4418 42.4277 36.2505 42.1139 36.996 41.6726L39.6697 43.6806C40.2913 44.1194 41.1607 44.0581 41.7217 43.5555L43.9607 41.295C44.5192 40.7311 44.5823 39.8509 44.0845 39.2232L42.0957 36.5238C42.5304 35.7711 42.8412 34.9546 43.0913 34.1382L46.3867 33.6356C47.1322 33.5105 47.7538 32.8191 47.7538 32.0664V28.9282C47.7538 28.1755 47.1953 27.4841 46.3867 27.359L43.0913 26.8564C42.8436 26.04 42.5328 25.2235 42.0957 24.4708L44.0845 21.7714C44.5775 21.1487 44.5143 20.2685 43.9558 19.7045ZM43.084 21.0212L40.845 24.0344C40.7212 24.2232 40.6581 24.4733 40.7819 24.7258C41.2797 25.6036 41.7144 26.545 41.9621 27.5503C42.0252 27.8004 42.2098 27.9892 42.4599 27.9892L46.1899 28.5531C46.3769 28.5531 46.5007 28.7419 46.5007 28.8669V32.0052C46.5007 32.194 46.3769 32.319 46.1899 32.319L42.4599 32.8829C42.2122 32.9467 42.0252 33.0717 41.9621 33.3218C41.7144 34.327 41.3404 35.2685 40.7819 36.1462C40.6581 36.335 40.6581 36.6488 40.845 36.8376L43.084 39.8509C43.2079 39.9759 43.1472 40.1647 43.0209 40.2898L40.7819 42.5503C40.6581 42.6754 40.4711 42.6754 40.3472 42.6141L37.3627 40.3535C37.1757 40.2285 36.928 40.1647 36.6779 40.2898C35.8086 40.7924 34.8761 41.2312 33.8804 41.4813C33.6327 41.545 33.4457 41.7314 33.4457 41.9839L32.8872 45.7498C32.8872 45.9386 32.7002 46.0637 32.5763 46.0637H29.468C29.281 46.0637 29.1572 45.9386 29.1572 45.7498L28.5986 41.9839C28.5355 41.7338 28.4117 41.545 28.164 41.4813C27.1683 41.2312 26.2358 40.8536 25.3665 40.2898C25.2426 40.226 25.1795 40.226 25.0556 40.226C24.9318 40.226 24.8079 40.2898 24.6816 40.3511L21.6971 42.6116C21.5733 42.7367 21.3863 42.6754 21.2625 42.5479L19.0235 40.2873C18.8996 40.1623 18.8996 39.9735 18.9603 39.8484L21.1993 36.8352C21.3232 36.6464 21.3863 36.3963 21.2625 36.1438C20.7646 35.2661 20.33 34.3246 20.0823 33.3193C20.0192 33.0692 19.8346 32.8805 19.5845 32.8805L15.8545 32.3165C15.6675 32.3165 15.5436 32.1278 15.5436 32.0027V28.8644C15.5436 28.6757 15.6675 28.5506 15.8545 28.5506L19.5845 27.9867C19.8322 27.923 20.0192 27.7979 20.0823 27.5478C20.33 26.5426 20.704 25.6011 21.2625 24.7234C21.3863 24.5346 21.3863 24.2208 21.1993 24.032L18.9603 21.0187C18.8365 20.8937 18.8972 20.7049 19.0235 20.5799L21.2625 18.3193C21.3863 18.1943 21.5733 18.1943 21.6971 18.2556L24.6816 20.5161C24.8686 20.6412 25.1163 20.7049 25.3665 20.5799C26.2358 20.0772 27.1683 19.6384 28.164 19.3883C28.4117 19.3246 28.5987 19.1382 28.5987 18.8857L29.1572 15.1198C29.1572 14.931 29.3442 14.806 29.468 14.806H32.5764C32.7634 14.806 32.8872 14.931 32.8872 15.1198L33.4457 18.8857C33.5089 19.1358 33.6327 19.3246 33.8804 19.3883C34.8761 19.6384 35.8086 20.016 36.6779 20.5799C36.8649 20.7049 37.1757 20.7049 37.3628 20.5161L40.3473 18.2556C40.4711 18.1305 40.6581 18.1918 40.7819 18.3193L43.0209 20.5799C43.2104 20.7074 43.2103 20.8961 43.084 21.0212ZM60.367 52.9067L57.5064 50.0184C57.0717 49.5796 56.45 49.327 55.8284 49.327C55.2067 49.327 54.585 49.5771 54.1504 50.0184C53.5918 50.5824 53.3417 51.4626 53.4655 52.2152L46.1926 52.2177C47.3728 51.34 48.5555 50.3985 49.6118 49.2682C54.5851 44.247 57.3192 37.5926 57.3192 30.4386C57.3192 23.3454 54.5849 16.6302 49.6118 11.6089C45.571 7.5905 40.413 4.95454 34.7552 4.20198C35.0029 3.38553 34.8183 2.38279 34.1335 1.75513C33.6988 1.25006 33.0772 1 32.4555 1C31.8338 1 31.2122 1.25008 30.7775 1.69142L27.9168 4.57964C26.9843 5.52112 26.9843 7.09026 27.9168 8.03174L30.7775 10.92C31.2122 11.3588 31.8338 11.6114 32.4555 11.6114C33.0772 11.6114 33.6989 11.3613 34.1335 10.92C34.6313 10.4173 34.879 9.72842 34.8184 9.10076C44.9522 10.9837 52.4725 19.9598 52.4725 30.441C52.4725 42.4305 42.8366 52.1591 30.9615 52.1591L3.42351 52.1542C2.11701 52.1542 1 53.2207 1 54.6011C1 55.9202 2.05634 57.0479 3.42351 57.0479H21.9498C22.2607 57.0479 22.5715 56.7978 22.5715 56.4203C22.5715 56.1064 22.3238 55.7926 21.9498 55.7926L3.42351 55.7951C2.80184 55.7951 2.24334 55.2924 2.24334 54.6035C2.24334 53.9759 2.74115 53.412 3.42351 53.412L31.0243 53.4095C43.5814 53.4095 53.7786 43.1173 53.7786 30.4361C53.7786 24.851 51.7898 19.4522 48.1204 15.3084C44.4536 11.1673 39.4805 8.4682 34.1329 7.77904C33.8852 7.71529 33.6982 7.84278 33.5112 8.02912C33.3874 8.21791 33.3874 8.46799 33.5112 8.65678C33.7589 9.09565 33.6982 9.72329 33.3242 10.1009C33.0766 10.351 32.8264 10.4785 32.5156 10.4785C32.2047 10.4785 31.8939 10.3534 31.7069 10.1009L28.8463 7.21267C28.4116 6.7738 28.4116 6.02113 28.8463 5.5185L31.6462 2.63274C31.8332 2.38021 32.144 2.25516 32.4548 2.25516C32.7657 2.25516 33.0765 2.38021 33.2635 2.63274C33.6375 3.01031 33.6982 3.63799 33.4505 4.07684L33.2635 4.26563C33.0765 4.45442 33.0158 4.7045 33.1397 4.89328C33.2028 5.14337 33.4505 5.27086 33.6375 5.33215C39.4195 5.95981 44.6404 8.47043 48.7446 12.6142C53.4703 17.3854 56.0809 23.7871 56.0809 30.5024C56.0809 37.2817 53.4704 43.6191 48.7446 48.3905C44.0165 53.1593 37.7392 55.8565 31.0246 55.8565H26.0513C25.7404 55.8565 25.4296 56.1066 25.4296 56.4841C25.4296 56.798 25.6773 57.1118 26.0513 57.1118H53.4047C53.2808 57.8645 53.4678 58.7447 54.0895 59.3086C54.5242 59.7474 55.1458 60 55.7675 60C56.3892 60 57.0108 59.7499 57.4455 59.3086L60.3062 56.4204C60.7408 55.9815 60.991 55.3538 60.991 54.7262C61.0517 53.9735 60.8017 53.4092 60.367 52.9067ZM59.4977 55.481L56.637 58.3693C56.3893 58.6194 56.1392 58.7468 55.8284 58.7468C55.5175 58.7468 55.2067 58.6218 55.0197 58.3693C54.585 57.9304 54.585 57.3028 54.8958 56.8001C55.0197 56.6113 55.0828 56.3613 54.959 56.1725C54.8351 55.9837 54.6481 55.8586 54.4004 55.8586L39.0434 55.8562C40.9084 55.2923 42.6496 54.4759 44.3276 53.4706H54.3377C54.5854 53.4706 54.7723 53.3456 54.8962 53.1568C55.02 52.968 54.9593 52.7179 54.8331 52.5291C54.4591 52.0903 54.5222 51.3988 54.9569 50.96C55.2046 50.7099 55.4547 50.5824 55.7656 50.5824C56.0764 50.5824 56.3872 50.7075 56.5742 50.96L59.4349 53.8482C59.6826 54.0983 59.8089 54.3508 59.8089 54.6647C59.8089 54.9785 59.6847 55.2923 59.4977 55.481ZM4.41669 36.8403C2.86252 31.0026 3.36035 24.726 5.84702 19.202C7.33803 15.8137 9.51386 12.8005 12.2508 10.2899C14.8613 7.90432 17.9697 6.08513 21.3284 4.89108C21.8869 4.76604 22.5086 4.76604 23.0672 5.01612C23.6888 5.2662 24.1235 5.83257 24.3737 6.46023C24.5606 7.08788 24.5606 7.71554 24.2498 8.34319C23.939 8.9071 23.5043 9.34844 22.8826 9.5985C20.1483 10.54 17.6616 12.0454 15.486 13.9921C13.247 16.0001 11.5083 18.4494 10.265 21.2741C6.53501 29.6835 8.46317 39.601 15.1145 45.9416C16.1102 46.8831 16.1102 48.3884 15.2384 49.3937C14.7405 49.8963 14.1189 50.1464 13.4972 50.1464C12.8755 50.1464 12.317 49.8963 11.8192 49.4549C9.26936 47.0081 7.28052 44.1837 5.85019 40.9176C5.72634 40.6038 5.85019 40.2262 6.16102 40.1011C6.47186 39.9761 6.84585 40.1011 6.96969 40.415C8.33686 43.4895 10.2019 46.2527 12.6279 48.5105C13.1257 48.9493 13.8712 48.9493 14.3059 48.4467C14.7405 47.9441 14.7405 47.1914 14.2427 46.7525C7.21477 40.1032 5.16327 29.622 9.07996 20.7074C10.3865 17.7579 12.2515 15.1835 14.6118 13.0506C16.9115 10.9789 19.522 9.40973 22.4461 8.40699C22.7569 8.28195 23.0046 8.09316 23.1309 7.77933C23.2547 7.4655 23.3179 7.15168 23.194 6.90162C23.0702 6.58779 22.8832 6.33771 22.5724 6.2102C22.2591 6.02141 21.9483 6.02141 21.7006 6.14645C18.4684 7.27673 15.6078 8.9709 13.0607 11.2927C10.4502 13.6783 8.39816 16.5028 6.96782 19.7661C4.60499 25.0373 4.17032 30.9998 5.60065 36.5878C5.66379 36.9017 5.4768 37.2793 5.16597 37.3405C4.792 37.4043 4.48114 37.1542 4.41804 36.8403L4.41669 36.8403ZM31.0247 22.5907C26.7362 22.5907 23.1904 26.1678 23.1904 30.5004C23.1904 34.8302 26.7334 38.4101 31.0247 38.4101C35.3132 38.4101 38.8589 34.8305 38.8589 30.5004C38.8589 26.1703 35.3135 22.5907 31.0247 22.5907ZM31.0247 37.1542C27.3578 37.1542 24.4338 34.1409 24.4338 30.4998C24.4338 26.8586 27.3575 23.8454 31.0247 23.8454C34.6918 23.8454 37.6156 26.7973 37.6156 30.4998C37.6156 34.2022 34.6918 37.1542 31.0247 37.1542Z" fill="#589CE7"/>
<path d="M43.9558 19.7045L41.7168 17.444C41.1583 16.8801 40.2865 16.8163 39.6648 17.3189L36.9911 19.3269C36.2456 18.8881 35.437 18.5743 34.6283 18.3217L34.1329 14.9971C34.0091 14.2444 33.3242 13.6167 32.5787 13.6167H29.4704C28.7249 13.6167 28.0401 14.1806 27.9162 14.9971L27.4184 18.3241C26.6098 18.5742 25.8011 18.888 25.0556 19.3294L22.3843 17.3189C21.7627 16.8801 20.8933 16.9414 20.3323 17.444L18.0933 19.7045C17.5348 20.2685 17.4717 21.1487 17.9695 21.7763L19.9583 24.4757C19.5236 25.2284 19.2128 26.0449 18.9627 26.8613L15.6698 27.3615C14.9243 27.4865 14.3026 28.1779 14.3026 28.9306V32.0689C14.3026 32.8216 14.8611 33.513 15.6698 33.638L18.9651 34.1406C19.2128 34.9571 19.5236 35.7735 19.9608 36.5262L17.9695 39.2232C17.5348 39.8509 17.5955 40.7286 18.0933 41.295L20.3323 43.5555C20.8909 44.1194 21.7627 44.1832 22.3843 43.6806L25.058 41.6726C25.8035 42.1114 26.6122 42.4253 27.4208 42.6778L27.9187 46.0049C28.0425 46.7576 28.7273 47.3852 29.4728 47.3852H32.5812C33.3267 47.3852 34.0115 46.8213 34.1353 46.0049L34.6332 42.6778C35.4418 42.4277 36.2505 42.1139 36.996 41.6726L39.6697 43.6806C40.2913 44.1194 41.1607 44.0581 41.7217 43.5555L43.9607 41.295C44.5192 40.7311 44.5823 39.8509 44.0845 39.2232L42.0957 36.5238C42.5304 35.7711 42.8412 34.9546 43.0913 34.1382L46.3867 33.6356C47.1322 33.5105 47.7538 32.8191 47.7538 32.0664V28.9282C47.7538 28.1755 47.1953 27.4841 46.3867 27.359L43.0913 26.8564C42.8436 26.04 42.5328 25.2235 42.0957 24.4708L44.0845 21.7714C44.5775 21.1487 44.5143 20.2685 43.9558 19.7045ZM43.084 21.0212L40.845 24.0344C40.7212 24.2232 40.6581 24.4733 40.7819 24.7258C41.2797 25.6036 41.7144 26.545 41.9621 27.5503C42.0252 27.8004 42.2098 27.9892 42.4599 27.9892L46.1899 28.5531C46.3769 28.5531 46.5007 28.7419 46.5007 28.8669V32.0052C46.5007 32.194 46.3769 32.319 46.1899 32.319L42.4599 32.8829C42.2122 32.9467 42.0252 33.0717 41.9621 33.3218C41.7144 34.327 41.3404 35.2685 40.7819 36.1462C40.6581 36.335 40.6581 36.6488 40.845 36.8376L43.084 39.8509C43.2079 39.9759 43.1472 40.1647 43.0209 40.2898L40.7819 42.5503C40.6581 42.6754 40.4711 42.6754 40.3472 42.6141L37.3627 40.3535C37.1757 40.2285 36.928 40.1647 36.6779 40.2898C35.8086 40.7924 34.8761 41.2312 33.8804 41.4813C33.6327 41.545 33.4457 41.7314 33.4457 41.9839L32.8872 45.7498C32.8872 45.9386 32.7002 46.0637 32.5763 46.0637H29.468C29.281 46.0637 29.1572 45.9386 29.1572 45.7498L28.5986 41.9839C28.5355 41.7338 28.4117 41.545 28.164 41.4813C27.1683 41.2312 26.2358 40.8536 25.3665 40.2898C25.2426 40.226 25.1795 40.226 25.0556 40.226C24.9318 40.226 24.8079 40.2898 24.6816 40.3511L21.6971 42.6116C21.5733 42.7367 21.3863 42.6754 21.2625 42.5479L19.0235 40.2873C18.8996 40.1623 18.8996 39.9735 18.9603 39.8484L21.1993 36.8352C21.3232 36.6464 21.3863 36.3963 21.2625 36.1438C20.7646 35.2661 20.33 34.3246 20.0823 33.3193C20.0192 33.0692 19.8346 32.8805 19.5845 32.8805L15.8545 32.3165C15.6675 32.3165 15.5436 32.1278 15.5436 32.0027V28.8644C15.5436 28.6757 15.6675 28.5506 15.8545 28.5506L19.5845 27.9867C19.8322 27.923 20.0192 27.7979 20.0823 27.5478C20.33 26.5426 20.704 25.6011 21.2625 24.7234C21.3863 24.5346 21.3863 24.2208 21.1993 24.032L18.9603 21.0187C18.8365 20.8937 18.8972 20.7049 19.0235 20.5799L21.2625 18.3193C21.3863 18.1943 21.5733 18.1943 21.6971 18.2556L24.6816 20.5161C24.8686 20.6412 25.1163 20.7049 25.3665 20.5799C26.2358 20.0772 27.1683 19.6384 28.164 19.3883C28.4117 19.3246 28.5987 19.1382 28.5987 18.8857L29.1572 15.1198C29.1572 14.931 29.3442 14.806 29.468 14.806H32.5764C32.7634 14.806 32.8872 14.931 32.8872 15.1198L33.4457 18.8857C33.5089 19.1358 33.6327 19.3246 33.8804 19.3883C34.8761 19.6384 35.8086 20.016 36.6779 20.5799C36.8649 20.7049 37.1757 20.7049 37.3628 20.5161L40.3473 18.2556C40.4711 18.1305 40.6581 18.1918 40.7819 18.3193L43.0209 20.5799C43.2104 20.7074 43.2103 20.8961 43.084 21.0212ZM60.367 52.9067L57.5064 50.0184C57.0717 49.5796 56.45 49.327 55.8284 49.327C55.2067 49.327 54.585 49.5771 54.1504 50.0184C53.5918 50.5824 53.3417 51.4626 53.4655 52.2152L46.1926 52.2177C47.3728 51.34 48.5555 50.3985 49.6118 49.2682C54.5851 44.247 57.3192 37.5926 57.3192 30.4386C57.3192 23.3454 54.5849 16.6302 49.6118 11.6089C45.571 7.5905 40.413 4.95454 34.7552 4.20198C35.0029 3.38553 34.8183 2.38279 34.1335 1.75513C33.6988 1.25006 33.0772 1 32.4555 1C31.8338 1 31.2122 1.25008 30.7775 1.69142L27.9168 4.57964C26.9843 5.52112 26.9843 7.09026 27.9168 8.03174L30.7775 10.92C31.2122 11.3588 31.8338 11.6114 32.4555 11.6114C33.0772 11.6114 33.6989 11.3613 34.1335 10.92C34.6313 10.4173 34.879 9.72842 34.8184 9.10076C44.9522 10.9837 52.4725 19.9598 52.4725 30.441C52.4725 42.4305 42.8366 52.1591 30.9615 52.1591L3.42351 52.1542C2.11701 52.1542 1 53.2207 1 54.6011C1 55.9202 2.05634 57.0479 3.42351 57.0479H21.9498C22.2607 57.0479 22.5715 56.7978 22.5715 56.4203C22.5715 56.1064 22.3238 55.7926 21.9498 55.7926L3.42351 55.7951C2.80184 55.7951 2.24334 55.2924 2.24334 54.6035C2.24334 53.9759 2.74115 53.412 3.42351 53.412L31.0243 53.4095C43.5814 53.4095 53.7786 43.1173 53.7786 30.4361C53.7786 24.851 51.7898 19.4522 48.1204 15.3084C44.4536 11.1673 39.4805 8.4682 34.1329 7.77904C33.8852 7.71529 33.6982 7.84278 33.5112 8.02912C33.3874 8.21791 33.3874 8.46799 33.5112 8.65678C33.7589 9.09565 33.6982 9.72329 33.3242 10.1009C33.0766 10.351 32.8264 10.4785 32.5156 10.4785C32.2047 10.4785 31.8939 10.3534 31.7069 10.1009L28.8463 7.21267C28.4116 6.7738 28.4116 6.02113 28.8463 5.5185L31.6462 2.63274C31.8332 2.38021 32.144 2.25516 32.4548 2.25516C32.7657 2.25516 33.0765 2.38021 33.2635 2.63274C33.6375 3.01031 33.6982 3.63799 33.4505 4.07684L33.2635 4.26563C33.0765 4.45442 33.0158 4.7045 33.1397 4.89328C33.2028 5.14337 33.4505 5.27086 33.6375 5.33215C39.4195 5.95981 44.6404 8.47043 48.7446 12.6142C53.4703 17.3854 56.0809 23.7871 56.0809 30.5024C56.0809 37.2817 53.4704 43.6191 48.7446 48.3905C44.0165 53.1593 37.7392 55.8565 31.0246 55.8565H26.0513C25.7404 55.8565 25.4296 56.1066 25.4296 56.4841C25.4296 56.798 25.6773 57.1118 26.0513 57.1118H53.4047C53.2808 57.8645 53.4678 58.7447 54.0895 59.3086C54.5242 59.7474 55.1458 60 55.7675 60C56.3892 60 57.0108 59.7499 57.4455 59.3086L60.3062 56.4204C60.7408 55.9815 60.991 55.3538 60.991 54.7262C61.0517 53.9735 60.8017 53.4092 60.367 52.9067ZM59.4977 55.481L56.637 58.3693C56.3893 58.6194 56.1392 58.7468 55.8284 58.7468C55.5175 58.7468 55.2067 58.6218 55.0197 58.3693C54.585 57.9304 54.585 57.3028 54.8958 56.8001C55.0197 56.6113 55.0828 56.3613 54.959 56.1725C54.8351 55.9837 54.6481 55.8586 54.4004 55.8586L39.0434 55.8562C40.9084 55.2923 42.6496 54.4759 44.3276 53.4706H54.3377C54.5854 53.4706 54.7723 53.3456 54.8962 53.1568C55.02 52.968 54.9593 52.7179 54.8331 52.5291C54.4591 52.0903 54.5222 51.3988 54.9569 50.96C55.2046 50.7099 55.4547 50.5824 55.7656 50.5824C56.0764 50.5824 56.3872 50.7075 56.5742 50.96L59.4349 53.8482C59.6826 54.0983 59.8089 54.3508 59.8089 54.6647C59.8089 54.9785 59.6847 55.2923 59.4977 55.481ZM4.41669 36.8403C2.86252 31.0026 3.36035 24.726 5.84702 19.202C7.33803 15.8137 9.51386 12.8005 12.2508 10.2899C14.8613 7.90432 17.9697 6.08513 21.3284 4.89108C21.8869 4.76604 22.5086 4.76604 23.0672 5.01612C23.6888 5.2662 24.1235 5.83257 24.3737 6.46023C24.5606 7.08788 24.5606 7.71554 24.2498 8.34319C23.939 8.9071 23.5043 9.34844 22.8826 9.5985C20.1483 10.54 17.6616 12.0454 15.486 13.9921C13.247 16.0001 11.5083 18.4494 10.265 21.2741C6.53501 29.6835 8.46317 39.601 15.1145 45.9416C16.1102 46.8831 16.1102 48.3884 15.2384 49.3937C14.7405 49.8963 14.1189 50.1464 13.4972 50.1464C12.8755 50.1464 12.317 49.8963 11.8192 49.4549C9.26936 47.0081 7.28052 44.1837 5.85019 40.9176C5.72634 40.6038 5.85019 40.2262 6.16102 40.1011C6.47186 39.9761 6.84585 40.1011 6.96969 40.415C8.33686 43.4895 10.2019 46.2527 12.6279 48.5105C13.1257 48.9493 13.8712 48.9493 14.3059 48.4467C14.7405 47.9441 14.7405 47.1914 14.2427 46.7525C7.21477 40.1032 5.16327 29.622 9.07996 20.7074C10.3865 17.7579 12.2515 15.1835 14.6118 13.0506C16.9115 10.9789 19.522 9.40973 22.4461 8.40699C22.7569 8.28195 23.0046 8.09316 23.1309 7.77933C23.2547 7.4655 23.3179 7.15168 23.194 6.90162C23.0702 6.58779 22.8832 6.33771 22.5724 6.2102C22.2591 6.02141 21.9483 6.02141 21.7006 6.14645C18.4684 7.27673 15.6078 8.9709 13.0607 11.2927C10.4502 13.6783 8.39816 16.5028 6.96782 19.7661C4.60499 25.0373 4.17032 30.9998 5.60065 36.5878C5.66379 36.9017 5.4768 37.2793 5.16597 37.3405C4.792 37.4043 4.48114 37.1542 4.41804 36.8403L4.41669 36.8403ZM31.0247 22.5907C26.7362 22.5907 23.1904 26.1678 23.1904 30.5004C23.1904 34.8302 26.7334 38.4101 31.0247 38.4101C35.3132 38.4101 38.8589 34.8305 38.8589 30.5004C38.8589 26.1703 35.3135 22.5907 31.0247 22.5907ZM31.0247 37.1542C27.3578 37.1542 24.4338 34.1409 24.4338 30.4998C24.4338 26.8586 27.3575 23.8454 31.0247 23.8454C34.6918 23.8454 37.6156 26.7973 37.6156 30.4998C37.6156 34.2022 34.6918 37.1542 31.0247 37.1542Z" stroke="#589CE7" stroke-width="0.5" mask="url(#path-1-outside-1_467_3399)"/>
</svg>
