<svg width="193" height="163" viewBox="0 0 193 163" fill="none" xmlns="http://www.w3.org/2000/svg">
<path d="M131.569 127.673L134.281 129.344L134.798 128.522C134.953 128.29 135.237 128.136 135.521 128.162C135.676 128.187 135.831 128.187 136.012 128.187C136.296 128.187 136.554 128.342 136.709 128.573L137.174 129.421L139.989 127.904L139.524 127.056C139.395 126.799 139.42 126.491 139.575 126.259C139.679 126.131 139.756 126.002 139.834 125.848C139.963 125.591 140.247 125.436 140.531 125.436L141.512 125.462L141.616 122.274L140.634 122.249C140.35 122.249 140.092 122.069 139.963 121.811C139.937 121.734 139.885 121.683 139.86 121.606C139.834 121.529 139.782 121.477 139.73 121.4C139.575 121.143 139.575 120.86 139.73 120.603L140.247 119.78L137.535 118.109L137.019 118.932C136.864 119.163 136.58 119.318 136.296 119.292C136.141 119.266 135.986 119.266 135.831 119.266C135.547 119.266 135.288 119.112 135.133 118.881L134.669 118.032L131.854 119.549L132.318 120.397C132.448 120.655 132.422 120.963 132.267 121.194C132.163 121.323 132.086 121.452 132.009 121.606C131.879 121.863 131.595 122.017 131.311 122.017L130.33 121.991L130.227 125.179L131.208 125.205C131.492 125.205 131.75 125.385 131.879 125.642C131.905 125.719 131.957 125.771 131.983 125.848C132.009 125.925 132.06 125.976 132.112 126.053C132.267 126.311 132.267 126.593 132.112 126.85L131.569 127.673ZM133.584 124.974C132.912 123.714 133.377 122.12 134.643 121.452C135.908 120.783 137.509 121.246 138.181 122.506C138.852 123.765 138.387 125.359 137.096 126.053C135.857 126.722 134.255 126.259 133.584 124.974Z" fill="#CAD3DD" fill-opacity="0.7"/>
<path d="M157.668 112.117L159.461 115.244L160.419 114.702C160.711 114.535 161.045 114.535 161.337 114.744C161.503 114.827 161.628 114.952 161.795 114.994C162.087 115.161 162.254 115.452 162.254 115.744V116.87H165.881V115.744C165.881 115.411 166.048 115.119 166.339 114.994C166.506 114.91 166.673 114.827 166.798 114.744C167.09 114.577 167.423 114.535 167.715 114.702L168.674 115.244L170.467 112.117L169.508 111.575C169.216 111.409 169.049 111.117 169.091 110.783C169.091 110.7 169.091 110.616 169.091 110.533C169.091 110.45 169.091 110.366 169.091 110.283C169.091 109.949 169.216 109.658 169.508 109.491L170.467 108.949L168.674 105.822L167.715 106.364C167.423 106.531 167.09 106.531 166.798 106.322C166.631 106.239 166.506 106.114 166.339 106.072C166.048 105.906 165.881 105.614 165.881 105.322V104.196H162.254V105.322C162.254 105.655 162.087 105.947 161.795 106.072C161.628 106.156 161.462 106.239 161.337 106.322C161.045 106.489 160.711 106.531 160.419 106.364L159.461 105.822L157.668 108.949L158.627 109.491C158.919 109.658 159.044 109.949 159.044 110.283C159.044 110.366 159.044 110.45 159.044 110.533C159.044 110.616 159.044 110.7 159.044 110.783C159.044 111.117 158.919 111.409 158.627 111.575L157.668 112.117ZM161.128 110.491C161.128 108.866 162.462 107.531 164.088 107.531C165.714 107.531 167.048 108.866 167.048 110.491C167.048 112.117 165.714 113.451 164.088 113.451C162.421 113.451 161.128 112.117 161.128 110.491Z" fill="#CAD3DD" fill-opacity="0.7"/>
<path d="M190.097 76.7266C189.376 81.6226 185.141 85.4071 180.035 85.4071C174.418 85.4071 169.883 80.8716 169.883 75.2548C169.883 69.638 174.448 65.1025 180.035 65.1025V75.2548L190.097 76.7266Z" fill="#CAD3DD" fill-opacity="0.7"/>
<path d="M192.259 73.1523C192.259 73.6629 192.228 74.1435 192.138 74.6541L182.076 73.1523V63C185.831 63 189.135 65.0425 190.907 68.1062C191.778 69.608 192.259 71.3201 192.259 73.1523Z" fill="#DBDBDB"/>
<path d="M125.794 81.8008H123.629V97.2301H125.794V81.8008Z" fill="#CAD3DD" fill-opacity="0.7"/>
<path d="M129.527 85.5371H127.361V97.2309H129.527V85.5371Z" fill="#CAD3DD" fill-opacity="0.7"/>
<path d="M133.238 91.3848H131.072V97.2317H133.238V91.3848Z" fill="#CAD3DD" fill-opacity="0.7"/>
<path d="M136.972 88.0547H134.807V97.2311H136.972V88.0547Z" fill="#CAD3DD" fill-opacity="0.7"/>
<path d="M140.681 84.5361H138.516V97.2315H140.681V84.5361Z" fill="#CAD3DD" fill-opacity="0.7"/>
<path d="M144.416 82.4785H142.25V97.2311H144.416V82.4785Z" fill="#CAD3DD" fill-opacity="0.7"/>
<path d="M122.384 79.8525L122.411 84.2106V88.5687L122.438 97.2579L122.384 97.1767C124.387 97.1767 126.363 97.1767 128.366 97.1767H134.349H140.331L146.313 97.2037L140.331 97.2308H134.349H128.366C126.363 97.2308 124.387 97.2308 122.384 97.2308H122.33V97.1767L122.357 88.4875V84.1294L122.384 79.8525Z" fill="#CAD3DD" fill-opacity="0.7"/>
<path d="M121.896 80.7182C122.059 80.6641 122.221 80.6641 122.384 80.6641C122.546 80.6641 122.709 80.6641 122.871 80.7182C122.709 80.7723 122.546 80.7723 122.384 80.7723C122.221 80.7723 122.059 80.7723 121.896 80.7182Z" fill="#CAD3DD" fill-opacity="0.7"/>
<path d="M121.896 82.0453C122.059 81.9912 122.221 81.9912 122.384 81.9912C122.546 81.9912 122.709 81.9912 122.871 82.0453C122.709 82.0995 122.546 82.0995 122.384 82.0995C122.221 82.0995 122.059 82.0995 121.896 82.0453Z" fill="#CAD3DD" fill-opacity="0.7"/>
<path d="M121.896 83.3715C122.059 83.3174 122.221 83.3174 122.384 83.3174C122.546 83.3174 122.709 83.3174 122.871 83.3715C122.709 83.4257 122.546 83.4257 122.384 83.4257C122.221 83.4257 122.059 83.4257 121.896 83.3715Z" fill="#CAD3DD" fill-opacity="0.7"/>
<path d="M121.896 84.6987C122.059 84.6445 122.221 84.6445 122.384 84.6445C122.546 84.6445 122.709 84.6445 122.871 84.6987C122.709 84.7528 122.546 84.7528 122.384 84.7528C122.221 84.7528 122.059 84.7257 121.896 84.6987Z" fill="#CAD3DD" fill-opacity="0.7"/>
<path d="M121.896 85.9975C122.059 85.9434 122.221 85.9434 122.384 85.9434C122.546 85.9434 122.709 85.9434 122.871 85.9975C122.709 86.0516 122.546 86.0516 122.384 86.0516C122.221 86.0787 122.059 86.0516 121.896 85.9975Z" fill="#CAD3DD" fill-opacity="0.7"/>
<path d="M121.896 87.3237C122.059 87.2695 122.221 87.2695 122.384 87.2695C122.546 87.2695 122.709 87.2695 122.871 87.3237C122.709 87.3778 122.546 87.3778 122.384 87.3778C122.221 87.3778 122.059 87.3778 121.896 87.3237Z" fill="#CAD3DD" fill-opacity="0.7"/>
<path d="M121.896 88.6498C122.059 88.5957 122.221 88.5957 122.384 88.5957C122.546 88.5957 122.709 88.5957 122.871 88.6498C122.709 88.704 122.546 88.704 122.384 88.704C122.221 88.704 122.059 88.704 121.896 88.6498Z" fill="#CAD3DD" fill-opacity="0.7"/>
<path d="M121.896 89.976C122.059 89.9219 122.221 89.9219 122.384 89.9219C122.546 89.9219 122.709 89.9219 122.871 89.976C122.709 90.0302 122.546 90.0302 122.384 90.0302C122.221 90.0302 122.059 90.0302 121.896 89.976Z" fill="#CAD3DD" fill-opacity="0.7"/>
<path d="M121.896 91.3032C122.059 91.249 122.221 91.249 122.384 91.249C122.546 91.249 122.709 91.249 122.871 91.3032C122.709 91.3573 122.546 91.3573 122.384 91.3573C122.221 91.3573 122.059 91.3302 121.896 91.3032Z" fill="#CAD3DD" fill-opacity="0.7"/>
<path d="M121.896 92.602C122.059 92.5479 122.221 92.5479 122.384 92.5479C122.546 92.5479 122.709 92.5479 122.871 92.602C122.709 92.6561 122.546 92.6561 122.384 92.6561C122.221 92.6832 122.059 92.6561 121.896 92.602Z" fill="#CAD3DD" fill-opacity="0.7"/>
<path d="M121.896 93.9291C122.059 93.875 122.221 93.875 122.384 93.875C122.546 93.875 122.709 93.875 122.871 93.9291C122.709 93.9833 122.546 93.9833 122.384 93.9833C122.221 93.9833 122.059 93.9833 121.896 93.9291Z" fill="#CAD3DD" fill-opacity="0.7"/>
<path d="M121.896 95.2543C122.059 95.2002 122.221 95.2002 122.384 95.2002C122.546 95.2002 122.709 95.2002 122.871 95.2543C122.709 95.3085 122.546 95.3085 122.384 95.3085C122.221 95.3085 122.059 95.3085 121.896 95.2543Z" fill="#CAD3DD" fill-opacity="0.7"/>
<path d="M56.2872 38.1907H10.8457V6.75684H56.2872V38.1907ZM11.0542 37.9822H56.0787V6.96528H11.0542V37.9822Z" fill="#CAD3DD" fill-opacity="0.7"/>
<path d="M56.2872 9.88354H10.8457V6.75684H56.2872V9.88354ZM11.0542 9.6751H56.0787V6.96528H11.0542V9.6751Z" fill="#CAD3DD" fill-opacity="0.7"/>
<path d="M13.6786 8.34123C13.6786 8.75812 13.345 9.09164 12.9281 9.09164C12.5113 9.09164 12.1777 8.75812 12.1777 8.34123C12.1777 7.92434 12.5113 7.59082 12.9281 7.59082C13.345 7.59082 13.6786 7.92434 13.6786 8.34123Z" fill="#C7C7C7"/>
<path d="M16.6395 8.34123C16.6395 8.75812 16.306 9.09164 15.8891 9.09164C15.4722 9.09164 15.1387 8.75812 15.1387 8.34123C15.1387 7.92434 15.4722 7.59082 15.8891 7.59082C16.306 7.59082 16.6395 7.92434 16.6395 8.34123Z" fill="#CAD3DD" fill-opacity="0.7"/>
<path d="M19.6395 8.34123C19.6395 8.75812 19.306 9.09164 18.8891 9.09164C18.4722 9.09164 18.1387 8.75812 18.1387 8.34123C18.1387 7.92434 18.4722 7.59082 18.8891 7.59082C19.306 7.59082 19.6395 7.92434 19.6395 8.34123Z" fill="#011021"/>
<path d="M157.031 102.875H111.59V71.4414H157.031V102.875ZM111.798 102.667H156.823V71.6499H111.798V102.667Z" fill="#CAD3DD" fill-opacity="0.7"/>
<path d="M157.031 74.5681H111.59V71.4414H157.031V74.5681ZM111.798 74.3597H156.823V71.6499H111.798V74.3597Z" fill="#CAD3DD" fill-opacity="0.7"/>
<path d="M0 143.508L22.7207 143.383H45.4415L90.883 143.3L136.324 143.383H159.045L181.766 143.508L159.045 143.592L136.324 143.633L90.883 143.717L45.4415 143.633L22.7207 143.592L0 143.508Z" fill="#011021"/>
<path d="M38.6425 79.0581C38.6425 79.0581 29.5959 77.8074 31.722 66.8848C31.6804 66.8848 41.8109 69.136 38.6425 79.0581Z" fill="#8E98A5"/>
<path d="M38.1837 76.8076C38.017 76.2656 37.8085 75.7236 37.5584 75.1817C37.5584 75.0983 37.5584 75.0566 37.5167 74.9732C37.5167 74.8065 37.475 74.6814 37.475 74.5147C37.4333 74.1811 37.4333 73.8476 37.3916 73.5558C37.3499 72.8888 37.3082 72.2634 37.3082 71.5964C37.3082 71.5547 37.2666 71.5547 37.2666 71.5964C37.2666 72.2634 37.2666 72.8888 37.2666 73.5558C37.2666 73.8893 37.3082 74.2228 37.3082 74.5147C37.3082 74.598 37.3082 74.6397 37.3082 74.7231C36.808 73.6392 36.1826 72.5969 35.4739 71.6381C35.1821 71.2212 34.8486 70.8043 34.4734 70.3874C34.0982 69.9705 33.7229 69.5953 33.3477 69.1784C33.306 69.1367 33.2644 69.1784 33.3061 69.2201C33.9731 69.9288 34.515 70.7209 35.057 71.5547C35.3488 71.9716 35.599 72.3885 35.8491 72.8471C35.8074 72.8471 35.8074 72.8054 35.7657 72.8054C35.6407 72.7637 35.5573 72.722 35.4322 72.6803C35.1821 72.5969 34.9319 72.4719 34.6818 72.3885C34.1815 72.2217 33.7229 72.0133 33.2227 71.8465C33.181 71.8465 33.181 71.8882 33.2227 71.8882C33.7229 72.0967 34.1815 72.2634 34.6401 72.4719C34.8902 72.5552 35.0987 72.6803 35.3488 72.7637C35.4739 72.8054 35.599 72.8471 35.6823 72.8888C35.7657 72.9305 35.8491 72.9721 35.9325 72.9721C36.0992 73.3057 36.3077 73.6392 36.4744 73.9727C36.8913 74.8065 37.2665 75.682 37.6001 76.5991C37.6418 76.6408 37.6418 76.7242 37.6834 76.7659C37.475 76.5991 37.1832 76.5157 36.933 76.3907C36.6412 76.2656 36.3077 76.0988 36.0159 75.9738C35.3905 75.682 34.7652 75.3901 34.1398 75.0566C34.0982 75.0566 34.0982 75.0983 34.0982 75.0983C34.7235 75.4318 35.3488 75.807 35.9325 76.1405C36.2243 76.3073 36.5578 76.4741 36.8913 76.6408C37.1415 76.7659 37.4333 76.9326 37.7251 76.9743C38.017 77.8081 38.2254 78.6419 38.3088 79.5591C38.3922 80.8098 38.3922 82.0187 38.4339 83.2694C38.4339 83.3111 38.4755 83.2694 38.4755 83.2694C38.5589 82.1438 38.6006 81.0182 38.6423 79.8926C38.7257 78.8087 38.5172 77.8081 38.1837 76.8076Z" fill="#8E98A5"/>
<path d="M36.7658 70.3867C36.6824 71.0121 36.6407 71.6791 36.6824 72.3044H36.7241C36.7658 71.6791 36.7658 71.0121 36.8491 70.3867C36.8491 70.345 36.7658 70.345 36.7658 70.3867Z" fill="#8E98A5"/>
<path d="M34.1816 70.9284C33.7648 70.7616 33.3896 70.5949 33.0143 70.3447C32.9727 70.3447 32.9727 70.3864 32.9727 70.3864C33.3479 70.6366 33.7648 70.845 34.1816 70.9284C34.2233 70.9284 34.1816 70.9701 34.1816 70.9284Z" fill="#8E98A5"/>
<path d="M38.9327 96.4013C38.9327 95.4008 38.891 94.4002 38.891 93.3997C38.891 90.0645 38.8493 86.7711 38.766 83.4359C38.7243 80.8095 38.6409 78.183 38.5992 75.5149C38.5992 75.5149 38.5992 75.4732 38.5575 75.4732C38.5575 74.7645 38.5575 74.0141 38.5575 73.3054L38.5158 73.2637C38.4742 73.2637 38.4741 73.2637 38.4741 73.3054C38.4741 74.0141 38.4741 74.7645 38.4741 75.4732C38.4741 75.4732 38.4741 75.4732 38.4741 75.5149C38.3491 80.2258 38.224 84.895 38.1823 89.6059C38.1823 90.5648 38.1823 91.5237 38.1823 92.4825C38.1406 95.5258 38.1406 98.6109 38.1406 101.654C38.1406 102.154 38.1406 102.613 38.1406 103.113C38.1406 105.907 38.1823 108.7 38.1823 111.493C38.1823 111.66 38.3491 111.701 38.5158 111.743C38.7243 111.743 38.9327 111.66 38.9327 111.493C38.9327 108.408 38.9744 105.323 38.9744 102.238C38.9327 100.32 38.9327 98.3607 38.9327 96.4013Z" fill="#8E98A5"/>
<path d="M35.1401 93.3575C35.1401 93.3575 30.8044 90.1474 26.6771 92.3152C22.5498 94.4831 21.8828 102.904 21.8828 102.904C21.8828 102.904 27.9278 103.78 31.7632 100.153C35.4319 96.6509 35.1401 93.3575 35.1401 93.3575Z" fill="#8E98A5"/>
<path d="M36.3077 93.5661C35.5156 93.2326 34.6402 93.1493 33.8064 93.2326C33.6396 93.1909 33.4312 93.1909 33.2644 93.1909C33.056 93.1909 32.8475 93.1492 32.6391 93.1492C32.2222 93.1076 31.8053 93.1076 31.3884 93.0659C30.5129 92.9825 29.6791 92.9408 28.8036 92.8574C28.7619 92.8574 28.7619 92.8991 28.8036 92.8991C29.6374 93.0242 30.5129 93.1076 31.3467 93.2326C31.7636 93.2743 32.2222 93.316 32.6808 93.3577C32.7641 93.3577 32.8892 93.3577 33.0143 93.3994C32.8892 93.4411 32.7641 93.4411 32.6391 93.4828C31.972 93.6912 31.305 93.9414 30.6797 94.2749C30.3461 94.3166 30.0126 94.4416 29.6791 94.525C29.1372 94.6501 28.5952 94.7751 28.0532 94.9419C27.011 95.2337 25.9688 95.5255 24.8848 95.8174C24.8431 95.8174 24.8848 95.8591 24.8848 95.8591C25.9271 95.6089 26.9693 95.3588 28.0532 95.1087C28.5535 94.9836 29.0538 94.8585 29.5957 94.7334C29.7208 94.6918 29.8459 94.6918 30.0126 94.6501C28.8453 95.3588 27.8031 96.3176 26.9276 97.3599C26.0521 98.4021 25.3851 99.5277 24.7598 100.737C24.7598 100.778 24.8014 100.778 24.8014 100.778C25.5102 99.5277 26.3856 98.4021 27.3862 97.3599C27.3862 97.4016 27.3445 97.4849 27.3445 97.5266C27.2611 97.7768 27.1777 98.0269 27.0944 98.277C26.9276 98.7773 26.7609 99.3193 26.6358 99.8196C26.6358 99.8612 26.6775 99.8612 26.6775 99.8196C26.8442 99.3193 27.0527 98.819 27.2194 98.3187C27.3028 98.0686 27.3862 97.8185 27.4696 97.5683C27.5113 97.4433 27.553 97.3182 27.5946 97.1931C27.5946 97.1514 27.6363 97.1097 27.6363 97.0681C28.1366 96.6095 28.6369 96.1509 29.1788 95.734C29.8876 95.192 30.6797 94.7751 31.4718 94.3999C31.4718 94.4833 31.4301 94.5667 31.4301 94.6084C31.3884 94.8168 31.3467 95.0253 31.305 95.192C31.2216 95.6089 31.1382 96.0258 31.0549 96.4427C30.8881 97.2765 30.8047 98.152 30.638 98.9858C30.638 99.0275 30.6797 99.0275 30.6797 98.9858C30.8881 98.152 31.1382 97.3182 31.305 96.4427C31.3884 96.0258 31.5135 95.6089 31.5968 95.1503C31.6385 94.9419 31.6802 94.7334 31.7219 94.5667C31.7636 94.4416 31.7636 94.3582 31.7636 94.2332C31.847 94.1915 31.9303 94.1498 32.0137 94.1498C33.1393 93.7329 34.4317 93.3994 35.6407 93.6495C36.808 93.858 37.8086 94.6501 38.2671 95.734C38.3088 95.8174 38.4756 95.7757 38.4339 95.6923C38.1421 94.7751 37.2666 93.983 36.3077 93.5661Z" fill="#8E98A5"/>
<path d="M29.6788 97.1511C29.5537 97.693 29.4286 98.235 29.3035 98.8186C29.1785 99.3606 29.0534 99.9026 29.0117 100.445C29.0117 100.486 29.0534 100.486 29.0534 100.445C29.2202 99.9442 29.3035 99.3606 29.4286 98.8186C29.5537 98.2767 29.6371 97.7347 29.7621 97.1927C29.7204 97.1511 29.6788 97.1094 29.6788 97.1511Z" fill="#8E98A5"/>
<path d="M25.468 98.5684C24.9261 98.8602 24.3841 99.152 23.8005 99.4021C23.7588 99.4021 23.8005 99.4855 23.8422 99.4438C24.3841 99.152 24.9261 98.9019 25.468 98.5684Z" fill="#8E98A5"/>
<path d="M36.1003 87.4377C36.1003 87.4377 30.764 87.7712 28.3044 84.2693C25.8447 80.7674 26.3866 75.7646 26.3866 75.7646C26.3866 75.7646 31.973 76.4317 34.1826 78.9747C36.4338 81.4761 36.1003 87.4377 36.1003 87.4377Z" fill="#8E98A5"/>
<path d="M38.6006 92.6908C38.4339 92.1072 38.1838 91.5652 37.9753 90.9815C37.7669 90.4396 37.5584 89.8976 37.3083 89.3973C36.8497 88.3134 36.3077 87.2712 35.7241 86.2706C35.3489 85.6036 34.932 84.9783 34.5151 84.3946C34.5151 84.3112 34.4734 84.1862 34.4734 84.1028C34.4317 83.936 34.4317 83.7693 34.39 83.6025C34.3483 83.269 34.2649 82.9355 34.2233 82.602C34.0982 81.8516 33.9314 81.1428 33.8481 80.3924C33.8481 80.3507 33.8064 80.3507 33.8064 80.3924C33.9314 81.1011 33.9731 81.8516 34.0982 82.5603C34.1399 82.9355 34.1816 83.269 34.2649 83.6442C34.2649 83.7693 34.3066 83.8943 34.3066 84.0194C33.5145 82.8521 32.6391 81.6848 31.6802 80.6009C31.5551 80.4341 31.4301 80.309 31.305 80.184C31.305 80.1423 31.2633 80.1006 31.2633 80.0589C31.2216 79.9755 31.1799 79.8505 31.1382 79.7671C31.0549 79.5586 30.9715 79.3502 30.8881 79.1417C30.7213 78.7248 30.5963 78.308 30.4712 77.8911C30.4712 77.8494 30.4295 77.8911 30.4295 77.8911C30.5546 78.308 30.638 78.7665 30.763 79.1834C30.8047 79.3919 30.8881 79.6003 30.9715 79.8088C30.9715 79.8505 31.0132 79.8922 31.0132 79.8922C30.3461 79.1417 29.6374 78.433 28.887 77.7243C28.8453 77.6826 28.8036 77.7243 28.8453 77.766C30.2211 79.1834 31.4718 80.7676 32.5974 82.3935C32.4723 82.3518 32.3472 82.3101 32.2222 82.3101C31.8053 82.2268 31.3884 82.1851 30.9715 82.1017C30.096 81.9766 29.2205 81.8932 28.3867 81.7265C28.345 81.7265 28.345 81.7682 28.3867 81.7682C29.2205 81.9349 30.0126 82.1017 30.8464 82.3101C31.2216 82.3935 31.6385 82.4769 32.0137 82.5603C32.3472 82.6437 32.6391 82.727 32.9309 82.8104C33.0143 82.9355 33.0976 83.0606 33.181 83.1856C33.5562 83.7693 33.9314 84.3529 34.3066 84.9366C34.1399 84.8949 33.9314 84.8532 33.7647 84.8115C33.3478 84.7281 32.9309 84.6447 32.514 84.6031C31.7219 84.478 30.8881 84.3112 30.096 84.1445C30.0543 84.1445 30.0543 84.1862 30.096 84.1862C30.9298 84.3946 31.7219 84.6031 32.514 84.8115C32.8892 84.8949 33.3061 85.02 33.6813 85.1033C33.8897 85.145 34.0565 85.1867 34.2649 85.2284C34.3483 85.2284 34.4317 85.2701 34.5151 85.2701C35.3072 86.5208 36.0159 87.8131 36.6829 89.1472C36.9748 89.7309 37.2666 90.3145 37.5584 90.8982C37.8502 91.4818 38.1004 92.1072 38.3505 92.7325C38.4756 92.8993 38.6423 92.8576 38.6006 92.6908Z" fill="#8E98A5"/>
<path d="M33.1818 80.4754C33.0985 79.9751 32.9734 79.4749 32.8483 78.9746C32.8483 78.9329 32.8066 78.9746 32.8066 78.9746C32.89 79.4749 33.0151 79.9751 33.0985 80.4754C33.1819 80.9757 33.2652 81.476 33.3903 81.9762C33.3903 81.476 33.2652 80.9757 33.1818 80.4754Z" fill="#8E98A5"/>
<path d="M30.0553 80.3506C29.8051 80.2255 29.555 80.1421 29.3049 80.0171C29.1798 79.9754 29.0547 79.892 28.888 79.8503C28.8046 79.8086 28.7629 79.8086 28.6795 79.7669C28.5961 79.7252 28.5128 79.7252 28.4711 79.6835C28.4294 79.6419 28.3877 79.7252 28.4294 79.7252C28.5128 79.7252 28.5961 79.7669 28.6378 79.8086C28.7212 79.8503 28.7629 79.8503 28.8463 79.892C28.9713 79.9337 29.0964 80.0171 29.2215 80.0588C29.4716 80.1838 29.7217 80.2672 30.0136 80.3506C30.0969 80.3923 30.097 80.3506 30.0553 80.3506Z" fill="#8E98A5"/>
<path d="M41.5605 83.2689C41.5605 83.2689 44.7706 77.2656 49.69 76.3068C54.5677 75.3896 57.5693 80.434 57.5693 80.434C57.5693 80.434 53.984 84.9782 49.5232 85.812C45.0208 86.6041 41.5605 83.2689 41.5605 83.2689Z" fill="#8E98A5"/>
<path d="M52.9417 79.0172C51.691 78.8505 50.3569 78.8505 49.1062 79.0589C49.1896 79.0172 49.273 78.9755 49.3147 78.9338C49.6899 78.7671 50.0234 78.5586 50.3986 78.3919C51.149 78.0167 51.8994 77.5998 52.6915 77.2663C52.7332 77.2663 52.6915 77.1829 52.6498 77.2246C51.8994 77.5998 51.1073 77.8916 50.3152 78.2251C49.94 78.3919 49.5648 78.6003 49.1896 78.7671C48.9395 78.8921 48.6893 79.0172 48.4392 79.184C47.3553 79.3924 46.313 79.7259 45.3125 80.2262C45.5209 80.0178 45.7294 79.7676 45.9378 79.5592C46.3964 79.0589 46.855 78.5169 47.3553 78.1C47.397 78.0584 47.3553 78.0584 47.3136 78.0584C46.8133 78.5169 46.2713 78.9338 45.7711 79.4341C45.5209 79.6842 45.3125 79.8927 45.0624 80.1428C44.9373 80.2679 44.8539 80.393 44.7288 80.518C42.6027 81.6853 40.7683 83.4363 39.601 85.5208C38.934 86.7298 38.4337 88.0221 38.1836 89.3562C38.1836 89.3979 38.2253 89.3979 38.2253 89.3562C38.8923 87.105 40.1847 84.9371 41.8106 83.2695C43.6032 81.4352 45.8961 80.1011 48.3558 79.4758C49.8149 79.1006 51.3575 78.9755 52.9 79.0589C53.025 79.1423 53.025 79.0172 52.9417 79.0172Z" fill="#8E98A5"/>
<path d="M50.1069 76.8903C49.7317 77.0988 49.3565 77.3489 49.023 77.599C48.6895 77.8492 48.356 78.141 48.0641 78.4745C48.0225 78.5162 48.0641 78.5579 48.1058 78.5162C48.4394 78.2244 48.7729 77.9326 49.1064 77.6824C49.4399 77.4323 49.7734 77.1405 50.1486 76.932C50.1903 76.8903 50.1486 76.8486 50.1069 76.8903Z" fill="#8E98A5"/>
<path d="M52.8173 77.8906C52.6505 77.974 52.4421 78.0157 52.2753 78.0991C52.1086 78.1825 51.9001 78.2658 51.7334 78.3075C51.6917 78.3075 51.7334 78.3909 51.7334 78.3909C51.9001 78.3075 52.1086 78.2241 52.2753 78.1824C52.4421 78.0991 52.6505 78.0157 52.8173 77.9323C52.859 77.9323 52.859 77.8906 52.8173 77.8906Z" fill="#8E98A5"/>
<path d="M40.9336 90.8569C40.9336 90.8569 41.8091 96.8185 46.2698 98.9029C50.7723 100.987 56.2336 98.9029 56.2336 98.9029C56.2336 98.9029 54.0658 85.9792 40.9336 90.8569Z" fill="#8E98A5"/>
<path d="M53.1487 95.025C52.7319 94.9833 52.315 94.8999 51.8981 94.8166C51.6896 94.7749 51.4812 94.7332 51.3144 94.6915C51.231 94.6915 51.106 94.6498 50.9809 94.6081C50.8558 94.483 50.7308 94.3997 50.6057 94.2746C49.7719 93.5242 48.8547 92.8572 47.8542 92.2735C47.3122 91.94 46.7703 91.6899 46.2283 91.4397C46.27 91.4397 46.27 91.4397 46.3117 91.4397C46.812 91.4814 47.3122 91.4814 47.7708 91.5231C48.7714 91.5648 49.7302 91.6065 50.7308 91.6482C50.7725 91.6482 50.7725 91.6065 50.7308 91.6065C49.7302 91.5231 48.7714 91.4397 47.7708 91.3563C47.3122 91.3147 46.812 91.273 46.3534 91.2313C46.1032 91.1896 45.8531 91.1896 45.603 91.1479C45.5196 91.1479 45.4779 91.1479 45.3945 91.1479C45.1444 91.0645 44.8942 90.9811 44.6024 90.8978C43.3934 90.5226 42.0594 90.3558 40.8087 90.6893C39.6831 90.9811 38.5575 91.7315 38.2656 92.8988C38.2656 92.9405 38.3073 92.9822 38.349 92.9405C38.7659 91.94 39.8915 91.4397 40.8504 91.2313C41.5174 91.1062 42.2261 91.1062 42.8932 91.1896C42.9348 91.4814 43.0182 91.8149 43.1016 92.1067C43.2267 92.5236 43.3517 92.9405 43.4768 93.3574C43.7269 94.1912 44.0188 95.025 44.2689 95.8588C44.2689 95.9005 44.3106 95.8588 44.3106 95.8588C44.1021 95.025 43.9354 94.1912 43.7269 93.3574C43.6436 92.9405 43.5185 92.5236 43.4351 92.1067C43.3517 91.8566 43.31 91.5231 43.2267 91.273C43.6019 91.3563 44.0188 91.4397 44.394 91.5648C45.1027 91.7732 45.7697 92.0234 46.4368 92.3152C46.5201 92.7321 46.6035 93.149 46.6869 93.5659C46.812 94.1078 46.937 94.6081 47.1038 95.1084C47.1038 95.1501 47.1455 95.1084 47.1455 95.1084C47.1455 95.0667 47.1455 95.025 47.1455 95.025C47.0621 94.5247 46.937 94.0662 46.8537 93.5659C46.7703 93.1907 46.6869 92.7738 46.6035 92.3986C47.1455 92.6487 47.7291 92.9405 48.2294 93.2324C48.2294 93.3574 48.2711 93.4825 48.2711 93.6076C48.3128 93.816 48.3545 94.0245 48.3962 94.2329C48.4795 94.6915 48.5629 95.1501 48.688 95.6087C48.8964 96.4841 49.1466 97.3596 49.4384 98.1934V98.2351C49.4384 98.2351 49.4384 98.2351 49.4801 98.2768C49.4801 98.3185 49.5218 98.2768 49.5218 98.2351C49.3133 97.3596 49.0632 96.4841 48.8964 95.567C48.8131 95.1084 48.688 94.6915 48.6046 94.2329C48.5629 94.0245 48.5212 93.7743 48.4795 93.5659C48.4795 93.5242 48.4378 93.4408 48.4378 93.3574C49.0632 93.7326 49.6468 94.1078 50.1888 94.5247C51.1477 95.2335 52.0648 96.0672 52.8569 96.9844C52.8986 97.0261 52.9403 96.9844 52.9403 96.9427C52.6068 96.4841 52.2733 96.0672 51.8564 95.6503C51.6479 95.4002 51.3978 95.1918 51.1477 94.9416C51.1894 94.9416 51.1894 94.9416 51.231 94.9416C51.4395 94.9833 51.6479 95.025 51.8564 95.025C52.2733 95.0667 52.6902 95.1084 53.1071 95.1501C53.1488 95.0667 53.1487 95.025 53.1487 95.025Z" fill="#8E98A5"/>
<path d="M49.9787 97.0266C49.9787 96.9849 49.9787 96.9432 49.937 96.8598C49.937 96.7764 49.8953 96.7347 49.8953 96.6514C49.812 96.2345 49.7286 95.8593 49.6452 95.4424C49.6452 95.4007 49.6035 95.4424 49.6035 95.4424C49.6035 96.026 49.7703 96.568 49.9787 97.0266C49.9787 97.0682 49.937 97.0682 49.9787 97.0266Z" fill="#8E98A5"/>
<path d="M46.2276 96.9439C46.2276 96.9022 46.2276 96.9022 46.2276 96.9439C46.0608 96.4019 45.9357 95.8599 45.8523 95.318C45.8107 95.0261 45.7273 94.776 45.6856 94.4842C45.6439 94.3174 45.6439 94.1924 45.6022 94.0256C45.5605 93.9005 45.5605 93.7755 45.5188 93.6504H45.4771C45.4355 93.9005 45.5605 94.1924 45.6022 94.4425C45.6439 94.7343 45.7273 95.0261 45.769 95.318C45.894 95.9016 46.0608 96.4853 46.2276 97.0689C46.2276 97.1106 46.2692 97.1106 46.2692 97.0689C46.2275 97.0272 46.2276 96.9855 46.2276 96.9439Z" fill="#8E98A5"/>
<path d="M52.7312 93.2749C51.8974 93.1499 51.1053 93.0248 50.2715 92.9414C50.2298 92.9414 50.2298 92.9831 50.2715 92.9831C51.1053 93.1082 51.8974 93.1915 52.7312 93.3166C52.7312 93.3583 52.7729 93.3166 52.7312 93.2749Z" fill="#8E98A5"/>
<path d="M38.6447 76.8497C38.6447 76.8497 35.8932 64.8015 48.8586 59.9238C48.8169 59.9238 52.4022 75.8075 38.6447 76.8497Z" fill="#8E98A5"/>
<path d="M41.4379 70.0129C41.4796 69.9712 41.5212 69.9712 41.5629 69.9295C41.8131 69.8045 42.0632 69.6377 42.3133 69.5126L43.8142 68.6788C44.8147 68.1369 45.7736 67.5532 46.7741 67.0113C46.8158 67.0113 46.7741 66.9279 46.7324 66.9696C45.7319 67.5115 44.7313 68.0118 43.7308 68.5538L42.23 69.3459C42.0215 69.4709 41.8131 69.5543 41.6046 69.6794C42.0215 68.8456 42.4801 68.0535 43.0221 67.3031C43.6891 66.2609 44.4395 65.302 45.1899 64.3431C45.2316 64.3015 45.1482 64.2598 45.1065 64.3014C43.9809 65.3854 42.9804 66.6361 42.1049 67.9701C42.1049 67.9284 42.1049 67.8867 42.1049 67.8451C42.1049 67.5532 42.1466 67.2614 42.1466 66.9279C42.1466 66.3442 42.1466 65.7606 42.1466 65.1769C42.1466 65.1352 42.1049 65.1352 42.1049 65.1769C42.0632 65.7606 42.0215 66.3442 41.9798 66.9279C41.9798 67.2197 41.9381 67.5115 41.9381 67.8034C41.9381 67.9701 41.9381 68.1369 41.9381 68.3036C41.688 68.7205 41.3962 69.1374 41.1877 69.596C40.7708 70.3881 40.3539 71.1802 40.0204 72.014C40.0204 71.7222 39.9787 71.4303 39.9787 71.0968C39.937 70.4298 39.8537 69.7628 39.812 69.1374C39.812 69.0957 39.7703 69.0957 39.7703 69.1374C39.7703 69.8045 39.7703 70.4715 39.7703 71.0968C39.7703 71.4303 39.7703 71.7639 39.812 72.0974C39.812 72.2224 39.812 72.3475 39.8537 72.4726C39.4368 73.5565 39.1033 74.6821 38.8948 75.766C38.6447 76.975 38.5196 78.184 38.3945 79.393C38.5196 78.3091 38.7697 77.1835 39.0616 76.1413C39.2283 75.5576 39.3951 75.0156 39.5618 74.432C40.1038 74.1818 40.6041 73.8483 41.146 73.5565C41.688 73.2647 42.23 72.9729 42.7719 72.681C43.8558 72.0974 44.9398 71.472 46.0237 70.9718C46.0654 70.9718 46.0237 70.9301 45.982 70.9301C44.8564 71.4303 43.7308 71.9306 42.6052 72.4726C42.0632 72.7644 41.5212 73.0562 40.9793 73.3481C40.5207 73.5982 40.0621 73.8483 39.6452 74.1402C39.7703 73.765 39.8954 73.3897 40.0621 73.0145C40.479 71.9723 40.9376 70.9718 41.4379 70.0129Z" fill="#8E98A5"/>
<path d="M40.3132 67.2617C40.3132 67.22 40.2715 67.22 40.2715 67.2617C40.3132 67.9288 40.3549 68.6375 40.3966 69.3045C40.3966 69.3462 40.4382 69.3462 40.4382 69.3045C40.4382 68.6375 40.3966 67.9705 40.3132 67.2617Z" fill="#8E98A5"/>
<path d="M46.5244 69.5537C45.7323 69.8872 44.8985 70.1791 44.1064 70.5126C44.0647 70.5126 44.1064 70.5543 44.1064 70.5543C44.9402 70.2624 45.7323 69.9289 46.5244 69.5954C46.5661 69.5954 46.5661 69.5537 46.5244 69.5537Z" fill="#8E98A5"/>
<path d="M47.775 64.0098C46.9829 64.385 46.2325 64.8019 45.4821 65.2604C45.4404 65.3021 45.4821 65.3438 45.5238 65.3021C46.2742 64.8436 47.0246 64.4267 47.8167 64.0515L47.775 64.0098Z" fill="#8E98A5"/>
<path d="M47.5636 102.904H28.8867V122.582H47.5636V102.904Z" fill="#4D5763"/>
<path d="M28.5936 109.865H27.6348V143.55H28.5936V109.865Z" fill="#475463"/>
<path d="M48.7303 109.865H47.7715V143.55H48.7303V109.865Z" fill="#475463"/>
<path d="M39.1815 109.865H38.2227V143.55H39.1815V109.865Z" fill="#475463"/>
<path d="M48.2714 121.289H28.0938V123.999H48.2714V121.289Z" fill="#475463"/>
<g opacity="0.5">
<path d="M181.022 3.08496H114.861V50.3191H181.022V3.08496Z" fill="#CAD3DD" fill-opacity="0.7"/>
<path d="M181.021 50.3189L114.86 50.4439H114.735V50.3189L114.693 3.08473V2.91797H114.86L181.021 2.95966H181.146V3.08473L181.021 50.3189ZM181.021 50.3189L180.896 3.08473L181.021 3.2098L114.86 3.25149L115.027 3.08473L114.985 50.3189L114.86 50.1938L181.021 50.3189Z" fill="#CAD3DD" fill-opacity="0.7"/>
</g>
<path d="M181.022 0H114.861V3.08502H181.022V0Z" fill="#4D5763"/>
<path d="M117.321 1.54167C117.321 1.95857 116.988 2.29208 116.571 2.29208C116.154 2.29208 115.82 1.95857 115.82 1.54167C115.82 1.12478 116.154 0.791261 116.571 0.791261C116.988 0.749572 117.321 1.12478 117.321 1.54167Z" fill="#C7C7C7"/>
<path d="M120.489 1.54167C120.489 1.95857 120.156 2.29208 119.739 2.29208C119.322 2.29208 118.988 1.95857 118.988 1.54167C118.988 1.12478 119.322 0.791261 119.739 0.791261C120.114 0.749572 120.489 1.12478 120.489 1.54167Z" fill="white"/>
<path d="M123.616 1.54167C123.616 1.95857 123.283 2.29208 122.866 2.29208C122.449 2.29208 122.115 1.95857 122.115 1.54167C122.115 1.12478 122.449 0.791261 122.866 0.791261C123.283 0.749572 123.616 1.12478 123.616 1.54167Z" fill="#011021"/>
<path d="M163.84 42.6416H168.635V11.6663H163.84V42.6416Z" fill="white"/>
<path d="M163.84 42.6621H168.635V19.1493H163.84V42.6621Z" fill="#011021"/>
<path d="M156.684 42.6533H161.479V11.6781H156.684V42.6533Z" fill="white"/>
<path d="M156.684 42.6318H161.479V22.2457H156.684V42.6318Z" fill="#4D5763"/>
<path d="M149.483 42.6416H154.277V11.6663H149.483V42.6416Z" fill="white"/>
<path d="M149.483 42.6396H154.277V33.2178H149.483V42.6396Z" fill="#011021"/>
<path d="M142.284 42.6533H147.078V11.6781H142.284V42.6533Z" fill="white"/>
<path d="M142.284 42.6328H147.078V16.7854H142.284V42.6328Z" fill="#4D5763"/>
<path d="M135.128 42.6533H139.922V11.6781H135.128V42.6533Z" fill="white"/>
<path d="M135.128 42.6279H139.922V14.7377H135.128V42.6279Z" fill="#011021"/>
<path d="M127.926 42.6533H132.721V11.6781H127.926V42.6533Z" fill="white"/>
<path d="M127.926 42.6387H132.721V24.9623H127.926V42.6387Z" fill="#4D5763"/>
<path d="M124.78 11.6748L124.822 19.429L124.863 27.1416L124.947 42.6501L124.78 42.4833H136.536H148.293L160.049 42.5667L171.847 42.6501L160.049 42.7334L148.293 42.8168H136.536H124.78H124.613V42.6501L124.655 27.1416L124.697 19.429L124.78 11.6748Z" fill="#C7C7C7"/>
<path d="M124.072 11.6742C124.322 11.5908 124.531 11.5908 124.781 11.5908C125.031 11.5908 125.24 11.5908 125.49 11.6742C125.24 11.7576 125.031 11.7576 124.781 11.7576C124.531 11.7576 124.322 11.7576 124.072 11.6742Z" fill="#C7C7C7"/>
<path d="M124.072 14.7592C124.322 14.6758 124.531 14.6758 124.781 14.6758C125.031 14.6758 125.24 14.6758 125.49 14.7592C125.24 14.8425 125.031 14.8425 124.781 14.8425C124.531 14.8425 124.322 14.8008 124.072 14.7592Z" fill="#C7C7C7"/>
<path d="M124.072 17.8021C124.322 17.7188 124.531 17.7188 124.781 17.7188C125.031 17.7188 125.24 17.7188 125.49 17.8021C125.24 17.8855 125.031 17.8855 124.781 17.8855C124.531 17.8855 124.322 17.8855 124.072 17.8021Z" fill="#C7C7C7"/>
<path d="M124.072 20.8871C124.322 20.8037 124.531 20.8037 124.781 20.8037C125.031 20.8037 125.24 20.8037 125.49 20.8871C125.24 20.9705 125.031 20.9705 124.781 20.9705C124.531 20.9705 124.322 20.9705 124.072 20.8871Z" fill="#C7C7C7"/>
<path d="M124.072 23.972C124.322 23.8887 124.531 23.8887 124.781 23.8887C125.031 23.8887 125.24 23.8887 125.49 23.972C125.24 24.0554 125.031 24.0554 124.781 24.0554C124.531 24.0554 124.322 24.0137 124.072 23.972Z" fill="#C7C7C7"/>
<path d="M124.072 27.016C124.322 26.9326 124.531 26.9326 124.781 26.9326C125.031 26.9326 125.24 26.9326 125.49 27.016C125.24 27.0994 125.031 27.0994 124.781 27.0994C124.531 27.0994 124.322 27.0994 124.072 27.016Z" fill="#C7C7C7"/>
<path d="M124.072 30.101C124.322 30.0176 124.531 30.0176 124.781 30.0176C125.031 30.0176 125.24 30.0176 125.49 30.101C125.24 30.1843 125.031 30.1843 124.781 30.1843C124.531 30.1843 124.322 30.1843 124.072 30.101Z" fill="#C7C7C7"/>
<path d="M124.072 33.1859C124.322 33.1025 124.531 33.1025 124.781 33.1025C125.031 33.1025 125.24 33.1025 125.49 33.1859C125.24 33.2693 125.031 33.2693 124.781 33.2693C124.531 33.2693 124.322 33.2276 124.072 33.1859Z" fill="#C7C7C7"/>
<path d="M124.072 36.2299C124.322 36.1465 124.531 36.1465 124.781 36.1465C125.031 36.1465 125.24 36.1465 125.49 36.2299C125.24 36.3132 125.031 36.3132 124.781 36.3132C124.531 36.3132 124.322 36.3132 124.072 36.2299Z" fill="#C7C7C7"/>
<path d="M124.072 39.3139C124.322 39.2305 124.531 39.2305 124.781 39.2305C125.031 39.2305 125.24 39.2305 125.49 39.3139C125.24 39.3972 125.031 39.3972 124.781 39.3972C124.531 39.3972 124.322 39.3972 124.072 39.3139Z" fill="#C7C7C7"/>
<g opacity="0.5">
<path d="M80.0542 17.3086H18.9375V57.0803H80.0542V17.3086Z" fill="#CAD3DD" fill-opacity="0.7"/>
<path d="M80.053 57.0801L18.9363 57.2052H18.8112V57.0801L18.7695 17.3084V17.1416H18.9363L80.053 17.1833H80.1781V17.3084L80.1364 37.2359L80.053 57.0801ZM80.053 57.0801L79.9696 37.1525L79.9279 17.3084L80.053 17.4334L18.9363 17.4751L19.103 17.3084L19.0614 57.0801L18.9363 56.955L80.053 57.0801Z" fill="#CAD3DD" fill-opacity="0.7"/>
</g>
<path d="M80.0523 14.4316H18.9355V17.3082H80.0523V14.4316Z" fill="#4D5763"/>
<path d="M21.187 15.8493C21.187 16.2246 20.8535 16.5581 20.4783 16.5581C20.103 16.5581 19.7695 16.2246 19.7695 15.8493C19.7695 15.4741 20.103 15.1406 20.4783 15.1406C20.8951 15.1406 21.187 15.4741 21.187 15.8493Z" fill="#C7C7C7"/>
<path d="M24.1049 15.8493C24.1049 16.2246 23.7714 16.5581 23.3962 16.5581C23.021 16.5581 22.6875 16.2246 22.6875 15.8493C22.6875 15.4741 23.021 15.1406 23.3962 15.1406C23.7714 15.1406 24.1049 15.4741 24.1049 15.8493Z" fill="white"/>
<path d="M27.0229 15.8493C27.0229 16.2246 26.6894 16.5581 26.3142 16.5581C25.939 16.5581 25.6055 16.2246 25.6055 15.8493C25.6055 15.4741 25.939 15.1406 26.3142 15.1406C26.6894 15.1406 27.0229 15.4741 27.0229 15.8493Z" fill="#011021"/>
<path d="M73.213 23.0996H30.1895V27.3102H73.213V23.0996Z" fill="white"/>
<path d="M52.9511 24.2666H31.5645V26.1009H52.9511V24.2666Z" fill="#011021"/>
<path d="M73.213 29.2285H30.1895V33.4391H73.213V29.2285Z" fill="white"/>
<path d="M64.9577 30.4375H31.5645V32.2718H64.9577V30.4375Z" fill="#4D5763"/>
<path d="M73.213 35.3994H30.1895V39.6101H73.213V35.3994Z" fill="white"/>
<path d="M39.946 36.5664H31.5664V38.4007H39.946V36.5664Z" fill="#011021"/>
<path d="M73.213 41.5684H30.1895V45.779H73.213V41.5684Z" fill="white"/>
<path d="M58.0809 42.7354H31.5664V44.5697H58.0809V42.7354Z" fill="#4D5763"/>
<path d="M73.213 47.6973H30.1895V51.9079H73.213V47.6973Z" fill="white"/>
<path d="M62.0414 48.9062H31.5664V50.7406H62.0414V48.9062Z" fill="#011021"/>
<path d="M24.7701 25.31C24.7701 25.5602 24.5616 25.8103 24.2698 25.8103C24.0197 25.8103 23.8112 25.6019 23.7695 25.3934C23.7695 25.3517 23.7695 25.31 23.7695 25.2684C23.7695 25.1433 23.7695 24.9765 23.8529 24.8515C23.8946 24.7264 23.978 24.6013 24.103 24.5179C24.1864 24.4763 24.2698 24.4346 24.3949 24.4346C24.4366 24.4346 24.5199 24.4763 24.5199 24.5596C24.5199 24.6013 24.4783 24.6847 24.3949 24.6847C24.3115 24.6847 24.2698 24.7264 24.1864 24.7264C24.1447 24.7681 24.103 24.8098 24.0614 24.8515C24.0614 24.8515 24.0614 24.8932 24.0197 24.8932C24.0614 24.8515 24.1447 24.8515 24.2281 24.8515C24.5616 24.8098 24.7701 25.0599 24.7701 25.31ZM24.5616 25.31C24.5616 25.185 24.4366 25.0599 24.3115 25.0599C24.1447 25.0599 24.0614 25.185 24.0614 25.31C24.0614 25.4768 24.1864 25.5602 24.3115 25.5602C24.4366 25.5602 24.5616 25.4768 24.5616 25.31Z" fill="#011021"/>
<path d="M25.1035 25.1003C25.1035 24.9336 25.1452 24.7668 25.2286 24.6C25.312 24.475 25.437 24.3916 25.6038 24.3916C25.7705 24.3916 25.8956 24.475 25.979 24.6C26.0624 24.7251 26.1041 24.8919 26.1041 25.1003C26.1041 25.2671 26.0624 25.4338 25.979 25.6006C25.8956 25.7257 25.7705 25.809 25.6038 25.809C25.437 25.809 25.312 25.7257 25.2286 25.6006C25.1452 25.4338 25.1035 25.2671 25.1035 25.1003ZM25.8956 25.1003C25.8956 24.9753 25.8539 24.8085 25.8122 24.7251C25.7705 24.6417 25.6872 24.6 25.6455 24.6C25.5621 24.6 25.5204 24.6417 25.437 24.7251C25.3953 24.8085 25.3537 24.9336 25.3537 25.1003C25.3537 25.2254 25.3953 25.3921 25.437 25.4755C25.4787 25.5589 25.5621 25.6006 25.6455 25.6006C25.6872 25.6006 25.7705 25.5589 25.8122 25.4755C25.8539 25.3505 25.8956 25.2254 25.8956 25.1003Z" fill="#011021"/>
<path d="M26.5215 24.7258C26.5215 24.5173 26.6466 24.3506 26.855 24.3506C27.0634 24.3506 27.1885 24.5173 27.1885 24.7258C27.1885 24.9342 27.0634 25.101 26.855 25.101C26.6466 25.101 26.5215 24.9342 26.5215 24.7258ZM26.9801 24.7258C26.9801 24.6007 26.8967 24.5173 26.8133 24.5173C26.7299 24.5173 26.6466 24.6007 26.6466 24.7258C26.6466 24.8509 26.7299 24.9342 26.8133 24.9342C26.9384 24.9342 26.9801 24.8509 26.9801 24.7258ZM26.7299 25.6847L27.6471 24.434C27.6471 24.3923 27.6888 24.3923 27.7305 24.3923C27.7722 24.3923 27.8139 24.434 27.8139 24.4757V24.5173L26.8967 25.768C26.8967 25.8097 26.855 25.8097 26.8133 25.8097C26.7299 25.8097 26.7299 25.768 26.7299 25.7263V25.6847ZM27.3553 25.4762C27.3553 25.2678 27.4803 25.101 27.6888 25.101C27.8972 25.101 28.0223 25.2678 28.0223 25.4762C28.0223 25.6847 27.8972 25.8514 27.6888 25.8514C27.4803 25.8097 27.3553 25.643 27.3553 25.4762ZM27.8555 25.4762C27.8555 25.3511 27.7722 25.2678 27.6888 25.2678C27.6054 25.2678 27.522 25.3511 27.522 25.4762C27.522 25.6013 27.6054 25.6847 27.6888 25.6847C27.7722 25.643 27.8555 25.5596 27.8555 25.4762Z" fill="#011021"/>
<path d="M23.8066 31.0218C23.8066 30.7716 24.0151 30.5215 24.3069 30.5215C24.557 30.5215 24.7655 30.7299 24.8072 30.9384C24.8072 30.9801 24.8072 31.0218 24.8072 31.0634C24.8072 31.1885 24.8072 31.3553 24.7238 31.4803C24.6821 31.6054 24.5987 31.7305 24.4737 31.8139C24.3903 31.8555 24.3069 31.8972 24.1818 31.8972C24.1402 31.8972 24.0568 31.8555 24.0568 31.7722C24.0568 31.7305 24.0985 31.6471 24.1818 31.6471C24.2652 31.6471 24.3069 31.6054 24.3903 31.6054C24.432 31.5637 24.4737 31.522 24.5154 31.4803C24.5154 31.4803 24.5154 31.4387 24.5571 31.4387C24.5154 31.4803 24.432 31.4803 24.3486 31.4803C24.0151 31.522 23.8066 31.3136 23.8066 31.0218ZM24.0151 31.0218C24.0151 31.1468 24.1402 31.2719 24.2652 31.2719C24.432 31.2719 24.5154 31.1468 24.5154 31.0218C24.5154 30.855 24.3903 30.7716 24.2652 30.7716C24.1402 30.7716 24.0151 30.8967 24.0151 31.0218Z" fill="#011021"/>
<path d="M25.0996 31.2302C25.0996 31.0634 25.1413 30.8967 25.2247 30.7299C25.3081 30.6049 25.4331 30.5215 25.5999 30.5215C25.7666 30.5215 25.8917 30.6049 25.9751 30.7299C26.0585 30.855 26.1002 31.0218 26.1002 31.2302C26.1002 31.397 26.0585 31.5637 25.9751 31.7305C25.8917 31.8555 25.7666 31.9389 25.5999 31.9389C25.4331 31.9389 25.3081 31.8555 25.2247 31.7305C25.1413 31.6054 25.0996 31.4387 25.0996 31.2302ZM25.8917 31.2302C25.8917 31.1051 25.85 30.9384 25.8083 30.855C25.7666 30.7716 25.6833 30.7299 25.6416 30.7299C25.5582 30.7299 25.5165 30.7716 25.4331 30.855C25.3914 30.9384 25.3497 31.0634 25.3497 31.2302C25.3497 31.3553 25.3914 31.522 25.4331 31.6054C25.4748 31.6888 25.5582 31.7305 25.6416 31.7305C25.6833 31.7305 25.7666 31.6888 25.8083 31.6054C25.85 31.522 25.8917 31.397 25.8917 31.2302Z" fill="#011021"/>
<path d="M26.5156 30.8967C26.5156 30.6882 26.6407 30.5215 26.8491 30.5215C27.0576 30.5215 27.1827 30.6882 27.1827 30.8967C27.1827 31.1051 27.0576 31.2719 26.8491 31.2719C26.6407 31.2302 26.5156 31.1051 26.5156 30.8967ZM26.9742 30.8967C26.9742 30.7716 26.8908 30.6882 26.8074 30.6882C26.7241 30.6882 26.6407 30.7716 26.6407 30.8967C26.6407 31.0218 26.7241 31.1051 26.8074 31.1051C26.9325 31.1051 26.9742 31.0218 26.9742 30.8967ZM26.7241 31.8555L27.6412 30.6049C27.6412 30.5632 27.6829 30.5632 27.7246 30.5632C27.7663 30.5632 27.808 30.6049 27.808 30.6466V30.6882L26.8908 31.9389C26.8908 31.9806 26.8491 31.9806 26.8074 31.9806C26.7658 31.9806 26.7241 31.9389 26.7241 31.8972C26.7241 31.8555 26.7241 31.8555 26.7241 31.8555ZM27.3494 31.6054C27.3494 31.397 27.4745 31.2302 27.6829 31.2302C27.8914 31.2302 28.0164 31.397 28.0164 31.6054C28.0164 31.8139 27.8914 31.9806 27.6829 31.9806C27.4745 31.9806 27.3494 31.8139 27.3494 31.6054ZM27.8497 31.6054C27.8497 31.4803 27.7663 31.397 27.6829 31.397C27.5996 31.397 27.5162 31.4803 27.5162 31.6054C27.5162 31.7305 27.5996 31.8139 27.6829 31.8139C27.7663 31.8139 27.8497 31.7305 27.8497 31.6054Z" fill="#011021"/>
<path d="M24.5603 37.2748C24.6437 37.3581 24.7271 37.4832 24.7271 37.6083C24.7271 37.7333 24.6854 37.8584 24.5603 37.9835C24.4769 38.0669 24.3519 38.1502 24.1851 38.1502C24.06 38.1502 23.935 38.1085 23.8516 37.9835C23.8099 37.9418 23.8099 37.8584 23.8516 37.8167C23.8933 37.775 23.9766 37.775 24.0183 37.8167C24.06 37.8584 24.1434 37.9001 24.2268 37.9001C24.3102 37.9001 24.3519 37.8584 24.4352 37.8167C24.4769 37.775 24.5186 37.6917 24.5186 37.6083C24.5186 37.5249 24.4769 37.4832 24.4352 37.3998C24.3935 37.3581 24.3102 37.3164 24.2268 37.3164C24.1851 37.3164 24.1851 37.3164 24.1434 37.2748C24.1017 37.2331 24.1017 37.1497 24.1434 37.108L24.3519 36.8996H24.0183C23.9766 36.8996 23.8933 36.8579 23.8933 36.7745C23.8933 36.7328 23.935 36.6494 24.0183 36.6494H24.602C24.6854 36.6494 24.7271 36.6911 24.7271 36.7745V36.8162C24.7271 36.8162 24.7271 36.8162 24.7271 36.8579L24.4769 37.108C24.4769 37.1914 24.5186 37.2331 24.5603 37.2748Z" fill="#011021"/>
<path d="M25.0195 37.3991C25.0195 37.2324 25.0612 37.0656 25.1446 36.8989C25.228 36.7738 25.353 36.6904 25.5198 36.6904C25.6866 36.6904 25.8116 36.7738 25.895 36.8989C25.9784 37.0239 26.0201 37.1907 26.0201 37.3991C26.0201 37.5659 25.9784 37.7327 25.895 37.8994C25.8116 38.0245 25.6866 38.1079 25.5198 38.1079C25.353 38.1079 25.228 38.0245 25.1446 37.8994C25.0612 37.7744 25.0195 37.6076 25.0195 37.3991ZM25.8116 37.3991C25.8116 37.2741 25.7699 37.1073 25.7283 37.0239C25.6866 36.9406 25.6032 36.8989 25.5615 36.8989C25.5198 36.8989 25.4364 36.9406 25.353 37.0239C25.3114 37.1073 25.2697 37.2324 25.2697 37.3991C25.2697 37.5242 25.3114 37.691 25.353 37.7744C25.3947 37.8577 25.4781 37.8994 25.5615 37.8994C25.6032 37.8994 25.6866 37.8577 25.7283 37.7744C25.7699 37.691 25.8116 37.5659 25.8116 37.3991Z" fill="#011021"/>
<path d="M26.4375 37.0656C26.4375 36.8572 26.5626 36.6904 26.771 36.6904C26.9795 36.6904 27.1045 36.8572 27.1045 37.0656C27.1045 37.2741 26.9795 37.4408 26.771 37.4408C26.5626 37.3991 26.4375 37.2324 26.4375 37.0656ZM26.9378 37.0656C26.9378 36.9406 26.8544 36.8572 26.771 36.8572C26.6876 36.8572 26.6043 36.9406 26.6043 37.0656C26.6043 37.1907 26.6876 37.2741 26.771 37.2741C26.8544 37.2324 26.9378 37.149 26.9378 37.0656ZM26.6876 37.9828L27.6048 36.7321C27.6048 36.6904 27.6465 36.6904 27.6882 36.6904C27.7299 36.6904 27.7716 36.7321 27.7716 36.7738V36.8155L26.8544 38.0662C26.8544 38.1079 26.8127 38.1079 26.771 38.1079C26.7293 38.1079 26.6876 38.0662 26.6876 38.0245C26.6459 38.0245 26.6459 38.0245 26.6876 37.9828ZM27.2713 37.7744C27.2713 37.5659 27.3964 37.3991 27.6048 37.3991C27.8132 37.3991 27.9383 37.5659 27.9383 37.7744C27.9383 37.9828 27.8132 38.1496 27.6048 38.1496C27.438 38.1496 27.2713 37.9828 27.2713 37.7744ZM27.7716 37.7744C27.7716 37.6493 27.6882 37.5659 27.6048 37.5659C27.5214 37.5659 27.438 37.6493 27.438 37.7744C27.438 37.8994 27.5214 37.9828 27.6048 37.9828C27.7299 37.9828 27.7716 37.8994 27.7716 37.7744Z" fill="#011021"/>
<path d="M24.6821 43.0274L24.1818 44.2364C24.1818 44.2781 24.1402 44.3198 24.0985 44.3198H24.0568C24.0151 44.2781 23.9734 44.2364 24.0151 44.1947L24.432 43.1525H23.9317C23.89 43.1525 23.8066 43.1108 23.8066 43.0274C23.8066 42.9857 23.8483 42.9023 23.9317 42.9023H24.6404H24.6821C24.6821 42.944 24.6821 42.9857 24.6821 43.0274Z" fill="#011021"/>
<path d="M24.9316 43.5681C24.9316 43.4013 24.9733 43.2346 25.0567 43.0678C25.1401 42.9428 25.2652 42.8594 25.4319 42.8594C25.5987 42.8594 25.7237 42.9428 25.8071 43.0678C25.8905 43.1929 25.9322 43.3596 25.9322 43.5681C25.9322 43.7349 25.8905 43.9016 25.8071 44.0684C25.7237 44.1934 25.5987 44.2768 25.4319 44.2768C25.2652 44.2768 25.1401 44.1934 25.0567 44.0684C24.9733 43.9016 24.9316 43.7349 24.9316 43.5681ZM25.7237 43.5681C25.7237 43.443 25.6821 43.2763 25.6404 43.1929C25.5987 43.1095 25.5153 43.0678 25.4736 43.0678C25.4319 43.0678 25.3485 43.1095 25.2652 43.1929C25.2235 43.2763 25.1818 43.4013 25.1818 43.5681C25.1818 43.6932 25.2235 43.8599 25.2652 43.9433C25.3068 44.0267 25.3902 44.0684 25.4736 44.0684C25.557 44.0684 25.5987 44.0267 25.6404 43.9433C25.6821 43.8182 25.7237 43.6932 25.7237 43.5681Z" fill="#011021"/>
<path d="M26.3477 43.1936C26.3477 42.9851 26.4727 42.8184 26.6812 42.8184C26.8896 42.8184 27.0147 42.9851 27.0147 43.1936C27.0147 43.402 26.8896 43.5688 26.6812 43.5688C26.4727 43.5688 26.3477 43.402 26.3477 43.1936ZM26.8479 43.1936C26.8479 43.0685 26.7646 42.9851 26.6812 42.9851C26.5978 42.9851 26.5144 43.0685 26.5144 43.1936C26.5144 43.3186 26.5978 43.402 26.6812 43.402C26.7646 43.402 26.8479 43.3186 26.8479 43.1936ZM26.5561 44.1524L27.4733 42.9017C27.4733 42.86 27.515 42.8601 27.5567 42.8601C27.5983 42.8601 27.64 42.9017 27.64 42.9434V42.9851L26.7229 44.2358C26.7229 44.2775 26.6812 44.2775 26.6395 44.2775C26.5978 44.2775 26.5561 44.2358 26.5561 44.1941V44.1524ZM27.1814 43.944C27.1814 43.7355 27.3065 43.5688 27.515 43.5688C27.7234 43.5688 27.8485 43.7355 27.8485 43.944C27.8485 44.1524 27.7234 44.3192 27.515 44.3192C27.3482 44.2775 27.1814 44.1107 27.1814 43.944ZM27.6817 43.944C27.6817 43.8189 27.5983 43.7355 27.515 43.7355C27.4316 43.7355 27.3482 43.8189 27.3482 43.944C27.3482 44.069 27.4316 44.1524 27.515 44.1524C27.64 44.1524 27.6817 44.0274 27.6817 43.944Z" fill="#011021"/>
<path d="M24.7271 49.9491C24.7271 50.1992 24.5187 50.4494 24.2268 50.4494C23.9767 50.4494 23.7266 50.2409 23.7266 49.9491C23.7266 49.7823 23.8099 49.6156 23.935 49.5322C23.8933 49.4905 23.8516 49.4071 23.8516 49.3238C23.8516 49.157 24.0184 48.9902 24.1851 48.9902C24.3519 48.9902 24.5187 49.157 24.5187 49.3238C24.5187 49.4071 24.477 49.4488 24.4353 49.5322C24.6437 49.6573 24.7271 49.7823 24.7271 49.9491ZM24.5187 49.9491C24.5187 49.824 24.3936 49.699 24.2685 49.699C24.1435 49.699 24.0184 49.824 24.0184 49.9491C24.0184 50.0742 24.1435 50.1992 24.2685 50.1992C24.3936 50.1992 24.5187 50.0742 24.5187 49.9491ZM24.1435 49.3654C24.1435 49.4071 24.1851 49.4905 24.2685 49.4905C24.3102 49.4905 24.3936 49.4488 24.3936 49.3654C24.3936 49.3237 24.3519 49.2404 24.2685 49.2404C24.1851 49.2404 24.1435 49.2821 24.1435 49.3654Z" fill="#011021"/>
<path d="M25.0605 49.74C25.0605 49.5732 25.1022 49.4065 25.1856 49.2397C25.269 49.1146 25.3941 49.0312 25.5608 49.0312C25.7276 49.0312 25.8526 49.1146 25.936 49.2397C26.0194 49.3648 26.0611 49.5315 26.0611 49.74C26.0611 49.9067 26.0194 50.0735 25.936 50.2402C25.8526 50.3653 25.7276 50.4487 25.5608 50.4487C25.3941 50.4487 25.269 50.3653 25.1856 50.2402C25.1022 50.0735 25.0605 49.9067 25.0605 49.74ZM25.8526 49.74C25.8526 49.6149 25.811 49.4481 25.7693 49.3648C25.7276 49.2814 25.6442 49.2397 25.6025 49.2397C25.5608 49.2397 25.4774 49.2814 25.3941 49.3648C25.3524 49.4481 25.3107 49.5732 25.3107 49.74C25.3107 49.865 25.3524 50.0318 25.3941 50.1152C25.4358 50.1986 25.5191 50.2402 25.6025 50.2402C25.6442 50.2402 25.7276 50.1986 25.7693 50.1152C25.811 49.9901 25.8526 49.865 25.8526 49.74Z" fill="#011021"/>
<path d="M26.4785 49.3654C26.4785 49.157 26.6036 48.9902 26.812 48.9902C27.0205 48.9902 27.1455 49.157 27.1455 49.3654C27.1455 49.5739 27.0205 49.7406 26.812 49.7406C26.6036 49.7406 26.4785 49.5739 26.4785 49.3654ZM26.9788 49.3654C26.9788 49.2404 26.8954 49.157 26.812 49.157C26.7287 49.157 26.6453 49.2404 26.6453 49.3654C26.6453 49.4905 26.7287 49.5739 26.812 49.5739C26.8954 49.5739 26.9788 49.4905 26.9788 49.3654ZM26.687 50.3243L27.6041 49.0736C27.6041 49.0319 27.6458 49.0319 27.6875 49.0319C27.7292 49.0319 27.7709 49.0736 27.7709 49.1153V49.157L26.8537 50.4077C26.8537 50.4494 26.812 50.4494 26.7703 50.4494C26.7287 50.4494 26.687 50.4077 26.687 50.366C26.687 50.3243 26.687 50.3243 26.687 50.3243ZM27.3123 50.0742C27.3123 49.8657 27.4374 49.699 27.6458 49.699C27.8543 49.699 27.9793 49.8657 27.9793 50.0742C27.9793 50.2826 27.8543 50.4494 27.6458 50.4494C27.4791 50.4494 27.3123 50.2826 27.3123 50.0742ZM27.8126 50.0742C27.8126 49.9491 27.7292 49.8657 27.6458 49.8657C27.5624 49.8657 27.4791 49.9491 27.4791 50.0742C27.4791 50.1992 27.5624 50.2826 27.6458 50.2826C27.7709 50.2826 27.8126 50.1992 27.8126 50.0742Z" fill="#011021"/>
<path d="M97.8459 15.4393C96.7619 13.4382 94.344 12.4376 91.7592 12.3126C89.1745 12.1875 85.9644 12.6878 84.7137 16.5232C83.7131 19.6499 83.9633 22.9851 83.0878 26.5287C82.2123 30.0723 75.8755 37.7014 81.587 43.538C86.7148 48.7908 99.847 48.2489 102.14 40.5363C103.974 34.408 97.6791 26.8622 97.4707 24.2358C97.2622 21.6093 99.0132 17.6488 97.8459 15.4393Z" fill="#011021"/>
<path d="M98.095 19.1914C97.7198 20.9841 97.5531 22.8184 97.8866 24.6944C97.97 25.153 98.1367 25.6116 98.3452 26.0702C98.5536 26.4871 98.8037 26.904 99.0122 27.3208C99.4708 28.1546 99.971 28.9467 100.388 29.7805C101.263 31.4064 101.93 33.1574 102.264 34.95C102.597 36.7427 102.556 38.577 102.181 40.3696C102.472 39.4942 102.639 38.6187 102.764 37.7015C102.848 36.7844 102.806 35.8672 102.681 34.95C102.431 33.1157 101.764 31.323 100.888 29.6138C100.43 28.78 99.971 27.9462 99.4708 27.1541C98.9705 26.362 98.4702 25.5699 98.2618 24.6944C98.0116 23.8189 97.9699 22.9018 97.9283 22.0263C97.9699 21.0257 98.0116 20.1086 98.095 19.1914Z" fill="#011021"/>
<path d="M84.254 19.2334C83.8371 21.0677 83.5453 22.8604 83.045 24.653C82.7949 25.5285 82.5031 26.404 82.1696 27.2795C81.836 28.1133 81.3358 28.9054 80.8772 29.7391C80.4186 30.5729 80.0017 31.4067 79.6265 32.2822C79.2513 33.1577 78.9595 34.0332 78.7927 34.992C78.626 35.9092 78.5426 36.868 78.6676 37.8269C78.8344 38.7857 79.1679 39.6612 79.6682 40.495C79.2513 39.6195 78.9595 38.7441 78.9178 37.8269C78.8761 36.9097 78.9595 35.9926 79.2096 35.1171C79.6682 33.3244 80.502 31.6569 81.3775 30.031C81.7943 29.1972 82.2946 28.4051 82.6698 27.5296C83.0033 26.6541 83.2952 25.737 83.5036 24.8198C83.8371 22.9438 84.0873 21.1094 84.254 19.2334Z" fill="#011021"/>
<path d="M118.524 161.479C117.566 161.771 90.0505 161.437 89.0082 160.77C88.5913 160.52 88.4246 156.518 88.3412 151.64C88.3412 151.599 88.3412 151.557 88.3412 151.474C88.3412 150.473 88.2995 149.431 88.2995 148.389C88.2995 148.263 88.2995 148.097 88.2995 147.972C88.2578 140.968 88.3829 133.714 88.3829 133.714L106.768 133.881L106.226 148.013L106.184 148.555L106.059 151.474V151.765C106.059 151.765 116.523 156.601 117.607 157.477C118.691 158.436 119.483 161.187 118.524 161.479Z" fill="#FFD596"/>
<path d="M110.27 153.725C110.186 153.683 110.145 153.683 110.145 153.642C110.145 153.642 110.186 153.683 110.27 153.725Z" fill="#3E8DE3"/>
<path d="M118.524 161.479C117.565 161.771 90.0504 161.437 89.0082 160.77C88.6746 160.562 88.4662 157.352 88.3828 153.225C93.4272 154.267 112.938 158.227 113.48 156.56C113.688 155.893 112.021 154.767 110.978 154.142C113.855 155.518 117.065 157.102 117.607 157.56C118.691 158.436 119.483 161.187 118.524 161.479Z" fill="#4D5763"/>
<path d="M82.7559 54.5029C82.7559 54.5029 86.8831 100.987 87.5501 104.53C87.7169 105.322 87.8003 109.741 87.8837 115.37C88.0087 127.71 87.9253 149.93 87.9253 149.93H107.311C107.311 149.93 106.727 111.409 105.893 104.322C105.018 97.2346 99.5567 54.5029 99.5567 54.5029H82.7559Z" fill="#072241"/>
<path d="M106.436 146.555C103.392 146.471 104.268 146.471 101.266 146.43C99.7652 146.43 90.0515 146.346 88.6758 146.555C88.6341 146.555 88.6341 146.596 88.6758 146.596C90.0515 146.805 99.8069 146.721 101.266 146.721C104.309 146.68 103.434 146.68 106.436 146.596C106.477 146.638 106.477 146.555 106.436 146.555Z" fill="#072241"/>
<path d="M91.594 124.542C91.5523 121.749 91.5523 118.914 91.5106 116.121C91.5106 113.411 91.5106 110.659 91.3856 107.95C91.1354 102.447 90.0098 97.0269 89.2177 91.5656C88.4256 86.1043 87.7586 80.643 87.1749 75.1816C86.5079 69.0533 85.9242 62.8832 85.2572 56.7549C85.2572 56.7132 85.1738 56.7132 85.1738 56.7549C86.091 67.7192 87.0915 78.7252 88.6341 89.6062C89.0093 92.316 89.4262 95.0258 89.8847 97.7356C90.3433 100.487 90.8019 103.197 91.0104 105.99C91.2188 108.7 91.2605 111.41 91.3022 114.12C91.3439 116.913 91.3439 119.748 91.3856 122.541C91.4272 128.794 91.5106 138.383 91.5523 144.636C91.5523 144.761 91.7608 144.761 91.7191 144.636C91.6774 139.008 91.6357 130.087 91.594 124.542Z" fill="#072241"/>
<path d="M78.6699 54.5036C78.6699 54.5036 86.8827 100.987 87.5498 104.531C87.7165 105.323 87.7999 109.742 87.8833 115.37L97.1383 54.4619H78.6699V54.5036Z" fill="#011021"/>
<path d="M69.3294 162.979C68.3705 162.729 45.5247 147.346 45.0244 146.22C44.816 145.803 46.8587 142.343 49.4852 138.216C49.5269 138.174 49.5269 138.132 49.5686 138.09C50.1105 137.257 50.6525 136.381 51.2361 135.506C51.3195 135.381 51.4029 135.256 51.4863 135.131C55.28 129.252 59.3656 123.249 59.3656 123.249L74.6656 133.505L66.4528 145.011L66.1193 145.469L64.41 147.846L64.2432 148.096C64.2432 148.096 70.3299 157.893 70.7468 159.185C71.122 160.478 70.2882 163.271 69.3294 162.979Z" fill="#FFD596"/>
<path d="M67.0355 152.14C66.9938 152.098 66.9938 152.056 66.9938 152.015C66.9521 152.056 66.9938 152.098 67.0355 152.14Z" fill="#3E8DE3"/>
<path d="M69.3296 162.979C68.3708 162.729 45.525 147.346 45.0247 146.22C44.8579 145.845 46.3171 143.26 48.3598 139.967C51.5282 142.968 66.9116 157.435 68.2874 156.267C68.5792 156.017 68.4542 155.35 68.204 154.6C69.4547 156.726 70.5803 158.644 70.7471 159.186C71.1223 160.478 70.2885 163.271 69.3296 162.979Z" fill="#4D5763"/>
<path d="M66.162 148.096L49.6113 136.173C49.6113 136.173 70.998 107.616 71.1231 104.99C71.2481 101.112 73.1242 85.062 74.7084 72.0965C74.7084 72.0965 71.7484 65.051 77.2931 54.4619H99.5553C99.5553 54.4619 98.0545 64.5508 95.5114 70.9709C95.5114 70.9709 93.552 71.5546 90.5504 73.2222C90.5504 73.2222 88.716 104.906 88.1741 108.491C86.7149 117.955 66.162 148.096 66.162 148.096Z" fill="#072241"/>
<path d="M67.3296 144.094C64.8699 142.301 65.6203 142.801 63.1606 141.009C61.9516 140.133 54.0307 134.505 52.78 133.88C52.7383 133.88 52.7383 133.922 52.7383 133.922C53.7388 134.922 61.7432 140.425 62.9939 141.259C65.4953 142.968 64.7865 142.468 67.2879 144.135C67.3296 144.177 67.3713 144.135 67.3296 144.094Z" fill="#072241"/>
<path d="M96.3461 70.5533C94.3451 71.262 92.3856 72.2209 90.5513 73.2631C90.4679 73.3048 90.5096 73.4299 90.593 73.3882C92.5524 72.5544 94.5535 71.7623 96.4295 70.8034C96.5963 70.7201 96.5129 70.5116 96.3461 70.5533Z" fill="#072241"/>
<path d="M96.9698 57.1709C96.9698 57.0876 96.8447 57.0876 96.8447 57.1709C96.8447 59.5055 96.7196 61.5066 96.5112 63.6745C96.4278 64.675 95.594 70.2197 93.8848 69.8445C93.5929 69.7611 93.4262 69.4693 93.3845 69.0524C93.3428 68.5105 93.5096 67.8851 93.6346 67.3432C93.8431 66.1758 93.9681 65.0085 94.0932 63.8412C94.26 61.6317 94.3017 59.4639 94.0098 57.2543C94.0098 57.1709 93.8848 57.1709 93.8848 57.2543C93.8848 60.2976 93.8014 63.341 93.3428 66.3426C93.1343 67.8017 92.3839 69.9696 93.9265 70.178C95.469 70.3865 96.4695 66.7595 96.6363 65.759C97.1782 62.9658 97.1782 59.9641 96.9698 57.1709Z" fill="#072241"/>
<path d="M93.9272 69.9691C93.7604 70.3443 93.6354 70.7195 93.552 71.1364C93.4686 71.4282 93.3435 71.7617 93.3852 72.0952C93.3852 72.1369 93.4686 72.1786 93.5103 72.1369C93.7188 71.8868 93.8021 71.5116 93.9272 71.2198C94.0523 70.8446 94.219 70.511 94.3024 70.1358C94.3858 69.844 94.0106 69.7189 93.9272 69.9691Z" fill="#072241"/>
<path d="M91.5918 33.7822C94.2599 37.3258 101.472 47.4564 106.683 47.0812C111.144 46.7893 120.149 43.7043 121.983 42.8288C125.36 41.2029 120.066 31.531 117.981 32.2814C114.688 33.4487 110.102 36.7005 106.6 37.2007C105.183 37.4092 102.014 34.3659 94.0515 30.9473C90.9665 29.6966 89.7158 31.3225 91.5918 33.7822Z" fill="#FFD596"/>
<path d="M121.73 29.3633C123.565 29.0298 125.608 28.4878 127.525 28.8213C129.443 29.1549 130.652 31.948 130.527 32.6568C130.402 33.3655 128.984 37.7846 127.067 37.4927C125.149 37.2009 126.858 33.9075 126.858 33.4906C126.858 33.0737 126.858 32.5734 126.483 32.5317C126.108 32.5317 119.312 34.5328 119.312 34.5328L121.73 29.3633Z" fill="#FFD596"/>
<path d="M121.817 29.6134C121.942 29.6134 127.362 28.4044 129.279 28.7379C131.197 29.0714 132.406 31.8646 132.281 32.5733C132.156 33.282 130.738 37.7011 128.821 37.4093C126.903 37.1175 128.612 33.824 128.612 33.4071C128.612 32.9902 128.612 32.4899 128.237 32.4482C127.862 32.4482 121.066 34.4493 121.066 34.4493L121.817 29.6134Z" fill="#FFD596"/>
<path d="M128.196 37.076C127.988 36.7424 128.03 36.2839 128.071 35.9086C128.071 35.4918 128.196 35.0749 128.321 34.6997C128.446 34.3661 128.655 34.0326 128.738 33.6991C128.822 33.3656 128.738 32.9487 128.613 32.6569C128.488 32.365 128.196 32.4067 127.946 32.4484C127.571 32.5318 127.196 32.6569 126.821 32.7402C126.445 32.8653 126.029 32.9904 125.653 33.1155C125.236 33.2405 124.82 33.3656 124.444 33.574C124.403 33.574 124.444 33.6157 124.444 33.6157C124.778 33.5323 125.153 33.449 125.487 33.3239C125.862 33.1988 126.279 33.1155 126.654 32.9904C127.029 32.907 127.363 32.7819 127.738 32.6986C127.863 32.6569 128.113 32.5735 128.28 32.6152C128.405 32.6569 128.446 33.0321 128.446 33.1571C128.488 33.5323 128.363 33.8242 128.238 34.1994C128.071 34.5329 127.946 34.8664 127.863 35.1999C127.779 35.5334 127.738 35.867 127.779 36.2005C127.821 36.534 127.988 36.7841 128.113 37.076C128.155 37.1593 128.238 37.1176 128.196 37.076Z" fill="#F6C172"/>
<path d="M114.979 33.6989C114.979 33.6989 121.023 29.6967 122.316 28.9046C124.817 27.3204 134.781 24.9441 136.073 25.0275C137.407 25.1109 137.449 27.8207 130.695 29.6134C127.11 30.5722 126.235 32.3649 126.151 33.4488C126.068 34.5327 126.735 36.6589 128.528 36.8673C130.32 37.1175 131.863 34.6578 133.572 34.6578C135.24 34.6161 133.697 37.451 132.28 38.9935C130.862 40.536 128.528 41.6616 126.902 41.9951C125.276 42.3286 120.19 43.6627 120.19 43.6627L114.979 33.6989Z" fill="#FFD596"/>
<path d="M130.903 35.9908C130.153 36.4077 129.277 36.9496 128.402 36.8663C127.485 36.7412 126.984 36.0742 126.692 35.2821C126.401 34.4483 126.276 33.5728 126.609 32.739C126.901 31.9886 127.485 31.3633 128.152 30.9464C128.985 30.4044 129.903 30.0292 130.82 29.6957C130.861 29.6957 130.82 29.6123 130.778 29.6123C129.903 29.8624 127.193 30.4878 126.317 32.6556C125.984 33.5311 126.109 34.4066 126.442 35.2404C126.734 35.9908 127.193 36.7829 128.068 36.9913C129.11 37.2415 130.153 36.5328 130.987 35.9908C130.987 35.9908 130.945 35.9491 130.903 35.9908Z" fill="#F6C172"/>
<path d="M114.522 33.4499L118.733 45.2898C118.733 45.2898 109.228 48.3331 105.017 47.4576C100.806 46.5821 94.3444 37.7856 91.5095 33.9919C88.6747 30.1982 91.2594 29.2393 96.0537 31.5739C100.848 33.9502 106.017 36.9519 106.434 36.9519C106.935 36.9935 114.522 33.4499 114.522 33.4499Z" fill="#3E8DE3"/>
<path d="M112.438 34.7442C112.521 35.2027 112.688 35.703 112.813 36.1616C112.938 36.6202 113.063 37.1205 113.23 37.579C113.48 38.4962 113.813 39.3717 114.105 40.2889C114.73 42.0815 115.356 43.8741 116.148 45.6251C116.148 45.6668 116.231 45.6251 116.231 45.5834C115.648 43.7491 114.981 41.9564 114.355 40.1221C114.063 39.2049 113.73 38.3294 113.438 37.4123C113.271 36.9537 113.105 36.5368 112.979 36.0782C112.813 35.6196 112.729 35.1611 112.521 34.7442C112.479 34.7025 112.438 34.7025 112.438 34.7442Z" fill="#011021"/>
<path d="M100.306 57.7534C100.306 57.7534 91.5098 59.8379 74.834 58.3787C74.834 58.3787 81.3375 37.5757 86.5904 31.9476C88.9667 29.4046 91.3013 29.7798 93.3024 31.4474C93.8027 31.8643 99.931 39.6185 100.431 42.3283C100.89 44.7046 98.9305 47.3727 98.9305 47.3727L100.306 57.7534Z" fill="#CAD3DD"/>
<path d="M93.6347 39.369C93.6764 39.6609 93.6764 39.9527 93.6347 40.2862C93.5096 39.9944 93.4263 39.7026 93.3846 39.4107C93.3429 39.1189 93.3429 38.8271 93.3846 38.4936C93.5096 38.7854 93.5513 39.0772 93.6347 39.369ZM93.7598 53.4184C93.7181 53.7102 93.7181 54.0437 93.7598 54.3356C93.8015 54.6274 93.8848 54.9192 94.0099 55.211C94.0516 54.9192 94.0516 54.5857 94.0099 54.2939C93.9682 54.002 93.9265 53.7102 93.7598 53.4184ZM98.0955 56.1282C98.0538 56.42 98.0538 56.7535 98.0955 57.0454C98.1372 57.3372 98.2205 57.629 98.3456 57.9208C98.3873 57.629 98.3873 57.2955 98.3456 57.0037C98.3039 56.6702 98.2205 56.3783 98.0955 56.1282ZM84.0878 43.7881C84.0461 44.08 84.0461 44.4135 84.0878 44.7053C84.1295 44.9971 84.2129 45.2889 84.338 45.5808C84.3796 45.2889 84.3796 44.9554 84.338 44.6636C84.2963 44.3718 84.2129 44.08 84.0878 43.7881ZM98.3873 46.8315C98.3456 47.1233 98.3456 47.4568 98.3873 47.7486C98.429 48.0405 98.5124 48.3323 98.6374 48.6241C98.6791 48.3323 98.6791 47.9988 98.6374 47.7069C98.5957 47.4151 98.5124 47.1233 98.3873 46.8315ZM88.09 41.3285C88.3818 41.3701 88.7153 41.3701 89.0072 41.3285C89.299 41.2868 89.5908 41.2034 89.8827 41.0783C89.5908 41.0366 89.2573 41.0366 88.9655 41.0783C88.6737 41.12 88.3818 41.2034 88.09 41.3285ZM82.8788 50.1249C83.1707 50.1666 83.5042 50.1666 83.796 50.1249C84.0878 50.0832 84.3796 49.9999 84.6715 49.8748C84.3796 49.8331 84.0461 49.8331 83.7543 49.8748C83.4625 49.9582 83.1707 49.9999 82.8788 50.1249ZM91.5502 49.4162C91.8421 49.4579 92.1756 49.4579 92.4674 49.4162C92.7592 49.3745 93.051 49.2911 93.3429 49.1661C93.051 49.1244 92.7175 49.1244 92.4257 49.1661C92.0922 49.2078 91.8004 49.2911 91.5502 49.4162ZM75.875 57.504C76.1668 57.5456 76.5003 57.5456 76.7922 57.504C77.084 57.4623 77.3758 57.3789 77.6676 57.2538C77.3758 57.2121 77.0423 57.2121 76.7505 57.2538C76.417 57.2955 76.1251 57.3789 75.875 57.504ZM91.4668 32.0734C91.7587 32.1151 92.0922 32.1151 92.384 32.0734C92.6758 32.0317 92.9677 31.9483 93.2595 31.8233C92.9677 31.7816 92.6342 31.7816 92.3423 31.8233C92.0505 31.8649 91.7587 31.9483 91.4668 32.0734ZM88.5486 33.6576C88.2985 33.8243 88.09 34.0745 87.9232 34.3246C87.7565 34.5748 87.5897 34.8249 87.4647 35.1167C87.7148 34.95 87.9233 34.6998 88.09 34.4497C88.2568 34.1996 88.4235 33.9494 88.5486 33.6576ZM80.6693 44.9137C80.4191 45.0805 80.2107 45.3306 80.0439 45.5808C79.8772 45.8309 79.7104 46.081 79.5854 46.3729C79.8355 46.2061 80.0439 45.956 80.2107 45.7058C80.4191 45.4557 80.5859 45.2056 80.6693 44.9137ZM95.6775 43.8715C95.4273 44.0383 95.2189 44.2884 95.0521 44.5385C94.8854 44.7887 94.7186 45.0388 94.5936 45.3306C94.8437 45.1639 95.0521 44.9137 95.2189 44.6636C95.3857 44.4135 95.5524 44.1633 95.6775 43.8715ZM88.1734 52.2511C87.9232 52.4178 87.7148 52.668 87.548 52.9181C87.3813 53.1683 87.2145 53.4184 87.0895 53.7102C87.3396 53.5435 87.548 53.2933 87.7148 53.0432C87.9232 52.793 88.0483 52.5429 88.1734 52.2511ZM96.4696 35.4086C96.3862 35.4919 96.3445 35.5336 96.3028 35.617C96.1361 35.8671 95.9693 36.1173 95.8442 36.4091C96.0944 36.2423 96.3028 35.9922 96.4696 35.7421C96.5113 35.7004 96.553 35.617 96.5947 35.5753C96.553 35.5336 96.5113 35.4919 96.4696 35.4086ZM98.6374 41.7037C98.4707 41.4535 98.2205 41.2451 97.9704 41.0783C97.7203 40.9116 97.4701 40.7448 97.1783 40.6197C97.3451 40.8699 97.5952 41.0783 97.8453 41.2451C98.0955 41.4535 98.3456 41.6203 98.6374 41.7037ZM79.5854 52.1677C79.4186 51.9176 79.1685 51.7091 78.9183 51.5424C78.6682 51.3756 78.4181 51.2088 78.1262 51.0838C78.293 51.3339 78.5431 51.5424 78.7933 51.7091C79.0434 51.8759 79.2935 52.0426 79.5854 52.1677ZM99.0543 52.5012C98.8876 52.2511 98.6374 52.0426 98.3873 51.8759C98.1372 51.7091 97.887 51.5424 97.5952 51.4173C97.762 51.6674 98.0121 51.8759 98.2622 52.0426C98.5124 52.2094 98.7625 52.3762 99.0543 52.5012ZM85.5886 39.4941C85.4219 39.244 85.1717 39.0355 84.9216 38.8688C84.6715 38.702 84.4213 38.5353 84.1295 38.4102C84.2963 38.6603 84.5464 38.8688 84.7965 39.0355C85.0467 39.2023 85.2968 39.369 85.5886 39.4941ZM91.1333 58.1293C90.9666 57.8792 90.7164 57.6707 90.4663 57.504C90.2162 57.3372 89.966 57.1704 89.6742 57.0454C89.841 57.2955 90.0911 57.504 90.3412 57.6707C90.5914 57.8792 90.8415 58.0042 91.1333 58.1293ZM89.4658 46.6647C89.299 46.4146 89.0489 46.2061 88.7987 46.0394C88.5486 45.8726 88.2985 45.7058 88.0066 45.5808C88.1734 45.8309 88.4235 46.0394 88.6737 46.2061C88.9238 46.4146 89.1739 46.5396 89.4658 46.6647ZM83.2123 55.8781C83.0456 55.6279 82.7954 55.4195 82.5453 55.2527C82.2952 55.086 82.045 54.9192 81.7532 54.7941C81.92 55.0443 82.1701 55.2527 82.4202 55.4195C82.6704 55.5862 82.9205 55.753 83.2123 55.8781Z" fill="#C7C7C7"/>
<path d="M88.3409 30.6133L92.5098 61.6719H73.291C73.291 61.6719 77.8769 41.8694 84.8807 33.2814C86.8401 30.9051 88.3409 30.6133 88.3409 30.6133Z" fill="#3E8DE3"/>
<path d="M93.5117 31.6133C93.5117 31.6133 96.4717 39.4509 97.5973 46.1212C98.848 53.4169 99.515 60.6291 99.515 60.6291L100.849 59.5869L99.0147 47.3719C99.0147 47.3719 100.807 45.2874 100.516 42.1607C100.307 39.6593 93.5117 31.6133 93.5117 31.6133Z" fill="#3E8DE3"/>
<path d="M99.1394 39.0764C98.7642 38.5345 98.389 37.9508 98.0138 37.4505C97.9304 37.2421 97.8887 37.0753 97.8054 36.9086C97.6803 36.6584 97.5552 36.3666 97.3885 36.1165C97.4719 36.4083 97.5552 36.6584 97.6803 36.9503C97.722 37.0337 97.7637 37.117 97.7637 37.1587C97.3885 36.6168 96.9716 36.1165 96.5547 35.6162C97.3051 36.8252 98.1389 38.0342 98.931 39.2432C99.3062 39.8268 99.6814 40.4522 100.015 41.1192C100.098 41.3277 100.182 41.5361 100.265 41.7446C100.432 42.2865 100.724 43.4121 100.098 45.1214C99.8898 45.7051 99.7231 46.2887 99.4313 46.8307C99.3896 46.8724 99.4729 46.9141 99.4729 46.8724C99.7648 46.3304 100.015 45.7467 100.265 45.1631C100.473 44.6211 100.599 43.9958 100.64 43.3704C100.765 41.5361 99.8898 40.4105 99.1394 39.0764Z" fill="#2D6DB3"/>
<path d="M88.5048 30.8652C88.5881 31.3238 90.7143 34.242 92.7571 34.1587C93.4241 34.117 93.4658 30.49 93.4658 30.49L93.5492 30.2399L94.4247 26.4878L90.0056 23.5695L89.3802 23.1943C89.3802 23.1943 89.2135 24.2366 89.005 25.5289C89.005 25.5706 89.005 25.654 88.9633 25.6957C88.9633 25.7791 88.9217 25.8208 88.9217 25.9041C88.88 26.1126 88.8383 26.2794 88.8383 26.4878C88.7966 26.6546 88.7966 26.7796 88.7549 26.9464C88.7132 27.1131 88.7132 27.2799 88.7132 27.405C88.5048 29.0309 88.4631 30.6984 88.5048 30.8652Z" fill="#FFD596"/>
<path d="M88.9629 25.5289C90.0051 28.5306 92.3814 29.823 93.507 30.2399L94.3825 26.4878L89.9634 23.5695L89.3381 23.1943C89.3381 23.1943 89.1713 24.2366 88.9629 25.5289Z" fill="#F6C172"/>
<path d="M99.4719 19.5253C100.806 26.1957 96.9705 27.7382 95.5531 28.03C94.2607 28.2801 89.7583 29.0305 87.7572 22.527C85.7144 16.0234 88.3825 13.3136 91.3425 12.5632C94.2607 11.8128 98.1379 12.855 99.4719 19.5253Z" fill="#FFD596"/>
<path d="M98.3026 18.5664C98.1359 18.5664 98.0108 18.5664 97.8441 18.5664C97.6773 18.5664 97.5105 18.5664 97.3855 18.4414C97.3021 18.3997 97.3021 18.2329 97.3438 18.1496C97.4689 17.9411 97.6773 17.8994 97.8858 17.8994C98.1359 17.8994 98.3026 17.9411 98.4694 18.1079C98.6362 18.2746 98.5111 18.5248 98.3026 18.5664Z" fill="#011021"/>
<path d="M93.7176 19.3583C93.8843 19.3166 94.0094 19.2333 94.1345 19.1916C94.3012 19.1082 94.4263 19.0665 94.5514 18.9414C94.5931 18.8581 94.5931 18.733 94.5097 18.6496C94.3429 18.5245 94.0928 18.5245 93.8843 18.6079C93.6759 18.6913 93.5091 18.8164 93.3841 19.0248C93.3007 19.1916 93.5091 19.4417 93.7176 19.3583Z" fill="#011021"/>
<path d="M95.0509 20.8164L95.0092 20.8581C95.1343 21.3167 95.176 21.8586 94.8008 22.0671V22.1088C95.3011 21.942 95.2177 21.2333 95.0509 20.8164Z" fill="#011021"/>
<path d="M94.5519 20.4419C93.8015 20.5253 94.0516 22.0261 94.7604 21.9427C95.4274 21.8177 95.1773 20.3585 94.5519 20.4419Z" fill="#011021"/>
<path d="M94.3 20.5674C94.1749 20.6925 94.0915 20.8592 93.9248 20.9009C93.758 20.9426 93.5913 20.8175 93.4245 20.6925C93.4245 20.6925 93.3828 20.6925 93.3828 20.7341C93.4245 21.026 93.5913 21.2761 93.8831 21.2761C94.1749 21.2761 94.3417 20.9843 94.3417 20.6925C94.3834 20.5674 94.3417 20.5257 94.3 20.5674Z" fill="#011021"/>
<path d="M97.597 20.3193C97.597 20.2776 97.6387 20.3193 97.597 20.3193C97.6804 20.8196 97.8471 21.3199 98.264 21.4032V21.4449C97.7637 21.4449 97.5553 20.7362 97.597 20.3193Z" fill="#011021"/>
<path d="M97.9313 19.7769C98.64 19.6102 98.9318 21.0693 98.2648 21.2361C97.5978 21.3611 97.306 19.902 97.9313 19.7769Z" fill="#011021"/>
<path d="M98.2624 19.8178C98.3875 19.8595 98.5543 19.9846 98.6793 19.9846C98.8461 19.9429 98.9295 19.7761 99.0128 19.6094H99.0545C99.1379 19.9012 99.0962 20.193 98.8044 20.3181C98.5543 20.4015 98.3458 20.193 98.2207 19.9429C98.1791 19.8595 98.1791 19.7761 98.2624 19.8178Z" fill="#011021"/>
<path d="M95.6348 24.5693C95.7599 24.6527 95.8849 24.8195 96.0517 24.7778C96.2184 24.7778 96.3852 24.6944 96.552 24.611C96.552 24.611 96.5936 24.611 96.5936 24.6527C96.5103 24.8612 96.2601 24.9862 96.0517 24.9862C95.8432 24.9862 95.7182 24.8195 95.6348 24.611C95.5931 24.5693 95.5931 24.5693 95.6348 24.5693Z" fill="#011021"/>
<path d="M97.2613 23.5271C97.2613 23.5271 97.0528 24.0274 96.6776 24.2775C96.5525 24.3609 96.3858 24.4443 96.1773 24.4443C95.8021 24.4443 95.7188 24.1108 95.7188 23.8189C95.7188 23.5688 95.7604 23.3604 95.7604 23.3604C95.7604 23.3604 96.3858 23.6939 97.2613 23.5271Z" fill="#011021"/>
<path d="M96.6776 24.2775C96.5525 24.3609 96.3858 24.4442 96.1773 24.4442C95.8021 24.4442 95.7188 24.1107 95.7188 23.8189C96.094 23.7355 96.5525 23.9023 96.6776 24.2775Z" fill="#DE608A"/>
<path d="M97.2622 22.6098C97.2622 22.6098 97.4707 23.2768 97.5124 23.6104C97.5124 23.652 97.429 23.652 97.3456 23.6937C96.8036 23.9022 96.1783 23.7771 95.7614 23.4019C95.7197 23.3602 95.7614 23.3185 95.8031 23.3602C96.2617 23.6104 96.762 23.6104 97.2622 23.527C97.2622 23.4436 96.8453 22.4014 96.887 22.4014C97.0538 22.3597 97.429 22.4014 97.6374 22.443C97.2205 21.0256 96.5952 19.7332 96.22 18.3158C96.22 18.2741 96.2617 18.2324 96.3034 18.2741C97.0538 19.6082 97.5541 21.1924 98.0126 22.6515C98.096 22.7349 97.3873 22.6098 97.2622 22.6098Z" fill="#011021"/>
<path d="M95.0088 13.6897C95.0088 13.6897 95.2589 14.6902 94.9254 15.4406C94.2167 16.9414 92.3823 16.5662 91.7987 17.1499C91.215 17.6919 91.4235 18.8592 90.8815 19.4011C90.1728 20.1932 89.1723 19.8597 89.0472 20.4017C88.9221 20.9019 88.5886 22.5695 87.9216 22.778C87.2545 22.9864 84.2112 11.9804 92.8409 12.3139C92.8409 12.3139 94.0082 11.8136 95.8842 12.7308C97.927 13.7314 98.8025 17.1082 98.8025 17.1082C98.8025 17.1082 98.7608 17.0665 98.469 16.8164C98.0521 16.4412 97.8853 16.1077 97.5935 15.8575C97.0932 15.4823 96.8431 15.6074 96.3428 15.2739C95.5924 14.7319 95.0088 13.6897 95.0088 13.6897Z" fill="#011021"/>
<path d="M94.8841 13.1895C95.0092 13.6063 95.0926 14.0649 95.1343 14.5235C95.176 14.9821 95.1343 15.4407 94.9675 15.8159C94.7591 16.1911 94.3839 16.4412 93.967 16.608C93.5501 16.7747 93.0915 16.8164 92.6746 16.9832C92.4662 17.0666 92.2577 17.1916 92.0909 17.4001C91.9659 17.6085 91.8825 17.8587 91.8408 18.0671C91.7574 18.5257 91.6741 18.9426 91.3822 19.2761C91.0904 19.6096 90.6735 19.7764 90.2149 19.7764C89.798 19.7764 89.2978 19.6513 88.8809 19.8598C89.3394 19.693 89.7563 19.8598 90.2149 19.9015C90.6735 19.9431 91.1738 19.7764 91.5073 19.4012C91.8408 19.0677 91.9659 18.5674 92.0493 18.1505C92.0909 17.942 92.1743 17.7336 92.2994 17.5668C92.4245 17.4001 92.5912 17.275 92.7997 17.1916C93.1749 17.0249 93.6751 16.9832 94.092 16.8164C94.3005 16.7331 94.5089 16.608 94.7174 16.4829C94.8841 16.3579 95.0926 16.1494 95.176 15.941C95.3844 15.4824 95.3844 15.0238 95.301 14.5652C95.176 14.0649 95.0509 13.6063 94.8841 13.1895Z" fill="#011021"/>
<path d="M95.0488 13.6064C95.1322 14.0233 95.299 14.3985 95.4657 14.8154C95.6742 15.1906 95.966 15.5658 96.3412 15.7743C96.5497 15.8994 96.7581 15.9411 96.9249 16.0244C97.0916 16.0661 97.3001 16.1912 97.3834 16.3163C97.5085 16.483 97.5919 16.6915 97.7586 16.8165C97.9254 16.9833 98.0922 17.0667 98.3006 17.15C98.1338 17.025 97.9671 16.9416 97.842 16.7748C97.717 16.6081 97.6336 16.4413 97.5085 16.2329C97.3834 16.0244 97.175 15.8994 96.9665 15.816C96.7581 15.7326 96.5496 15.6909 96.3829 15.6075C96.0494 15.3991 95.7575 15.1073 95.5491 14.7738C95.424 14.3569 95.2156 13.9817 95.0488 13.6064Z" fill="#011021"/>
<path d="M88.2148 24.9876C88.3398 25.0293 88.4232 25.0293 88.5483 25.0293C88.6733 25.0293 88.7567 25.0293 88.8818 24.9876C89.0486 24.9459 89.1736 24.9042 89.257 24.8208C89.3404 24.7374 89.4238 24.6541 89.5071 24.6124C89.6739 24.4039 89.7156 24.1955 89.7156 24.1955L89.1319 22.4445C89.1319 22.4445 87.4227 20.4851 86.5055 21.1521C85.5883 21.7775 87.0475 24.6958 88.2148 24.9876Z" fill="#FFD596"/>
<path d="M86.9219 21.9863C87.7557 22.2364 88.2559 22.9452 88.6311 23.6539C88.381 23.4037 88.0058 23.2787 87.6723 23.5705C87.6723 23.5705 87.6723 23.6122 87.714 23.6122C88.0475 23.4871 88.2559 23.5288 88.5061 23.779C88.6728 23.9457 88.7979 24.1542 88.9647 24.3626C89.0063 24.446 89.1314 24.3626 89.0897 24.2792C88.9647 23.2787 88.0058 21.9446 86.9219 21.9863Z" fill="#F6C172"/>
<path d="M88.298 24.6961C88.3397 24.8628 88.5482 24.9462 88.7149 24.9045C88.8817 24.8628 88.9651 24.6544 88.9234 24.4876C88.8817 24.3209 88.6732 24.2375 88.5065 24.2792C88.3397 24.3626 88.2146 24.5293 88.298 24.6961Z" fill="#CAD3DD" fill-opacity="0.7"/>
<path d="M87.5873 24.3202C87.629 24.4452 87.754 24.4869 87.8791 24.4452C88.0042 24.4035 88.0458 24.2785 88.0042 24.1534C87.9625 24.0283 87.8374 23.9866 87.7123 24.0283C87.6289 24.07 87.5456 24.1951 87.5873 24.3202Z" fill="#CAD3DD" fill-opacity="0.7"/>
<path d="M85.0866 33.8661C81.4179 40.2029 74.7059 54.9609 77.8326 57.7125C82.9604 62.2149 94.3833 65.2166 97.8852 65.8002C99.3861 66.0503 103.138 54.7108 101.637 54.0438C99.8446 53.21 87.713 50.9588 87.6296 49.9582C87.5879 49.3746 88.255 44.4969 88.5885 38.2852C88.9637 31.0729 86.8375 30.8644 85.0866 33.8661Z" fill="#FFD596"/>
<path d="M96.2188 54.044C96.2188 54.044 100.471 52.1263 103.348 51.0007C104.932 50.3753 107.767 49.5416 109.142 49.6249C111.185 49.75 119.732 51.5427 119.356 53.5854C119.023 55.4615 111.852 53.0018 111.852 53.0018C111.852 53.0018 119.273 54.8361 118.439 57.0457C117.605 59.2552 109.893 55.3781 109.893 55.3781C109.893 55.3781 117.48 57.4625 116.271 59.5887C115.354 61.1729 108.184 58.0879 108.184 58.0879C108.184 58.0879 114.687 59.9222 113.812 61.5898C112.853 63.4658 106.057 61.0062 106.057 61.0062C103.098 64.925 100.096 65.592 97.8863 65.8004C97.3027 65.8421 96.2188 54.044 96.2188 54.044Z" fill="#FFD596"/>
<path d="M109.309 52.21C110.184 52.3767 111.101 52.5852 111.935 52.8353C112.811 53.0854 113.644 53.3773 114.478 53.7525C116.521 54.5863 117.646 55.4201 117.605 55.3784C115.812 54.3361 112.727 53.3356 111.852 53.0854C110.976 52.7936 110.142 52.5018 109.309 52.21C109.267 52.2517 109.267 52.21 109.309 52.21Z" fill="#F6C172"/>
<path d="M108.307 55.2949C109.432 55.5867 110.516 55.8369 111.642 56.1704C112.726 56.5039 113.768 56.9208 114.81 57.3377C114.894 57.3794 114.852 57.4211 114.769 57.3794C113.685 57.0042 112.642 56.7541 111.558 56.4205C110.475 56.0453 109.391 55.6284 108.307 55.2949C108.265 55.3366 108.265 55.2949 108.307 55.2949Z" fill="#F6C172"/>
<path d="M106.932 57.7959C108.642 58.1294 110.309 58.7964 111.935 59.5052C112.018 59.5469 111.935 59.5885 111.852 59.5469C110.184 58.9632 108.933 58.4629 106.891 57.8376L106.932 57.7959Z" fill="#F6C172"/>
<path d="M97.3875 52.5017L95.5948 66.0508C95.5948 66.0508 78.2103 60.7979 77.0013 57.0042C75.7923 53.2104 80.1697 41.9126 84.2136 34.9088C88.2158 27.9049 88.9245 34.5752 88.8828 37.2851C88.8411 39.9532 87.9657 49.3333 87.9657 49.3333L97.3875 52.5017Z" fill="#3E8DE3"/>
<path d="M95.2588 52.7109C95.0921 53.1695 95.0087 53.6698 94.9253 54.1284C94.8003 54.6287 94.7169 55.0872 94.5918 55.5875C94.3834 56.5047 94.2166 57.4635 94.0915 58.3807C93.758 60.2567 93.5079 62.1328 93.3828 64.0505C93.3828 64.0922 93.4245 64.0922 93.4662 64.0505C93.8414 62.1744 94.0915 60.2567 94.3834 58.339C94.5501 57.4218 94.7169 56.463 94.8419 55.5458C94.9253 55.0872 94.967 54.587 95.0504 54.1284C95.1338 53.6698 95.2588 53.1695 95.3005 52.7109H95.2588Z" fill="#2D6DB3"/>
<path d="M93.55 51.1667C92.5495 50.8749 88.0054 49.2073 88.047 49.2073C88.3389 47.0394 88.4639 44.8299 88.6307 42.662C88.6724 42.4119 88.7141 42.2035 88.7975 41.9533C88.8808 41.5364 88.9225 41.1612 89.0059 40.7443C88.9225 41.1195 88.7975 41.5364 88.7141 41.9116C88.7558 41.2029 88.7975 40.5359 88.8391 39.8272C88.8391 39.7855 88.7975 39.7855 88.7975 39.8272C88.4223 42.9122 87.8803 49.249 87.9637 49.2907C88.7558 49.7493 92.5495 50.8749 93.55 51.1667C93.5917 51.1667 93.55 51.2084 93.55 51.1667Z" fill="#2D6DB3"/>
<path d="M83.5458 61.6308C83.1289 61.464 82.7537 61.2139 82.3785 61.0054C82.0033 60.797 81.6281 60.5468 81.2529 60.3384C80.5025 59.8381 79.7521 59.3378 79.0434 58.7959C78.3763 58.2539 77.7093 57.712 77.3758 56.8782C77.0423 56.0444 77.0423 55.0855 77.0839 54.21C77.209 52.334 77.751 50.4997 78.2929 48.7487C78.8349 46.9978 79.4186 45.2885 80.1273 43.5792C80.5025 42.6621 80.9194 41.7032 81.3363 40.786C81.7532 39.8689 82.2534 38.9517 82.712 38.0345C82.7537 37.9929 82.6703 37.9512 82.6286 37.9929C82.1284 38.785 81.7115 39.6187 81.2529 40.4942C81.1278 40.7444 81.0028 41.0362 80.836 41.2863C80.836 41.2446 80.8777 41.2029 80.8777 41.1613C80.9611 40.8277 81.0861 40.4942 81.1695 40.1607C81.1695 40.119 81.1278 40.119 81.1278 40.1607C80.9611 40.7027 80.7526 41.2446 80.5859 41.7449C80.5859 41.7866 80.5442 41.8283 80.5442 41.9117C80.3774 42.2869 80.169 42.6621 80.0022 43.0373C79.2518 44.7465 78.5848 46.4558 78.0011 48.2485C77.4175 50.0828 76.8338 51.9171 76.6671 53.8348C76.5837 54.752 76.5837 55.7109 76.8338 56.5863C77.0423 57.4201 77.5425 58.0872 78.2096 58.6291C78.96 59.2545 79.7938 59.8381 80.6276 60.3384C81.0861 60.5885 81.503 60.8387 81.9616 61.0888C82.4202 61.3389 82.9205 61.5057 83.4207 61.7558C83.5458 61.6725 83.5458 61.6308 83.5458 61.6308Z" fill="#2D6DB3"/>
<path d="M93.4662 30.3642L92.4656 33.4909L88.4217 29.9473L87.4629 31.2396C87.4629 31.2396 91.5901 37.0345 91.5901 36.7426L92.6324 34.0328L94.5501 35.7004L94.0498 31.1563L93.4662 30.3642Z" fill="#CAD3DD"/>
<path d="M94.5083 33.4495C94.3832 32.6991 94.2998 31.9487 94.1748 31.1983C94.1748 31.1566 94.1331 31.1566 94.1331 31.1983C94.0497 31.9487 94.4666 34.7835 94.5083 35.4923C94.4249 35.4089 92.7156 34.0331 92.7156 34.0331C92.4655 34.45 91.7151 36.4511 91.6734 36.6179C91.0064 35.7007 88.505 32.3656 87.7546 31.4901C87.7129 31.4484 87.7129 31.4901 87.7129 31.5318C88.2965 32.4906 91.59 36.9931 91.6734 36.9931C91.7151 37.0348 92.6739 34.5751 92.7573 34.1582C93.0491 34.45 94.8001 36.0342 94.8001 35.9509C94.7167 35.1588 94.5916 34.1999 94.5083 33.4495Z" fill="#011021"/>
</svg>
