<svg width="59" height="60" viewBox="0 0 59 60" fill="none" xmlns="http://www.w3.org/2000/svg">
<path d="M48.1212 11.0218C48.1212 12.3379 47.5128 13.6411 46.3307 14.857C45.1486 16.0729 43.4161 17.1777 41.2319 18.1083C39.0477 19.0389 36.4547 19.7771 33.6009 20.2808C30.7472 20.7844 27.6885 21.0436 24.5996 21.0436C18.3614 21.0436 12.3786 19.9878 7.96742 18.1083C3.55628 16.2289 1.07813 13.6798 1.07813 11.0218C1.07812 9.70573 1.68653 8.40254 2.86859 7.18663C4.05066 5.97073 5.78324 4.86593 7.96742 3.93532C10.1516 3.00471 12.7446 2.26651 15.5984 1.76287C18.4521 1.25922 21.5108 1 24.5996 1C27.6885 1 30.7472 1.25922 33.6009 1.76287C36.4547 2.26651 39.0477 3.00471 41.2319 3.93532C43.4161 4.86593 45.1486 5.97073 46.3307 7.18663C47.5128 8.40254 48.1212 9.70573 48.1212 11.0218Z" stroke="#589CE7" stroke-width="2" stroke-linecap="round" stroke-linejoin="round"/>
<path d="M48.1212 47.1006C48.1212 48.8598 47.0343 50.588 44.9699 52.1115C42.9054 53.635 39.9361 54.9001 36.3604 55.7797C32.7847 56.6593 28.7285 57.1224 24.5996 57.1224C20.4708 57.1224 16.4146 56.6593 12.8389 55.7797C9.26316 54.9001 6.29386 53.635 4.22941 52.1115C2.16497 50.588 1.07812 48.8598 1.07813 47.1006" stroke="#589CE7" stroke-width="2" stroke-linecap="round" stroke-linejoin="round"/>
<path d="M48.1212 35.0742C48.1212 36.8334 47.0343 38.5616 44.9699 40.0851C42.9054 41.6086 39.9361 42.8738 36.3604 43.7534C32.7847 44.633 28.7285 45.096 24.5996 45.096C20.4708 45.096 16.4146 44.633 12.8389 43.7534C9.26316 42.8738 6.29386 41.6086 4.22941 40.0851C2.16497 38.5616 1.07813 36.8334 1.07812 35.0742" stroke="#589CE7" stroke-width="2" stroke-linecap="round" stroke-linejoin="round"/>
<path d="M48.1212 23.0479C48.1212 24.807 47.0343 26.5353 44.9699 28.0588C42.9054 29.5823 39.9361 30.8474 36.3604 31.727C32.7847 32.6066 28.7285 33.0697 24.5996 33.0697C20.4708 33.0697 16.4146 32.6066 12.8389 31.727C9.26316 30.8474 6.29386 29.5823 4.22941 28.0588C2.16497 26.5353 1.07812 24.807 1.07813 23.0479" stroke="#589CE7" stroke-width="2" stroke-linecap="round" stroke-linejoin="round"/>
<path d="M1.07812 11.0215V47.1" stroke="#589CE7" stroke-width="2" stroke-linecap="round" stroke-linejoin="round"/>
<path d="M48.1211 11.0215V47.1" stroke="#589CE7" stroke-width="2" stroke-linecap="round" stroke-linejoin="round"/>
<circle cx="44.5231" cy="45.61" r="14.3903" fill="white"/>
<path d="M56.0939 49.0436C57.1081 49.0436 57.9329 48.2532 57.9329 47.2813V43.7566C57.9329 42.7856 57.1081 41.9943 56.0939 41.9943H55.1745V37.5885C55.1745 36.6174 54.3497 35.8261 53.3355 35.8261H48.7381V34.945C48.7381 33.9739 47.9133 33.1826 46.8992 33.1826H43.2212C42.2071 33.1826 41.3823 33.9739 41.3823 34.945V35.8261H36.7849C35.7707 35.8261 34.9459 36.6174 34.9459 37.5885V42.1194C33.3644 42.5133 32.1875 43.8817 32.1875 45.519C32.1875 47.1562 33.3644 48.5237 34.9459 48.9185V53.4495C34.9459 54.4214 35.7707 55.2118 36.7849 55.2118H43.2212V56.093C43.2212 57.0649 44.046 57.8553 45.0602 57.8553H56.0939C57.1081 57.8553 57.9329 57.0649 57.9329 56.093V52.5683C57.9329 51.5972 57.1081 50.806 56.0939 50.806H55.1745V49.0436H56.0939ZM56.0939 47.2813H52.416V43.7566H56.0939V47.2813ZM43.2212 34.945H46.8992V38.4696H43.2212V34.945ZM41.3823 37.5885V38.4696C41.3823 39.4415 42.2071 40.232 43.2212 40.232H46.8992C47.9133 40.232 48.7381 39.4415 48.7381 38.4696V37.5885H53.3355V41.9943H52.416C51.4018 41.9943 50.5771 42.7856 50.5771 43.7566V44.6378H39.4128C39.2475 44.0322 38.917 43.4797 38.4552 43.0371C37.9933 42.5945 37.4168 42.2778 36.7849 42.1194V37.5885H41.3823ZM34.0265 45.519C34.0265 44.5479 34.8512 43.7566 35.8654 43.7566C36.8796 43.7566 37.7044 44.5479 37.7044 45.519C37.7044 46.49 36.8796 47.2813 35.8654 47.2813C34.8512 47.2813 34.0265 46.4909 34.0265 45.519ZM56.0939 56.093H45.0602V52.5683H56.0939V56.093ZM53.3355 50.806H45.0602C44.046 50.806 43.2212 51.5972 43.2212 52.5683V53.4495H36.7849V48.9185C37.4168 48.7602 37.9933 48.4434 38.4552 48.0008C38.917 47.5582 39.2475 47.0057 39.4128 46.4001H50.5771V47.2813C50.5771 48.2532 51.4018 49.0436 52.416 49.0436H53.3355V50.806Z" fill="#589CE7"/>
</svg>
