<svg width="61" height="61" viewBox="0 0 61 61" fill="none" xmlns="http://www.w3.org/2000/svg">
<path d="M0.85 30.5V30.5C0.85 38.6906 4.17044 46.1014 9.5345 51.4655C14.8984 56.8296 22.3094 60.15 30.5 60.15C38.6906 60.15 46.1014 56.8296 51.4655 51.4655C56.8296 46.1016 60.15 38.6906 60.15 30.5C60.15 22.3094 56.8296 14.8986 51.4655 9.53451C46.1016 4.17043 38.6906 0.85 30.5 0.85C22.3094 0.85 14.8986 4.17037 9.53453 9.53199L9.53448 9.53204C4.17285 14.8959 0.852445 22.3069 0.85 30.5ZM2.54572 31.3364H10.6885C10.8912 36.1742 12.827 40.5684 15.8961 43.9052L10.1352 49.6661C5.6006 44.849 2.75779 38.4263 2.54572 31.3364ZM29.6617 58.4455C22.5743 58.24 16.149 55.3904 11.3321 50.8558L17.0942 45.0936C20.4288 48.1644 24.8247 50.0974 29.6617 50.3V58.4455ZM50.8605 11.3297C55.3952 16.1467 58.238 22.5694 58.45 29.6594H50.3073C50.1046 24.8215 48.1688 20.4273 45.0997 17.0906L50.8605 11.3297ZM49.6681 10.14L43.9059 15.9021C40.5714 12.8314 36.1754 10.8984 31.3384 10.6957V2.55031C38.4258 2.75573 44.8511 5.60533 49.6681 10.14ZM36.1777 25.5897C35.7154 25.5897 35.3392 25.9658 35.3392 26.4282V38.3917C35.3392 38.854 35.7153 39.2302 36.1777 39.2302H42.8697C43.332 39.2302 43.7081 38.8541 43.7081 38.3917V26.4282C43.7081 25.9659 43.332 25.5897 42.8697 25.5897H36.1777ZM37.0137 37.5507V27.2715H42.024V37.5507H37.0137ZM27.1578 21.7609C26.6955 21.7609 26.3194 22.137 26.3194 22.5993V38.3965C26.3194 38.8588 26.6954 39.2349 27.1578 39.2349H33.8498C34.3121 39.2349 34.6882 38.8588 34.6882 38.3965V22.5993C34.6882 22.137 34.3121 21.7609 33.8498 21.7609H27.1578ZM27.9938 37.5579V23.4426H33.0041V37.5579H27.9938ZM18.1304 29.2995C17.6681 29.2995 17.292 29.6756 17.292 30.1379V38.3968C17.292 38.8591 17.6681 39.2352 18.1304 39.2352H24.8224C25.2848 39.2352 25.6609 38.8591 25.6609 38.3968V30.1379C25.6609 29.6756 25.2848 29.2995 24.8224 29.2995H18.1304ZM18.9737 37.5582V30.9812H23.9841V37.5582H18.9737ZM10.691 29.6596H2.54524C2.76601 22.2726 5.8471 15.6002 10.7244 10.723C15.6004 5.84715 22.2635 2.76388 29.6545 2.54395V10.696C24.5157 10.9078 19.8795 13.0807 16.4775 16.4826C13.0755 19.8842 10.905 24.5184 10.691 29.6596ZM58.4475 31.3388C58.2251 38.7231 55.1443 45.3931 50.2686 50.2688C45.3926 55.1446 38.7294 58.2279 31.3385 58.4478V50.3026C36.4772 50.0908 41.1138 47.9176 44.5157 44.5157C47.9177 41.1141 50.0883 36.4799 50.3023 31.3388H58.4475ZM30.5 12.3571C35.5066 12.3571 40.0446 14.386 43.3283 17.6697C46.6121 20.9539 48.641 25.484 48.641 30.4981C48.641 35.5121 46.6121 40.0426 43.3283 43.3264C40.0442 46.6102 35.514 48.639 30.5 48.639C25.4859 48.639 20.9554 46.6102 17.6717 43.3264C14.3879 40.0422 12.359 35.5121 12.359 30.4981C12.359 25.484 14.3879 20.9535 17.6717 17.6698C20.9558 14.386 25.4934 12.3571 30.5 12.3571Z" fill="#589CE7" stroke="#589CE7" stroke-width="0.3"/>
</svg>
