<svg width="193" height="163" viewBox="0 0 193 163" fill="none" xmlns="http://www.w3.org/2000/svg">
<path d="M131.687 127.673L134.398 129.344L134.915 128.522C135.07 128.29 135.354 128.136 135.638 128.162C135.793 128.187 135.948 128.187 136.129 128.187C136.413 128.187 136.671 128.342 136.826 128.573L137.291 129.421L140.106 127.904L139.641 127.056C139.512 126.799 139.538 126.491 139.693 126.259C139.796 126.131 139.873 126.002 139.951 125.848C140.08 125.591 140.364 125.436 140.648 125.436L141.63 125.462L141.733 122.274L140.751 122.249C140.467 122.249 140.209 122.069 140.08 121.811C140.054 121.734 140.003 121.683 139.977 121.606C139.951 121.529 139.899 121.477 139.848 121.4C139.693 121.143 139.693 120.86 139.848 120.603L140.364 119.78L137.652 118.109L137.136 118.932C136.981 119.163 136.697 119.318 136.413 119.292C136.258 119.266 136.103 119.266 135.948 119.266C135.664 119.266 135.406 119.112 135.251 118.881L134.786 118.032L131.971 119.549L132.436 120.397C132.565 120.655 132.539 120.963 132.384 121.194C132.281 121.323 132.203 121.452 132.126 121.606C131.997 121.863 131.713 122.017 131.428 122.017L130.447 121.991L130.344 125.179L131.325 125.205C131.609 125.205 131.867 125.385 131.997 125.642C132.022 125.719 132.074 125.771 132.1 125.848C132.126 125.925 132.177 125.976 132.229 126.053C132.384 126.311 132.384 126.593 132.229 126.85L131.687 127.673ZM133.701 124.974C133.03 123.714 133.494 122.12 134.76 121.452C136.025 120.783 137.627 121.246 138.298 122.506C138.97 123.765 138.505 125.359 137.213 126.053C135.974 126.722 134.373 126.259 133.701 124.974Z" fill="#CAD3DD" fill-opacity="0.7"/>
<path d="M157.785 112.117L159.578 115.244L160.537 114.702C160.828 114.535 161.162 114.535 161.454 114.744C161.621 114.827 161.746 114.952 161.912 114.994C162.204 115.161 162.371 115.452 162.371 115.744V116.87H165.998V115.744C165.998 115.411 166.165 115.119 166.457 114.994C166.623 114.91 166.79 114.827 166.915 114.744C167.207 114.577 167.54 114.535 167.832 114.702L168.791 115.244L170.584 112.117L169.625 111.575C169.333 111.409 169.166 111.117 169.208 110.783C169.208 110.7 169.208 110.616 169.208 110.533C169.208 110.45 169.208 110.366 169.208 110.283C169.208 109.949 169.333 109.658 169.625 109.491L170.584 108.949L168.791 105.822L167.832 106.364C167.54 106.531 167.207 106.531 166.915 106.322C166.748 106.239 166.623 106.114 166.457 106.072C166.165 105.906 165.998 105.614 165.998 105.322V104.196H162.371V105.322C162.371 105.655 162.204 105.947 161.912 106.072C161.746 106.156 161.579 106.239 161.454 106.322C161.162 106.489 160.828 106.531 160.537 106.364L159.578 105.822L157.785 108.949L158.744 109.491C159.036 109.658 159.161 109.949 159.161 110.283C159.161 110.366 159.161 110.45 159.161 110.533C159.161 110.616 159.161 110.7 159.161 110.783C159.161 111.117 159.036 111.409 158.744 111.575L157.785 112.117ZM161.245 110.491C161.245 108.866 162.579 107.531 164.205 107.531C165.831 107.531 167.165 108.866 167.165 110.491C167.165 112.117 165.831 113.451 164.205 113.451C162.538 113.451 161.245 112.117 161.245 110.491Z" fill="#CAD3DD" fill-opacity="0.7"/>
<path d="M190.214 76.7266C189.494 81.6226 185.258 85.4071 180.152 85.4071C174.535 85.4071 170 80.8716 170 75.2548C170 69.638 174.566 65.1025 180.152 65.1025V75.2548L190.214 76.7266Z" fill="#CAD3DD" fill-opacity="0.7"/>
<path d="M192.376 73.1523C192.376 73.6629 192.346 74.1435 192.256 74.6541L182.193 73.1523V63C185.948 63 189.252 65.0425 191.024 68.1062C191.895 69.608 192.376 71.3201 192.376 73.1523Z" fill="#DBDBDB"/>
<path d="M125.912 81.8008H123.746V97.2301H125.912V81.8008Z" fill="#CAD3DD" fill-opacity="0.7"/>
<path d="M129.644 85.5371H127.479V97.2309H129.644V85.5371Z" fill="#CAD3DD" fill-opacity="0.7"/>
<path d="M133.355 91.3848H131.189V97.2317H133.355V91.3848Z" fill="#CAD3DD" fill-opacity="0.7"/>
<path d="M137.089 88.0547H134.924V97.2311H137.089V88.0547Z" fill="#CAD3DD" fill-opacity="0.7"/>
<path d="M140.798 84.5361H138.633V97.2315H140.798V84.5361Z" fill="#CAD3DD" fill-opacity="0.7"/>
<path d="M144.533 82.4785H142.367V97.2311H144.533V82.4785Z" fill="#CAD3DD" fill-opacity="0.7"/>
<path d="M122.501 79.8525L122.528 84.2106V88.5687L122.556 97.2579L122.501 97.1767C124.505 97.1767 126.481 97.1767 128.484 97.1767H134.466H140.448L146.43 97.2037L140.448 97.2308H134.466H128.484C126.481 97.2308 124.505 97.2308 122.501 97.2308H122.447V97.1767L122.474 88.4875V84.1294L122.501 79.8525Z" fill="#CAD3DD" fill-opacity="0.7"/>
<path d="M122.014 80.7182C122.176 80.6641 122.339 80.6641 122.501 80.6641C122.663 80.6641 122.826 80.6641 122.988 80.7182C122.826 80.7723 122.663 80.7723 122.501 80.7723C122.339 80.7723 122.176 80.7723 122.014 80.7182Z" fill="#CAD3DD" fill-opacity="0.7"/>
<path d="M122.014 82.0453C122.176 81.9912 122.339 81.9912 122.501 81.9912C122.663 81.9912 122.826 81.9912 122.988 82.0453C122.826 82.0995 122.663 82.0995 122.501 82.0995C122.339 82.0995 122.176 82.0995 122.014 82.0453Z" fill="#CAD3DD" fill-opacity="0.7"/>
<path d="M122.014 83.3715C122.176 83.3174 122.339 83.3174 122.501 83.3174C122.663 83.3174 122.826 83.3174 122.988 83.3715C122.826 83.4257 122.663 83.4257 122.501 83.4257C122.339 83.4257 122.176 83.4257 122.014 83.3715Z" fill="#CAD3DD" fill-opacity="0.7"/>
<path d="M122.014 84.6987C122.176 84.6445 122.339 84.6445 122.501 84.6445C122.663 84.6445 122.826 84.6445 122.988 84.6987C122.826 84.7528 122.663 84.7528 122.501 84.7528C122.339 84.7528 122.176 84.7257 122.014 84.6987Z" fill="#CAD3DD" fill-opacity="0.7"/>
<path d="M122.014 85.9975C122.176 85.9434 122.339 85.9434 122.501 85.9434C122.663 85.9434 122.826 85.9434 122.988 85.9975C122.826 86.0516 122.663 86.0516 122.501 86.0516C122.339 86.0787 122.176 86.0516 122.014 85.9975Z" fill="#CAD3DD" fill-opacity="0.7"/>
<path d="M122.014 87.3237C122.176 87.2695 122.339 87.2695 122.501 87.2695C122.663 87.2695 122.826 87.2695 122.988 87.3237C122.826 87.3778 122.663 87.3778 122.501 87.3778C122.339 87.3778 122.176 87.3778 122.014 87.3237Z" fill="#CAD3DD" fill-opacity="0.7"/>
<path d="M122.014 88.6498C122.176 88.5957 122.339 88.5957 122.501 88.5957C122.663 88.5957 122.826 88.5957 122.988 88.6498C122.826 88.704 122.663 88.704 122.501 88.704C122.339 88.704 122.176 88.704 122.014 88.6498Z" fill="#CAD3DD" fill-opacity="0.7"/>
<path d="M122.014 89.976C122.176 89.9219 122.339 89.9219 122.501 89.9219C122.663 89.9219 122.826 89.9219 122.988 89.976C122.826 90.0302 122.663 90.0302 122.501 90.0302C122.339 90.0302 122.176 90.0302 122.014 89.976Z" fill="#CAD3DD" fill-opacity="0.7"/>
<path d="M122.014 91.3032C122.176 91.249 122.339 91.249 122.501 91.249C122.663 91.249 122.826 91.249 122.988 91.3032C122.826 91.3573 122.663 91.3573 122.501 91.3573C122.339 91.3573 122.176 91.3302 122.014 91.3032Z" fill="#CAD3DD" fill-opacity="0.7"/>
<path d="M122.014 92.602C122.176 92.5479 122.339 92.5479 122.501 92.5479C122.663 92.5479 122.826 92.5479 122.988 92.602C122.826 92.6561 122.663 92.6561 122.501 92.6561C122.339 92.6832 122.176 92.6561 122.014 92.602Z" fill="#CAD3DD" fill-opacity="0.7"/>
<path d="M122.014 93.9291C122.176 93.875 122.339 93.875 122.501 93.875C122.663 93.875 122.826 93.875 122.988 93.9291C122.826 93.9833 122.663 93.9833 122.501 93.9833C122.339 93.9833 122.176 93.9833 122.014 93.9291Z" fill="#CAD3DD" fill-opacity="0.7"/>
<path d="M122.014 95.2543C122.176 95.2002 122.339 95.2002 122.501 95.2002C122.663 95.2002 122.826 95.2002 122.988 95.2543C122.826 95.3085 122.663 95.3085 122.501 95.3085C122.339 95.3085 122.176 95.3085 122.014 95.2543Z" fill="#CAD3DD" fill-opacity="0.7"/>
<path d="M56.4044 38.1907H10.9629V6.75684H56.4044V38.1907ZM11.1713 37.9822H56.1959V6.96528H11.1713V37.9822Z" fill="#CAD3DD" fill-opacity="0.7"/>
<path d="M56.4044 9.88354H10.9629V6.75684H56.4044V9.88354ZM11.1713 9.6751H56.1959V6.96528H11.1713V9.6751Z" fill="#CAD3DD" fill-opacity="0.7"/>
<path d="M13.7957 8.34123C13.7957 8.75812 13.4622 9.09164 13.0453 9.09164C12.6284 9.09164 12.2949 8.75812 12.2949 8.34123C12.2949 7.92434 12.6284 7.59082 13.0453 7.59082C13.4622 7.59082 13.7957 7.92434 13.7957 8.34123Z" fill="#C7C7C7"/>
<path d="M16.7567 8.34123C16.7567 8.75812 16.4232 9.09164 16.0063 9.09164C15.5894 9.09164 15.2559 8.75812 15.2559 8.34123C15.2559 7.92434 15.5894 7.59082 16.0063 7.59082C16.4232 7.59082 16.7567 7.92434 16.7567 8.34123Z" fill="#CAD3DD" fill-opacity="0.7"/>
<path d="M19.7567 8.34123C19.7567 8.75812 19.4232 9.09164 19.0063 9.09164C18.5894 9.09164 18.2559 8.75812 18.2559 8.34123C18.2559 7.92434 18.5894 7.59082 19.0063 7.59082C19.4232 7.59082 19.7567 7.92434 19.7567 8.34123Z" fill="#011021"/>
<path d="M157.149 102.875H111.707V71.4414H157.149V102.875ZM111.915 102.667H156.94V71.6499H111.915V102.667Z" fill="#CAD3DD" fill-opacity="0.7"/>
<path d="M157.149 74.5681H111.707V71.4414H157.149V74.5681ZM111.915 74.3597H156.94V71.6499H111.915V74.3597Z" fill="#CAD3DD" fill-opacity="0.7"/>
<path d="M0.117188 143.508L22.8379 143.383H45.5587L91.0002 143.3L136.442 143.383H159.162L181.883 143.508L159.162 143.592L136.442 143.633L91.0002 143.717L45.5587 143.633L22.8379 143.592L0.117188 143.508Z" fill="#011021"/>
<path d="M38.7597 79.0581C38.7597 79.0581 29.7131 77.8074 31.8392 66.8848C31.7975 66.8848 41.9281 69.136 38.7597 79.0581Z" fill="#011021"/>
<path d="M38.3009 76.8076C38.1341 76.2656 37.9257 75.7236 37.6756 75.1817C37.6756 75.0983 37.6756 75.0566 37.6339 74.9732C37.6339 74.8065 37.5922 74.6814 37.5922 74.5147C37.5505 74.1811 37.5505 73.8476 37.5088 73.5558C37.4671 72.8888 37.4254 72.2634 37.4254 71.5964C37.4254 71.5547 37.3837 71.5547 37.3837 71.5964C37.3837 72.2634 37.3837 72.8888 37.3837 73.5558C37.3837 73.8893 37.4254 74.2228 37.4254 74.5147C37.4254 74.598 37.4254 74.6397 37.4254 74.7231C36.9251 73.6392 36.2998 72.5969 35.5911 71.6381C35.2993 71.2212 34.9657 70.8043 34.5905 70.3874C34.2153 69.9705 33.8401 69.5953 33.4649 69.1784C33.4232 69.1367 33.3816 69.1784 33.4232 69.2201C34.0903 69.9288 34.6322 70.7209 35.1742 71.5547C35.466 71.9716 35.7162 72.3885 35.9663 72.8471C35.9246 72.8471 35.9246 72.8054 35.8829 72.8054C35.7579 72.7637 35.6745 72.722 35.5494 72.6803C35.2993 72.5969 35.0491 72.4719 34.799 72.3885C34.2987 72.2217 33.8401 72.0133 33.3399 71.8465C33.2982 71.8465 33.2982 71.8882 33.3399 71.8882C33.8401 72.0967 34.2987 72.2634 34.7573 72.4719C35.0074 72.5552 35.2159 72.6803 35.466 72.7637C35.5911 72.8054 35.7162 72.8471 35.7995 72.8888C35.8829 72.9305 35.9663 72.9721 36.0497 72.9721C36.2164 73.3057 36.4249 73.6392 36.5916 73.9727C37.0085 74.8065 37.3837 75.682 37.7173 76.5991C37.7589 76.6408 37.7589 76.7242 37.8006 76.7659C37.5922 76.5991 37.3004 76.5157 37.0502 76.3907C36.7584 76.2656 36.4249 76.0988 36.1331 75.9738C35.5077 75.682 34.8824 75.3901 34.257 75.0566C34.2153 75.0566 34.2153 75.0983 34.2153 75.0983C34.8407 75.4318 35.466 75.807 36.0497 76.1405C36.3415 76.3073 36.675 76.4741 37.0085 76.6408C37.2587 76.7659 37.5505 76.9326 37.8423 76.9743C38.1341 77.8081 38.3426 78.6419 38.426 79.5591C38.5094 80.8098 38.5094 82.0187 38.551 83.2694C38.551 83.3111 38.5927 83.2694 38.5927 83.2694C38.6761 82.1438 38.7178 81.0182 38.7595 79.8926C38.8429 78.8087 38.6344 77.8081 38.3009 76.8076Z" fill="#011021"/>
<path d="M36.8829 70.3867C36.7996 71.0121 36.7579 71.6791 36.7996 72.3044H36.8412C36.8829 71.6791 36.8829 71.0121 36.9663 70.3867C36.9663 70.345 36.8829 70.345 36.8829 70.3867Z" fill="#011021"/>
<path d="M34.2988 70.9284C33.8819 70.7616 33.5067 70.5949 33.1315 70.3447C33.0898 70.3447 33.0898 70.3864 33.0898 70.3864C33.465 70.6366 33.8819 70.845 34.2988 70.9284C34.3405 70.9284 34.2988 70.9701 34.2988 70.9284Z" fill="#011021"/>
<path d="M39.0499 96.4013C39.0499 95.4008 39.0082 94.4002 39.0082 93.3997C39.0082 90.0645 38.9665 86.7711 38.8832 83.4359C38.8415 80.8095 38.7581 78.183 38.7164 75.5149C38.7164 75.5149 38.7164 75.4732 38.6747 75.4732C38.6747 74.7645 38.6747 74.0141 38.6747 73.3054L38.633 73.2637C38.5913 73.2637 38.5913 73.2637 38.5913 73.3054C38.5913 74.0141 38.5913 74.7645 38.5913 75.4732C38.5913 75.4732 38.5913 75.4732 38.5913 75.5149C38.4663 80.2258 38.3412 84.895 38.2995 89.6059C38.2995 90.5648 38.2995 91.5237 38.2995 92.4825C38.2578 95.5258 38.2578 98.6109 38.2578 101.654C38.2578 102.154 38.2578 102.613 38.2578 103.113C38.2578 105.907 38.2995 108.7 38.2995 111.493C38.2995 111.66 38.4663 111.701 38.633 111.743C38.8415 111.743 39.0499 111.66 39.0499 111.493C39.0499 108.408 39.0916 105.323 39.0916 102.238C39.0499 100.32 39.0499 98.3607 39.0499 96.4013Z" fill="#011021"/>
<path d="M35.2573 93.3575C35.2573 93.3575 30.9215 90.1474 26.7943 92.3152C22.667 94.4831 22 102.904 22 102.904C22 102.904 28.045 103.78 31.8804 100.153C35.5491 96.6509 35.2573 93.3575 35.2573 93.3575Z" fill="#011021"/>
<path d="M36.4249 93.5661C35.6328 93.2326 34.7573 93.1493 33.9236 93.2326C33.7568 93.1909 33.5484 93.1909 33.3816 93.1909C33.1732 93.1909 32.9647 93.1492 32.7563 93.1492C32.3394 93.1076 31.9225 93.1076 31.5056 93.0659C30.6301 92.9825 29.7963 92.9408 28.9208 92.8574C28.8791 92.8574 28.8791 92.8991 28.9208 92.8991C29.7546 93.0242 30.6301 93.1076 31.4639 93.2326C31.8808 93.2743 32.3394 93.316 32.7979 93.3577C32.8813 93.3577 33.0064 93.3577 33.1315 93.3994C33.0064 93.4411 32.8813 93.4411 32.7563 93.4828C32.0892 93.6912 31.4222 93.9414 30.7968 94.2749C30.4633 94.3166 30.1298 94.4416 29.7963 94.525C29.2543 94.6501 28.7124 94.7751 28.1704 94.9419C27.1282 95.2337 26.0859 95.5255 25.002 95.8174C24.9603 95.8174 25.002 95.8591 25.002 95.8591C26.0443 95.6089 27.0865 95.3588 28.1704 95.1087C28.6707 94.9836 29.171 94.8585 29.7129 94.7334C29.838 94.6918 29.9631 94.6918 30.1298 94.6501C28.9625 95.3588 27.9203 96.3176 27.0448 97.3599C26.1693 98.4021 25.5023 99.5277 24.877 100.737C24.877 100.778 24.9186 100.778 24.9186 100.778C25.6274 99.5277 26.5028 98.4021 27.5034 97.3599C27.5034 97.4016 27.4617 97.4849 27.4617 97.5266C27.3783 97.7768 27.2949 98.0269 27.2116 98.277C27.0448 98.7773 26.878 99.3193 26.753 99.8196C26.753 99.8612 26.7947 99.8612 26.7947 99.8196C26.9614 99.3193 27.1699 98.819 27.3366 98.3187C27.42 98.0686 27.5034 97.8185 27.5868 97.5683C27.6285 97.4433 27.6701 97.3182 27.7118 97.1931C27.7118 97.1514 27.7535 97.1097 27.7535 97.0681C28.2538 96.6095 28.7541 96.1509 29.296 95.734C30.0047 95.192 30.7968 94.7751 31.5889 94.3999C31.5889 94.4833 31.5473 94.5667 31.5473 94.6084C31.5056 94.8168 31.4639 95.0253 31.4222 95.192C31.3388 95.6089 31.2554 96.0258 31.172 96.4427C31.0053 97.2765 30.9219 98.152 30.7552 98.9858C30.7552 99.0275 30.7968 99.0275 30.7968 98.9858C31.0053 98.152 31.2554 97.3182 31.4222 96.4427C31.5056 96.0258 31.6306 95.6089 31.714 95.1503C31.7557 94.9419 31.7974 94.7334 31.8391 94.5667C31.8808 94.4416 31.8808 94.3582 31.8808 94.2332C31.9642 94.1915 32.0475 94.1498 32.1309 94.1498C33.2565 93.7329 34.5489 93.3994 35.7579 93.6495C36.9252 93.858 37.9257 94.6501 38.3843 95.734C38.426 95.8174 38.5928 95.7757 38.5511 95.6923C38.2593 94.7751 37.3838 93.983 36.4249 93.5661Z" fill="#011021"/>
<path d="M29.7959 97.1511C29.6709 97.693 29.5458 98.235 29.4207 98.8186C29.2957 99.3606 29.1706 99.9026 29.1289 100.445C29.1289 100.486 29.1706 100.486 29.1706 100.445C29.3374 99.9442 29.4207 99.3606 29.5458 98.8186C29.6709 98.2767 29.7543 97.7347 29.8793 97.1927C29.8376 97.1511 29.7959 97.1094 29.7959 97.1511Z" fill="#011021"/>
<path d="M25.5852 98.5684C25.0433 98.8602 24.5013 99.152 23.9177 99.4021C23.876 99.4021 23.9177 99.4855 23.9594 99.4438C24.5013 99.152 25.0433 98.9019 25.5852 98.5684Z" fill="#011021"/>
<path d="M36.2175 87.4377C36.2175 87.4377 30.8812 87.7712 28.4215 84.2693C25.9619 80.7674 26.5038 75.7646 26.5038 75.7646C26.5038 75.7646 32.0902 76.4317 34.2998 78.9747C36.551 81.4761 36.2175 87.4377 36.2175 87.4377Z" fill="#011021"/>
<path d="M38.7178 92.6908C38.5511 92.1072 38.3009 91.5652 38.0925 90.9815C37.884 90.4396 37.6756 89.8976 37.4255 89.3973C36.9669 88.3134 36.4249 87.2712 35.8413 86.2706C35.4661 85.6036 35.0492 84.9783 34.6323 84.3946C34.6323 84.3112 34.5906 84.1862 34.5906 84.1028C34.5489 83.936 34.5489 83.7693 34.5072 83.6025C34.4655 83.269 34.3821 82.9355 34.3404 82.602C34.2154 81.8516 34.0486 81.1428 33.9652 80.3924C33.9652 80.3507 33.9236 80.3507 33.9236 80.3924C34.0486 81.1011 34.0903 81.8516 34.2154 82.5603C34.2571 82.9355 34.2988 83.269 34.3821 83.6442C34.3821 83.7693 34.4238 83.8943 34.4238 84.0194C33.6317 82.8521 32.7562 81.6848 31.7974 80.6009C31.6723 80.4341 31.5473 80.309 31.4222 80.184C31.4222 80.1423 31.3805 80.1006 31.3805 80.0589C31.3388 79.9755 31.2971 79.8505 31.2554 79.7671C31.1721 79.5586 31.0887 79.3502 31.0053 79.1417C30.8385 78.7248 30.7135 78.308 30.5884 77.8911C30.5884 77.8494 30.5467 77.8911 30.5467 77.8911C30.6718 78.308 30.7552 78.7665 30.8802 79.1834C30.9219 79.3919 31.0053 79.6003 31.0887 79.8088C31.0887 79.8505 31.1304 79.8922 31.1304 79.8922C30.4633 79.1417 29.7546 78.433 29.0042 77.7243C28.9625 77.6826 28.9208 77.7243 28.9625 77.766C30.3383 79.1834 31.5889 80.7676 32.7146 82.3935C32.5895 82.3518 32.4644 82.3101 32.3394 82.3101C31.9225 82.2268 31.5056 82.1851 31.0887 82.1017C30.2132 81.9766 29.3377 81.8932 28.5039 81.7265C28.4622 81.7265 28.4622 81.7682 28.5039 81.7682C29.3377 81.9349 30.1298 82.1017 30.9636 82.3101C31.3388 82.3935 31.7557 82.4769 32.1309 82.5603C32.4644 82.6437 32.7562 82.727 33.0481 82.8104C33.1314 82.9355 33.2148 83.0606 33.2982 83.1856C33.6734 83.7693 34.0486 84.3529 34.4238 84.9366C34.2571 84.8949 34.0486 84.8532 33.8819 84.8115C33.465 84.7281 33.0481 84.6447 32.6312 84.6031C31.8391 84.478 31.0053 84.3112 30.2132 84.1445C30.1715 84.1445 30.1715 84.1862 30.2132 84.1862C31.047 84.3946 31.8391 84.6031 32.6312 84.8115C33.0064 84.8949 33.4233 85.02 33.7985 85.1033C34.0069 85.145 34.1737 85.1867 34.3821 85.2284C34.4655 85.2284 34.5489 85.2701 34.6323 85.2701C35.4244 86.5208 36.1331 87.8131 36.8001 89.1472C37.0919 89.7309 37.3838 90.3145 37.6756 90.8982C37.9674 91.4818 38.2176 92.1072 38.4677 92.7325C38.5928 92.8993 38.7595 92.8576 38.7178 92.6908Z" fill="#011021"/>
<path d="M33.299 80.4754C33.2157 79.9751 33.0906 79.4749 32.9655 78.9746C32.9655 78.9329 32.9238 78.9746 32.9238 78.9746C33.0072 79.4749 33.1323 79.9751 33.2157 80.4754C33.299 80.9757 33.3824 81.476 33.5075 81.9762C33.5075 81.476 33.3824 80.9757 33.299 80.4754Z" fill="#011021"/>
<path d="M30.1725 80.3506C29.9223 80.2255 29.6722 80.1421 29.422 80.0171C29.297 79.9754 29.1719 79.892 29.0052 79.8503C28.9218 79.8086 28.8801 79.8086 28.7967 79.7669C28.7133 79.7252 28.6299 79.7252 28.5883 79.6835C28.5466 79.6419 28.5049 79.7252 28.5466 79.7252C28.6299 79.7252 28.7133 79.7669 28.755 79.8086C28.8384 79.8503 28.8801 79.8503 28.9635 79.892C29.0885 79.9337 29.2136 80.0171 29.3387 80.0588C29.5888 80.1838 29.8389 80.2672 30.1308 80.3506C30.2141 80.3923 30.2141 80.3506 30.1725 80.3506Z" fill="#011021"/>
<path d="M41.6777 83.2689C41.6777 83.2689 44.8878 77.2656 49.8072 76.3068C54.6848 75.3896 57.6865 80.434 57.6865 80.434C57.6865 80.434 54.1012 84.9782 49.6404 85.812C45.138 86.6041 41.6777 83.2689 41.6777 83.2689Z" fill="#011021"/>
<path d="M53.0588 79.0172C51.8082 78.8505 50.4741 78.8505 49.2234 79.0589C49.3068 79.0172 49.3902 78.9755 49.4319 78.9338C49.8071 78.7671 50.1406 78.5586 50.5158 78.3919C51.2662 78.0167 52.0166 77.5998 52.8087 77.2663C52.8504 77.2663 52.8087 77.1829 52.767 77.2246C52.0166 77.5998 51.2245 77.8916 50.4324 78.2251C50.0572 78.3919 49.682 78.6003 49.3068 78.7671C49.0567 78.8921 48.8065 79.0172 48.5564 79.184C47.4725 79.3924 46.4302 79.7259 45.4297 80.2262C45.6381 80.0178 45.8466 79.7676 46.055 79.5592C46.5136 79.0589 46.9722 78.5169 47.4725 78.1C47.5141 78.0584 47.4725 78.0584 47.4308 78.0584C46.9305 78.5169 46.3885 78.9338 45.8883 79.4341C45.6381 79.6842 45.4297 79.8927 45.1795 80.1428C45.0545 80.2679 44.9711 80.393 44.846 80.518C42.7199 81.6853 40.8855 83.4363 39.7182 85.5208C39.0512 86.7298 38.5509 88.0221 38.3008 89.3562C38.3008 89.3979 38.3425 89.3979 38.3425 89.3562C39.0095 87.105 40.3019 84.9371 41.9278 83.2695C43.7204 81.4352 46.0133 80.1011 48.473 79.4758C49.9321 79.1006 51.4747 78.9755 53.0172 79.0589C53.1422 79.1423 53.1422 79.0172 53.0588 79.0172Z" fill="#011021"/>
<path d="M50.2241 76.8903C49.8489 77.0988 49.4737 77.3489 49.1402 77.599C48.8067 77.8492 48.4732 78.141 48.1813 78.4745C48.1396 78.5162 48.1813 78.5579 48.223 78.5162C48.5565 78.2244 48.8901 77.9326 49.2236 77.6824C49.5571 77.4323 49.8906 77.1405 50.2658 76.932C50.3075 76.8903 50.2658 76.8486 50.2241 76.8903Z" fill="#011021"/>
<path d="M52.9345 77.8906C52.7677 77.974 52.5593 78.0157 52.3925 78.0991C52.2258 78.1825 52.0173 78.2658 51.8506 78.3075C51.8089 78.3075 51.8506 78.3909 51.8506 78.3909C52.0173 78.3075 52.2258 78.2241 52.3925 78.1824C52.5593 78.0991 52.7677 78.0157 52.9345 77.9323C52.9762 77.9323 52.9762 77.8906 52.9345 77.8906Z" fill="#011021"/>
<path d="M41.0508 90.8569C41.0508 90.8569 41.9263 96.8185 46.387 98.9029C50.8895 100.987 56.3508 98.9029 56.3508 98.9029C56.3508 98.9029 54.183 85.9792 41.0508 90.8569Z" fill="#011021"/>
<path d="M53.2659 95.025C52.849 94.9833 52.4321 94.8999 52.0153 94.8166C51.8068 94.7749 51.5984 94.7332 51.4316 94.6915C51.3482 94.6915 51.2232 94.6498 51.0981 94.6081C50.973 94.483 50.848 94.3997 50.7229 94.2746C49.8891 93.5242 48.9719 92.8572 47.9714 92.2735C47.4294 91.94 46.8875 91.6899 46.3455 91.4397C46.3872 91.4397 46.3872 91.4397 46.4289 91.4397C46.9291 91.4814 47.4294 91.4814 47.888 91.5231C48.8885 91.5648 49.8474 91.6065 50.848 91.6482C50.8896 91.6482 50.8896 91.6065 50.848 91.6065C49.8474 91.5231 48.8885 91.4397 47.888 91.3563C47.4294 91.3147 46.9291 91.273 46.4706 91.2313C46.2204 91.1896 45.9703 91.1896 45.7202 91.1479C45.6368 91.1479 45.5951 91.1479 45.5117 91.1479C45.2616 91.0645 45.0114 90.9811 44.7196 90.8978C43.5106 90.5226 42.1766 90.3558 40.9259 90.6893C39.8003 90.9811 38.6746 91.7315 38.3828 92.8988C38.3828 92.9405 38.4245 92.9822 38.4662 92.9405C38.8831 91.94 40.0087 91.4397 40.9676 91.2313C41.6346 91.1062 42.3433 91.1062 43.0103 91.1896C43.052 91.4814 43.1354 91.8149 43.2188 92.1067C43.3439 92.5236 43.4689 92.9405 43.594 93.3574C43.8441 94.1912 44.136 95.025 44.3861 95.8588C44.3861 95.9005 44.4278 95.8588 44.4278 95.8588C44.2193 95.025 44.0526 94.1912 43.8441 93.3574C43.7608 92.9405 43.6357 92.5236 43.5523 92.1067C43.4689 91.8566 43.4272 91.5231 43.3439 91.273C43.7191 91.3563 44.1359 91.4397 44.5112 91.5648C45.2199 91.7732 45.8869 92.0234 46.5539 92.3152C46.6373 92.7321 46.7207 93.149 46.8041 93.5659C46.9291 94.1078 47.0542 94.6081 47.221 95.1084C47.221 95.1501 47.2627 95.1084 47.2627 95.1084C47.2627 95.0667 47.2627 95.025 47.2627 95.025C47.1793 94.5247 47.0542 94.0662 46.9708 93.5659C46.8875 93.1907 46.8041 92.7738 46.7207 92.3986C47.2627 92.6487 47.8463 92.9405 48.3466 93.2324C48.3466 93.3574 48.3883 93.4825 48.3883 93.6076C48.43 93.816 48.4717 94.0245 48.5133 94.2329C48.5967 94.6915 48.6801 95.1501 48.8052 95.6087C49.0136 96.4841 49.2638 97.3596 49.5556 98.1934V98.2351C49.5556 98.2351 49.5556 98.2351 49.5973 98.2768C49.5973 98.3185 49.639 98.2768 49.639 98.2351C49.4305 97.3596 49.1804 96.4841 49.0136 95.567C48.9302 95.1084 48.8052 94.6915 48.7218 94.2329C48.6801 94.0245 48.6384 93.7743 48.5967 93.5659C48.5967 93.5242 48.555 93.4408 48.555 93.3574C49.1804 93.7326 49.764 94.1078 50.306 94.5247C51.2649 95.2335 52.182 96.0672 52.9741 96.9844C53.0158 97.0261 53.0575 96.9844 53.0575 96.9427C52.724 96.4841 52.3905 96.0672 51.9736 95.6503C51.7651 95.4002 51.515 95.1918 51.2648 94.9416C51.3065 94.9416 51.3065 94.9416 51.3482 94.9416C51.5567 94.9833 51.7651 95.025 51.9736 95.025C52.3905 95.0667 52.8074 95.1084 53.2243 95.1501C53.2659 95.0667 53.2659 95.025 53.2659 95.025Z" fill="#011021"/>
<path d="M50.0959 97.0266C50.0959 96.9849 50.0959 96.9432 50.0542 96.8598C50.0542 96.7764 50.0125 96.7347 50.0125 96.6514C49.9292 96.2345 49.8458 95.8593 49.7624 95.4424C49.7624 95.4007 49.7207 95.4424 49.7207 95.4424C49.7207 96.026 49.8875 96.568 50.0959 97.0266C50.0959 97.0682 50.0542 97.0682 50.0959 97.0266Z" fill="#011021"/>
<path d="M46.3447 96.9439C46.3447 96.9022 46.3447 96.9022 46.3447 96.9439C46.178 96.4019 46.0529 95.8599 45.9695 95.318C45.9278 95.0261 45.8445 94.776 45.8028 94.4842C45.7611 94.3174 45.7611 94.1924 45.7194 94.0256C45.6777 93.9005 45.6777 93.7755 45.636 93.6504H45.5943C45.5526 93.9005 45.6777 94.1924 45.7194 94.4425C45.7611 94.7343 45.8445 95.0261 45.8862 95.318C46.0112 95.9016 46.178 96.4853 46.3447 97.0689C46.3447 97.1106 46.3864 97.1106 46.3864 97.0689C46.3447 97.0272 46.3447 96.9855 46.3447 96.9439Z" fill="#011021"/>
<path d="M52.8484 93.2749C52.0146 93.1499 51.2225 93.0248 50.3887 92.9414C50.347 92.9414 50.347 92.9831 50.3887 92.9831C51.2225 93.1082 52.0146 93.1915 52.8484 93.3166C52.8484 93.3583 52.8901 93.3166 52.8484 93.2749Z" fill="#011021"/>
<path d="M38.7619 76.8497C38.7619 76.8497 36.0104 64.8015 48.9758 59.9238C48.9341 59.9238 52.5194 75.8075 38.7619 76.8497Z" fill="#011021"/>
<path d="M41.5551 70.0129C41.5967 69.9712 41.6384 69.9712 41.6801 69.9295C41.9303 69.8045 42.1804 69.6377 42.4305 69.5126L43.9313 68.6788C44.9319 68.1369 45.8908 67.5532 46.8913 67.0113C46.933 67.0113 46.8913 66.9279 46.8496 66.9696C45.8491 67.5115 44.8485 68.0118 43.848 68.5538L42.3472 69.3459C42.1387 69.4709 41.9303 69.5543 41.7218 69.6794C42.1387 68.8456 42.5973 68.0535 43.1392 67.3031C43.8063 66.2609 44.5567 65.302 45.3071 64.3431C45.3488 64.3015 45.2654 64.2598 45.2237 64.3014C44.0981 65.3854 43.0976 66.6361 42.2221 67.9701C42.2221 67.9284 42.2221 67.8867 42.2221 67.8451C42.2221 67.5532 42.2638 67.2614 42.2638 66.9279C42.2638 66.3442 42.2638 65.7606 42.2638 65.1769C42.2638 65.1352 42.2221 65.1352 42.2221 65.1769C42.1804 65.7606 42.1387 66.3442 42.097 66.9279C42.097 67.2197 42.0553 67.5115 42.0553 67.8034C42.0553 67.9701 42.0553 68.1369 42.0553 68.3036C41.8052 68.7205 41.5134 69.1374 41.3049 69.596C40.888 70.3881 40.4711 71.1802 40.1376 72.014C40.1376 71.7222 40.0959 71.4303 40.0959 71.0968C40.0542 70.4298 39.9708 69.7628 39.9292 69.1374C39.9292 69.0957 39.8875 69.0957 39.8875 69.1374C39.8875 69.8045 39.8875 70.4715 39.8875 71.0968C39.8875 71.4303 39.8875 71.7639 39.9292 72.0974C39.9292 72.2224 39.9292 72.3475 39.9708 72.4726C39.554 73.5565 39.2204 74.6821 39.012 75.766C38.7619 76.975 38.6368 78.184 38.5117 79.393C38.6368 78.3091 38.8869 77.1835 39.1788 76.1413C39.3455 75.5576 39.5123 75.0156 39.679 74.432C40.221 74.1818 40.7213 73.8483 41.2632 73.5565C41.8052 73.2647 42.3471 72.9729 42.8891 72.681C43.973 72.0974 45.057 71.472 46.1409 70.9718C46.1826 70.9718 46.1409 70.9301 46.0992 70.9301C44.9736 71.4303 43.848 71.9306 42.7224 72.4726C42.1804 72.7644 41.6384 73.0562 41.0965 73.3481C40.6379 73.5982 40.1793 73.8483 39.7624 74.1402C39.8875 73.765 40.0125 73.3897 40.1793 73.0145C40.5962 71.9723 41.0548 70.9718 41.5551 70.0129Z" fill="#011021"/>
<path d="M40.4304 67.2617C40.4304 67.22 40.3887 67.22 40.3887 67.2617C40.4304 67.9288 40.4721 68.6375 40.5137 69.3045C40.5137 69.3462 40.5554 69.3462 40.5554 69.3045C40.5554 68.6375 40.5137 67.9705 40.4304 67.2617Z" fill="#011021"/>
<path d="M46.6416 69.5537C45.8495 69.8872 45.0157 70.1791 44.2236 70.5126C44.1819 70.5126 44.2236 70.5543 44.2236 70.5543C45.0574 70.2624 45.8495 69.9289 46.6416 69.5954C46.6833 69.5954 46.6833 69.5537 46.6416 69.5537Z" fill="#011021"/>
<path d="M47.8922 64.0098C47.1001 64.385 46.3497 64.8019 45.5993 65.2604C45.5576 65.3021 45.5993 65.3438 45.641 65.3021C46.3914 64.8436 47.1418 64.4267 47.9339 64.0515L47.8922 64.0098Z" fill="#011021"/>
<path d="M47.6808 102.904H29.0039V122.582H47.6808V102.904Z" fill="#4D5763"/>
<path d="M28.7108 109.865H27.752V143.55H28.7108V109.865Z" fill="#011021"/>
<path d="M48.8475 109.865H47.8887V143.55H48.8475V109.865Z" fill="#011021"/>
<path d="M39.2987 109.865H38.3398V143.55H39.2987V109.865Z" fill="#011021"/>
<path d="M48.3886 121.289H28.2109V123.999H48.3886V121.289Z" fill="#011021"/>
<g opacity="0.5">
<path d="M181.14 3.08496H114.979V50.3191H181.14V3.08496Z" fill="#CAD3DD" fill-opacity="0.7"/>
<path d="M181.138 50.3189L114.977 50.4439H114.852V50.3189L114.811 3.08473V2.91797H114.977L181.138 2.95966H181.264V3.08473L181.138 50.3189ZM181.138 50.3189L181.013 3.08473L181.138 3.2098L114.977 3.25149L115.144 3.08473L115.102 50.3189L114.977 50.1938L181.138 50.3189Z" fill="#CAD3DD" fill-opacity="0.7"/>
</g>
<path d="M181.14 0H114.979V3.08502H181.14V0Z" fill="#4D5763"/>
<path d="M117.438 1.54167C117.438 1.95857 117.105 2.29208 116.688 2.29208C116.271 2.29208 115.938 1.95857 115.938 1.54167C115.938 1.12478 116.271 0.791261 116.688 0.791261C117.105 0.749572 117.438 1.12478 117.438 1.54167Z" fill="#C7C7C7"/>
<path d="M120.606 1.54167C120.606 1.95857 120.273 2.29208 119.856 2.29208C119.439 2.29208 119.105 1.95857 119.105 1.54167C119.105 1.12478 119.439 0.791261 119.856 0.791261C120.231 0.749572 120.606 1.12478 120.606 1.54167Z" fill="white"/>
<path d="M123.733 1.54167C123.733 1.95857 123.4 2.29208 122.983 2.29208C122.566 2.29208 122.232 1.95857 122.232 1.54167C122.232 1.12478 122.566 0.791261 122.983 0.791261C123.4 0.749572 123.733 1.12478 123.733 1.54167Z" fill="#011021"/>
<path d="M163.958 42.6416H168.752V11.6663H163.958V42.6416Z" fill="white"/>
<path d="M163.958 42.6621H168.752V19.1493H163.958V42.6621Z" fill="#011021"/>
<path d="M156.801 42.6533H161.596V11.6781H156.801V42.6533Z" fill="white"/>
<path d="M156.801 42.6318H161.596V22.2457H156.801V42.6318Z" fill="#4D5763"/>
<path d="M149.6 42.6416H154.395V11.6663H149.6V42.6416Z" fill="white"/>
<path d="M149.6 42.6396H154.395V33.2178H149.6V42.6396Z" fill="#011021"/>
<path d="M142.401 42.6533H147.195V11.6781H142.401V42.6533Z" fill="white"/>
<path d="M142.401 42.6328H147.195V16.7854H142.401V42.6328Z" fill="#4D5763"/>
<path d="M135.245 42.6533H140.039V11.6781H135.245V42.6533Z" fill="white"/>
<path d="M135.245 42.6279H140.039V14.7377H135.245V42.6279Z" fill="#011021"/>
<path d="M128.044 42.6533H132.838V11.6781H128.044V42.6533Z" fill="white"/>
<path d="M128.044 42.6387H132.838V24.9623H128.044V42.6387Z" fill="#4D5763"/>
<path d="M124.897 11.6748L124.939 19.429L124.981 27.1416L125.064 42.6501L124.897 42.4833H136.654H148.41L160.166 42.5667L171.965 42.6501L160.166 42.7334L148.41 42.8168H136.654H124.897H124.73V42.6501L124.772 27.1416L124.814 19.429L124.897 11.6748Z" fill="#C7C7C7"/>
<path d="M124.189 11.6742C124.44 11.5908 124.648 11.5908 124.898 11.5908C125.148 11.5908 125.357 11.5908 125.607 11.6742C125.357 11.7576 125.148 11.7576 124.898 11.7576C124.648 11.7576 124.44 11.7576 124.189 11.6742Z" fill="#C7C7C7"/>
<path d="M124.189 14.7592C124.44 14.6758 124.648 14.6758 124.898 14.6758C125.148 14.6758 125.357 14.6758 125.607 14.7592C125.357 14.8425 125.148 14.8425 124.898 14.8425C124.648 14.8425 124.44 14.8008 124.189 14.7592Z" fill="#C7C7C7"/>
<path d="M124.189 17.8021C124.44 17.7188 124.648 17.7188 124.898 17.7188C125.148 17.7188 125.357 17.7188 125.607 17.8021C125.357 17.8855 125.148 17.8855 124.898 17.8855C124.648 17.8855 124.44 17.8855 124.189 17.8021Z" fill="#C7C7C7"/>
<path d="M124.189 20.8871C124.44 20.8037 124.648 20.8037 124.898 20.8037C125.148 20.8037 125.357 20.8037 125.607 20.8871C125.357 20.9705 125.148 20.9705 124.898 20.9705C124.648 20.9705 124.44 20.9705 124.189 20.8871Z" fill="#C7C7C7"/>
<path d="M124.189 23.972C124.44 23.8887 124.648 23.8887 124.898 23.8887C125.148 23.8887 125.357 23.8887 125.607 23.972C125.357 24.0554 125.148 24.0554 124.898 24.0554C124.648 24.0554 124.44 24.0137 124.189 23.972Z" fill="#C7C7C7"/>
<path d="M124.189 27.016C124.44 26.9326 124.648 26.9326 124.898 26.9326C125.148 26.9326 125.357 26.9326 125.607 27.016C125.357 27.0994 125.148 27.0994 124.898 27.0994C124.648 27.0994 124.44 27.0994 124.189 27.016Z" fill="#C7C7C7"/>
<path d="M124.189 30.101C124.44 30.0176 124.648 30.0176 124.898 30.0176C125.148 30.0176 125.357 30.0176 125.607 30.101C125.357 30.1843 125.148 30.1843 124.898 30.1843C124.648 30.1843 124.44 30.1843 124.189 30.101Z" fill="#C7C7C7"/>
<path d="M124.189 33.1859C124.44 33.1025 124.648 33.1025 124.898 33.1025C125.148 33.1025 125.357 33.1025 125.607 33.1859C125.357 33.2693 125.148 33.2693 124.898 33.2693C124.648 33.2693 124.44 33.2276 124.189 33.1859Z" fill="#C7C7C7"/>
<path d="M124.189 36.2299C124.44 36.1465 124.648 36.1465 124.898 36.1465C125.148 36.1465 125.357 36.1465 125.607 36.2299C125.357 36.3132 125.148 36.3132 124.898 36.3132C124.648 36.3132 124.44 36.3132 124.189 36.2299Z" fill="#C7C7C7"/>
<path d="M124.189 39.3139C124.44 39.2305 124.648 39.2305 124.898 39.2305C125.148 39.2305 125.357 39.2305 125.607 39.3139C125.357 39.3972 125.148 39.3972 124.898 39.3972C124.648 39.3972 124.44 39.3972 124.189 39.3139Z" fill="#C7C7C7"/>
<g opacity="0.5">
<path d="M80.1714 17.3086H19.0547V57.0803H80.1714V17.3086Z" fill="#CAD3DD" fill-opacity="0.7"/>
<path d="M80.1702 57.0801L19.0535 57.2052H18.9284V57.0801L18.8867 17.3084V17.1416H19.0535L80.1702 17.1833H80.2953V17.3084L80.2536 37.2359L80.1702 57.0801ZM80.1702 57.0801L80.0868 37.1525L80.0451 17.3084L80.1702 17.4334L19.0535 17.4751L19.2202 17.3084L19.1785 57.0801L19.0535 56.955L80.1702 57.0801Z" fill="#CAD3DD" fill-opacity="0.7"/>
</g>
<path d="M80.1694 14.4316H19.0527V17.3082H80.1694V14.4316Z" fill="#4D5763"/>
<path d="M21.3042 15.8493C21.3042 16.2246 20.9706 16.5581 20.5954 16.5581C20.2202 16.5581 19.8867 16.2246 19.8867 15.8493C19.8867 15.4741 20.2202 15.1406 20.5954 15.1406C21.0123 15.1406 21.3042 15.4741 21.3042 15.8493Z" fill="#C7C7C7"/>
<path d="M24.2221 15.8493C24.2221 16.2246 23.8886 16.5581 23.5134 16.5581C23.1382 16.5581 22.8047 16.2246 22.8047 15.8493C22.8047 15.4741 23.1382 15.1406 23.5134 15.1406C23.8886 15.1406 24.2221 15.4741 24.2221 15.8493Z" fill="white"/>
<path d="M27.1401 15.8493C27.1401 16.2246 26.8066 16.5581 26.4314 16.5581C26.0562 16.5581 25.7227 16.2246 25.7227 15.8493C25.7227 15.4741 26.0562 15.1406 26.4314 15.1406C26.8066 15.1406 27.1401 15.4741 27.1401 15.8493Z" fill="#011021"/>
<path d="M73.3301 23.0996H30.3066V27.3102H73.3301V23.0996Z" fill="white"/>
<path d="M53.0683 24.2666H31.6816V26.1009H53.0683V24.2666Z" fill="#011021"/>
<path d="M73.3301 29.2285H30.3066V33.4391H73.3301V29.2285Z" fill="white"/>
<path d="M65.0749 30.4375H31.6816V32.2718H65.0749V30.4375Z" fill="#4D5763"/>
<path d="M73.3301 35.3994H30.3066V39.6101H73.3301V35.3994Z" fill="white"/>
<path d="M40.0632 36.5664H31.6836V38.4007H40.0632V36.5664Z" fill="#011021"/>
<path d="M73.3301 41.5684H30.3066V45.779H73.3301V41.5684Z" fill="white"/>
<path d="M58.1981 42.7354H31.6836V44.5697H58.1981V42.7354Z" fill="#4D5763"/>
<path d="M73.3301 47.6973H30.3066V51.9079H73.3301V47.6973Z" fill="white"/>
<path d="M62.1586 48.9062H31.6836V50.7406H62.1586V48.9062Z" fill="#011021"/>
<path d="M24.8873 25.31C24.8873 25.5602 24.6788 25.8103 24.387 25.8103C24.1369 25.8103 23.9284 25.6019 23.8867 25.3934C23.8867 25.3517 23.8867 25.31 23.8867 25.2684C23.8867 25.1433 23.8867 24.9765 23.9701 24.8515C24.0118 24.7264 24.0952 24.6013 24.2202 24.5179C24.3036 24.4763 24.387 24.4346 24.5121 24.4346C24.5537 24.4346 24.6371 24.4763 24.6371 24.5596C24.6371 24.6013 24.5954 24.6847 24.5121 24.6847C24.4287 24.6847 24.387 24.7264 24.3036 24.7264C24.2619 24.7681 24.2202 24.8098 24.1785 24.8515C24.1785 24.8515 24.1785 24.8932 24.1369 24.8932C24.1785 24.8515 24.2619 24.8515 24.3453 24.8515C24.6788 24.8098 24.8873 25.0599 24.8873 25.31ZM24.6788 25.31C24.6788 25.185 24.5537 25.0599 24.4287 25.0599C24.2619 25.0599 24.1785 25.185 24.1785 25.31C24.1785 25.4768 24.3036 25.5602 24.4287 25.5602C24.5537 25.5602 24.6788 25.4768 24.6788 25.31Z" fill="#011021"/>
<path d="M25.2207 25.1003C25.2207 24.9336 25.2624 24.7668 25.3458 24.6C25.4292 24.475 25.5542 24.3916 25.721 24.3916C25.8877 24.3916 26.0128 24.475 26.0962 24.6C26.1796 24.7251 26.2213 24.8919 26.2213 25.1003C26.2213 25.2671 26.1796 25.4338 26.0962 25.6006C26.0128 25.7257 25.8877 25.809 25.721 25.809C25.5542 25.809 25.4292 25.7257 25.3458 25.6006C25.2624 25.4338 25.2207 25.2671 25.2207 25.1003ZM26.0128 25.1003C26.0128 24.9753 25.9711 24.8085 25.9294 24.7251C25.8877 24.6417 25.8044 24.6 25.7627 24.6C25.6793 24.6 25.6376 24.6417 25.5542 24.7251C25.5125 24.8085 25.4708 24.9336 25.4708 25.1003C25.4708 25.2254 25.5125 25.3921 25.5542 25.4755C25.5959 25.5589 25.6793 25.6006 25.7627 25.6006C25.8044 25.6006 25.8877 25.5589 25.9294 25.4755C25.9711 25.3505 26.0128 25.2254 26.0128 25.1003Z" fill="#011021"/>
<path d="M26.6387 24.7258C26.6387 24.5173 26.7637 24.3506 26.9722 24.3506C27.1806 24.3506 27.3057 24.5173 27.3057 24.7258C27.3057 24.9342 27.1806 25.101 26.9722 25.101C26.7637 25.101 26.6387 24.9342 26.6387 24.7258ZM27.0973 24.7258C27.0973 24.6007 27.0139 24.5173 26.9305 24.5173C26.8471 24.5173 26.7637 24.6007 26.7637 24.7258C26.7637 24.8509 26.8471 24.9342 26.9305 24.9342C27.0556 24.9342 27.0973 24.8509 27.0973 24.7258ZM26.8471 25.6847L27.7643 24.434C27.7643 24.3923 27.806 24.3923 27.8477 24.3923C27.8894 24.3923 27.931 24.434 27.931 24.4757V24.5173L27.0139 25.768C27.0139 25.8097 26.9722 25.8097 26.9305 25.8097C26.8471 25.8097 26.8471 25.768 26.8471 25.7263V25.6847ZM27.4725 25.4762C27.4725 25.2678 27.5975 25.101 27.806 25.101C28.0144 25.101 28.1395 25.2678 28.1395 25.4762C28.1395 25.6847 28.0144 25.8514 27.806 25.8514C27.5975 25.8097 27.4725 25.643 27.4725 25.4762ZM27.9727 25.4762C27.9727 25.3511 27.8894 25.2678 27.806 25.2678C27.7226 25.2678 27.6392 25.3511 27.6392 25.4762C27.6392 25.6013 27.7226 25.6847 27.806 25.6847C27.8894 25.643 27.9727 25.5596 27.9727 25.4762Z" fill="#011021"/>
<path d="M23.9238 31.0218C23.9238 30.7716 24.1323 30.5215 24.4241 30.5215C24.6742 30.5215 24.8827 30.7299 24.9244 30.9384C24.9244 30.9801 24.9244 31.0218 24.9244 31.0634C24.9244 31.1885 24.9244 31.3553 24.841 31.4803C24.7993 31.6054 24.7159 31.7305 24.5909 31.8139C24.5075 31.8555 24.4241 31.8972 24.299 31.8972C24.2573 31.8972 24.174 31.8555 24.174 31.7722C24.174 31.7305 24.2157 31.6471 24.299 31.6471C24.3824 31.6471 24.4241 31.6054 24.5075 31.6054C24.5492 31.5637 24.5909 31.522 24.6325 31.4803C24.6325 31.4803 24.6325 31.4387 24.6742 31.4387C24.6325 31.4803 24.5492 31.4803 24.4658 31.4803C24.1323 31.522 23.9238 31.3136 23.9238 31.0218ZM24.1323 31.0218C24.1323 31.1468 24.2573 31.2719 24.3824 31.2719C24.5492 31.2719 24.6325 31.1468 24.6325 31.0218C24.6325 30.855 24.5075 30.7716 24.3824 30.7716C24.2573 30.7716 24.1323 30.8967 24.1323 31.0218Z" fill="#011021"/>
<path d="M25.2168 31.2302C25.2168 31.0634 25.2585 30.8967 25.3419 30.7299C25.4252 30.6049 25.5503 30.5215 25.7171 30.5215C25.8838 30.5215 26.0089 30.6049 26.0923 30.7299C26.1757 30.855 26.2173 31.0218 26.2173 31.2302C26.2173 31.397 26.1757 31.5637 26.0923 31.7305C26.0089 31.8555 25.8838 31.9389 25.7171 31.9389C25.5503 31.9389 25.4252 31.8555 25.3419 31.7305C25.2585 31.6054 25.2168 31.4387 25.2168 31.2302ZM26.0089 31.2302C26.0089 31.1051 25.9672 30.9384 25.9255 30.855C25.8838 30.7716 25.8005 30.7299 25.7588 30.7299C25.6754 30.7299 25.6337 30.7716 25.5503 30.855C25.5086 30.9384 25.4669 31.0634 25.4669 31.2302C25.4669 31.3553 25.5086 31.522 25.5503 31.6054C25.592 31.6888 25.6754 31.7305 25.7588 31.7305C25.8005 31.7305 25.8838 31.6888 25.9255 31.6054C25.9672 31.522 26.0089 31.397 26.0089 31.2302Z" fill="#011021"/>
<path d="M26.6328 30.8967C26.6328 30.6882 26.7579 30.5215 26.9663 30.5215C27.1748 30.5215 27.2998 30.6882 27.2998 30.8967C27.2998 31.1051 27.1748 31.2719 26.9663 31.2719C26.7579 31.2302 26.6328 31.1051 26.6328 30.8967ZM27.0914 30.8967C27.0914 30.7716 27.008 30.6882 26.9246 30.6882C26.8413 30.6882 26.7579 30.7716 26.7579 30.8967C26.7579 31.0218 26.8413 31.1051 26.9246 31.1051C27.0497 31.1051 27.0914 31.0218 27.0914 30.8967ZM26.8413 31.8555L27.7584 30.6049C27.7584 30.5632 27.8001 30.5632 27.8418 30.5632C27.8835 30.5632 27.9252 30.6049 27.9252 30.6466V30.6882L27.008 31.9389C27.008 31.9806 26.9663 31.9806 26.9246 31.9806C26.8829 31.9806 26.8413 31.9389 26.8413 31.8972C26.8413 31.8555 26.8413 31.8555 26.8413 31.8555ZM27.4666 31.6054C27.4666 31.397 27.5917 31.2302 27.8001 31.2302C28.0086 31.2302 28.1336 31.397 28.1336 31.6054C28.1336 31.8139 28.0086 31.9806 27.8001 31.9806C27.5917 31.9806 27.4666 31.8139 27.4666 31.6054ZM27.9669 31.6054C27.9669 31.4803 27.8835 31.397 27.8001 31.397C27.7167 31.397 27.6334 31.4803 27.6334 31.6054C27.6334 31.7305 27.7167 31.8139 27.8001 31.8139C27.8835 31.8139 27.9669 31.7305 27.9669 31.6054Z" fill="#011021"/>
<path d="M24.6775 37.2748C24.7609 37.3581 24.8442 37.4832 24.8442 37.6083C24.8442 37.7333 24.8026 37.8584 24.6775 37.9835C24.5941 38.0669 24.469 38.1502 24.3023 38.1502C24.1772 38.1502 24.0521 38.1085 23.9688 37.9835C23.9271 37.9418 23.9271 37.8584 23.9688 37.8167C24.0105 37.775 24.0938 37.775 24.1355 37.8167C24.1772 37.8584 24.2606 37.9001 24.344 37.9001C24.4274 37.9001 24.469 37.8584 24.5524 37.8167C24.5941 37.775 24.6358 37.6917 24.6358 37.6083C24.6358 37.5249 24.5941 37.4832 24.5524 37.3998C24.5107 37.3581 24.4274 37.3164 24.344 37.3164C24.3023 37.3164 24.3023 37.3164 24.2606 37.2748C24.2189 37.2331 24.2189 37.1497 24.2606 37.108L24.469 36.8996H24.1355C24.0938 36.8996 24.0105 36.8579 24.0105 36.7745C24.0105 36.7328 24.0521 36.6494 24.1355 36.6494H24.7192C24.8026 36.6494 24.8442 36.6911 24.8442 36.7745V36.8162C24.8442 36.8162 24.8442 36.8162 24.8442 36.8579L24.5941 37.108C24.5941 37.1914 24.6358 37.2331 24.6775 37.2748Z" fill="#011021"/>
<path d="M25.1367 37.3991C25.1367 37.2324 25.1784 37.0656 25.2618 36.8989C25.3452 36.7738 25.4702 36.6904 25.637 36.6904C25.8037 36.6904 25.9288 36.7738 26.0122 36.8989C26.0956 37.0239 26.1373 37.1907 26.1373 37.3991C26.1373 37.5659 26.0956 37.7327 26.0122 37.8994C25.9288 38.0245 25.8037 38.1079 25.637 38.1079C25.4702 38.1079 25.3452 38.0245 25.2618 37.8994C25.1784 37.7744 25.1367 37.6076 25.1367 37.3991ZM25.9288 37.3991C25.9288 37.2741 25.8871 37.1073 25.8454 37.0239C25.8037 36.9406 25.7204 36.8989 25.6787 36.8989C25.637 36.8989 25.5536 36.9406 25.4702 37.0239C25.4285 37.1073 25.3869 37.2324 25.3869 37.3991C25.3869 37.5242 25.4285 37.691 25.4702 37.7744C25.5119 37.8577 25.5953 37.8994 25.6787 37.8994C25.7204 37.8994 25.8037 37.8577 25.8454 37.7744C25.8871 37.691 25.9288 37.5659 25.9288 37.3991Z" fill="#011021"/>
<path d="M26.5547 37.0656C26.5547 36.8572 26.6798 36.6904 26.8882 36.6904C27.0966 36.6904 27.2217 36.8572 27.2217 37.0656C27.2217 37.2741 27.0966 37.4408 26.8882 37.4408C26.6798 37.3991 26.5547 37.2324 26.5547 37.0656ZM27.055 37.0656C27.055 36.9406 26.9716 36.8572 26.8882 36.8572C26.8048 36.8572 26.7214 36.9406 26.7214 37.0656C26.7214 37.1907 26.8048 37.2741 26.8882 37.2741C26.9716 37.2324 27.055 37.149 27.055 37.0656ZM26.8048 37.9828L27.722 36.7321C27.722 36.6904 27.7637 36.6904 27.8054 36.6904C27.8471 36.6904 27.8887 36.7321 27.8887 36.7738V36.8155L26.9716 38.0662C26.9716 38.1079 26.9299 38.1079 26.8882 38.1079C26.8465 38.1079 26.8048 38.0662 26.8048 38.0245C26.7631 38.0245 26.7631 38.0245 26.8048 37.9828ZM27.3885 37.7744C27.3885 37.5659 27.5135 37.3991 27.722 37.3991C27.9304 37.3991 28.0555 37.5659 28.0555 37.7744C28.0555 37.9828 27.9304 38.1496 27.722 38.1496C27.5552 38.1496 27.3885 37.9828 27.3885 37.7744ZM27.8887 37.7744C27.8887 37.6493 27.8054 37.5659 27.722 37.5659C27.6386 37.5659 27.5552 37.6493 27.5552 37.7744C27.5552 37.8994 27.6386 37.9828 27.722 37.9828C27.8471 37.9828 27.8887 37.8994 27.8887 37.7744Z" fill="#011021"/>
<path d="M24.7993 43.0274L24.299 44.2364C24.299 44.2781 24.2573 44.3198 24.2157 44.3198H24.174C24.1323 44.2781 24.0906 44.2364 24.1323 44.1947L24.5492 43.1525H24.0489C24.0072 43.1525 23.9238 43.1108 23.9238 43.0274C23.9238 42.9857 23.9655 42.9023 24.0489 42.9023H24.7576H24.7993C24.7993 42.944 24.7993 42.9857 24.7993 43.0274Z" fill="#011021"/>
<path d="M25.0488 43.5681C25.0488 43.4013 25.0905 43.2346 25.1739 43.0678C25.2573 42.9428 25.3823 42.8594 25.5491 42.8594C25.7159 42.8594 25.8409 42.9428 25.9243 43.0678C26.0077 43.1929 26.0494 43.3596 26.0494 43.5681C26.0494 43.7349 26.0077 43.9016 25.9243 44.0684C25.8409 44.1934 25.7159 44.2768 25.5491 44.2768C25.3823 44.2768 25.2573 44.1934 25.1739 44.0684C25.0905 43.9016 25.0488 43.7349 25.0488 43.5681ZM25.8409 43.5681C25.8409 43.443 25.7992 43.2763 25.7576 43.1929C25.7159 43.1095 25.6325 43.0678 25.5908 43.0678C25.5491 43.0678 25.4657 43.1095 25.3823 43.1929C25.3407 43.2763 25.299 43.4013 25.299 43.5681C25.299 43.6932 25.3407 43.8599 25.3823 43.9433C25.424 44.0267 25.5074 44.0684 25.5908 44.0684C25.6742 44.0684 25.7159 44.0267 25.7576 43.9433C25.7992 43.8182 25.8409 43.6932 25.8409 43.5681Z" fill="#011021"/>
<path d="M26.4648 43.1936C26.4648 42.9851 26.5899 42.8184 26.7984 42.8184C27.0068 42.8184 27.1319 42.9851 27.1319 43.1936C27.1319 43.402 27.0068 43.5688 26.7984 43.5688C26.5899 43.5688 26.4648 43.402 26.4648 43.1936ZM26.9651 43.1936C26.9651 43.0685 26.8817 42.9851 26.7984 42.9851C26.715 42.9851 26.6316 43.0685 26.6316 43.1936C26.6316 43.3186 26.715 43.402 26.7984 43.402C26.8817 43.402 26.9651 43.3186 26.9651 43.1936ZM26.6733 44.1524L27.5905 42.9017C27.5905 42.86 27.6321 42.8601 27.6738 42.8601C27.7155 42.8601 27.7572 42.9017 27.7572 42.9434V42.9851L26.84 44.2358C26.84 44.2775 26.7984 44.2775 26.7567 44.2775C26.715 44.2775 26.6733 44.2358 26.6733 44.1941V44.1524ZM27.2986 43.944C27.2986 43.7355 27.4237 43.5688 27.6321 43.5688C27.8406 43.5688 27.9657 43.7355 27.9657 43.944C27.9657 44.1524 27.8406 44.3192 27.6321 44.3192C27.4654 44.2775 27.2986 44.1107 27.2986 43.944ZM27.7989 43.944C27.7989 43.8189 27.7155 43.7355 27.6321 43.7355C27.5488 43.7355 27.4654 43.8189 27.4654 43.944C27.4654 44.069 27.5488 44.1524 27.6321 44.1524C27.7572 44.1524 27.7989 44.0274 27.7989 43.944Z" fill="#011021"/>
<path d="M24.8443 49.9491C24.8443 50.1992 24.6358 50.4494 24.344 50.4494C24.0939 50.4494 23.8438 50.2409 23.8438 49.9491C23.8438 49.7823 23.9271 49.6156 24.0522 49.5322C24.0105 49.4905 23.9688 49.4071 23.9688 49.3238C23.9688 49.157 24.1356 48.9902 24.3023 48.9902C24.4691 48.9902 24.6358 49.157 24.6358 49.3238C24.6358 49.4071 24.5942 49.4488 24.5525 49.5322C24.7609 49.6573 24.8443 49.7823 24.8443 49.9491ZM24.6358 49.9491C24.6358 49.824 24.5108 49.699 24.3857 49.699C24.2606 49.699 24.1356 49.824 24.1356 49.9491C24.1356 50.0742 24.2606 50.1992 24.3857 50.1992C24.5108 50.1992 24.6358 50.0742 24.6358 49.9491ZM24.2606 49.3654C24.2606 49.4071 24.3023 49.4905 24.3857 49.4905C24.4274 49.4905 24.5108 49.4488 24.5108 49.3654C24.5108 49.3237 24.4691 49.2404 24.3857 49.2404C24.3023 49.2404 24.2606 49.2821 24.2606 49.3654Z" fill="#011021"/>
<path d="M25.1777 49.74C25.1777 49.5732 25.2194 49.4065 25.3028 49.2397C25.3862 49.1146 25.5112 49.0312 25.678 49.0312C25.8448 49.0312 25.9698 49.1146 26.0532 49.2397C26.1366 49.3648 26.1783 49.5315 26.1783 49.74C26.1783 49.9067 26.1366 50.0735 26.0532 50.2402C25.9698 50.3653 25.8448 50.4487 25.678 50.4487C25.5112 50.4487 25.3862 50.3653 25.3028 50.2402C25.2194 50.0735 25.1777 49.9067 25.1777 49.74ZM25.9698 49.74C25.9698 49.6149 25.9281 49.4481 25.8865 49.3648C25.8448 49.2814 25.7614 49.2397 25.7197 49.2397C25.678 49.2397 25.5946 49.2814 25.5113 49.3648C25.4696 49.4481 25.4279 49.5732 25.4279 49.74C25.4279 49.865 25.4696 50.0318 25.5113 50.1152C25.5529 50.1986 25.6363 50.2402 25.7197 50.2402C25.7614 50.2402 25.8448 50.1986 25.8865 50.1152C25.9281 49.9901 25.9698 49.865 25.9698 49.74Z" fill="#011021"/>
<path d="M26.5957 49.3654C26.5957 49.157 26.7208 48.9902 26.9292 48.9902C27.1377 48.9902 27.2627 49.157 27.2627 49.3654C27.2627 49.5739 27.1377 49.7406 26.9292 49.7406C26.7208 49.7406 26.5957 49.5739 26.5957 49.3654ZM27.096 49.3654C27.096 49.2404 27.0126 49.157 26.9292 49.157C26.8458 49.157 26.7625 49.2404 26.7625 49.3654C26.7625 49.4905 26.8458 49.5739 26.9292 49.5739C27.0126 49.5739 27.096 49.4905 27.096 49.3654ZM26.8042 50.3243L27.7213 49.0736C27.7213 49.0319 27.763 49.0319 27.8047 49.0319C27.8464 49.0319 27.8881 49.0736 27.8881 49.1153V49.157L26.9709 50.4077C26.9709 50.4494 26.9292 50.4494 26.8875 50.4494C26.8458 50.4494 26.8042 50.4077 26.8042 50.366C26.8042 50.3243 26.8042 50.3243 26.8042 50.3243ZM27.4295 50.0742C27.4295 49.8657 27.5546 49.699 27.763 49.699C27.9715 49.699 28.0965 49.8657 28.0965 50.0742C28.0965 50.2826 27.9715 50.4494 27.763 50.4494C27.5962 50.4494 27.4295 50.2826 27.4295 50.0742ZM27.9298 50.0742C27.9298 49.9491 27.8464 49.8657 27.763 49.8657C27.6796 49.8657 27.5963 49.9491 27.5963 50.0742C27.5963 50.1992 27.6796 50.2826 27.763 50.2826C27.8881 50.2826 27.9298 50.1992 27.9298 50.0742Z" fill="#011021"/>
<path d="M97.963 15.4393C96.8791 13.4382 94.4611 12.4376 91.8764 12.3126C89.2916 12.1875 86.0816 12.6878 84.8309 16.5232C83.8303 19.6499 84.0805 22.9851 83.205 26.5287C82.3295 30.0723 75.9927 37.7014 81.7042 43.538C86.832 48.7908 99.9641 48.2489 102.257 40.5363C104.091 34.408 97.7963 26.8622 97.5878 24.2358C97.3794 21.6093 99.1304 17.6488 97.963 15.4393Z" fill="#011021"/>
<path d="M98.2122 19.1914C97.837 20.9841 97.6702 22.8184 98.0038 24.6944C98.0871 25.153 98.2539 25.6116 98.4623 26.0702C98.6708 26.4871 98.9209 26.904 99.1294 27.3208C99.588 28.1546 100.088 28.9467 100.505 29.7805C101.381 31.4064 102.048 33.1574 102.381 34.95C102.715 36.7427 102.673 38.577 102.298 40.3696C102.59 39.4942 102.756 38.6187 102.881 37.7015C102.965 36.7844 102.923 35.8672 102.798 34.95C102.548 33.1157 101.881 31.323 101.005 29.6138C100.547 28.78 100.088 27.9462 99.588 27.1541C99.0877 26.362 98.5874 25.5699 98.379 24.6944C98.1288 23.8189 98.0871 22.9018 98.0454 22.0263C98.0871 21.0257 98.1288 20.1086 98.2122 19.1914Z" fill="#011021"/>
<path d="M84.3712 19.2334C83.9543 21.0677 83.6625 22.8604 83.1622 24.653C82.9121 25.5285 82.6203 26.404 82.2867 27.2795C81.9532 28.1133 81.453 28.9054 80.9944 29.7391C80.5358 30.5729 80.1189 31.4067 79.7437 32.2822C79.3685 33.1577 79.0767 34.0332 78.9099 34.992C78.7431 35.9092 78.6598 36.868 78.7848 37.8269C78.9516 38.7857 79.2851 39.6612 79.7854 40.495C79.3685 39.6195 79.0767 38.7441 79.035 37.8269C78.9933 36.9097 79.0767 35.9926 79.3268 35.1171C79.7854 33.3244 80.6192 31.6569 81.4946 30.031C81.9115 29.1972 82.4118 28.4051 82.787 27.5296C83.1205 26.6541 83.4124 25.737 83.6208 24.8198C83.9543 22.9438 84.2045 21.1094 84.3712 19.2334Z" fill="#011021"/>
<path d="M118.642 161.479C117.683 161.771 90.1677 161.437 89.1254 160.77C88.7085 160.52 88.5418 156.518 88.4584 151.64C88.4584 151.599 88.4584 151.557 88.4584 151.474C88.4584 150.473 88.4167 149.431 88.4167 148.389C88.4167 148.263 88.4167 148.097 88.4167 147.972C88.375 140.968 88.5001 133.714 88.5001 133.714L106.885 133.881L106.343 148.013L106.301 148.555L106.176 151.474V151.765C106.176 151.765 116.64 156.601 117.724 157.477C118.808 158.436 119.6 161.187 118.642 161.479Z" fill="#FFD596"/>
<path d="M110.387 153.725C110.303 153.683 110.262 153.683 110.262 153.642C110.262 153.642 110.303 153.683 110.387 153.725Z" fill="#3E8DE3"/>
<path d="M118.641 161.479C117.683 161.771 90.1676 161.437 89.1253 160.77C88.7918 160.562 88.5834 157.352 88.5 153.225C93.5444 154.267 113.055 158.227 113.597 156.56C113.805 155.893 112.138 154.767 111.096 154.142C113.972 155.518 117.182 157.102 117.724 157.56C118.808 158.436 119.6 161.187 118.641 161.479Z" fill="#4D5763"/>
<path d="M82.873 54.5029C82.873 54.5029 87.0003 100.987 87.6673 104.53C87.8341 105.322 87.9175 109.741 88.0008 115.37C88.1259 127.71 88.0425 149.93 88.0425 149.93H107.428C107.428 149.93 106.844 111.409 106.011 104.322C105.135 97.2346 99.6739 54.5029 99.6739 54.5029H82.873Z" fill="#011021"/>
<path d="M106.553 146.555C103.509 146.471 104.385 146.471 101.383 146.43C99.8824 146.43 90.1687 146.346 88.793 146.555C88.7513 146.555 88.7513 146.596 88.793 146.596C90.1687 146.805 99.9241 146.721 101.383 146.721C104.427 146.68 103.551 146.68 106.553 146.596C106.594 146.638 106.594 146.555 106.553 146.555Z" fill="#072241"/>
<path d="M91.7112 124.542C91.6695 121.749 91.6695 118.914 91.6278 116.121C91.6278 113.411 91.6278 110.659 91.5027 107.95C91.2526 102.447 90.127 97.0269 89.3349 91.5656C88.5428 86.1043 87.8758 80.643 87.2921 75.1816C86.6251 69.0533 86.0414 62.8832 85.3744 56.7549C85.3744 56.7132 85.291 56.7132 85.291 56.7549C86.2082 67.7192 87.2087 78.7252 88.7512 89.6062C89.1264 92.316 89.5433 95.0258 90.0019 97.7356C90.4605 100.487 90.9191 103.197 91.1275 105.99C91.336 108.7 91.3777 111.41 91.4194 114.12C91.4611 116.913 91.4611 119.748 91.5027 122.541C91.5444 128.794 91.6278 138.383 91.6695 144.636C91.6695 144.761 91.8779 144.761 91.8363 144.636C91.7946 139.008 91.7529 130.087 91.7112 124.542Z" fill="#072241"/>
<path d="M78.7871 54.5036C78.7871 54.5036 86.9999 100.987 87.667 104.531C87.8337 105.323 87.9171 109.742 88.0005 115.37L97.2555 54.4619H78.7871V54.5036Z" fill="#072241"/>
<path d="M69.4465 162.979C68.4877 162.729 45.6419 147.346 45.1416 146.22C44.9332 145.803 46.9759 142.343 49.6024 138.216C49.6441 138.174 49.6441 138.132 49.6857 138.09C50.2277 137.257 50.7697 136.381 51.3533 135.506C51.4367 135.381 51.5201 135.256 51.6035 135.131C55.3972 129.252 59.4828 123.249 59.4828 123.249L74.7828 133.505L66.57 145.011L66.2365 145.469L64.5272 147.846L64.3604 148.096C64.3604 148.096 70.4471 157.893 70.864 159.185C71.2392 160.478 70.4054 163.271 69.4465 162.979Z" fill="#FFD596"/>
<path d="M67.1527 152.14C67.111 152.098 67.111 152.056 67.111 152.015C67.0693 152.056 67.111 152.098 67.1527 152.14Z" fill="#3E8DE3"/>
<path d="M69.4468 162.979C68.488 162.729 45.6422 147.346 45.1419 146.22C44.9751 145.845 46.4343 143.26 48.477 139.967C51.6454 142.968 67.0288 157.435 68.4046 156.267C68.6964 156.017 68.5713 155.35 68.3212 154.6C69.5719 156.726 70.6975 158.644 70.8643 159.186C71.2395 160.478 70.4057 163.271 69.4468 162.979Z" fill="#4D5763"/>
<path d="M66.2792 148.096L49.7285 136.173C49.7285 136.173 71.1152 107.616 71.2403 104.99C71.3653 101.112 73.2414 85.062 74.8256 72.0965C74.8256 72.0965 71.8656 65.051 77.4103 54.4619H99.6725C99.6725 54.4619 98.1716 64.5508 95.6286 70.9709C95.6286 70.9709 93.6692 71.5546 90.6675 73.2222C90.6675 73.2222 88.8332 104.906 88.2912 108.491C86.8321 117.955 66.2792 148.096 66.2792 148.096Z" fill="#011021"/>
<path d="M67.4468 144.094C64.9871 142.301 65.7375 142.801 63.2778 141.009C62.0688 140.133 54.1478 134.505 52.8972 133.88C52.8555 133.88 52.8555 133.922 52.8555 133.922C53.856 134.922 61.8604 140.425 63.1111 141.259C65.6124 142.968 64.9037 142.468 67.4051 144.135C67.4468 144.177 67.4885 144.135 67.4468 144.094Z" fill="#072241"/>
<path d="M96.4633 70.5533C94.4622 71.262 92.5028 72.2209 90.6685 73.2631C90.5851 73.3048 90.6268 73.4299 90.7102 73.3882C92.6696 72.5544 94.6707 71.7623 96.5467 70.8034C96.7135 70.7201 96.6301 70.5116 96.4633 70.5533Z" fill="#072241"/>
<path d="M97.087 57.1709C97.087 57.0876 96.9619 57.0876 96.9619 57.1709C96.9619 59.5055 96.8368 61.5066 96.6284 63.6745C96.545 64.675 95.7112 70.2197 94.0019 69.8445C93.7101 69.7611 93.5434 69.4693 93.5017 69.0524C93.46 68.5105 93.6267 67.8851 93.7518 67.3432C93.9603 66.1758 94.0853 65.0085 94.2104 63.8412C94.3772 61.6317 94.4188 59.4639 94.127 57.2543C94.127 57.1709 94.0019 57.1709 94.0019 57.2543C94.0019 60.2976 93.9186 63.341 93.46 66.3426C93.2515 67.8017 92.5011 69.9696 94.0436 70.178C95.5861 70.3865 96.5867 66.7595 96.7535 65.759C97.2954 62.9658 97.2954 59.9641 97.087 57.1709Z" fill="#072241"/>
<path d="M94.0444 69.9691C93.8776 70.3443 93.7526 70.7195 93.6692 71.1364C93.5858 71.4282 93.4607 71.7617 93.5024 72.0952C93.5024 72.1369 93.5858 72.1786 93.6275 72.1369C93.8359 71.8868 93.9193 71.5116 94.0444 71.2198C94.1695 70.8446 94.3362 70.511 94.4196 70.1358C94.503 69.844 94.1278 69.7189 94.0444 69.9691Z" fill="#072241"/>
<path d="M91.709 33.7822C94.3771 37.3258 101.589 47.4564 106.801 47.0812C111.261 46.7893 120.266 43.7043 122.101 42.8288C125.477 41.2029 120.183 31.531 118.098 32.2814C114.805 33.4487 110.219 36.7005 106.717 37.2007C105.3 37.4092 102.131 34.3659 94.1687 30.9473C91.0837 29.6966 89.833 31.3225 91.709 33.7822Z" fill="#FFD596"/>
<path d="M121.848 29.3633C123.682 29.0298 125.725 28.4878 127.642 28.8213C129.56 29.1549 130.769 31.948 130.644 32.6568C130.519 33.3655 129.102 37.7846 127.184 37.4927C125.266 37.2009 126.975 33.9075 126.975 33.4906C126.975 33.0737 126.975 32.5734 126.6 32.5317C126.225 32.5317 119.43 34.5328 119.43 34.5328L121.848 29.3633Z" fill="#FFD596"/>
<path d="M121.934 29.6134C122.059 29.6134 127.479 28.4044 129.396 28.7379C131.314 29.0714 132.523 31.8646 132.398 32.5733C132.273 33.282 130.856 37.7011 128.938 37.4093C127.02 37.1175 128.729 33.824 128.729 33.4071C128.729 32.9902 128.729 32.4899 128.354 32.4482C127.979 32.4482 121.184 34.4493 121.184 34.4493L121.934 29.6134Z" fill="#FFD596"/>
<path d="M128.314 37.076C128.105 36.7424 128.147 36.2839 128.188 35.9086C128.188 35.4918 128.314 35.0749 128.439 34.6997C128.564 34.3661 128.772 34.0326 128.856 33.6991C128.939 33.3656 128.856 32.9487 128.73 32.6569C128.605 32.365 128.314 32.4067 128.063 32.4484C127.688 32.5318 127.313 32.6569 126.938 32.7402C126.563 32.8653 126.146 32.9904 125.77 33.1155C125.354 33.2405 124.937 33.3656 124.561 33.574C124.52 33.574 124.561 33.6157 124.561 33.6157C124.895 33.5323 125.27 33.449 125.604 33.3239C125.979 33.1988 126.396 33.1155 126.771 32.9904C127.146 32.907 127.48 32.7819 127.855 32.6986C127.98 32.6569 128.23 32.5735 128.397 32.6152C128.522 32.6569 128.564 33.0321 128.564 33.1571C128.605 33.5323 128.48 33.8242 128.355 34.1994C128.188 34.5329 128.063 34.8664 127.98 35.1999C127.897 35.5334 127.855 35.867 127.897 36.2005C127.938 36.534 128.105 36.7841 128.23 37.076C128.272 37.1593 128.355 37.1176 128.314 37.076Z" fill="#F6C172"/>
<path d="M115.096 33.6989C115.096 33.6989 121.141 29.6967 122.433 28.9046C124.934 27.3204 134.898 24.9441 136.191 25.0275C137.525 25.1109 137.566 27.8207 130.813 29.6134C127.227 30.5722 126.352 32.3649 126.268 33.4488C126.185 34.5327 126.852 36.6589 128.645 36.8673C130.437 37.1175 131.98 34.6578 133.689 34.6578C135.357 34.6161 133.814 37.451 132.397 38.9935C130.979 40.536 128.645 41.6616 127.019 41.9951C125.393 42.3286 120.307 43.6627 120.307 43.6627L115.096 33.6989Z" fill="#FFD596"/>
<path d="M131.02 35.9908C130.27 36.4077 129.394 36.9496 128.519 36.8663C127.602 36.7412 127.102 36.0742 126.81 35.2821C126.518 34.4483 126.393 33.5728 126.726 32.739C127.018 31.9886 127.602 31.3633 128.269 30.9464C129.103 30.4044 130.02 30.0292 130.937 29.6957C130.979 29.6957 130.937 29.6123 130.895 29.6123C130.02 29.8624 127.31 30.4878 126.434 32.6556C126.101 33.5311 126.226 34.4066 126.56 35.2404C126.851 35.9908 127.31 36.7829 128.185 36.9913C129.228 37.2415 130.27 36.5328 131.104 35.9908C131.104 35.9908 131.062 35.9491 131.02 35.9908Z" fill="#F6C172"/>
<path d="M114.639 33.4499L118.85 45.2898C118.85 45.2898 109.345 48.3331 105.134 47.4576C100.923 46.5821 94.4616 37.7856 91.6267 33.9919C88.7919 30.1982 91.3766 29.2393 96.1709 31.5739C100.965 33.9502 106.135 36.9519 106.552 36.9519C107.052 36.9935 114.639 33.4499 114.639 33.4499Z" fill="#3E8DE3"/>
<path d="M112.555 34.7442C112.638 35.2027 112.805 35.703 112.93 36.1616C113.055 36.6202 113.18 37.1205 113.347 37.579C113.597 38.4962 113.93 39.3717 114.222 40.2889C114.848 42.0815 115.473 43.8741 116.265 45.6251C116.265 45.6668 116.348 45.6251 116.348 45.5834C115.765 43.7491 115.098 41.9564 114.472 40.1221C114.181 39.2049 113.847 38.3294 113.555 37.4123C113.388 36.9537 113.222 36.5368 113.097 36.0782C112.93 35.6196 112.847 35.1611 112.638 34.7442C112.596 34.7025 112.555 34.7025 112.555 34.7442Z" fill="#011021"/>
<path d="M100.423 57.7534C100.423 57.7534 91.6269 59.8379 74.9512 58.3787C74.9512 58.3787 81.4547 37.5757 86.7076 31.9476C89.0839 29.4046 91.4185 29.7798 93.4196 31.4474C93.9199 31.8643 100.048 39.6185 100.548 42.3283C101.007 44.7046 99.0477 47.3727 99.0477 47.3727L100.423 57.7534Z" fill="#CAD3DD"/>
<path d="M93.7519 39.369C93.7936 39.6609 93.7936 39.9527 93.7519 40.2862C93.6268 39.9944 93.5434 39.7026 93.5018 39.4107C93.4601 39.1189 93.4601 38.8271 93.5018 38.4936C93.6268 38.7854 93.6685 39.0772 93.7519 39.369ZM93.877 53.4184C93.8353 53.7102 93.8353 54.0437 93.877 54.3356C93.9186 54.6274 94.002 54.9192 94.1271 55.211C94.1688 54.9192 94.1688 54.5857 94.1271 54.2939C94.0854 54.002 94.0437 53.7102 93.877 53.4184ZM98.2127 56.1282C98.171 56.42 98.171 56.7535 98.2127 57.0454C98.2544 57.3372 98.3377 57.629 98.4628 57.9208C98.5045 57.629 98.5045 57.2955 98.4628 57.0037C98.4211 56.6702 98.3377 56.3783 98.2127 56.1282ZM84.205 43.7881C84.1633 44.08 84.1633 44.4135 84.205 44.7053C84.2467 44.9971 84.3301 45.2889 84.4551 45.5808C84.4968 45.2889 84.4968 44.9554 84.4551 44.6636C84.4135 44.3718 84.3301 44.08 84.205 43.7881ZM98.5045 46.8315C98.4628 47.1233 98.4628 47.4568 98.5045 47.7486C98.5462 48.0405 98.6296 48.3323 98.7546 48.6241C98.7963 48.3323 98.7963 47.9988 98.7546 47.7069C98.7129 47.4151 98.6296 47.1233 98.5045 46.8315ZM88.2072 41.3285C88.499 41.3701 88.8325 41.3701 89.1244 41.3285C89.4162 41.2868 89.708 41.2034 89.9998 41.0783C89.708 41.0366 89.3745 41.0366 89.0827 41.0783C88.7908 41.12 88.499 41.2034 88.2072 41.3285ZM82.996 50.1249C83.2878 50.1666 83.6214 50.1666 83.9132 50.1249C84.205 50.0832 84.4968 49.9999 84.7887 49.8748C84.4968 49.8331 84.1633 49.8331 83.8715 49.8748C83.5797 49.9582 83.2878 49.9999 82.996 50.1249ZM91.6674 49.4162C91.9592 49.4579 92.2928 49.4579 92.5846 49.4162C92.8764 49.3745 93.1682 49.2911 93.4601 49.1661C93.1682 49.1244 92.8347 49.1244 92.5429 49.1661C92.2094 49.2078 91.9176 49.2911 91.6674 49.4162ZM75.9922 57.504C76.284 57.5456 76.6175 57.5456 76.9094 57.504C77.2012 57.4623 77.493 57.3789 77.7848 57.2538C77.493 57.2121 77.1595 57.2121 76.8677 57.2538C76.5342 57.2955 76.2423 57.3789 75.9922 57.504ZM91.584 32.0734C91.8759 32.1151 92.2094 32.1151 92.5012 32.0734C92.793 32.0317 93.0849 31.9483 93.3767 31.8233C93.0849 31.7816 92.7513 31.7816 92.4595 31.8233C92.1677 31.8649 91.8759 31.9483 91.584 32.0734ZM88.6658 33.6576C88.4156 33.8243 88.2072 34.0745 88.0404 34.3246C87.8737 34.5748 87.7069 34.8249 87.5819 35.1167C87.832 34.95 88.0404 34.6998 88.2072 34.4497C88.374 34.1996 88.5407 33.9494 88.6658 33.6576ZM80.7865 44.9137C80.5363 45.0805 80.3279 45.3306 80.1611 45.5808C79.9944 45.8309 79.8276 46.081 79.7025 46.3729C79.9527 46.2061 80.1611 45.956 80.3279 45.7058C80.5363 45.4557 80.7031 45.2056 80.7865 44.9137ZM95.7947 43.8715C95.5445 44.0383 95.3361 44.2884 95.1693 44.5385C95.0026 44.7887 94.8358 45.0388 94.7107 45.3306C94.9609 45.1639 95.1693 44.9137 95.3361 44.6636C95.5028 44.4135 95.6696 44.1633 95.7947 43.8715ZM88.2906 52.2511C88.0404 52.4178 87.832 52.668 87.6652 52.9181C87.4985 53.1683 87.3317 53.4184 87.2066 53.7102C87.4568 53.5435 87.6652 53.2933 87.832 53.0432C88.0404 52.793 88.1655 52.5429 88.2906 52.2511ZM96.5868 35.4086C96.5034 35.4919 96.4617 35.5336 96.42 35.617C96.2533 35.8671 96.0865 36.1173 95.9614 36.4091C96.2116 36.2423 96.42 35.9922 96.5868 35.7421C96.6285 35.7004 96.6702 35.617 96.7118 35.5753C96.6702 35.5336 96.6285 35.4919 96.5868 35.4086ZM98.7546 41.7037C98.5879 41.4535 98.3377 41.2451 98.0876 41.0783C97.8375 40.9116 97.5873 40.7448 97.2955 40.6197C97.4623 40.8699 97.7124 41.0783 97.9625 41.2451C98.2127 41.4535 98.4628 41.6203 98.7546 41.7037ZM79.7025 52.1677C79.5358 51.9176 79.2857 51.7091 79.0355 51.5424C78.7854 51.3756 78.5352 51.2088 78.2434 51.0838C78.4102 51.3339 78.6603 51.5424 78.9104 51.7091C79.1606 51.8759 79.4107 52.0426 79.7025 52.1677ZM99.1715 52.5012C99.0048 52.2511 98.7546 52.0426 98.5045 51.8759C98.2544 51.7091 98.0042 51.5424 97.7124 51.4173C97.8791 51.6674 98.1293 51.8759 98.3794 52.0426C98.6296 52.2094 98.8797 52.3762 99.1715 52.5012ZM85.7058 39.4941C85.5391 39.244 85.2889 39.0355 85.0388 38.8688C84.7887 38.702 84.5385 38.5353 84.2467 38.4102C84.4135 38.6603 84.6636 38.8688 84.9137 39.0355C85.1639 39.2023 85.414 39.369 85.7058 39.4941ZM91.2505 58.1293C91.0838 57.8792 90.8336 57.6707 90.5835 57.504C90.3334 57.3372 90.0832 57.1704 89.7914 57.0454C89.9582 57.2955 90.2083 57.504 90.4584 57.6707C90.7086 57.8792 90.9587 58.0042 91.2505 58.1293ZM89.5829 46.6647C89.4162 46.4146 89.1661 46.2061 88.9159 46.0394C88.6658 45.8726 88.4156 45.7058 88.1238 45.5808C88.2906 45.8309 88.5407 46.0394 88.7908 46.2061C89.041 46.4146 89.2911 46.5396 89.5829 46.6647ZM83.3295 55.8781C83.1628 55.6279 82.9126 55.4195 82.6625 55.2527C82.4124 55.086 82.1622 54.9192 81.8704 54.7941C82.0372 55.0443 82.2873 55.2527 82.5374 55.4195C82.7876 55.5862 83.0377 55.753 83.3295 55.8781Z" fill="#C7C7C7"/>
<path d="M88.4581 30.6133L92.627 61.6719H73.4082C73.4082 61.6719 77.994 41.8694 84.9979 33.2814C86.9573 30.9051 88.4581 30.6133 88.4581 30.6133Z" fill="#3E8DE3"/>
<path d="M93.6289 31.6133C93.6289 31.6133 96.5889 39.4509 97.7145 46.1212C98.9652 53.4169 99.6322 60.6291 99.6322 60.6291L100.966 59.5869L99.1319 47.3719C99.1319 47.3719 100.925 45.2874 100.633 42.1607C100.424 39.6593 93.6289 31.6133 93.6289 31.6133Z" fill="#3E8DE3"/>
<path d="M99.2566 39.0764C98.8814 38.5345 98.5062 37.9508 98.131 37.4505C98.0476 37.2421 98.0059 37.0753 97.9226 36.9086C97.7975 36.6584 97.6724 36.3666 97.5057 36.1165C97.589 36.4083 97.6724 36.6584 97.7975 36.9503C97.8392 37.0337 97.8809 37.117 97.8809 37.1587C97.5057 36.6168 97.0888 36.1165 96.6719 35.6162C97.4223 36.8252 98.2561 38.0342 99.0482 39.2432C99.4234 39.8268 99.7986 40.4522 100.132 41.1192C100.215 41.3277 100.299 41.5361 100.382 41.7446C100.549 42.2865 100.841 43.4121 100.215 45.1214C100.007 45.7051 99.8403 46.2887 99.5484 46.8307C99.5068 46.8724 99.5901 46.9141 99.5901 46.8724C99.882 46.3304 100.132 45.7467 100.382 45.1631C100.591 44.6211 100.716 43.9958 100.757 43.3704C100.883 41.5361 100.007 40.4105 99.2566 39.0764Z" fill="#2D6DB3"/>
<path d="M88.6219 30.8652C88.7053 31.3238 90.8315 34.242 92.8743 34.1587C93.5413 34.117 93.583 30.49 93.583 30.49L93.6664 30.2399L94.5418 26.4878L90.1228 23.5695L89.4974 23.1943C89.4974 23.1943 89.3307 24.2366 89.1222 25.5289C89.1222 25.5706 89.1222 25.654 89.0805 25.6957C89.0805 25.7791 89.0388 25.8208 89.0388 25.9041C88.9972 26.1126 88.9555 26.2794 88.9555 26.4878C88.9138 26.6546 88.9138 26.7796 88.8721 26.9464C88.8304 27.1131 88.8304 27.2799 88.8304 27.405C88.6219 29.0309 88.5803 30.6984 88.6219 30.8652Z" fill="#FFD596"/>
<path d="M89.0801 25.5289C90.1223 28.5306 92.4986 29.823 93.6242 30.2399L94.4997 26.4878L90.0806 23.5695L89.4553 23.1943C89.4553 23.1943 89.2885 24.2366 89.0801 25.5289Z" fill="#F6C172"/>
<path d="M99.5891 19.5253C100.923 26.1957 97.0877 27.7382 95.6703 28.03C94.3779 28.2801 89.8755 29.0305 87.8744 22.527C85.8316 16.0234 88.4997 13.3136 91.4597 12.5632C94.3779 11.8128 98.255 12.855 99.5891 19.5253Z" fill="#FFD596"/>
<path d="M98.4198 18.5664C98.2531 18.5664 98.128 18.5664 97.9612 18.5664C97.7945 18.5664 97.6277 18.5664 97.5027 18.4414C97.4193 18.3997 97.4193 18.2329 97.461 18.1496C97.586 17.9411 97.7945 17.8994 98.0029 17.8994C98.2531 17.8994 98.4198 17.9411 98.5866 18.1079C98.7533 18.2746 98.6283 18.5248 98.4198 18.5664Z" fill="#011021"/>
<path d="M93.8348 19.3583C94.0015 19.3166 94.1266 19.2333 94.2517 19.1916C94.4184 19.1082 94.5435 19.0665 94.6686 18.9414C94.7102 18.8581 94.7102 18.733 94.6269 18.6496C94.4601 18.5245 94.21 18.5245 94.0015 18.6079C93.7931 18.6913 93.6263 18.8164 93.5012 19.0248C93.4179 19.1916 93.6263 19.4417 93.8348 19.3583Z" fill="#011021"/>
<path d="M95.1681 20.8164L95.1264 20.8581C95.2515 21.3167 95.2932 21.8586 94.918 22.0671V22.1088C95.4182 21.942 95.3349 21.2333 95.1681 20.8164Z" fill="#011021"/>
<path d="M94.6691 20.4419C93.9187 20.5253 94.1688 22.0261 94.8775 21.9427C95.5446 21.8177 95.2944 20.3585 94.6691 20.4419Z" fill="#011021"/>
<path d="M94.4172 20.5674C94.2921 20.6925 94.2087 20.8592 94.042 20.9009C93.8752 20.9426 93.7084 20.8175 93.5417 20.6925C93.5417 20.6925 93.5 20.6925 93.5 20.7341C93.5417 21.026 93.7084 21.2761 94.0003 21.2761C94.2921 21.2761 94.4589 20.9843 94.4589 20.6925C94.5005 20.5674 94.4589 20.5257 94.4172 20.5674Z" fill="#011021"/>
<path d="M97.7142 20.3193C97.7142 20.2776 97.7559 20.3193 97.7142 20.3193C97.7976 20.8196 97.9643 21.3199 98.3812 21.4032V21.4449C97.8809 21.4449 97.6725 20.7362 97.7142 20.3193Z" fill="#011021"/>
<path d="M98.0485 19.7769C98.7572 19.6102 99.049 21.0693 98.382 21.2361C97.715 21.3611 97.4231 19.902 98.0485 19.7769Z" fill="#011021"/>
<path d="M98.3796 19.8178C98.5047 19.8595 98.6714 19.9846 98.7965 19.9846C98.9633 19.9429 99.0467 19.7761 99.13 19.6094H99.1717C99.2551 19.9012 99.2134 20.193 98.9216 20.3181C98.6714 20.4015 98.463 20.193 98.3379 19.9429C98.2962 19.8595 98.2962 19.7761 98.3796 19.8178Z" fill="#011021"/>
<path d="M95.752 24.5693C95.877 24.6527 96.0021 24.8195 96.1689 24.7778C96.3356 24.7778 96.5024 24.6944 96.6691 24.611C96.6691 24.611 96.7108 24.611 96.7108 24.6527C96.6274 24.8612 96.3773 24.9862 96.1689 24.9862C95.9604 24.9862 95.8353 24.8195 95.752 24.611C95.7103 24.5693 95.7103 24.5693 95.752 24.5693Z" fill="#011021"/>
<path d="M97.3784 23.5271C97.3784 23.5271 97.17 24.0274 96.7948 24.2775C96.6697 24.3609 96.503 24.4443 96.2945 24.4443C95.9193 24.4443 95.8359 24.1108 95.8359 23.8189C95.8359 23.5688 95.8776 23.3604 95.8776 23.3604C95.8776 23.3604 96.503 23.6939 97.3784 23.5271Z" fill="#011021"/>
<path d="M96.7948 24.2775C96.6697 24.3609 96.503 24.4442 96.2945 24.4442C95.9193 24.4442 95.8359 24.1107 95.8359 23.8189C96.2111 23.7355 96.6697 23.9023 96.7948 24.2775Z" fill="#DE608A"/>
<path d="M97.3794 22.6098C97.3794 22.6098 97.5879 23.2768 97.6296 23.6104C97.6296 23.652 97.5462 23.652 97.4628 23.6937C96.9208 23.9022 96.2955 23.7771 95.8786 23.4019C95.8369 23.3602 95.8786 23.3185 95.9203 23.3602C96.3789 23.6104 96.8791 23.6104 97.3794 23.527C97.3794 23.4436 96.9625 22.4014 97.0042 22.4014C97.171 22.3597 97.5462 22.4014 97.7546 22.443C97.3377 21.0256 96.7124 19.7332 96.3372 18.3158C96.3372 18.2741 96.3789 18.2324 96.4206 18.2741C97.171 19.6082 97.6712 21.1924 98.1298 22.6515C98.2132 22.7349 97.5045 22.6098 97.3794 22.6098Z" fill="#011021"/>
<path d="M95.126 13.6897C95.126 13.6897 95.3761 14.6902 95.0426 15.4406C94.3339 16.9414 92.4995 16.5662 91.9159 17.1499C91.3322 17.6919 91.5407 18.8592 90.9987 19.4011C90.29 20.1932 89.2894 19.8597 89.1644 20.4017C89.0393 20.9019 88.7058 22.5695 88.0388 22.778C87.3717 22.9864 84.3284 11.9804 92.9581 12.3139C92.9581 12.3139 94.1254 11.8136 96.0014 12.7308C98.0442 13.7314 98.9197 17.1082 98.9197 17.1082C98.9197 17.1082 98.878 17.0665 98.5862 16.8164C98.1693 16.4412 98.0025 16.1077 97.7107 15.8575C97.2104 15.4823 96.9603 15.6074 96.46 15.2739C95.7096 14.7319 95.126 13.6897 95.126 13.6897Z" fill="#011021"/>
<path d="M95.0013 13.1895C95.1264 13.6063 95.2098 14.0649 95.2515 14.5235C95.2932 14.9821 95.2515 15.4407 95.0847 15.8159C94.8763 16.1911 94.5011 16.4412 94.0842 16.608C93.6673 16.7747 93.2087 16.8164 92.7918 16.9832C92.5833 17.0666 92.3749 17.1916 92.2081 17.4001C92.0831 17.6085 91.9997 17.8587 91.958 18.0671C91.8746 18.5257 91.7912 18.9426 91.4994 19.2761C91.2076 19.6096 90.7907 19.7764 90.3321 19.7764C89.9152 19.7764 89.4149 19.6513 88.998 19.8598C89.4566 19.693 89.8735 19.8598 90.3321 19.9015C90.7907 19.9431 91.291 19.7764 91.6245 19.4012C91.958 19.0677 92.0831 18.5674 92.1664 18.1505C92.2081 17.942 92.2915 17.7336 92.4166 17.5668C92.5416 17.4001 92.7084 17.275 92.9169 17.1916C93.2921 17.0249 93.7923 16.9832 94.2092 16.8164C94.4177 16.7331 94.6261 16.608 94.8346 16.4829C95.0013 16.3579 95.2098 16.1494 95.2932 15.941C95.5016 15.4824 95.5016 15.0238 95.4182 14.5652C95.2932 14.0649 95.1681 13.6063 95.0013 13.1895Z" fill="#011021"/>
<path d="M95.166 13.6064C95.2494 14.0233 95.4162 14.3985 95.5829 14.8154C95.7914 15.1906 96.0832 15.5658 96.4584 15.7743C96.6668 15.8994 96.8753 15.9411 97.042 16.0244C97.2088 16.0661 97.4172 16.1912 97.5006 16.3163C97.6257 16.483 97.7091 16.6915 97.8758 16.8165C98.0426 16.9833 98.2093 17.0667 98.4178 17.15C98.251 17.025 98.0843 16.9416 97.9592 16.7748C97.8341 16.6081 97.7508 16.4413 97.6257 16.2329C97.5006 16.0244 97.2922 15.8994 97.0837 15.816C96.8753 15.7326 96.6668 15.6909 96.5001 15.6075C96.1666 15.3991 95.8747 15.1073 95.6663 14.7738C95.5412 14.3569 95.3328 13.9817 95.166 13.6064Z" fill="#011021"/>
<path d="M88.332 24.9876C88.457 25.0293 88.5404 25.0293 88.6655 25.0293C88.7905 25.0293 88.8739 25.0293 88.999 24.9876C89.1657 24.9459 89.2908 24.9042 89.3742 24.8208C89.4576 24.7374 89.5409 24.6541 89.6243 24.6124C89.7911 24.4039 89.8328 24.1955 89.8328 24.1955L89.2491 22.4445C89.2491 22.4445 87.5399 20.4851 86.6227 21.1521C85.7055 21.7775 87.1647 24.6958 88.332 24.9876Z" fill="#FFD596"/>
<path d="M87.0391 21.9863C87.8729 22.2364 88.3731 22.9452 88.7483 23.6539C88.4982 23.4037 88.123 23.2787 87.7895 23.5705C87.7895 23.5705 87.7895 23.6122 87.8312 23.6122C88.1647 23.4871 88.3731 23.5288 88.6233 23.779C88.79 23.9457 88.9151 24.1542 89.0818 24.3626C89.1235 24.446 89.2486 24.3626 89.2069 24.2792C89.0818 23.2787 88.123 21.9446 87.0391 21.9863Z" fill="#F6C172"/>
<path d="M88.4152 24.6961C88.4569 24.8628 88.6653 24.9462 88.8321 24.9045C88.9989 24.8628 89.0822 24.6544 89.0406 24.4876C88.9989 24.3209 88.7904 24.2375 88.6237 24.2792C88.4569 24.3626 88.3318 24.5293 88.4152 24.6961Z" fill="#CAD3DD" fill-opacity="0.7"/>
<path d="M87.7044 24.3202C87.7461 24.4452 87.8712 24.4869 87.9963 24.4452C88.1213 24.4035 88.163 24.2785 88.1213 24.1534C88.0797 24.0283 87.9546 23.9866 87.8295 24.0283C87.7461 24.07 87.6628 24.1951 87.7044 24.3202Z" fill="#CAD3DD" fill-opacity="0.7"/>
<path d="M85.2038 33.8661C81.5351 40.2029 74.8231 54.9609 77.9498 57.7125C83.0776 62.2149 94.5005 65.2166 98.0024 65.8002C99.5033 66.0503 103.255 54.7108 101.754 54.0438C99.9618 53.21 87.8302 50.9588 87.7468 49.9582C87.7051 49.3746 88.3722 44.4969 88.7057 38.2852C89.0809 31.0729 86.9547 30.8644 85.2038 33.8661Z" fill="#FFD596"/>
<path d="M96.3359 54.044C96.3359 54.044 100.588 52.1263 103.465 51.0007C105.049 50.3753 107.884 49.5416 109.26 49.6249C111.302 49.75 119.849 51.5427 119.474 53.5854C119.14 55.4615 111.969 53.0018 111.969 53.0018C111.969 53.0018 119.39 54.8361 118.556 57.0457C117.723 59.2552 110.01 55.3781 110.01 55.3781C110.01 55.3781 117.598 57.4625 116.389 59.5887C115.471 61.1729 108.301 58.0879 108.301 58.0879C108.301 58.0879 114.804 59.9222 113.929 61.5898C112.97 63.4658 106.175 61.0062 106.175 61.0062C103.215 64.925 100.213 65.592 98.0035 65.8004C97.4199 65.8421 96.3359 54.044 96.3359 54.044Z" fill="#FFD596"/>
<path d="M109.426 52.21C110.301 52.3767 111.218 52.5852 112.052 52.8353C112.928 53.0854 113.761 53.3773 114.595 53.7525C116.638 54.5863 117.764 55.4201 117.722 55.3784C115.929 54.3361 112.844 53.3356 111.969 53.0854C111.093 52.7936 110.26 52.5018 109.426 52.21C109.384 52.2517 109.384 52.21 109.426 52.21Z" fill="#F6C172"/>
<path d="M108.424 55.2949C109.549 55.5867 110.633 55.8369 111.759 56.1704C112.843 56.5039 113.885 56.9208 114.927 57.3377C115.011 57.3794 114.969 57.4211 114.886 57.3794C113.802 57.0042 112.76 56.7541 111.676 56.4205C110.592 56.0453 109.508 55.6284 108.424 55.2949C108.382 55.3366 108.382 55.2949 108.424 55.2949Z" fill="#F6C172"/>
<path d="M107.05 57.7959C108.759 58.1294 110.426 58.7964 112.052 59.5052C112.136 59.5469 112.052 59.5885 111.969 59.5469C110.301 58.9632 109.051 58.4629 107.008 57.8376L107.05 57.7959Z" fill="#F6C172"/>
<path d="M97.5047 52.5017L95.712 66.0508C95.712 66.0508 78.3275 60.7979 77.1185 57.0042C75.9095 53.2104 80.2869 41.9126 84.3308 34.9088C88.333 27.9049 89.0417 34.5752 89 37.2851C88.9583 39.9532 88.0829 49.3333 88.0829 49.3333L97.5047 52.5017Z" fill="#3E8DE3"/>
<path d="M95.376 52.7109C95.2093 53.1695 95.1259 53.6698 95.0425 54.1284C94.9174 54.6287 94.8341 55.0872 94.709 55.5875C94.5005 56.5047 94.3338 57.4635 94.2087 58.3807C93.8752 60.2567 93.6251 62.1328 93.5 64.0505C93.5 64.0922 93.5417 64.0922 93.5834 64.0505C93.9586 62.1744 94.2087 60.2567 94.5005 58.339C94.6673 57.4218 94.8341 56.463 94.9591 55.5458C95.0425 55.0872 95.0842 54.587 95.1676 54.1284C95.251 53.6698 95.376 53.1695 95.4177 52.7109H95.376Z" fill="#2D6DB3"/>
<path d="M93.6672 51.1667C92.6667 50.8749 88.1225 49.2073 88.1642 49.2073C88.4561 47.0394 88.5811 44.8299 88.7479 42.662C88.7896 42.4119 88.8313 42.2035 88.9146 41.9533C88.998 41.5364 89.0397 41.1612 89.1231 40.7443C89.0397 41.1195 88.9146 41.5364 88.8313 41.9116C88.873 41.2029 88.9146 40.5359 88.9563 39.8272C88.9563 39.7855 88.9146 39.7855 88.9146 39.8272C88.5394 42.9122 87.9975 49.249 88.0809 49.2907C88.873 49.7493 92.6667 50.8749 93.6672 51.1667C93.7089 51.1667 93.6672 51.2084 93.6672 51.1667Z" fill="#2D6DB3"/>
<path d="M83.663 61.6308C83.2461 61.464 82.8709 61.2139 82.4957 61.0054C82.1205 60.797 81.7453 60.5468 81.3701 60.3384C80.6197 59.8381 79.8693 59.3378 79.1605 58.7959C78.4935 58.2539 77.8265 57.712 77.493 56.8782C77.1595 56.0444 77.1594 55.0855 77.2011 54.21C77.3262 52.334 77.8682 50.4997 78.4101 48.7487C78.9521 46.9978 79.5357 45.2885 80.2445 43.5792C80.6197 42.6621 81.0366 41.7032 81.4535 40.786C81.8704 39.8689 82.3706 38.9517 82.8292 38.0345C82.8709 37.9929 82.7875 37.9512 82.7458 37.9929C82.2456 38.785 81.8287 39.6187 81.3701 40.4942C81.245 40.7444 81.1199 41.0362 80.9532 41.2863C80.9532 41.2446 80.9949 41.2029 80.9949 41.1613C81.0783 40.8277 81.2033 40.4942 81.2867 40.1607C81.2867 40.119 81.245 40.119 81.245 40.1607C81.0783 40.7027 80.8698 41.2446 80.7031 41.7449C80.7031 41.7866 80.6614 41.8283 80.6614 41.9117C80.4946 42.2869 80.2862 42.6621 80.1194 43.0373C79.369 44.7465 78.702 46.4558 78.1183 48.2485C77.5347 50.0828 76.951 51.9171 76.7842 53.8348C76.7009 54.752 76.7009 55.7109 76.951 56.5863C77.1594 57.4201 77.6597 58.0872 78.3268 58.6291C79.0772 59.2545 79.9109 59.8381 80.7447 60.3384C81.2033 60.5885 81.6202 60.8387 82.0788 61.0888C82.5374 61.3389 83.0377 61.5057 83.5379 61.7558C83.663 61.6725 83.663 61.6308 83.663 61.6308Z" fill="#2D6DB3"/>
<path d="M93.5834 30.3642L92.5828 33.4909L88.5389 29.9473L87.5801 31.2396C87.5801 31.2396 91.7073 37.0345 91.7073 36.7426L92.7496 34.0328L94.6673 35.7004L94.167 31.1563L93.5834 30.3642Z" fill="#CAD3DD"/>
<path d="M94.6255 33.4495C94.5004 32.6991 94.417 31.9487 94.2919 31.1983C94.2919 31.1566 94.2503 31.1566 94.2503 31.1983C94.1669 31.9487 94.5838 34.7835 94.6255 35.4923C94.5421 35.4089 92.8328 34.0331 92.8328 34.0331C92.5827 34.45 91.8323 36.4511 91.7906 36.6179C91.1235 35.7007 88.6222 32.3656 87.8718 31.4901C87.8301 31.4484 87.8301 31.4901 87.8301 31.5318C88.4137 32.4906 91.7072 36.9931 91.7906 36.9931C91.8323 37.0348 92.7911 34.5751 92.8745 34.1582C93.1663 34.45 94.9173 36.0342 94.9173 35.9509C94.8339 35.1588 94.7088 34.1999 94.6255 33.4495Z" fill="#011021"/>
</svg>
