<svg width="62" height="61" viewBox="0 0 62 61" fill="none" xmlns="http://www.w3.org/2000/svg">
<path d="M32.084 51.0234L32.0837 51.0234C29.3432 51.3815 26.4552 51.5606 23.5003 51.5606C17.1971 51.5606 12.1127 50.7935 8.60567 49.7526C6.85184 49.2321 5.49464 48.6437 4.57706 48.0501C4.11825 47.7532 3.77115 47.4562 3.53922 47.1672C3.30724 46.8782 3.19285 46.6003 3.19285 46.3403V37.1102C5.10759 38.4214 8.11083 39.416 11.6478 40.0854C15.235 40.7643 19.3766 41.1097 23.5003 41.1097C27.0839 41.1097 30.6167 40.8486 33.7191 40.358C34.3298 40.2616 34.7455 39.6961 34.6472 39.0911L34.6472 39.091C34.5489 38.4884 33.9653 38.0811 33.3605 38.1775C30.3769 38.6513 26.9671 38.9015 23.5003 38.9015C17.1971 38.9015 12.1127 38.1344 8.60567 37.0935C6.85184 36.573 5.49464 35.9847 4.57706 35.391C4.11825 35.0941 3.77115 34.7971 3.53922 34.5081C3.30724 34.2191 3.19285 33.9412 3.19285 33.6812V24.446C5.11637 25.7693 8.1135 26.7611 11.6452 27.4247C15.2269 28.0977 19.3638 28.434 23.5 28.434C27.6362 28.434 31.7731 28.0977 35.3547 27.4247C38.8864 26.7611 41.8835 25.7693 43.8071 24.446V30.8458C43.8071 31.4566 44.3097 31.9499 44.9285 31.9499C45.5473 31.9499 46.0499 31.4566 46.0499 30.8458L46.0499 8.35492L46.0499 8.35449C46.0394 7.10735 45.3168 6.02187 44.0758 5.09738C42.8349 4.17302 41.0701 3.40482 38.9593 2.7911C34.7371 1.56348 29.1174 0.950169 23.4999 0.95C17.8825 0.949831 12.2628 1.5628 8.04061 2.79034C5.9298 3.40402 4.16495 4.17224 2.92413 5.09671C1.68314 6.02133 0.960555 7.10702 0.950002 8.3545H0.95V8.35492V46.3426C0.95 47.5754 1.67087 48.6551 2.91358 49.5789C4.15622 50.5027 5.92691 51.2758 8.04333 51.8962C12.2768 53.1372 17.9068 53.7713 23.4997 53.7713C26.5552 53.7713 29.5414 53.5841 32.3779 53.2122C32.9912 53.1324 33.4239 52.5781 33.3425 51.9728C33.261 51.3675 32.694 50.9463 32.084 51.0234ZM23.4997 26.237C17.1965 26.237 12.1121 25.4699 8.60505 24.429C6.85122 23.9085 5.49402 23.3202 4.57645 22.7265C4.11763 22.4296 3.77053 22.1326 3.53861 21.8436C3.30662 21.5546 3.19224 21.2767 3.19224 21.0167V11.7841C5.11576 13.1075 8.11288 14.0993 11.6446 14.7629C15.2262 15.4359 19.3631 15.7722 23.4993 15.7722C27.6355 15.7722 31.7724 15.4359 35.3541 14.7629C38.8858 14.0993 41.8829 13.1075 43.8064 11.7841V21.0167C43.8064 21.2767 43.6921 21.5546 43.4601 21.8436C43.2282 22.1326 42.8811 22.4296 42.4223 22.7265C41.5048 23.3202 40.1477 23.9085 38.394 24.429C34.8871 25.4699 29.8029 26.237 23.4997 26.237ZM23.4997 3.13435C29.8029 3.13435 34.8873 3.90143 38.3943 4.94229C40.1481 5.46281 41.5053 6.05117 42.4229 6.64485C42.8817 6.94171 43.2288 7.23874 43.4608 7.52772C43.6927 7.81676 43.8071 8.09465 43.8071 8.35461C43.8071 8.61457 43.6927 8.89246 43.4608 9.1815C43.2288 9.47047 42.8817 9.76751 42.4229 10.0644C41.5053 10.658 40.1481 11.2464 38.3943 11.7669C34.8873 12.8078 29.8029 13.5749 23.4997 13.5749C17.1965 13.5749 12.1121 12.8078 8.60505 11.7669C6.85122 11.2464 5.49402 10.658 4.57645 10.0644C4.11763 9.76751 3.77053 9.47047 3.53861 9.1815C3.30662 8.89246 3.19224 8.61457 3.19224 8.35461C3.19224 8.09465 3.30662 7.81676 3.53861 7.52772C3.77053 7.23874 4.11763 6.94171 4.57645 6.64485C5.49402 6.05117 6.85122 5.46281 8.60505 4.94229C12.1121 3.90143 17.1965 3.13435 23.4997 3.13435Z" fill="#589CE7" stroke="#589CE7" stroke-width="0.1"/>
<path d="M58.8065 44.1389H58.8565C60.0646 44.1389 61.0494 45.1065 61.0494 46.297V48.4049V48.4051H60.9994C61.0047 49.8096 59.7056 50.6766 58.3583 50.5132L58.8065 44.1389ZM58.8065 44.1389V44.1415M58.8065 44.1389V44.1415M58.8065 44.1415H58.3947C58.2122 43.5766 57.9804 43.0288 57.7017 42.5005C58.7586 41.6708 59.055 40.1135 58.0261 39.12C58.0261 39.1199 58.0261 39.1199 58.026 39.1199L56.5106 37.629C56.5106 37.629 56.5106 37.629 56.5105 37.6289C55.5012 36.62 53.9218 36.9059 53.076 37.9491C52.5399 37.6752 51.9841 37.4474 51.411 37.2679C51.5566 35.9338 50.6624 34.6498 49.2136 34.6551M58.8065 44.1415L37.9323 44.1393C37.9186 44.1376 37.9049 44.136 37.8912 44.1346C38.074 43.5697 38.3061 43.0219 38.5852 42.4935M49.2136 34.6551H49.2137V34.7051L49.2135 34.6551C49.2136 34.6551 49.2136 34.6551 49.2136 34.6551ZM49.2136 34.6551H47.0709C45.8627 34.6551 44.878 35.6227 44.878 36.8132V37.2665M44.878 37.2665C44.3033 37.4462 43.7461 37.6745 43.2086 37.949M44.878 37.2665V37.3033H44.928M44.878 37.2665C44.8897 37.2628 44.9015 37.2592 44.9132 37.2556L44.928 37.3033M43.2086 37.949C42.3654 36.9059 40.7808 36.6147 39.774 37.6289L39.7742 37.6287L39.8093 37.6644M43.2086 37.949C43.2173 37.9597 43.2259 37.9705 43.2344 37.9814L43.195 38.0122M43.2086 37.949C43.1964 37.9552 43.1843 37.9615 43.1721 37.9677L43.195 38.0122M39.8093 37.6644L39.7738 37.6291L38.2582 39.1202C37.4026 39.9619 37.4025 41.3327 38.2582 42.1719M39.8093 37.6644L38.2932 39.1558C37.4575 39.978 37.4575 41.3166 38.2932 42.1362M39.8093 37.6644C40.8003 36.6656 42.3727 36.9608 43.195 38.0122M38.2582 42.1719L38.5852 42.4935M38.2582 42.1719L38.2582 42.1718L38.2932 42.1362M38.2582 42.1719L38.2932 42.1362M38.5852 42.4935C38.591 42.4825 38.5968 42.4715 38.6027 42.4605L38.6468 42.484L38.6117 42.5196L38.5852 42.4935ZM38.2932 42.1362L44.928 37.3033M43.195 38.0122C43.7521 37.7249 44.3307 37.4878 44.928 37.3033M46.2405 55.57L46.2515 55.5213C45.3195 55.3117 44.4329 54.9502 43.6181 54.4447C43.3745 54.2887 43.1411 54.2435 42.9188 54.2752C42.6979 54.3067 42.4923 54.4134 42.3015 54.5534C42.1108 54.6934 41.9319 54.8689 41.7648 55.0414C41.7226 55.0849 41.6812 55.1282 41.6406 55.1706C41.532 55.2843 41.4287 55.3924 41.3292 55.4852L39.8833 54.0627L40.7819 53.1787C41.1522 52.8144 41.2168 52.2455 40.939 51.8092L40.9389 51.809C40.425 51.0075 40.0576 50.1354 39.8446 49.2187C39.7294 48.7157 39.2748 48.3604 38.7513 48.3604H37.4834V46.3505C37.6267 46.3463 37.783 46.351 37.9466 46.3559C38.0018 46.3575 38.0578 46.3592 38.1143 46.3606C38.3558 46.3664 38.6064 46.3666 38.8397 46.3333C39.0729 46.3001 39.2927 46.233 39.4704 46.1016C39.6494 45.9693 39.782 45.7746 39.8446 45.4939C40.0576 44.5772 40.425 43.7051 40.9388 42.9037C41.2197 42.4671 41.152 41.8981 40.7819 41.534L39.8833 40.6499L41.328 39.2286L42.2278 40.1138C42.5979 40.4779 43.175 40.5411 43.6176 40.2683L43.6178 40.2682C44.4326 39.7626 45.3193 39.4011 46.2513 39.1915C46.5369 39.1299 46.735 38.999 46.8696 38.822C47.0035 38.6461 47.0716 38.4286 47.1053 38.1983C47.1389 37.9679 47.1385 37.7209 47.1324 37.4838C47.1309 37.4285 47.1292 37.3738 47.1275 37.3199C47.1224 37.1599 47.1175 37.0075 47.1216 36.8685H49.1682C49.1725 37.0091 49.1677 37.1626 49.1627 37.3232C49.161 37.3775 49.1593 37.4326 49.1579 37.4883C49.152 37.7259 49.1518 37.9726 49.1857 38.2023C49.2195 38.432 49.2878 38.6485 49.4215 38.8236C49.556 38.9997 49.7538 39.1299 50.0386 39.1915C50.9706 39.4011 51.8573 39.7626 52.6721 40.2682L52.6722 40.2682C53.1177 40.5439 53.6922 40.4778 54.0621 40.1138L54.9619 39.2286L56.4066 40.6499L55.508 41.534C55.1377 41.8983 55.073 42.4672 55.3509 42.9035L55.351 42.9036C55.8649 43.7051 56.2323 44.5772 56.4453 45.4939C56.508 45.7754 56.6413 45.9704 56.8211 46.1028C56.9997 46.2343 57.2204 46.3013 57.4543 46.3344C57.6882 46.3674 57.9391 46.3671 58.1801 46.361C58.2363 46.3596 58.2919 46.3579 58.3466 46.3562C58.5096 46.3511 58.6649 46.3463 58.8065 46.3505V48.3596C58.6632 48.3637 58.5069 48.3591 58.3433 48.3541C58.2881 48.3525 58.2321 48.3508 58.1756 48.3494C57.934 48.3436 57.6835 48.3435 57.4502 48.3767C57.217 48.4099 56.9972 48.477 56.8195 48.6084C56.6405 48.7407 56.508 48.9354 56.4453 49.2161C56.2323 50.1328 55.8649 51.0049 55.351 51.8064C55.0702 52.243 55.1379 52.8119 55.508 53.1761L56.4066 54.0601L54.9607 55.4826C54.8605 55.3891 54.757 55.2809 54.6483 55.1673C54.6073 55.1245 54.5657 55.081 54.5232 55.0373C54.3561 54.865 54.1776 54.6902 53.9873 54.551C53.797 54.4119 53.592 54.306 53.3714 54.2751C53.1493 54.244 52.916 54.2893 52.6718 54.4447C51.857 54.9502 50.9704 55.3117 50.0384 55.5213C49.5285 55.6343 49.1664 56.0812 49.1664 56.5977V57.8442H47.1235V56.5977C47.1235 56.0811 46.7613 55.6342 46.2513 55.5212L46.2405 55.57ZM46.2405 55.57C46.728 55.678 47.0735 56.1049 47.0735 56.5977V57.8442L41.328 55.5542C41.4396 55.4533 41.5561 55.3314 41.6778 55.2041C42.2045 54.6532 42.8299 53.999 43.5914 54.487C44.411 54.9956 45.303 55.3592 46.2405 55.57ZM57.7016 52.2043C57.9797 51.6773 58.211 51.1309 58.3933 50.5675L44.928 57.4014C44.7619 58.7268 45.6432 60.0049 47.0708 59.9997V60.0497H47.071H49.2137C50.6622 60.0497 51.5567 58.7762 51.411 57.4368C51.9841 57.2574 52.5399 57.0295 53.076 56.7557C53.9191 57.7962 55.5011 58.0874 56.5104 57.0759C56.5105 57.0758 56.5106 57.0757 56.5106 57.0757L58.0261 55.5848C58.0261 55.5848 58.0261 55.5848 58.0261 55.5848C59.0523 54.5913 58.7613 53.0365 57.7016 52.2043ZM43.2085 56.7557C43.7446 57.0295 44.3004 57.2573 44.8735 57.4368L35.2852 46.297H35.2352V46.2971V48.4051C35.2352 49.5956 36.2199 50.5632 37.428 50.5632H37.8898C38.0723 51.1281 38.3041 51.6759 38.5829 52.2043C37.5259 53.0339 37.2295 54.5912 38.2583 55.5847C38.2584 55.5848 38.2584 55.5848 38.2585 55.5849L39.7739 57.0757C39.7739 57.0758 39.774 57.0758 39.774 57.0758C40.7833 58.0847 42.3627 57.7989 43.2085 56.7557Z" fill="#589CE7" stroke="#589CE7" stroke-width="0.1"/>
<path d="M53.038 44.9158L53.0379 44.9157L53.0343 44.9168C52.7175 45.0114 52.5138 45.1574 52.3905 45.3418C52.2677 45.5256 52.2288 45.7412 52.2292 45.9671C52.2295 46.188 52.2675 46.4239 52.3047 46.6551L52.3069 46.6687C52.3451 46.906 52.3817 47.1382 52.3798 47.3537C52.2019 52.859 44.0868 52.8591 43.9084 47.3539C43.909 44.692 46.5236 42.6311 49.254 43.3319L49.2545 43.332C49.6089 43.4188 49.9128 43.3545 50.1459 43.1999C50.3781 43.0459 50.5369 42.8044 50.6068 42.5413C50.6767 42.2782 50.6584 41.9907 50.5325 41.7436C50.4061 41.4956 50.173 41.2921 49.8208 41.1957C45.7909 40.0857 41.6087 43.2285 41.6654 47.3554L41.6654 47.3566C41.9704 55.7896 54.3198 55.7901 54.6225 47.3565L54.6225 47.3565L54.6225 47.3545C54.6198 46.8774 54.5874 46.1956 54.3773 45.6698C54.272 45.4063 54.1203 45.1772 53.9009 45.0342C53.68 44.8903 53.3968 44.8377 53.038 44.9158Z" fill="#589CE7" stroke="#589CE7" stroke-width="0.1"/>
</svg>
