<svg width="91" height="61" viewBox="0 0 91 61" fill="none" xmlns="http://www.w3.org/2000/svg">
<path d="M74.1838 47.2098C74.1838 47.5669 74.0187 47.9206 73.6979 48.2505C73.3772 48.5805 72.907 48.8803 72.3143 49.1328C71.7216 49.3854 71.0179 49.5857 70.2435 49.7224C69.4691 49.859 68.6391 49.9294 67.8009 49.9294C66.108 49.9294 64.4845 49.6428 63.2875 49.1328C62.0905 48.6228 61.418 47.9311 61.418 47.2098C61.418 46.8527 61.5831 46.499 61.9038 46.1691C62.2246 45.8391 62.6948 45.5393 63.2875 45.2868C63.8802 45.0342 64.5838 44.8339 65.3582 44.6972C66.1327 44.5606 66.9627 44.4902 67.8009 44.4902C68.6391 44.4902 69.4691 44.5606 70.2435 44.6972C71.0179 44.8339 71.7216 45.0342 72.3143 45.2868C72.907 45.5393 73.3772 45.8391 73.6979 46.1691C74.0187 46.499 74.1838 46.8527 74.1838 47.2098Z" stroke="#589CE7" stroke-linecap="round" stroke-linejoin="round"/>
<path d="M74.1838 57C74.1838 57.4774 73.8889 57.9464 73.3286 58.3598C72.7684 58.7732 71.9627 59.1165 70.9923 59.3552C70.022 59.5939 68.9213 59.7196 67.8009 59.7196C66.6804 59.7196 65.5798 59.5939 64.6094 59.3552C63.6391 59.1165 62.8333 58.7732 62.2731 58.3598C61.7129 57.9464 61.418 57.4774 61.418 57" stroke="#589CE7" stroke-linecap="round" stroke-linejoin="round"/>
<path d="M74.1838 53.7373C74.1838 54.2147 73.8889 54.6837 73.3286 55.0971C72.7684 55.5105 71.9627 55.8538 70.9923 56.0925C70.022 56.3312 68.9213 56.4569 67.8009 56.4569C66.6804 56.4569 65.5798 56.3312 64.6094 56.0925C63.6391 55.8538 62.8333 55.5105 62.2731 55.0971C61.7129 54.6837 61.418 54.2147 61.418 53.7373" stroke="#589CE7" stroke-linecap="round" stroke-linejoin="round"/>
<path d="M74.1838 50.4736C74.1838 50.951 73.8889 51.42 73.3286 51.8334C72.7684 52.2468 71.9627 52.5902 70.9923 52.8288C70.022 53.0675 68.9213 53.1932 67.8009 53.1932C66.6804 53.1932 65.5798 53.0675 64.6094 52.8288C63.6391 52.5902 62.8333 52.2468 62.2731 51.8334C61.7129 51.42 61.418 50.951 61.418 50.4736" stroke="#589CE7" stroke-linecap="round" stroke-linejoin="round"/>
<path d="M61.418 47.21V57.0004" stroke="#589CE7" stroke-linecap="round" stroke-linejoin="round"/>
<path d="M74.1836 47.21V57.0004" stroke="#589CE7" stroke-linecap="round" stroke-linejoin="round"/>
<path d="M42.049 13.4192C41.3259 13.4192 40.7379 14.0075 40.7379 14.7299C40.7379 15.4522 41.3258 16.0403 42.049 16.0407V13.4192ZM42.049 13.4192C42.7715 13.4192 43.3598 14.0072 43.3598 14.7299M42.049 13.4192L43.3598 14.7299M43.3598 14.7299C43.3598 15.4526 42.7715 16.0406 42.0491 16.0407L43.3598 14.7299ZM51.4733 10.2699H51.3233V10.4199V13.6134V13.7634H51.4733H52.3562V16.5738L48.1278 17.9027V11.4974H49.2198H49.4369L49.3601 11.2943L47.6717 6.82879L47.5415 6.48453L47.394 6.8217L45.4397 11.2872L45.3477 11.4974H45.5771H46.6995V21.7186L42.763 19.6313V16.9794C43.7173 16.6759 44.4118 15.7841 44.4118 14.7296C44.4118 13.4269 43.3521 12.3668 42.049 12.3668C40.7456 12.3668 39.6859 13.4269 39.6859 14.7296C39.6859 15.7842 40.3808 16.6759 41.335 16.9794V20.3999V20.4902L41.4148 20.5324L46.6998 23.3348V24.5924C45.6292 24.9024 44.8427 25.89 44.8427 27.0603C44.8427 28.4778 45.9964 29.6311 47.4142 29.6311C48.8319 29.6311 49.9856 28.4778 49.9856 27.0603C49.9856 25.89 49.1992 24.9024 48.1285 24.5924V19.3992L53.6803 17.6544L53.7853 17.6214V17.5113V13.763H54.6682H54.8182V13.613V10.4199V10.2699H54.6682H54.6675H51.4733ZM46.9563 10.4454L47.4704 9.27142L47.9138 10.4454H46.9563ZM48.5566 27.0603C48.5566 27.6901 48.0437 28.2031 47.4135 28.2031C46.7836 28.2031 46.2703 27.6901 46.2703 27.0603C46.2703 26.4298 46.7836 25.9168 47.4135 25.9168C48.0436 25.9168 48.5566 26.4297 48.5566 27.0603ZM53.7648 12.711H52.3753V11.3219H53.7648V12.711Z" fill="#589CE7" stroke="#589CE7" stroke-width="0.3"/>
<path d="M58.0157 60.15H57.8657H35.2804H35.1304V60V54.1047C31.0861 54.0142 28.0309 52.987 26.0722 51.0204L26.1785 50.9145L26.0722 51.0204C24.0048 48.9443 23.9858 46.6073 23.9862 46.4898M58.0157 60.15L24.1362 39.3403H23.9862M58.0157 60.15L58.0157 60L58.016 46.1538C58.9943 45.1519 63.2352 40.7534 65.9864 36.9984C66.0387 36.9292 66.0915 36.8577 66.1435 36.7864L66.1441 36.7854L66.3808 36.4552L66.3813 36.4544C66.5454 36.2223 66.708 35.9874 66.8636 35.7496C66.969 35.5902 67.0655 35.4378 67.1629 35.2823L67.163 35.2822C67.2218 35.1881 67.2811 35.0931 67.3369 34.9996C67.4855 34.7556 67.6202 34.5207 67.7424 34.2955M58.0157 60.15L67.7424 34.2955M23.9862 46.4898C23.9862 46.4898 23.9862 46.4897 23.9862 46.4896L24.1362 46.4901H23.9862V46.4898ZM23.9862 46.4898V39.3403M23.9862 39.3403H20.7601H20.688L20.643 39.2841L19.5958 37.9759L19.5386 37.9044L19.576 37.8209L24.6797 26.4284C25.1369 24.9468 25.3041 23.3188 25.3305 23.0345C25.2979 22.2047 25.102 13.4095 31.1244 7.08056L31.233 7.18396M23.9862 39.3403V39.1903M23.9862 39.1903H20.7601L19.7129 37.8822L24.8203 26.4814C25.29 24.9638 25.4572 23.2954 25.4808 23.0385C25.4497 22.2782 25.2306 13.492 31.233 7.18396M23.9862 39.1903L67.6109 34.2234C69.433 30.9276 70.3948 27.1873 70.3948 23.4052C70.3948 11.0512 60.3443 1 47.9904 1C40.776 1 35.1378 3.0805 31.233 7.18396M23.9862 39.1903L67.7424 34.2955M31.233 7.18396L31.1244 7.08056C35.0647 2.93971 40.7468 0.85 47.9904 0.85C60.4272 0.85 70.5448 10.9683 70.5448 23.4052C70.5448 27.2124 69.5767 30.9775 67.7424 34.2955M66.0798 34.6026C66.1348 34.5146 66.1902 34.426 66.2431 34.3374M66.0798 34.6026L65.9529 34.5224M66.0798 34.6026C65.9872 34.7491 65.896 34.8928 65.7956 35.0458L66.0798 34.6026ZM66.2431 34.3374L65.9529 34.5224M66.2431 34.3374C66.3818 34.1097 66.5065 33.892 66.6212 33.6804L66.2431 34.3374ZM65.9529 34.5224C66.008 34.4346 66.0624 34.3474 66.1143 34.2605L66.115 34.2593C66.2523 34.0338 66.3758 33.8183 66.4894 33.6089L66.49 33.6079C68.2093 30.4978 69.1165 26.9712 69.1165 23.4048C69.1165 11.7556 59.6396 2.278 47.9904 2.278C41.1301 2.278 35.8138 4.22924 32.1665 8.05731C29.2865 11.0801 27.9322 14.7959 27.2994 17.7739C26.6667 20.7513 26.7576 22.98 26.7594 23.0158L26.7594 23.0159L26.7611 23.053L26.7616 23.0624L26.7609 23.0718L26.758 23.1089L26.7579 23.1102L26.7578 23.1114C26.7495 23.2087 26.5874 25.1141 26.0304 26.8944L26.0281 26.9016L26.0279 26.9015L26.0047 26.9644L26.0012 26.9739L26.0009 26.9738L21.1985 37.6931L21.3744 37.913H25.2646H25.4146V38.063V46.4926C25.4153 46.6076 25.451 48.1499 26.7434 49.663C28.0334 51.1733 30.6007 52.6835 35.725 52.6835L36.4081 52.6806L36.5587 52.68V52.8306V58.722H56.5873V45.6295V45.5679L56.6306 45.5241L56.7939 45.3586L56.795 45.3575L56.7954 45.3572L56.7964 45.3561L56.8001 45.3524L56.8128 45.3395L56.8589 45.2928C56.8985 45.2526 56.9556 45.1943 57.0285 45.1196C57.1744 44.9701 57.3835 44.7545 57.6427 44.4841C58.1611 43.9432 58.8794 43.1831 59.6918 42.2943C61.3172 40.5158 63.3159 38.225 64.8415 36.1433L64.8428 36.1415C64.8966 36.0704 64.9432 36.0076 64.9886 35.945C64.9886 35.945 64.9886 35.9449 64.9886 35.9449L65.2164 35.6271C65.2165 35.627 65.2165 35.6269 65.2166 35.6268C65.371 35.4087 65.5231 35.1885 65.67 34.9637L65.6702 34.9634C65.7699 34.8116 65.8604 34.6689 65.9529 34.5224Z" fill="#589CE7" stroke="#589CE7" stroke-width="0.3"/>
<path d="M74.2138 36.0969H66.0625H65.9125V35.9469V35.077V34.927H66.0625H74.2141C74.4203 34.5539 74.8167 34.2992 75.2745 34.2992C75.944 34.2992 76.4875 34.8426 76.4872 35.5122L74.2138 36.0969ZM74.2138 36.0969C74.42 36.4702 74.8163 36.7246 75.2745 36.7246C75.944 36.7246 76.4872 36.1818 76.4872 35.5123L74.2138 36.0969Z" fill="#589CE7" stroke="#589CE7" stroke-width="0.3"/>
<path d="M68.1152 32.3548H67.9652V32.5048V33.3747V33.5247H68.1152H80.4746H80.541L80.5857 33.4755L85.0116 28.5982C85.1019 28.6218 85.1981 28.637 85.3003 28.637C85.9698 28.637 86.513 28.0939 86.513 27.4246V27.4245C86.5126 26.7545 85.9696 26.2113 85.3 26.2113C84.6301 26.2113 84.087 26.7545 84.087 27.4243C84.087 27.5581 84.1089 27.6872 84.1493 27.808L80.0233 32.3548H68.1152Z" fill="#589CE7" stroke="#589CE7" stroke-width="0.3"/>
<path d="M70.2461 24.216H70.0961V24.366V25.2354V25.3854H70.2461H76.0009C76.207 25.7588 76.6037 26.0137 77.0619 26.0137C77.7312 26.0137 78.2744 25.4702 78.2744 24.8013C78.2744 24.1309 77.7312 23.5883 77.0619 23.5883C76.604 23.5883 76.2075 23.8427 76.0012 24.216H70.2461Z" fill="#589CE7" stroke="#589CE7" stroke-width="0.3"/>
<path d="M70.2461 20.8824H70.0961V21.0324V21.9017V22.0517H70.2461H80.3371H80.3943L80.437 22.0136L83.7612 19.0457C83.8976 19.1009 84.0468 19.1341 84.2061 19.1341C84.8759 19.1341 85.4188 18.5912 85.4188 17.9214V17.9213C85.4185 17.2516 84.8757 16.7084 84.2058 16.7084C83.5356 16.7084 82.9934 17.2517 82.9934 17.9214C82.9934 17.9989 83.0027 18.0726 83.0169 18.1422L79.9482 20.8824H70.2461Z" fill="#589CE7" stroke="#589CE7" stroke-width="0.3"/>
<path d="M74.9501 14.9771L74.9061 14.933H74.8438H68.5938H68.4437V15.083V15.9526V16.1026H68.5938H74.4204L75.6663 17.3533C75.5986 17.5021 75.5576 17.6676 75.5576 17.845V17.8451C75.5579 18.5144 76.1011 19.0571 76.7709 19.0571C77.4401 19.0571 77.9833 18.5143 77.9833 17.8447C77.9833 17.1749 77.4402 16.632 76.7709 16.632C76.7161 16.632 76.6625 16.6357 76.6098 16.6427L74.9501 14.9771Z" fill="#589CE7" stroke="#589CE7" stroke-width="0.3"/>
<path d="M65.7051 10.7129H65.5551V10.8629V11.7325V11.8825H65.7051H83.5201H83.5755L83.6176 11.8465L89.1306 7.12778C89.2591 7.17547 89.3984 7.20314 89.5453 7.20314C90.2152 7.20314 90.7578 6.65994 90.7578 5.99071C90.7578 5.32062 90.2149 4.77773 89.5451 4.77773C88.8748 4.77773 88.3326 5.3207 88.3326 5.99071C88.3326 6.08042 88.3449 6.16508 88.3635 6.24466L83.1432 10.7129H65.7051Z" fill="#589CE7" stroke="#589CE7" stroke-width="0.3"/>
<path d="M62.6582 6.27784H62.5082V6.42784V7.29745V7.44745H62.6582H78.2844C78.4904 7.82053 78.8864 8.0752 79.3446 8.0752C80.0148 8.0752 80.5571 7.53199 80.5571 6.86278C80.5571 6.19305 80.0146 5.6498 79.3446 5.6498C78.8868 5.6498 78.4907 5.90454 78.2845 6.27784H62.6582Z" fill="#589CE7" stroke="#589CE7" stroke-width="0.3"/>
<path d="M20.499 7.79665L20.5417 7.83457H20.5987H32.2289H32.3789V7.68457V6.69974V6.54974H32.2289H21.0371L16.9797 2.94112C17.0193 2.8159 17.042 2.68244 17.042 2.54268C17.042 1.79375 16.4297 1.18887 15.6766 1.18887C14.9237 1.18887 14.3109 1.7937 14.3109 2.54268C14.3109 3.29138 14.9237 3.89619 15.6766 3.89619C15.8087 3.89619 15.9338 3.87468 16.0509 3.84024L20.499 7.79665Z" fill="#589CE7" stroke="#589CE7" stroke-width="0.3"/>
<path d="M27.0582 13.5723H14.1478L10.3591 10.4188C10.3878 10.3158 10.4056 10.2063 10.4056 10.0908C10.4056 9.38819 9.83614 8.81875 9.13351 8.81875C8.43083 8.81875 7.86172 9.38824 7.86172 10.0908C7.86172 10.7931 8.4308 11.3629 9.13351 11.3629C9.26789 11.3629 9.39622 11.3407 9.51636 11.3021L13.6655 14.7558L13.7072 14.7905H13.7614H27.0582H27.2082V14.6405V13.7223V13.5723H27.0582Z" fill="#589CE7" stroke="#589CE7" stroke-width="0.3"/>
<path d="M26.753 17.1707H26.903V17.0207V16.1025V15.9525H26.753H7.26125H7.21613L7.1785 15.9774L2.03905 19.377C1.9083 19.3316 1.7677 19.3068 1.62178 19.3068C0.919152 19.3068 0.35 19.8757 0.35 20.5789C0.35 21.2816 0.919468 21.8507 1.62178 21.8507C2.32439 21.8507 2.89386 21.2813 2.89386 20.5789C2.89386 20.4791 2.87985 20.3848 2.85803 20.2959L7.58239 17.1707H26.753Z" fill="#589CE7" stroke="#589CE7" stroke-width="0.3"/>
<path d="M28.6844 12.4332H28.8344V12.2832V11.365V11.215H28.6844H20.5061C20.2907 10.8212 19.8741 10.5521 19.3916 10.5521C18.689 10.5521 18.1195 11.1216 18.1195 11.8245C18.1195 12.5269 18.689 13.0963 19.3916 13.0963C19.8737 13.0963 20.2909 12.8273 20.5062 12.4332H28.6844Z" fill="#589CE7" stroke="#589CE7" stroke-width="0.3"/>
<path d="M25.924 20.4381H26.074V20.2881V19.3696V19.2196H25.924H15.7558C15.5401 18.8259 15.1232 18.557 14.6413 18.557C13.9386 18.557 13.3695 19.1265 13.3695 19.8291C13.3695 20.5314 13.939 21.1009 14.6413 21.1009C15.1237 21.1009 15.5407 20.8318 15.7561 20.4381H25.924Z" fill="#589CE7" stroke="#589CE7" stroke-width="0.3"/>
</svg>
