<svg width="52" height="59" viewBox="0 0 52 59" fill="none" xmlns="http://www.w3.org/2000/svg">
<path d="M39.5453 12.2491C36.9125 12.2491 34.4248 12.2491 31.9579 12.2491C30.5068 12.2491 30.0507 11.8124 30.0507 10.3151C30.0507 7.81948 30.0507 5.3447 30.0507 2.78673C21.178 2.78673 12.3883 2.78673 3.51562 2.78673C3.51562 18.2593 3.51562 33.7319 3.51562 49.3085C3.9095 49.3085 4.28265 49.3085 4.6558 49.3085C8.5946 49.3085 12.5334 49.3085 16.4722 49.3085C16.721 49.3085 16.949 49.2877 17.1978 49.3085C17.9855 49.3917 18.6282 50.0572 18.5245 50.7435C18.4209 51.5129 17.9855 52.0121 17.1356 52.0121C12.1188 52.0121 7.12273 52.0121 2.10594 52.0121C1.23526 52.0121 0.77919 51.5337 0.737729 50.6603C0.716999 50.4107 0.737729 50.182 0.737729 49.9324C0.737729 34.0023 0.737729 18.0722 0.737729 2.12124C0.737729 0.332744 1.04869 0.0207965 2.83151 0.0207965C12.1603 0.0207965 21.489 0.0207965 30.8177 0C31.647 0 32.2481 0.228762 32.8286 0.811064C35.7101 3.74337 38.6539 6.63408 41.5147 9.58719C41.9086 10.0031 42.2195 10.7102 42.2402 11.2925C42.3024 15.8261 42.2817 20.3806 42.261 24.9142C42.261 26.0788 41.8464 26.6195 40.955 26.6403C40.0428 26.6611 39.566 26.058 39.566 24.8518C39.566 21.0669 39.566 17.3027 39.566 13.5177C39.5453 13.1434 39.5453 12.7691 39.5453 12.2491ZM37.1613 9.5248C35.7309 8.06904 34.259 6.59249 32.9115 5.21992C32.9115 6.48851 32.9115 7.98586 32.9115 9.5248C34.4456 9.5248 35.876 9.5248 37.1613 9.5248Z" fill="#589CE7"/>
<path d="M16.9827 9.6629C14.1953 9.6629 11.3866 9.6629 8.59922 9.6629C7.36511 9.6629 6.74805 9.23874 6.74805 8.44576C6.74805 7.67122 7.40766 7.24707 8.6205 7.24707C14.2379 7.24707 19.8765 7.24707 25.4939 7.24707C26.7067 7.24707 27.3451 7.78187 27.1961 8.64862C27.0472 9.49692 26.3237 9.6629 25.4726 9.6629C22.6426 9.6629 19.8127 9.6629 16.9827 9.6629Z" fill="#589CE7"/>
<path d="M20.595 15.7029C16.8238 15.7029 13.0238 15.7029 9.25258 15.7029C7.58289 15.7029 6.74805 15.2788 6.74805 14.4858C6.74805 13.7113 7.64047 13.2871 9.28137 13.2871C16.8813 13.2871 24.5101 13.2871 32.1101 13.2871C33.751 13.2871 34.6146 13.8219 34.4131 14.6887C34.2116 15.537 33.2328 15.7029 32.0813 15.7029C28.2525 15.7029 24.4237 15.7029 20.595 15.7029Z" fill="#589CE7"/>
<path d="M13.3705 21.743C11.5669 21.743 9.74948 21.743 7.94587 21.743C7.14732 21.743 6.74805 21.3188 6.74805 20.5258C6.74805 19.7513 7.17486 19.3271 7.95964 19.3271C11.5944 19.3271 15.2429 19.3271 18.8777 19.3271C19.6625 19.3271 20.0755 19.8619 19.9791 20.7287C19.8828 21.577 19.4147 21.743 18.8639 21.743C17.0328 21.743 15.2016 21.743 13.3705 21.743Z" fill="#589CE7"/>
<path d="M20.0646 29.1626C20.0646 29.5025 19.9079 29.8391 19.6036 30.1531C19.2993 30.4671 18.8532 30.7525 18.2909 30.9928C17.7285 31.2332 17.061 31.4239 16.3263 31.5539C15.5915 31.684 14.8041 31.751 14.0088 31.751C12.4028 31.751 10.8625 31.4783 9.7268 30.9928C8.59114 30.5074 7.95313 29.8491 7.95313 29.1626C7.95312 28.8227 8.10976 28.4861 8.41409 28.1721C8.71842 27.858 9.16448 27.5727 9.7268 27.3323C10.2891 27.092 10.9567 26.9013 11.6914 26.7712C12.4261 26.6412 13.2136 26.5742 14.0088 26.5742C14.8041 26.5742 15.5915 26.6412 16.3263 26.7712C17.061 26.9013 17.7285 27.092 18.2909 27.3323C18.8532 27.5727 19.2993 27.858 19.6036 28.1721C19.9079 28.4861 20.0646 28.8227 20.0646 29.1626Z" stroke="#589CE7" stroke-linecap="round" stroke-linejoin="round"/>
<path d="M20.0646 38.4805C20.0646 38.9348 19.7847 39.3812 19.2532 39.7747C18.7217 40.1681 17.9573 40.4949 17.0367 40.7221C16.1161 40.9492 15.0718 41.0688 14.0088 41.0688C12.9458 41.0688 11.9016 40.9492 10.981 40.7221C10.0604 40.4949 9.29594 40.1681 8.76444 39.7747C8.23294 39.3812 7.95312 38.9348 7.95313 38.4805" stroke="#589CE7" stroke-linecap="round" stroke-linejoin="round"/>
<path d="M20.0646 35.375C20.0646 35.8294 19.7847 36.2757 19.2532 36.6692C18.7217 37.0627 17.9573 37.3894 17.0367 37.6166C16.1161 37.8438 15.0718 37.9634 14.0088 37.9634C12.9458 37.9634 11.9016 37.8438 10.981 37.6166C10.0604 37.3894 9.29594 37.0627 8.76444 36.6692C8.23294 36.2757 7.95313 35.8294 7.95312 35.375" stroke="#589CE7" stroke-linecap="round" stroke-linejoin="round"/>
<path d="M20.0646 32.2686C20.0646 32.7229 19.7847 33.1693 19.2532 33.5627C18.7217 33.9562 17.9573 34.283 17.0367 34.5101C16.1161 34.7373 15.0718 34.8569 14.0088 34.8569C12.9458 34.8569 11.9016 34.7373 10.981 34.5101C10.0604 34.283 9.29594 33.9562 8.76444 33.5627C8.23294 33.1693 7.95312 32.7229 7.95313 32.2686" stroke="#589CE7" stroke-linecap="round" stroke-linejoin="round"/>
<path d="M7.95312 29.1621V38.4802" stroke="#589CE7" stroke-linecap="round" stroke-linejoin="round"/>
<path d="M20.0645 29.1621V38.4802" stroke="#589CE7" stroke-linecap="round" stroke-linejoin="round"/>
<path fill-rule="evenodd" clip-rule="evenodd" d="M36.1688 30.9089C28.968 30.9089 23.1117 36.7784 23.1117 43.9953C23.1117 51.2122 28.968 57.0816 36.1688 57.0816C43.3695 57.0816 49.2259 51.2122 49.2259 43.9953C49.2283 36.7784 43.3719 30.9089 36.1688 30.9089ZM36.1688 59.0003C27.905 59.0003 21.1973 52.2776 21.1973 43.9953C21.1973 35.713 27.905 28.9902 36.1688 28.9902C44.4326 28.9902 51.1403 35.7323 51.1403 43.9953C51.1427 52.2776 44.4326 59.0003 36.1688 59.0003Z" fill="#589CE7"/>
<path fill-rule="evenodd" clip-rule="evenodd" d="M35.0336 52.2202H37.3256V49.8266C37.3256 49.4289 37.5709 49.0673 37.9509 48.9347C38.1024 48.8769 38.2539 48.8214 38.3862 48.7443C38.747 48.5732 39.1823 48.6503 39.4661 48.9347L41.152 50.6245L42.7827 48.9902L41.0967 47.3005C40.8129 47.016 40.736 46.5797 40.9067 46.2182C40.9837 46.0663 41.039 45.9144 41.0967 45.7626C41.229 45.3817 41.5898 45.1359 42.0058 45.1359H44.3941V42.8556H42.0058C41.609 42.8556 41.2482 42.6097 41.0967 42.2289C41.039 42.077 40.9837 41.9252 40.9067 41.7733C40.736 41.4117 40.8129 40.9754 41.0967 40.691L42.7827 39.0013L41.152 37.367L39.4661 39.0567C39.1823 39.3412 38.747 39.4183 38.3862 39.2471C38.2347 39.17 38.0832 39.1146 37.9317 39.0567C37.5517 38.9241 37.3063 38.5626 37.3063 38.1649V35.7713H35.0143V38.1649C35.0143 38.5626 34.769 38.9241 34.389 39.0567C34.2375 39.1146 34.086 39.17 33.9344 39.2471C33.5737 39.4183 33.1384 39.3412 32.8546 39.0567L31.1686 37.367L29.538 39.0013L31.2239 40.691C31.5077 40.9754 31.5847 41.4117 31.4139 41.7733C31.337 41.9252 31.2817 42.0577 31.2239 42.2289C31.0917 42.6097 30.7309 42.8556 30.3148 42.8556H27.9266V45.1527H30.3148C30.7117 45.1527 31.0724 45.3986 31.2239 45.7795C31.2817 45.9313 31.337 46.0832 31.4139 46.2157C31.5847 46.5773 31.5077 47.0136 31.2239 47.298L29.538 48.9878L31.1686 50.622L32.8546 48.9323C33.1384 48.6479 33.5737 48.5708 33.9344 48.7419C34.086 48.819 34.2182 48.8745 34.3698 48.9323C34.7498 49.0649 34.9951 49.4265 34.9951 49.8242L35.0336 52.2202ZM38.2732 54.1389H34.0667C33.5352 54.1389 33.0999 53.7026 33.0999 53.1699V51.3838L31.8493 52.6372C31.6785 52.8083 31.4332 52.9216 31.1662 52.9216C30.9209 52.9216 30.6732 52.8276 30.4832 52.6372L27.5081 49.6579C27.1281 49.277 27.1281 48.6696 27.5081 48.3104L28.7588 47.057H26.9766C26.4451 47.057 26.0098 46.6207 26.0098 46.088V41.8721C26.0098 41.3394 26.4451 40.9031 26.9766 40.9031H28.7588L27.5081 39.6497C27.1281 39.2688 27.1281 38.6614 27.5081 38.3023L30.4832 35.3205C30.6539 35.1494 30.8993 35.0361 31.1662 35.0361C31.4115 35.0361 31.6593 35.1301 31.8493 35.3205L33.0999 36.574V34.7854C33.0999 34.2527 33.5352 33.8164 34.0667 33.8164H38.2732C38.8047 33.8164 39.24 34.2527 39.24 34.7854V36.5715L40.4906 35.3181C40.6614 35.147 40.9067 35.0337 41.1737 35.0337C41.419 35.0337 41.6667 35.1277 41.8567 35.3181L44.8318 38.2998C45.2118 38.6807 45.2118 39.2881 44.8318 39.6473L43.5811 40.9007H45.3633C45.8948 40.9007 46.3301 41.337 46.3301 41.8697V46.0856C46.3301 46.6183 45.8948 47.0546 45.3633 47.0546H43.5811L44.8318 48.308C45.0025 48.4984 45.1156 48.725 45.1156 48.9926C45.1156 49.2385 45.0218 49.4867 44.8318 49.6772L41.8543 52.6589C41.4743 53.0397 40.8682 53.0397 40.5099 52.6589L39.24 51.4054V53.1916C39.24 53.7219 38.8047 54.1389 38.2732 54.1389Z" fill="#589CE7"/>
<path fill-rule="evenodd" clip-rule="evenodd" d="M36.169 42.3255C35.2407 42.3255 34.5023 43.0848 34.5023 43.9959C34.5023 44.9264 35.2599 45.6664 36.169 45.6664C37.0974 45.6664 37.8357 44.9071 37.8357 43.9959C37.8381 43.0655 37.0974 42.3255 36.169 42.3255ZM36.169 47.5875C34.1969 47.5875 32.5879 45.9725 32.5879 43.9983C32.5879 42.0242 34.1993 40.4092 36.169 40.4092C38.1388 40.4092 39.7502 42.0242 39.7502 43.9983C39.7526 45.9725 38.1604 47.5875 36.169 47.5875Z" fill="#589CE7"/>
</svg>
