<svg width="68" height="61" viewBox="0 0 68 61" fill="none" xmlns="http://www.w3.org/2000/svg">
<path d="M20.7594 6.04055C20.7594 6.8958 21.2035 7.64472 21.9518 8.28246C22.6993 8.91944 23.7577 9.45249 25.0085 9.88051C27.5109 10.7368 30.8085 11.1811 34.0035 11.1811C37.2001 11.1811 40.4977 10.7368 42.9997 9.88051C44.2503 9.45248 45.3084 8.91943 46.0556 8.28244C46.8037 7.6447 47.2475 6.89578 47.2475 6.04055C47.2475 5.18529 46.8034 4.43637 46.0551 3.79864C45.3076 3.16166 44.2492 2.62861 42.9984 2.20058C40.496 1.34427 37.1984 0.9 34.0035 0.9C30.8085 0.9 27.5109 1.34427 25.0085 2.20058C23.7577 2.62861 22.6993 3.16166 21.9518 3.79864C21.2035 4.43637 20.7594 5.18529 20.7594 6.04055ZM22.6516 6.02031C22.6516 5.72919 22.8928 5.37211 23.4156 4.99313C23.9316 4.61905 24.697 4.24228 25.6856 3.90633C27.6617 3.23478 30.5135 2.73175 34.0035 2.73175C37.4935 2.73175 40.3454 3.2348 42.3214 3.90636C43.31 4.24232 44.0754 4.61909 44.5914 4.99317C45.1141 5.37214 45.3553 5.72921 45.3553 6.02031C45.3553 6.1641 45.2967 6.32539 45.1688 6.50083C45.041 6.67614 44.8477 6.86035 44.589 7.04741C44.0716 7.42153 43.3046 7.79831 42.315 8.13428C40.3367 8.80584 37.4848 9.30887 34.0035 9.30887C30.5221 9.30887 27.6702 8.80582 25.6919 8.13424C24.7023 7.79827 23.9353 7.42149 23.4179 7.04738C23.1592 6.86032 22.9659 6.67611 22.8381 6.5008C22.7102 6.32537 22.6516 6.16409 22.6516 6.02031Z" fill="#589CE7" stroke="#589CE7" stroke-width="0.2"/>
<path d="M24.9058 34.7592L24.9059 34.7592C26.4715 35.6601 29.7479 37.1832 34.0518 37.2048L34.0522 37.2089H34.1443C37.3699 37.2089 40.6096 36.3327 43.3146 34.7252L43.3147 34.7252C44.5334 33.9994 45.5267 33.1748 46.2164 32.3424C46.9047 31.5116 47.2984 30.6635 47.2984 29.8926V6.02391C47.2984 5.49684 46.8776 5.08945 46.3436 5.08945C45.8083 5.08945 45.3888 5.51503 45.3888 6.02391V29.8926C45.3888 30.0759 45.3219 30.3003 45.1831 30.5565C45.0449 30.8117 44.8385 31.0925 44.5678 31.3867C44.0266 31.975 43.2344 32.6106 42.2364 33.1966C40.2406 34.3684 37.4313 35.3366 34.1822 35.3366C30.9156 35.3366 28.0341 34.3608 25.9703 33.1845C24.9384 32.5964 24.1134 31.9595 23.5479 31.3722C23.2651 31.0785 23.0489 30.7989 22.9039 30.5457C22.7582 30.2913 22.6885 30.0706 22.6885 29.8926V6.02391C22.6885 5.49684 22.2677 5.08945 21.7337 5.08945C21.1984 5.08945 20.7789 5.51503 20.7789 6.02391V29.909C20.7789 30.6987 21.1727 31.5428 21.8797 32.3697C22.5876 33.1978 23.6167 34.0171 24.9058 34.7592Z" fill="#589CE7" stroke="#589CE7" stroke-width="0.2"/>
<path d="M47.2824 19.5143V19.5132C47.2824 18.9861 46.8616 18.5787 46.3276 18.5787C45.7923 18.5787 45.3728 19.0043 45.3728 19.5132C45.3728 19.657 45.3141 19.8182 45.1862 19.9937C45.0584 20.169 44.8651 20.3532 44.6064 20.5403C44.089 20.9144 43.322 21.2912 42.3323 21.6271C40.354 22.2987 37.5022 22.8017 34.0209 22.8017C30.5394 22.8017 27.6875 22.3037 25.7093 21.6347C24.7196 21.3 23.9527 20.9239 23.4354 20.5489C22.9116 20.1692 22.669 19.8096 22.669 19.5132C22.669 18.9861 22.2482 18.5787 21.7142 18.5787C21.1789 18.5787 20.7594 19.0043 20.7594 19.5132C20.7594 20.3684 21.2035 21.1173 21.9518 21.7551C22.6993 22.3921 23.7577 22.9251 25.0085 23.3531C27.5109 24.2094 30.8085 24.6537 34.0034 24.6537C37.1984 24.6537 40.4951 24.2094 43.0015 23.3532C44.2543 22.9251 45.3157 22.3921 46.0682 21.7553C46.8214 21.1178 47.2724 20.3693 47.2824 19.5143Z" fill="#589CE7" stroke="#589CE7" stroke-width="0.2"/>
<path d="M47.2824 12.5446V12.5434C47.2824 12.0164 46.8616 11.609 46.3276 11.609C45.7923 11.609 45.3728 12.0346 45.3728 12.5434C45.3728 12.6872 45.3141 12.8485 45.1862 13.024C45.0584 13.1993 44.8651 13.3835 44.6064 13.5706C44.089 13.9447 43.322 14.3215 42.3323 14.6574C40.354 15.329 37.5022 15.832 34.0209 15.832C30.5394 15.832 27.6875 15.334 25.7093 14.665C24.7196 14.3303 23.9527 13.9541 23.4354 13.5792C22.9116 13.1995 22.669 12.8398 22.669 12.5434C22.669 12.0164 22.2482 11.609 21.7142 11.609C21.1789 11.609 20.7594 12.0346 20.7594 12.5434C20.7594 13.3987 21.2035 14.1476 21.9518 14.7854C22.6993 15.4223 23.7577 15.9554 25.0085 16.3834C27.5109 17.2397 30.8085 17.684 34.0034 17.684C37.1983 17.684 40.495 17.2448 43.0014 16.3911C44.2542 15.9643 45.3157 15.4319 46.0682 14.7941C46.8216 14.1555 47.2724 13.4044 47.2824 12.5446Z" fill="#589CE7" stroke="#589CE7" stroke-width="0.2"/>
<path d="M47.2824 25.7204V25.7192C47.2824 25.1922 46.8616 24.7848 46.3276 24.7848C45.7923 24.7848 45.3728 25.2103 45.3728 25.7192C45.3728 25.863 45.3141 26.0243 45.1862 26.1997C45.0584 26.3751 44.8651 26.5593 44.6064 26.7463C44.089 27.1204 43.322 27.4972 42.3323 27.8332C40.354 28.5048 37.5022 29.0078 34.0209 29.0078C30.5394 29.0078 27.6875 28.5098 25.7093 27.8407C24.7196 27.506 23.9527 27.1299 23.4354 26.7549C22.9116 26.3752 22.669 26.0156 22.669 25.7192C22.669 25.1922 22.2482 24.7848 21.7142 24.7848C21.1789 24.7848 20.7594 25.2103 20.7594 25.7192C20.7594 26.5745 21.2035 27.3234 21.9518 27.9611C22.6993 28.5981 23.7577 29.1312 25.0085 29.5592C27.5109 30.4155 30.8085 30.8598 34.0034 30.8598C37.1984 30.8598 40.4951 30.4155 43.0015 29.5592C44.2543 29.1312 45.3157 28.5982 46.0682 27.9614C46.8214 27.3238 47.2724 26.5753 47.2824 25.7204Z" fill="#589CE7" stroke="#589CE7" stroke-width="0.2"/>
<path d="M35.0986 49.8857L35.0987 49.8857V49.882V36.2534C35.0987 35.7263 34.6779 35.3189 34.1439 35.3189C33.6086 35.3189 33.1891 35.7445 33.1891 36.2534V49.882C33.1891 50.4104 33.6285 50.8165 34.1439 50.8165C34.6626 50.8165 35.0794 50.4079 35.0986 49.8857Z" fill="#589CE7" stroke="#589CE7" stroke-width="0.2"/>
<path d="M4.9625 44.5641C4.9625 45.0924 5.40196 45.4985 5.91731 45.4985C6.43075 45.4985 6.87393 45.0771 6.85542 44.5793V19.2826H21.6953C22.2293 19.2826 22.6501 18.8752 22.6501 18.3481C22.6501 17.8198 22.2107 17.4137 21.6953 17.4137H5.91731C5.38199 17.4137 4.9625 17.8392 4.9625 18.3481V44.5641Z" fill="#589CE7" stroke="#589CE7" stroke-width="0.2"/>
<path d="M3.18897 54.7829H8.63965C9.90274 54.7829 10.9307 53.7853 10.913 52.5606V45.8687C10.913 44.6457 9.8866 43.6471 8.63965 43.6471H3.18897C1.94211 43.6471 0.915625 44.6456 0.915625 45.8687V52.5613C0.915625 53.7843 1.94202 54.7829 3.18897 54.7829ZM2.80792 45.869C2.80792 45.6664 2.97544 45.4994 3.18897 45.4994H8.63965C8.85318 45.4994 9.0207 45.6664 9.0207 45.869V52.5616C9.0207 52.7643 8.85318 52.9312 8.63965 52.9312H3.18897C2.97543 52.9312 2.80792 52.7643 2.80792 52.5616V45.869Z" fill="#589CE7" stroke="#589CE7" stroke-width="0.2"/>
<path d="M1.85481 48.9584H9.97727C10.4926 48.9584 10.9321 48.5523 10.9321 48.0239C10.9321 47.4955 10.4926 47.0895 9.97727 47.0895H1.85481C1.32082 47.0895 0.9 47.4968 0.9 48.0239C0.9 48.5523 1.33946 48.9584 1.85481 48.9584Z" fill="#589CE7" stroke="#589CE7" stroke-width="0.2"/>
<path d="M31.4155 60.1003H36.8662C38.1125 60.1003 39.1396 59.1191 39.1396 57.8787V51.1861C39.1396 49.9631 38.1132 48.9645 36.8662 48.9645H31.4155C30.1687 48.9645 29.1422 49.963 29.1422 51.1861V57.8787C29.1422 59.1017 30.1686 60.1003 31.4155 60.1003ZM31.0345 51.1864C31.0345 50.9837 31.202 50.8168 31.4155 50.8168H36.8662C37.0797 50.8168 37.2473 50.9837 37.2473 51.1864V57.879C37.2473 58.0817 37.0797 58.2486 36.8662 58.2486H31.4155C31.202 58.2486 31.0345 58.0817 31.0345 57.879V51.1864Z" fill="#589CE7" stroke="#589CE7" stroke-width="0.2"/>
<path d="M30.0814 54.2758H38.2038C38.7192 54.2758 39.1586 53.8697 39.1586 53.3413C39.1586 52.8129 38.7192 52.4068 38.2038 52.4068H30.0814C29.5474 52.4068 29.1266 52.8142 29.1266 53.3413C29.1266 53.8697 29.566 54.2758 30.0814 54.2758Z" fill="#589CE7" stroke="#589CE7" stroke-width="0.2"/>
<path d="M61.1322 44.5646C61.1322 45.093 61.5717 45.4991 62.087 45.4991C62.602 45.4991 63.0436 45.0761 63.0251 44.5629V18.3315C63.0251 17.8032 62.5857 17.3971 62.0703 17.3971H46.2923C45.7583 17.3971 45.3375 17.8044 45.3375 18.3315C45.3375 18.8599 45.777 19.266 46.2923 19.266H61.1322V44.5646Z" fill="#589CE7" stroke="#589CE7" stroke-width="0.2"/>
<path d="M59.3569 54.7829H64.8076C66.0724 54.7829 67.081 53.7839 67.081 52.5613V45.8687C67.081 44.6457 66.0546 43.6471 64.8076 43.6471H59.3569C58.1101 43.6471 57.0836 44.6456 57.0836 45.8687V52.5613C57.0836 53.7843 58.11 54.7829 59.3569 54.7829ZM58.9759 45.869C58.9759 45.6664 59.1434 45.4994 59.3569 45.4994H64.8076C65.0212 45.4994 65.1887 45.6664 65.1887 45.869V52.5616C65.1887 52.7643 65.0212 52.9312 64.8076 52.9312H59.3569C59.1434 52.9312 58.9759 52.7643 58.9759 52.5616V45.869Z" fill="#589CE7" stroke="#589CE7" stroke-width="0.2"/>
<path d="M58.0228 48.9584H66.1452C66.6606 48.9584 67.1 48.5523 67.1 48.0239C67.1 47.4955 66.6606 47.0895 66.1452 47.0895H58.0228C57.4888 47.0895 57.068 47.4968 57.068 48.0239C57.068 48.5523 57.5074 48.9584 58.0228 48.9584Z" fill="#589CE7" stroke="#589CE7" stroke-width="0.2"/>
</svg>
