<svg width="60" height="60" viewBox="0 0 60 60" fill="none" xmlns="http://www.w3.org/2000/svg">
<path d="M48.6719 11.0218C48.6719 12.3379 48.0635 13.6411 46.8814 14.857C45.6994 16.0729 43.9668 17.1777 41.7826 18.1083C39.5984 19.0389 37.0055 19.7771 34.1517 20.2807C31.2979 20.7844 28.2393 21.0436 25.1504 21.0436C18.9121 21.0436 12.9293 19.9877 8.51819 18.1083C4.10706 16.2288 1.62891 13.6798 1.62891 11.0218C1.62891 9.70572 2.23731 8.40253 3.41937 7.18663C4.60144 5.97073 6.33402 4.86593 8.51819 3.93532C10.7024 3.00471 13.2954 2.26651 16.1491 1.76286C19.0029 1.25922 22.0615 1 25.1504 1C28.2393 1 31.2979 1.25922 34.1517 1.76286C37.0055 2.26651 39.5984 3.00471 41.7826 3.93532C43.9668 4.86593 45.6994 5.97073 46.8814 7.18663C48.0635 8.40253 48.6719 9.70572 48.6719 11.0218Z" stroke="#589CE7" stroke-width="2" stroke-linecap="round" stroke-linejoin="round"/>
<path d="M48.6719 47.1006C48.6719 48.8598 47.5851 50.588 45.5206 52.1115C43.4562 53.635 40.4869 54.9001 36.9112 55.7797C33.3354 56.6593 29.2793 57.1224 25.1504 57.1224C21.0215 57.1224 16.9654 56.6593 13.3897 55.7797C9.81393 54.9001 6.84463 53.635 4.78019 52.1115C2.71575 50.588 1.62891 48.8598 1.62891 47.1006" stroke="#589CE7" stroke-width="2" stroke-linecap="round" stroke-linejoin="round"/>
<path d="M48.6719 35.0742C48.6719 36.8334 47.5851 38.5616 45.5206 40.0851C43.4562 41.6086 40.4869 42.8738 36.9112 43.7534C33.3354 44.633 29.2793 45.096 25.1504 45.096C21.0215 45.096 16.9654 44.633 13.3897 43.7534C9.81394 42.8738 6.84463 41.6086 4.78019 40.0851C2.71575 38.5616 1.62891 36.8334 1.62891 35.0742" stroke="#589CE7" stroke-width="2" stroke-linecap="round" stroke-linejoin="round"/>
<path d="M48.6719 23.0479C48.6719 24.807 47.5851 26.5352 45.5206 28.0588C43.4562 29.5823 40.4869 30.8474 36.9112 31.727C33.3354 32.6066 29.2793 33.0697 25.1504 33.0697C21.0215 33.0697 16.9654 32.6066 13.3897 31.727C9.81393 30.8474 6.84463 29.5823 4.78019 28.0588C2.71575 26.5352 1.62891 24.807 1.62891 23.0479" stroke="#589CE7" stroke-width="2" stroke-linecap="round" stroke-linejoin="round"/>
<path d="M1.62891 11.0215V47.0999" stroke="#589CE7" stroke-width="2" stroke-linecap="round" stroke-linejoin="round"/>
<path d="M48.6719 11.0215V47.1" stroke="#589CE7" stroke-width="2" stroke-linecap="round" stroke-linejoin="round"/>
<circle cx="45.0739" cy="45.61" r="14.3903" fill="white"/>
<path d="M44.0019 33.1826L55.2655 38.6684V52.3827L44.0019 57.8553L32.7383 52.3827V38.6684L44.0019 33.1826ZM52.4631 39.1958L44.0019 35.0815L40.7392 36.664L49.1463 40.8046L52.4631 39.1958ZM44.0019 43.3101L47.2239 41.7541L38.8033 37.6134L35.5406 39.1958L44.0019 43.3101ZM34.4711 40.5673V51.3278L43.1355 55.5476V44.7871L34.4711 40.5673ZM44.8683 55.5476L53.5326 51.3278V40.5673L44.8683 44.7871V55.5476Z" fill="#589CE7"/>
</svg>
