<svg width="52" height="61" viewBox="0 0 52 61" fill="none" xmlns="http://www.w3.org/2000/svg">
<path d="M30.4994 15.3993H45.2628C45.7746 15.3993 46.1802 14.9937 46.1802 14.4819C46.1802 13.97 45.7746 13.5645 45.2628 13.5645H30.4994C29.9876 13.5645 29.582 13.97 29.582 14.4819C29.582 14.9937 29.9876 15.3993 30.4994 15.3993Z" fill="#589CE7" stroke="#589CE7" stroke-width="0.5"/>
<path d="M44.3594 14.4815C44.3594 16.1138 45.6719 17.4279 47.2924 17.4279C48.9113 17.4279 50.2388 16.1154 50.2388 14.4815C50.2388 12.8476 48.9113 11.5352 47.2924 11.5352C45.6719 11.5352 44.3594 12.8493 44.3594 14.4815ZM46.1942 14.4815C46.1942 13.8689 46.6862 13.37 47.2924 13.37C47.9051 13.37 48.4039 13.8619 48.4039 14.4682C48.4039 15.0776 47.9018 15.5797 47.2924 15.5797C46.6947 15.5797 46.1942 15.0894 46.1942 14.4815Z" fill="#589CE7" stroke="#589CE7" stroke-width="0.5"/>
<path d="M30.4995 23.4081H40.8578C41.3696 23.4081 41.7752 23.0025 41.7752 22.4907C41.7752 21.9788 41.3696 21.5732 40.8578 21.5732H30.4995C29.9876 21.5732 29.582 21.9788 29.582 22.4907C29.582 23.0025 29.9876 23.4081 30.4995 23.4081Z" fill="#589CE7" stroke="#589CE7" stroke-width="0.5"/>
<path d="M39.9414 22.5043C39.9414 24.1241 41.2547 25.4374 42.8744 25.4374C44.5067 25.4374 45.8208 24.1249 45.8208 22.5043C45.8208 20.883 44.4926 19.5713 42.8744 19.5713C41.2547 19.5713 39.9414 20.8846 39.9414 22.5043ZM41.7762 22.491C41.7762 21.8933 42.2666 21.3928 42.8744 21.3928C43.4855 21.3928 43.986 21.8965 43.986 22.491C43.986 23.0855 43.4855 23.5892 42.8744 23.5892C42.2767 23.5892 41.7762 23.0988 41.7762 22.491Z" fill="#589CE7" stroke="#589CE7" stroke-width="0.5"/>
<path d="M30.4994 31.4178H45.2628C45.7746 31.4178 46.1802 31.0123 46.1802 30.5004C46.1802 29.9886 45.7746 29.583 45.2628 29.583H30.4994C29.9876 29.583 29.582 29.9886 29.582 30.5004C29.582 31.0123 29.9876 31.4178 30.4994 31.4178Z" fill="#589CE7" stroke="#589CE7" stroke-width="0.5"/>
<path d="M50.2388 30.5154H50.2388V30.5131C50.2388 28.8918 48.9105 27.5801 47.2924 27.5801C45.6727 27.5801 44.3594 28.8934 44.3594 30.5131C44.3594 32.1329 45.6727 33.4461 47.2924 33.4461C48.9126 33.4461 50.2242 32.1329 50.2388 30.5154ZM46.1942 30.4998C46.1942 29.9021 46.6846 29.4016 47.2924 29.4016C47.8988 29.4016 48.3918 29.8877 48.4039 30.5153C48.4027 31.1088 47.9027 31.6113 47.2924 31.6113C46.6979 31.6113 46.1942 31.1108 46.1942 30.4998Z" fill="#589CE7" stroke="#589CE7" stroke-width="0.5"/>
<path d="M30.4995 39.4393H40.8578C41.3696 39.4393 41.7752 39.0337 41.7752 38.5219C41.7752 38.0101 41.3696 37.6045 40.8578 37.6045H30.4995C29.9876 37.6045 29.582 38.0101 29.582 38.5219C29.582 39.0337 29.9876 39.4393 30.4995 39.4393Z" fill="#589CE7" stroke="#589CE7" stroke-width="0.5"/>
<path d="M39.9414 38.5225C39.9414 40.1423 41.2547 41.4556 42.8744 41.4556C44.5059 41.4556 45.8208 40.1573 45.8208 38.5225C45.8208 36.8887 44.4934 35.5762 42.8744 35.5762C41.2531 35.5762 39.9414 36.9044 39.9414 38.5225ZM41.7762 38.5225C41.7762 37.9099 42.2682 37.411 42.8744 37.411C43.4839 37.411 43.986 37.9131 43.986 38.5225C43.986 39.117 43.4855 39.6207 42.8744 39.6207C42.2767 39.6207 41.7762 39.1304 41.7762 38.5225Z" fill="#589CE7" stroke="#589CE7" stroke-width="0.5"/>
<path d="M30.4994 47.4491H45.2628C45.7746 47.4491 46.1802 47.0435 46.1802 46.5317C46.1802 46.0199 45.7746 45.6143 45.2628 45.6143H30.4994C29.9876 45.6143 29.582 46.0199 29.582 46.5317C29.582 47.0435 29.9876 47.4491 30.4994 47.4491Z" fill="#589CE7" stroke="#589CE7" stroke-width="0.5"/>
<path d="M44.3594 46.518C44.3594 48.1503 45.6719 49.4644 47.2924 49.4644C48.9122 49.4644 50.2388 48.1377 50.2388 46.518C50.2388 44.8966 48.9105 43.585 47.2924 43.585C45.6735 43.585 44.3594 44.8841 44.3594 46.518ZM46.1942 46.518C46.1942 45.9203 46.6846 45.4198 47.2924 45.4198C47.8986 45.4198 48.3918 45.9191 48.4039 46.5203C48.4027 47.1287 47.9011 47.6295 47.2924 47.6295C46.6979 47.6295 46.1942 47.129 46.1942 46.518Z" fill="#589CE7" stroke="#589CE7" stroke-width="0.5"/>
<path d="M40.2272 4.46746L40.227 4.46727L40.2192 4.4758L37.397 7.57116H30.4994C29.9876 7.57116 29.582 7.97676 29.582 8.48858C29.582 9.00041 29.9876 9.406 30.4994 9.406H37.801C38.0619 9.406 38.297 9.29386 38.4717 9.1192L38.4719 9.11939L38.4797 9.11087L41.3019 6.01551H46.5976C47.1095 6.01551 47.5151 5.60991 47.5151 5.09809C47.5151 4.58626 47.1095 4.18066 46.5976 4.18066H40.8979C40.637 4.18066 40.4019 4.2928 40.2272 4.46746Z" fill="#589CE7" stroke="#589CE7" stroke-width="0.5"/>
<path d="M45.668 5.09775C45.668 6.73165 46.9954 8.04413 48.6144 8.04413C50.2349 8.04413 51.5474 6.73003 51.5474 5.09775C51.5474 3.46628 50.2491 2.15137 48.6144 2.15137C46.9813 2.15137 45.668 3.46465 45.668 5.09775ZM47.5028 5.0844C47.5028 4.4899 48.0033 3.98621 48.6144 3.98621C49.2238 3.98621 49.7125 4.47496 49.7125 5.0844C49.7125 5.69706 49.2206 6.19594 48.6144 6.19594C48.0065 6.19594 47.5028 5.68208 47.5028 5.0844Z" fill="#589CE7" stroke="#589CE7" stroke-width="0.5"/>
<path d="M35.0001 56.8328H40.6999C41.1951 56.8328 41.6173 56.4304 41.6173 55.9153C41.6173 55.4035 41.2117 54.9979 40.6999 54.9979H35.4042L32.583 51.9038C32.5828 51.9035 32.5826 51.9033 32.5824 51.9031C32.4121 51.7142 32.1564 51.6074 31.9033 51.6074H30.5151C30.0033 51.6074 29.5977 52.013 29.5977 52.5248C29.5977 53.0367 30.0033 53.4423 30.5151 53.4423H31.4993L34.3204 56.5364C34.3206 56.5367 34.3208 56.5369 34.321 56.5371C34.4914 56.726 34.747 56.8328 35.0001 56.8328Z" fill="#589CE7" stroke="#589CE7" stroke-width="0.5"/>
<path d="M43.8102 55.8972L43.8102 55.8972V55.9018C43.8102 56.5144 43.3182 57.0133 42.712 57.0133C42.1026 57.0133 41.6005 56.5112 41.6005 55.9018C41.6005 55.3073 42.101 54.8036 42.712 54.8036C43.324 54.8036 43.821 55.3072 43.8102 55.8972ZM39.7656 55.9018C39.7656 57.5357 41.0931 58.8482 42.712 58.8482C44.3334 58.8482 45.645 57.5199 45.645 55.9018C45.645 54.2828 44.3459 52.9688 42.712 52.9688C41.0805 52.9688 39.7656 54.2671 39.7656 55.9018Z" fill="#589CE7" stroke="#589CE7" stroke-width="0.5"/>
<path d="M7.3506 17.5019L7.35105 17.5023L12.477 22.6023C12.4658 22.6287 12.4545 22.6551 12.4432 22.6815C12.3527 22.8936 12.262 23.1061 12.1757 23.3222H4.93778C2.62447 23.3222 0.75 25.1955 0.75 27.4966V33.4767C0.75 35.7911 2.63782 37.6645 4.93778 37.6645H12.162C12.2584 37.9082 12.3602 38.1503 12.4626 38.3861L7.35137 43.4973C7.35126 43.4974 7.35115 43.4976 7.35104 43.4977C5.71721 45.1176 5.71844 47.7724 7.3506 49.4046L11.582 53.6361C13.2147 55.2688 15.8692 55.2688 17.5019 53.6361L22.6121 48.5258C22.856 48.6342 23.0944 48.731 23.3355 48.8251V56.0622C23.3355 58.3755 25.2089 60.25 27.51 60.25H30.5C31.0134 60.25 31.4126 59.8447 31.4306 59.3415L31.4308 59.3415V59.3326V1.66742C31.4308 1.15559 31.0252 0.75 30.5133 0.75H27.5233C25.2089 0.75 23.3355 2.63782 23.3355 4.93778V12.1754C23.0918 12.2718 22.8497 12.3735 22.6139 12.4759L17.5019 7.36395C15.8692 5.73125 13.2147 5.73125 11.582 7.36395L7.3506 11.5954C6.5697 12.3763 6.12941 13.4276 6.12941 14.5486C6.12941 15.6697 6.5697 16.721 7.3506 17.5019ZM22.8142 46.6138L22.8144 46.6135L22.803 46.6087C22.6874 46.5591 22.5467 46.5217 22.4109 46.5217C22.173 46.5217 21.9328 46.6136 21.7497 46.8124L16.1872 52.3748C15.2704 53.2917 13.7868 53.2917 12.87 52.3748L8.63854 48.1434C7.72169 47.2265 7.72169 45.743 8.63854 44.8261L14.2048 39.2598C14.4793 38.9854 14.5531 38.5649 14.3875 38.2151L14.3862 38.2125C14.1113 37.6496 13.8746 37.0583 13.6632 36.4637C13.5334 36.0936 13.1829 35.8563 12.8 35.8563H4.93778C3.64924 35.8563 2.59819 34.7953 2.59819 33.5034V27.5233C2.59819 26.2331 3.64757 25.1837 4.93778 25.1837H12.8133C13.1962 25.1837 13.5466 24.9465 13.6765 24.5764C13.8879 23.9818 14.1246 23.3905 14.3995 22.8276L14.3995 22.8276L14.4008 22.8249C14.5665 22.4752 14.4926 22.0547 14.2182 21.7802L8.65189 16.2139C8.20541 15.7675 7.96425 15.1772 7.96425 14.5486C7.96425 13.9074 8.20493 13.3303 8.65189 12.8833L12.8833 8.65189C13.8002 7.73504 15.2837 7.73504 16.2006 8.65189L21.7667 14.2313L21.7669 14.2315C22.0413 14.506 22.4618 14.5798 22.8115 14.4142L22.8122 14.4139C23.3909 14.1377 23.9699 13.9007 24.563 13.6899C24.9331 13.5601 25.1704 13.2096 25.1704 12.8267V4.95113C25.1704 3.64674 26.2206 2.59819 27.51 2.59819H29.5826V58.4285H27.51C26.2214 58.4285 25.1704 57.3674 25.1704 56.0756V48.2C25.1704 47.817 24.933 47.4664 24.5626 47.3367C23.9682 47.1253 23.377 46.8887 22.8142 46.6138Z" fill="#589CE7" stroke="#589CE7" stroke-width="0.5"/>
<path d="M18.7031 30.5132C18.7031 37.0184 23.9942 42.3096 30.4995 42.3096C31.0113 42.3096 31.4169 41.904 31.4169 41.3921C31.4169 40.8803 31.0113 40.4747 30.4995 40.4747C25.0045 40.4747 20.538 36.0081 20.538 30.5132C20.538 25.0182 25.0045 20.5516 30.4995 20.5516C31.0113 20.5516 31.4169 20.146 31.4169 19.6342C31.4169 19.1224 31.0113 18.7168 30.4995 18.7168C23.9942 18.7168 18.7031 24.0079 18.7031 30.5132Z" fill="#589CE7" stroke="#589CE7" stroke-width="0.5"/>
</svg>
