<svg width="193" height="163" viewBox="0 0 193 163" fill="none" xmlns="http://www.w3.org/2000/svg">
<g opacity="0.4">
<path d="M61.9221 17.7896C61.9221 17.7896 35.9706 18.0846 31.4364 37.1058C27.1603 54.9106 43.0851 64.2738 24.1007 76.9547C5.11627 89.6356 15.2904 134.866 50.9369 124.913C86.5834 114.997 82.1599 89.4512 108.664 86.8708C148.255 83.0371 139.261 13.9928 61.9221 17.7896Z" fill="#CAD3DD" fill-opacity="0.7"/>
</g>
<path d="M132.625 52.3317C133.03 53.9537 133.399 55.5757 133.657 57.1976C133.694 57.3819 133.988 57.3082 133.952 57.1239C133.472 54.138 132.772 51.189 131.74 48.3505C130.781 45.6227 129.528 42.9685 127.869 40.6093C127.021 39.4297 126.063 38.3238 124.92 37.4022C124.773 37.2916 124.552 37.5128 124.699 37.6234C126.8 39.3191 128.312 41.6046 129.528 43.9638" fill="#C7D0DA"/>
<path d="M17.4646 77.2869C14.8473 80.6783 12.9304 84.5858 11.8614 88.7144C10.7924 92.8431 10.4975 97.1929 11.0504 101.432C11.3822 103.828 11.972 106.224 12.8567 108.473C12.9304 108.657 13.2253 108.584 13.1516 108.399C11.6402 104.455 10.9398 100.216 11.0873 95.9764C11.2347 91.7372 12.23 87.5348 13.9626 83.6642C14.9579 81.4893 16.2112 79.425 17.6858 77.5081C17.7963 77.3606 17.5752 77.1395 17.4646 77.2869Z" fill="#C7D0DA"/>
<path d="M83.9284 106.591C79.5417 112.858 73.6804 118.093 66.9714 121.742C65.0545 122.774 63.0639 123.696 61.0365 124.47C60.8521 124.544 60.9259 124.839 61.1102 124.765C64.7227 123.401 68.1879 121.595 71.3949 119.42C74.5652 117.245 77.5142 114.701 80.1315 111.863C81.606 110.241 82.9699 108.545 84.2233 106.739C84.297 106.591 84.0389 106.444 83.9284 106.591Z" fill="#C7D0DA"/>
<path d="M63.5483 0.761719L63.364 22.7689C63.364 22.7689 38.1866 21.7736 31.0352 36.4819V10.8253C31.0352 10.7884 30.9983 1.60957 63.5483 0.761719Z" fill="#CAD3DD"/>
<path d="M61.0047 6.03155C61.0047 6.21586 60.8204 6.36331 60.6361 6.36331C60.5993 6.36331 56.2494 6.06841 50.72 6.91626C45.6329 7.69038 38.4815 9.60725 33.2101 14.3626C32.3622 15.0998 31.6618 15.9108 31.0352 16.7218V15.5791C31.5512 14.9524 32.141 14.3626 32.7309 13.8096C35.1269 11.6716 38.076 9.90216 41.5042 8.57509C44.269 7.50607 47.3286 6.73194 50.6094 6.21586C56.2126 5.36801 60.5992 5.66292 60.673 5.66292C60.8573 5.66292 61.0047 5.84723 61.0047 6.03155Z" fill="white"/>
<path d="M61.0047 10.2718C61.0047 10.4561 60.8204 10.6036 60.6361 10.6036C60.5993 10.6036 56.1757 10.3455 50.6831 11.2303C45.6329 12.0412 38.6658 14.0318 33.9473 18.824C32.7677 20.0036 31.8093 21.257 31.0352 22.5472V21.2201C31.7356 20.188 32.5465 19.2295 33.4312 18.3079C35.5693 16.133 38.3709 14.3267 41.6885 12.9628C44.3427 11.8569 47.3286 11.0459 50.6094 10.5299C56.1757 9.64515 60.673 9.90319 60.7098 9.90319C60.8573 9.90319 61.0047 10.0875 61.0047 10.2718Z" fill="white"/>
<path d="M61.0025 14.1409C61.0025 14.3252 60.8182 14.5095 60.6339 14.4726C60.5971 14.4726 56.2104 14.2883 50.7546 15.2836C45.7413 16.2052 38.7742 18.2695 34.0557 23.0986C32.8024 24.3519 31.8071 25.679 30.9961 27.0429V25.679C31.7334 24.5731 32.5812 23.5409 33.5396 22.5825C35.6777 20.4076 38.4424 18.5644 41.7601 17.1636C44.3773 16.0578 47.3632 15.173 50.6072 14.5832C56.1366 13.5879 60.5971 13.7723 60.6339 13.7723C60.8551 13.7723 61.0025 13.9566 61.0025 14.1409Z" fill="white"/>
<path d="M60.8522 18.2349C60.8522 18.4192 60.6679 18.6035 60.4835 18.6035C60.4467 18.6035 56.06 18.5298 50.6411 19.6357C45.6646 20.631 38.7344 22.8796 34.1265 27.7824C32.91 29.0726 31.9516 30.4365 31.1775 31.8005L31.1406 30.4365C31.8779 29.2938 32.6889 28.2616 33.6104 27.2663C35.7116 25.0177 38.4395 23.1377 41.7203 21.6631C44.3376 20.4835 47.2866 19.562 50.5305 18.8984C56.0231 17.7925 60.4835 17.8663 60.5204 17.8663C60.7047 17.8663 60.8522 18.0506 60.8522 18.2349Z" fill="white"/>
<path d="M38.1866 17.4962V43.1896C38.1866 43.1896 31.4038 41.4939 31.0352 36.1488V10.6396C31.0352 10.6396 33.2101 16.5377 38.1866 17.4962Z" fill="#C7D0DA"/>
<path d="M14.998 34.6753C14.9612 34.6753 14.8874 34.6753 14.8506 34.6384C14.7769 34.6016 14.7031 34.491 14.7031 34.3804V27.5239C14.7031 27.4133 14.7769 27.3027 14.8506 27.2658L17.3941 25.9388C17.4678 25.9019 17.5784 25.9019 17.689 25.9388C17.7628 25.9756 17.8365 26.0862 17.8365 26.1968V33.0533C17.8365 33.1639 17.7628 33.2745 17.689 33.3114L15.1455 34.6384C15.0718 34.6384 15.0349 34.6753 14.998 34.6753ZM15.2929 27.7082V33.9012L17.2467 32.869V26.676L15.2929 27.7082Z" fill="#C7D0DA"/>
<path d="M24.4014 33.3487H17.5449C17.3975 33.3487 17.25 33.2012 17.25 33.0538V26.1972C17.25 26.0498 17.3975 25.9023 17.5449 25.9023H24.4014C24.5489 25.9023 24.6963 26.0498 24.6963 26.1972V33.0538C24.6963 33.2012 24.5489 33.3487 24.4014 33.3487ZM17.8398 32.7589H24.1065V26.4922H17.8398V32.7589Z" fill="#C7D0DA"/>
<path d="M21.8195 34.6757H14.9998C14.8524 34.6757 14.7418 34.5651 14.7049 34.4545C14.668 34.307 14.7418 34.1964 14.8524 34.1227L17.3959 32.7957C17.4328 32.7588 17.4696 32.7588 17.5433 32.7588H24.3999C24.5473 32.7588 24.6579 32.8694 24.6948 32.98C24.7316 33.1274 24.6579 33.238 24.5473 33.3117L22.0038 34.6388C21.93 34.6388 21.8932 34.6757 21.8195 34.6757ZM16.1794 34.0859H21.7457L23.1834 33.3486H17.6171L16.1794 34.0859Z" fill="#C7D0DA"/>
<path d="M132.406 84.586L129.862 83.2589C129.752 83.222 129.715 83.1115 129.715 83.0009V76.1444C129.715 76.0338 129.752 75.96 129.862 75.8863C129.936 75.8495 130.047 75.8126 130.157 75.8863L132.701 77.2134C132.811 77.2502 132.848 77.3608 132.848 77.4714V84.3279C132.848 84.4385 132.811 84.5122 132.701 84.586C132.664 84.6228 132.59 84.6228 132.553 84.6228C132.516 84.6228 132.443 84.6228 132.406 84.586ZM130.305 76.6236V82.8166L132.258 83.8487V77.6557L130.305 76.6236Z" fill="#C7D0DA"/>
<path d="M122.859 83.001V76.1445C122.859 75.9971 123.007 75.8496 123.154 75.8496H130.011C130.158 75.8496 130.306 75.9971 130.306 76.1445V83.001C130.306 83.1485 130.158 83.2959 130.011 83.2959H123.154C123.007 83.2959 122.859 83.1485 122.859 83.001ZM129.716 76.4394H123.449V82.7061H129.716V76.4394Z" fill="#C7D0DA"/>
<path d="M125.587 84.5861L123.044 83.259C122.933 83.1853 122.859 83.0747 122.896 82.9272C122.933 82.7798 123.044 82.7061 123.191 82.7061H130.048C130.085 82.7061 130.158 82.7061 130.195 82.7429L132.739 84.07C132.849 84.1437 132.923 84.2543 132.886 84.4017C132.849 84.5492 132.739 84.6229 132.591 84.6229H125.735C125.661 84.6229 125.624 84.6229 125.587 84.5861ZM129.937 83.2959H124.371L125.808 84.0331H131.375L129.937 83.2959Z" fill="#C7D0DA"/>
<g opacity="0.4">
<path d="M139.3 24.388C139.115 23.1715 138.489 20.5174 136.203 19.559C133.217 18.3056 131.89 20.2594 127.835 22.2868C123.78 24.3143 123.154 21.2915 120.168 20.7017C117.477 20.1488 114.343 23.6508 113.717 24.388H139.3Z" fill="#CAD3DD"/>
</g>
<g opacity="0.4">
<path d="M25.5829 57.3245C25.3986 56.1081 24.7719 53.4539 22.4864 52.4955C19.5005 51.2422 18.1734 53.1959 14.1185 55.2234C10.0636 57.2508 9.43692 54.2281 6.45102 53.6383C3.76002 53.0853 0.62667 56.5873 0 57.3245H25.5829Z" fill="#CAD3DD"/>
</g>
<path d="M128.572 114.224H90.5297C89.4238 114.224 88.5391 113.339 88.5391 112.233V91.1107C88.5391 90.0048 89.4238 89.1201 90.5297 89.1201H128.609C129.715 89.1201 130.6 90.0048 130.6 91.1107V112.233C130.563 113.302 129.678 114.224 128.572 114.224Z" fill="#CAD3DD"/>
<path d="M109.548 107.958C105.603 107.958 102.359 104.751 102.359 100.769C102.359 96.825 105.566 93.5811 109.548 93.5811C113.492 93.5811 116.736 96.7881 116.736 100.769C116.736 104.751 113.492 107.958 109.548 107.958ZM106.894 97.636V103.94C106.894 104.603 107.631 105.009 108.184 104.64L113.418 101.285C113.971 100.954 113.934 100.143 113.381 99.8478L108.147 96.8987C107.594 96.567 106.894 97.0093 106.894 97.636ZM109.548 93.8022C105.714 93.8022 102.581 96.9356 102.581 100.769C102.581 104.603 105.714 107.736 109.548 107.736C113.381 107.736 116.515 104.603 116.515 100.769C116.515 96.9356 113.381 93.8022 109.548 93.8022Z" fill="white"/>
<path d="M126.912 110.5H92.1504V111.09H126.912V110.5Z" fill="#C7D0DA"/>
<path d="M114.231 110.5H92.1504V111.09H114.231V110.5Z" fill="white"/>
<path d="M115.227 110.685C115.227 111.238 114.785 111.68 114.232 111.68C113.679 111.68 113.236 111.238 113.236 110.685C113.236 110.132 113.679 109.689 114.232 109.689C114.785 109.689 115.227 110.132 115.227 110.685Z" fill="white"/>
<path d="M77.136 121.616L77.0768 121.594C76.6244 121.364 76.4087 121.219 76.4087 121.219C76.1931 121.075 76.1001 120.778 76.2438 120.568C76.3876 120.357 76.6878 120.269 76.9034 120.414C76.9034 120.414 77.1191 120.558 77.5123 120.767C77.7279 120.911 77.821 121.208 77.6772 121.419C77.6138 121.593 77.3728 121.702 77.136 121.616Z" fill="#C7D0DA"/>
<path d="M83.2491 123.872C83.0059 123.783 82.8246 123.525 82.9278 123.241C83.0105 123.014 83.2755 122.854 83.5796 122.965C84.0052 123.12 84.4917 123.297 84.9174 123.452C85.1606 123.541 85.3419 123.799 85.2593 124.026C85.1767 124.253 84.9116 124.413 84.6684 124.325C84.1613 124.204 83.6748 124.027 83.2491 123.872ZM80.6549 122.863C80.1685 122.686 79.7026 122.452 79.2976 122.24C79.0544 122.151 78.9546 121.858 79.0372 121.631C79.1198 121.405 79.425 121.323 79.6682 121.412C80.0733 121.623 80.5597 121.801 80.9647 122.012C81.208 122.101 81.3686 122.416 81.2252 122.621C81.1426 122.848 80.8982 122.951 80.6549 122.863ZM87.2637 125.142C87.0205 125.053 86.9 124.817 86.9218 124.568C87.0044 124.341 87.2694 124.18 87.5333 124.212C87.9797 124.311 88.4868 124.431 88.9331 124.53C89.197 124.561 89.3783 124.82 89.3358 125.126C89.314 125.375 89.049 125.535 88.7243 125.481C88.278 125.383 87.7708 125.262 87.2637 125.142ZM91.3827 125.936C91.1395 125.847 90.9983 125.667 91.0201 125.418C91.0419 125.169 91.307 125.009 91.5709 125.041C92.0378 125.082 92.5048 125.124 92.9511 125.222C93.215 125.254 93.417 125.456 93.456 125.727C93.4342 125.976 93.2299 126.159 92.9454 126.184C92.4784 126.142 91.9506 126.078 91.4837 126.037C91.4435 125.958 91.3827 125.936 91.3827 125.936ZM95.5453 126.232C95.3629 126.165 95.2218 125.985 95.2229 125.793C95.1839 125.522 95.4088 125.283 95.6727 125.315C96.1603 125.3 96.6273 125.341 97.0541 125.304C97.3386 125.279 97.6014 125.503 97.5796 125.752C97.6186 126.023 97.3937 126.263 97.1298 126.231C96.6422 126.246 96.1546 126.261 95.6669 126.276C95.6876 126.219 95.6061 126.254 95.5453 126.232ZM99.7114 125.951C99.5289 125.884 99.428 125.783 99.3683 125.569C99.3293 125.298 99.4727 125.093 99.7779 125.012C100.225 124.918 100.734 124.846 101.181 124.752C101.466 124.727 101.688 124.873 101.809 125.109C101.848 125.38 101.704 125.585 101.46 125.689C101.012 125.783 100.504 125.854 100.057 125.948C99.8536 125.938 99.7722 125.973 99.7114 125.951ZM103.719 124.97C103.597 124.926 103.497 124.825 103.416 124.667C103.296 124.431 103.46 124.169 103.704 124.066C104.172 123.915 104.58 123.742 104.966 123.626C105.211 123.523 105.515 123.633 105.635 123.87C105.756 124.106 105.652 124.39 105.408 124.494C105.001 124.666 104.533 124.817 104.064 124.968C103.962 125.059 103.841 125.014 103.719 124.97ZM107.466 123.381C107.345 123.337 107.244 123.236 107.204 123.157C107.083 122.92 107.126 122.615 107.37 122.511C107.798 122.281 108.145 122.086 108.572 121.857C108.817 121.753 109.081 121.785 109.283 121.987C109.403 122.224 109.381 122.473 109.177 122.655C108.749 122.885 108.382 123.136 107.954 123.366C107.77 123.492 107.588 123.425 107.466 123.381ZM110.851 121.274C110.79 121.252 110.669 121.208 110.629 121.129C110.427 120.927 110.469 120.621 110.673 120.439C111.04 120.187 111.367 119.857 111.735 119.605C111.939 119.423 112.264 119.477 112.465 119.679C112.667 119.881 112.625 120.186 112.421 120.369C112.033 120.677 111.727 120.951 111.339 121.259C111.196 121.271 111.034 121.341 110.851 121.274Z" fill="#C7D0DA"/>
<path d="M113.393 118.52C113.333 118.499 113.274 118.477 113.236 118.398C113.042 118.195 113.008 117.92 113.211 117.731C113.355 117.52 113.536 117.389 113.68 117.179C113.883 116.99 114.162 116.96 114.357 117.162C114.551 117.364 114.585 117.64 114.382 117.829C114.238 118.039 114.056 118.17 113.913 118.381C113.769 118.592 113.57 118.585 113.393 118.52Z" fill="#C7D0DA"/>
<path d="M9.15272 54.1006C9.04281 54.1006 8.96954 53.9881 8.89626 53.8756C8.89626 53.8756 8.85963 53.763 8.78635 53.5943C8.71308 53.3692 8.74972 53.0879 8.89626 52.9754C9.04281 52.8629 9.18936 52.9192 9.29927 53.1442C9.3359 53.313 9.37254 53.3692 9.37254 53.3692C9.40918 53.4255 9.40918 53.538 9.40918 53.5943C9.44581 53.8756 9.3359 54.1006 9.15272 54.1006ZM8.34671 51.5689C8.2368 51.5689 8.12689 51.4564 8.09025 51.2876C7.98034 50.8938 7.87043 50.5 7.76052 50.05C7.68725 49.8249 7.76052 49.5436 7.90707 49.4874C8.05362 49.3748 8.2368 49.4874 8.27344 49.7124C8.38335 50.1062 8.49326 50.5 8.60317 50.8938C8.67644 51.1189 8.60317 51.4002 8.45662 51.4564C8.41998 51.5689 8.38335 51.5689 8.34671 51.5689ZM7.43079 48.0246C7.32088 48.0246 7.21097 47.9121 7.17433 47.7433C7.06442 47.3495 6.99115 46.8995 6.91787 46.4494C6.88124 46.2244 6.95451 45.9993 7.10106 45.8868C7.2476 45.8305 7.39415 45.9431 7.46743 46.1681C7.5407 46.5619 7.65061 47.012 7.72388 47.4058C7.76052 47.6308 7.68725 47.8559 7.5407 47.9684C7.46743 47.9684 7.46743 48.0246 7.43079 48.0246ZM6.73469 44.3116C6.58814 44.3116 6.47823 44.199 6.44159 43.974C6.36832 43.5239 6.33168 43.0739 6.25841 42.6801C6.22177 42.455 6.33168 42.23 6.47823 42.1737C6.62478 42.1175 6.77133 42.2862 6.80796 42.5113C6.8446 42.9051 6.91787 43.3552 6.99115 43.8052C7.02778 44.0303 6.91787 44.2553 6.77133 44.3116C6.80796 44.3116 6.77133 44.3116 6.73469 44.3116ZM6.36832 40.5422C6.22177 40.5422 6.11186 40.3734 6.07523 40.1484C6.03859 39.6983 6.03859 39.2483 6.00195 38.7982C6.00195 38.5732 6.11186 38.3481 6.25841 38.3481C6.40496 38.3481 6.55151 38.5169 6.55151 38.7419C6.55151 39.192 6.58814 39.5858 6.62478 40.0359C6.66142 40.2609 6.55151 40.486 6.36832 40.5422ZM6.29505 36.7166C6.25841 36.7166 6.25841 36.7166 6.29505 36.7166C6.11186 36.7166 6.00195 36.4916 6.00195 36.2666C6.00195 35.8165 6.03859 35.3664 6.07523 34.9163C6.07523 34.6913 6.22177 34.5225 6.36832 34.5225C6.51487 34.5225 6.62478 34.7476 6.62478 34.9726C6.58814 35.4227 6.58814 35.8165 6.58814 36.2666C6.55151 36.4916 6.4416 36.7166 6.29505 36.7166ZM6.55151 32.891C6.51487 32.891 6.51487 32.891 6.47823 32.891C6.33168 32.8348 6.22177 32.6097 6.25841 32.3847C6.33168 31.9346 6.36832 31.4846 6.44159 31.0907C6.47823 30.8657 6.62478 30.6969 6.77133 30.7532C6.91787 30.8094 7.02778 31.0345 6.99115 31.2595C6.91787 31.6533 6.8446 32.1034 6.80796 32.4972C6.80796 32.7222 6.69805 32.891 6.55151 32.891ZM7.24761 29.1779C7.21097 29.1779 7.17433 29.1779 7.13769 29.1217C6.99115 29.0092 6.91787 28.7841 6.95451 28.5591C7.06442 28.1653 7.17433 27.7152 7.28424 27.3214C7.35752 27.0964 7.50406 26.9839 7.65061 27.0964C7.79716 27.2089 7.87043 27.4339 7.79716 27.659C7.68725 28.0528 7.57734 28.4466 7.46743 28.8404C7.46743 29.1217 7.35752 29.1779 7.24761 29.1779ZM8.34671 25.7462C8.31007 25.7462 8.2368 25.7462 8.20016 25.6899C8.05361 25.5774 8.01698 25.2961 8.09025 25.0711C8.2368 24.6772 8.38335 24.2834 8.56653 23.9459C8.6398 23.7208 8.82299 23.6646 8.96954 23.8334C9.11608 23.9459 9.15272 24.2272 9.04281 24.4522C8.89626 24.7898 8.74971 25.1836 8.60317 25.5211C8.52989 25.6899 8.45662 25.7462 8.34671 25.7462ZM9.77555 22.6519C9.70227 22.6519 9.629 22.5957 9.59236 22.5394C9.48245 22.3706 9.44581 22.0893 9.55572 21.9206C9.73891 21.583 9.95873 21.2455 10.1419 20.9079C10.2518 20.7391 10.435 20.7391 10.5449 20.9079C10.6548 21.0767 10.6548 21.358 10.5449 21.5267C10.3617 21.808 10.1419 22.1456 9.95873 22.4831C9.95873 22.5957 9.88546 22.6519 9.77555 22.6519ZM11.6074 20.0078C11.5341 20.0078 11.4242 19.9515 11.3876 19.839C11.2777 19.6702 11.3143 19.3889 11.4242 19.2201C11.644 18.9388 11.9005 18.6575 12.1203 18.4325C12.2668 18.32 12.4134 18.3763 12.5233 18.545C12.5966 18.7701 12.5599 18.9951 12.45 19.1639C12.2302 19.3889 11.9738 19.6702 11.7906 19.8952C11.7173 20.0078 11.644 20.0078 11.6074 20.0078ZM13.6957 17.9262C13.5858 17.9262 13.4759 17.8137 13.4392 17.7011C13.366 17.4761 13.4392 17.1948 13.5491 17.1386C13.8056 16.9135 14.0621 16.7448 14.3185 16.576C14.4651 16.4635 14.6482 16.576 14.6849 16.801C14.7582 17.026 14.6849 17.3073 14.5383 17.3636C14.2819 17.5324 14.0254 17.7012 13.769 17.9262C13.8056 17.9262 13.7323 17.9262 13.6957 17.9262ZM16.0038 16.4635C15.8939 16.4635 15.784 16.3509 15.7473 16.1822C15.7107 15.9571 15.784 15.7321 15.9305 15.6196C16.187 15.5071 16.4801 15.3383 16.7732 15.2258C16.9197 15.1695 17.0663 15.282 17.1395 15.5071C17.1762 15.7321 17.1029 15.9571 16.9564 16.0696C16.6999 16.1822 16.4068 16.2947 16.1504 16.4635C16.0771 16.4635 16.0404 16.4635 16.0038 16.4635ZM18.4218 15.5633C18.2753 15.5633 18.1654 15.3945 18.1287 15.2258C18.0921 15.0007 18.202 14.7757 18.3486 14.7194C18.6417 14.6632 18.9348 14.5507 19.1912 14.4944C19.3378 14.4381 19.4843 14.6069 19.5209 14.8882C19.5576 15.1132 19.4477 15.3383 19.2645 15.3945C18.9714 15.4508 18.7149 15.5071 18.4218 15.6196C18.4585 15.5633 18.4585 15.5633 18.4218 15.5633ZM26.7384 15.5071C26.7018 15.5071 26.7018 15.5071 26.6651 15.5071C26.6651 15.5071 26.372 15.3945 25.8225 15.282C25.6759 15.2258 25.566 15.057 25.566 14.7757C25.6027 14.5507 25.7126 14.3819 25.8957 14.3819C26.4453 14.4944 26.7384 14.6069 26.775 14.6069C26.9216 14.6632 27.0315 14.8882 26.9949 15.1132C26.9949 15.3383 26.8483 15.5071 26.7384 15.5071ZM20.9131 15.057C20.7666 15.057 20.6567 14.8882 20.62 14.6632C20.62 14.4381 20.73 14.2131 20.8765 14.2131C21.1696 14.1568 21.4627 14.1568 21.7558 14.1568C21.9023 14.1568 22.0489 14.3256 22.0489 14.6069C22.0489 14.832 21.939 15.057 21.7558 15.057C21.4993 15.0007 21.2062 15.057 20.9131 15.057ZM24.2471 15.057C23.954 15.0007 23.6609 15.0007 23.3678 15.0007C23.2213 15.0007 23.0747 14.7757 23.0747 14.5507C23.0747 14.3256 23.2213 14.1006 23.3678 14.1006C23.6609 14.1006 23.954 14.1568 24.2471 14.1568C24.3936 14.1568 24.5402 14.3819 24.5035 14.6069C24.5402 14.8882 24.3936 15.057 24.2471 15.057Z" fill="#C7D0DA"/>
<path d="M11.3999 84.6708C11.2906 84.5718 11.2555 84.3909 11.3793 84.2543L16.9969 78.0523L10.4125 72.0882C10.3032 71.9893 10.2681 71.8083 10.3919 71.6717C10.4909 71.5624 10.6718 71.5274 10.8084 71.6511L17.5841 77.7884C17.6934 77.8874 17.7284 78.0684 17.6047 78.205L11.8138 84.5981C11.6927 84.7868 11.5365 84.7945 11.3999 84.6708Z" fill="#3E8DE3"/>
<path d="M11.5698 72.7891C11.0996 73.3082 10.2665 73.3494 9.74738 72.8792C9.22827 72.409 9.18709 71.5759 9.65728 71.0568C10.1275 70.5377 10.9606 70.4965 11.4797 70.9667C11.9988 71.4369 12.04 72.27 11.5698 72.7891Z" fill="#3E8DE3"/>
<path d="M16.5228 79.0159C17.0509 79.4943 17.8668 79.454 18.3452 78.9259C18.8235 78.3977 18.7832 77.5818 18.2551 77.1035C17.727 76.6251 16.911 76.6654 16.4327 77.1935C15.9543 77.7217 15.9946 78.5376 16.5228 79.0159Z" fill="#3E8DE3"/>
<path d="M12.5541 85.3194C12.084 85.8385 11.2509 85.8797 10.7318 85.4095C10.2126 84.9393 10.1715 84.1062 10.6417 83.5871C11.1119 83.068 11.945 83.0268 12.4641 83.497C12.9857 84.0193 13.0243 84.8003 12.5541 85.3194Z" fill="#3E8DE3"/>
<path d="M18.8647 91.0362C18.3945 91.5553 17.5614 91.5965 17.0423 91.1263C16.5232 90.6561 16.482 89.823 16.9522 89.3039C17.4224 88.7848 18.2555 88.7436 18.7746 89.2138C19.2963 89.7361 19.3349 90.5171 18.8647 91.0362Z" fill="#3E8DE3"/>
<path d="M17.7393 90.4133L11.4281 84.6966C11.3188 84.5977 11.2838 84.4167 11.4075 84.2801C11.5065 84.1708 11.6874 84.1358 11.824 84.2595L18.1353 89.9761C18.2445 90.0751 18.2796 90.2561 18.1558 90.3927C18.0048 90.5045 17.8486 90.5122 17.7393 90.4133Z" fill="#3E8DE3"/>
<path d="M121.476 5.36237C121.898 3.2462 120.526 1.18799 118.409 0.765229C116.293 0.342469 114.235 1.71525 113.812 3.83143C113.39 5.9476 114.762 8.0058 116.879 8.42856C118.995 8.85132 121.053 7.47855 121.476 5.36237Z" fill="#4D5763"/>
<path d="M10.8363 119.427C11.0832 118.376 10.4313 117.323 9.38029 117.076C8.32923 116.83 7.27702 117.481 7.0301 118.532C6.78318 119.583 7.43506 120.636 8.48611 120.883C9.53717 121.13 10.5894 120.478 10.8363 119.427Z" fill="#3E8DE3"/>
<path d="M142.933 91.3769C143.427 89.2761 142.124 87.1729 140.023 86.6793C137.922 86.1858 135.819 87.4888 135.325 89.5896C134.832 91.6905 136.135 93.7936 138.236 94.2872C140.336 94.7807 142.44 93.4778 142.933 91.3769Z" fill="#3E8DE3"/>
<path d="M99.7514 20.2049C100.015 18.3711 98.8562 16.6874 97.1635 16.4442C95.4708 16.201 93.885 17.4905 93.6215 19.3242C93.3581 21.158 94.5167 22.8417 96.2094 23.0849C97.9021 23.328 99.4879 22.0386 99.7514 20.2049Z" fill="#011021"/>
<path d="M60.632 27.7787C60.632 27.7787 58.3096 49.5279 64.65 50.3757C71.9858 51.371 67.1567 35.8517 65.3504 32.018C63.5442 28.1842 64.4289 27.6313 60.632 27.7787Z" fill="#FFD596"/>
<path d="M65.0885 31.095C64.7567 32.8644 63.3559 34.9287 61.4022 35.1499C60.7018 35.2237 59.8908 34.9287 59.5959 34.2652C59.301 33.6754 59.5222 32.975 60.0751 32.6064C60.2594 32.4958 60.4437 32.7907 60.2226 32.9013C59.4116 33.4174 59.8908 34.4864 60.6649 34.7076C61.3285 34.9287 61.992 34.6707 62.5449 34.3021C63.7245 33.5648 64.4987 32.3115 64.7567 30.9475C64.7936 30.7632 65.1253 30.8738 65.0885 31.095Z" fill="#011021"/>
<path d="M60.5228 18.4887C60.5228 18.4887 58.7902 16.7193 58.2373 17.1985C57.6843 17.6778 59.1957 18.8942 59.638 19.7789C60.1173 20.6637 61.4812 22.8386 61.4812 22.8386L60.5228 18.4887Z" fill="#F6C172"/>
<path d="M60.7431 29.6216C60.7431 29.6216 59.3792 28.3683 58.2364 27.0044C57.0937 25.6773 55.2505 25.1244 56.5039 24.5345C57.7572 23.9447 59.6372 25.3824 60.227 25.2349C61.2592 24.94 60.9274 23.2075 60.1533 20.3322C59.1211 16.5721 59.7847 16.2404 60.0059 16.351C60.8537 16.867 61.1855 18.7102 62.5125 21.4749C63.8396 24.2396 63.9502 27.5942 63.729 29.3636C63.7659 29.4005 62.0333 29.7322 60.7431 29.6216Z" fill="#FFD596"/>
<path d="M36.1935 91.9932L31.5119 104.748L26.2773 104.121L28.6366 88.9336L36.1935 91.9932Z" fill="#FFD596"/>
<path d="M14.7689 110.314C14.2528 111.199 14.2896 111.936 14.2896 111.936L30.3619 113.005C30.7305 112.305 30.9517 111.604 31.0623 110.978C31.4678 108.95 31.0254 107.328 31.5046 106.665C32.9423 104.711 31.7627 103.9 31.7627 103.9C31.3941 103.2 29.4772 104.342 28.4819 104.342C27.4866 104.306 26.565 102.167 26.307 102.057C26.0489 101.946 25.5697 104.084 24.7956 105.338C24.0583 106.554 19.7454 107.107 16.9438 108.471C15.801 108.987 15.1375 109.688 14.7689 110.314Z" fill="#4D5763"/>
<path d="M22.1053 106.334C22.6951 106.297 23.2112 106.592 23.5061 107.071C23.6167 107.256 23.3218 107.403 23.2112 107.219C22.9532 106.85 22.5477 106.629 22.1053 106.666C21.8842 106.666 21.8842 106.334 22.1053 106.334Z" fill="white"/>
<path d="M21.1838 106.665C21.6631 106.776 22.0685 106.997 22.4003 107.365C22.5478 107.513 22.2897 107.771 22.1423 107.587C21.8474 107.255 21.5156 107.07 21.1101 106.997C20.8889 106.96 20.9627 106.628 21.1838 106.665Z" fill="white"/>
<path d="M20.0393 106.961C20.5185 107.108 20.924 107.366 21.2926 107.698C21.4401 107.846 21.1821 108.104 21.0346 107.919C20.7397 107.588 20.3711 107.403 19.9656 107.256C19.7444 107.219 19.8181 106.887 20.0393 106.961Z" fill="white"/>
<path d="M14.7689 110.314C14.2528 111.199 14.2896 111.936 14.2896 111.936L30.3619 113.005C30.7305 112.305 30.9517 111.605 31.0623 110.978L14.7689 110.314Z" fill="white"/>
<path d="M31.1351 108.213C28.4809 107.734 25.8637 109.061 24.6103 111.457C24.4997 111.642 24.2048 111.457 24.3154 111.273C25.6425 108.729 28.4072 107.365 31.2088 107.882C31.4668 107.918 31.3562 108.25 31.1351 108.213Z" fill="white"/>
<path d="M25.3152 110.057C22.145 109.946 18.9748 109.836 15.8046 109.725C15.5834 109.725 15.5834 109.356 15.8046 109.393C18.9748 109.504 22.145 109.614 25.3152 109.725C25.5732 109.688 25.5364 110.057 25.3152 110.057Z" fill="white"/>
<path d="M37.1099 50.523C31.3592 59.923 25.2031 92.8785 25.2031 92.8785L37.2942 97.3389L47.8001 69.876L68.001 79.3129C75.263 73.8204 76.5901 67.5168 68.1116 59.8493C68.1116 59.8493 53.1821 51.0391 44.335 48.6061C42.4181 48.09 40.7593 47.832 39.6165 48.0532C38.8424 48.2375 37.9946 49.1222 37.1099 50.523Z" fill="#011021"/>
<path d="M37.1133 50.523C38.6984 52.5136 40.9102 54.5779 43.38 54.541C46.2553 54.5042 45.4074 51.1496 44.3753 48.6061C42.4584 48.09 40.7996 47.832 39.6568 48.0532C38.8458 48.2375 37.998 49.1222 37.1133 50.523Z" fill="#072241"/>
<path d="M38.4373 95.3867L24.6137 90.5576L23.5078 94.3914L37.5157 99.2573L38.4373 95.3867Z" fill="#072241"/>
<path d="M36.0062 94.3532C36.0062 94.3901 36.0062 94.3901 36.0062 94.3532C36.1167 94.3901 36.2273 94.3532 36.2642 94.2795L47.2125 65.1209L65.4965 73.8574C65.5703 73.8943 65.6808 73.8574 65.7177 73.7837C65.7546 73.71 65.7177 73.5994 65.644 73.5625L47.2125 64.7523C47.1756 64.7154 47.1388 64.7154 47.065 64.7523C47.0282 64.7523 46.9913 64.7891 46.9545 64.8628L35.9324 94.1689C35.8956 94.2426 35.9324 94.3163 36.0062 94.3532Z" fill="#072241"/>
<path d="M49.3864 139.031L45.6264 151.38L40.5762 149.795L41.5715 137.262L49.3864 139.031Z" fill="#FFD596"/>
<path d="M41.0922 145.372C40.3918 145.482 39.8758 146.109 39.9495 146.846C40.0232 147.621 39.9863 148.948 39.2122 150.127C37.9957 152.044 32.54 156.984 32.2451 159.712C31.9502 162.403 36.853 163.398 40.5393 159.601C44.2256 155.804 46.3636 154.625 47.1009 152.302C47.8382 149.943 47.1009 146.662 47.1009 146.662L46.5111 147.399C46.5111 147.399 43.8938 148.358 43.5252 146.662C43.304 145.556 42.0875 145.224 41.0922 145.372Z" fill="#4D5763"/>
<path d="M44.8196 155.287C44.7459 154.107 44.8196 152.964 45.2251 151.858C45.6675 150.605 46.4785 149.462 47.5475 148.615C47.7318 148.467 47.4738 148.246 47.3263 148.393C46.2573 149.241 45.4463 150.384 44.9671 151.674C44.5247 152.854 44.4141 154.07 44.4879 155.287C44.4879 155.471 44.8196 155.471 44.8196 155.287Z" fill="white"/>
<path d="M44.6707 153.628C44.6707 153.812 44.6339 153.96 44.6339 154.144C44.5233 154.255 44.4127 154.402 44.2652 154.513C43.2331 155.582 42.2009 156.614 41.1688 157.646C40.2103 158.604 39.2887 159.673 38.146 160.448C37.077 161.148 35.7499 161.627 34.4597 161.369C33.3907 161.148 32.4691 160.448 32.1005 159.415C32.0267 159.194 32.3585 159.121 32.4322 159.342C32.9114 160.669 34.3491 161.259 35.6762 161.111C37.0032 160.964 38.146 160.153 39.1044 159.268C40.026 158.383 40.9107 157.462 41.7954 156.54C42.7539 155.545 43.7123 154.623 44.6707 153.628Z" fill="white"/>
<path d="M35.7854 154.107C36.6332 153.886 37.4442 154.328 37.6654 155.139C37.7391 155.36 38.034 155.25 37.9971 155.065C37.7022 154.033 36.7069 153.48 35.6748 153.775C35.4905 153.849 35.5642 154.181 35.7854 154.107Z" fill="white"/>
<path d="M36.7424 153.15C37.5903 152.929 38.4013 153.371 38.6224 154.182C38.6962 154.403 38.9911 154.293 38.9542 154.108C38.6593 153.076 37.664 152.523 36.6318 152.818C36.4475 152.892 36.5581 153.224 36.7424 153.15Z" fill="white"/>
<path d="M37.6311 152.227C38.4789 152.006 39.2899 152.448 39.5111 153.259C39.5848 153.481 39.8797 153.37 39.8428 153.186C39.5479 152.153 38.5526 151.6 37.5205 151.895C37.3362 151.969 37.4099 152.264 37.6311 152.227Z" fill="white"/>
<path d="M38.3284 151.307C39.1762 151.086 39.9872 151.528 40.2084 152.339C40.2821 152.561 40.577 152.45 40.5401 152.266C40.2452 151.234 39.2499 150.681 38.2178 150.975C38.0335 151.049 38.144 151.381 38.3284 151.307Z" fill="white"/>
<path d="M50.0889 97.0804C49.6097 97.9651 48.9462 99.8451 48.2458 102.389C44.8175 114.369 39.4355 140.616 39.4355 140.616L52.0427 145.334C52.0427 145.334 62.1063 108.766 63.4702 107.107C67.0828 102.647 91.781 80.7869 91.781 80.7869L76.2985 66.1523C76.2985 66.1523 56.5031 88.1595 51.158 95.569C50.6419 96.1219 50.3101 96.6749 50.0889 97.0804Z" fill="#011021"/>
<path d="M50.0892 97.0805C49.61 97.9652 48.9465 99.8452 48.2461 102.389C50.4947 103.568 54.3285 105.08 56.1716 103.31C59.0469 100.619 53.37 96.8593 51.1214 95.5322C50.6422 96.122 50.3104 96.675 50.0892 97.0805Z" fill="#072241"/>
<path d="M70.5503 72.6028C69.0389 74.3354 67.5644 76.1048 66.053 77.8374C65.9056 77.9848 65.6844 77.7637 65.8318 77.5793C67.3432 75.8468 68.8177 74.0774 70.3291 72.3448C70.4766 72.1974 70.6977 72.4554 70.5503 72.6028Z" fill="#072241"/>
<path d="M67.1882 75.9224C66.1929 74.964 66.4509 73.3789 67.1144 72.3098C67.8886 70.9828 69.0682 69.6926 70.3215 68.8447C70.5058 68.7341 70.6533 69.029 70.469 69.1396C69.3262 69.8769 68.3678 71.0196 67.5937 72.1255C66.8933 73.1577 66.3772 74.7059 67.4094 75.7012C67.5937 75.8487 67.3356 76.0698 67.1882 75.9224Z" fill="#072241"/>
<path d="M50.9749 141.649C50.9749 141.649 51.0118 141.649 51.0118 141.686C51.0855 141.723 51.1961 141.649 51.1961 141.575C51.2698 141.243 59.7852 107.366 60.7805 105.744C61.7758 104.122 85.921 82.4469 86.179 82.2257C86.2528 82.152 86.2528 82.0782 86.179 82.0045C86.1053 81.9308 86.0316 81.9308 85.9579 82.0045C84.9626 82.8892 61.5177 103.938 60.5224 105.597C59.4903 107.256 51.2329 140.137 50.9012 141.538C50.8643 141.538 50.9012 141.612 50.9749 141.649Z" fill="#072241"/>
<path d="M53.5506 143.123L39.0265 137.262L38.0312 140.874L52.4815 146.625L53.5506 143.123Z" fill="#072241"/>
<path d="M115.188 42.4861C112.239 50.3748 108.184 57.7474 104.571 63.5348C104.497 63.6086 104.461 63.7192 104.387 63.7929C103.797 64.7145 103.244 65.5992 102.691 66.4102C102.617 66.5207 102.544 66.5945 102.507 66.7051C100.664 69.4698 99.0417 71.7553 97.8252 73.3404C97.8252 73.3773 97.7884 73.3773 97.7884 73.4141C96.9774 74.4831 96.3876 75.2573 96.0558 75.6628C95.9452 75.7733 95.8715 75.8839 95.8346 75.9208C95.7978 75.9945 95.7609 76.0314 95.7609 76.0314L95.2817 75.6628L94.397 74.9624L85.513 67.9953L85.2181 67.7741L73.7169 58.7058L72.2423 57.563L70.8047 56.4203C70.8047 56.4203 70.8047 56.4203 70.8416 56.4203C71.5419 56.6046 72.6478 55.6462 73.938 53.9873C74.0118 53.8767 74.0855 53.7662 74.1961 53.6924C74.5647 53.1764 74.9702 52.6234 75.4126 52.0336C75.4126 52.0336 75.4126 52.0336 75.4126 51.9967C75.5231 51.8124 75.6706 51.6281 75.7812 51.4438C77.182 49.3426 78.6934 46.7991 80.2047 44.1449C80.2785 44.0343 80.3153 43.9238 80.3891 43.8132C80.6471 43.3339 80.942 42.8547 81.2 42.3386C81.2369 42.3018 81.2738 42.2281 81.2738 42.1912C81.3475 42.0806 81.3844 41.97 81.4581 41.8963C82.1216 40.6798 82.7852 39.5002 83.375 38.3206C83.4487 38.21 83.4855 38.0994 83.5593 37.9888C85.513 34.2657 87.1718 30.948 88.0566 29.068C88.1303 28.9205 88.204 28.7731 88.2777 28.6256C88.5358 28.1095 88.6832 27.7409 88.7569 27.5566C88.8307 27.3354 89.0887 27.1511 89.4205 27.0405C89.8997 26.8931 90.5632 26.8193 91.3742 26.8193C91.4848 26.8193 91.6323 26.8193 91.7428 26.8193C97.088 26.9668 107.52 29.6209 107.52 29.6209C107.52 29.6209 109.548 32.57 111.686 36.2194C111.759 36.3668 111.87 36.5143 111.944 36.6617C112.017 36.7723 112.054 36.8461 112.128 36.9566C113.271 38.6523 114.856 40.4955 115.151 41.7488C115.188 41.8594 115.188 41.97 115.188 42.0806C115.261 42.2281 115.225 42.3755 115.188 42.4861Z" fill="#3E8DE3"/>
<path d="M104.568 63.534C104.495 63.6077 104.458 63.7183 104.384 63.792C103.499 63.2759 102.652 62.6124 101.914 61.912C97.8962 58.0783 96.4954 52.5857 94.173 47.7198C92.3667 43.9229 89.4546 39.868 85.2522 38.6515C84.6624 38.4672 84.0357 38.3566 83.409 38.3197C83.3722 38.3197 83.2984 38.3197 83.2616 38.3197C83.0404 38.3197 83.0404 37.9511 83.2616 37.9879C83.3722 37.9879 83.4828 37.9879 83.5934 38.0248C84.22 38.0985 84.8098 38.2091 85.3996 38.3934C87.2059 38.9464 88.8648 40.0154 90.2287 41.3425C94.2099 45.2131 95.6107 50.6688 97.933 55.5347C99.3707 58.5943 101.546 61.8014 104.568 63.534Z" fill="#3C83D0"/>
<path d="M100.664 69.3956C100.664 69.3956 99.5577 71.0176 97.8252 73.3768C97.8252 73.4137 97.7883 73.4137 97.7883 73.4505C95.6503 76.3259 92.6275 80.3071 89.6047 83.7722C89.6047 83.7722 87.651 82.4082 84.8125 80.049C84.702 79.9753 84.6282 79.9016 84.5176 79.8278C83.338 78.8325 81.9741 77.7267 80.5733 76.4364C80.4627 76.3259 80.3521 76.2521 80.2784 76.1415C79.7623 75.6623 79.2462 75.1831 78.6933 74.667C78.5827 74.5564 78.4721 74.4827 78.3615 74.3721C74.4909 70.6858 70.3991 66.1885 67.487 61.4332C67.4132 61.2858 67.3026 61.1752 67.2289 61.0277C66.7128 60.1799 66.2705 59.332 65.8281 58.4842C65.8281 58.4842 67.7819 58.1893 70.2148 56.7516C70.3254 56.6779 70.436 56.6042 70.5466 56.5673C70.6203 56.5304 70.694 56.4567 70.7678 56.4199C71.7262 55.7932 72.7215 54.9822 73.7168 53.95C73.8274 53.8395 73.9011 53.7657 74.0117 53.6551C74.4541 53.1759 74.8964 52.623 75.3388 52.0332C75.3388 52.0332 75.3388 52.0332 75.3388 51.9963C75.4862 51.812 75.5968 51.6277 75.7074 51.4434L78.8408 53.692L79.2094 53.95L86.9137 59.5163L87.2086 59.7375L92.7381 63.7556L93.1067 64.0136L100.664 69.3956Z" fill="#3E8DE3"/>
<path d="M96.0574 75.6989C95.9468 75.8095 95.8731 75.9201 95.8362 75.9569C95.6519 75.8463 95.4676 75.7726 95.2833 75.662C94.9884 75.5146 94.6935 75.404 94.3986 75.3302C91.8919 74.5193 89.0903 74.9616 87.0628 76.731C86.0307 77.6157 85.2565 78.7954 84.7773 80.0487C84.6667 79.975 84.593 79.9012 84.4824 79.8275C84.5561 79.6063 84.6299 79.422 84.7405 79.2377C85.9201 76.7679 88.2424 74.9985 90.9334 74.6667C92.0762 74.5193 93.2189 74.6298 94.3248 74.9985C94.9515 75.1459 95.5413 75.404 96.0574 75.6989Z" fill="#3C83D0"/>
<path d="M102.69 66.447C102.617 66.5576 102.543 66.6313 102.506 66.7419C100.995 65.2305 98.9671 64.2721 96.8659 63.9772C95.6494 63.7929 94.433 63.8297 93.2534 64.0141C90.378 64.4933 87.687 66.0047 85.549 67.9953C84.7749 68.7325 84.0745 69.5066 83.4478 70.3176C82.0839 72.1608 81.1254 74.262 80.6094 76.4369C80.4988 76.3263 80.3882 76.2526 80.3145 76.142C80.3145 76.1051 80.3513 76.0314 80.3513 75.9945C81.1623 72.8612 82.8949 69.9859 85.2541 67.7741C86.6917 66.4102 88.3506 65.3043 90.1937 64.567C91.0416 64.1984 91.9632 63.9403 92.8847 63.756C94.5804 63.4243 96.313 63.4243 98.0087 63.8666C99.7412 64.309 101.4 65.1937 102.69 66.447Z" fill="#3C83D0"/>
<path d="M88.9027 58.2641C88.4603 58.8539 87.9074 59.37 87.3176 59.7386C86.7646 60.0704 86.1748 60.3284 85.5113 60.5128C82.3042 61.4712 78.6916 60.7708 75.6689 59.5543C75.0053 59.2963 74.3418 59.0014 73.7151 58.7065C72.5355 58.1167 71.3928 57.49 70.25 56.7896C70.3606 56.7159 70.4712 56.6421 70.5818 56.6053C71.1347 56.937 71.6877 57.2688 72.2406 57.6006C73.6414 58.3747 75.0422 59.0382 76.5536 59.5543C79.5026 60.5865 82.9677 61.1394 85.9536 60.0335C86.3223 59.8861 86.654 59.7386 86.9858 59.5543C87.9074 59.0014 88.6446 58.2272 89.1238 57.2319C89.7505 55.868 89.7874 54.3198 89.6399 52.8453C89.1238 48.4586 86.1748 44.5511 82.2305 42.6711C81.9356 42.5236 81.6407 42.413 81.3089 42.2656C81.1983 42.2287 81.1246 42.1919 81.014 42.155C80.8665 42.0075 80.7559 41.8232 80.6085 41.6758C80.9034 41.7495 81.1983 41.8601 81.4563 41.9707C81.825 42.1181 82.1567 42.2656 82.4885 42.413C84.3685 43.3346 85.9905 44.6985 87.2807 46.3942C88.9395 48.5692 90.0085 51.2602 90.0454 54.0249C90.0823 55.4625 89.7874 57.0476 88.9027 58.2641Z" fill="#3C83D0"/>
<path d="M74.6005 54.9834C79.3927 58.3379 83.6319 62.4297 87.0602 67.185C87.2076 67.3693 86.9496 67.5905 86.8021 67.4062C83.3739 62.6877 79.1715 58.5959 74.4162 55.2783C74.2319 55.1677 74.4162 54.8728 74.6005 54.9834Z" fill="#011021"/>
<path d="M102.249 36.7347C99.7055 38.0249 96.5721 36.8821 95.4662 34.1911C95.3925 34.0068 95.6505 33.8594 95.7243 34.0437C96.7196 36.5504 99.6686 37.6931 102.102 36.4398C102.286 36.3661 102.433 36.6241 102.249 36.7347Z" fill="#011021"/>
<path d="M84.9994 32.2743C83.6354 34.9285 82.5664 37.7301 81.2025 40.421C81.0919 40.6054 80.8338 40.421 80.9076 40.2367C82.2715 37.5826 83.3774 34.781 84.7045 32.09C84.815 31.9057 85.1099 32.09 84.9994 32.2743Z" fill="#011021"/>
<path d="M107.928 30.8752C107.928 30.8752 104.241 36.8839 98.5645 34.0455L99.5229 28.7741L99.9652 26.4148L100.26 24.756L106.711 23.0234C106.674 26.0093 107.117 28.6266 107.928 30.8752Z" fill="#FFD596"/>
<path d="M105.38 25.5303C102.799 29.2903 100.219 29.917 99.334 29.6589L99.9606 26.3781L105.38 25.5303Z" fill="#F6C172"/>
<path d="M96.3892 15.2441C96.3892 15.2441 94.9515 17.5296 97.2739 19.9995L96.3892 15.2441Z" fill="#011021"/>
<path d="M107.261 21.1057C107.261 21.3637 107.261 21.6218 107.225 21.8429C107.151 22.3959 107.003 22.8751 106.782 23.3543C106.487 23.981 106.008 24.6814 105.381 25.5661C104.386 26.9669 102.727 27.5198 101.105 27.5567C96.7923 27.6673 96.3131 24.7551 96.5343 20.2578C96.6817 17.4931 95.8708 15.9817 96.5343 14.8758C96.5711 14.839 96.608 14.7653 96.6817 14.7284C97.7876 13.5488 99.3359 12.8852 100.921 12.8115C101.216 12.8115 101.511 12.8115 101.806 12.8115C101.879 12.8115 101.916 12.8115 101.99 12.8115C102.027 12.8115 102.027 12.8115 102.064 12.8115C102.137 12.8115 102.211 12.8115 102.285 12.8115C102.322 12.8115 102.395 12.8115 102.432 12.8115C102.543 12.8115 102.654 12.8115 102.764 12.8484C106.229 13.217 107.151 15.3182 107.335 17.3825C107.483 18.857 107.225 20.2578 107.261 21.1057Z" fill="#FFD596"/>
<path d="M100.996 19.629C100.701 19.5553 100.406 19.7027 100.259 19.9608C100.148 20.1451 99.8533 19.9608 99.9638 19.7765C100.185 19.371 100.664 19.1866 101.107 19.2972C101.291 19.3341 101.217 19.6659 100.996 19.629Z" fill="#011021"/>
<path d="M98.081 20.1091C97.8967 19.8511 97.6387 19.7405 97.3069 19.7774C97.0857 19.8142 97.012 19.4825 97.2332 19.4456C97.7124 19.3719 98.1179 19.5562 98.3759 19.9617C98.5234 20.146 98.2285 20.2934 98.081 20.1091Z" fill="#011021"/>
<path d="M102.688 20.8467C102.688 21.0679 102.32 21.2891 101.877 21.2891C101.435 21.2891 101.066 21.1048 101.066 20.8836C101.066 20.6624 101.435 20.4412 101.877 20.4412C102.32 20.4044 102.688 20.5887 102.688 20.8467Z" fill="#F6C172"/>
<path d="M96.5 21.3998C96.6475 21.5103 96.9055 21.5472 97.1635 21.5472C97.6059 21.5472 97.9745 21.3629 97.9745 21.1049C97.9745 20.8837 97.6059 20.6625 97.1635 20.6994C96.9055 20.6994 96.6843 20.7731 96.5369 20.8468L96.5 21.3998Z" fill="#F6C172"/>
<path d="M100.516 18.3053C100.774 18.1947 101.18 18.2316 101.29 18.5265C101.364 18.7108 101.548 18.8583 101.77 18.7845C101.954 18.7477 102.101 18.4896 102.028 18.3053C101.77 17.6418 100.995 17.31 100.295 17.5681C100.111 17.6418 99.9632 17.8261 100.037 18.0473C100.074 18.2316 100.295 18.379 100.516 18.3053Z" fill="#011021"/>
<path d="M97.3141 18.6349C97.5352 18.3768 97.7564 18.2663 98.1251 18.34C98.6043 18.4506 98.7886 17.7133 98.3094 17.6027C97.7196 17.4553 97.1666 17.6396 96.798 18.0819C96.4662 18.4874 97.0192 19.0035 97.3141 18.6349Z" fill="#011021"/>
<path d="M98.6008 21.1061C98.7114 21.1798 99.0063 21.3273 99.4487 21.2904C99.5224 21.2904 99.5593 21.2167 99.5593 21.1798C99.5593 21.1061 99.4855 21.0692 99.4487 21.0692C99.1538 21.1061 98.9326 21.0324 98.7851 20.9587C99.1906 20.5163 99.2275 19.7422 99.2275 19.7053C99.2275 19.6316 99.1906 19.5947 99.1169 19.5947C99.0432 19.5947 99.0063 19.6316 99.0063 19.7053C99.0063 19.7053 98.9326 20.5532 98.5271 20.9218C98.4902 20.9587 98.4902 20.9587 98.4902 20.9955C98.4902 21.0324 98.4902 21.0692 98.5271 21.0692C98.564 21.0692 98.564 21.0692 98.6008 21.1061Z" fill="#011021"/>
<path d="M105.717 22.3581C106.343 22.3581 106.823 22.1738 107.228 21.8789C107.154 22.4319 107.007 22.9111 106.786 23.3903C106.343 23.1691 105.975 22.8373 105.717 22.3581Z" fill="#011021"/>
<path d="M106.38 17.4194C104.647 17.8986 104.5 20.8476 103.615 20.3316C102.73 19.8523 105.052 16.2398 102.767 16.3872C100.481 16.5347 101.145 16.2398 100.113 16.3135C98.3434 16.461 97.2375 15.0602 96.5371 14.8758C96.574 14.839 96.6108 14.7653 96.6846 14.7284C97.7904 13.5488 99.3387 12.8852 100.924 12.8115C101.219 12.8115 101.514 12.8115 101.809 12.8115C101.882 12.8115 101.919 12.8115 101.993 12.8115C102.03 12.8115 102.03 12.8115 102.067 12.8115C102.14 12.8115 102.214 12.8115 102.288 12.8115C102.325 12.8115 102.398 12.8115 102.435 12.8115C102.546 12.8115 102.656 12.8115 102.767 12.8484C106.232 13.217 107.154 15.3182 107.338 17.3825C107.08 17.3088 106.748 17.3088 106.38 17.4194Z" fill="#011021"/>
<path d="M103.613 20.3328C104.497 20.812 104.645 17.8998 106.377 17.4206C106.746 17.31 107.078 17.3469 107.336 17.4575C107.446 18.8583 107.225 20.2591 107.225 21.1438C107.225 21.4018 107.225 21.6599 107.188 21.881C107.852 20.0748 108.552 17.9736 108.7 17.052C108.736 16.8677 108.736 16.6834 108.736 16.5359C108.7 16.499 108.663 16.4622 108.626 16.4253C108.442 16.241 108.22 16.0936 107.999 15.9461C107.667 15.7618 107.262 15.6143 106.856 15.5037C105.529 15.172 104.018 15.3563 102.912 15.5406C103.834 16.6465 102.912 19.9273 103.613 20.3328Z" fill="#011021"/>
<path d="M97.75 22.6179C97.75 22.6179 98.7453 22.5073 100.736 22.2861C100.736 22.2861 100.625 24.4242 99.1877 24.4242C97.9343 24.4242 97.75 22.6179 97.75 22.6179Z" fill="white"/>
<path d="M98.93 25.1983C99.2617 25.3088 99.5935 25.3088 99.8516 25.0508C99.999 24.9402 99.7778 24.719 99.6672 24.8665C99.4829 25.0508 99.2249 25.0139 99.0037 24.9402C98.8563 24.8665 98.7825 25.1245 98.93 25.1983Z" fill="#F6C172"/>
<path d="M104.315 21.292C104.094 20.5916 104.205 19.8174 104.61 19.2276C105.126 18.4166 106.085 17.2002 107.006 17.3108C108.37 17.4951 108.517 18.6747 108.407 19.928C108.296 21.1445 107.485 22.7665 105.79 22.5453C104.942 22.3978 104.536 21.8449 104.315 21.292Z" fill="#FFD596"/>
<path d="M105.937 21.0725C105.863 20.5565 105.826 20.0035 106.01 19.5243C106.195 19.0819 106.674 18.4553 107.227 18.6027C107.411 18.6765 107.559 18.3815 107.337 18.3078C106.785 18.1235 106.268 18.4553 105.974 18.8976C105.531 19.5243 105.531 20.3353 105.605 21.0725C105.642 21.2937 105.974 21.2569 105.937 21.0725Z" fill="#011021"/>
<path d="M62.9816 47.2439C62.871 50.6722 65.7463 51.8887 70.7965 48.9396C73.4875 47.3545 76.0311 45.622 78.1691 44.0368C78.9064 43.4839 79.6068 42.9678 80.2335 42.4886C82.5927 40.6455 84.1041 39.3552 84.1041 39.3552L79.3856 31.8721C79.3856 31.8721 78.7221 32.2776 77.6899 33.0148C77.137 33.3835 76.4734 33.8258 75.773 34.3419C70.944 37.6964 63.129 43.7051 62.9816 47.2439Z" fill="#FFD596"/>
<path d="M68.2966 40.3842C68.8864 42.2274 69.1444 44.1074 69.1076 46.0243C69.1076 46.2454 68.7758 46.2454 68.7758 46.0243C68.8126 44.1443 68.5546 42.2642 67.9648 40.4948C67.8911 40.2736 68.2597 40.1631 68.2966 40.3842Z" fill="#F6C172"/>
<path d="M68.5918 41.5278C69.1447 42.007 69.5871 42.5599 69.9926 43.1497C70.1031 43.3341 69.8082 43.5184 69.6977 43.2972C69.329 42.7074 68.8867 42.1913 68.3706 41.749C68.1863 41.6384 68.4443 41.3803 68.5918 41.5278Z" fill="#F6C172"/>
<path d="M91.1185 26.9288C90.6761 27.0025 90.2337 27.1131 89.8283 27.3711C89.6071 27.5186 89.3859 27.666 89.1647 27.8872C88.9435 28.1084 88.7592 28.3296 88.5381 28.6245C88.4643 28.6982 88.4275 28.8088 88.3537 28.9194C88.3169 28.9931 88.28 29.1037 88.2063 29.1774C88.1694 29.2143 88.1694 29.288 88.1326 29.3249C87.4322 30.9469 86.9529 33.9328 85.331 38.3563C85.2941 38.4669 85.2572 38.5775 85.2204 38.6512C84.9992 39.3147 84.7412 39.9783 84.4463 40.6787C83.6721 41.3791 82.9717 41.932 82.4925 42.3375C82.3819 42.4112 82.2713 42.5218 82.1976 42.5955C81.9027 42.8167 81.7553 42.9642 81.7553 42.9642C81.5709 42.7799 81.3866 42.5587 81.2392 42.3744C81.1655 42.3006 81.0917 42.1901 81.018 42.1163C80.8706 41.9689 80.76 41.7846 80.6125 41.6371C79.3223 39.9414 78.2901 38.0245 77.516 36.4763C77.4792 36.3657 77.4054 36.2551 77.3686 36.1814C76.5576 34.4488 76.1152 33.1586 76.1152 33.1586C78.6219 31.2049 81.018 29.841 83.1192 28.9194C83.2666 28.8457 83.4141 28.8088 83.5247 28.7351C85.0729 28.1084 86.4369 27.7029 87.5796 27.408C87.6902 27.3711 87.8008 27.3711 87.9114 27.3343C88.5012 27.2237 89.0173 27.1131 89.4228 27.0762C90.4918 26.8919 91.1185 26.9288 91.1185 26.9288Z" fill="#3E8DE3"/>
<path d="M108.441 16.5726C108.441 16.5726 116.514 15.6142 112.939 13.3287C108.404 10.3796 101.99 12.8863 101.99 12.8863L108.441 16.5726Z" fill="#3E8DE3"/>
<path d="M96.2402 15.4291C96.2402 15.4291 98.0097 16.7561 103.539 16.7561C107.262 16.7193 108.774 16.535 108.774 16.535C108.774 16.535 109.99 11.5216 103.539 10.0102C96.6457 8.38825 96.2402 15.4291 96.2402 15.4291ZM99.3736 14.0651C100.185 14.1389 101.18 14.9499 101.217 15.6871C100 15.9083 98.8944 15.724 97.7885 15.3185C97.7885 15.3185 98.3046 13.9914 99.3736 14.0651Z" fill="#3E8DE3"/>
<path d="M103.021 9.90058C105.417 11.1171 107.223 13.8818 106.449 16.6465C106.412 16.794 106.154 16.7202 106.191 16.5728C106.928 13.9186 105.159 11.3014 102.873 10.1218C102.762 10.048 102.873 9.82685 103.021 9.90058Z" fill="#011021"/>
<path d="M101.363 15.6148C101.584 15.8728 101.658 16.2414 101.51 16.5732C101.437 16.7206 101.179 16.6469 101.252 16.4995C101.363 16.2783 101.326 15.9834 101.179 15.7991C101.068 15.6516 101.252 15.4673 101.363 15.6148Z" fill="#011021"/>
<path d="M97.8623 15.4654C97.7517 15.6128 97.678 15.7971 97.678 15.9815C97.678 16.1658 97.4199 16.1289 97.4199 15.9815C97.4199 15.7603 97.4937 15.5391 97.6411 15.3548C97.7148 15.2073 97.936 15.3179 97.8623 15.4654Z" fill="#011021"/>
<path d="M101.623 21.6972H96.0568C94.914 21.6972 94.0293 20.7757 94.0293 19.6698V19.1905C94.0293 18.0478 94.9509 17.1631 96.0568 17.1631H101.623C102.766 17.1631 103.651 18.0847 103.651 19.1905V19.6698C103.687 20.8125 102.766 21.6972 101.623 21.6972Z" fill="#3E8DE3"/>
<path d="M102.508 18.674V20.1854C102.508 20.4803 102.25 20.7384 101.955 20.7384H95.1721C94.914 20.7384 94.6929 20.554 94.6191 20.296C94.6191 20.2591 94.6191 20.2223 94.6191 20.1854V18.674C94.6191 18.3791 94.8772 18.1211 95.1721 18.1211H101.955C102.176 18.1211 102.36 18.2317 102.434 18.416C102.508 18.4897 102.508 18.6003 102.508 18.674Z" fill="#3C83D0"/>
<path d="M102.47 18.416L100.148 20.7384H98.3418L100.959 18.1211H101.954C102.176 18.1211 102.36 18.2317 102.47 18.416Z" fill="#5AA3F2"/>
<path d="M98.0843 18.1211L95.467 20.7384H95.1721C94.914 20.7384 94.6929 20.554 94.6191 20.296L96.7941 18.1211H98.0843Z" fill="#5AA3F2"/>
<path d="M103.578 17.974C103.578 17.974 105.163 17.3473 106.38 17.4211C106.38 17.4211 105.495 17.6791 104.905 18.8219L103.689 19.4485L103.578 17.974Z" fill="#3E8DE3"/>
<path d="M110.215 19.7069C109.957 21.5501 108.372 22.8403 106.676 22.5823C104.981 22.3242 103.801 20.6654 104.096 18.8222C104.354 16.9791 105.939 15.6889 107.635 15.9469C109.294 16.1681 110.473 17.8638 110.215 19.7069Z" fill="#011021"/>
<path d="M109.957 19.5953C109.772 20.8487 108.703 21.6965 107.56 21.5491C106.418 21.4016 105.644 20.2589 105.828 19.0055C106.012 17.7522 107.081 16.9043 108.224 17.0518C109.33 17.2361 110.141 18.3789 109.957 19.5953Z" fill="#005086"/>
<path d="M109.18 19.4109C109.106 19.9639 108.59 20.3694 108.074 20.2956C107.558 20.2219 107.19 19.7058 107.263 19.116C107.337 18.5631 107.853 18.1576 108.369 18.2313C108.922 18.305 109.254 18.8211 109.18 19.4109Z" fill="#011021"/>
<path d="M107.264 16.8314H107.301C107.523 16.8314 107.67 16.684 107.67 16.4628C107.67 16.2048 107.854 9.86434 104.537 8.64786C103.173 8.13178 101.735 8.24237 100.445 8.97962C99.4864 9.49571 98.9335 10.1961 98.8966 10.233C98.7491 10.3804 98.786 10.6385 98.9335 10.749C99.0809 10.8965 99.339 10.8596 99.4495 10.7122C99.5233 10.6016 101.403 8.35295 104.242 9.38512C107.08 10.4173 106.896 16.4259 106.896 16.4628C106.933 16.6471 107.08 16.7946 107.264 16.8314Z" fill="#005086"/>
<path d="M83.5253 28.7012C83.4515 28.9592 83.3778 29.2173 83.2672 29.4753C82.2351 32.4243 80.1707 34.8573 77.5166 36.4424C77.4797 36.3318 77.406 36.2212 77.3691 36.1475C78.5856 35.4102 79.7284 34.4887 80.6499 33.4196C81.7558 32.0926 82.6037 30.5443 83.1198 28.9223C83.2304 28.8118 83.3778 28.7749 83.5253 28.7012Z" fill="#3C83D0"/>
<path d="M77.6293 32.2005C78.6983 35.1864 80.2466 37.988 82.2372 40.4578C82.3846 40.6421 82.1266 40.8633 81.9791 40.679C79.9517 38.1723 78.3297 35.3339 77.2607 32.2742C77.2238 32.0899 77.5556 32.0162 77.6293 32.2005Z" fill="#011021"/>
<path d="M98.9707 31.7609C98.8233 31.7241 98.7127 31.7241 98.5652 31.6872C95.8742 31.1343 93.4413 29.586 92.0036 27.2268C91.9299 27.0793 91.8193 26.9319 91.7456 26.8213C91.5981 26.8213 91.4875 26.8213 91.377 26.8213C92.0036 28.0378 92.9252 29.1437 93.9942 29.9915C95.4687 31.1343 97.0907 31.8347 98.897 32.1296C98.9339 32.019 98.9707 31.8715 98.9707 31.7609Z" fill="#3C83D0"/>
<path d="M112.172 36.9213C111.176 37.4374 110.144 37.9166 109.075 38.3589C104.32 40.239 98.5691 40.7919 94.1456 37.7691C91.1597 35.7417 89.3534 32.6452 88.1738 29.3275C88.1369 29.2538 88.1001 29.1801 88.1001 29.0695C87.9158 28.5165 87.7314 27.9636 87.584 27.4106C87.6946 27.3738 87.8052 27.3738 87.9158 27.3369C88.0263 27.7793 88.1738 28.2216 88.2844 28.6271C88.3212 28.7008 88.3581 28.8114 88.3581 28.8852C88.8005 30.2122 89.3534 31.5393 90.0538 32.7558C91.2703 34.857 92.9291 36.737 95.0672 37.9534C97.3158 39.2437 99.9331 39.686 102.477 39.5386C105.868 39.3542 109.001 38.1746 111.95 36.6264C112.024 36.737 112.098 36.8476 112.172 36.9213Z" fill="#3C83D0"/>
<path d="M86.1822 34.1197C84.5603 36.8475 83.0489 39.686 81.6481 42.5244C81.5744 42.7087 81.3163 42.5244 81.3901 42.377C82.7909 39.5017 84.3022 36.7001 85.9242 33.9722C86.0348 33.8248 86.2928 33.9722 86.1822 34.1197Z" fill="#011021"/>
<path d="M82.2343 51.7051C81.6814 52.9584 80.5755 53.6588 79.2853 53.9906C79.1379 54.0274 78.9535 54.0643 78.8061 54.1012C77.221 54.3592 75.5253 54.2855 73.9033 54.0274C73.8665 54.0274 73.7927 54.0274 73.7559 53.9906C73.8664 53.88 73.9402 53.8063 74.0508 53.6957C74.0876 53.6957 74.1245 53.6957 74.1614 53.6957H74.1982C75.7096 53.9169 77.3684 53.9906 78.8798 53.6957C78.8798 53.6957 78.8798 53.6957 78.9167 53.6957C80.4281 53.4008 81.6445 52.5529 82.0869 51.0415C82.8242 48.6455 81.9026 45.9545 80.2069 44.1482C80.2806 44.0376 80.3175 43.927 80.3912 43.8164C81.3128 44.7748 82.0132 45.9545 82.3818 47.2815C82.7873 48.7192 82.8241 50.3043 82.2343 51.7051Z" fill="#3C83D0"/>
<path d="M78.6988 74.7067C78.5882 74.5961 78.4776 74.5224 78.367 74.4118C78.367 74.1537 78.4039 73.9326 78.4039 73.6745C78.4039 70.1357 76.7082 66.8549 74.0172 64.6431C72.1371 63.0948 69.8885 62.0627 67.4924 61.4729C67.4187 61.3254 67.3081 61.2148 67.2344 61.0674C68.2297 61.2886 69.225 61.5835 70.1834 61.989C73.5011 63.3529 76.4501 65.7858 77.8509 69.1772C78.5513 70.9098 78.8831 72.8635 78.6988 74.7067Z" fill="#3C83D0"/>
<path d="M99.0475 28.1464C97.3887 30.8005 94.8452 32.7543 92.3385 34.5237C91.1957 35.2978 90.0161 36.1457 89.5738 37.5096C89.1683 38.7261 89.5738 39.9794 90.6796 40.6798C91.8961 41.4908 93.4812 41.3065 94.8083 40.8272C96.1354 40.348 97.315 39.5739 98.4946 38.7998C99.7479 37.9888 101.001 37.2147 102.439 36.8461C103.95 36.4406 105.572 36.3668 107.047 35.7402C108.116 35.2978 109.48 34.45 109.443 33.1229C109.406 31.9433 108.742 30.6531 107.858 29.8421C107.747 29.7315 107.6 29.9158 107.71 29.9895C108.484 30.7268 109.111 31.8696 109.222 32.9386C109.332 34.2288 108.116 35.0398 107.084 35.4821C105.72 36.0719 104.245 36.1825 102.808 36.5143C101.517 36.8092 100.338 37.3621 99.195 38.0625C98.0891 38.7629 97.0201 39.5002 95.8773 40.09C94.5871 40.7535 93.002 41.2696 91.5275 40.7904C90.1267 40.348 89.3157 38.9472 89.8318 37.5464C90.311 36.1457 91.6012 35.3347 92.7808 34.5237C95.2506 32.7911 97.7205 30.8374 99.3424 28.257C99.3056 28.1464 99.1213 28.0358 99.0475 28.1464Z" fill="white"/>
<path d="M115.23 42.0821C114.566 41.9715 113.94 41.9347 113.276 41.8978C109.258 41.7872 104.982 43.4092 103.213 47.243C102.439 48.9386 102.291 50.8555 102.992 52.5881C103.692 54.2469 105.056 55.6108 106.825 56.0901C107.046 56.1638 106.936 56.4956 106.715 56.4218C104.724 55.9057 103.213 54.3206 102.549 52.4406C101.148 48.4963 103.802 44.4045 107.341 42.7088C109.848 41.5292 112.502 41.3449 115.156 41.7135C115.23 41.861 115.23 41.9715 115.23 42.0821Z" fill="#3C83D0"/>
<path d="M106.344 55.3169C102.51 62.8001 97.9762 69.8778 92.7417 76.4394C91.304 78.2825 89.7927 80.0519 88.2444 81.8214C88.097 82.0057 87.8758 81.7476 88.0232 81.5633C93.5527 75.3335 98.4555 68.5507 102.658 61.3624C103.837 59.3349 104.98 57.2706 106.049 55.1694C106.16 54.9483 106.455 55.1326 106.344 55.3169Z" fill="#011021"/>
<path d="M107.449 56.4204C107.449 56.4204 107.523 57.3788 107.707 58.9639C107.744 59.222 107.781 59.5169 107.781 59.8118C108.113 62.9451 107.892 67.8848 108.776 72.8981C109.845 78.7962 113.495 79.9021 116.591 77.8009C119.651 75.6997 119.946 66.7789 119.503 60.8439C119.393 59.2957 119.245 57.9686 119.135 57.0839C119.061 56.3467 118.987 55.9043 118.987 55.9043L107.449 56.4204Z" fill="#FFD596"/>
<path d="M116.957 77.5086C116.957 77.5086 111.98 82.2271 106.082 80.1996C100.516 78.2828 87.6875 67.187 87.6875 67.187L87.9455 63.1689C87.9455 63.1689 102.322 68.0717 110.137 71.3894L116.957 77.5086Z" fill="#FFD596"/>
<path d="M90.3483 65.5189C90.1639 66.9934 88.8 67.9887 87.3255 67.8781C86.5514 67.8044 85.6667 67.8044 85.04 67.9887C83.4549 68.4311 81.6855 69.4264 80.8376 69.4264C79.5474 69.4264 80.5059 68.4311 80.6164 68.3205C81.4643 67.6201 82.8282 66.846 82.8282 66.846C82.8282 66.846 80.1004 67.6201 79.2525 68.2836C78.4047 68.984 77.4094 68.7628 77.8517 67.6569C78.2941 66.5511 81.0957 65.0765 81.9804 64.8922C81.9804 64.8922 80.1741 64.9291 78.9945 65.8138C77.778 66.6985 77.2251 66.8828 76.6352 66.9565C76.0454 67.0303 76.0086 65.8138 77.7043 64.5973C79.4 63.3808 80.3584 63.344 81.3906 63.1965C81.3906 63.1965 80.5796 62.9753 79.2157 62.9385C77.8517 62.9016 76.5615 64.0444 75.8243 63.6757C75.087 63.2702 76.6352 62.0169 77.8149 61.722C78.9945 61.4271 79.8055 61.0953 81.3537 61.2796C82.9019 61.464 84.3396 61.722 85.2612 62.0538C86.1459 62.3855 89.5004 63.1965 90.2008 64.3761C90.3483 64.7079 90.3851 65.1134 90.3483 65.5189Z" fill="#FFD596"/>
<path d="M89.2411 63.4182C90.4207 64.0817 90.7525 65.4825 90.605 66.7359C90.5313 67.3625 90.3839 68.2472 89.8678 68.6896C89.4992 68.9845 89.0568 68.9476 88.7619 68.579C88.5407 68.321 88.467 67.9523 88.3933 67.6206C88.3564 67.4731 88.1352 67.5468 88.1721 67.6943C88.3195 68.321 88.6144 69.1688 89.4254 69.132C90.1996 69.0582 90.5313 68.2104 90.6788 67.5468C91.0474 65.9986 90.8631 64.1186 89.3517 63.2339C89.2411 63.1602 89.1305 63.3445 89.2411 63.4182Z" fill="white"/>
<path d="M87.7007 63.0183C87.7007 63.0183 85.4889 61.1014 84.5304 60.9171C83.572 60.7328 82.2081 59.9587 82.0238 60.5854C81.8395 61.212 83.5352 62.1336 83.5352 62.1336L87.7007 63.0183Z" fill="#FFD596"/>
<path d="M108.702 70.5033C109.882 70.9826 110.988 71.6461 111.909 72.5308C112.057 72.6783 111.872 72.8994 111.725 72.752C110.803 71.8673 109.771 71.2037 108.592 70.7614C108.37 70.6877 108.518 70.4296 108.702 70.5033Z" fill="#F6C172"/>
<path d="M109.589 70.944C110.326 70.6122 111.1 70.4648 111.911 70.5754C112.096 70.6122 112.059 70.9071 111.874 70.8703C111.1 70.7965 110.4 70.9071 109.699 71.2389C109.515 71.3126 109.405 71.0177 109.589 70.944Z" fill="#F6C172"/>
<path d="M120.579 58.4834C120.579 58.4834 118.183 59.2944 114.976 59.7736C114.865 59.7736 114.718 59.8105 114.607 59.8105C113.17 59.9948 111.584 60.1054 110.036 60.0316C109.926 60.0316 109.778 60.0316 109.668 59.9948C109.041 59.9579 108.414 59.8842 107.788 59.7736C107.788 59.7736 105.981 51.8481 106.755 46.8716C107.456 42.3006 109.631 39.2041 112.653 38.6143C112.653 38.6143 113.981 39.6833 115.602 42.2637C115.676 42.4111 115.787 42.5586 115.861 42.706C116.708 44.1437 117.63 46.0237 118.441 48.3829C118.478 48.4935 118.515 48.6041 118.552 48.7147C119.473 51.3688 120.21 54.6128 120.579 58.4834Z" fill="#3E8DE3"/>
<path d="M115.929 42.7453C115.892 42.8928 115.855 43.0402 115.781 43.2246C115.339 44.5885 114.565 45.8418 113.533 46.8371C112.39 47.943 111.026 48.8646 110.178 50.2654C108.372 53.2881 109.22 56.9376 110.068 60.1078C109.957 60.1078 109.81 60.1078 109.699 60.0709C109.22 58.2646 108.777 56.4584 108.777 54.5783C108.777 53.067 109.072 51.5187 109.81 50.2285C110.584 48.8646 111.837 47.943 112.98 46.874C114.122 45.805 115.044 44.5516 115.486 43.0771C115.56 42.8191 115.634 42.5979 115.671 42.3398C115.744 42.4504 115.818 42.5979 115.929 42.7453Z" fill="#3C83D0"/>
<path d="M118.584 48.7534C118.253 48.9377 117.958 49.122 117.663 49.3432C115.893 50.6703 114.64 52.624 114.308 54.8358C114.05 56.4946 114.308 58.2272 115.009 59.7386C114.898 59.7386 114.751 59.7754 114.64 59.7754C114.345 59.1488 114.161 58.4852 114.013 57.7848C113.571 55.4625 114.05 53.0295 115.414 51.1126C116.225 49.9699 117.257 49.0483 118.474 48.3848C118.511 48.5322 118.547 48.6428 118.584 48.7534Z" fill="#3C83D0"/>
<path d="M120.021 56.496C116.077 57.8599 111.838 58.3023 107.709 57.7862C107.488 57.7493 107.488 57.4176 107.709 57.4544C111.838 57.9705 116.003 57.5281 119.947 56.2011C120.169 56.0905 120.242 56.4222 120.021 56.496Z" fill="#011021"/>
<path d="M107.566 59.0749C107.603 59.0749 107.603 59.0749 107.64 59.0749C107.713 59.038 107.787 58.9643 107.75 58.8906C105.907 52.4027 106.718 46.4309 106.755 46.3572C106.755 46.2834 106.718 46.1729 106.607 46.1729C106.534 46.1729 106.423 46.2097 106.423 46.3203C106.423 46.394 105.575 52.4027 107.455 58.9643C107.455 59.0012 107.492 59.0749 107.566 59.0749Z" fill="#011021"/>
<path d="M106.277 49.4928C106.314 49.4928 106.388 49.4928 106.425 49.4559C106.498 49.4191 106.498 49.3085 106.462 49.2348C105.724 48.3132 105.393 47.0598 105.393 47.0598C105.356 46.9861 105.282 46.9124 105.208 46.9493C105.135 46.9861 105.061 47.0598 105.098 47.1336C105.098 47.1704 105.429 48.4606 106.24 49.4191C106.24 49.4559 106.277 49.4928 106.277 49.4928Z" fill="#011021"/>
</svg>
