<svg width="44" height="61" viewBox="0 0 44 61" fill="none" xmlns="http://www.w3.org/2000/svg">
<path d="M33.8939 8.43652H10.2096C8.40058 8.43652 6.92969 9.90742 6.92969 11.7165V48.6555C6.92969 50.4645 8.40058 51.9354 10.2096 51.9354H33.8939C35.703 51.9354 37.1739 50.4645 37.1739 48.6555L37.1715 11.7165C37.1715 9.90742 35.7006 8.43652 33.8939 8.43652ZM17.2262 50.8006C17.5064 48.3829 19.5593 46.5111 22.0519 46.5111C24.5445 46.5111 26.5951 48.395 26.8776 50.8006H17.2262ZM32.807 50.8006H28.0199C27.7301 47.7645 25.1723 45.3759 22.0614 45.3759C18.9506 45.3759 16.3831 47.7646 16.103 50.8006H11.3159V50.2016C11.3159 49.977 11.4753 49.7789 11.6903 49.7427L13.0573 49.4794C13.6007 49.3756 14.05 48.9915 14.248 48.4674C14.3229 48.2718 14.3978 48.0737 14.4823 47.8878C14.7166 47.383 14.661 46.8105 14.3519 46.3323L13.5742 45.1803C13.4438 44.9919 13.4703 44.7503 13.6297 44.5909L15.2794 42.9413C15.4388 42.7819 15.6924 42.7529 15.8784 42.8857L17.0208 43.6634C17.4797 43.9823 18.0787 44.0378 18.5859 43.8035C18.7743 43.719 18.9699 43.6344 19.1486 43.5692C19.6631 43.3808 20.0471 42.9219 20.1606 42.3785L20.4239 41.0115C20.4698 40.7869 20.6582 40.6274 20.8828 40.6274H23.2159C23.4405 40.6274 23.6386 40.7869 23.6748 41.0115L23.9381 42.3785C24.0419 42.9219 24.4356 43.3808 24.9308 43.5692C25.1264 43.6441 25.3245 43.719 25.5104 43.8132C26.0152 44.0475 26.607 43.9919 27.0659 43.6731L28.218 42.8954C28.4063 42.7746 28.6575 42.7915 28.8169 42.9509L30.4666 44.6006C30.626 44.76 30.655 45.0136 30.5221 45.1996L29.7444 46.3517C29.4353 46.8202 29.3894 47.3999 29.614 47.8878C29.6985 48.0762 29.7831 48.2718 29.858 48.4771C30.0536 48.9916 30.5053 49.3756 31.0487 49.4795L32.4157 49.7427C32.6403 49.7886 32.7997 49.9867 32.7997 50.2113L32.7973 50.8006L32.807 50.8006ZM36.0386 48.6558C36.0386 49.8272 35.0919 50.774 33.9301 50.8006V50.2016C33.9301 49.4335 33.3866 48.7693 32.6379 48.6268L31.2709 48.3635C31.1115 48.3346 30.9811 48.2235 30.9231 48.0834C30.8386 47.8588 30.754 47.6438 30.6526 47.4192C30.5874 47.2791 30.6067 47.11 30.6912 46.97L31.4689 45.8179C31.8989 45.1899 31.8167 44.3373 31.2805 43.7842L29.6309 42.1345C29.0875 41.5911 28.2349 41.5162 27.5972 41.9389L26.4355 42.7166C26.3051 42.8108 26.136 42.8205 26.0056 42.7625C25.7906 42.6586 25.5756 42.5741 25.3414 42.4823C25.1916 42.4268 25.0878 42.2939 25.0515 42.1345L24.7883 40.7675C24.6385 40.0188 23.9816 39.4657 23.2135 39.4657H20.8804C20.1123 39.4657 19.4554 40.0091 19.3056 40.7675L19.0351 42.1345C19.0061 42.2939 18.895 42.4244 18.7356 42.4823C18.511 42.5669 18.296 42.6514 18.0883 42.7528C17.9482 42.818 17.7791 42.7987 17.6391 42.7069L16.487 41.9292C15.8494 41.5066 14.9967 41.5814 14.4533 42.1249L12.8036 43.7745C12.2699 44.318 12.1853 45.1705 12.6152 45.7985L13.393 46.9506C13.4872 47.0907 13.5065 47.2597 13.4316 47.4095C13.3374 47.6245 13.2432 47.8394 13.1683 48.0568C13.1128 48.2065 12.9799 48.3201 12.8205 48.3466L11.4535 48.6099C10.7048 48.75 10.1517 49.4166 10.1517 50.1847V50.7836C8.98993 50.7643 8.04311 49.8103 8.04311 48.6389L8.04553 11.7166C8.04553 10.5355 9.01164 9.57176 10.1903 9.57176H33.8746C35.0557 9.57176 36.0194 10.5379 36.0194 11.7166V48.6556L36.0386 48.6558Z" fill="#589CE7" stroke="#589CE7" stroke-width="0.6"/>
<path d="M21.602 53.1143C20.3557 53.1143 19.3438 54.1262 19.3438 55.3725C19.3438 56.6188 20.3557 57.6308 21.602 57.6308C22.8483 57.6308 23.8602 56.6188 23.8602 55.3725C23.8602 54.1262 22.8483 53.1143 21.602 53.1143ZM21.602 56.4981C20.9837 56.4981 20.4789 55.9933 20.4789 55.375C20.4789 54.7567 20.9837 54.2519 21.602 54.2519C22.2203 54.2519 22.7251 54.7567 22.7251 55.375C22.7251 55.9909 22.2203 56.4981 21.602 56.4981Z" fill="#589CE7" stroke="#589CE7" stroke-width="0.6"/>
<path d="M20.8598 5.68314H26.7434C27.0525 5.68314 27.3061 5.42953 27.3061 5.12038C27.3061 4.81122 27.0525 4.55762 26.7434 4.55762H20.8598C20.5506 4.55762 20.297 4.81122 20.297 5.12038C20.2898 5.42953 20.5434 5.68314 20.8598 5.68314Z" fill="#589CE7" stroke="#589CE7" stroke-width="0.6"/>
<path d="M32.4577 34.5576H11.6331C11.3239 34.5576 11.0703 34.8112 11.0703 35.1204C11.0703 35.4295 11.3239 35.6831 11.6331 35.6831H32.4602C32.7693 35.6831 33.0229 35.4295 33.0229 35.1204C33.0205 34.8088 32.7765 34.5576 32.4577 34.5576Z" fill="#589CE7" stroke="#589CE7" stroke-width="0.6"/>
<path d="M32.4577 29.751H11.6331C11.3239 29.751 11.0703 30.0046 11.0703 30.3137C11.0703 30.6229 11.3239 30.8765 11.6331 30.8765H32.4602C32.7693 30.8765 33.0229 30.6229 33.0229 30.3137C33.0302 30.0022 32.7765 29.751 32.4577 29.751Z" fill="#589CE7" stroke="#589CE7" stroke-width="0.6"/>
<path d="M32.4577 24.9355H11.6331C11.3239 24.9355 11.0703 25.1892 11.0703 25.4983C11.0703 25.8075 11.3239 26.0611 11.6331 26.0611H32.4602C32.7693 26.0611 33.0229 25.8075 33.0229 25.4983C33.0205 25.1892 32.7765 24.9355 32.4577 24.9355Z" fill="#589CE7" stroke="#589CE7" stroke-width="0.6"/>
<path d="M32.4582 20.1289H22.1448C21.8356 20.1289 21.582 20.3825 21.582 20.6917C21.582 21.0008 21.8356 21.2544 22.1448 21.2544H32.4607C32.7698 21.2544 33.0234 21.0008 33.0234 20.6917C33.0307 20.3825 32.777 20.1289 32.4582 20.1289Z" fill="#589CE7" stroke="#589CE7" stroke-width="0.6"/>
<path d="M13.1797 19.4645C13.3198 19.4645 13.4696 19.4089 13.5831 19.2954C13.8077 19.0708 13.8077 18.7157 13.5831 18.4983L11.9431 16.8584L13.5831 15.2185C13.8077 14.9938 13.8077 14.6388 13.5831 14.4214C13.3585 14.1968 13.0034 14.1968 12.786 14.4214L10.7427 16.4647C10.5181 16.6893 10.5181 17.0444 10.7427 17.2618L12.786 19.3051C12.8971 19.409 13.0396 19.4645 13.1797 19.4645Z" fill="#589CE7" stroke="#589CE7" stroke-width="0.6"/>
<path d="M17.5546 19.39C17.6681 19.5035 17.8082 19.5591 17.9579 19.5591C18.098 19.5591 18.2478 19.5035 18.3613 19.39L20.4964 17.2549C20.721 17.0303 20.721 16.6752 20.4964 16.4578L18.3613 14.3228C18.1367 14.0981 17.7816 14.0981 17.5642 14.3228C17.3396 14.5474 17.3396 14.9024 17.5642 15.1198L19.2984 16.854L17.5642 18.5882C17.3396 18.808 17.3396 19.1653 17.5546 19.39Z" fill="#589CE7" stroke="#589CE7" stroke-width="0.6"/>
<path d="M14.5746 21.0303C14.6204 21.04 14.6688 21.0496 14.7146 21.0496C14.9682 21.0496 15.2025 20.8805 15.2581 20.6197L17.0671 13.3787C17.142 13.0792 16.9536 12.77 16.6541 12.6951C16.3546 12.6203 16.0455 12.8087 15.9706 13.1082L14.1615 20.3492C14.0867 20.6463 14.2654 20.9554 14.5746 21.0303Z" fill="#589CE7" stroke="#589CE7" stroke-width="0.6"/>
<path d="M41.6126 10.6007L40.789 10.4147V6.53578C40.789 3.48288 38.3061 1 35.2532 1H8.85203C5.79672 1 3.31384 3.48288 3.31384 6.53578V15.8562L2.49025 16.0446C1.60866 16.2402 1 17.0179 1 17.9188V22.986C1 23.6502 1.33814 24.2516 1.87194 24.597C1.33816 24.9448 1 25.5341 1 26.208V31.2752C1 32.1737 1.61831 32.9514 2.49025 33.1495L3.31384 33.3378V54.4642C3.31384 57.5171 5.79672 60 8.84962 60H35.2415C38.2944 60 40.7773 57.5171 40.7773 54.4642V19.6145L41.6009 19.4261C42.4825 19.2305 43.0911 18.4527 43.0911 17.5519V12.4846C43.1032 11.5765 42.4941 10.8084 41.6126 10.6007ZM3.3139 32.1765L2.74148 32.0461C2.37678 31.9616 2.12317 31.6428 2.12317 31.278V26.2108C2.12317 25.8365 2.37678 25.5176 2.74148 25.4428L3.3139 25.3099V32.1765ZM3.3139 23.8875L2.74148 23.7571C2.37678 23.6725 2.12317 23.3537 2.12317 22.989V17.9218C2.12317 17.5474 2.37678 17.2286 2.74148 17.1537L3.3139 17.0185V23.8875ZM39.6538 54.4647C39.6538 56.8921 37.6781 58.8774 35.2411 58.8774H8.85166C6.4243 58.8774 4.43897 56.9017 4.43897 54.4647V6.53589C4.43897 4.10853 6.41465 2.12321 8.85166 2.12321H35.2435C37.6709 2.12321 39.6562 4.09889 39.6562 6.53589L39.6538 54.4647ZM41.9772 17.5449C41.9772 17.9192 41.7236 18.2381 41.3589 18.3129L40.7889 18.453V11.5768L41.3614 11.7072C41.7261 11.7918 41.9797 12.1106 41.9797 12.4753L41.9772 17.5449Z" fill="#589CE7" stroke="#589CE7" stroke-width="0.6"/>
</svg>
