<svg width="32" height="32" viewBox="0 0 48 48" fill="none" xmlns="http://www.w3.org/2000/svg">
<path d="M48 24C48 10.7452 37.2548 0 24 0C10.7452 0 0 10.7452 0 24C0 37.2548 10.7452 48 24 48C37.2548 48 48 37.2548 48 24Z" fill="#1275B1"/>
<path d="M18 14C18 15.6569 16.6568 17 15 17C13.3431 17 12 15.6569 12 14C12 12.3431 13.3431 11 15 11C16.6568 11 18 12.3431 18 14Z" fill="white"/>
<path d="M12.3008 19.1338H17.6341V35.1338H12.3008V19.1338Z" fill="white"/>
<path d="M25.8953 19.4484H20.832V35.1338H25.8953C25.8953 35.1338 25.8953 30.1958 25.8953 27.1084C25.8953 25.2552 26.5143 23.3939 28.984 23.3939C31.7749 23.3939 31.7582 25.819 31.7451 27.6979C31.7281 30.1537 31.7687 32.66 31.7687 35.1338H36.832V26.8554C36.7891 21.5695 35.4418 19.1338 31.0093 19.1338C28.3769 19.1338 26.7452 20.3556 25.8953 21.4608V19.4484Z" fill="white"/>
</svg>
