<svg width="60" height="61" viewBox="0 0 60 61" fill="none" xmlns="http://www.w3.org/2000/svg">
<path fill-rule="evenodd" clip-rule="evenodd" d="M9.58217 46.0723C10.4722 46.2873 11.3622 46.4207 12.4068 46.4726C13.1889 46.5097 13.135 47.7105 12.3504 47.671C11.4628 47.629 10.6316 47.5252 9.85187 47.3646C8.03991 53.4035 11.4015 56.7194 17.3647 55.7807C17.3819 55.4767 17.4334 55.1629 17.5241 54.8417C16.8669 54.0214 17.4432 52.7785 18.5024 52.7785C19.1963 52.7785 19.7602 53.3468 19.7602 54.0461C19.7602 54.6984 19.2698 55.2371 18.6397 55.3063C17.936 58.3059 22.1582 60.2332 23.6857 57.4312C23.8034 57.2163 23.8451 57.0458 23.8451 56.7962L23.8476 3.67472C23.8476 2.97791 23.4283 2.58503 22.8178 2.35775C21.0843 1.71287 19.2502 3.16324 18.4656 4.66801C19.4145 4.97194 20.3904 5.45623 21.3687 6.14805C21.6384 6.33831 21.7021 6.71389 21.5134 6.98568C21.3246 7.25746 20.9519 7.32172 20.6822 7.13146C18.4779 5.57235 16.3325 5.20661 14.5646 5.63656C12.5124 6.13567 10.9407 7.70961 10.389 9.75059C9.92073 11.4827 10.1978 13.5459 11.539 15.5473C11.7229 15.8216 11.6518 16.1972 11.3771 16.3825C11.105 16.5678 10.7323 16.4962 10.5484 16.2194C9.94278 15.3151 9.52351 14.3934 9.27344 13.4866C1.10342 15.8933 0.274868 23.4663 5.38961 29.53C6.1203 29.0556 6.94414 28.6602 7.85379 28.3612C8.11369 27.1158 8.08427 25.9051 7.28005 24.9044C6.47089 25.1837 5.61522 24.5808 5.61522 23.7036C5.61522 23.0043 6.17916 22.436 6.87305 22.436C7.692 22.436 8.29025 23.2119 8.0941 24.01C9.09696 25.1615 9.32494 26.5625 9.12144 28.0253C9.26365 27.9956 9.40831 27.9684 9.55543 27.9412C9.73687 27.4644 10.1954 27.1258 10.7299 27.1258C11.4238 27.1258 11.9877 27.6941 11.9877 28.3934C11.9877 29.6239 10.4185 30.1255 9.70991 29.1347C0.00769156 30.8619 -0.43632 43.6016 9.58217 46.0723ZM18.6937 47.5598C19.8412 48.1751 19.4121 49.9467 18.1028 49.9467C16.8009 49.9467 16.3644 48.1875 17.5021 47.5648C17.4261 45.5559 16.9406 44.5577 15.0257 43.7843C14.2288 44.5305 12.9121 43.9647 12.9121 42.8552C12.9121 42.1559 13.4761 41.5876 14.1699 41.5876C14.7927 41.5876 15.3125 42.0447 15.4106 42.6477C17.8527 43.6187 18.603 45.042 18.6937 47.5598ZM7.4543 35.3833C8.05502 35.3833 8.55521 35.8058 8.68269 36.3716C10.9507 36.8189 12.7063 35.8552 13.0643 33.5721C11.9879 32.9074 12.4513 31.2223 13.719 31.2223C15.0553 31.2223 15.4598 33.0606 14.2584 33.6364C14.1726 34.2763 13.9887 34.8867 13.6945 35.4377C14.6752 35.7317 15.4696 36.1814 16.2199 36.893C17.0119 36.688 17.794 37.2859 17.794 38.1211C17.794 38.8204 17.2301 39.3886 16.5362 39.3886C15.6682 39.3886 15.0724 38.5287 15.3446 37.7159C14.6262 37.0561 13.8857 36.7052 12.9172 36.473C11.7133 37.6418 10.0215 37.8839 8.35908 37.5355C7.57936 38.3485 6.1965 37.795 6.1965 36.6534C6.19405 35.9517 6.75796 35.3833 7.4543 35.3833ZM20.7362 33.8736C21.5772 34.6494 21.0354 36.0776 19.8878 36.0776C19.1939 36.0776 18.63 35.5093 18.63 34.81C18.63 34.217 19.0346 33.7204 19.5789 33.582C19.9933 31.2915 19.2724 29.4877 17.0534 28.3264C16.2369 28.9713 15.0208 28.3907 15.0208 27.3282C15.0208 26.6289 15.5847 26.0606 16.2786 26.0606C16.9382 26.0606 17.4801 26.5721 17.5316 27.2219C20.3169 28.6452 21.2756 31.0268 20.7362 33.8736ZM12.086 21.2719C12.5176 21.2719 12.9001 21.4918 13.1256 21.8254C18.5297 20.9112 19.4396 15.2551 15.786 12.9052C14.9621 13.4784 13.8146 12.8879 13.8146 11.8625C13.8146 11.1632 14.3786 10.5949 15.0725 10.5949C15.7565 10.5949 16.3132 11.1459 16.3303 11.8304C17.0389 12.2677 17.6127 12.8088 18.0564 13.4142C18.6253 12.6556 19.4124 12.1071 20.3097 11.8205C20.4691 11.3065 20.9472 10.9335 21.5112 10.9335C22.2051 10.9335 22.769 11.5018 22.769 12.201C22.769 13.3895 21.2905 13.9158 20.5427 13.0114C19.7605 13.2931 19.1181 13.8392 18.7209 14.5904C19.5913 16.6609 19.1721 19.0305 17.6739 20.728C16.6834 21.8498 15.2048 22.7072 13.2458 23.0235C13.057 23.4856 12.6083 23.8093 12.0811 23.8093C11.3872 23.8093 10.8232 23.2409 10.8232 22.5417C10.8257 21.8375 11.3897 21.2719 12.086 21.2719ZM50.0714 2.8021C51.6774 2.8021 52.489 4.76895 51.3513 5.91545C50.6427 6.62953 49.4903 6.62706 48.7842 5.90803L44.8537 7.93662V11.0598C44.8537 11.853 43.6597 11.853 43.6597 11.0598V7.57094C43.6597 7.31644 43.8142 7.099 44.0373 7.01252L48.2766 4.8258C48.1565 3.74604 48.9949 2.8021 50.0714 2.8021ZM50.5054 4.18827C50.1179 3.80034 49.4559 4.07461 49.4559 4.62809C49.4559 5.1791 50.1204 5.45584 50.5054 5.06544C50.7456 4.82329 50.7456 4.43041 50.5054 4.18827ZM50.0714 56.9916C50.6181 56.9916 50.8928 56.322 50.5054 55.934C50.1179 55.5436 49.4559 55.8204 49.4559 56.3714C49.4559 56.7124 49.7305 56.9916 50.0714 56.9916ZM51.3513 57.6612C50.1474 58.8744 48.0878 57.8836 48.2717 56.1737L44.0323 53.987C43.8117 53.898 43.6548 53.6806 43.6548 53.4286V49.9397C43.6548 49.1465 44.8488 49.1465 44.8488 49.9397V53.0629L48.7792 55.0915C49.912 53.9351 51.876 54.748 51.876 56.3738C51.8809 56.873 51.6774 57.3301 51.3513 57.6612ZM56.5493 52.922C57.6625 52.922 58.224 51.5581 57.4369 50.7649C56.6499 49.9718 55.2964 50.5351 55.2964 51.6594C55.2964 52.3562 55.8579 52.922 56.5493 52.922ZM58.2804 53.4014C58.7242 52.9541 58.9988 52.3389 58.9988 51.6569C58.9988 49.3491 56.1128 48.3039 54.6564 50.0928L48.2665 46.7942V41.8326C48.2665 41.0395 47.0724 41.0395 47.0724 41.8326V47.1574C47.0724 47.4119 47.2294 47.6294 47.45 47.7158L54.1488 51.1726C53.678 53.5619 56.5763 55.1187 58.2804 53.4014ZM56.5493 6.87168C55.0022 6.87168 53.8473 8.29738 54.1465 9.81948L47.4477 13.2762C47.2271 13.3677 47.0726 13.5851 47.0726 13.8371V19.1619C47.0726 19.9551 48.2666 19.9551 48.2666 19.1619V14.2003L54.6565 10.9017C55.576 12.0284 57.258 12.115 58.2804 11.0821C59.8202 9.53286 58.7242 6.87168 56.5493 6.87168ZM57.4369 8.44565C57.9273 8.93983 57.9273 9.74042 57.4369 10.2321C56.6499 11.0252 55.2964 10.4619 55.2964 9.33761C55.2964 8.21831 56.6498 7.6525 57.4369 8.44565ZM37.9145 11.8679C37.9145 13.7779 36.3772 15.3272 34.4818 15.3272C31.434 15.3272 29.8967 11.5961 32.0544 9.42174C32.6747 8.7966 33.5329 8.40865 34.4818 8.40865C36.3771 8.40865 37.9145 9.95782 37.9145 11.8679ZM34.4818 14.1238C35.7176 14.1238 36.7204 13.1132 36.7204 11.8679C36.7204 9.85408 34.2979 8.86573 32.9003 10.2742C31.4929 11.69 32.4933 14.1238 34.4818 14.1238ZM39.3685 9.77995L40.3664 8.55685C40.69 8.16151 40.6753 7.61543 40.3443 7.22009L39.1429 6.00439C38.7702 5.62881 38.1743 5.60163 37.7649 5.93767L36.5512 6.9433L36.4703 6.90871L36.3182 5.33474C36.2668 4.79855 35.8254 4.39825 35.2982 4.39825H33.6628C33.1356 4.39825 32.6943 4.79853 32.6428 5.33474L32.4932 6.90871L32.4099 6.9433L31.1962 5.93767C30.7892 5.59916 30.1909 5.62881 29.8182 6.00439L28.6634 7.17068L28.6658 7.17315C28.2931 7.5512 28.2637 8.14671 28.5996 8.55932L29.5975 9.78242L29.5632 9.86643L28.0013 10.0196C27.4692 10.0715 27.072 10.5163 27.072 11.0475V12.6956C27.072 13.2269 27.4692 13.6716 28.0013 13.7235L29.5632 13.8767L29.5975 13.9607L28.5996 15.1838C28.2637 15.594 28.2931 16.1969 28.6658 16.57L29.8207 17.7363C30.1933 18.1119 30.7892 18.139 31.1986 17.803L32.4123 16.7974L32.4957 16.832L32.6477 18.4059C32.6992 18.9421 33.1405 19.3424 33.6677 19.3424H35.3032C35.8303 19.3424 36.2717 18.9421 36.3232 18.4059L36.4752 16.832L36.5585 16.7974L37.7722 17.803C38.1645 18.1292 38.7064 18.1143 39.0987 17.7808L40.3051 16.57C40.6778 16.1944 40.7048 15.594 40.3713 15.1838L39.3734 13.9607L39.4077 13.8767L40.9696 13.7235C41.5017 13.6716 41.8989 13.2269 41.8989 12.6956V11.0475C41.8989 10.5163 41.5017 10.0715 40.9696 10.0196L39.4077 9.86644L39.3685 9.77995ZM38.2847 10.2791C38.1891 10.0443 38.1204 9.89361 38.1572 9.61439C38.1817 9.4266 38.2577 9.2487 38.3828 9.0955L39.3489 7.91194L38.4049 6.96065L37.2304 7.9342C36.9264 8.18624 36.5194 8.2406 36.1614 8.07999C35.899 7.96138 35.7078 7.93173 35.4969 7.65499C35.3841 7.50426 35.313 7.32389 35.2934 7.12622L35.1463 5.60164H33.8125L33.6653 7.12622C33.6261 7.52403 33.3785 7.85264 33.0107 7.9935C32.7385 8.09975 32.5669 8.20847 32.2432 8.16399C32.0593 8.13929 31.8827 8.06269 31.7283 7.93667L30.5538 6.96311L29.6098 7.9144L30.5759 9.09797C30.826 9.40436 30.8799 9.81452 30.7206 10.1753C30.6029 10.4396 30.5734 10.6324 30.2988 10.8449C30.1493 10.9585 29.9703 11.0302 29.7741 11.05L28.2613 11.1982V12.5424L29.7741 12.6906C30.1689 12.7302 30.495 12.9797 30.6347 13.3504C30.7402 13.6247 30.8456 13.7976 30.8039 14.1238C30.7794 14.3091 30.7034 14.487 30.5783 14.6427L29.6123 15.8263L30.5562 16.7776L31.7307 15.804C32.0348 15.552 32.4418 15.4976 32.7997 15.6582C33.0621 15.7768 33.2533 15.8065 33.4642 16.0832C33.577 16.2339 33.6481 16.4143 33.6677 16.612L33.8148 18.1366H35.1487L35.2958 16.612C35.335 16.2142 35.5827 15.8856 35.9505 15.7447C36.2226 15.6384 36.3943 15.5322 36.718 15.5742C36.9019 15.5989 37.0784 15.6755 37.2329 15.8015L38.4073 16.7751L39.3513 15.8238L38.3852 14.6402C38.1351 14.3338 38.0812 13.9237 38.2406 13.5629C38.3583 13.2985 38.3877 13.1058 38.6623 12.8933C38.8119 12.7797 38.9909 12.708 39.187 12.6882L40.6999 12.54V11.1958L39.187 11.0476C38.6966 11.0006 38.4465 10.704 38.2847 10.2791ZM37.9145 49.129C37.9145 51.039 36.3771 52.5883 34.4818 52.5883C32.5864 52.5883 31.049 51.039 31.049 49.129C31.049 47.2189 32.5864 45.6697 34.4818 45.6697C36.3771 45.6697 37.9145 47.2189 37.9145 49.129ZM34.4818 51.3849C35.7176 51.3849 36.7204 50.3743 36.7204 49.129C36.7204 47.8837 35.7175 46.8731 34.4818 46.8731C32.4834 46.8731 31.5027 49.3143 32.9003 50.7227C33.3049 51.1304 33.8639 51.3849 34.4818 51.3849ZM39.3685 47.0411L40.3664 45.818C40.69 45.4226 40.6753 44.8765 40.3443 44.4812L39.1428 43.2655C38.7701 42.8899 38.1743 42.8628 37.7649 43.1988L36.5512 44.2044L36.4678 44.1698L36.3158 42.5959C36.2643 42.0597 35.8229 41.6594 35.2958 41.6594H33.6603C33.1332 41.6594 32.6918 42.0621 32.6403 42.5959L32.4883 44.1698L32.4049 44.2044L31.1912 43.1988C30.7842 42.8603 30.1859 42.8899 29.8133 43.2655L28.6584 44.4293L28.6609 44.4317C28.2882 44.8098 28.2563 45.4053 28.5947 45.8179L29.5926 47.041L29.5583 47.125L27.9964 47.2782C27.4643 47.3301 27.0671 47.7749 27.0671 48.3061V49.9542C27.0671 50.4855 27.4643 50.9302 27.9964 50.9821L29.5583 51.1353L29.5926 51.2193L28.5947 52.4424C28.271 52.8378 28.2858 53.3838 28.6168 53.7792L29.8182 54.9949C30.1909 55.3705 30.7868 55.3976 31.1962 55.0616L32.4099 54.056L32.4933 54.0906L32.6453 55.6645C32.6968 56.1982 33.1381 56.601 33.6653 56.601H35.3007C35.8279 56.601 36.2693 56.2007 36.3207 55.6645L36.4727 54.0906L36.5561 54.056L37.7698 55.0616C38.1621 55.3877 38.704 55.3729 39.0963 55.0394L40.3027 53.8286C40.6754 53.453 40.7023 52.8526 40.3689 52.44L39.371 51.2169L39.4053 51.1328L40.9672 50.9797C41.4992 50.9278 41.8965 50.483 41.8965 49.9518V48.3036C41.8965 47.7724 41.4993 47.3276 40.9672 47.2758L39.4053 47.1226L39.3685 47.0411ZM38.2847 47.5402C38.1891 47.3055 38.1204 47.1547 38.1572 46.8755C38.1817 46.6902 38.2577 46.5123 38.3828 46.3566L39.3488 45.1731L38.4049 44.2218L37.2304 45.1953C36.9263 45.4474 36.5193 45.5017 36.1614 45.3411C35.899 45.2225 35.7078 45.1929 35.4969 44.9161C35.3841 44.7654 35.313 44.585 35.2934 44.3873L35.1463 42.8628H33.8124L33.6653 44.3873C33.6261 44.7851 33.3784 45.1138 33.0106 45.2546C32.7385 45.3609 32.5668 45.4696 32.2432 45.4251C32.0593 45.4004 31.8827 45.3238 31.7282 45.1978L30.5538 44.2242L29.6098 45.1755L30.5759 46.3591C30.826 46.6655 30.8799 47.0756 30.7205 47.4364C30.6028 47.7008 30.5734 47.8935 30.2988 48.106C30.1492 48.2197 29.9702 48.2913 29.7741 48.3111L28.2612 48.4593V49.8035L29.7741 49.9518C30.1688 49.9888 30.4949 50.2409 30.6347 50.6115C30.7402 50.8858 30.8456 51.0587 30.8039 51.3849C30.7794 51.5702 30.7034 51.7482 30.5783 51.9038L29.6122 53.0874L30.5562 54.0387L31.7307 53.0651C32.0347 52.8131 32.4393 52.7587 32.7997 52.9193C33.0621 53.0379 33.2558 53.0701 33.4642 53.3443C33.577 53.4951 33.6481 53.6754 33.6677 53.8731L33.8148 55.3977H35.1487L35.2958 53.8731C35.335 53.4753 35.5827 53.1467 35.9505 53.0058C36.2226 52.8996 36.3943 52.7908 36.7179 52.8353C36.9018 52.86 37.0784 52.9366 37.2328 53.0626L38.4073 54.0362L39.3513 53.0849L38.3852 51.9014C38.1351 51.595 38.0812 51.1848 38.2406 50.8241C38.3582 50.5597 38.3877 50.3645 38.6623 50.1544C38.8119 50.0408 38.9908 49.9691 39.187 49.9494L40.6999 49.8011V48.4569L39.187 48.3087C38.6991 48.2617 38.4465 47.9627 38.2847 47.5402ZM46.7146 30.4987C46.7146 33.1401 44.5912 35.2799 41.9701 35.2799C39.349 35.2799 37.2256 33.1376 37.2256 30.4987C37.2256 27.8573 39.3514 25.7175 41.9701 25.7175C44.5888 25.7175 46.7146 27.8573 46.7146 30.4987ZM44.4784 33.0289C45.8637 31.6328 45.8637 29.367 44.4784 27.9685C43.0931 26.5724 40.8447 26.5724 39.4569 27.9685C38.0716 29.3645 38.0716 31.6304 39.4569 33.0289C40.8447 34.4249 43.0931 34.4249 44.4784 33.0289ZM48.2887 27.6621L49.7083 25.925C50.0933 25.4556 50.059 24.7687 49.6348 24.3387L48.0827 22.7746L48.0802 22.7771C47.6683 22.3496 46.9769 22.3101 46.5086 22.7005L44.7849 24.1311L44.449 23.9903L44.2332 21.7541C44.1743 21.1438 43.6692 20.6842 43.0685 20.6842H40.874C40.2709 20.6842 39.7682 21.1438 39.7094 21.7541L39.4936 23.9903L39.1577 24.1311L37.434 22.7005C36.9681 22.3126 36.2865 22.3472 35.8598 22.7746L34.3078 24.3387C33.8811 24.7687 33.8492 25.4531 34.2317 25.925L35.6514 27.6621L35.5116 28.0006L33.2926 28.218C32.687 28.2773 32.2309 28.7863 32.2309 29.3917V31.6032C32.2309 32.211 32.687 32.7175 33.2926 32.7769L35.5116 32.9943L35.6514 33.3328L34.2317 35.0699C33.8468 35.5393 33.8811 36.2262 34.3078 36.6562L35.8598 38.2203C36.2865 38.6502 36.9656 38.6823 37.434 38.2969L39.1577 36.8662L39.4936 37.0071L39.7094 39.2433C39.7682 39.8536 40.2733 40.3132 40.874 40.3132H43.0685C43.6717 40.3132 44.1743 39.8536 44.2332 39.2433L44.449 37.0071L44.7849 36.8662L46.5086 38.2969C46.9744 38.6848 47.656 38.6502 48.0827 38.2203L49.6348 36.6562C50.0614 36.2262 50.0933 35.5418 49.7083 35.0699L48.2911 33.3328L48.4309 32.9943L50.6499 32.7769C51.2555 32.7176 51.7116 32.2086 51.7116 31.6032V29.3917C51.7116 28.7839 51.2555 28.2774 50.6499 28.218L48.4309 28.0006L48.2887 27.6621ZM47.2589 28.2872C47.1461 28.0105 47.0578 27.835 47.102 27.5015C47.1314 27.289 47.2172 27.0839 47.3619 26.9109L48.7766 25.1788L47.2491 23.6394L45.5303 25.0651C45.1821 25.3542 44.7187 25.416 44.3092 25.2307C44.0003 25.0923 43.7428 25.0454 43.4976 24.7217C43.3677 24.5512 43.2868 24.3436 43.2647 24.1163L43.0489 21.8851H40.8888L40.673 24.1163C40.6289 24.571 40.3445 24.9465 39.9252 25.1071C39.5868 25.2381 39.3784 25.3765 38.9959 25.3246C38.785 25.2949 38.5815 25.2084 38.4099 25.0627L36.6911 23.637L35.1635 25.1763L36.5783 26.9084C36.8652 27.2593 36.9265 27.7263 36.7426 28.1389C36.6028 28.4503 36.5587 28.7097 36.2375 28.9568C36.0683 29.0878 35.8623 29.1693 35.6368 29.1916L33.4227 29.409V31.5858L35.6368 31.8033C36.0879 31.8478 36.4606 32.1344 36.62 32.5569C36.7499 32.8979 36.8872 33.1079 36.8333 33.4934C36.8039 33.7059 36.718 33.911 36.5734 34.0839L35.1586 35.8161L36.6862 37.3554L38.405 35.9297C38.7532 35.6406 39.2166 35.5788 39.626 35.7642C39.935 35.905 40.1924 35.9495 40.4376 36.2732C40.5676 36.4437 40.6485 36.6512 40.6706 36.8785L40.8863 39.1097H43.0465L43.2622 36.8785C43.3064 36.4239 43.5908 36.0483 44.0101 35.8877C44.3484 35.7568 44.5568 35.6184 44.9394 35.6728C45.1502 35.6999 45.3537 35.7889 45.5254 35.9347L47.2442 37.3604L48.7717 35.821L47.357 34.0889C47.0701 33.738 47.0088 33.271 47.1927 32.8584C47.33 32.5471 47.3766 32.2876 47.6978 32.0405C47.867 31.9095 48.0729 31.828 48.2985 31.8058L50.5126 31.5883V29.4115L48.301 29.194C47.8498 29.1496 47.4771 28.8629 47.3177 28.4404C47.2859 28.3589 47.2663 28.3094 47.2589 28.2872ZM8.30505 51.9363C8.04024 50.5502 8.14813 48.9169 8.69245 47.0761C0.184108 44.5656 -1.16919 34.9412 4.4261 30.242C-1.25255 23.4472 0.0224785 14.8977 9.04064 12.3061C8.45218 7.48538 12.4096 3.55668 17.2816 4.37962C18.3138 2.0619 21.1752 0.0728465 23.728 1.45655C24.5518 1.90378 25.0447 2.73152 25.0447 3.67541V56.7994C25.0447 57.2269 24.9392 57.6346 24.7357 58.0127C22.9115 61.3607 18.3433 60.1129 17.4928 56.9774C14.5873 57.4246 11.5616 56.9897 9.71761 54.8969C9.01145 54.0988 8.52819 53.1051 8.30505 51.9363Z" fill="#589CE7" stroke="#589CE7" stroke-width="0.4"/>
</svg>
