<svg width="59" height="59" viewBox="0 0 59 59" fill="none" xmlns="http://www.w3.org/2000/svg">
<path fill-rule="evenodd" clip-rule="evenodd" d="M8.57392 11.3838C8.57392 11.8935 8.16105 12.3057 7.65203 12.3057C7.14301 12.3057 6.73015 11.8928 6.73015 11.3838V1.84377H4.44915C3.93949 1.84377 3.52727 1.43091 3.52727 0.921885C3.52727 0.412861 3.93949 0 4.44915 0H58.0788C58.5878 0 59 0.412861 59 0.921885C59 1.43091 58.5878 1.84377 58.0788 1.84377H55.7971V32.3961H58.0788C58.5878 32.3961 59 32.809 59 33.318C59 33.827 58.5878 34.2399 58.0788 34.2399H18.4339C17.9248 34.2399 17.512 33.827 17.512 33.318C17.512 32.809 17.9248 32.3961 18.4339 32.3961H53.9534V1.84377H8.57392V11.3838ZM31.2633 8.98934C26.7731 8.98934 23.1324 12.6294 23.1324 17.1203C23.1324 21.6111 26.7731 25.2512 31.2633 25.2512C35.7535 25.2512 39.3942 21.6104 39.3942 17.1203C39.3942 12.6301 35.7541 8.98934 31.2633 8.98934ZM35.7086 12.6743C33.2539 10.2189 29.2721 10.2189 26.8174 12.6743C24.362 15.1297 24.362 19.1108 26.8174 21.5662C29.2721 24.0216 33.2533 24.0216 35.7086 21.5662C38.1646 19.1115 38.1646 15.1297 35.7086 12.6743ZM17.694 19.2923C17.7639 19.7365 18.1479 20.0648 18.598 20.0661L19.7167 20.0744C19.9782 21.1053 20.386 22.1137 20.9181 23.0439L20.1507 23.7991C19.8083 24.1062 19.743 24.6274 20.0135 25.0127C20.8854 26.2539 21.9733 27.3584 23.1997 28.2483C23.5613 28.5111 24.0671 28.4714 24.3851 28.1579L25.1819 27.3725C26.0987 27.9162 27.1148 28.3457 28.1322 28.6214L28.1239 29.6689C28.0816 30.1401 28.4079 30.5735 28.883 30.6568C30.4049 30.9223 31.8749 30.9203 33.4097 30.6927C33.854 30.6306 34.1963 30.2517 34.2001 29.7907L34.2091 28.6663C35.2522 28.4002 36.2388 28.0015 37.1799 27.4617L37.9409 28.2342C38.2486 28.5765 38.7692 28.6432 39.1545 28.372C40.3975 27.4988 41.5021 26.4109 42.3932 25.1826C42.6561 24.821 42.6163 24.3158 42.3029 23.9979L41.5118 23.1939C42.056 22.2772 42.4856 21.2611 42.7619 20.243L43.8235 20.2501C44.2934 20.2872 44.7223 19.9603 44.8025 19.4872C45.0589 17.9986 45.0711 16.449 44.8332 14.9483C44.7627 14.504 44.3787 14.1757 43.9293 14.1738L42.8112 14.1655C42.5497 13.134 42.1419 12.1255 41.6092 11.196L42.3766 10.4401C42.7183 10.133 42.7843 9.61184 42.5138 9.22719C41.6419 7.98604 40.554 6.8808 39.3269 5.99097C38.9654 5.72877 38.4608 5.76787 38.1422 6.08136L37.3447 6.86734C36.4286 6.3237 35.4118 5.89481 34.3957 5.61914L34.404 4.57032C34.4457 4.09912 34.1194 3.66574 33.6443 3.58304C32.0903 3.31122 30.6786 3.31507 29.117 3.5465C28.674 3.60869 28.3303 3.98757 28.3271 4.44915L28.3175 5.57298C27.2751 5.83903 26.2872 6.23843 25.3467 6.77759L24.5857 6.00507C24.2793 5.66273 23.7575 5.59606 23.3728 5.86724C22.1304 6.7404 21.0251 7.82897 20.134 9.05601C19.8718 9.41759 19.9109 9.92277 20.2244 10.2407L21.0155 11.0447C20.4712 11.9614 20.0417 12.9782 19.7654 13.9962L18.7038 13.9879C18.2338 13.9507 17.8056 14.2777 17.7242 14.7508C17.4671 16.2394 17.4549 17.7896 17.6934 19.2903L17.694 19.2923ZM19.4122 18.2358C19.9699 18.2396 20.3808 18.2338 20.8655 18.6159C21.1687 18.8538 21.3925 19.1897 21.4918 19.5878C21.7181 20.4937 22.0631 21.3495 22.5317 22.1605C22.9484 22.8606 22.8144 23.7568 22.2381 24.3248L21.9848 24.5742C22.4887 25.2018 23.049 25.7705 23.669 26.284C24.0652 25.8936 24.3485 25.6038 24.9627 25.5294C25.3422 25.4845 25.7365 25.564 26.0897 25.7743C26.9001 26.2596 27.7341 26.6097 28.6477 26.8539C29.4381 27.0648 29.976 27.7719 29.969 28.5919L29.9658 28.9522C30.7697 29.0407 31.5672 29.0471 32.3692 28.9727C32.3737 28.415 32.3666 28.0053 32.75 27.5181C32.9878 27.2155 33.3238 26.9917 33.7219 26.8917C34.6168 26.6661 35.4939 26.3128 36.2952 25.85C37.003 25.4403 37.8858 25.5596 38.4595 26.1429L38.7153 26.4026C39.3442 25.8974 39.9129 25.3371 40.4277 24.7159C40.036 24.3171 39.7411 24.0338 39.6667 23.4151C39.6218 23.0349 39.7007 22.6407 39.9122 22.2881C40.3975 21.4777 40.7489 20.6424 40.9931 19.7289C41.204 18.941 41.9105 18.4012 42.7285 18.4069L43.0965 18.4101C43.1844 17.6069 43.1895 16.8081 43.1151 16.0061C42.5574 16.0022 42.1471 16.008 41.6618 15.6259C41.3585 15.388 41.1348 15.0521 41.0354 14.6546C40.8091 13.7488 40.4642 12.8929 39.9956 12.082C39.5789 11.3819 39.7122 10.4863 40.2892 9.91764L40.5424 9.66761C40.0385 9.03999 39.4782 8.47198 38.8576 7.95783C38.4615 8.34825 38.1781 8.63867 37.5633 8.71239C37.1838 8.75855 36.7895 8.67841 36.4369 8.46814C35.6272 7.98347 34.7919 7.6328 33.879 7.38918C33.0885 7.17827 32.5513 6.47115 32.5577 5.65119L32.5602 5.29154C31.7339 5.20179 30.9806 5.20179 30.1568 5.27167C30.1523 5.82942 30.1594 6.23843 29.776 6.72438C29.5381 7.02761 29.2022 7.25135 28.8041 7.35136C27.9091 7.57638 27.0308 7.93026 26.2308 8.39313C25.5224 8.80214 24.6402 8.6829 24.0665 8.10015L23.8107 7.84115C23.1824 8.34569 22.6125 8.90664 22.0983 9.52786C22.49 9.92597 22.7849 10.21 22.8586 10.828C22.9035 11.2081 22.8247 11.6031 22.6131 11.955C22.1278 12.7654 21.7765 13.6007 21.5316 14.5142C21.3207 15.3028 20.6148 15.8419 19.7968 15.8362L19.4288 15.833C19.341 16.6324 19.3359 17.4363 19.4096 18.237L19.4122 18.2358ZM7.99373 13.3103C5.17935 13.3103 2.8881 15.5958 2.8881 18.4069C2.8881 21.2181 5.17935 23.5029 7.99373 23.5029C10.8081 23.5029 13.1 21.2168 13.1 18.4069C13.1 15.597 10.8081 13.3103 7.99373 13.3103ZM10.3042 16.1067C8.26555 14.0725 4.73187 15.4983 4.73187 18.4063C4.73187 21.3143 8.26555 22.7407 10.3042 20.7065C11.5736 19.4397 11.5736 17.3729 10.3042 16.1067ZM3.78114 24.2921C1.70401 24.2921 0 25.9936 0 28.0668V34.9534C0 35.4631 0.41222 35.8753 0.921885 35.8753H15.0662C15.5752 35.8753 15.9881 35.4624 15.9881 34.9534V28.0668C15.9881 25.9936 14.2834 24.2921 12.207 24.2921H3.78114ZM12.207 26.1359H3.78114C2.71565 26.1359 1.84313 26.9994 1.84313 28.0668V34.0322H14.1443V28.0668C14.1443 26.9988 13.2731 26.1359 12.207 26.1359ZM45.4083 36.435C48.2227 36.435 50.5139 38.7211 50.5139 41.531C50.5139 44.3409 48.2227 46.6276 45.4083 46.6276C42.5939 46.6276 40.3027 44.3422 40.3027 41.531C40.3027 38.7198 42.5946 36.435 45.4083 36.435ZM47.7188 39.2308C45.6801 37.1966 42.1464 38.623 42.1464 41.531C42.1464 44.439 45.6801 45.8654 47.7188 43.8312C48.9881 42.5651 48.9881 40.4976 47.7188 39.2308ZM41.1957 47.4168H49.6209C51.698 47.4168 53.402 49.1183 53.402 51.1915V58.0781C53.402 58.5871 52.9892 59 52.4801 59H10.0459C9.53683 59 9.12461 58.5871 9.12461 58.0781V51.1915C9.12461 49.1183 10.8293 47.4168 12.9057 47.4168H21.3316C22.4644 47.4168 23.4914 47.9226 24.1915 48.731C24.8903 47.9233 25.9179 47.4168 27.0507 47.4168H35.4759C36.6093 47.4168 37.6357 47.9226 38.3358 48.7317C39.0346 47.9233 40.0616 47.4168 41.1951 47.4168H41.1957ZM49.6209 49.2612H41.1957C40.1302 49.2612 39.2577 50.1241 39.2577 51.1922V57.1575H51.5582V51.1922C51.5582 50.1241 50.6864 49.2612 49.6209 49.2612ZM31.264 36.4356C34.0783 36.4356 36.3696 38.7217 36.3696 41.5316C36.3696 44.3415 34.0777 46.6283 31.264 46.6283C28.4502 46.6283 26.1583 44.3428 26.1583 41.5316C26.1583 38.7205 28.4496 36.4356 31.264 36.4356ZM33.5744 39.2314C31.5351 37.1972 28.0021 38.6236 28.0021 41.5316C28.0021 44.4396 31.5358 45.866 33.5744 43.8319C34.8432 42.5657 34.8432 40.4982 33.5744 39.2314ZM35.4765 49.2612H27.0514C25.9859 49.2612 25.1134 50.1241 25.1134 51.1922V57.1575H37.4139V51.1922C37.4139 50.1241 36.5414 49.2612 35.4759 49.2612H35.4765ZM17.119 36.4356C19.9334 36.4356 22.2246 38.7217 22.2246 41.5316C22.2246 44.3415 19.9334 46.6283 17.119 46.6283C14.3046 46.6283 12.0134 44.3428 12.0134 41.5316C12.0134 38.7205 14.3046 36.4356 17.119 36.4356ZM19.4295 39.2314C17.3908 37.1972 13.8571 38.6236 13.8571 41.5316C13.8571 44.4396 17.3908 45.866 19.4295 43.8319C20.6982 42.5657 20.6982 40.4982 19.4295 39.2314ZM21.3322 49.2612H12.9064C11.8409 49.2612 10.9684 50.1241 10.9684 51.1922V57.1575H23.2696V51.1922C23.2696 50.1248 22.3977 49.2612 21.3322 49.2612Z" fill="#589CE7"/>
</svg>
