<svg width="59" height="61" viewBox="0 0 59 61" fill="none" xmlns="http://www.w3.org/2000/svg">
<path d="M34.2843 56.1263C34.5852 56.3646 34.5852 56.7222 34.4047 57.0202L32.2379 59.7616C32.1175 59.9404 31.9369 60 31.7564 60C31.636 60 31.4554 59.9404 31.335 59.8808C31.0341 59.6424 31.0341 59.2849 31.2147 58.9869L32.4786 57.3778C31.5156 57.497 30.5526 57.5566 29.5896 57.5566C20.5011 57.5566 12.1951 53.4444 6.71792 46.2333C6.71792 46.1737 6.65773 46.1737 6.65773 46.1141C3.04641 41.2869 1 35.4465 1 29.3081C1 28.9505 1.30094 28.6525 1.66207 28.6525C2.02321 28.6525 2.32415 28.9505 2.32415 29.3081C2.32415 38.903 7.56055 47.8424 15.987 52.6697L16.0471 52.7293C20.0798 55.0535 24.7143 56.2455 29.5896 56.2455C30.4924 56.2455 31.335 56.1859 32.2379 56.1263L30.7332 54.9939C30.4322 54.7556 30.4322 54.398 30.6128 54.1C30.8535 53.802 31.2147 53.802 31.5156 53.9808L34.2843 56.1263ZM52.5816 12.6212L54.3873 13.098C54.7484 13.1576 55.0493 12.9788 55.1697 12.6212C55.2299 12.2636 55.0493 11.9657 54.6882 11.8465L51.3176 11.0121C50.9565 10.9525 50.6556 11.1313 50.5352 11.4889L49.6926 14.8263C49.6324 15.1838 49.8129 15.4818 50.1741 15.601C50.2343 15.601 50.2944 15.601 50.3546 15.601C50.6556 15.601 50.8963 15.4222 50.9565 15.1242L51.438 13.1576C54.929 17.8061 56.7948 23.3485 56.7948 29.1293V29.2485C56.7948 29.7848 56.7948 30.3808 56.7346 30.9172C56.7346 31.0364 56.7346 31.1556 56.7346 31.2747C56.6744 31.7515 56.6744 32.2283 56.6143 32.6455C56.6143 32.705 56.6143 32.8242 56.5541 32.8838C55.4105 41.0485 50.5352 48.3788 43.1922 52.6101C42.8913 52.7889 42.7709 53.1465 42.9514 53.4444C43.0718 53.6232 43.3126 53.7424 43.4931 53.7424C43.6135 53.7424 43.7339 53.7424 43.7941 53.6828C49.0907 50.6434 53.1835 45.995 55.591 40.5717C55.6512 40.5121 55.6512 40.4525 55.7114 40.3929C56.7346 38.0091 57.3967 35.5657 57.7578 33.003C57.7578 32.9434 57.7578 32.8838 57.7578 32.8242C57.818 32.3475 57.8782 31.8111 57.9384 31.3343C57.9384 31.2152 57.9384 31.096 57.9384 30.9768C57.9986 30.3808 57.9986 29.7848 57.9986 29.1889C58.0588 23.2293 56.1929 17.5081 52.5816 12.6212ZM2.5649 19.4747C2.62509 19.6535 2.68528 19.7727 2.86585 19.8323C2.98622 19.8919 3.1066 19.8919 3.16679 19.8919C3.22698 19.8919 3.28717 19.8919 3.34735 19.8919L6.71792 19.0576C7.07905 18.998 7.25961 18.6404 7.19942 18.2828C7.13923 17.9253 6.7781 17.7465 6.41697 17.8061L4.61132 18.2828C6.47716 14.0515 9.48659 10.3566 13.2183 7.55556C14.1211 6.9 15.0841 6.24444 16.1073 5.70808C16.2879 5.58889 16.4083 5.52929 16.5888 5.4697C16.95 5.29091 17.3111 5.11212 17.6722 4.93333C17.8528 4.87374 18.0334 4.75455 18.2139 4.69495C18.5751 4.57576 18.9362 4.39697 19.2973 4.27778C19.5381 4.15859 19.7788 4.09899 20.0196 3.9798C20.3205 3.86061 20.6215 3.74141 20.9224 3.68182C21.2234 3.56263 21.5243 3.50303 21.8854 3.38384C22.1262 3.32424 22.3669 3.26465 22.6077 3.20505C22.9688 3.08586 23.3902 3.02626 23.7513 2.90707C23.9319 2.84747 24.1124 2.84747 24.293 2.78788C24.7143 2.72828 25.1356 2.66869 25.5569 2.60909C25.7375 2.60909 25.9181 2.54949 26.0385 2.54949C27.182 2.4303 28.3858 2.31111 29.5294 2.31111C34.2843 2.31111 38.979 3.56263 43.0718 5.88687C43.3728 6.00606 43.7941 5.88687 43.9746 5.58889C44.1552 5.29091 44.0348 4.87374 43.7339 4.75455C39.4003 2.31111 34.525 1 29.5294 1C28.446 1 27.3024 1.0596 26.219 1.17879H26.1588C26.0986 1.17879 25.9783 1.17879 25.9181 1.23838C25.6773 1.29798 25.4968 1.29798 25.3162 1.35758C24.8949 1.41717 24.4735 1.47677 23.992 1.59596C23.8115 1.65556 23.5707 1.65556 23.3902 1.71515C22.9688 1.77475 22.6077 1.89394 22.1864 2.01313C21.9456 2.07273 21.6447 2.13232 21.4039 2.25152C21.1632 2.25152 20.8622 2.37071 20.5011 2.4899C20.2002 2.60909 19.839 2.72828 19.5381 2.84747C19.2973 2.90707 19.0566 2.96667 18.8158 3.08586C18.4547 3.20505 18.0936 3.38384 17.7324 3.56263C17.5519 3.62222 17.3111 3.74141 17.1305 3.80101C16.7694 3.9798 16.4083 4.15859 16.0471 4.39697C15.8666 4.51616 15.686 4.57576 15.5054 4.69495C15.3851 4.75455 15.3249 4.81414 15.2045 4.87374L15.1443 4.93333C14.2415 5.4697 13.3387 6.00606 12.496 6.66162C8.52357 9.58182 5.45395 13.4556 3.46773 17.8657L2.92603 15.8394C2.86585 15.4818 2.50471 15.303 2.14358 15.3626C1.78245 15.4222 1.60189 15.7798 1.66207 16.1374L2.5649 19.4747ZM41.3263 20.7859H45.6599C46.6831 20.7859 47.4656 21.6202 47.4656 22.5737V24.7788C47.4656 25.1364 47.1646 25.4343 46.8035 25.4343C46.4424 25.4343 46.1414 25.1364 46.1414 24.7788V22.5737C46.1414 22.2758 45.9007 22.0374 45.5997 22.0374H13.3988C13.0979 22.0374 12.8571 22.2758 12.8571 22.5737V35.3869C12.8571 35.7444 12.5562 36.0424 12.1951 36.0424C11.8339 36.0424 11.533 35.7444 11.533 35.3869V22.5737C11.533 21.5606 12.3756 20.7859 13.3387 20.7859H17.6722C17.913 20.2495 18.1537 19.7727 18.3945 19.296L16.7092 17.6273C16.2879 17.2101 16.2879 16.5545 16.7092 16.1374L19.7788 13.098C20.2002 12.6808 20.8622 12.6808 21.2836 13.098L22.9688 14.7667C23.992 14.1707 25.0754 13.7535 26.1588 13.4556V11.0717C26.1588 10.4758 26.6403 9.99899 27.2422 9.99899H31.636C32.2379 9.99899 32.7194 10.4758 32.7194 11.0717V13.4556C33.863 13.7535 34.9464 14.1707 35.9094 14.7667L37.5947 13.098C38.016 12.6808 38.6781 12.6808 39.0994 13.098L42.169 16.1374C42.5903 16.5545 42.5903 17.2101 42.169 17.6273L40.4235 19.3556C40.8448 19.7131 41.0856 20.2495 41.3263 20.7859ZM39.942 20.7859C39.7614 20.3687 39.5207 19.9515 39.2197 19.5343C39.0392 19.296 39.0994 18.9384 39.2799 18.7596L41.206 16.8525L38.4373 14.1111L36.5113 16.0182C36.2705 16.2566 35.9696 16.2566 35.7288 16.0778C34.5852 15.3626 33.3213 14.8263 31.9971 14.5283C31.6962 14.4687 31.5156 14.2303 31.5156 13.9323V11.2505H27.5432V13.9323C27.5432 14.2303 27.3626 14.4687 27.0617 14.5283C25.7375 14.8263 24.4735 15.303 23.33 16.0778C23.0892 16.2566 22.7281 16.197 22.5475 16.0182L20.6215 14.1111L17.7926 16.7929L19.7186 18.7C19.9594 18.9384 19.9594 19.2364 19.7788 19.4747C19.5381 19.8919 19.2973 20.3091 19.0566 20.7263H23.2096C24.7143 18.8192 27.0617 17.6869 29.4692 17.6869C29.8303 17.6869 30.1313 17.9848 30.1313 18.3424C30.1313 18.7 29.8303 18.998 29.4692 18.998C27.7839 18.998 26.1588 19.6535 24.9551 20.7859H34.0435C33.3815 20.1899 32.6592 19.7131 31.8166 19.4152C31.5156 19.296 31.335 18.9384 31.4554 18.5808C31.5758 18.2828 31.9369 18.104 32.2981 18.2232C33.6824 18.7 34.9464 19.5939 35.8492 20.7859H39.942ZM45.6599 44.6838H38.6781C38.3169 44.6838 38.016 44.3859 38.016 44.0283C38.016 43.6707 38.3169 43.3727 38.6781 43.3727H45.6599C45.9609 43.3727 46.2016 43.1343 46.2016 42.8364V40.9293H12.8571V42.8364C12.8571 43.1343 13.0979 43.3727 13.3988 43.3727H27.0617H27.1218H29.5294H31.9369H31.9971H36.0899C36.4511 43.3727 36.752 43.6707 36.752 44.0283C36.752 44.3859 36.4511 44.6838 36.0899 44.6838H32.6592L33.1407 47.3061H35.1269C35.7288 47.3061 36.1501 47.7828 36.1501 48.3192V50.0475C36.1501 50.6434 35.6686 51.0606 35.1269 51.0606H23.8717C23.2698 51.0606 22.8485 50.5838 22.8485 50.0475V48.3192C22.8485 47.7232 23.33 47.3061 23.8717 47.3061H25.8579L26.3394 44.6838H13.3988C12.3756 44.6838 11.5932 43.8495 11.5932 42.896V40.3929V37.7707C11.5932 37.4131 11.8941 37.1152 12.2553 37.1152C12.6164 37.1152 12.9173 37.4131 12.9173 37.7707V39.7374H46.2618V27.8182C46.2618 27.4606 46.5628 27.1626 46.9239 27.1626C47.285 27.1626 47.586 27.4606 47.586 27.8182V40.3333V42.8364C47.4656 43.9091 46.6831 44.6838 45.6599 44.6838ZM27.1218 47.3061H31.8767L31.3952 44.6838H27.6034L27.1218 47.3061ZM24.1124 48.5576V49.8091H34.9464V48.5576H24.1124ZM24.5939 26.9242C24.4134 26.6263 23.992 26.5667 23.6911 26.7455L17.3713 30.8576C17.1907 30.9768 17.0704 31.1556 17.0704 31.3939C17.0704 31.6323 17.1907 31.8111 17.3713 31.9303L23.6911 36.0424C23.8115 36.102 23.9319 36.1616 24.0522 36.1616C24.2328 36.1616 24.4735 36.0424 24.5939 35.8636C24.7745 35.5657 24.7143 35.2081 24.4134 34.9697L18.876 31.3343L24.4134 27.699C24.7143 27.6394 24.7745 27.2222 24.5939 26.9242ZM34.4649 35.9232C34.5852 36.102 34.7658 36.2212 35.0065 36.2212C35.1269 36.2212 35.2473 36.1616 35.3677 36.102L41.6875 31.9899C41.868 31.8707 41.9884 31.6919 41.9884 31.4535C41.9884 31.2152 41.868 31.0364 41.6875 30.9172L35.3677 26.805C35.0667 26.6263 34.7056 26.6859 34.4649 26.9838C34.2843 27.2818 34.3445 27.6394 34.6454 27.8778L40.1828 31.5131L34.6454 35.1485C34.3445 35.2677 34.2843 35.6253 34.4649 35.9232ZM31.335 26.9838L26.6403 35.2677C26.4598 35.5657 26.5801 35.9828 26.8811 36.102C27.0015 36.1616 27.0617 36.1616 27.182 36.1616C27.4228 36.1616 27.6034 36.0424 27.7237 35.8636L32.4786 27.5798C32.6592 27.2818 32.5388 26.8646 32.2379 26.7455C31.8767 26.5667 31.5156 26.6859 31.335 26.9838Z" fill="#589CE7" stroke="#589CE7" stroke-width="0.7"/>
</svg>
