<svg width="45" height="59" viewBox="0 0 45 59" fill="none" xmlns="http://www.w3.org/2000/svg">
<path fill-rule="evenodd" clip-rule="evenodd" d="M22.4949 16.3162C15.3409 16.3162 15.3409 5.52842 22.4949 5.52842C29.6471 5.52664 29.6471 16.3162 22.4949 16.3162ZM24.3216 21.8146H24.2821C24.0339 21.8449 23.7157 21.8538 23.3076 21.8503V34.4548H32.7935C32.8906 33.7374 33.1153 33.0592 33.4444 32.4436C34.2265 30.8017 35.7475 29.5204 38.0057 29.2723V26.1226C36.4343 26.1582 35.3124 26.1779 34.5177 26.1118C33.448 26.1136 32.9967 25.9798 32.8223 25.3409C32.4519 24.5503 32.8043 23.0317 32.8043 20.1817C32.8043 20.1638 32.8061 20.1478 32.8061 20.1299L32.8079 20.1192C32.8097 20.1049 32.8097 20.0924 32.8115 20.0782L32.8151 20.0532L32.8205 20.0228L32.8241 20.0086C32.9032 19.6463 33.2286 19.3768 33.617 19.3768H33.7374C34.4818 19.2376 35.5965 19.3054 36.7849 19.35C37.2128 19.3429 37.6228 19.3358 38.0093 19.3268V11.7316H33.4821C33.4785 12.0386 33.4749 12.3705 33.4749 12.7346C33.4749 12.9309 33.4264 13.0826 33.3383 13.1986C33.2286 13.4056 33.0272 13.4948 32.6604 13.5305C32.2128 13.6019 31.6356 13.5626 31.0639 13.5466H31.0567C30.9398 13.5466 30.8176 13.5448 30.6881 13.5448C30.5479 13.9802 30.3699 14.405 30.1577 14.8154C31.9251 16.5697 32.3728 16.5714 30.983 17.9563L30.8985 18.0402L30.8931 18.0455L30.805 18.133L30.7996 18.1383L30.7061 18.2293L30.7007 18.2347L30.6018 18.3293L30.5964 18.3346L30.4921 18.4346L30.4867 18.4399L30.3789 18.5434L30.3735 18.5488L30.2602 18.6576L30.2548 18.663L30.1361 18.7754L30.1308 18.7808L30.0067 18.8985L30.0013 18.9039L29.8736 19.027L29.8682 19.0324L29.7352 19.1609L29.7298 19.1662L29.5914 19.3001L29.586 19.3054L29.4421 19.4446L29.4367 19.45L29.2875 19.5945L29.2821 19.5999L29.1275 19.7516L29.1221 19.7569L28.9621 19.914L28.9567 19.9193C28.1764 20.6938 27.308 19.425 26.409 18.5327C25.9955 18.7433 25.5712 18.92 25.1289 19.0592C25.1289 19.7123 25.2026 20.4208 25.1271 20.9562C25.0983 21.2881 25.021 21.5023 24.8394 21.6361C24.7207 21.7485 24.5517 21.8146 24.3216 21.8146ZM21.6822 21.8467C21.3244 21.8485 21.035 21.8431 20.8012 21.8199H20.6682C20.4039 21.8199 20.2205 21.7343 20.0929 21.5844C19.9544 21.4541 19.8879 21.2631 19.8609 20.9865C19.78 20.4476 19.8555 19.7248 19.8555 19.0556C19.415 18.9164 18.9853 18.7397 18.57 18.5274C16.2147 20.8634 16.9914 20.8794 13.4387 17.3531C12.7914 16.7106 13.5573 16.0111 14.3502 15.2812H14.352L14.397 15.2401L14.4419 15.1991L14.4869 15.1581C14.6055 15.0474 14.7242 14.9368 14.8357 14.8243C14.6235 14.4121 14.4437 13.9891 14.3053 13.5484C13.9511 13.5484 13.6418 13.5519 13.3739 13.5537C12.7968 13.5644 12.3941 13.5716 12.1136 13.502C11.7522 13.427 11.6102 13.2521 11.5544 12.8613C11.5023 12.5954 11.4897 12.2313 11.4915 11.7334H6.97868V19.2929C8.55367 19.2572 9.67738 19.2376 10.4739 19.3036C11.5436 19.3019 11.9931 19.4357 12.1675 20.0746C12.5379 20.8652 12.1855 22.3838 12.1855 25.232C12.1855 25.2499 12.1855 25.266 12.1837 25.2838L12.1819 25.2981L12.1783 25.3266L12.1729 25.3623L12.1693 25.3873L12.1639 25.4087C12.083 25.7692 11.7594 26.0369 11.371 26.0369H11.2524C10.5044 26.1779 9.38432 26.1065 8.19049 26.0637C7.76797 26.0708 7.36343 26.0779 6.98227 26.0869V29.2741C9.24228 29.5222 10.7633 30.8035 11.5472 32.4453C11.8763 33.0592 12.0992 33.7374 12.1963 34.4548H21.6822V21.8467ZM11.5167 10.1095C8.56806 10.0363 5.35873 9.66331 5.35873 10.9268C5.35873 15.3758 5.15197 17.9063 5.23647 19.3304C4.02466 19.3554 2.61328 19.3768 0.964567 19.3768C0.515082 19.3768 0.151898 19.7373 0.151898 20.1834C0.151898 26.135 -1.38894 26.2778 5.34435 26.1243C5.31019 27.2825 5.22928 28.4175 5.28502 29.2831C-1.81325 30.1414 -1.52019 41.2933 6.1714 41.2933C9.81403 41.2933 11.7954 38.7931 12.1226 36.0681H21.6822V43.2903L14.5804 50.3394C14.2621 50.6571 14.2621 51.1657 14.5804 51.4815L22.4949 59L30.4094 51.4815C30.7277 51.1639 30.7277 50.6553 30.4094 50.3394L23.3076 43.2903V36.0681H32.8672C33.1926 38.7931 35.1758 41.2933 38.8184 41.2933C46.5298 41.2933 46.8066 30.0772 39.6454 29.2759C39.6634 27.8375 39.7228 26.8132 39.7174 26.0851C40.9346 26.0601 42.3585 26.0387 44.0216 26.0387C44.4711 26.0387 44.8343 25.6782 44.8397 25.232C44.8936 19.3161 46.2852 19.1359 39.7659 19.2858C39.8432 17.8528 39.6419 15.3294 39.6419 10.9268C39.6419 10.4806 39.2787 10.1202 38.8292 10.1202C36.1718 10.1202 34.5249 10.0488 33.5055 10.0684C33.5145 7.98044 33.234 8.30524 30.6881 8.30524C30.5479 7.86266 30.3699 7.4415 30.1577 7.02926C31.0711 6.11912 32.3242 5.26787 31.5493 4.5005C28.011 0.988432 28.7643 0.993785 26.4252 3.32446C26.0099 3.11387 25.5802 2.93542 25.1397 2.79622C25.1397 1.5131 25.4219 0.0318932 24.327 0.0318932C19.3054 0.0318932 19.8645 -0.501698 19.8645 2.79622C19.4186 2.93542 18.9943 3.11209 18.579 3.32446C17.7124 2.46428 16.8062 1.16868 16.0313 1.93783C12.4786 5.46418 12.493 4.69323 14.8465 7.02926C14.6343 7.4415 14.4545 7.86801 14.3143 8.30524C13.0216 8.30524 11.5293 8.02506 11.5293 9.11187C11.5239 9.47414 11.5221 9.80429 11.5167 10.1095ZM21.4881 20.2031H23.5035C23.5035 16.6339 23.428 18.4667 26.1285 16.8338C26.5564 16.575 26.9556 16.782 27.3745 17.1604L27.3979 17.1818L27.4087 17.1907L27.432 17.2139C27.7341 17.4941 28.0451 17.8581 28.3867 18.1972L29.8215 16.7731C27.254 14.2247 28.5486 15.5756 29.2749 12.5454C29.4799 11.6942 30.6414 11.9262 31.8388 11.9262V9.91315C28.2159 9.91315 30.0966 9.96669 28.4443 7.30765C27.9822 6.56527 28.9819 5.9014 29.8215 5.06621L28.3849 3.64033C25.8319 6.17444 27.1893 4.91631 24.1256 4.17749C23.268 3.97048 23.5017 2.8212 23.5017 1.63445H21.4773C21.4773 5.20363 21.5528 3.37086 18.8523 5.00375C18.0989 5.45882 17.4319 4.47195 16.5941 3.64033L15.1575 5.06621C17.7106 7.60033 16.4448 6.25118 15.6987 9.2939C15.4901 10.1451 14.3323 9.91315 13.1366 9.91315V10.9125C13.1816 11.2516 13.1474 11.6335 13.1456 11.9244C14.7853 11.9244 15.2941 11.9155 15.5153 12.1528C15.7922 12.433 15.6304 13.0754 16.5401 14.5406C17.004 15.2848 16.0043 15.9504 15.1665 16.782L16.5923 18.1972C19.1561 15.6524 17.7915 16.9319 20.8516 17.66C21.0044 17.6957 21.1231 17.7635 21.213 17.8546L21.2274 17.8688C21.6445 18.2918 21.4898 19.2323 21.4881 20.2031ZM38.8795 24.4254C38.155 24.2612 36.8281 24.4254 34.4368 24.4254V20.9883C36.8568 20.9883 38.2071 21.2364 38.946 20.9883H43.2126V24.4254H38.8795ZM1.78263 24.4254V20.9883H6.05274C6.78989 21.2364 8.14015 20.9883 10.562 20.9883V24.4254C8.94742 24.4254 7.28792 24.238 6.29006 24.4254H1.78263ZM16.301 50.9105L22.4949 44.7626L28.6888 50.9051L22.4949 57.053L16.301 50.9105ZM38.8166 30.841C44.6779 30.841 44.6779 39.6818 38.8166 39.6818C34.2534 39.6818 33.243 34.3227 35.7871 31.951C36.7508 31.2407 37.9931 31.1051 38.804 30.8428L38.8166 30.841ZM6.1714 30.841C7.73022 30.841 8.8737 31.4656 9.60367 32.3829C10.1718 33.2377 10.3408 34.2781 10.562 35.0348C10.6663 37.3173 9.20273 39.6818 6.1714 39.6818C0.311915 39.6818 0.311915 30.841 6.1714 30.841ZM22.4949 7.14526C17.4822 7.14526 17.4768 14.7083 22.4949 14.7083C27.5094 14.7083 27.5094 7.14526 22.4949 7.14526Z" fill="#589CE7"/>
</svg>
