<svg width="61" height="61" viewBox="0 0 61 61" fill="none" xmlns="http://www.w3.org/2000/svg">
<path d="M8.56087 57.4576C11.0734 54.6948 12.5862 52.7506 14.6329 49.7676C16.0383 47.7184 13.3452 44.9845 11.2802 46.3803C8.26513 48.4163 6.33361 49.8988 3.55695 52.3939C-0.599207 56.1222 4.79989 61.5877 8.56087 57.4576ZM38.0568 2.09679C37.3659 2.09679 37.3659 1.04468 38.0568 1.04468H41.7052C41.9931 1.04468 42.2287 1.28081 42.2287 1.57467V5.0747C42.2287 5.76733 41.1818 5.76733 41.1818 5.0747L41.1844 2.68972L29.7788 12.243C29.5694 12.4371 29.2501 12.4319 29.0512 12.2325L25.6907 8.86361L10.6731 20.7966C10.1339 21.2243 9.48485 20.4056 10.024 19.9779L25.4081 7.75145C25.6201 7.58353 25.9159 7.60452 26.1017 7.79343L29.457 11.1518L40.2717 2.09762L38.0568 2.09679ZM1.64567 5.98519C0.959979 5.98519 0.959979 4.93569 1.64567 4.93569H2.93337C2.93337 3.69202 3.80231 2.82099 5.04283 2.82099V1.53534C5.04283 0.842707 6.08973 0.842707 6.08973 1.53534V2.82099L8.05528 2.82362V1.53534C8.05528 0.842712 9.10217 0.842712 9.10217 1.53534V2.821H11.0677V1.53534C11.0677 0.842712 12.1146 0.842712 12.1146 1.53534V2.821C13.3552 2.821 14.2241 3.69471 14.2241 4.9357H15.5066C16.1975 4.9357 16.1975 5.98519 15.5066 5.98519H14.2241V7.95562H15.5066C16.1975 7.95562 16.1975 9.00511 15.5066 9.00511H14.2241V10.9755H15.5066C16.1975 10.9755 16.1975 12.025 15.5066 12.025H14.2241C14.2241 13.2713 13.3551 14.1397 12.1146 14.1397V15.4306C12.1146 16.1233 11.0677 16.1233 11.0677 15.4306V14.1397H9.10217V15.4306C9.10217 16.1233 8.05528 16.1233 8.05528 15.4306V14.1397H6.08973V15.4306C6.08973 16.1233 5.04283 16.1233 5.04283 15.4306V14.1397C3.79963 14.1397 2.93337 13.2686 2.93337 12.025H1.64567C0.959979 12.025 0.959979 10.9755 1.64567 10.9755H2.93337V9.00773H1.64567C0.959979 9.00773 0.959979 7.95824 1.64567 7.95824H2.93337V5.98519L1.64567 5.98519ZM12.2037 3.87048H4.95151C4.41759 3.87048 3.97792 4.30864 3.97792 4.84911V12.1193C3.97792 12.6546 4.41499 13.0953 4.95151 13.0953H12.2037C12.7376 13.0953 13.1799 12.6572 13.1799 12.1193V4.84643C13.1773 4.30856 12.7429 3.87048 12.2037 3.87048ZM40.7576 47.6818C41.3491 47.325 41.8883 48.2223 41.2994 48.5791L38.8078 50.0852L41.2994 51.5912C41.8909 51.948 41.3465 52.8453 40.7576 52.4911L37.5306 50.5391C37.1825 50.3344 37.1851 49.8411 37.5227 49.6365L40.7576 47.6818ZM46.3952 48.5765C45.8037 48.2197 46.3428 47.3224 46.9343 47.6792L50.1745 49.6312C50.5121 49.8359 50.5121 50.3292 50.1666 50.5338L46.9369 52.4859C46.3455 52.8374 45.8089 51.9427 46.3978 51.5859L48.8894 50.0799L46.3952 48.5765ZM43.0713 53.2467C42.8018 53.8791 41.8413 53.4697 42.1108 52.8374L44.626 46.9183C44.8929 46.286 45.856 46.6953 45.5865 47.3276L43.0713 53.2467ZM30.2131 15.011C28.9202 15.011 27.8576 16.0788 27.8576 17.3775V17.7449C29.4306 17.8026 31.0193 18.0859 32.5739 18.6264V17.3775C32.5739 16.0788 31.5113 15.011 30.2131 15.011ZM26.8107 17.7396V17.3749C26.8107 14.3707 30.4644 12.8044 32.621 14.9664C33.2387 15.5856 33.6208 16.4357 33.6208 17.3749V19.0279C34.3144 19.3217 34.9713 19.6576 35.6046 20.0354V12.4058C35.6046 9.40162 39.2583 7.83527 41.4149 9.99726C42.0352 10.6165 42.4147 11.4718 42.4147 12.4058V26.5164C42.4147 26.9152 42.3441 27.2983 42.221 27.6498C42.221 27.7731 45.1052 33.4587 42.2367 40.2907C46.8431 39.5246 51.3576 42.1116 53.0561 46.4565C55.0505 51.5544 52.5431 57.3108 47.4604 59.3131C42.3752 61.3124 36.633 58.7988 34.6357 53.7035C34.0338 52.1607 33.8139 50.4684 34.039 48.7814C28.6056 51.2713 22.1463 50.6022 17.294 46.811L16.0378 48.0651C16.1477 48.8155 16.0064 49.6184 15.4934 50.3635C13.4048 53.4097 11.8921 55.3539 9.33504 58.161C4.60308 63.3665 -2.37209 56.3165 2.86258 51.6174C5.68133 49.0855 7.66785 47.5637 10.6984 45.512C11.4469 45.0083 12.2452 44.8692 12.9963 44.9925L14.2788 43.7174C13.4151 42.5551 12.7137 41.2826 12.185 39.9392C8.91869 31.5802 13.0277 22.1452 21.3608 18.8654C23.0908 18.1859 24.9333 17.7976 26.8099 17.7398L26.8107 17.7396ZM27.8576 23.6063V26.5212C27.8576 28.5966 30.3832 29.6934 31.8777 28.19C32.3043 27.7623 32.5713 27.172 32.5713 26.5212V25.0415C31.1266 24.1862 29.5039 23.6981 27.8576 23.6063ZM33.6182 25.7525V26.5239C33.6182 29.5281 29.9646 31.097 27.8079 28.9377C27.1902 28.3159 26.8081 27.4632 26.8081 26.5239V23.6062C19.7335 23.9368 15.0146 31.1445 17.6216 37.8008C19.718 43.1532 25.7374 45.785 31.0741 43.6884C36.408 41.5894 39.0385 35.5524 36.9419 30.2052C36.2719 28.4709 35.1362 26.9175 33.6182 25.7525ZM56.5949 2.05246C55.302 2.05246 54.2394 3.11767 54.2394 4.4138V26.5213C54.2394 28.5967 56.765 29.6934 58.2595 28.19C58.6861 27.7624 58.9531 27.172 58.9531 26.5213L58.9557 4.4138C58.9531 3.11505 57.8931 2.05246 56.5949 2.05246ZM54.1897 2.00523C56.3464 -0.156754 60 1.40965 60 4.41379V26.5213C60 29.5255 56.3464 31.0945 54.1897 28.9352C53.572 28.3134 53.1899 27.4606 53.1899 26.5213L53.1925 4.41379C53.1925 3.47714 53.5746 2.62176 54.1897 2.00523ZM47.8037 5.25339C46.5055 5.25339 45.443 6.3186 45.443 7.61473V26.521C45.443 28.5964 47.9686 29.6932 49.463 28.1897C49.8923 27.7621 50.1566 27.1718 50.1566 26.521L50.1593 7.61473C50.1593 6.3186 49.0966 5.25339 47.8037 5.25339ZM45.3958 5.20616C47.5524 3.04417 51.2061 4.61057 51.2061 7.61472V26.521C51.2061 29.5252 47.5524 31.0942 45.3958 28.9349C44.7781 28.3131 44.396 27.4604 44.396 26.521V7.61472C44.3986 6.67807 44.7781 5.82269 45.3958 5.20616ZM39.0071 10.0469C37.7142 10.0469 36.6516 11.1121 36.6516 12.4083V20.7202C38.6172 22.1161 40.211 23.9028 41.3626 25.9257L41.3652 12.4083C41.3652 11.1121 40.3026 10.0469 39.0071 10.0469ZM34.2961 47.4874C35.2122 44.1238 37.7613 41.5735 40.9544 40.5974C42.8544 36.6408 42.9016 32.2565 41.4098 28.4441C38.3476 20.6204 29.5432 16.7711 21.7436 19.8386C13.9439 22.9084 10.0994 31.7293 13.1594 39.5509C16.4597 47.9784 26.3002 51.6592 34.2961 47.4874ZM52.0856 46.842C50.3006 42.2793 45.1657 40.0332 40.617 41.8202C36.0656 43.6122 33.8251 48.7572 35.6128 53.3172C37.3978 57.8799 42.5327 60.126 47.0814 58.3391C51.6276 56.5523 53.868 51.4074 52.0856 46.842ZM24.4999 34.1144C24.0131 33.6264 24.7563 32.8918 25.2379 33.3797L26.7219 34.8779L29.313 32.0102C29.7736 31.496 30.543 32.1991 30.085 32.7081L27.1433 35.9668C26.9313 36.2161 26.5832 36.224 26.3686 36.0036L24.4999 34.1144ZM16.4885 46.1388C15.9337 45.635 15.4102 45.0997 14.9287 44.5357L14.0938 45.37C14.7585 45.7268 15.3108 46.2883 15.6641 46.9574L16.4885 46.1388ZM37.9209 29.8137C40.224 35.7039 37.3268 42.3445 31.4563 44.6537C25.5833 46.9626 18.9566 44.0607 16.6531 38.1757C14.3499 32.2881 17.2446 25.6449 23.115 23.3357C28.9514 21.0426 35.602 23.8919 37.9209 29.8137Z" fill="#589CE7" stroke="#589CE7" stroke-width="0.8"/>
</svg>
