<svg width="59" height="59" viewBox="0 0 59 59" fill="none" xmlns="http://www.w3.org/2000/svg">
<path fill-rule="evenodd" clip-rule="evenodd" d="M19.3378 6.97624C19.3306 7.02303 19.3276 7.07186 19.3276 7.12069V10.1724H7.12069C5.43512 10.1724 4.06897 11.5386 4.06897 13.2241H1.01724C0.455724 13.2241 0 13.6799 0 14.2414V17.0805C0 17.642 0.455724 18.0977 1.01724 18.0977C1.57876 18.0977 2.03448 17.642 2.03448 17.0805V15.2586H4.06897V19.3276H1.01724C0.455724 19.3276 0 19.7833 0 20.3448V23.1839C0 23.7455 0.455724 24.2012 1.01724 24.2012C1.57876 24.2012 2.03448 23.7455 2.03448 23.1839V21.3621H4.06897V25.431H1.01724C0.455724 25.431 0 25.8868 0 26.4483V29.2874C0 29.8489 0.455724 30.3046 1.01724 30.3046C1.57876 30.3046 2.03448 29.8489 2.03448 29.2874V27.4655H4.06897V31.5345H1.01724C0.455724 31.5345 0 31.9902 0 32.5517V35.3908C0 35.9524 0.455724 36.4081 1.01724 36.4081C1.57876 36.4081 2.03448 35.9524 2.03448 35.3908V33.569H4.06897V37.6379H1.01724C0.455724 37.6379 0 38.0937 0 38.6552V41.4943C0 42.0558 0.455724 42.5115 1.01724 42.5115C1.57876 42.5115 2.03448 42.0558 2.03448 41.4943V39.6724H4.06897V43.7414H1.01724C0.455724 43.7414 0 44.1971 0 44.7586V47.5977C0 48.1593 0.455724 48.615 1.01724 48.615C1.57876 48.615 2.03448 48.1593 2.03448 47.5977V45.7759H4.06897C4.06897 47.4614 5.43512 48.8276 7.12069 48.8276H19.3276C19.3276 48.8276 19.3306 51.977 19.3378 52.0238C17.8628 52.4591 16.7845 53.8243 16.7845 55.4397C16.7845 57.405 18.3795 59 20.3448 59C22.3101 59 23.9052 57.405 23.9052 55.4397C23.9052 53.8243 22.8269 52.4591 21.3519 52.0238C21.359 51.977 21.3621 48.8276 21.3621 48.8276H28.4828C28.4828 51.5762 28.4828 53.8701 28.4838 55.4753C28.4838 56.5271 29.0249 57.5047 29.9171 58.0621C30.8092 58.6195 31.9261 58.6786 32.8711 58.2177C32.8722 58.2167 32.8722 58.2167 32.8732 58.2167C34.3868 57.4752 35.6116 56.2677 36.3348 54.8629C38.5443 56.2585 41.6509 56.4152 44.25 54.9148C46.8511 53.4133 48.2681 50.6413 48.1613 48.0291C50.7746 48.1359 53.5466 46.7178 55.048 44.1167C56.4538 41.6815 56.404 38.7996 55.2433 36.6278C55.223 36.5729 55.1965 36.519 55.166 36.4671C55.1111 36.3755 55.0541 36.285 54.9931 36.1975C57.3083 34.9829 59 32.3696 59 29.3667C59 26.3638 57.3083 23.7506 54.9921 22.537C56.3908 20.3275 56.5495 17.2178 55.048 14.6167C53.5466 12.0167 50.7746 10.5986 48.1613 10.7054C48.2681 8.09317 46.8511 5.32119 44.25 3.81974C41.6499 2.31829 38.5412 2.47597 36.3318 3.87366C35.5973 2.46783 34.3492 1.2919 32.804 0.583896C31.859 0.151569 30.7593 0.229897 29.8845 0.791414C29.0107 1.35395 28.4817 2.32134 28.4828 3.36097V10.1724H21.3621V7.12069C21.3621 7.07186 21.359 7.02303 21.3519 6.97624C22.8269 6.54086 23.9052 5.17572 23.9052 3.56034C23.9052 1.59503 22.3101 0 20.3448 0C18.3795 0 16.7845 1.59503 16.7845 3.56034C16.7845 5.17572 17.8628 6.54086 19.3378 6.97624ZM20.3448 56.9655C19.5026 56.9655 18.819 56.2819 18.819 55.4397C18.819 54.5974 19.5026 53.9138 20.3448 53.9138C21.1871 53.9138 21.8707 54.5974 21.8707 55.4397C21.8707 56.2819 21.1871 56.9655 20.3448 56.9655ZM34.7866 5.40766C34.337 4.1239 33.2902 3.0446 31.9577 2.43426C31.6423 2.28981 31.2761 2.31626 30.9842 2.50343C30.6932 2.6906 30.5172 3.01307 30.5172 3.35995C30.5172 7.42993 30.5172 16.0032 30.5172 25.1757C31.6993 25.1269 32.4642 24.7403 32.9464 24.2124C33.7816 23.2958 33.7572 22.067 33.7572 22.067C33.746 21.5055 34.1925 21.0396 34.7541 21.0284C35.3146 21.0172 35.7804 21.4628 35.7916 22.0243C35.7916 22.0243 35.8344 24.0639 34.4499 25.5826C33.6788 26.4289 32.4663 27.1553 30.5172 27.2122C30.5172 31.6362 30.5172 36.1324 30.5172 40.2716C31.6993 40.2227 32.4642 39.8372 32.9464 39.3093C33.7816 38.3917 33.7572 37.1629 33.7572 37.1629C33.746 36.6014 34.1925 36.1365 34.7541 36.1253C35.3146 36.1131 35.7804 36.5597 35.7916 37.1212C35.7916 37.1212 35.8344 39.1597 34.4499 40.6795C33.6788 41.5248 32.4663 42.2521 30.5172 42.3081C30.5172 47.9375 30.5172 52.7216 30.5183 55.4742C30.5183 55.8252 30.6983 56.1507 30.9953 56.3369C31.2924 56.523 31.6647 56.5423 31.98 56.3887C33.2699 55.757 34.2871 54.6727 34.752 53.4255C32.7226 50.9434 32.7023 47.4329 32.7023 47.4329C32.7043 46.8714 33.1621 46.4177 33.7236 46.4198C34.2851 46.4218 34.7388 46.8796 34.7368 47.4411C34.7368 47.4411 34.6706 51.4124 37.4172 53.1031C37.4945 53.1498 37.5637 53.2058 37.6227 53.2689C39.2187 54.1813 41.4017 54.2098 43.2328 53.1529C45.49 51.8498 46.5856 49.2589 45.9681 47.0922C45.8664 46.7372 45.9661 46.3547 46.2265 46.0943C46.4879 45.8328 46.8704 45.7342 47.2254 45.8349C49.3922 46.4523 51.9831 45.3568 53.2862 43.0995C54.3716 41.2186 54.3126 38.9664 53.3258 37.3612C52.3076 35.8384 49.9771 35.2861 47.5509 35.6909C47.965 38.1903 46.6802 41.0009 43.3579 42.9194C42.8716 43.2002 42.2481 43.0334 41.9683 42.5471C41.6876 42.0609 41.8544 41.4383 42.3406 41.1576C44.8481 39.709 45.9325 37.6623 45.5002 35.7988C45.0577 33.8924 43.0985 32.3432 39.9023 31.8702C39.3469 31.7878 38.9624 31.27 39.0448 30.7146C39.1272 30.1592 39.6449 29.7747 40.2004 29.8571C43.5471 30.3535 45.7657 31.8854 46.8491 33.7511C49.3016 33.2648 51.6809 33.6422 53.3686 34.6849C55.4152 34.0206 56.9655 31.859 56.9655 29.3667C56.9655 26.7606 55.2698 24.5165 53.0847 23.9682C52.7267 23.8777 52.4449 23.601 52.3493 23.245C52.2537 22.8879 52.3594 22.5075 52.6239 22.2511C54.2424 20.6826 54.5892 17.8912 53.2862 15.634C52.0543 13.5008 49.6719 12.4053 47.5845 12.8132C45.4107 14.9443 45.2856 17.9421 45.2856 17.9421C45.2611 18.5026 44.7871 18.939 44.2256 18.9156C43.6651 18.8912 43.2287 18.4172 43.2521 17.8556C43.2521 17.8556 43.2846 17.0968 43.5674 16.0154C41.3112 15.3766 38.7182 16.3349 37.0632 18.9838C36.7662 19.4598 36.1375 19.6043 35.6614 19.3072C35.1854 19.0092 35.0409 18.3815 35.3379 17.9055C37.5911 14.2994 41.1851 13.1539 44.2551 14.0959C44.6569 13.2363 45.2174 12.3371 45.9997 11.5243C46.5459 9.38202 45.4493 6.86129 43.2328 5.5816C41.1617 4.38533 38.6399 4.5786 37.0276 5.86948C37.2911 7.13086 37.2626 8.63333 36.8445 9.86928C36.4762 10.9587 35.813 11.8427 34.8649 12.3066C34.22 12.6229 33.4347 12.7562 32.4887 12.5894C31.9353 12.4927 31.566 11.9648 31.6627 11.4114C31.7603 10.858 32.2883 10.4888 32.8406 10.5864C33.2892 10.6648 33.6646 10.6292 33.9698 10.4796C34.4458 10.2467 34.7327 9.76552 34.9178 9.21824C35.2627 8.19591 35.2393 6.92334 34.9544 5.94476C34.9321 5.89288 34.9127 5.83897 34.8995 5.78302C34.8944 5.76267 34.8883 5.74131 34.8832 5.72096C34.87 5.68231 34.8558 5.64365 34.8405 5.60602C34.8151 5.5399 34.7978 5.47378 34.7866 5.40766ZM28.4828 12.2069H7.12069C6.55917 12.2069 6.10345 12.6626 6.10345 13.2241V45.7759C6.10345 46.3374 6.55917 46.7931 7.12069 46.7931H28.4828V44.6691V41.7069H14.2414C13.4317 41.7069 12.6555 41.3854 12.0838 40.8127C11.5111 40.2411 11.1897 39.4649 11.1897 38.6552C11.1897 34.399 11.1897 24.601 11.1897 20.3448C11.1897 19.5351 11.5111 18.7589 12.0838 18.1873C12.6555 17.6146 13.4317 17.2931 14.2414 17.2931H28.4828V12.2069ZM28.4828 19.3276H14.2414C13.9718 19.3276 13.7124 19.4344 13.5222 19.6256C13.3309 19.8159 13.2241 20.0753 13.2241 20.3448V38.6552C13.2241 38.9247 13.3309 39.1841 13.5222 39.3744C13.7124 39.5656 13.9718 39.6724 14.2414 39.6724H28.4828V19.3276ZM20.3448 2.03448C21.1871 2.03448 21.8707 2.71807 21.8707 3.56034C21.8707 4.40262 21.1871 5.08621 20.3448 5.08621C19.5026 5.08621 18.819 4.40262 18.819 3.56034C18.819 2.71807 19.5026 2.03448 20.3448 2.03448Z" fill="#589CE7"/>
</svg>
