<svg width="32" height="32" viewBox="0 0 32 32" fill="none" xmlns="http://www.w3.org/2000/svg">
<path d="M16 32C24.8366 32 32 24.8366 32 16C32 7.16344 24.8366 0 16 0C7.16345 0 0 7.16344 0 16C0 24.8366 7.16345 32 16 32Z" fill="#5A99EC"/>
<path d="M12.7529 25.2203C20.5751 25.2203 24.8418 18.7491 24.8418 13.1314C24.8418 12.9417 24.8418 12.7758 24.8181 12.5862C25.6477 11.9936 26.3588 11.2351 26.9277 10.3817C26.1692 10.7136 25.3396 10.9506 24.4862 11.0454C25.3633 10.524 26.027 9.69433 26.3588 8.69877C25.5292 9.19655 24.6285 9.5284 23.6566 9.74174C22.8744 8.91211 21.784 8.39062 20.5514 8.39062C18.2048 8.39062 16.3085 10.2869 16.3085 12.6336C16.3085 12.9654 16.3559 13.2973 16.427 13.6054C12.9188 13.4158 9.78993 11.7328 7.6803 9.14914C7.32474 9.76544 7.11142 10.5003 7.11142 11.2825C7.11142 12.7521 7.86993 14.0558 9.00771 14.8143C8.3203 14.7906 7.65659 14.601 7.0877 14.2928C7.0877 14.3166 7.0877 14.3166 7.0877 14.3403C7.0877 16.4025 8.55734 18.1091 10.501 18.5121C10.1455 18.6069 9.76623 18.6543 9.38697 18.6543C9.10252 18.6543 8.84179 18.6306 8.58105 18.5832C9.12623 20.2662 10.6907 21.4988 12.5396 21.5225C11.0936 22.6603 9.24474 23.3477 7.25363 23.3477C6.92178 23.3477 6.56623 23.324 6.23438 23.3003C8.13067 24.5091 10.3588 25.2203 12.7529 25.2203Z" fill="#FEFEFE"/>
</svg>
