<svg width="38" height="46" viewBox="0 0 38 46" fill="none" xmlns="http://www.w3.org/2000/svg">
<path d="M32.6979 0.0245103C31.6496 0.0312095 30.6333 0.386057 29.8086 1.03328C28.9839 1.68051 28.3976 2.58341 28.142 3.6001H23.2976C23.0163 2.48137 22.3357 1.50405 21.384 0.852121C20.4323 0.200188 19.2751 -0.0814037 18.1303 0.06035C16.9855 0.202104 15.932 0.757426 15.168 1.62179C14.4041 2.48615 13.9824 3.59994 13.9824 4.75351C13.9824 5.90708 14.4041 7.02088 15.168 7.88524C15.932 8.7496 16.9855 9.30493 18.1303 9.44668C19.2751 9.58843 20.4323 9.30684 21.384 8.65491C22.3357 8.00297 23.0163 7.02566 23.2976 5.90693H28.142C28.3583 6.76716 28.8123 7.5492 29.4519 8.16372C30.0916 8.77823 30.8912 9.20045 31.7594 9.38215C32.6277 9.56385 33.5295 9.49769 34.3619 9.19124C35.1943 8.8848 35.9237 8.35041 36.4669 7.64913C37.01 6.94784 37.345 6.10793 37.4335 5.22534C37.522 4.34274 37.3605 3.45304 36.9675 2.65786C36.5744 1.86268 35.9656 1.19408 35.2106 0.728428C34.4557 0.262778 33.585 0.0188511 32.6979 0.0245103ZM18.7416 7.11802C18.2626 7.11802 17.7943 6.97596 17.3959 6.70981C16.9976 6.44366 16.6872 6.06536 16.5038 5.62277C16.3205 5.18017 16.2725 4.69316 16.366 4.2233C16.4595 3.75345 16.6901 3.32186 17.0289 2.98311C17.3676 2.64436 17.7992 2.41367 18.2691 2.32021C18.7389 2.22675 19.226 2.27472 19.6685 2.45805C20.1111 2.64138 20.4894 2.95183 20.7556 3.35016C21.0217 3.74848 21.1638 4.21678 21.1638 4.69584C21.1638 5.01393 21.1011 5.3289 20.9794 5.62277C20.8577 5.91664 20.6793 6.18366 20.4544 6.40858C20.2294 6.6335 19.9624 6.81191 19.6685 6.93364C19.3747 7.05537 19.0597 7.11802 18.7416 7.11802ZM32.6979 7.11802C32.2189 7.11802 31.7506 6.97596 31.3523 6.70981C30.9539 6.44366 30.6435 6.06536 30.4602 5.62277C30.2768 5.18017 30.2289 4.69316 30.3223 4.2233C30.4158 3.75345 30.6465 3.32186 30.9852 2.98311C31.324 2.64436 31.7556 2.41367 32.2254 2.32021C32.6953 2.22675 33.1823 2.27472 33.6249 2.45805C34.0675 2.64138 34.4458 2.95183 34.7119 3.35016C34.9781 3.74848 35.1201 4.21678 35.1201 4.69584C35.1201 5.33824 34.8649 5.95433 34.4107 6.40858C33.9564 6.86282 33.3403 7.11802 32.6979 7.11802Z" fill="white"/>
<path d="M4.78662 27.9961C3.85131 27.9961 2.93701 28.2734 2.15933 28.7931C1.38165 29.3127 0.775521 30.0513 0.417593 30.9154C0.0596662 31.7795 -0.0339839 32.7303 0.148486 33.6477C0.330956 34.565 0.781349 35.4076 1.44271 36.069C2.10408 36.7304 2.9467 37.1808 3.86404 37.3632C4.78138 37.5457 5.73222 37.4521 6.59634 37.0941C7.46045 36.7362 8.19902 36.1301 8.71865 35.3524C9.23828 34.5747 9.51563 33.6604 9.51563 32.7251C9.51563 31.4709 9.0174 30.268 8.13054 29.3812C7.24368 28.4943 6.04083 27.9961 4.78662 27.9961ZM4.78662 35.0896C4.30756 35.0896 3.83926 34.9475 3.44094 34.6814C3.04261 34.4152 2.73216 34.037 2.54883 33.5944C2.3655 33.1518 2.31753 32.6647 2.41099 32.1949C2.50445 31.725 2.73514 31.2934 3.07389 30.9547C3.41264 30.6159 3.84423 30.3853 4.31408 30.2918C4.78394 30.1983 5.27096 30.2463 5.71355 30.4296C6.15614 30.613 6.53443 30.9234 6.80059 31.3217C7.06674 31.7201 7.2088 32.1884 7.2088 32.6674C7.2088 33.3098 6.9536 33.9259 6.49936 34.3802C6.04511 34.8344 5.42902 35.0896 4.78662 35.0896Z" fill="white"/>
<path d="M32.6989 13.7519C31.7398 13.7314 30.7976 14.0067 30.0004 14.5404C29.2032 15.0741 28.5897 15.8404 28.2432 16.735C27.8967 17.6296 27.834 18.6091 28.0637 19.5406C28.2934 20.4721 28.8043 21.3102 29.527 21.9411L22.0875 29.4383C21.4929 28.803 20.7346 28.344 19.896 28.1119V23.0369C21.0147 22.7555 21.992 22.0749 22.644 21.1233C23.2959 20.1716 23.5775 19.0144 23.4357 17.8696C23.294 16.7247 22.7387 15.6712 21.8743 14.9073C21.0099 14.1433 19.8962 13.7217 18.7426 13.7217C17.589 13.7217 16.4752 14.1433 15.6109 14.9073C14.7465 15.6712 14.1912 16.7247 14.0494 17.8696C13.9077 19.0144 14.1893 20.1716 14.8412 21.1233C15.4931 22.0749 16.4704 22.7555 17.5892 23.0369V28.1119C16.6777 28.3397 15.8547 28.8339 15.2252 29.5314C14.5957 30.2289 14.1882 31.0981 14.0548 32.0281C13.9213 32.9581 14.0679 33.9068 14.4759 34.7532C14.8839 35.5995 15.5347 36.3052 16.3454 36.7801C17.156 37.255 18.0898 37.4777 19.0275 37.4198C19.9653 37.3618 20.8645 37.0258 21.6106 36.4547C22.3566 35.8836 22.9156 35.1031 23.2162 34.213C23.5169 33.3228 23.5455 32.3633 23.2986 31.4568L31.7185 23.0945L32.6989 23.2099C33.3599 23.2832 34.0289 23.2163 34.6622 23.0135C35.2956 22.8108 35.879 22.4767 36.3745 22.0332C36.87 21.5896 37.2664 21.0465 37.5377 20.4394C37.8091 19.8323 37.9494 19.1747 37.9494 18.5097C37.9494 17.8447 37.8091 17.1872 37.5377 16.58C37.2664 15.9729 36.87 15.4298 36.3745 14.9863C35.879 14.5427 35.2956 14.2086 34.6622 14.0059C34.0289 13.8031 33.3599 13.7362 32.6989 13.8095V13.7519ZM16.3204 18.4809C16.3204 18.0018 16.4625 17.5335 16.7286 17.1352C16.9948 16.7369 17.3731 16.4264 17.8157 16.2431C18.2583 16.0598 18.7453 16.0118 19.2151 16.1052C19.685 16.1987 20.1166 16.4294 20.4553 16.7681C20.7941 17.1069 21.0248 17.5385 21.1182 18.0083C21.2117 18.4782 21.1637 18.9652 20.9804 19.4078C20.7971 19.8504 20.4866 20.2287 20.0883 20.4948C19.6899 20.761 19.2216 20.9031 18.7426 20.9031C18.1002 20.9031 17.4841 20.6479 17.0298 20.1936C16.5756 19.7394 16.3204 19.1233 16.3204 18.4809ZM18.7426 35.0901C18.2635 35.0901 17.7952 34.948 17.3969 34.6819C16.9986 34.4157 16.6881 34.0374 16.5048 33.5948C16.3215 33.1522 16.2735 32.6652 16.367 32.1954C16.4604 31.7255 16.6911 31.2939 17.0298 30.9552C17.3686 30.6164 17.8002 30.3857 18.27 30.2923C18.7399 30.1988 19.2269 30.2468 19.6695 30.4301C20.1121 30.6134 20.4904 30.9239 20.7565 31.3222C21.0227 31.7205 21.1648 32.1888 21.1648 32.6679C21.1648 32.986 21.1021 33.3009 20.9804 33.5948C20.8587 33.8887 20.6802 34.1557 20.4553 34.3806C20.2304 34.6055 19.9634 34.784 19.6695 34.9057C19.3756 35.0274 19.0607 35.0901 18.7426 35.0901ZM32.6989 20.9031C32.2199 20.9031 31.7516 20.761 31.3532 20.4948C30.9549 20.2287 30.6444 19.8504 30.4611 19.4078C30.2778 18.9652 30.2298 18.4782 30.3233 18.0083C30.4167 17.5385 30.6474 17.1069 30.9862 16.7681C31.3249 16.4294 31.7565 16.1987 32.2264 16.1052C32.6962 16.0118 33.1832 16.0598 33.6258 16.2431C34.0684 16.4264 34.4467 16.7369 34.7129 17.1352C34.979 17.5335 35.1211 18.0018 35.1211 18.4809C35.1211 19.1233 34.8659 19.7394 34.4116 20.1936C33.9574 20.6479 33.3413 20.9031 32.6989 20.9031Z" fill="white"/>
<path d="M32.6987 27.9961C31.7634 27.9961 30.8491 28.2734 30.0714 28.7931C29.2938 29.3127 28.6876 30.0513 28.3297 30.9154C27.9718 31.7795 27.8781 32.7303 28.0606 33.6477C28.2431 34.565 28.6935 35.4076 29.3548 36.069C30.0162 36.7304 30.8588 37.1808 31.7761 37.3632C32.6935 37.5457 33.6443 37.4521 34.5084 37.0941C35.3726 36.7362 36.1111 36.1301 36.6308 35.3524C37.1504 34.5747 37.4277 33.6604 37.4277 32.7251C37.4277 31.4709 36.9295 30.268 36.0426 29.3812C35.1558 28.4943 33.9529 27.9961 32.6987 27.9961ZM32.6987 35.0896C32.2197 35.0896 31.7514 34.9475 31.353 34.6814C30.9547 34.4152 30.6443 34.037 30.4609 33.5944C30.2776 33.1518 30.2296 32.6647 30.3231 32.1949C30.4166 31.725 30.6472 31.2934 30.986 30.9547C31.3247 30.6159 31.7563 30.3853 32.2262 30.2918C32.696 30.1983 33.1831 30.2463 33.6257 30.4296C34.0683 30.613 34.4465 30.9234 34.7127 31.3217C34.9788 31.7201 35.1209 32.1884 35.1209 32.6674C35.1209 33.3098 34.8657 33.9259 34.4115 34.3802C33.9572 34.8344 33.3411 35.0896 32.6987 35.0896Z" fill="white"/>
<path d="M9.45795 4.75344C9.46258 3.85662 9.2121 2.97697 8.73573 2.21711C8.25936 1.45726 7.57675 0.848521 6.76751 0.461927C5.95828 0.0753338 5.0558 -0.0731792 4.16536 0.0337127C3.27492 0.140605 2.43324 0.498495 1.73849 1.06563C1.04375 1.63277 0.524601 2.38577 0.241607 3.23678C-0.0413868 4.08779 -0.0765559 5.00173 0.140203 5.87198C0.356962 6.74222 0.816712 7.53289 1.46582 8.15174C2.11492 8.77059 2.92662 9.1921 3.80621 9.3671V14.3268C2.67502 14.5523 1.66523 15.1834 0.966881 16.1014C0.26853 17.0194 -0.070232 18.161 0.0143462 19.3113C0.0989244 20.4617 0.601011 21.5414 1.42612 22.3474C2.25123 23.1534 3.34246 23.6301 4.49446 23.6877C5.64647 23.7453 6.77981 23.3799 7.6812 22.6602C8.58259 21.9405 9.18988 20.9162 9.38878 19.7801C9.58768 18.6439 9.36449 17.4742 8.76119 16.4911C8.15789 15.508 7.2161 14.7793 6.11304 14.4421V9.25176C7.07737 8.95661 7.92208 8.36091 8.52385 7.55163C9.12561 6.74236 9.45291 5.76191 9.45795 4.75344ZM2.36444 4.75344C2.36444 4.27438 2.5065 3.80608 2.77265 3.40775C3.0388 3.00943 3.41709 2.69897 3.85969 2.51564C4.30228 2.33232 4.7893 2.28435 5.25916 2.37781C5.72901 2.47127 6.1606 2.70196 6.49935 3.0407C6.83809 3.37945 7.06878 3.81104 7.16224 4.2809C7.2557 4.75075 7.20774 5.23777 7.02441 5.68037C6.84108 6.12296 6.53062 6.50125 6.1323 6.7674C5.73398 7.03356 5.26567 7.17561 4.78661 7.17561C4.14421 7.17561 3.52812 6.92042 3.07388 6.46618C2.61963 6.01193 2.36444 5.39584 2.36444 4.75344ZM7.15111 18.9405C7.15111 19.4195 7.00906 19.8878 6.74291 20.2861C6.47675 20.6845 6.09846 20.9949 5.65587 21.1783C5.21327 21.3616 4.72626 21.4095 4.2564 21.3161C3.78654 21.2226 3.35495 20.9919 3.01621 20.6532C2.67746 20.3144 2.44677 19.8829 2.35331 19.413C2.25985 18.9431 2.30782 18.4561 2.49115 18.0135C2.67447 17.5709 2.98493 17.1926 3.38326 16.9265C3.78158 16.6603 4.24988 16.5183 4.72894 16.5183C5.37134 16.5183 5.98743 16.7735 6.44168 17.2277C6.89592 17.682 7.15111 18.2981 7.15111 18.9405Z" fill="white"/>
<path d="M2.65538 42.2958H3.7436C3.68314 42.3966 3.27607 43.106 2.88512 43.7871C2.65538 44.1861 2.40147 44.6335 2.11531 45.1212H1.75257C1.78481 45.0688 2.14352 44.436 2.4982 43.8234C2.70375 43.4647 2.93751 43.0576 3.19949 42.6102H2.83675C2.32892 43.4808 2.0347 44.0007 1.5712 44.8068C1.54299 44.7584 0.112189 42.2999 0.116219 42.2958H1.20443L1.75257 43.239L1.5712 43.5533L1.02306 42.6102H0.660326C0.740935 42.7392 1.49462 44.0531 1.5712 44.178L2.36116 42.8077L2.65538 42.2958ZM5.08976 45.1212H4.14664V42.2958H5.08976V44.4924H4.77539V42.6102H4.46101V44.8068H5.08976V45.1212ZM8.01987 43.8677C6.4198 43.8677 6.39561 43.8637 6.37546 43.8637H6.3674C5.96436 43.8314 5.65402 43.4888 5.65402 43.0818C5.65402 42.6465 6.00466 42.2958 6.43995 42.2958H8.13273C8.47128 42.2958 8.74535 42.5699 8.74535 42.9125V43.239H6.45204H6.44801H6.44398C6.35128 43.2349 6.29082 43.1664 6.29082 43.0818C6.29082 42.9971 6.35531 42.9286 6.43995 42.9246H8.43098V42.9165C8.43098 42.7432 8.29797 42.6102 8.12467 42.6102H6.43995C6.182 42.6102 5.96839 42.8198 5.96839 43.0818C5.96839 43.3236 6.14976 43.5171 6.37949 43.5493C7.98763 43.5493 8.00375 43.5533 8.03196 43.5533C8.43501 43.5856 8.74535 43.9322 8.74535 44.3352C8.74535 44.7705 8.3947 45.1212 7.96345 45.1212H6.26664C5.92809 45.1212 5.65402 44.8471 5.65402 44.5085V44.178H7.96345C8.16094 44.1901 8.16094 44.4803 7.96345 44.4924H5.96839V44.5005C5.96839 44.6738 6.10139 44.8068 6.2747 44.8068H7.96345C8.21736 44.8068 8.43501 44.6053 8.43501 44.3352C8.43501 44.0934 8.25364 43.8999 8.01987 43.8677ZM9.30961 43.239V42.2958H12.3929V43.239H11.6352V42.9246H12.0785V42.6102H9.62398V42.9246H10.6961L10.692 44.8068H11.0064V42.9246H11.3208V45.1212H10.3777V43.239H9.30961ZM13.9003 44.178L14.0816 43.8637L14.6298 44.8068H14.9925C14.9119 44.6778 14.1461 43.3679 14.0816 43.239L13.2917 44.6093L12.9974 45.1212H11.9092C11.9697 45.0204 12.3768 44.3111 12.7677 43.6299C12.9974 43.2309 13.2514 42.7835 13.5375 42.2958H13.9003L13.1506 43.5936L12.4533 44.8068H12.8161C13.3118 43.9322 13.6222 43.4163 14.0816 42.6102C14.1098 42.6586 15.5285 45.1171 15.5366 45.1212H14.4484L13.9003 44.178ZM18.4305 42.6102V44.178H21.2155V45.1212H18.1161V44.8068H20.9051V44.4924H18.1161V42.2958H19.0592V43.8677H18.7448V42.6102H18.4305ZM23.0251 42.1709C23.8715 42.1709 24.5607 42.8601 24.5607 43.7105C24.5607 44.5609 23.8715 45.2461 23.0251 45.2461C22.1747 45.2461 21.4855 44.5609 21.4855 43.7105C21.4855 42.8601 22.1747 42.1709 23.0251 42.1709ZM23.0251 44.9358C23.7022 44.9358 24.2504 44.3876 24.2504 43.7105C24.2504 43.0334 23.7022 42.4812 23.0251 42.4812C22.344 42.4812 21.7959 43.0334 21.7959 43.7105C21.7959 44.3876 22.344 44.9358 23.0251 44.9358ZM23.0251 42.7916C23.5289 42.7916 23.94 43.2067 23.94 43.7105C23.94 44.2143 23.5289 44.6254 23.0251 44.6254C22.5213 44.6254 22.1062 44.2143 22.1062 43.7105C22.1062 43.2067 22.5213 42.7916 23.0251 42.7916ZM23.0251 44.3151C23.3597 44.3151 23.6297 44.045 23.6297 43.7105C23.6297 43.372 23.3597 43.1019 23.0251 43.1019C22.6866 43.1019 22.4165 43.372 22.4165 43.7105C22.4165 44.045 22.6866 44.3151 23.0251 44.3151ZM26.4067 43.5493H28.2123V45.1212H26.4752C25.7215 45.0889 25.125 44.4682 25.125 43.7105C25.125 42.9488 25.7215 42.3281 26.4752 42.2958H28.2123V43.243H26.4752C26.2374 43.2631 26.056 43.4687 26.056 43.7065C26.056 43.9523 26.2374 44.1458 26.4752 44.178H27.5795V44.4924H26.4752C26.0681 44.4602 25.7457 44.1257 25.7457 43.7065C25.7457 43.3034 26.056 42.9568 26.459 42.9246H27.8939V42.6102H26.4752C25.8988 42.6425 25.4394 43.1221 25.4394 43.7105C25.4394 44.2949 25.8988 44.7745 26.4752 44.8068H27.8939V43.8637H26.4067V43.5493ZM29.7197 45.1212H28.7765V42.2958H29.7197V44.4924H29.4053V42.6102H29.0909V44.8068H29.7197V45.1212ZM33.3672 42.2958V43.243H31.6341C31.3963 43.2631 31.2149 43.4687 31.2149 43.7105C31.2149 43.9523 31.3963 44.1498 31.6341 44.178H32.7384V44.4924H31.6341C31.227 44.4602 30.9046 44.1257 30.9046 43.7065C30.9046 43.3034 31.2149 42.9609 31.618 42.9286H33.0528V42.6102H31.6341V42.6142C31.0578 42.6465 30.5983 43.1221 30.5983 43.7105C30.5983 44.2949 31.0578 44.7745 31.6341 44.8068H33.0528V44.178H33.3672V45.1212H31.6341C30.8804 45.0889 30.2839 44.4682 30.2839 43.7105C30.2839 42.9488 30.8804 42.3321 31.6341 42.2999L33.3672 42.2958ZM35.7572 44.178L35.9386 43.8637L36.4867 44.8068H36.8495C36.7689 44.6778 36.0031 43.3679 35.9386 43.239L35.1486 44.6093L34.8544 45.1212H33.7662C33.8267 45.0204 34.2337 44.3111 34.6247 43.6299C34.8544 43.2309 35.1083 42.7835 35.3945 42.2958H35.7572L35.0076 43.5936L34.3103 44.8068H34.673C35.1688 43.9322 35.4791 43.4163 35.9386 42.6102C35.9668 42.6586 37.3855 45.1171 37.3936 45.1212H36.3054L35.7572 44.178Z" fill="white"/>
</svg>
