<svg width="57" height="61" viewBox="0 0 57 61" fill="none" xmlns="http://www.w3.org/2000/svg">
<path fill-rule="evenodd" clip-rule="evenodd" d="M18.3077 35.36C16.5838 34.725 14.1927 34.3307 11.5388 34.3307C8.88473 34.3307 6.49115 34.725 4.76984 35.36C3.24937 35.9208 2.30927 36.6121 2.30927 37.3034C2.30927 37.9947 3.24937 38.6861 4.76984 39.2469C6.49369 39.8819 8.88485 40.2762 11.5388 40.2762C14.1928 40.2762 16.5864 39.8819 18.3077 39.2469C19.8282 38.6861 20.7683 37.9947 20.7683 37.3034C20.7683 36.6121 19.8282 35.9207 18.3077 35.36ZM22.0779 37.283V37.3035V55.6753C22.0779 56.999 20.8055 58.1308 18.7492 58.8913C16.8938 59.575 14.344 60 11.539 60C8.73392 60 6.18376 59.5775 4.32872 58.8913C2.27245 58.1334 1 56.999 1 55.6753V37.3035V37.283C1.0124 35.9669 2.28235 34.8427 4.32872 34.0874C6.18408 33.4037 8.73392 32.9787 11.539 32.9787C14.344 32.9787 16.8942 33.4012 18.7492 34.0874C20.7956 34.8427 22.0655 35.9669 22.0779 37.283ZM5.0451 42.4015C4.80698 42.3196 4.58127 42.2351 4.37291 42.148C4.14967 42.0533 3.95372 41.9637 3.78505 41.8792C3.4626 41.7127 3.07317 41.8485 2.90947 42.1813C2.74825 42.5142 2.87971 42.9162 3.20216 43.0852C3.43036 43.203 3.65856 43.308 3.88179 43.4027C4.12239 43.5026 4.37539 43.5999 4.63336 43.6869C4.97565 43.8047 5.34524 43.6101 5.45934 43.2568C5.57344 42.9034 5.38493 42.5219 5.04263 42.4041L5.0451 42.4015ZM2.30921 43.4232V39.4697C2.84498 39.8692 3.52711 40.2225 4.33075 40.517C6.18611 41.2007 8.73595 41.6257 11.541 41.6257C14.346 41.6257 16.8962 41.2033 18.7512 40.517C19.5549 40.22 20.237 39.8666 20.7728 39.4697V43.4232C20.7728 44.1146 19.8327 44.8059 18.3122 45.3666C16.5884 46.0017 14.1972 46.396 11.5433 46.396C8.88924 46.396 6.49566 46.0017 4.77435 45.3666C3.25388 44.8059 2.31378 44.1145 2.31378 43.4232H2.30921ZM5.0451 48.5264C4.80698 48.4445 4.58375 48.36 4.37539 48.2729C4.16951 48.1859 3.97356 48.0963 3.78753 48.0015C3.46508 47.8351 3.0707 47.9708 2.90947 48.3062C2.74825 48.6391 2.87971 49.0462 3.20464 49.2127C3.41547 49.3202 3.64119 49.4252 3.88426 49.5276C4.12487 49.6275 4.37539 49.7222 4.63583 49.8118C4.97813 49.9296 5.34771 49.735 5.46182 49.3816C5.57592 49.0283 5.38741 48.6468 5.04511 48.529L5.0451 48.5264ZM2.30921 49.5481C2.30921 50.2395 3.24931 50.9308 4.76978 51.4915C6.49363 52.1266 8.88479 52.5209 11.5387 52.5209C14.1928 52.5209 16.5863 52.1265 18.3076 51.4915C19.8281 50.9308 20.7682 50.2394 20.7682 49.5481V45.5895C20.2324 45.9889 19.5503 46.3422 18.7467 46.6367C16.8913 47.3204 14.3415 47.7455 11.5364 47.7455C8.73106 47.7455 6.18122 47.323 4.32618 46.6367C3.52254 46.3397 2.84044 45.9864 2.30464 45.5895V49.5481H2.30921ZM20.7707 51.7143C20.235 52.1138 19.5528 52.4671 18.7492 52.7616C16.8938 53.4453 14.344 53.8704 11.539 53.8704C8.73392 53.8704 6.18376 53.4479 4.32872 52.7616C3.52508 52.4646 2.84298 52.1113 2.30718 51.7143V55.673C2.30718 56.3643 3.24727 57.0557 4.76774 57.6164C6.4916 58.2514 8.88276 58.6458 11.5367 58.6458C14.1907 58.6458 16.5843 58.2514 18.3056 57.6164C19.8261 57.0557 20.7662 56.3643 20.7662 55.673V51.7143H20.7707ZM5.04472 54.6513C4.8066 54.5694 4.58089 54.4849 4.37253 54.3978C4.14929 54.3031 3.95334 54.2135 3.78467 54.129C3.46222 53.9625 3.07279 54.0982 2.90909 54.4311C2.74786 54.764 2.87933 55.166 3.20178 55.335C3.42998 55.4528 3.65818 55.5578 3.88141 55.6525C4.12201 55.7524 4.37253 55.8497 4.63297 55.9367C4.97527 56.0545 5.34485 55.8599 5.45896 55.5065C5.57306 55.1532 5.38455 54.7717 5.04225 54.6539L5.04472 54.6513ZM52.2298 35.3572C50.5059 34.7222 48.1148 34.3279 45.4608 34.3279C42.8068 34.3279 40.4132 34.7222 38.6919 35.3572C37.1714 35.918 36.2313 36.6094 36.2313 37.3007C36.2313 37.992 37.1714 38.6834 38.6919 39.2441C40.4158 39.8791 42.8069 40.2734 45.4608 40.2734C48.1149 40.2734 50.5085 39.8791 52.2298 39.2441C53.7502 38.6833 54.6903 37.992 54.6903 37.3007C54.6903 36.6093 53.7502 35.918 52.2298 35.3572ZM56 37.2802V37.3007V55.6725C56 56.9963 54.7276 58.1281 52.6713 58.8885C50.8159 59.5722 48.2661 59.9972 45.461 59.9972C42.6557 59.9972 40.1058 59.5748 38.2508 58.8885C36.1945 58.1306 34.9221 56.9963 34.9221 55.6725V37.3007V37.2802C34.9345 35.9641 36.2044 34.84 38.2508 34.0846C40.1061 33.401 42.656 32.9759 45.461 32.9759C48.2664 32.9759 50.8162 33.3984 52.6713 34.0846C54.7176 34.84 55.9876 35.9641 56 37.2802ZM38.9672 42.3988C38.7291 42.3168 38.5033 42.2323 38.295 42.1453C38.0718 42.0505 37.8758 41.9609 37.7071 41.8764C37.3847 41.71 36.9952 41.8457 36.8315 42.1786C36.6703 42.5114 36.8018 42.9135 37.1242 43.0825C37.3524 43.2002 37.5806 43.3052 37.8039 43.4C38.0445 43.4998 38.2975 43.5971 38.5554 43.6842C38.8977 43.802 39.2673 43.6074 39.3814 43.254C39.4955 42.9007 39.307 42.5191 38.9647 42.4013L38.9672 42.3988ZM36.2313 43.4205V39.467C36.767 39.8664 37.4492 40.2198 38.2528 40.5143C40.1082 41.198 42.658 41.623 45.4631 41.623C48.2681 41.623 50.8183 41.2005 52.6733 40.5143C53.477 40.2173 54.1591 39.8639 54.6949 39.467V43.4205C54.6949 44.1118 53.7548 44.8032 52.2343 45.3639C50.5104 45.9989 48.1193 46.3932 45.4654 46.3932C42.8113 46.3932 40.4177 45.9989 38.6964 45.3639C37.1759 44.8031 36.2359 44.1117 36.2359 43.4205H36.2313ZM38.9672 48.5237C38.7291 48.4417 38.5058 48.3572 38.2975 48.2702C38.0916 48.1831 37.8956 48.0935 37.7096 47.9988C37.3871 47.8323 36.9928 47.968 36.8315 48.3035C36.6703 48.6363 36.8018 49.0435 37.1267 49.2099C37.3375 49.3174 37.5633 49.4224 37.8063 49.5248C38.0469 49.6247 38.2975 49.7195 38.5579 49.8091C38.9002 49.9269 39.2698 49.7323 39.3839 49.3789C39.498 49.0255 39.3095 48.644 38.9672 48.5262L38.9672 48.5237ZM36.2313 49.5453C36.2313 50.2367 37.1714 50.9281 38.6918 51.4888C40.4157 52.1238 42.8069 52.5181 45.4608 52.5181C48.1148 52.5181 50.5084 52.1238 52.2297 51.4888C53.7502 50.928 54.6903 50.2366 54.6903 49.5453V45.5867C54.1545 45.9861 53.4724 46.3395 52.6687 46.634C50.8134 47.3177 48.2635 47.7427 45.4585 47.7427C42.6531 47.7427 40.1033 47.3202 38.2482 46.634C37.4446 46.337 36.7625 45.9836 36.2267 45.5867V49.5453H36.2313ZM54.6928 51.7116C54.1571 52.111 53.4749 52.4644 52.6713 52.7589C50.8159 53.4426 48.2661 53.8676 45.461 53.8676C42.6557 53.8676 40.1058 53.4451 38.2508 52.7589C37.4472 52.4619 36.765 52.1085 36.2293 51.7116V55.6702C36.2293 56.3616 37.1693 57.053 38.6898 57.6137C40.4137 58.2487 42.8048 58.643 45.4588 58.643C48.1128 58.643 50.5064 58.2487 52.2277 57.6137C53.7481 57.0529 54.6882 56.3615 54.6882 55.6702V51.7116H54.6928ZM38.9668 54.6486C38.7287 54.5666 38.503 54.4821 38.2946 54.3951C38.0714 54.3003 37.8754 54.2107 37.7067 54.1262C37.3843 53.9598 36.9949 54.0955 36.8312 54.4284C36.6699 54.7612 36.8014 55.1632 37.1239 55.3322C37.352 55.45 37.5803 55.555 37.8035 55.6497C38.0441 55.7496 38.2946 55.8469 38.555 55.934C38.8973 56.0518 39.2669 55.8571 39.381 55.5038C39.4951 55.1504 39.3066 54.7689 38.9643 54.6511L38.9668 54.6486ZM22.4026 29.9315V24.1472C22.4026 23.7734 22.6953 23.4713 23.0574 23.4713H24.2554L20.4703 18.7445L16.6853 23.4713H17.8833C18.2454 23.4713 18.5381 23.7734 18.5381 24.1472V29.9315H22.405H22.4026ZM38.4683 24.1472V18.3629H34.6014V24.1472C34.6014 24.5211 34.3087 24.8232 33.9466 24.8232H32.7486L34.1823 26.613C34.1971 26.6284 34.212 26.6463 34.2244 26.6642L36.5361 29.55L38.8479 26.6642C38.8603 26.6463 38.8752 26.6284 38.89 26.613L40.3237 24.8232H39.1257C38.7635 24.8232 38.4709 24.521 38.4709 24.1472H38.4683ZM39.6763 27.7423L37.0371 31.0377C36.8065 31.3245 36.3947 31.3654 36.1169 31.1273C36.0822 31.0966 36.0499 31.0633 36.0227 31.0274L33.391 27.7422H23.71V30.6075C23.71 30.9814 23.4173 31.2835 23.0552 31.2835H17.8811C17.519 31.2835 17.2263 30.9813 17.2263 30.6075V27.7422H14.5425C12.387 27.7422 10.4299 26.8333 9.00871 25.3686C7.58991 23.9039 6.70937 21.8811 6.70937 19.6586C6.70937 17.3259 7.60229 15.3286 9.04593 13.8998C10.3804 12.5786 12.1861 11.749 14.1854 11.5979C14.2027 8.67889 15.3561 6.03892 17.2114 4.12387C19.0817 2.19321 21.6638 1 24.5163 1C26.5775 1 28.4973 1.62477 30.1096 2.70024C31.6152 3.70395 32.8505 5.09952 33.6814 6.74595C33.8278 6.70754 33.9741 6.67681 34.1204 6.64864C34.4578 6.58719 34.805 6.55647 35.1523 6.55647C36.71 6.55647 38.1337 7.16844 39.2053 8.17215C40.1429 9.05302 40.8125 10.2334 41.0681 11.57H42.4621C44.6175 11.57 46.5746 12.479 47.9958 13.9437C49.4146 15.4083 50.2952 17.4311 50.2952 19.6562C50.2952 21.8813 49.4146 23.9017 47.9958 25.3663C46.577 26.8309 44.6175 27.7399 42.4621 27.7399H39.679L39.6763 27.7423ZM39.7755 17.6842C39.7755 17.3104 39.4828 17.0083 39.1207 17.0083H33.9466C33.5844 17.0083 33.2918 17.3104 33.2918 17.6842V23.4685H31.3595C31.2132 23.4685 31.0644 23.5197 30.9428 23.6247C30.665 23.8628 30.6253 24.2879 30.856 24.5747L32.3095 26.3901H23.7125V24.8205H25.6447C26.0069 24.8205 26.2995 24.5183 26.2995 24.1445C26.2995 23.9678 26.2351 23.8091 26.1284 23.6887L20.9741 17.2541C20.7434 16.9673 20.3317 16.9263 20.0539 17.1644C20.0192 17.1952 19.9869 17.2284 19.9596 17.2643L14.7929 23.7169C14.5623 24.0037 14.602 24.4287 14.8798 24.6669C15.0013 24.7719 15.1501 24.8205 15.2965 24.8205H17.2287V26.3901H14.5449C12.7516 26.3901 11.1195 25.6322 9.93879 24.4108C8.75562 23.1894 8.02145 21.5072 8.02145 19.6559C8.02145 17.7098 8.76064 16.0506 9.95371 14.8676C11.1939 13.6411 12.9352 12.919 14.8575 12.919C15.2196 12.919 15.5123 12.6169 15.5123 12.2431C15.5123 12.2149 15.5098 12.1842 15.5073 12.156C15.5024 12.0664 15.4999 11.9921 15.4974 11.9307C15.4949 11.8897 15.4949 11.8001 15.4949 11.6541C15.4949 9.08331 16.5044 6.75575 18.1366 5.06828C19.7687 3.38344 22.0234 2.34126 24.5163 2.34126C26.3195 2.34126 27.9963 2.88666 29.4052 3.82381C30.8587 4.79173 32.0245 6.18211 32.7438 7.82343C32.8901 8.15886 33.2721 8.30994 33.5995 8.16655C33.8327 8.08205 34.0807 8.01547 34.3437 7.96938C34.6041 7.92329 34.877 7.89768 35.1572 7.89768C36.3801 7.89768 37.4938 8.37651 38.3297 9.16005C39.178 9.9538 39.7435 11.06 39.8601 12.2993C39.8924 12.6476 40.1751 12.9087 40.51 12.9087V12.9113H42.467C44.2603 12.9113 45.8924 13.6692 47.0731 14.8906C48.2563 16.112 48.9904 17.7943 48.9904 19.6455C48.9904 21.4968 48.2563 23.1817 47.0731 24.4005C45.8899 25.6219 44.2603 26.3798 42.467 26.3798H40.7654L42.1991 24.5899C42.3057 24.4696 42.3702 24.3108 42.3702 24.1342C42.3702 23.7603 42.0775 23.4582 41.7154 23.4582H39.7832V17.6739L39.7755 17.6842Z" fill="#589CE7" stroke="#589CE7" stroke-width="0.4"/>
</svg>
