<svg width="68" height="61" viewBox="0 0 68 61" fill="none" xmlns="http://www.w3.org/2000/svg">
<mask id="path-1-outside-1_467_3400" maskUnits="userSpaceOnUse" x="0" y="0" width="68" height="61" fill="black">
<rect fill="white" width="68" height="61"/>
<path d="M15.0858 18.1297C14.8001 17.7435 14.8858 17.2142 15.2572 16.9281C15.643 16.642 16.1716 16.7278 16.4573 17.0998L17.2002 18.1011L20.0718 15.2259C20.4147 14.8825 20.9576 14.8825 21.2862 15.2259C21.6291 15.5549 21.6291 16.0984 21.2862 16.4418L17.7145 20.0179C17.3431 20.3899 16.7288 20.347 16.4287 19.9178L15.0858 18.1297ZM18.2288 11.0489C21.8576 11.0489 24.8007 13.9956 24.8007 17.629C24.8007 21.2625 21.8576 24.2092 18.2288 24.2092C14.6001 24.2092 11.657 21.2625 11.657 17.629C11.657 13.9956 14.6001 11.0489 18.2288 11.0489ZM21.6576 14.1959C19.7575 12.2934 16.6859 12.2934 14.7858 14.1959C12.8857 16.0984 12.8857 19.174 14.7858 21.0765C16.6859 22.979 19.7575 22.979 21.6576 21.0765C23.5578 19.174 23.5578 16.0984 21.6576 14.1959ZM16.5859 6.04221H19.8575C20.329 6.04221 20.7147 6.42844 20.7147 6.90049V8.35958C21.5148 8.57415 22.2862 8.88885 23.0006 9.30369L24.0292 8.27375C24.3721 7.93043 24.915 7.93043 25.2436 8.27375L27.558 10.5911C27.9009 10.9201 27.9009 11.4637 27.558 11.807L26.5294 12.837C26.9437 13.5522 27.258 14.3247 27.4866 15.1257H28.9438C29.4153 15.1257 29.801 15.5119 29.801 15.984V19.2598C29.801 19.7318 29.4153 20.1181 28.9438 20.1181H27.4866C27.2723 20.9191 26.9437 21.6916 26.5294 22.4068L27.558 23.4368C27.9009 23.7801 27.9009 24.3237 27.558 24.6527L25.2436 26.97C24.915 27.2991 24.3721 27.2991 24.0292 26.97L23.0006 25.9401C22.2862 26.3549 21.5148 26.6696 20.7147 26.8842V28.3433C20.7147 28.8154 20.329 29.2016 19.8575 29.2016H16.5859C16.1144 29.2016 15.7287 28.8154 15.7287 28.3433V26.8842C14.9286 26.6696 14.1572 26.3549 13.4428 25.9401L12.4142 26.97C12.0856 27.2991 11.5427 27.2991 11.1998 26.97L8.88541 24.6527C8.55681 24.3094 8.55681 23.7658 8.88541 23.4368L9.91404 22.4068C9.49973 21.6916 9.18543 20.9191 8.97113 20.1181H7.51389C7.04243 20.1181 6.6567 19.7318 6.6567 19.2598V15.984C6.6567 15.5119 7.04243 15.1257 7.51389 15.1257H8.97113C9.18543 14.3247 9.49973 13.5522 9.91404 12.837L8.88541 11.807C8.55681 11.4637 8.55681 10.9201 8.88541 10.5911L11.1998 8.27375C11.5427 7.93043 12.0856 7.93043 12.4142 8.27375L13.4428 9.30369C14.1572 8.88885 14.9286 8.57415 15.7287 8.35958V6.90049C15.7287 6.42844 16.1144 6.04221 16.5859 6.04221ZM19.0003 7.75878H17.4431V8.98899C17.4717 9.40382 17.1716 9.79005 16.743 9.87588C15.7858 10.0475 14.6143 10.5053 13.8429 11.0632C13.5 11.3207 13.0142 11.3064 12.7142 10.9916L11.8142 10.0904L10.7141 11.1919L11.6142 12.0931C11.8999 12.3792 11.957 12.837 11.7142 13.1803C11.1713 13.967 10.6569 15.1257 10.4998 16.0698C10.4426 16.499 10.0855 16.828 9.6426 16.828H8.37109V18.3872H9.6426C10.0426 18.3872 10.3998 18.6733 10.4855 19.0881C10.6712 20.0466 11.1141 21.2195 11.6856 21.992C11.9427 22.3353 11.9142 22.8217 11.6142 23.1221L10.7141 24.0233L11.8142 25.1247L12.7142 24.2235C13 23.9374 13.4571 23.8802 13.8 24.1234C14.6 24.667 15.743 25.182 16.7002 25.3393C17.1288 25.3822 17.4574 25.7541 17.4574 26.1976V27.4707H19.0146V26.2262C19.0146 25.8257 19.3003 25.4681 19.7147 25.3822C20.6719 25.1963 21.8434 24.7528 22.6148 24.1806C22.9577 23.9231 23.4435 23.9517 23.7435 24.2521L24.6435 25.1533L25.7436 24.0519L24.8435 23.1507C24.5578 22.8646 24.5007 22.4068 24.7435 22.0635C25.2864 21.2768 25.8008 20.1181 25.9579 19.174C26.0008 18.7448 26.3722 18.4158 26.8151 18.4158H28.0866V16.8566H26.8151C26.4151 16.8566 26.0436 16.5705 25.9722 16.1557C25.8008 15.1972 25.3436 14.0243 24.7864 13.2518C24.5292 12.9085 24.5435 12.4221 24.8578 12.1217L25.7579 11.2205L24.6578 10.1191L23.7578 11.0203C23.472 11.3064 23.0149 11.3636 22.672 11.1204C21.8719 10.5768 20.729 10.0618 19.7861 9.90449C19.3575 9.86157 19.0289 9.48965 19.0289 9.0462V7.75878H19.0003ZM50.4309 11.8785C53.0024 11.8785 55.0883 13.967 55.0883 16.5419C55.0883 19.1167 53.0024 21.2052 50.4309 21.2052C47.8593 21.2052 45.7734 19.1167 45.7734 16.5419C45.7734 13.967 47.8593 11.8785 50.4309 11.8785ZM52.5167 14.4677C50.6737 12.6224 47.4878 13.9384 47.4878 16.5562C47.4878 19.174 50.6737 20.49 52.5167 18.6447C53.6739 17.486 53.6739 15.6121 52.5167 14.4677ZM50.4309 7.75878C55.274 7.75878 59.2028 11.6926 59.2028 16.5419C59.2028 21.3197 53.6311 29.3589 51.088 32.4058C50.7452 32.8207 50.1023 32.8064 49.7737 32.3915C47.2164 29.2731 41.6589 21.3769 41.6589 16.5419C41.6589 11.6926 45.5877 7.75878 50.4309 7.75878ZM55.4312 11.5495C52.6739 8.78872 48.2021 8.78872 45.4448 11.5495C44.1733 12.8227 43.3733 14.5964 43.3733 16.5562C43.3733 20.5472 48.2021 27.6424 50.4309 30.5033C52.6739 27.6424 57.4884 20.5615 57.4884 16.5562C57.5027 14.5964 56.7027 12.8227 55.4312 11.5495ZM8.05678 6.35691C7.69962 6.67162 7.15673 6.6287 6.85671 6.25678C6.5424 5.89916 6.59955 5.35558 6.95671 5.05518C14.8572 -1.71096 26.958 0.220178 32.3869 9.13203C32.9583 8.83163 33.6441 9.26078 33.6298 9.90449L33.587 11.6211C33.5727 12.2934 32.8155 12.6796 32.2726 12.322L30.7725 11.335C30.2153 10.9773 30.2725 10.162 30.8439 9.86157C25.8722 1.96536 15.0858 0.34892 8.05678 6.35691ZM48.745 1.63635C49.2165 1.59343 49.6308 1.95105 49.6594 2.42311C49.7022 2.89516 49.3451 3.31 48.8736 3.35292C41.1589 3.96802 35.187 10.2335 34.8585 18.0296C34.8299 22.6786 32.9298 26.8842 29.8724 29.9454C26.9008 32.9065 22.8577 34.7661 18.3717 34.8949C18.3431 35.5243 17.6574 35.9105 17.1002 35.5815L15.5715 34.6946C14.9858 34.3513 15.0144 33.493 15.6144 33.1926L17.2288 32.3772C17.8145 32.0911 18.486 32.5203 18.4717 33.1783C22.4577 33.0353 26.0579 31.3759 28.6866 28.7438C31.444 25.9973 33.1441 22.2066 33.1726 18.0296C33.1726 18.0153 33.1726 17.9867 33.1726 17.9724C33.4584 9.36091 40.1731 2.32297 48.745 1.63635ZM63.1174 30.4175C62.9459 31.0326 62.1887 31.2472 61.7173 30.8323C54.2311 37.9418 42.1732 36.7259 36.23 28.2575C35.9585 27.8712 36.0585 27.3277 36.4443 27.0559C36.83 26.7841 37.3586 26.8842 37.6301 27.2704C42.9447 34.8233 53.7025 35.982 60.4601 29.6736C59.9886 29.2302 60.16 28.4434 60.7744 28.2289L62.4602 27.6853C63.1459 27.4421 63.746 28.0572 63.5888 28.7152L63.1174 30.4175ZM53.9454 1.25012C54.5883 1.07846 55.174 1.67926 54.9883 2.30867C64.7032 5.25545 69.6892 16.1127 65.5175 25.4394C65.3318 25.8686 64.8175 26.0688 64.3889 25.8686C63.9603 25.6683 63.7603 25.1677 63.9603 24.7385C67.7177 16.3416 63.2031 6.58579 54.5311 3.93941C54.3883 4.56882 53.6168 4.82631 53.131 4.38286L51.8309 3.22417C51.2309 2.72351 51.5024 1.87953 52.131 1.72218L53.9454 1.25012ZM2.99933 9.96171C2.42786 9.647 2.41357 8.80302 2.98504 8.47401L4.61371 7.5299C5.19946 7.18659 5.92808 7.64434 5.89951 8.31666L5.7995 10.1191C5.75664 10.7771 5.02802 11.1347 4.48513 10.7914C0.213437 18.8163 3.92795 28.9012 12.4999 32.177C12.9428 32.3486 13.1571 32.835 13 33.2784C12.8285 33.7219 12.3428 33.9365 11.8999 33.7791C3.52793 30.5891 -0.943779 21.3483 1.81354 12.7511C2.12784 11.7784 2.52787 10.8486 2.99933 9.96171ZM9.79975 40.1447C11.6284 40.159 13.4857 40.159 15.3144 40.1876C16.3287 40.2019 17.1574 40.9601 17.3717 41.9185C19.5146 40.0017 21.4576 38.0705 24.1435 37.2695C25.1007 36.9834 26.0579 36.311 27.1294 35.5386C28.1723 34.7947 29.3295 33.9651 30.8011 33.2784C33.7584 31.8623 36.03 32.0053 37.4443 32.8922C38.6444 33.6504 39.2587 34.9664 39.1159 36.3683C38.9444 37.9847 37.7872 39.7299 35.4728 40.7884C33.4298 41.8613 31.5725 42.8912 30.2439 43.7209C29.6581 44.0928 29.1867 44.3789 28.8724 44.5792C29.801 44.665 31.9154 44.8081 34.4299 45.0655C36.2871 45.2515 38.3301 45.4375 40.2302 45.5519C40.4588 45.5376 41.3446 45.323 41.516 45.2086L52.1595 38.5712C54.2454 37.2695 57.0598 36.9834 58.5314 38.3423C59.0028 38.7715 59.2743 39.3293 59.3028 39.9588C61.4601 39.1291 64.1031 39.315 65.2604 40.8456C65.589 41.2891 65.7604 41.8041 65.7175 42.3619C65.6461 43.2345 65.0746 44.1643 63.8174 44.994C62.9174 45.5948 61.6601 46.4531 60.2172 47.4401C54.2597 51.5313 44.9734 57.9112 41.5446 58.8553C40.5017 59.1414 21.4433 58.7552 16.9716 58.7552C16.6287 59.5276 15.843 60.014 14.9858 59.9997C13.1428 59.9854 11.2998 59.9854 9.45687 59.9568C8.27108 59.9425 7.32817 58.8982 7.35674 57.7538C7.45675 52.5755 7.52818 47.3829 7.6139 42.2046C7.64247 41.0316 8.62825 40.1447 9.79975 40.1447ZM17.4002 44.1786C17.3288 48.4701 17.2574 52.7758 17.1859 57.0815C21.6576 57.0815 40.0445 57.4248 41.1874 57.2103C44.3876 56.2805 53.4453 50.0579 59.2743 46.0526C60.7172 45.0655 61.9602 44.2073 62.8888 43.5922C64.0317 42.834 64.5317 42.0043 63.3317 41.4608C62.4316 41.0459 61.0172 41.0459 59.5314 41.7325L48.1736 47.0396C46.2592 47.9265 36.63 46.9967 34.2727 46.7535C31.5297 46.4674 29.0867 46.0812 27.8009 45.695C27.4151 45.7951 27.0008 45.5948 26.8294 45.2229C26.4008 44.3217 27.7294 43.2631 29.3581 42.2475C30.7582 41.3749 32.644 40.3307 34.687 39.2435C34.7156 39.2292 34.7299 39.2149 34.7585 39.2006C36.4586 38.4281 37.3158 37.2409 37.4158 36.1537C37.4872 35.3955 37.1872 34.7089 36.53 34.2941C35.5585 33.679 33.8727 33.6504 31.5297 34.7661C28.8295 36.0536 26.8151 38.2136 24.6292 38.8716C22.1862 39.6011 20.3147 41.5609 18.2431 43.3919C17.9574 43.6923 17.6717 43.9498 17.4002 44.1786ZM15.3001 41.9042L9.79975 41.8613C9.55688 41.8613 9.34258 42.0186 9.34258 42.2618L9.08542 57.7968C9.08542 58.0256 9.27115 58.2831 9.51402 58.2831L15.0144 58.326C15.2572 58.326 15.4715 58.1687 15.4858 57.9255L15.743 42.3906C15.7287 42.1617 15.543 41.9042 15.3001 41.9042ZM43.9733 45.7093C45.0019 45.7236 46.9592 45.7236 47.445 45.4947L57.1599 40.9458C57.5027 40.5452 57.6313 40.2162 57.6027 39.9588C57.5599 39.5868 57.0741 39.3437 56.7027 39.2578C55.7741 39.0146 54.4168 39.2006 53.0882 40.0303L43.9733 45.7093Z"/>
</mask>
<path d="M15.0858 18.1297C14.8001 17.7435 14.8858 17.2142 15.2572 16.9281C15.643 16.642 16.1716 16.7278 16.4573 17.0998L17.2002 18.1011L20.0718 15.2259C20.4147 14.8825 20.9576 14.8825 21.2862 15.2259C21.6291 15.5549 21.6291 16.0984 21.2862 16.4418L17.7145 20.0179C17.3431 20.3899 16.7288 20.347 16.4287 19.9178L15.0858 18.1297ZM18.2288 11.0489C21.8576 11.0489 24.8007 13.9956 24.8007 17.629C24.8007 21.2625 21.8576 24.2092 18.2288 24.2092C14.6001 24.2092 11.657 21.2625 11.657 17.629C11.657 13.9956 14.6001 11.0489 18.2288 11.0489ZM21.6576 14.1959C19.7575 12.2934 16.6859 12.2934 14.7858 14.1959C12.8857 16.0984 12.8857 19.174 14.7858 21.0765C16.6859 22.979 19.7575 22.979 21.6576 21.0765C23.5578 19.174 23.5578 16.0984 21.6576 14.1959ZM16.5859 6.04221H19.8575C20.329 6.04221 20.7147 6.42844 20.7147 6.90049V8.35958C21.5148 8.57415 22.2862 8.88885 23.0006 9.30369L24.0292 8.27375C24.3721 7.93043 24.915 7.93043 25.2436 8.27375L27.558 10.5911C27.9009 10.9201 27.9009 11.4637 27.558 11.807L26.5294 12.837C26.9437 13.5522 27.258 14.3247 27.4866 15.1257H28.9438C29.4153 15.1257 29.801 15.5119 29.801 15.984V19.2598C29.801 19.7318 29.4153 20.1181 28.9438 20.1181H27.4866C27.2723 20.9191 26.9437 21.6916 26.5294 22.4068L27.558 23.4368C27.9009 23.7801 27.9009 24.3237 27.558 24.6527L25.2436 26.97C24.915 27.2991 24.3721 27.2991 24.0292 26.97L23.0006 25.9401C22.2862 26.3549 21.5148 26.6696 20.7147 26.8842V28.3433C20.7147 28.8154 20.329 29.2016 19.8575 29.2016H16.5859C16.1144 29.2016 15.7287 28.8154 15.7287 28.3433V26.8842C14.9286 26.6696 14.1572 26.3549 13.4428 25.9401L12.4142 26.97C12.0856 27.2991 11.5427 27.2991 11.1998 26.97L8.88541 24.6527C8.55681 24.3094 8.55681 23.7658 8.88541 23.4368L9.91404 22.4068C9.49973 21.6916 9.18543 20.9191 8.97113 20.1181H7.51389C7.04243 20.1181 6.6567 19.7318 6.6567 19.2598V15.984C6.6567 15.5119 7.04243 15.1257 7.51389 15.1257H8.97113C9.18543 14.3247 9.49973 13.5522 9.91404 12.837L8.88541 11.807C8.55681 11.4637 8.55681 10.9201 8.88541 10.5911L11.1998 8.27375C11.5427 7.93043 12.0856 7.93043 12.4142 8.27375L13.4428 9.30369C14.1572 8.88885 14.9286 8.57415 15.7287 8.35958V6.90049C15.7287 6.42844 16.1144 6.04221 16.5859 6.04221ZM19.0003 7.75878H17.4431V8.98899C17.4717 9.40382 17.1716 9.79005 16.743 9.87588C15.7858 10.0475 14.6143 10.5053 13.8429 11.0632C13.5 11.3207 13.0142 11.3064 12.7142 10.9916L11.8142 10.0904L10.7141 11.1919L11.6142 12.0931C11.8999 12.3792 11.957 12.837 11.7142 13.1803C11.1713 13.967 10.6569 15.1257 10.4998 16.0698C10.4426 16.499 10.0855 16.828 9.6426 16.828H8.37109V18.3872H9.6426C10.0426 18.3872 10.3998 18.6733 10.4855 19.0881C10.6712 20.0466 11.1141 21.2195 11.6856 21.992C11.9427 22.3353 11.9142 22.8217 11.6142 23.1221L10.7141 24.0233L11.8142 25.1247L12.7142 24.2235C13 23.9374 13.4571 23.8802 13.8 24.1234C14.6 24.667 15.743 25.182 16.7002 25.3393C17.1288 25.3822 17.4574 25.7541 17.4574 26.1976V27.4707H19.0146V26.2262C19.0146 25.8257 19.3003 25.4681 19.7147 25.3822C20.6719 25.1963 21.8434 24.7528 22.6148 24.1806C22.9577 23.9231 23.4435 23.9517 23.7435 24.2521L24.6435 25.1533L25.7436 24.0519L24.8435 23.1507C24.5578 22.8646 24.5007 22.4068 24.7435 22.0635C25.2864 21.2768 25.8008 20.1181 25.9579 19.174C26.0008 18.7448 26.3722 18.4158 26.8151 18.4158H28.0866V16.8566H26.8151C26.4151 16.8566 26.0436 16.5705 25.9722 16.1557C25.8008 15.1972 25.3436 14.0243 24.7864 13.2518C24.5292 12.9085 24.5435 12.4221 24.8578 12.1217L25.7579 11.2205L24.6578 10.1191L23.7578 11.0203C23.472 11.3064 23.0149 11.3636 22.672 11.1204C21.8719 10.5768 20.729 10.0618 19.7861 9.90449C19.3575 9.86157 19.0289 9.48965 19.0289 9.0462V7.75878H19.0003ZM50.4309 11.8785C53.0024 11.8785 55.0883 13.967 55.0883 16.5419C55.0883 19.1167 53.0024 21.2052 50.4309 21.2052C47.8593 21.2052 45.7734 19.1167 45.7734 16.5419C45.7734 13.967 47.8593 11.8785 50.4309 11.8785ZM52.5167 14.4677C50.6737 12.6224 47.4878 13.9384 47.4878 16.5562C47.4878 19.174 50.6737 20.49 52.5167 18.6447C53.6739 17.486 53.6739 15.6121 52.5167 14.4677ZM50.4309 7.75878C55.274 7.75878 59.2028 11.6926 59.2028 16.5419C59.2028 21.3197 53.6311 29.3589 51.088 32.4058C50.7452 32.8207 50.1023 32.8064 49.7737 32.3915C47.2164 29.2731 41.6589 21.3769 41.6589 16.5419C41.6589 11.6926 45.5877 7.75878 50.4309 7.75878ZM55.4312 11.5495C52.6739 8.78872 48.2021 8.78872 45.4448 11.5495C44.1733 12.8227 43.3733 14.5964 43.3733 16.5562C43.3733 20.5472 48.2021 27.6424 50.4309 30.5033C52.6739 27.6424 57.4884 20.5615 57.4884 16.5562C57.5027 14.5964 56.7027 12.8227 55.4312 11.5495ZM8.05678 6.35691C7.69962 6.67162 7.15673 6.6287 6.85671 6.25678C6.5424 5.89916 6.59955 5.35558 6.95671 5.05518C14.8572 -1.71096 26.958 0.220178 32.3869 9.13203C32.9583 8.83163 33.6441 9.26078 33.6298 9.90449L33.587 11.6211C33.5727 12.2934 32.8155 12.6796 32.2726 12.322L30.7725 11.335C30.2153 10.9773 30.2725 10.162 30.8439 9.86157C25.8722 1.96536 15.0858 0.34892 8.05678 6.35691ZM48.745 1.63635C49.2165 1.59343 49.6308 1.95105 49.6594 2.42311C49.7022 2.89516 49.3451 3.31 48.8736 3.35292C41.1589 3.96802 35.187 10.2335 34.8585 18.0296C34.8299 22.6786 32.9298 26.8842 29.8724 29.9454C26.9008 32.9065 22.8577 34.7661 18.3717 34.8949C18.3431 35.5243 17.6574 35.9105 17.1002 35.5815L15.5715 34.6946C14.9858 34.3513 15.0144 33.493 15.6144 33.1926L17.2288 32.3772C17.8145 32.0911 18.486 32.5203 18.4717 33.1783C22.4577 33.0353 26.0579 31.3759 28.6866 28.7438C31.444 25.9973 33.1441 22.2066 33.1726 18.0296C33.1726 18.0153 33.1726 17.9867 33.1726 17.9724C33.4584 9.36091 40.1731 2.32297 48.745 1.63635ZM63.1174 30.4175C62.9459 31.0326 62.1887 31.2472 61.7173 30.8323C54.2311 37.9418 42.1732 36.7259 36.23 28.2575C35.9585 27.8712 36.0585 27.3277 36.4443 27.0559C36.83 26.7841 37.3586 26.8842 37.6301 27.2704C42.9447 34.8233 53.7025 35.982 60.4601 29.6736C59.9886 29.2302 60.16 28.4434 60.7744 28.2289L62.4602 27.6853C63.1459 27.4421 63.746 28.0572 63.5888 28.7152L63.1174 30.4175ZM53.9454 1.25012C54.5883 1.07846 55.174 1.67926 54.9883 2.30867C64.7032 5.25545 69.6892 16.1127 65.5175 25.4394C65.3318 25.8686 64.8175 26.0688 64.3889 25.8686C63.9603 25.6683 63.7603 25.1677 63.9603 24.7385C67.7177 16.3416 63.2031 6.58579 54.5311 3.93941C54.3883 4.56882 53.6168 4.82631 53.131 4.38286L51.8309 3.22417C51.2309 2.72351 51.5024 1.87953 52.131 1.72218L53.9454 1.25012ZM2.99933 9.96171C2.42786 9.647 2.41357 8.80302 2.98504 8.47401L4.61371 7.5299C5.19946 7.18659 5.92808 7.64434 5.89951 8.31666L5.7995 10.1191C5.75664 10.7771 5.02802 11.1347 4.48513 10.7914C0.213437 18.8163 3.92795 28.9012 12.4999 32.177C12.9428 32.3486 13.1571 32.835 13 33.2784C12.8285 33.7219 12.3428 33.9365 11.8999 33.7791C3.52793 30.5891 -0.943779 21.3483 1.81354 12.7511C2.12784 11.7784 2.52787 10.8486 2.99933 9.96171ZM9.79975 40.1447C11.6284 40.159 13.4857 40.159 15.3144 40.1876C16.3287 40.2019 17.1574 40.9601 17.3717 41.9185C19.5146 40.0017 21.4576 38.0705 24.1435 37.2695C25.1007 36.9834 26.0579 36.311 27.1294 35.5386C28.1723 34.7947 29.3295 33.9651 30.8011 33.2784C33.7584 31.8623 36.03 32.0053 37.4443 32.8922C38.6444 33.6504 39.2587 34.9664 39.1159 36.3683C38.9444 37.9847 37.7872 39.7299 35.4728 40.7884C33.4298 41.8613 31.5725 42.8912 30.2439 43.7209C29.6581 44.0928 29.1867 44.3789 28.8724 44.5792C29.801 44.665 31.9154 44.8081 34.4299 45.0655C36.2871 45.2515 38.3301 45.4375 40.2302 45.5519C40.4588 45.5376 41.3446 45.323 41.516 45.2086L52.1595 38.5712C54.2454 37.2695 57.0598 36.9834 58.5314 38.3423C59.0028 38.7715 59.2743 39.3293 59.3028 39.9588C61.4601 39.1291 64.1031 39.315 65.2604 40.8456C65.589 41.2891 65.7604 41.8041 65.7175 42.3619C65.6461 43.2345 65.0746 44.1643 63.8174 44.994C62.9174 45.5948 61.6601 46.4531 60.2172 47.4401C54.2597 51.5313 44.9734 57.9112 41.5446 58.8553C40.5017 59.1414 21.4433 58.7552 16.9716 58.7552C16.6287 59.5276 15.843 60.014 14.9858 59.9997C13.1428 59.9854 11.2998 59.9854 9.45687 59.9568C8.27108 59.9425 7.32817 58.8982 7.35674 57.7538C7.45675 52.5755 7.52818 47.3829 7.6139 42.2046C7.64247 41.0316 8.62825 40.1447 9.79975 40.1447ZM17.4002 44.1786C17.3288 48.4701 17.2574 52.7758 17.1859 57.0815C21.6576 57.0815 40.0445 57.4248 41.1874 57.2103C44.3876 56.2805 53.4453 50.0579 59.2743 46.0526C60.7172 45.0655 61.9602 44.2073 62.8888 43.5922C64.0317 42.834 64.5317 42.0043 63.3317 41.4608C62.4316 41.0459 61.0172 41.0459 59.5314 41.7325L48.1736 47.0396C46.2592 47.9265 36.63 46.9967 34.2727 46.7535C31.5297 46.4674 29.0867 46.0812 27.8009 45.695C27.4151 45.7951 27.0008 45.5948 26.8294 45.2229C26.4008 44.3217 27.7294 43.2631 29.3581 42.2475C30.7582 41.3749 32.644 40.3307 34.687 39.2435C34.7156 39.2292 34.7299 39.2149 34.7585 39.2006C36.4586 38.4281 37.3158 37.2409 37.4158 36.1537C37.4872 35.3955 37.1872 34.7089 36.53 34.2941C35.5585 33.679 33.8727 33.6504 31.5297 34.7661C28.8295 36.0536 26.8151 38.2136 24.6292 38.8716C22.1862 39.6011 20.3147 41.5609 18.2431 43.3919C17.9574 43.6923 17.6717 43.9498 17.4002 44.1786ZM15.3001 41.9042L9.79975 41.8613C9.55688 41.8613 9.34258 42.0186 9.34258 42.2618L9.08542 57.7968C9.08542 58.0256 9.27115 58.2831 9.51402 58.2831L15.0144 58.326C15.2572 58.326 15.4715 58.1687 15.4858 57.9255L15.743 42.3906C15.7287 42.1617 15.543 41.9042 15.3001 41.9042ZM43.9733 45.7093C45.0019 45.7236 46.9592 45.7236 47.445 45.4947L57.1599 40.9458C57.5027 40.5452 57.6313 40.2162 57.6027 39.9588C57.5599 39.5868 57.0741 39.3437 56.7027 39.2578C55.7741 39.0146 54.4168 39.2006 53.0882 40.0303L43.9733 45.7093Z" fill="#589CE7"/>
<path d="M15.0858 18.1297C14.8001 17.7435 14.8858 17.2142 15.2572 16.9281C15.643 16.642 16.1716 16.7278 16.4573 17.0998L17.2002 18.1011L20.0718 15.2259C20.4147 14.8825 20.9576 14.8825 21.2862 15.2259C21.6291 15.5549 21.6291 16.0984 21.2862 16.4418L17.7145 20.0179C17.3431 20.3899 16.7288 20.347 16.4287 19.9178L15.0858 18.1297ZM18.2288 11.0489C21.8576 11.0489 24.8007 13.9956 24.8007 17.629C24.8007 21.2625 21.8576 24.2092 18.2288 24.2092C14.6001 24.2092 11.657 21.2625 11.657 17.629C11.657 13.9956 14.6001 11.0489 18.2288 11.0489ZM21.6576 14.1959C19.7575 12.2934 16.6859 12.2934 14.7858 14.1959C12.8857 16.0984 12.8857 19.174 14.7858 21.0765C16.6859 22.979 19.7575 22.979 21.6576 21.0765C23.5578 19.174 23.5578 16.0984 21.6576 14.1959ZM16.5859 6.04221H19.8575C20.329 6.04221 20.7147 6.42844 20.7147 6.90049V8.35958C21.5148 8.57415 22.2862 8.88885 23.0006 9.30369L24.0292 8.27375C24.3721 7.93043 24.915 7.93043 25.2436 8.27375L27.558 10.5911C27.9009 10.9201 27.9009 11.4637 27.558 11.807L26.5294 12.837C26.9437 13.5522 27.258 14.3247 27.4866 15.1257H28.9438C29.4153 15.1257 29.801 15.5119 29.801 15.984V19.2598C29.801 19.7318 29.4153 20.1181 28.9438 20.1181H27.4866C27.2723 20.9191 26.9437 21.6916 26.5294 22.4068L27.558 23.4368C27.9009 23.7801 27.9009 24.3237 27.558 24.6527L25.2436 26.97C24.915 27.2991 24.3721 27.2991 24.0292 26.97L23.0006 25.9401C22.2862 26.3549 21.5148 26.6696 20.7147 26.8842V28.3433C20.7147 28.8154 20.329 29.2016 19.8575 29.2016H16.5859C16.1144 29.2016 15.7287 28.8154 15.7287 28.3433V26.8842C14.9286 26.6696 14.1572 26.3549 13.4428 25.9401L12.4142 26.97C12.0856 27.2991 11.5427 27.2991 11.1998 26.97L8.88541 24.6527C8.55681 24.3094 8.55681 23.7658 8.88541 23.4368L9.91404 22.4068C9.49973 21.6916 9.18543 20.9191 8.97113 20.1181H7.51389C7.04243 20.1181 6.6567 19.7318 6.6567 19.2598V15.984C6.6567 15.5119 7.04243 15.1257 7.51389 15.1257H8.97113C9.18543 14.3247 9.49973 13.5522 9.91404 12.837L8.88541 11.807C8.55681 11.4637 8.55681 10.9201 8.88541 10.5911L11.1998 8.27375C11.5427 7.93043 12.0856 7.93043 12.4142 8.27375L13.4428 9.30369C14.1572 8.88885 14.9286 8.57415 15.7287 8.35958V6.90049C15.7287 6.42844 16.1144 6.04221 16.5859 6.04221ZM19.0003 7.75878H17.4431V8.98899C17.4717 9.40382 17.1716 9.79005 16.743 9.87588C15.7858 10.0475 14.6143 10.5053 13.8429 11.0632C13.5 11.3207 13.0142 11.3064 12.7142 10.9916L11.8142 10.0904L10.7141 11.1919L11.6142 12.0931C11.8999 12.3792 11.957 12.837 11.7142 13.1803C11.1713 13.967 10.6569 15.1257 10.4998 16.0698C10.4426 16.499 10.0855 16.828 9.6426 16.828H8.37109V18.3872H9.6426C10.0426 18.3872 10.3998 18.6733 10.4855 19.0881C10.6712 20.0466 11.1141 21.2195 11.6856 21.992C11.9427 22.3353 11.9142 22.8217 11.6142 23.1221L10.7141 24.0233L11.8142 25.1247L12.7142 24.2235C13 23.9374 13.4571 23.8802 13.8 24.1234C14.6 24.667 15.743 25.182 16.7002 25.3393C17.1288 25.3822 17.4574 25.7541 17.4574 26.1976V27.4707H19.0146V26.2262C19.0146 25.8257 19.3003 25.4681 19.7147 25.3822C20.6719 25.1963 21.8434 24.7528 22.6148 24.1806C22.9577 23.9231 23.4435 23.9517 23.7435 24.2521L24.6435 25.1533L25.7436 24.0519L24.8435 23.1507C24.5578 22.8646 24.5007 22.4068 24.7435 22.0635C25.2864 21.2768 25.8008 20.1181 25.9579 19.174C26.0008 18.7448 26.3722 18.4158 26.8151 18.4158H28.0866V16.8566H26.8151C26.4151 16.8566 26.0436 16.5705 25.9722 16.1557C25.8008 15.1972 25.3436 14.0243 24.7864 13.2518C24.5292 12.9085 24.5435 12.4221 24.8578 12.1217L25.7579 11.2205L24.6578 10.1191L23.7578 11.0203C23.472 11.3064 23.0149 11.3636 22.672 11.1204C21.8719 10.5768 20.729 10.0618 19.7861 9.90449C19.3575 9.86157 19.0289 9.48965 19.0289 9.0462V7.75878H19.0003ZM50.4309 11.8785C53.0024 11.8785 55.0883 13.967 55.0883 16.5419C55.0883 19.1167 53.0024 21.2052 50.4309 21.2052C47.8593 21.2052 45.7734 19.1167 45.7734 16.5419C45.7734 13.967 47.8593 11.8785 50.4309 11.8785ZM52.5167 14.4677C50.6737 12.6224 47.4878 13.9384 47.4878 16.5562C47.4878 19.174 50.6737 20.49 52.5167 18.6447C53.6739 17.486 53.6739 15.6121 52.5167 14.4677ZM50.4309 7.75878C55.274 7.75878 59.2028 11.6926 59.2028 16.5419C59.2028 21.3197 53.6311 29.3589 51.088 32.4058C50.7452 32.8207 50.1023 32.8064 49.7737 32.3915C47.2164 29.2731 41.6589 21.3769 41.6589 16.5419C41.6589 11.6926 45.5877 7.75878 50.4309 7.75878ZM55.4312 11.5495C52.6739 8.78872 48.2021 8.78872 45.4448 11.5495C44.1733 12.8227 43.3733 14.5964 43.3733 16.5562C43.3733 20.5472 48.2021 27.6424 50.4309 30.5033C52.6739 27.6424 57.4884 20.5615 57.4884 16.5562C57.5027 14.5964 56.7027 12.8227 55.4312 11.5495ZM8.05678 6.35691C7.69962 6.67162 7.15673 6.6287 6.85671 6.25678C6.5424 5.89916 6.59955 5.35558 6.95671 5.05518C14.8572 -1.71096 26.958 0.220178 32.3869 9.13203C32.9583 8.83163 33.6441 9.26078 33.6298 9.90449L33.587 11.6211C33.5727 12.2934 32.8155 12.6796 32.2726 12.322L30.7725 11.335C30.2153 10.9773 30.2725 10.162 30.8439 9.86157C25.8722 1.96536 15.0858 0.34892 8.05678 6.35691ZM48.745 1.63635C49.2165 1.59343 49.6308 1.95105 49.6594 2.42311C49.7022 2.89516 49.3451 3.31 48.8736 3.35292C41.1589 3.96802 35.187 10.2335 34.8585 18.0296C34.8299 22.6786 32.9298 26.8842 29.8724 29.9454C26.9008 32.9065 22.8577 34.7661 18.3717 34.8949C18.3431 35.5243 17.6574 35.9105 17.1002 35.5815L15.5715 34.6946C14.9858 34.3513 15.0144 33.493 15.6144 33.1926L17.2288 32.3772C17.8145 32.0911 18.486 32.5203 18.4717 33.1783C22.4577 33.0353 26.0579 31.3759 28.6866 28.7438C31.444 25.9973 33.1441 22.2066 33.1726 18.0296C33.1726 18.0153 33.1726 17.9867 33.1726 17.9724C33.4584 9.36091 40.1731 2.32297 48.745 1.63635ZM63.1174 30.4175C62.9459 31.0326 62.1887 31.2472 61.7173 30.8323C54.2311 37.9418 42.1732 36.7259 36.23 28.2575C35.9585 27.8712 36.0585 27.3277 36.4443 27.0559C36.83 26.7841 37.3586 26.8842 37.6301 27.2704C42.9447 34.8233 53.7025 35.982 60.4601 29.6736C59.9886 29.2302 60.16 28.4434 60.7744 28.2289L62.4602 27.6853C63.1459 27.4421 63.746 28.0572 63.5888 28.7152L63.1174 30.4175ZM53.9454 1.25012C54.5883 1.07846 55.174 1.67926 54.9883 2.30867C64.7032 5.25545 69.6892 16.1127 65.5175 25.4394C65.3318 25.8686 64.8175 26.0688 64.3889 25.8686C63.9603 25.6683 63.7603 25.1677 63.9603 24.7385C67.7177 16.3416 63.2031 6.58579 54.5311 3.93941C54.3883 4.56882 53.6168 4.82631 53.131 4.38286L51.8309 3.22417C51.2309 2.72351 51.5024 1.87953 52.131 1.72218L53.9454 1.25012ZM2.99933 9.96171C2.42786 9.647 2.41357 8.80302 2.98504 8.47401L4.61371 7.5299C5.19946 7.18659 5.92808 7.64434 5.89951 8.31666L5.7995 10.1191C5.75664 10.7771 5.02802 11.1347 4.48513 10.7914C0.213437 18.8163 3.92795 28.9012 12.4999 32.177C12.9428 32.3486 13.1571 32.835 13 33.2784C12.8285 33.7219 12.3428 33.9365 11.8999 33.7791C3.52793 30.5891 -0.943779 21.3483 1.81354 12.7511C2.12784 11.7784 2.52787 10.8486 2.99933 9.96171ZM9.79975 40.1447C11.6284 40.159 13.4857 40.159 15.3144 40.1876C16.3287 40.2019 17.1574 40.9601 17.3717 41.9185C19.5146 40.0017 21.4576 38.0705 24.1435 37.2695C25.1007 36.9834 26.0579 36.311 27.1294 35.5386C28.1723 34.7947 29.3295 33.9651 30.8011 33.2784C33.7584 31.8623 36.03 32.0053 37.4443 32.8922C38.6444 33.6504 39.2587 34.9664 39.1159 36.3683C38.9444 37.9847 37.7872 39.7299 35.4728 40.7884C33.4298 41.8613 31.5725 42.8912 30.2439 43.7209C29.6581 44.0928 29.1867 44.3789 28.8724 44.5792C29.801 44.665 31.9154 44.8081 34.4299 45.0655C36.2871 45.2515 38.3301 45.4375 40.2302 45.5519C40.4588 45.5376 41.3446 45.323 41.516 45.2086L52.1595 38.5712C54.2454 37.2695 57.0598 36.9834 58.5314 38.3423C59.0028 38.7715 59.2743 39.3293 59.3028 39.9588C61.4601 39.1291 64.1031 39.315 65.2604 40.8456C65.589 41.2891 65.7604 41.8041 65.7175 42.3619C65.6461 43.2345 65.0746 44.1643 63.8174 44.994C62.9174 45.5948 61.6601 46.4531 60.2172 47.4401C54.2597 51.5313 44.9734 57.9112 41.5446 58.8553C40.5017 59.1414 21.4433 58.7552 16.9716 58.7552C16.6287 59.5276 15.843 60.014 14.9858 59.9997C13.1428 59.9854 11.2998 59.9854 9.45687 59.9568C8.27108 59.9425 7.32817 58.8982 7.35674 57.7538C7.45675 52.5755 7.52818 47.3829 7.6139 42.2046C7.64247 41.0316 8.62825 40.1447 9.79975 40.1447ZM17.4002 44.1786C17.3288 48.4701 17.2574 52.7758 17.1859 57.0815C21.6576 57.0815 40.0445 57.4248 41.1874 57.2103C44.3876 56.2805 53.4453 50.0579 59.2743 46.0526C60.7172 45.0655 61.9602 44.2073 62.8888 43.5922C64.0317 42.834 64.5317 42.0043 63.3317 41.4608C62.4316 41.0459 61.0172 41.0459 59.5314 41.7325L48.1736 47.0396C46.2592 47.9265 36.63 46.9967 34.2727 46.7535C31.5297 46.4674 29.0867 46.0812 27.8009 45.695C27.4151 45.7951 27.0008 45.5948 26.8294 45.2229C26.4008 44.3217 27.7294 43.2631 29.3581 42.2475C30.7582 41.3749 32.644 40.3307 34.687 39.2435C34.7156 39.2292 34.7299 39.2149 34.7585 39.2006C36.4586 38.4281 37.3158 37.2409 37.4158 36.1537C37.4872 35.3955 37.1872 34.7089 36.53 34.2941C35.5585 33.679 33.8727 33.6504 31.5297 34.7661C28.8295 36.0536 26.8151 38.2136 24.6292 38.8716C22.1862 39.6011 20.3147 41.5609 18.2431 43.3919C17.9574 43.6923 17.6717 43.9498 17.4002 44.1786ZM15.3001 41.9042L9.79975 41.8613C9.55688 41.8613 9.34258 42.0186 9.34258 42.2618L9.08542 57.7968C9.08542 58.0256 9.27115 58.2831 9.51402 58.2831L15.0144 58.326C15.2572 58.326 15.4715 58.1687 15.4858 57.9255L15.743 42.3906C15.7287 42.1617 15.543 41.9042 15.3001 41.9042ZM43.9733 45.7093C45.0019 45.7236 46.9592 45.7236 47.445 45.4947L57.1599 40.9458C57.5027 40.5452 57.6313 40.2162 57.6027 39.9588C57.5599 39.5868 57.0741 39.3437 56.7027 39.2578C55.7741 39.0146 54.4168 39.2006 53.0882 40.0303L43.9733 45.7093Z" stroke="#589CE7" stroke-width="0.2" mask="url(#path-1-outside-1_467_3400)"/>
</svg>
