<svg width="59" height="59" viewBox="0 0 59 59" fill="none" xmlns="http://www.w3.org/2000/svg">
<path d="M18.0793 39.9678C14.406 39.9678 11.418 42.9558 11.418 46.6291C11.418 50.3023 14.406 53.2904 18.0793 53.2904C21.7525 53.2904 24.7405 50.3023 24.7405 46.6291C24.7405 42.9558 21.7525 39.9678 18.0793 39.9678ZM18.0793 51.3871C15.4557 51.3871 13.3212 49.2527 13.3212 46.6291C13.3212 44.0055 15.4557 41.871 18.0793 41.871C20.7029 41.871 22.8373 44.0055 22.8373 46.6291C22.8373 49.2527 20.7029 51.3871 18.0793 51.3871Z" fill="#589CE7"/>
<path d="M18.0814 43.7744C16.5074 43.7744 15.2266 45.0553 15.2266 46.6293C15.2266 48.2032 16.5074 49.4841 18.0814 49.4841C19.6554 49.4841 20.9362 48.2032 20.9362 46.6293C20.9362 45.0553 19.6554 43.7744 18.0814 43.7744ZM18.0814 47.5809C17.5571 47.5809 17.1298 47.1536 17.1298 46.6293C17.1298 46.1049 17.5571 45.6776 18.0814 45.6776C18.6057 45.6776 19.033 46.1049 19.033 46.6293C19.033 47.1536 18.6057 47.5809 18.0814 47.5809Z" fill="#589CE7"/>
<path d="M59 4.53348L56.7333 0H28.9119L26.6452 4.53348V24.1691C24.5973 21.0687 21.0887 19.0323 17.129 19.0323C11.4593 19.0323 6.75455 23.089 5.86479 28.596C2.56555 28.9909 0 31.8067 0 35.2097C0 38.8829 2.98806 41.871 6.66129 41.871H8.5255C8.56452 42.0641 8.56737 42.2592 8.49124 42.4372C8.43795 42.5599 8.38656 42.6846 8.33803 42.8083C8.23526 43.0748 8.00973 43.2813 7.72139 43.3755C6.51855 43.7713 5.70968 44.8885 5.70968 46.1551V47.1029C5.70968 48.3695 6.51855 49.4867 7.72329 49.8826C8.01068 49.9768 8.23526 50.1833 8.33803 50.4479C8.38656 50.5735 8.437 50.6981 8.49124 50.8218C8.60353 51.0816 8.59021 51.3842 8.45508 51.6526C7.88316 52.7831 8.10108 54.1458 8.9975 55.0413L9.66744 55.7122C10.5639 56.6076 11.9256 56.8265 13.0561 56.2546C13.3245 56.1176 13.6261 56.1052 13.8878 56.2184C14.0106 56.2717 14.1353 56.3231 14.259 56.3716C14.5254 56.4744 14.7319 56.7 14.8261 56.9883C15.223 58.1911 16.3401 59 17.6067 59H18.5545C19.8211 59 20.9383 58.1911 21.3342 56.9864C21.4284 56.699 21.6349 56.4744 21.8995 56.3716C22.0251 56.3231 22.1497 56.2727 22.2735 56.2184C22.5332 56.1052 22.8368 56.1195 23.1042 56.2546C24.2347 56.8265 25.5965 56.6076 26.4929 55.7122L27.1638 55.0422C28.0602 54.1468 28.2781 52.7841 27.7062 51.6535C27.5701 51.3852 27.5578 51.0826 27.67 50.8218C27.7233 50.6991 27.7747 50.5744 27.8233 50.4507C27.926 50.1843 28.1516 49.9778 28.4399 49.8835C28.7254 49.7893 28.9871 49.6523 29.2221 49.4848H59V4.53348ZM36.0852 34.2581C35.6208 31.035 32.8487 28.5484 29.5 28.5484C29.1812 28.5484 28.8643 28.5836 28.5484 28.6302V28.5484H29.5H57.0968V34.2581H36.0852ZM28.5484 26.6452V20.9355H57.0968V26.6452H28.5484ZM28.5484 19.0323V13.3226H57.0968V19.0323H28.5484ZM28.5484 11.4194V5.70968H57.0968V11.4194H28.5484ZM55.5571 1.90323L56.5087 3.80645H29.1365L30.0881 1.90323H55.5571ZM1.90323 35.2097C1.90323 32.5861 4.03769 30.4516 6.61371 30.4507L7.5796 30.4545L7.65763 29.5885C8.10108 24.6553 12.173 20.9355 17.129 20.9355C22.1593 20.9355 26.3264 24.8723 26.6157 29.8978L26.6889 31.1701L27.8889 30.738C28.4161 30.5477 28.9585 30.4516 29.5 30.4516C32.1236 30.4516 34.2581 32.5861 34.2581 35.2097C34.2581 37.8333 32.1236 39.9677 29.5 39.9677H27.9965C27.926 39.3216 27.6472 38.7002 27.1628 38.2168L26.4929 37.5468C25.5965 36.6504 24.2347 36.4325 23.1042 37.0044C22.8368 37.1405 22.5342 37.1538 22.2725 37.0406C22.1507 36.9873 22.026 36.9369 21.9014 36.8874C21.6359 36.7846 21.4284 36.5591 21.3342 36.2707C20.9383 35.0669 19.8211 34.2581 18.5545 34.2581H17.6067C16.3401 34.2581 15.223 35.0669 14.8271 36.2717C14.7329 36.5591 14.5264 36.7836 14.2599 36.8864C14.1353 36.935 14.0115 36.9854 13.8878 37.0396C13.628 37.1519 13.3254 37.1395 13.0571 37.0035C11.9266 36.4315 10.5648 36.6495 9.66839 37.5459L8.99845 38.2158C8.51408 38.7002 8.23526 39.3216 8.16484 39.9677H6.66129C4.03769 39.9677 1.90323 37.8333 1.90323 35.2097ZM28.5484 47.1029C28.5484 47.5454 28.2658 47.9356 27.8442 48.0745C27.0144 48.3467 26.3597 48.9614 26.0495 49.7608C26.0095 49.8626 25.9676 49.9644 25.9248 50.0634C25.586 50.8437 25.6155 51.7354 26.0076 52.511C26.2074 52.9059 26.1313 53.3817 25.8182 53.6948L25.1473 54.3656C24.8342 54.6787 24.3575 54.7549 23.9635 54.555C23.1889 54.1629 22.2963 54.1334 21.5169 54.4722C21.417 54.515 21.3152 54.5569 21.2115 54.5978C20.413 54.9081 19.7993 55.5628 19.5261 56.3935C19.3882 56.8141 18.997 57.0968 18.5545 57.0968H17.6067C17.1642 57.0968 16.7741 56.8141 16.6351 56.3926C16.363 55.5628 15.7482 54.9081 14.9489 54.5978C14.8471 54.5579 14.7452 54.516 14.6463 54.4732C14.2866 54.3162 13.9031 54.2381 13.5177 54.2381C13.0675 54.2381 12.6165 54.3447 12.1987 54.555C11.8029 54.7539 11.327 54.6787 11.0149 54.3656L10.344 53.6948C10.031 53.3817 9.95482 52.9059 10.1547 52.511C10.5467 51.7354 10.5762 50.8437 10.2375 50.0644C10.1946 49.9644 10.1528 49.8626 10.1118 49.7589C9.80161 48.9605 9.1469 48.3467 8.31614 48.0736C7.89553 47.9366 7.6129 47.5454 7.6129 47.1029V46.1551C7.6129 45.7126 7.89553 45.3225 8.31614 45.1835C9.1469 44.9114 9.80161 44.2966 10.1118 43.4973C10.1518 43.3955 10.1937 43.2936 10.2365 43.1947C10.5753 42.4143 10.5458 41.5227 10.1537 40.7471C9.95387 40.3522 10.03 39.8754 10.3431 39.5624L11.013 38.8924C11.3261 38.5784 11.8019 38.5013 12.1978 38.703C12.9733 39.0951 13.8669 39.1246 14.6444 38.7858C14.7452 38.7421 14.8471 38.7002 14.9489 38.6612C15.7473 38.35 16.362 37.6953 16.6351 36.8655C16.7731 36.4439 17.1642 36.1613 17.6067 36.1613H18.5545C18.997 36.1613 19.3872 36.4439 19.5261 36.8655C19.7993 37.6953 20.413 38.35 21.2115 38.6602C21.3133 38.7002 21.4151 38.7421 21.515 38.7849C22.2944 39.1237 23.187 39.0932 23.9626 38.7021C24.3565 38.5013 24.8333 38.5784 25.1473 38.8915L25.8173 39.5614C26.1303 39.8745 26.2065 40.3512 26.0066 40.7462C25.6146 41.5217 25.5851 42.4134 25.9238 43.1928C25.9667 43.2927 26.0085 43.3945 26.0495 43.4982C26.3597 44.2966 27.0144 44.9104 27.8451 45.1835C28.2658 45.3215 28.5484 45.7126 28.5484 46.1551V47.1029ZM30.4116 47.5806C30.4373 47.4246 30.4516 47.2647 30.4516 47.1029V46.1551C30.4516 44.8885 29.6427 43.7713 28.438 43.3755C28.1506 43.2813 27.926 43.0748 27.8233 42.8102C27.7747 42.6846 27.7243 42.5599 27.67 42.4362C27.593 42.2592 27.5968 42.0641 27.6358 41.871H29.5C32.8487 41.871 35.6208 39.3844 36.0852 36.1613H57.0968V47.5806H30.4116Z" fill="#589CE7"/>
<path d="M31.4047 9.51651C31.9303 9.51651 32.3564 9.09046 32.3564 8.56489C32.3564 8.03933 31.9303 7.61328 31.4047 7.61328C30.8792 7.61328 30.4531 8.03933 30.4531 8.56489C30.4531 9.09046 30.8792 9.51651 31.4047 9.51651Z" fill="#589CE7"/>
<path d="M35.2094 9.51651C35.735 9.51651 36.161 9.09046 36.161 8.56489C36.161 8.03933 35.735 7.61328 35.2094 7.61328C34.6839 7.61328 34.2578 8.03933 34.2578 8.56489C34.2578 9.09046 34.6839 9.51651 35.2094 9.51651Z" fill="#589CE7"/>
<path d="M39.018 9.51651C39.5436 9.51651 39.9696 9.09046 39.9696 8.56489C39.9696 8.03933 39.5436 7.61328 39.018 7.61328C38.4925 7.61328 38.0664 8.03933 38.0664 8.56489C38.0664 9.09046 38.4925 9.51651 39.018 9.51651Z" fill="#589CE7"/>
<path d="M54.2407 17.1288C54.7662 17.1288 55.1923 16.7028 55.1923 16.1772C55.1923 15.6516 54.7662 15.2256 54.2407 15.2256C53.7151 15.2256 53.2891 15.6516 53.2891 16.1772C53.2891 16.7028 53.7151 17.1288 54.2407 17.1288Z" fill="#589CE7"/>
<path d="M50.436 17.1288C50.9615 17.1288 51.3876 16.7028 51.3876 16.1772C51.3876 15.6516 50.9615 15.2256 50.436 15.2256C49.9104 15.2256 49.4844 15.6516 49.4844 16.1772C49.4844 16.7028 49.9104 17.1288 50.436 17.1288Z" fill="#589CE7"/>
<path d="M46.6274 17.1288C47.153 17.1288 47.579 16.7028 47.579 16.1772C47.579 15.6516 47.153 15.2256 46.6274 15.2256C46.1018 15.2256 45.6758 15.6516 45.6758 16.1772C45.6758 16.7028 46.1018 17.1288 46.6274 17.1288Z" fill="#589CE7"/>
<path d="M31.4047 24.7421C31.9303 24.7421 32.3564 24.316 32.3564 23.7905C32.3564 23.2649 31.9303 22.8389 31.4047 22.8389C30.8792 22.8389 30.4531 23.2649 30.4531 23.7905C30.4531 24.316 30.8792 24.7421 31.4047 24.7421Z" fill="#589CE7"/>
<path d="M35.2094 24.7421C35.735 24.7421 36.161 24.316 36.161 23.7905C36.161 23.2649 35.735 22.8389 35.2094 22.8389C34.6839 22.8389 34.2578 23.2649 34.2578 23.7905C34.2578 24.316 34.6839 24.7421 35.2094 24.7421Z" fill="#589CE7"/>
<path d="M39.018 24.7421C39.5436 24.7421 39.9696 24.316 39.9696 23.7905C39.9696 23.2649 39.5436 22.8389 39.018 22.8389C38.4925 22.8389 38.0664 23.2649 38.0664 23.7905C38.0664 24.316 38.4925 24.7421 39.018 24.7421Z" fill="#589CE7"/>
<path d="M54.2407 32.3544C54.7662 32.3544 55.1923 31.9283 55.1923 31.4028C55.1923 30.8772 54.7662 30.4512 54.2407 30.4512C53.7151 30.4512 53.2891 30.8772 53.2891 31.4028C53.2891 31.9283 53.7151 32.3544 54.2407 32.3544Z" fill="#589CE7"/>
<path d="M50.436 32.3544C50.9615 32.3544 51.3876 31.9283 51.3876 31.4028C51.3876 30.8772 50.9615 30.4512 50.436 30.4512C49.9104 30.4512 49.4844 30.8772 49.4844 31.4028C49.4844 31.9283 49.9104 32.3544 50.436 32.3544Z" fill="#589CE7"/>
<path d="M46.6274 32.3544C47.153 32.3544 47.579 31.9283 47.579 31.4028C47.579 30.8772 47.153 30.4512 46.6274 30.4512C46.1018 30.4512 45.6758 30.8772 45.6758 31.4028C45.6758 31.9283 46.1018 32.3544 46.6274 32.3544Z" fill="#589CE7"/>
<path d="M47.582 45.6774H55.1949V38.0645H47.582V45.6774ZM49.4853 39.9677H53.2917V43.7741H49.4853V39.9677Z" fill="#589CE7"/>
<path d="M38.0664 45.6774H45.6793V38.0645H38.0664V45.6774ZM39.9696 39.9677H43.7761V43.7741H39.9696V39.9677Z" fill="#589CE7"/>
<path d="M4.75986 5.04644V17.1291H6.66309V5.04644L8.72618 8.14108L10.3097 7.08479L5.71147 0.1875L1.11328 7.08479L2.69677 8.14108L4.75986 5.04644Z" fill="#589CE7"/>
<path d="M10.3061 10.8913L8.72266 11.9476L13.3208 18.8449L17.919 11.9476L16.3356 10.8913L14.2725 13.9859V1.90332H12.3692V13.9859L10.3061 10.8913Z" fill="#589CE7"/>
<path d="M19.9825 5.04644V17.1291H21.8857V5.04644L23.9488 8.14108L25.5323 7.08479L20.9341 0.1875L16.3359 7.08479L17.9194 8.14108L19.9825 5.04644Z" fill="#589CE7"/>
<path d="M17.1285 24.7421V22.8389C12.931 22.8389 9.51562 26.2542 9.51562 30.4518H11.4189C11.4189 27.3029 13.9796 24.7421 17.1285 24.7421Z" fill="#589CE7"/>
</svg>
