<svg width="61" height="60" viewBox="0 0 61 60" fill="none" xmlns="http://www.w3.org/2000/svg">
<path d="M39.3484 44.7738C39.0875 44.3055 38.8453 43.8746 38.6031 43.4624C30.8706 46.4225 24.2374 42.2634 21.9084 36.8492C19.3371 30.8541 21.573 23.9599 27.1814 20.7001C32.7339 17.4777 39.8142 18.9578 43.6897 24.1097C47.3603 28.9994 47.3976 37.1677 40.8576 42.226C41.0812 42.6381 41.3234 43.0503 41.5843 43.5186C41.8265 43.425 42.0315 43.35 42.2178 43.2563C43.2612 42.7505 43.7643 42.9004 44.3605 43.9308C46.5405 47.8088 48.7019 51.7056 50.8632 55.6024C51.4409 56.6515 51.2732 57.2323 50.2297 57.8318C49.1863 58.4313 48.1243 59.0308 47.0622 59.6115C45.8884 60.2672 45.348 60.1174 44.7145 58.9746C42.665 55.3026 40.6154 51.6306 38.5658 47.9587C37.5783 46.1602 37.6156 45.9916 39.3484 44.7738ZM23.4176 31.6972C23.399 37.2613 27.9639 41.8887 33.5164 41.9262C39.013 41.9637 43.6711 37.3175 43.6897 31.7534C43.7084 26.208 39.0875 21.5431 33.5723 21.5431C28.0012 21.5244 23.4176 26.1143 23.4176 31.6972ZM40.9508 46.9283C42.8327 50.3005 44.6773 53.5978 46.5405 56.9325C47.1181 56.5953 47.6212 56.3143 48.1802 55.9958C46.2983 52.6236 44.4537 49.3263 42.5904 45.9916C42.0128 46.3101 41.5284 46.5911 40.9508 46.9283Z" fill="#589CE7"/>
<path d="M32.9948 34.5446C34.6344 32.0529 36.2182 29.6736 37.8019 27.2944C37.9696 27.0321 38.1187 26.6387 38.3423 26.5637C38.8267 26.3951 39.4043 26.2265 39.8515 26.3764C40.4478 26.5637 40.5595 27.2007 40.3546 27.8002C40.2614 28.0812 40.0565 28.3435 39.8888 28.6058C38.1001 31.3035 36.3113 34.0013 34.5226 36.6991C33.7214 37.8981 33.1066 37.973 32.0445 37.0363C30.5539 35.7061 29.0633 34.3947 27.5913 33.0458C26.8647 32.3901 26.7529 31.6782 27.2373 31.0975C27.7031 30.5354 28.5043 30.5729 29.2124 31.1911C30.4421 32.2777 31.6719 33.3643 32.9948 34.5446Z" fill="#589CE7"/>
<path d="M43.0182 12.1563L43.6408 11.9784L43.6558 11.9753L43.7255 11.9612C43.7862 11.949 43.8743 11.9315 43.9835 11.9105C44.2019 11.8685 44.5043 11.8125 44.84 11.7565C45.5175 11.6436 46.3106 11.5344 46.8288 11.5344C53.1861 11.5344 58.3066 16.6549 58.3066 23.0122C58.3066 28.2216 54.7743 32.8132 49.7422 34.1375L49.4996 34.2013L49.5643 34.4436L49.9251 35.7968L49.9895 36.0382L50.2309 35.9741C56.1135 34.4115 60.1598 29.1706 60.1598 23.1025L60.1598 23.0993C60.0678 15.9254 54.0921 9.95184 46.7385 9.95184C45.9851 9.95184 44.8675 10.1013 44.1139 10.2659C42.388 4.68838 37.2101 0.75 31.3119 0.75C25.6036 0.75 20.6066 4.32347 18.7913 9.62383C17.9514 9.38668 17.1018 9.23013 16.2462 9.23013C12.7769 9.23013 10.6522 10.7396 9.36874 12.4898C8.16384 14.1328 7.70724 15.9765 7.54424 16.9511C3.55145 18.1137 0.75 21.7776 0.75 25.8991C0.75 29.0232 1.76279 31.5312 3.71847 33.301C5.94785 35.3443 9.26748 36.3433 13.7202 36.3433C14.7239 36.3433 15.7257 36.2522 16.7143 36.1623L16.7199 36.1618L16.9629 36.1397L16.9467 35.8962L16.8565 34.543L16.8394 34.286L16.583 34.3108C11.0076 34.8504 7.13517 34.0296 4.96213 31.9435L4.96225 31.9434L4.95508 31.937C3.39727 30.5523 2.60321 28.553 2.60321 25.8991C2.60321 22.4089 5.13554 19.2663 8.53345 18.5669L9.07016 18.4775L9.27906 18.4427V18.2309V17.6896L9.27906 17.6896C9.27906 17.6892 9.27909 17.6868 9.27928 17.682L9.28037 17.6607C9.28143 17.6428 9.28317 17.6187 9.28579 17.5888C9.29103 17.5289 9.29964 17.447 9.313 17.3463C9.33973 17.1449 9.38524 16.8699 9.46009 16.5464C9.61003 15.8985 9.8763 15.0626 10.3408 14.2375C11.2636 12.5981 12.9697 10.9931 16.156 10.9931C16.8528 10.9931 17.5555 11.1319 18.2117 11.2902C18.0576 12.1445 17.9809 13.0609 17.9809 13.9006V14.1506H18.2309H19.5841H19.8341V13.9006C19.8341 12.9213 19.9234 11.8627 20.1862 10.8991L20.1867 10.897C21.5102 5.86777 26.0995 2.42278 31.3119 2.42278C36.6091 2.42278 41.3783 6.22213 42.5252 11.3391L42.5268 11.3461L42.5287 11.3531L42.7092 11.9846L42.7779 12.225L43.0182 12.1563Z" fill="#589CE7" stroke="#589CE7" stroke-width="0.5"/>
</svg>
