<svg width="61" height="61" viewBox="0 0 61 61" fill="none" xmlns="http://www.w3.org/2000/svg">
<path d="M33.7492 9.09322C34.4063 6.55577 35.9587 4.34021 38.1216 2.85627C40.3079 1.35632 42.9671 0.707361 45.5986 1.03159C48.23 1.35582 50.6522 2.63086 52.409 4.61665C54.1658 6.60241 55.136 9.16188 55.1371 11.8132M33.7492 9.09322L53.9229 16.6804C54.6932 15.1743 55.0925 13.5056 55.0871 11.8134L55.1371 11.8133C55.1371 11.8133 55.1371 11.8132 55.1371 11.8132M33.7492 9.09322C32.5675 7.99461 31.0938 7.25928 29.5041 6.97614C27.8866 6.68804 26.22 6.88081 24.7109 7.53057C23.2019 8.18033 21.9165 9.25853 21.0142 10.6316C20.1119 12.0047 19.6322 13.6123 19.6346 15.2553L19.6346 15.2567C19.649 15.7653 19.7742 16.2644 20.001 16.7192C19.8918 16.7344 19.7836 16.7559 19.6768 16.7837C18.8067 16.0765 17.4638 15.5609 15.9129 15.2212C14.3488 14.8785 12.5677 14.7136 10.834 14.7136C8.46063 14.7136 5.99615 15.0212 4.12316 15.669C3.1868 15.9928 2.39506 16.4027 1.83659 16.9044C1.27731 17.4069 0.95 18.0034 0.95 18.6972V36.3984C0.95 37.0921 1.27731 37.6887 1.83659 38.1911C2.39506 38.6928 3.1868 39.1027 4.12316 39.4266C5.99615 40.0743 8.46063 40.382 10.834 40.382C13.2074 40.382 15.6719 40.0743 17.5449 39.4266C18.4812 39.1027 19.273 38.6928 19.8314 38.1911C20.3907 37.6887 20.718 37.0921 20.718 36.3984V28.5812M33.7492 9.09322L20.718 28.5812M55.1371 11.8132C55.1425 13.5049 54.7454 15.1731 53.979 16.6804H54.1036C55.6818 16.6804 57.1953 17.3073 58.3112 18.4232C59.4271 19.5391 60.0541 21.0526 60.0541 22.6308C60.0541 24.2089 59.4271 25.7224 58.3112 26.8383C57.1953 27.9543 55.6818 28.5812 54.1036 28.5812H20.718M55.1371 11.8132L20.718 28.5812M20.718 26.5144H54.1036C55.1336 26.5144 56.1215 26.1052 56.8498 25.3769C57.5781 24.6486 57.9873 23.6608 57.9873 22.6308C57.9873 21.6008 57.5781 20.613 56.8498 19.8846C56.1215 19.1563 55.1336 18.7472 54.1036 18.7472H52.127C51.9351 18.7472 51.747 18.6937 51.5837 18.5928C51.4205 18.4919 51.2885 18.3476 51.2027 18.1759C51.1169 18.0043 51.0806 17.8121 51.0978 17.621C51.115 17.4298 51.1851 17.2473 51.3003 17.0937L51.3004 17.0936C52.1375 15.9853 52.7005 14.6946 52.9432 13.3271C53.1859 11.9596 53.1015 10.554 52.6968 9.22534C52.2922 7.89668 51.5789 6.68265 50.6151 5.68253C49.6514 4.68241 48.4646 3.92459 47.1518 3.47105C45.839 3.0175 44.4376 2.88111 43.062 3.07302C41.6864 3.26492 40.3758 3.77969 39.2373 4.57521C38.0987 5.37073 37.1647 6.42443 36.5115 7.65014C35.8582 8.87583 35.5044 10.2387 35.4789 11.6274C35.4789 11.6274 35.4789 11.6274 35.4789 11.6274L35.4289 11.6265C35.4261 11.8426 35.3522 12.0517 35.2187 12.2216C35.0851 12.3915 34.8993 12.5126 34.69 12.5663C34.4808 12.6201 34.2596 12.6034 34.0607 12.5188C33.8619 12.4342 33.6964 12.2865 33.5899 12.0985C32.8944 10.8714 31.8121 9.90912 30.5121 9.36198C29.212 8.81485 27.7673 8.71367 26.4037 9.07424C25.04 9.43481 23.8341 10.2368 22.9744 11.3551C22.1147 12.4733 21.6495 13.8447 21.6514 15.2553L20.718 26.5144ZM20.718 26.5144V18.7472H21.6514H21.6515C21.8169 18.7469 21.9798 18.7074 22.127 18.632C22.2742 18.5566 22.4015 18.4475 22.4983 18.3134L22.4992 18.3121C22.5923 18.1745 22.652 18.017 22.6734 17.8522C22.6949 17.6874 22.6777 17.5199 22.623 17.363L22.6231 17.363L22.6225 17.3616C22.4936 17.0229 22.3379 16.6949 22.1569 16.3809L22.157 16.3808L22.1552 16.3781C21.9278 16.0376 21.7733 15.6538 21.7014 15.2508L20.718 26.5144ZM18.6512 36.3984C18.6512 36.4408 18.6209 36.5063 18.5388 36.5924C18.4587 36.6763 18.3366 36.7721 18.1716 36.8748C17.8418 37.08 17.3464 37.3086 16.6882 37.5223C15.3724 37.9495 13.4109 38.3152 10.834 38.3152C8.25714 38.3152 6.29562 37.9495 4.97977 37.5223C4.32164 37.3086 3.82623 37.08 3.49644 36.8748C3.33138 36.7721 3.20936 36.6763 3.12926 36.5924C3.04715 36.5063 3.0168 36.4408 3.0168 36.3984V33.0514C5.48884 34.0855 8.1554 34.5735 10.834 34.4816C13.5126 34.5735 16.1792 34.0855 18.6512 33.0514V36.3984ZM18.6512 30.498C18.6512 30.5404 18.6209 30.6059 18.5388 30.692C18.4587 30.7759 18.3366 30.8717 18.1716 30.9744C17.8418 31.1796 17.3464 31.4082 16.6882 31.6219C15.3724 32.0491 13.4109 32.4148 10.834 32.4148C8.25714 32.4148 6.29562 32.0491 4.97977 31.6219C4.32164 31.4082 3.82623 31.1796 3.49644 30.9744C3.33138 30.8717 3.20936 30.7759 3.12926 30.692C3.04715 30.6059 3.0168 30.5404 3.0168 30.498V27.151C5.48883 28.1851 8.15539 28.6731 10.834 28.5812C13.5126 28.6731 16.1792 28.1851 18.6512 27.151V30.498ZM18.6512 24.5976C18.6512 24.64 18.6209 24.7055 18.5388 24.7916C18.4587 24.8755 18.3366 24.9713 18.1716 25.074C17.8418 25.2792 17.3464 25.5078 16.6882 25.7215C15.3724 26.1487 13.4109 26.5144 10.834 26.5144C8.25714 26.5144 6.29562 26.1487 4.97977 25.7215C4.32164 25.5078 3.82623 25.2792 3.49644 25.074C3.33138 24.9713 3.20936 24.8755 3.12926 24.7916C3.04715 24.7055 3.0168 24.64 3.0168 24.5976V21.2506C5.48883 22.2847 8.15539 22.7727 10.834 22.6808C13.5126 22.7727 16.1792 22.2847 18.6512 21.2506V24.5976ZM10.834 20.614C8.25714 20.614 6.29562 20.2483 4.97977 19.8211C4.32164 19.6074 3.82623 19.3788 3.49644 19.1736C3.33138 19.0709 3.20936 18.9751 3.12926 18.8912C3.04715 18.8051 3.0168 18.7396 3.0168 18.6972C3.0168 18.6547 3.04715 18.5892 3.12926 18.5032C3.20936 18.4192 3.33138 18.3234 3.49644 18.2207C3.82623 18.0156 4.32164 17.7869 4.97977 17.5732C6.29562 17.146 8.25714 16.7804 10.834 16.7804C13.4109 16.7804 15.3724 17.146 16.6882 17.5732C17.3464 17.7869 17.8418 18.0156 18.1716 18.2207C18.3366 18.3234 18.4587 18.4192 18.5388 18.5032C18.6209 18.5892 18.6512 18.6547 18.6512 18.6972C18.6512 18.7396 18.6209 18.8051 18.5388 18.8912C18.4587 18.9751 18.3366 19.0709 18.1716 19.1736C17.8418 19.3788 17.3464 19.6074 16.6882 19.8211C15.3724 20.2483 13.4109 20.614 10.834 20.614Z" fill="#589CE7" stroke="#589CE7" stroke-width="0.1"/>
<path d="M59.8867 54.0497H59.0713V33.4482V33.4481C59.0689 32.6532 58.7521 31.8915 58.1899 31.3294C57.6278 30.7673 56.8661 30.4504 56.0712 30.448H56.0711L24.6022 30.448L24.6021 30.448C23.8072 30.4504 23.0455 30.7673 22.4834 31.3294C21.9212 31.8915 21.6044 32.6532 21.602 33.4481V33.4482V54.0497L20.7866 54.0497L20.7864 54.0497C20.6363 54.0505 20.4881 54.084 20.3523 54.1479C20.2165 54.2117 20.0962 54.3044 19.9998 54.4195C19.9034 54.5346 19.8332 54.6693 19.7942 54.8142C19.7551 54.9591 19.7481 55.1108 19.7736 55.2587L19.7737 55.2591L20.2254 57.7729C20.2268 57.8132 20.2341 57.8531 20.2473 57.8913C20.4322 58.5122 20.8118 59.0572 21.3301 59.4459C21.8487 59.8349 22.4786 60.0467 23.1269 60.0501H23.1271L57.5462 60.0501L57.5464 60.0501C58.1947 60.0467 58.8246 59.8349 59.3432 59.4459C59.8615 59.0572 60.2411 58.5121 60.426 57.8912C60.4392 57.8531 60.4466 57.8132 60.4479 57.7729L60.8996 55.2591L60.8996 55.2589C60.9257 55.1112 60.9188 54.9595 60.8795 54.8147C60.8402 54.67 60.7695 54.5358 60.6724 54.4216C60.577 54.3057 60.4571 54.2122 60.3214 54.1479C60.1855 54.0836 60.0371 54.05 59.8868 54.0497H59.8867ZM23.6688 33.4482C23.6688 33.2007 23.7672 32.9633 23.9422 32.7882C24.1173 32.6132 24.3547 32.5148 24.6022 32.5148H56.0711C56.3186 32.5148 56.556 32.6132 56.7311 32.7882C56.9061 32.9633 57.0045 33.2007 57.0045 33.4482V54.0497H43.2869C43.0128 54.0497 42.7499 54.1585 42.5561 54.3523C42.3741 54.5343 42.267 54.7772 42.2547 55.0331H38.4186C38.4063 54.7772 38.2992 54.5343 38.1172 54.3523C37.9234 54.1585 37.6605 54.0497 37.3865 54.0497H23.6688V33.4482ZM58.6471 56.1165L58.4319 57.3519C58.3672 57.5348 58.2479 57.6934 58.0902 57.8063C57.9313 57.92 57.7412 57.9818 57.5458 57.9833H23.1275C22.9321 57.9818 22.742 57.92 22.5831 57.8063C22.4254 57.6934 22.3061 57.5348 22.2415 57.3519L22.0262 56.1165H36.3543C36.3666 56.3723 36.4737 56.6152 36.6557 56.7972C36.8495 56.991 37.1124 57.0999 37.3865 57.0999H43.2869C43.5609 57.0999 43.8238 56.991 44.0176 56.7972C44.1996 56.6152 44.3067 56.3723 44.319 56.1165H58.6471Z" fill="#589CE7" stroke="#589CE7" stroke-width="0.1"/>
<path d="M11.8684 42.2988V42.2488H11.8184H9.85156H9.80156V42.2988V44.2656V44.3156H9.85156H11.8184H11.8684V44.2656V42.2988Z" fill="#589CE7" stroke="#589CE7" stroke-width="0.1"/>
<path d="M11.8684 46.2324V46.1824H11.8184H9.85156H9.80156V46.2324V57.0498C9.80156 57.3239 9.91044 57.5868 10.1042 57.7806C10.298 57.9744 10.5609 58.0832 10.835 58.0832H17.7188H17.7688V58.0332V56.0664V56.0164H17.7188H11.8684V46.2324Z" fill="#589CE7" stroke="#589CE7" stroke-width="0.1"/>
<path d="M44.3196 43.2822C44.3196 42.4944 44.0859 41.7242 43.6482 41.0691C43.2105 40.414 42.5883 39.9034 41.8604 39.6019C41.1325 39.3004 40.3315 39.2215 39.5588 39.3752C38.786 39.5289 38.0762 39.9083 37.5191 40.4654C36.962 41.0225 36.5826 41.7323 36.4289 42.5051C36.2752 43.2778 36.3541 44.0788 36.6556 44.8067C36.9571 45.5346 37.4677 46.1568 38.1228 46.5945C38.7779 47.0322 39.5481 47.2658 40.3359 47.2658C41.3925 47.2658 42.4057 46.8461 43.1528 46.0991C43.8999 45.352 44.3196 44.3388 44.3196 43.2822ZM38.4191 43.2822C38.4191 42.9031 38.5316 42.5325 38.7422 42.2173C38.9528 41.9021 39.2522 41.6564 39.6024 41.5113C39.9527 41.3663 40.3381 41.3283 40.7099 41.4023C41.0817 41.4762 41.4233 41.6588 41.6913 41.9269C41.9594 42.1949 42.142 42.5365 42.2159 42.9083C42.2899 43.2801 42.2519 43.6655 42.1068 44.0158C41.9618 44.366 41.7161 44.6654 41.4009 44.876C41.0857 45.0866 40.7151 45.199 40.3359 45.199C39.8276 45.199 39.34 44.9971 38.9806 44.6376C38.6211 44.2782 38.4191 43.7906 38.4191 43.2822Z" fill="#589CE7" stroke="#589CE7" stroke-width="0.1"/>
<mask id="path-6-outside-1_467_1691" maskUnits="userSpaceOnUse" x="30.4863" y="33.4316" width="19" height="19" fill="black">
<rect fill="white" x="30.4863" y="33.4316" width="19" height="19"/>
<path d="M38.3701 52.1329H42.3037C42.5231 52.1328 42.7361 52.0594 42.909 51.9243C43.0818 51.7893 43.2046 51.6003 43.2576 51.3874L43.4219 50.7305L44.0031 51.0796C44.1911 51.1922 44.4114 51.2388 44.629 51.2119C44.8465 51.185 45.0488 51.0862 45.2038 50.9311L47.9858 48.1501C48.1411 47.9951 48.2401 47.7925 48.267 47.5748C48.2939 47.357 48.2472 47.1365 48.1343 46.9484L47.7852 46.3672L48.4421 46.203C48.655 46.1499 48.8439 46.0271 48.979 45.8543C49.1141 45.6815 49.1875 45.4684 49.1875 45.2491V41.3154C49.1875 41.0961 49.1141 40.883 48.979 40.7102C48.8439 40.5374 48.655 40.4146 48.4421 40.3615L47.7852 40.1973L48.1343 39.6161C48.2472 39.428 48.2939 39.2075 48.267 38.9897C48.2401 38.7719 48.1411 38.5694 47.9858 38.4144L45.2038 35.6334C45.0488 35.4783 44.8465 35.3795 44.629 35.3526C44.4114 35.3257 44.1911 35.3723 44.0031 35.4849L43.4219 35.834L43.2576 35.1771C43.2046 34.9642 43.0818 34.7752 42.909 34.6402C42.7361 34.5051 42.5231 34.4317 42.3037 34.4316H38.3701C38.1508 34.4317 37.9377 34.5051 37.7649 34.6402C37.592 34.7752 37.4693 34.9642 37.4162 35.1771L37.252 35.834L36.6708 35.4849C36.4828 35.3723 36.2625 35.3257 36.0449 35.3526C35.8274 35.3795 35.625 35.4783 35.4701 35.6334L32.688 38.4144C32.5328 38.5694 32.4338 38.7719 32.4069 38.9897C32.38 39.2075 32.4267 39.428 32.5395 39.6161L32.8887 40.1973L32.2317 40.3615C32.0189 40.4146 31.8299 40.5374 31.6949 40.7102C31.5598 40.883 31.4864 41.0961 31.4863 41.3154V45.2491C31.4864 45.4684 31.5598 45.6815 31.6949 45.8543C31.8299 46.0271 32.0189 46.1499 32.2317 46.203L32.8887 46.3672L32.5395 46.9484C32.4267 47.1365 32.38 47.357 32.4069 47.5748C32.4338 47.7925 32.5328 47.9951 32.688 48.1501L35.4701 50.9311C35.625 51.0862 35.8274 51.185 36.0449 51.2119C36.2625 51.2388 36.4828 51.1922 36.6708 51.0796L37.252 50.7305L37.4162 51.3874C37.4693 51.6003 37.592 51.7893 37.7649 51.9243C37.9377 52.0594 38.1508 52.1328 38.3701 52.1329ZM36.3178 48.9978L34.6204 47.3014L35.2577 46.2413C35.3368 46.1095 35.3839 45.9611 35.3953 45.8078C35.4067 45.6546 35.382 45.5008 35.3232 45.3588C35.2644 45.2168 35.1731 45.0906 35.0567 44.9902C34.9403 44.8899 34.802 44.8182 34.6529 44.7809L33.4531 44.4859V42.0835L34.6529 41.7885C34.802 41.7512 34.9403 41.6796 35.0567 41.5792C35.1731 41.4789 35.2644 41.3526 35.3232 41.2106C35.382 41.0687 35.4067 40.9149 35.3953 40.7616C35.3839 40.6083 35.3368 40.4599 35.2577 40.3281L34.6204 39.268L36.3178 37.5716L37.3779 38.2079C37.5096 38.287 37.6581 38.3342 37.8114 38.3455C37.9646 38.3569 38.1184 38.3322 38.2604 38.2734C38.4024 38.2146 38.5286 38.1233 38.629 38.0069C38.7293 37.8905 38.801 37.7522 38.8382 37.6031L39.1333 36.4034H41.5308L41.8258 37.6031C41.863 37.7522 41.9347 37.8905 42.0351 38.0069C42.1354 38.1233 42.2616 38.2146 42.4036 38.2734C42.5456 38.3322 42.6994 38.3569 42.8527 38.3455C43.0059 38.3342 43.1544 38.287 43.2862 38.2079L44.3463 37.5716L46.0426 39.268L45.4064 40.3281C45.3272 40.4599 45.2801 40.6083 45.2687 40.7616C45.2574 40.9149 45.2821 41.0687 45.3409 41.2106C45.3997 41.3526 45.4909 41.4789 45.6074 41.5792C45.7238 41.6796 45.8621 41.7512 46.0112 41.7885L47.2109 42.0835V44.481L46.0112 44.776C45.8621 44.8133 45.7238 44.8849 45.6074 44.9853C45.4909 45.0856 45.3997 45.2119 45.3409 45.3539C45.2821 45.4958 45.2574 45.6496 45.2687 45.8029C45.2801 45.9562 45.3272 46.1046 45.4064 46.2364L46.0426 47.2965L44.3463 48.9929L43.2862 48.3566C43.1539 48.2777 43.005 48.2306 42.8514 48.2192C42.6978 48.2077 42.5436 48.2322 42.4011 48.2907C42.2592 48.3496 42.133 48.441 42.0328 48.5575C41.9325 48.6739 41.861 48.8123 41.8238 48.9614L41.5288 50.1611H39.1382L38.8431 48.9614C38.8059 48.8123 38.7342 48.674 38.6339 48.5576C38.5336 48.4412 38.4073 48.3499 38.2653 48.2911C38.1233 48.2323 37.9695 48.2076 37.8163 48.219C37.663 48.2303 37.5146 48.2775 37.3828 48.3566L36.3178 48.9978Z"/>
</mask>
<path d="M38.3701 52.1329H42.3037C42.5231 52.1328 42.7361 52.0594 42.909 51.9243C43.0818 51.7893 43.2046 51.6003 43.2576 51.3874L43.4219 50.7305L44.0031 51.0796C44.1911 51.1922 44.4114 51.2388 44.629 51.2119C44.8465 51.185 45.0488 51.0862 45.2038 50.9311L47.9858 48.1501C48.1411 47.9951 48.2401 47.7925 48.267 47.5748C48.2939 47.357 48.2472 47.1365 48.1343 46.9484L47.7852 46.3672L48.4421 46.203C48.655 46.1499 48.8439 46.0271 48.979 45.8543C49.1141 45.6815 49.1875 45.4684 49.1875 45.2491V41.3154C49.1875 41.0961 49.1141 40.883 48.979 40.7102C48.8439 40.5374 48.655 40.4146 48.4421 40.3615L47.7852 40.1973L48.1343 39.6161C48.2472 39.428 48.2939 39.2075 48.267 38.9897C48.2401 38.7719 48.1411 38.5694 47.9858 38.4144L45.2038 35.6334C45.0488 35.4783 44.8465 35.3795 44.629 35.3526C44.4114 35.3257 44.1911 35.3723 44.0031 35.4849L43.4219 35.834L43.2576 35.1771C43.2046 34.9642 43.0818 34.7752 42.909 34.6402C42.7361 34.5051 42.5231 34.4317 42.3037 34.4316H38.3701C38.1508 34.4317 37.9377 34.5051 37.7649 34.6402C37.592 34.7752 37.4693 34.9642 37.4162 35.1771L37.252 35.834L36.6708 35.4849C36.4828 35.3723 36.2625 35.3257 36.0449 35.3526C35.8274 35.3795 35.625 35.4783 35.4701 35.6334L32.688 38.4144C32.5328 38.5694 32.4338 38.7719 32.4069 38.9897C32.38 39.2075 32.4267 39.428 32.5395 39.6161L32.8887 40.1973L32.2317 40.3615C32.0189 40.4146 31.8299 40.5374 31.6949 40.7102C31.5598 40.883 31.4864 41.0961 31.4863 41.3154V45.2491C31.4864 45.4684 31.5598 45.6815 31.6949 45.8543C31.8299 46.0271 32.0189 46.1499 32.2317 46.203L32.8887 46.3672L32.5395 46.9484C32.4267 47.1365 32.38 47.357 32.4069 47.5748C32.4338 47.7925 32.5328 47.9951 32.688 48.1501L35.4701 50.9311C35.625 51.0862 35.8274 51.185 36.0449 51.2119C36.2625 51.2388 36.4828 51.1922 36.6708 51.0796L37.252 50.7305L37.4162 51.3874C37.4693 51.6003 37.592 51.7893 37.7649 51.9243C37.9377 52.0594 38.1508 52.1328 38.3701 52.1329ZM36.3178 48.9978L34.6204 47.3014L35.2577 46.2413C35.3368 46.1095 35.3839 45.9611 35.3953 45.8078C35.4067 45.6546 35.382 45.5008 35.3232 45.3588C35.2644 45.2168 35.1731 45.0906 35.0567 44.9902C34.9403 44.8899 34.802 44.8182 34.6529 44.7809L33.4531 44.4859V42.0835L34.6529 41.7885C34.802 41.7512 34.9403 41.6796 35.0567 41.5792C35.1731 41.4789 35.2644 41.3526 35.3232 41.2106C35.382 41.0687 35.4067 40.9149 35.3953 40.7616C35.3839 40.6083 35.3368 40.4599 35.2577 40.3281L34.6204 39.268L36.3178 37.5716L37.3779 38.2079C37.5096 38.287 37.6581 38.3342 37.8114 38.3455C37.9646 38.3569 38.1184 38.3322 38.2604 38.2734C38.4024 38.2146 38.5286 38.1233 38.629 38.0069C38.7293 37.8905 38.801 37.7522 38.8382 37.6031L39.1333 36.4034H41.5308L41.8258 37.6031C41.863 37.7522 41.9347 37.8905 42.0351 38.0069C42.1354 38.1233 42.2616 38.2146 42.4036 38.2734C42.5456 38.3322 42.6994 38.3569 42.8527 38.3455C43.0059 38.3342 43.1544 38.287 43.2862 38.2079L44.3463 37.5716L46.0426 39.268L45.4064 40.3281C45.3272 40.4599 45.2801 40.6083 45.2687 40.7616C45.2574 40.9149 45.2821 41.0687 45.3409 41.2106C45.3997 41.3526 45.4909 41.4789 45.6074 41.5792C45.7238 41.6796 45.8621 41.7512 46.0112 41.7885L47.2109 42.0835V44.481L46.0112 44.776C45.8621 44.8133 45.7238 44.8849 45.6074 44.9853C45.4909 45.0856 45.3997 45.2119 45.3409 45.3539C45.2821 45.4958 45.2574 45.6496 45.2687 45.8029C45.2801 45.9562 45.3272 46.1046 45.4064 46.2364L46.0426 47.2965L44.3463 48.9929L43.2862 48.3566C43.1539 48.2777 43.005 48.2306 42.8514 48.2192C42.6978 48.2077 42.5436 48.2322 42.4011 48.2907C42.2592 48.3496 42.133 48.441 42.0328 48.5575C41.9325 48.6739 41.861 48.8123 41.8238 48.9614L41.5288 50.1611H39.1382L38.8431 48.9614C38.8059 48.8123 38.7342 48.674 38.6339 48.5576C38.5336 48.4412 38.4073 48.3499 38.2653 48.2911C38.1233 48.2323 37.9695 48.2076 37.8163 48.219C37.663 48.2303 37.5146 48.2775 37.3828 48.3566L36.3178 48.9978Z" fill="#589CE7"/>
<path d="M38.3701 52.1329H42.3037C42.5231 52.1328 42.7361 52.0594 42.909 51.9243C43.0818 51.7893 43.2046 51.6003 43.2576 51.3874L43.4219 50.7305L44.0031 51.0796C44.1911 51.1922 44.4114 51.2388 44.629 51.2119C44.8465 51.185 45.0488 51.0862 45.2038 50.9311L47.9858 48.1501C48.1411 47.9951 48.2401 47.7925 48.267 47.5748C48.2939 47.357 48.2472 47.1365 48.1343 46.9484L47.7852 46.3672L48.4421 46.203C48.655 46.1499 48.8439 46.0271 48.979 45.8543C49.1141 45.6815 49.1875 45.4684 49.1875 45.2491V41.3154C49.1875 41.0961 49.1141 40.883 48.979 40.7102C48.8439 40.5374 48.655 40.4146 48.4421 40.3615L47.7852 40.1973L48.1343 39.6161C48.2472 39.428 48.2939 39.2075 48.267 38.9897C48.2401 38.7719 48.1411 38.5694 47.9858 38.4144L45.2038 35.6334C45.0488 35.4783 44.8465 35.3795 44.629 35.3526C44.4114 35.3257 44.1911 35.3723 44.0031 35.4849L43.4219 35.834L43.2576 35.1771C43.2046 34.9642 43.0818 34.7752 42.909 34.6402C42.7361 34.5051 42.5231 34.4317 42.3037 34.4316H38.3701C38.1508 34.4317 37.9377 34.5051 37.7649 34.6402C37.592 34.7752 37.4693 34.9642 37.4162 35.1771L37.252 35.834L36.6708 35.4849C36.4828 35.3723 36.2625 35.3257 36.0449 35.3526C35.8274 35.3795 35.625 35.4783 35.4701 35.6334L32.688 38.4144C32.5328 38.5694 32.4338 38.7719 32.4069 38.9897C32.38 39.2075 32.4267 39.428 32.5395 39.6161L32.8887 40.1973L32.2317 40.3615C32.0189 40.4146 31.8299 40.5374 31.6949 40.7102C31.5598 40.883 31.4864 41.0961 31.4863 41.3154V45.2491C31.4864 45.4684 31.5598 45.6815 31.6949 45.8543C31.8299 46.0271 32.0189 46.1499 32.2317 46.203L32.8887 46.3672L32.5395 46.9484C32.4267 47.1365 32.38 47.357 32.4069 47.5748C32.4338 47.7925 32.5328 47.9951 32.688 48.1501L35.4701 50.9311C35.625 51.0862 35.8274 51.185 36.0449 51.2119C36.2625 51.2388 36.4828 51.1922 36.6708 51.0796L37.252 50.7305L37.4162 51.3874C37.4693 51.6003 37.592 51.7893 37.7649 51.9243C37.9377 52.0594 38.1508 52.1328 38.3701 52.1329ZM36.3178 48.9978L34.6204 47.3014L35.2577 46.2413C35.3368 46.1095 35.3839 45.9611 35.3953 45.8078C35.4067 45.6546 35.382 45.5008 35.3232 45.3588C35.2644 45.2168 35.1731 45.0906 35.0567 44.9902C34.9403 44.8899 34.802 44.8182 34.6529 44.7809L33.4531 44.4859V42.0835L34.6529 41.7885C34.802 41.7512 34.9403 41.6796 35.0567 41.5792C35.1731 41.4789 35.2644 41.3526 35.3232 41.2106C35.382 41.0687 35.4067 40.9149 35.3953 40.7616C35.3839 40.6083 35.3368 40.4599 35.2577 40.3281L34.6204 39.268L36.3178 37.5716L37.3779 38.2079C37.5096 38.287 37.6581 38.3342 37.8114 38.3455C37.9646 38.3569 38.1184 38.3322 38.2604 38.2734C38.4024 38.2146 38.5286 38.1233 38.629 38.0069C38.7293 37.8905 38.801 37.7522 38.8382 37.6031L39.1333 36.4034H41.5308L41.8258 37.6031C41.863 37.7522 41.9347 37.8905 42.0351 38.0069C42.1354 38.1233 42.2616 38.2146 42.4036 38.2734C42.5456 38.3322 42.6994 38.3569 42.8527 38.3455C43.0059 38.3342 43.1544 38.287 43.2862 38.2079L44.3463 37.5716L46.0426 39.268L45.4064 40.3281C45.3272 40.4599 45.2801 40.6083 45.2687 40.7616C45.2574 40.9149 45.2821 41.0687 45.3409 41.2106C45.3997 41.3526 45.4909 41.4789 45.6074 41.5792C45.7238 41.6796 45.8621 41.7512 46.0112 41.7885L47.2109 42.0835V44.481L46.0112 44.776C45.8621 44.8133 45.7238 44.8849 45.6074 44.9853C45.4909 45.0856 45.3997 45.2119 45.3409 45.3539C45.2821 45.4958 45.2574 45.6496 45.2687 45.8029C45.2801 45.9562 45.3272 46.1046 45.4064 46.2364L46.0426 47.2965L44.3463 48.9929L43.2862 48.3566C43.1539 48.2777 43.005 48.2306 42.8514 48.2192C42.6978 48.2077 42.5436 48.2322 42.4011 48.2907C42.2592 48.3496 42.133 48.441 42.0328 48.5575C41.9325 48.6739 41.861 48.8123 41.8238 48.9614L41.5288 50.1611H39.1382L38.8431 48.9614C38.8059 48.8123 38.7342 48.674 38.6339 48.5576C38.5336 48.4412 38.4073 48.3499 38.2653 48.2911C38.1233 48.2323 37.9695 48.2076 37.8163 48.219C37.663 48.2303 37.5146 48.2775 37.3828 48.3566L36.3178 48.9978Z" stroke="#589CE7" stroke-width="0.2" mask="url(#path-6-outside-1_467_1691)"/>
<path d="M55.1379 42.2988V42.2488H55.0879H51.1543H51.1043V42.2988V44.2656V44.3156H51.1543H55.0879H55.1379V44.2656V42.2988Z" fill="#589CE7" stroke="#589CE7" stroke-width="0.1"/>
<path d="M29.5695 42.2988V42.2488H29.5195H25.5859H25.5359V42.2988V44.2656V44.3156H25.5859H29.5195H29.5695V44.2656V42.2988Z" fill="#589CE7" stroke="#589CE7" stroke-width="0.1"/>
<path d="M28.0442 12.8469L28.0942 12.8469V12.7969V10.8301V10.7801L28.0442 10.7801C26.9475 10.7799 25.8888 11.1825 25.0693 11.9115C24.2498 12.6404 23.7265 13.6449 23.5988 14.7343L23.593 14.7839L23.6426 14.7897L25.5967 15.0179L25.6463 15.0237L25.6521 14.9741C25.721 14.388 26.0027 13.8477 26.4436 13.4556C26.8846 13.0635 27.4542 12.8469 28.0442 12.8469Z" fill="#589CE7" stroke="#589CE7" stroke-width="0.1"/>
<path d="M49.1365 11.8136L49.1366 11.8635H49.1865H51.1533H51.2034L51.2033 11.8134C51.2012 9.97514 50.4701 8.21273 49.1702 6.91285C47.8703 5.61298 46.1079 4.88178 44.2696 4.87969L44.2195 4.87963V4.92969V6.89649V6.94643L44.2695 6.94649C45.5598 6.94804 46.7969 7.46131 47.7093 8.37373C48.6217 9.28614 49.135 10.5232 49.1365 11.8136Z" fill="#589CE7" stroke="#589CE7" stroke-width="0.1"/>
</svg>
