<svg width="69" height="59" viewBox="0 0 69 59" fill="none" xmlns="http://www.w3.org/2000/svg">
<path d="M30.6246 28.8154H21.9297V30.9561H30.6246V28.8154Z" fill="#589CE7"/>
<path d="M34.9683 37.835H26.2734V39.9756H34.9683V37.835Z" fill="#589CE7"/>
<path d="M43.6632 33.3115H26.2734V35.4522H43.6632V33.3115Z" fill="#589CE7"/>
<path d="M30.6246 42.3584H21.9297V44.4991H30.6246V42.3584Z" fill="#589CE7"/>
<path d="M34.9683 51.3672H26.2734V53.5079H34.9683V51.3672Z" fill="#589CE7"/>
<path d="M43.6632 46.8438H26.2734V48.9844H43.6632V46.8438Z" fill="#589CE7"/>
<path d="M57.6859 37.7278H51.4391C51.1538 37.7256 50.8808 37.6227 50.6791 37.4412C50.4773 37.2598 50.3629 37.0144 50.3604 36.7578V20.3274H18.3572V36.7578C18.3547 37.0144 18.2403 37.2598 18.0386 37.4412C17.8368 37.6227 17.5639 37.7256 17.2785 37.7278H12.5325C9.38046 37.7196 6.34694 36.6467 4.03324 34.7219C1.71953 32.797 0.294568 30.1607 0.0408181 27.3355C-0.212932 24.5103 0.723059 21.7025 2.66324 19.4687C4.60343 17.2349 7.40616 15.7381 10.5158 15.2752C10.6495 13.2399 11.312 11.2611 12.4501 9.49783C13.5883 7.7345 15.1704 6.23574 17.0694 5.1219C18.9685 4.00805 21.1315 3.31016 23.3848 3.08426C25.6382 2.85836 27.919 3.11075 30.0442 3.82115C32.5713 1.81766 35.7073 0.539877 39.0486 0.152154C39.785 0.0568663 40.5276 0.00614667 41.2716 0.000334989C43.7523 -0.0144301 46.2066 0.459065 48.4623 1.38761C50.718 2.31615 52.7204 3.67725 54.3291 5.37543C55.9379 7.07361 57.1139 9.06774 57.7748 11.2179C58.4357 13.3681 58.5654 15.6223 58.1549 17.8224C61.0903 17.8761 63.8817 18.9762 65.9152 20.8806C67.9486 22.7851 69.0574 25.3379 68.9977 27.9775C68.938 30.6171 67.7147 33.1273 65.5968 34.9558C63.4789 36.7844 60.6401 37.7815 57.7047 37.7278H57.6859ZM52.5177 35.8216H57.6859C58.8905 35.8713 60.0937 35.7009 61.223 35.3206C62.3522 34.9404 63.384 34.3582 64.256 33.6092C65.1279 32.8603 65.822 31.9601 66.2962 30.9632C66.7704 29.9662 67.0149 28.8931 67.0149 27.8088C67.0149 26.7245 66.7704 25.6514 66.2962 24.6545C65.822 23.6575 65.1279 22.7574 64.256 22.0084C63.384 21.2595 62.3522 20.6773 61.223 20.297C60.0937 19.9168 58.8905 19.7463 57.6859 19.7961C57.4233 19.7961 57.1606 19.7961 56.898 19.7961C56.7269 19.8099 56.5547 19.7869 56.3955 19.7288C56.2363 19.6707 56.0949 19.5793 55.983 19.4621C55.871 19.345 55.7918 19.2055 55.752 19.0552C55.7121 18.905 55.7127 18.7484 55.7537 18.5984C56.0505 17.5421 56.2049 16.4574 56.2133 15.368C56.2108 11.8089 54.6381 8.39604 51.8403 5.87859C49.0425 3.36113 45.2483 1.94473 41.2903 1.94026C40.6404 1.94443 39.9917 1.98953 39.3488 2.07522C36.2173 2.44018 33.2965 3.69284 31.0103 5.65144C30.8592 5.78309 30.6682 5.87172 30.4613 5.90623C30.2544 5.94074 30.0408 5.91959 29.8472 5.84543C27.97 5.11869 25.9215 4.82279 23.8856 4.98434C21.8498 5.14589 19.8905 5.75981 18.1838 6.77094C16.4772 7.78206 15.0767 9.15869 14.1083 10.7771C13.1398 12.3955 12.6338 14.2049 12.6356 16.0427C12.6412 16.2959 12.5445 16.5423 12.3634 16.7362C12.1822 16.9301 11.9291 17.0583 11.6508 17.097C8.88951 17.2022 6.28779 18.2894 4.41795 20.1195C2.54811 21.9496 1.56333 24.3727 1.68025 26.8557C1.79717 29.3387 3.00621 31.6783 5.04139 33.3597C7.07658 35.0412 9.77119 35.9267 12.5325 35.8216H16.1999V19.3659C16.1986 19.2382 16.2257 19.1116 16.2794 18.9934C16.3332 18.8752 16.4126 18.7678 16.513 18.6775C16.6134 18.5872 16.7329 18.5158 16.8643 18.4675C16.9957 18.4191 17.1365 18.3948 17.2785 18.3959H51.4391C51.5811 18.3948 51.7219 18.4191 51.8533 18.4675C51.9848 18.5158 52.1042 18.5872 52.2046 18.6775C52.305 18.7678 52.3844 18.8752 52.4382 18.9934C52.4919 19.1116 52.519 19.2382 52.5177 19.3659V35.8216Z" fill="#589CE7"/>
<path d="M51.4385 59.0002H17.2779C17.1363 59.0002 16.996 58.9713 16.8651 58.9153C16.7343 58.8592 16.6154 58.777 16.5152 58.6734C16.415 58.5698 16.3356 58.4468 16.2814 58.3114C16.2272 58.1761 16.1993 58.031 16.1993 57.8845V25.3647C16.198 25.2179 16.2251 25.0722 16.2788 24.9363C16.3326 24.8003 16.412 24.6768 16.5124 24.573C16.6128 24.4691 16.7322 24.387 16.8637 24.3314C16.9951 24.2757 17.1359 24.2478 17.2779 24.2491H51.4385C51.5805 24.2478 51.7213 24.2757 51.8527 24.3314C51.9841 24.387 52.1036 24.4691 52.204 24.573C52.3044 24.6768 52.3838 24.8003 52.4375 24.9363C52.4913 25.0722 52.5184 25.2179 52.5171 25.3647V57.8845C52.5171 58.031 52.4892 58.1761 52.435 58.3114C52.3808 58.4468 52.3013 58.5698 52.2012 58.6734C52.101 58.777 51.9821 58.8592 51.8512 58.9153C51.7204 58.9713 51.5801 59.0002 51.4385 59.0002ZM18.3566 56.7688H50.3598V26.5289H18.3566V56.7688Z" fill="#589CE7"/>
<path d="M45.2282 21.0039H43.5117V22.7071H45.2282V21.0039Z" fill="#589CE7"/>
<path d="M47.529 21.0039H45.8125V22.7071H47.529V21.0039Z" fill="#589CE7"/>
<path d="M49.818 21.0039H48.1016V22.7071H49.818V21.0039Z" fill="#589CE7"/>
</svg>
