<svg width="57" height="61" viewBox="0 0 57 61" fill="none" xmlns="http://www.w3.org/2000/svg">
<path d="M53.2624 15.2328H48.5173C48.1153 9.37888 43.2294 4.73868 37.2733 4.73868C36.0774 4.73868 34.8893 4.93074 33.7344 5.30973C32.1698 2.63632 29.3376 1 26.1981 1C21.3865 1 17.4734 4.91286 17.4734 9.72474V9.83229C17.3403 9.82717 17.2097 9.82204 17.0765 9.82204C13.4428 9.82204 10.3236 12.0602 9.01255 15.2329H3.63499C2.18307 15.2329 1 16.416 1 17.8679V47.4523C1 48.9068 2.18307 50.0873 3.63499 50.0873H24.0567V53.4854H19.5524C17.7573 53.4854 16.2951 54.945 16.2951 56.7427V59.2778C16.2951 59.6773 16.6177 60 17.0172 60H39.8744C40.2738 60 40.5965 59.6773 40.5965 59.2778V56.7427C40.5965 54.945 39.1343 53.4854 37.3392 53.4854H32.8348V50.0873H53.2566C54.7008 50.0873 55.8762 48.9068 55.8762 47.4523V17.8679C55.8814 16.416 54.7059 15.2329 53.2617 15.2329L53.2624 15.2328ZM17.0792 11.2661C17.4429 11.2661 17.8039 11.2917 18.1496 11.343C18.375 11.3763 18.6029 11.302 18.7642 11.1407C18.9255 10.9793 19.0023 10.7514 18.969 10.5261C18.9358 10.2905 18.9204 10.037 18.9204 9.72199C18.9204 5.70674 22.1854 2.44209 26.2003 2.44209C29.0017 2.44209 31.5113 4.00158 32.7456 6.51621C32.912 6.85167 33.3064 7.00531 33.6546 6.86959C34.83 6.41378 36.0464 6.18074 37.273 6.18074C42.694 6.18074 47.101 10.5904 47.101 16.0088C47.101 19.6066 45.1574 22.8586 42.0742 24.5795V21.2915C42.0742 20.892 41.7516 20.5693 41.3521 20.5693C40.9526 20.5693 40.6299 20.892 40.6299 21.2915V25.7343V25.7369V32.126L39.7951 31.2912C39.5134 31.0095 39.0551 31.0095 38.7734 31.2912C38.4917 31.5754 38.4917 32.0338 38.7734 32.3129L40.8399 34.382C40.8501 34.3922 40.8604 34.3974 40.8706 34.4076C40.8962 34.4281 40.9218 34.4537 40.95 34.4716C40.9628 34.4793 40.9756 34.4844 40.9884 34.4921C41.0166 34.51 41.0447 34.528 41.0755 34.5382C41.0908 34.5433 41.1062 34.5484 41.1216 34.5536C41.1523 34.5638 41.1805 34.574 41.2112 34.5792C41.2573 34.5894 41.3059 34.5945 41.3546 34.5945H41.3571C41.4058 34.5945 41.4545 34.5894 41.5005 34.5792C41.5262 34.574 41.5492 34.5664 41.5748 34.5587C41.5953 34.551 41.6158 34.5484 41.6363 34.5382C41.6721 34.5228 41.708 34.5023 41.7413 34.4819C41.7464 34.4767 41.7541 34.4767 41.7592 34.4716C41.7976 34.446 41.836 34.4153 41.8667 34.382V34.3794L43.9204 32.3129C44.2021 32.0287 44.1996 31.5729 43.9153 31.2912C43.6311 31.0095 43.1753 31.0095 42.8936 31.2937L42.0741 32.1183V26.203C44.763 24.9405 46.7936 22.7076 47.8128 20.0188H51.1084V41.8847H5.7908V20.0208H8.48217C8.93286 22.6916 10.5999 25.027 13.0634 26.3125C13.4167 26.4969 13.8521 26.3612 14.0365 26.0052C14.2208 25.6519 14.0826 25.2166 13.7292 25.0321C11.3042 23.7646 9.79842 21.2858 9.79842 18.5637C9.79842 14.5382 13.0634 11.2654 17.0783 11.2654L17.0792 11.2661ZM39.1582 56.7424V58.5554H17.7453V56.7424C17.7453 55.7591 18.5749 54.9294 19.5583 54.9294H37.3453C38.3287 54.932 39.1582 55.7616 39.1582 56.7424ZM31.3965 53.4851H25.5042V50.087H31.3965V53.4851ZM54.4378 47.452C54.4378 48.1101 53.9103 48.6427 53.2624 48.6427H3.63779C2.99248 48.6427 2.44705 48.0973 2.44705 47.452V17.8676C2.44705 17.2223 2.99248 16.6769 3.63779 16.6769H8.56465C8.4315 17.2838 8.35467 17.9137 8.35467 18.5616V18.5744H5.06925C4.66976 18.5744 4.34709 18.897 4.34709 19.2965V42.6093C4.34709 43.0062 4.66975 43.3314 5.06925 43.3314H51.8337C52.2332 43.3314 52.5558 43.0088 52.5558 42.6093V19.2965C52.5558 18.8971 52.2332 18.5744 51.8337 18.5744H48.2538C48.3972 17.9572 48.4868 17.3222 48.5252 16.6769H53.2652C53.9131 16.6769 54.4406 17.2095 54.4406 17.8676L54.4378 47.452Z" fill="#589CE7" stroke="#589CE7" stroke-width="0.3"/>
<path d="M21.7261 27.2861H25.7209C26.1203 27.2861 26.443 26.9635 26.443 26.564C26.443 26.1645 26.1204 25.8418 25.7209 25.8418H21.7261C21.3266 25.8418 21.0039 26.1645 21.0039 26.564C21.0039 26.9609 21.3266 27.2861 21.7261 27.2861Z" fill="#589CE7" stroke="#589CE7" stroke-width="0.3"/>
<path d="M25.717 33.376H21.7222C21.3227 33.376 21 33.6986 21 34.0981C21 34.495 21.3227 34.8203 21.7222 34.8203H25.717C26.1164 34.8203 26.4391 34.4951 26.4391 34.0981C26.4391 33.6987 26.1165 33.376 25.717 33.376Z" fill="#589CE7" stroke="#589CE7" stroke-width="0.3"/>
<path d="M34.002 27.2865C34.1967 27.2865 34.3759 27.2071 34.5116 27.0714C34.6473 26.9383 34.7216 26.7564 34.7216 26.5618C34.7216 26.3723 34.6473 26.188 34.5116 26.0522C34.2427 25.7834 33.7537 25.7834 33.4873 26.0522C33.3567 26.188 33.2773 26.3698 33.2773 26.5618C33.2773 26.7564 33.3516 26.9357 33.4873 27.0714C33.6282 27.2123 33.8074 27.2865 34.002 27.2865Z" fill="#589CE7" stroke="#589CE7" stroke-width="0.3"/>
<path d="M33.4873 33.5883C33.3516 33.7215 33.2773 33.9059 33.2773 34.0979C33.2773 34.2874 33.3516 34.4718 33.4873 34.605C33.6282 34.7458 33.8074 34.8201 34.002 34.8201C34.1915 34.8201 34.3759 34.7458 34.5116 34.605C34.6473 34.4718 34.7216 34.2926 34.7216 34.0979C34.7216 33.9084 34.6473 33.7241 34.5116 33.5883C34.2427 33.3169 33.7588 33.3169 33.4873 33.5883Z" fill="#589CE7" stroke="#589CE7" stroke-width="0.3"/>
<path d="M13.9908 23.8595L14.8282 23.0298V33.872C14.8282 34.2689 15.1508 34.5941 15.5503 34.5941C15.9498 34.5941 16.2725 34.2689 16.2725 33.872V27.245C16.5516 27.2706 16.8179 27.2834 17.0791 27.2834H19.1047V28.4024C19.1047 29.1451 19.604 29.7673 20.2801 29.9696V30.6892C19.6041 30.8915 19.1047 31.5138 19.1047 32.2564V35.9387C19.1047 36.8452 19.8422 37.5802 20.7487 37.5802H36.1436C37.0501 37.5802 37.7876 36.8452 37.7876 35.9387V32.2564C37.7876 31.5189 37.296 30.9017 36.6251 30.6943V29.967C37.296 29.7596 37.7876 29.1399 37.7876 28.405V27.2629C38.3049 27.2398 38.8196 27.1938 39.3189 27.1041C39.7107 27.0324 39.9719 26.656 39.9002 26.2642C39.8285 25.8724 39.4546 25.6112 39.0603 25.6829C38.6455 25.7598 38.2178 25.7982 37.7876 25.8187V24.7201C37.7876 23.8136 37.0501 23.0787 36.1436 23.0787L20.746 23.0812C19.8395 23.0812 19.1021 23.8162 19.1021 24.7227V25.8417H17.0765C16.8205 25.8417 16.549 25.8212 16.2699 25.7905V23.03L17.1072 23.8597C17.248 24.0005 17.4324 24.0696 17.6168 24.0696C17.8037 24.0696 17.9881 23.9979 18.1289 23.8571C18.4106 23.5729 18.4081 23.1171 18.1238 22.8354L16.0599 20.7842C16.0599 20.7816 16.0573 20.7816 16.0573 20.7816C15.9907 20.7151 15.9114 20.6613 15.8217 20.628C15.8166 20.6254 15.8115 20.6254 15.8089 20.6229C15.7295 20.5921 15.6425 20.5742 15.5503 20.5742H15.5452C15.4555 20.5742 15.3685 20.5921 15.2865 20.6229C15.2814 20.6254 15.2763 20.6254 15.2737 20.628C15.1841 20.6638 15.1047 20.7176 15.0381 20.7816C15.0381 20.7842 15.0356 20.7842 15.0356 20.7842L12.9716 22.8354C12.6874 23.117 12.6874 23.5754 12.9665 23.8571C13.2508 24.1413 13.7066 24.1412 13.9908 23.8595ZM35.1783 30.0462V30.6122H21.7244V30.0462H35.1783ZM36.3383 35.9385C36.3383 36.0512 36.2512 36.1383 36.1385 36.1383H20.7462C20.6514 36.1383 20.549 36.0512 20.549 35.9385V32.2562C20.549 32.1435 20.654 32.059 20.7462 32.059H36.1411C36.2538 32.059 36.3409 32.1461 36.3409 32.2562L36.3383 35.9385ZM20.5486 24.7201C20.5486 24.6074 20.6536 24.5229 20.7458 24.5229H36.1408C36.2535 24.5229 36.3405 24.61 36.3405 24.7201V28.4024C36.3405 28.5151 36.2535 28.6022 36.1408 28.6022H20.7458C20.6511 28.6022 20.5486 28.5177 20.5486 28.4024V24.7201Z" fill="#589CE7" stroke="#589CE7" stroke-width="0.3"/>
</svg>
