<svg width="61" height="61" viewBox="0 0 61 61" fill="none" xmlns="http://www.w3.org/2000/svg">
<path d="M15.9411 13.4618L15.9408 13.4618C15.8406 14.063 15.3334 14.4756 14.7201 14.3737C8.78774 13.4615 2.94375 18.2094 2.94375 24.6C2.94375 29.5274 6.50083 33.9085 11.5188 34.8251C11.7868 34.8288 12.0179 34.9899 12.1672 35.2015C12.3166 35.4131 12.3954 35.6898 12.3468 35.949C12.3429 36.2168 12.1818 36.4477 11.9704 36.5969C11.7566 36.7478 11.4764 36.8267 11.2149 36.775C11.2143 36.7748 11.2138 36.7747 11.2132 36.7746L11.2328 36.6766L15.9411 13.4618ZM15.9411 13.4618L15.9418 13.4542M15.9411 13.4618L15.9418 13.4542M15.9418 13.4542C16.4902 7.33001 21.5166 2.85156 27.55 2.85156C32.6685 2.85156 37.33 6.32562 38.7005 11.2596L38.7004 11.2596M15.9418 13.4542L38.7004 11.2596M38.7004 11.2596L38.702 11.2644M38.7004 11.2596L38.702 11.2644M38.702 11.2644C38.8041 11.5709 39.012 11.7787 39.3184 11.8808M38.702 11.2644L39.3184 11.8808M52.3633 18.5228C56.7912 19.2142 60.1 23.0155 60.1 27.6422C60.1 32.7664 55.9079 36.9615 50.8724 36.8687C50.8721 36.8687 50.8719 36.8687 50.8716 36.8687L50.8734 36.7687L52.3633 18.5228ZM52.3633 18.5228C52.8496 11.9852 46.2442 7.21013 40.2368 9.62644C38.2596 4.47668 33.1797 0.9 27.4578 0.9C20.8012 0.9 15.0652 5.68624 13.9149 12.3259L52.3633 18.5228ZM39.3184 11.8808C39.6157 11.9799 39.9248 11.9823 40.2318 11.7792M39.3184 11.8808L40.2318 11.7792M40.2318 11.7792C42.5013 10.5099 45.2718 10.7138 47.3507 12.0544C49.4267 13.393 50.8145 15.8663 50.3137 19.1452C50.2115 19.7612 50.7214 20.2734 51.2398 20.275L40.2318 11.7792Z" fill="#589CE7" stroke="#589CE7" stroke-width="0.2"/>
<mask id="path-2-outside-1_467_1702" maskUnits="userSpaceOnUse" x="6.63672" y="10.2324" width="47" height="50" fill="black">
<rect fill="white" x="6.63672" y="10.2324" width="47" height="50"/>
<path d="M44.143 52.9934H47.093C47.4617 54.284 48.7523 55.298 50.1352 55.298C51.8867 55.298 53.3617 53.8231 53.3617 52.0715C53.3617 50.3199 51.8867 48.8449 50.1352 48.8449C48.6602 48.8449 47.4617 49.859 47.093 51.1496H44.143C43.1289 51.1496 42.2992 50.3199 42.2992 49.3059V41.7465C42.2992 41.5621 42.207 41.2855 42.1148 41.1934L44.4195 41.9309C44.8805 42.0231 45.2492 41.9309 45.5258 41.4699L48.568 36.3074C48.7523 35.9387 48.7523 35.4777 48.3836 35.2012L45.8023 32.8965C45.9867 31.9746 46.0789 31.0527 46.0789 30.223C46.0789 28.9324 45.8945 27.6418 45.618 26.3512L48.0148 24.0465C48.2914 23.7699 48.3836 23.309 48.1992 22.9402L45.157 17.6855C44.9727 17.3168 44.5117 17.1324 44.0508 17.2246L40.6398 18.3309C38.9805 16.948 37.0445 15.8418 35.0164 15.1965L34.2789 11.9699C34.1867 11.509 33.818 11.2324 33.357 11.2324H27.3648C26.9039 11.2324 26.5352 11.509 26.443 11.9699L25.7055 15.3809C23.8617 16.0262 22.1102 16.948 20.543 18.2387L16.8555 17.0402C16.4867 16.948 16.0258 17.0402 15.7492 17.5012L12.707 22.6637C12.5227 23.0324 12.5227 23.4934 12.8914 23.7699L15.3805 26.0746C15.0117 27.3652 14.8273 28.748 14.8273 30.1309C14.8273 31.1449 14.9195 32.0668 15.1039 33.0809L12.5227 35.3855C12.2461 35.6621 12.1539 36.123 12.3383 36.4918L15.3805 41.7465C15.5648 42.1152 16.0258 42.2996 16.4867 42.2074L18.6992 41.4699C18.6992 41.5621 18.607 41.6543 18.607 41.7465V49.3059C18.607 50.3199 17.7773 51.1496 16.7633 51.1496H13.9055C13.5367 49.859 12.2461 48.8449 10.8633 48.8449C9.11172 48.8449 7.63672 50.3199 7.63672 52.0715C7.63672 53.8231 9.11172 55.298 10.8633 55.298C12.3383 55.298 13.5367 54.284 13.9055 52.9934H16.8555C18.8836 52.9934 20.543 51.334 20.543 49.3059V41.9309C22.018 43.2215 23.7695 44.2355 25.7055 44.7887L26.443 48.1996C26.5352 48.6605 26.9039 48.9371 27.3648 48.9371H29.5773V53.7309C28.2867 54.0996 27.2727 55.3902 27.2727 56.773C27.2727 58.5246 28.7477 59.9996 30.4992 59.9996C32.2508 59.9996 33.7258 58.5246 33.7258 56.773C33.7258 55.298 32.7117 54.0996 31.4211 53.7309V48.9371H33.357C33.818 48.9371 34.1867 48.6605 34.2789 48.1996L35.0164 44.8809C37.0445 44.3277 38.8883 43.3137 40.4555 41.9309V49.3059C40.4555 51.4262 42.1148 52.9934 44.143 52.9934ZM50.1352 50.6887C50.8727 50.6887 51.518 51.334 51.518 52.0715C51.518 52.809 50.8727 53.4543 50.1352 53.4543C49.3977 53.4543 48.7523 52.809 48.7523 52.0715C48.7523 51.334 49.3977 50.6887 50.1352 50.6887ZM10.8633 53.5465C10.1258 53.5465 9.48047 52.9012 9.48047 52.1637C9.48047 51.4262 10.1258 50.7809 10.8633 50.7809C11.6008 50.7809 12.2461 51.4262 12.2461 52.1637C12.2461 52.9012 11.6008 53.5465 10.8633 53.5465ZM31.882 56.8652C31.882 57.6027 31.2367 58.248 30.4992 58.248C29.7617 58.248 29.1164 57.6027 29.1164 56.8652C29.1164 56.1277 29.7617 55.4824 30.4992 55.4824C31.2367 55.4824 31.882 56.0355 31.882 56.8652ZM34.0023 43.3137C33.6336 43.4059 33.4492 43.6824 33.357 44.0512L32.6195 47.0934H28.1023L27.3648 43.8668C27.2727 43.498 26.9961 43.3137 26.7195 43.1293C24.3227 42.484 22.2023 41.1934 20.543 39.3496C20.2664 39.073 19.8977 38.9809 19.6211 39.073L16.7633 39.9949L14.5508 36.0309L16.9477 33.8184C17.2242 33.634 17.3164 33.2652 17.2242 32.8965C17.0398 31.8824 16.8555 30.8684 16.8555 29.8543C16.8555 28.4715 17.0398 27.0887 17.5008 25.798C17.593 25.4293 17.5008 25.0605 17.2242 24.8762L14.8273 22.9402L17.132 18.9762L20.543 20.0824C20.8195 20.1746 21.1883 20.0824 21.4648 19.898C22.9398 18.5152 24.7836 17.5012 26.8117 16.948C27.1805 16.8559 27.3648 16.5793 27.457 16.3027L28.1945 13.1684H32.7117L33.357 16.2105C33.4492 16.5793 33.7258 16.8559 34.0023 16.948C36.1227 17.5012 38.1508 18.6074 39.8102 20.1746C40.0867 20.359 40.3633 20.4512 40.732 20.359L43.9586 19.3449L46.1711 23.1246L43.8664 25.2449C43.5898 25.5215 43.4977 25.8902 43.5898 26.1668C43.9586 27.3652 44.143 28.748 44.143 30.0387C44.143 30.9605 44.0508 31.9746 43.8664 32.8965C43.7742 33.173 43.8664 33.5418 44.143 33.7262L46.5398 35.9387L44.2352 39.9027L41.4695 39.073C41.1008 38.9809 40.732 39.073 40.5477 39.3496C38.7961 41.2855 36.4914 42.6684 34.0023 43.3137Z"/>
</mask>
<path d="M44.143 52.9934H47.093C47.4617 54.284 48.7523 55.298 50.1352 55.298C51.8867 55.298 53.3617 53.8231 53.3617 52.0715C53.3617 50.3199 51.8867 48.8449 50.1352 48.8449C48.6602 48.8449 47.4617 49.859 47.093 51.1496H44.143C43.1289 51.1496 42.2992 50.3199 42.2992 49.3059V41.7465C42.2992 41.5621 42.207 41.2855 42.1148 41.1934L44.4195 41.9309C44.8805 42.0231 45.2492 41.9309 45.5258 41.4699L48.568 36.3074C48.7523 35.9387 48.7523 35.4777 48.3836 35.2012L45.8023 32.8965C45.9867 31.9746 46.0789 31.0527 46.0789 30.223C46.0789 28.9324 45.8945 27.6418 45.618 26.3512L48.0148 24.0465C48.2914 23.7699 48.3836 23.309 48.1992 22.9402L45.157 17.6855C44.9727 17.3168 44.5117 17.1324 44.0508 17.2246L40.6398 18.3309C38.9805 16.948 37.0445 15.8418 35.0164 15.1965L34.2789 11.9699C34.1867 11.509 33.818 11.2324 33.357 11.2324H27.3648C26.9039 11.2324 26.5352 11.509 26.443 11.9699L25.7055 15.3809C23.8617 16.0262 22.1102 16.948 20.543 18.2387L16.8555 17.0402C16.4867 16.948 16.0258 17.0402 15.7492 17.5012L12.707 22.6637C12.5227 23.0324 12.5227 23.4934 12.8914 23.7699L15.3805 26.0746C15.0117 27.3652 14.8273 28.748 14.8273 30.1309C14.8273 31.1449 14.9195 32.0668 15.1039 33.0809L12.5227 35.3855C12.2461 35.6621 12.1539 36.123 12.3383 36.4918L15.3805 41.7465C15.5648 42.1152 16.0258 42.2996 16.4867 42.2074L18.6992 41.4699C18.6992 41.5621 18.607 41.6543 18.607 41.7465V49.3059C18.607 50.3199 17.7773 51.1496 16.7633 51.1496H13.9055C13.5367 49.859 12.2461 48.8449 10.8633 48.8449C9.11172 48.8449 7.63672 50.3199 7.63672 52.0715C7.63672 53.8231 9.11172 55.298 10.8633 55.298C12.3383 55.298 13.5367 54.284 13.9055 52.9934H16.8555C18.8836 52.9934 20.543 51.334 20.543 49.3059V41.9309C22.018 43.2215 23.7695 44.2355 25.7055 44.7887L26.443 48.1996C26.5352 48.6605 26.9039 48.9371 27.3648 48.9371H29.5773V53.7309C28.2867 54.0996 27.2727 55.3902 27.2727 56.773C27.2727 58.5246 28.7477 59.9996 30.4992 59.9996C32.2508 59.9996 33.7258 58.5246 33.7258 56.773C33.7258 55.298 32.7117 54.0996 31.4211 53.7309V48.9371H33.357C33.818 48.9371 34.1867 48.6605 34.2789 48.1996L35.0164 44.8809C37.0445 44.3277 38.8883 43.3137 40.4555 41.9309V49.3059C40.4555 51.4262 42.1148 52.9934 44.143 52.9934ZM50.1352 50.6887C50.8727 50.6887 51.518 51.334 51.518 52.0715C51.518 52.809 50.8727 53.4543 50.1352 53.4543C49.3977 53.4543 48.7523 52.809 48.7523 52.0715C48.7523 51.334 49.3977 50.6887 50.1352 50.6887ZM10.8633 53.5465C10.1258 53.5465 9.48047 52.9012 9.48047 52.1637C9.48047 51.4262 10.1258 50.7809 10.8633 50.7809C11.6008 50.7809 12.2461 51.4262 12.2461 52.1637C12.2461 52.9012 11.6008 53.5465 10.8633 53.5465ZM31.882 56.8652C31.882 57.6027 31.2367 58.248 30.4992 58.248C29.7617 58.248 29.1164 57.6027 29.1164 56.8652C29.1164 56.1277 29.7617 55.4824 30.4992 55.4824C31.2367 55.4824 31.882 56.0355 31.882 56.8652ZM34.0023 43.3137C33.6336 43.4059 33.4492 43.6824 33.357 44.0512L32.6195 47.0934H28.1023L27.3648 43.8668C27.2727 43.498 26.9961 43.3137 26.7195 43.1293C24.3227 42.484 22.2023 41.1934 20.543 39.3496C20.2664 39.073 19.8977 38.9809 19.6211 39.073L16.7633 39.9949L14.5508 36.0309L16.9477 33.8184C17.2242 33.634 17.3164 33.2652 17.2242 32.8965C17.0398 31.8824 16.8555 30.8684 16.8555 29.8543C16.8555 28.4715 17.0398 27.0887 17.5008 25.798C17.593 25.4293 17.5008 25.0605 17.2242 24.8762L14.8273 22.9402L17.132 18.9762L20.543 20.0824C20.8195 20.1746 21.1883 20.0824 21.4648 19.898C22.9398 18.5152 24.7836 17.5012 26.8117 16.948C27.1805 16.8559 27.3648 16.5793 27.457 16.3027L28.1945 13.1684H32.7117L33.357 16.2105C33.4492 16.5793 33.7258 16.8559 34.0023 16.948C36.1227 17.5012 38.1508 18.6074 39.8102 20.1746C40.0867 20.359 40.3633 20.4512 40.732 20.359L43.9586 19.3449L46.1711 23.1246L43.8664 25.2449C43.5898 25.5215 43.4977 25.8902 43.5898 26.1668C43.9586 27.3652 44.143 28.748 44.143 30.0387C44.143 30.9605 44.0508 31.9746 43.8664 32.8965C43.7742 33.173 43.8664 33.5418 44.143 33.7262L46.5398 35.9387L44.2352 39.9027L41.4695 39.073C41.1008 38.9809 40.732 39.073 40.5477 39.3496C38.7961 41.2855 36.4914 42.6684 34.0023 43.3137Z" fill="#589CE7"/>
<path d="M44.143 52.9934H47.093C47.4617 54.284 48.7523 55.298 50.1352 55.298C51.8867 55.298 53.3617 53.8231 53.3617 52.0715C53.3617 50.3199 51.8867 48.8449 50.1352 48.8449C48.6602 48.8449 47.4617 49.859 47.093 51.1496H44.143C43.1289 51.1496 42.2992 50.3199 42.2992 49.3059V41.7465C42.2992 41.5621 42.207 41.2855 42.1148 41.1934L44.4195 41.9309C44.8805 42.0231 45.2492 41.9309 45.5258 41.4699L48.568 36.3074C48.7523 35.9387 48.7523 35.4777 48.3836 35.2012L45.8023 32.8965C45.9867 31.9746 46.0789 31.0527 46.0789 30.223C46.0789 28.9324 45.8945 27.6418 45.618 26.3512L48.0148 24.0465C48.2914 23.7699 48.3836 23.309 48.1992 22.9402L45.157 17.6855C44.9727 17.3168 44.5117 17.1324 44.0508 17.2246L40.6398 18.3309C38.9805 16.948 37.0445 15.8418 35.0164 15.1965L34.2789 11.9699C34.1867 11.509 33.818 11.2324 33.357 11.2324H27.3648C26.9039 11.2324 26.5352 11.509 26.443 11.9699L25.7055 15.3809C23.8617 16.0262 22.1102 16.948 20.543 18.2387L16.8555 17.0402C16.4867 16.948 16.0258 17.0402 15.7492 17.5012L12.707 22.6637C12.5227 23.0324 12.5227 23.4934 12.8914 23.7699L15.3805 26.0746C15.0117 27.3652 14.8273 28.748 14.8273 30.1309C14.8273 31.1449 14.9195 32.0668 15.1039 33.0809L12.5227 35.3855C12.2461 35.6621 12.1539 36.123 12.3383 36.4918L15.3805 41.7465C15.5648 42.1152 16.0258 42.2996 16.4867 42.2074L18.6992 41.4699C18.6992 41.5621 18.607 41.6543 18.607 41.7465V49.3059C18.607 50.3199 17.7773 51.1496 16.7633 51.1496H13.9055C13.5367 49.859 12.2461 48.8449 10.8633 48.8449C9.11172 48.8449 7.63672 50.3199 7.63672 52.0715C7.63672 53.8231 9.11172 55.298 10.8633 55.298C12.3383 55.298 13.5367 54.284 13.9055 52.9934H16.8555C18.8836 52.9934 20.543 51.334 20.543 49.3059V41.9309C22.018 43.2215 23.7695 44.2355 25.7055 44.7887L26.443 48.1996C26.5352 48.6605 26.9039 48.9371 27.3648 48.9371H29.5773V53.7309C28.2867 54.0996 27.2727 55.3902 27.2727 56.773C27.2727 58.5246 28.7477 59.9996 30.4992 59.9996C32.2508 59.9996 33.7258 58.5246 33.7258 56.773C33.7258 55.298 32.7117 54.0996 31.4211 53.7309V48.9371H33.357C33.818 48.9371 34.1867 48.6605 34.2789 48.1996L35.0164 44.8809C37.0445 44.3277 38.8883 43.3137 40.4555 41.9309V49.3059C40.4555 51.4262 42.1148 52.9934 44.143 52.9934ZM50.1352 50.6887C50.8727 50.6887 51.518 51.334 51.518 52.0715C51.518 52.809 50.8727 53.4543 50.1352 53.4543C49.3977 53.4543 48.7523 52.809 48.7523 52.0715C48.7523 51.334 49.3977 50.6887 50.1352 50.6887ZM10.8633 53.5465C10.1258 53.5465 9.48047 52.9012 9.48047 52.1637C9.48047 51.4262 10.1258 50.7809 10.8633 50.7809C11.6008 50.7809 12.2461 51.4262 12.2461 52.1637C12.2461 52.9012 11.6008 53.5465 10.8633 53.5465ZM31.882 56.8652C31.882 57.6027 31.2367 58.248 30.4992 58.248C29.7617 58.248 29.1164 57.6027 29.1164 56.8652C29.1164 56.1277 29.7617 55.4824 30.4992 55.4824C31.2367 55.4824 31.882 56.0355 31.882 56.8652ZM34.0023 43.3137C33.6336 43.4059 33.4492 43.6824 33.357 44.0512L32.6195 47.0934H28.1023L27.3648 43.8668C27.2727 43.498 26.9961 43.3137 26.7195 43.1293C24.3227 42.484 22.2023 41.1934 20.543 39.3496C20.2664 39.073 19.8977 38.9809 19.6211 39.073L16.7633 39.9949L14.5508 36.0309L16.9477 33.8184C17.2242 33.634 17.3164 33.2652 17.2242 32.8965C17.0398 31.8824 16.8555 30.8684 16.8555 29.8543C16.8555 28.4715 17.0398 27.0887 17.5008 25.798C17.593 25.4293 17.5008 25.0605 17.2242 24.8762L14.8273 22.9402L17.132 18.9762L20.543 20.0824C20.8195 20.1746 21.1883 20.0824 21.4648 19.898C22.9398 18.5152 24.7836 17.5012 26.8117 16.948C27.1805 16.8559 27.3648 16.5793 27.457 16.3027L28.1945 13.1684H32.7117L33.357 16.2105C33.4492 16.5793 33.7258 16.8559 34.0023 16.948C36.1227 17.5012 38.1508 18.6074 39.8102 20.1746C40.0867 20.359 40.3633 20.4512 40.732 20.359L43.9586 19.3449L46.1711 23.1246L43.8664 25.2449C43.5898 25.5215 43.4977 25.8902 43.5898 26.1668C43.9586 27.3652 44.143 28.748 44.143 30.0387C44.143 30.9605 44.0508 31.9746 43.8664 32.8965C43.7742 33.173 43.8664 33.5418 44.143 33.7262L46.5398 35.9387L44.2352 39.9027L41.4695 39.073C41.1008 38.9809 40.732 39.073 40.5477 39.3496C38.7961 41.2855 36.4914 42.6684 34.0023 43.3137Z" stroke="#589CE7" stroke-width="0.4" mask="url(#path-2-outside-1_467_1702)"/>
<path d="M30.5004 26.3598C31.2748 26.3598 31.8754 26.9603 31.8754 27.7348C31.8754 28.0341 31.9756 28.2912 32.1582 28.4738C32.3408 28.6564 32.598 28.7566 32.8973 28.7566C33.1966 28.7566 33.4537 28.6564 33.6363 28.4738C33.8189 28.2912 33.9191 28.0341 33.9191 27.7348C33.9191 26.2407 32.9105 24.9305 31.5223 24.5245V23.9551C31.5223 23.6558 31.4221 23.3986 31.2395 23.216C31.0569 23.0334 30.7997 22.9332 30.5004 22.9332C30.2011 22.9332 29.9439 23.0334 29.7613 23.216C29.5787 23.3986 29.4785 23.6558 29.4785 23.9551V24.5245C28.0903 24.9305 27.0816 26.2407 27.0816 27.7348C27.0816 29.6337 28.6014 31.1535 30.5004 31.1535C31.2748 31.1535 31.8754 31.7541 31.8754 32.5285C31.8754 33.303 31.2748 33.9035 30.5004 33.9035C29.7259 33.9035 29.1254 33.303 29.1254 32.5285C29.1254 32.2292 29.0252 31.9721 28.8426 31.7894C28.66 31.6068 28.4028 31.5066 28.1035 31.5066C27.8042 31.5066 27.5471 31.6068 27.3644 31.7894C27.1818 31.9721 27.0816 32.2292 27.0816 32.5285C27.0816 34.0226 28.0903 35.3327 29.4785 35.7388V36.3082C29.4785 36.6075 29.5787 36.8647 29.7613 37.0473C29.9439 37.2299 30.2011 37.3301 30.5004 37.3301C30.7997 37.3301 31.0569 37.2299 31.2395 37.0473C31.4221 36.8647 31.5223 36.6075 31.5223 36.3082V35.7388C32.9105 35.3327 33.9191 34.0226 33.9191 32.5285C33.9191 30.6295 32.3994 29.1098 30.5004 29.1098C29.7259 29.1098 29.1254 28.5092 29.1254 27.7348C29.1254 26.9603 29.7259 26.3598 30.5004 26.3598Z" fill="#589CE7" stroke="#589CE7" stroke-width="0.2"/>
<path d="M30.4992 18.6002C24.1752 18.6002 19.0602 23.7153 19.0602 30.0393C19.0602 36.3632 24.1752 41.4783 30.4992 41.4783C36.8232 41.4783 41.9383 36.3632 41.9383 30.0393C41.9383 23.808 36.8237 18.6002 30.4992 18.6002ZM30.4992 39.5268C25.2998 39.5268 21.1039 35.3309 21.1039 30.1314C21.1039 24.932 25.2998 20.7361 30.4992 20.7361C35.6987 20.7361 39.8945 24.932 39.8945 30.1314C39.8945 35.3309 35.6987 39.5268 30.4992 39.5268Z" fill="#589CE7" stroke="#589CE7" stroke-width="0.2"/>
</svg>
