<svg width="59" height="59" viewBox="0 0 59 59" fill="none" xmlns="http://www.w3.org/2000/svg">
<path d="M19.9849 49.4844H10.4688V51.3876H19.9849V49.4844Z" fill="#589CE7"/>
<path d="M4.7563 17.1288C5.28186 17.1288 5.70791 16.7028 5.70791 16.1772C5.70791 15.6516 5.28186 15.2256 4.7563 15.2256C4.23074 15.2256 3.80469 15.6516 3.80469 16.1772C3.80469 16.7028 4.23074 17.1288 4.7563 17.1288Z" fill="#589CE7"/>
<path d="M19.0318 15.2256H9.51562V17.1288H19.0318V15.2256Z" fill="#589CE7"/>
<path d="M24.7402 22.8389H3.80469V30.4518H24.7402V22.8389ZM22.8369 28.5485H5.70791V24.7421H22.8369V28.5485Z" fill="#589CE7"/>
<path d="M15.224 32.3545H3.80469V34.2577H15.224V32.3545Z" fill="#589CE7"/>
<path d="M15.224 36.1611H3.80469V38.0644H15.224V36.1611Z" fill="#589CE7"/>
<path d="M15.224 39.9678H3.80469V47.5807H15.224V39.9678ZM13.3208 45.6775H5.70791V41.871H13.3208V45.6775Z" fill="#589CE7"/>
<path d="M47.5806 35.2097H46.629C46.1047 35.2097 45.6774 34.7824 45.6774 34.2581V26.6452H50.4355C55.1574 26.6452 59 22.8025 59 18.0806C59 13.4891 55.3677 9.72929 50.8256 9.52469C49.1575 3.87877 44.0149 0 38.0645 0C32.8259 0 28.1706 3.00139 25.9885 7.70426C25.5794 7.65002 25.1654 7.6129 24.7419 7.6129C21.7405 7.6129 18.9514 9.03461 17.1576 11.4194H4.75806C2.13447 11.4194 0 13.5538 0 16.1774V54.2419C0 56.8655 2.13447 59 4.75806 59H23.7903C26.4139 59 28.5484 56.8655 28.5484 54.2419V43.7742H30.4516V39.9677H31.4032C32.9772 39.9677 34.2581 38.6869 34.2581 37.1129V26.6452H38.0645V49.4839H33.3064V59H44.7258V49.4839H39.9677V26.6452H43.7742V34.2581C43.7742 35.832 45.0551 37.1129 46.629 37.1129H47.5806V40.9194H59V31.4032H47.5806V35.2097ZM42.8226 57.0968H35.2097V51.3871H42.8226V57.0968ZM24.7419 9.51613C28.9395 9.51613 32.3548 12.9315 32.3548 17.129H34.2581C34.2581 12.9829 31.5888 9.45713 27.8813 8.15627C29.8169 4.32698 33.7061 1.90323 38.0645 1.90323C43.385 1.90323 47.9518 5.52126 49.1689 10.7028L49.3497 11.4707L50.2842 11.427C50.3346 11.4232 50.3841 11.4194 50.4355 11.4194C54.1087 11.4194 57.0968 14.4074 57.0968 18.0806C57.0968 21.7539 54.1087 24.7419 50.4355 24.7419H28.5484V16.1774C28.5484 13.5538 26.4139 11.4194 23.7903 11.4194H19.7184C21.0915 10.208 22.8663 9.51613 24.7419 9.51613ZM4.75806 13.3226H23.7903C25.3643 13.3226 26.6452 14.6035 26.6452 16.1774V19.0323H1.90323V16.1774C1.90323 14.6035 3.1841 13.3226 4.75806 13.3226ZM23.7903 57.0968H4.75806C3.1841 57.0968 1.90323 55.8159 1.90323 54.2419V54.2172C2.70068 54.8215 3.68274 55.1935 4.75806 55.1935H23.7903C24.8656 55.1935 25.8477 54.8215 26.6452 54.2172V54.2419C26.6452 55.8159 25.3643 57.0968 23.7903 57.0968ZM26.6452 50.4355C26.6452 52.0095 25.3643 53.2903 23.7903 53.2903H4.75806C3.1841 53.2903 1.90323 52.0095 1.90323 50.4355V20.9355H26.6452V34.2581H19.0323V43.7742H26.6452V50.4355ZM28.5484 41.871H20.9355V36.1613H28.5484V41.871ZM32.3548 37.1129C32.3548 37.6372 31.9276 38.0645 31.4032 38.0645H30.4516V34.2581H28.5484V26.6452H32.3548V37.1129ZM49.4839 33.3064H57.0968V39.0161H49.4839V33.3064Z" fill="#589CE7"/>
<path d="M30.9727 6.97841L32.3906 8.24787C32.8178 7.77111 33.3041 7.34764 33.8361 6.99174L32.7769 5.41016C32.1127 5.85456 31.5056 6.3827 30.9727 6.97841Z" fill="#589CE7"/>
<path d="M38.0624 5.70987C41.6433 5.70987 44.696 8.14409 45.4868 11.6298L47.3425 11.2092C46.3538 6.85085 42.5378 3.80664 38.0624 3.80664C36.9747 3.80664 35.9079 3.9884 34.8906 4.34811L35.5244 6.14285C36.338 5.85546 37.1916 5.70987 38.0624 5.70987Z" fill="#589CE7"/>
</svg>
