<svg width="47" height="59" viewBox="0 0 47 59" fill="none" xmlns="http://www.w3.org/2000/svg">
<path d="M38.1054 58.9996H8.60546C6.57243 58.9996 4.91797 57.3452 4.91797 55.3121V35.6455C4.91797 33.6125 6.57243 31.958 8.60546 31.958H18.4388C19.1173 31.958 19.668 32.5087 19.668 33.1872C19.668 33.8657 19.1173 34.4163 18.4388 34.4163H8.60546C7.92942 34.4163 7.3763 34.967 7.3763 35.6455V55.3121C7.3763 55.9906 7.92942 56.5413 8.60546 56.5413H38.1054C38.7815 56.5413 39.3346 55.9906 39.3346 55.3121V35.6455C39.3346 34.967 38.7815 34.4163 38.1054 34.4163H28.2721C27.5936 34.4163 27.0429 33.8657 27.0429 33.1872C27.0429 32.5087 27.5936 31.958 28.2721 31.958H38.1054C40.1385 31.958 41.7929 33.6125 41.7929 35.6455V55.3121C41.7929 57.3452 40.1385 58.9996 38.1054 58.9996Z" fill="#589CE7"/>
<path d="M40.5638 54.0833H6.14713C5.46863 54.0833 4.91797 53.5327 4.91797 52.8542C4.91797 52.1757 5.46863 51.625 6.14713 51.625H40.5638C41.2423 51.625 41.7929 52.1757 41.7929 52.8542C41.7929 53.5327 41.2423 54.0833 40.5638 54.0833Z" fill="#589CE7"/>
<path d="M18.4388 39.3333H6.14713C5.46863 39.3333 4.91797 38.7827 4.91797 38.1042C4.91797 37.4257 5.46863 36.875 6.14713 36.875H18.4388C19.1173 36.875 19.668 37.4257 19.668 38.1042C19.668 38.7827 19.1173 39.3333 18.4388 39.3333Z" fill="#589CE7"/>
<path d="M36.1645 29.5H28.2708C27.5923 29.5 27.0416 28.9493 27.0416 28.2708C27.0416 27.5923 27.5923 27.0416 28.2708 27.0416H36.1645C40.6215 27.0416 44.2499 23.5508 44.2499 19.2561C44.2499 14.9614 40.6215 11.4706 36.1645 11.4706C36.0514 11.4706 35.9457 11.4878 35.8375 11.5025L35.4786 11.5443C34.923 11.5714 34.4068 11.2567 34.22 10.7331C32.445 5.78445 27.6095 2.45833 22.1889 2.45833C15.163 2.45833 9.44491 7.97237 9.44491 14.75C9.44491 15.4285 8.89424 15.9791 8.21574 15.9791C5.04204 15.9791 2.45833 18.4596 2.45833 21.5104C2.45833 24.5612 5.04204 27.0416 8.21574 27.0416H18.4375C19.116 27.0416 19.6666 27.5923 19.6666 28.2708C19.6666 28.9493 19.116 29.5 18.4375 29.5H8.21574C3.68504 29.5 0 25.9157 0 21.5104C0 17.4959 3.06062 14.1624 7.03083 13.6044C7.63557 6.00324 14.2042 0 22.1889 0C28.3151 0 33.8193 3.58425 36.1817 9.0147C41.9883 9.02207 46.7083 13.6167 46.7083 19.2561C46.7083 24.9053 41.9785 29.5 36.1645 29.5Z" fill="#589CE7"/>
<path d="M40.5638 39.3333H28.2721C27.5936 39.3333 27.043 38.7827 27.043 38.1042C27.043 37.4257 27.5936 36.875 28.2721 36.875H40.5638C41.2423 36.875 41.793 37.4257 41.793 38.1042C41.793 38.7827 41.2423 39.3333 40.5638 39.3333Z" fill="#589CE7"/>
<path d="M23.3549 46.7086C22.6764 46.7086 22.1258 46.158 22.1258 45.4795V21.405L19.3085 24.2223C18.8291 24.7017 18.0498 24.7017 17.5705 24.2223C17.0911 23.7429 17.0911 22.9636 17.5705 22.4842L22.4871 17.5676C22.8411 17.2136 23.3697 17.1103 23.8269 17.3021C24.2842 17.4914 24.5841 17.9413 24.5841 18.4378V45.4795C24.5841 46.158 24.0334 46.7086 23.3549 46.7086Z" fill="#589CE7"/>
<path d="M28.2714 24.5841C27.9568 24.5841 27.6421 24.4636 27.4012 24.2252L22.4845 19.3085C22.0052 18.8291 22.0052 18.0498 22.4845 17.5705C22.9639 17.0911 23.7432 17.0911 24.2226 17.5705L29.1392 22.4871C29.6186 22.9665 29.6186 23.7458 29.1392 24.2252C28.9008 24.4636 28.5861 24.5841 28.2714 24.5841Z" fill="#589CE7"/>
</svg>
