<svg width="61" height="61" viewBox="0 0 61 61" fill="none" xmlns="http://www.w3.org/2000/svg">
<path d="M34.8791 25.7341L34.8792 25.7343L40.8858 33.1715L40.886 33.1718C41.0761 33.4081 41.159 33.7147 41.1119 34.0149L41.1119 34.015L40.7867 36.0803L40.7867 36.0805C40.7383 36.3842 40.5636 36.6526 40.3043 36.8184L40.3043 36.8184L40.2233 36.6922L40.3041 36.8185L34.8791 25.7341ZM34.8791 25.7341C34.6749 25.4822 34.3681 25.3346 34.0427 25.3346H32.9049L32.4181 23.173L32.4181 23.1729M34.8791 25.7341L32.4181 23.1729M38.1201 38.22C37.6902 38.4961 37.1254 38.4315 36.7693 38.0654C35.7262 36.9953 34.449 36.4576 33.2215 36.5061L38.9121 44.9048C39.1721 45.2884 39.1565 45.7962 38.8735 46.164L38.8735 46.1641L37.7636 47.6054C38.8775 47.8254 39.7224 48.8076 39.7224 49.9862V52.9997C39.7224 53.5939 39.24 54.0757 38.6471 54.0757H20.9483C20.354 54.0757 19.873 53.5938 19.873 52.9997V49.9862C19.873 48.8077 20.7168 47.8248 21.8317 47.6053L20.7225 46.1641L20.8413 46.0726L20.7225 46.1641C20.5771 45.9752 20.4991 45.7448 20.4991 45.5075V35.8811C20.4991 32.2923 22.0738 29.1179 24.9313 26.9475L24.9313 26.9475L30.7183 22.5535L38.1201 38.22ZM38.1201 38.22L38.039 38.0938L38.12 38.22L38.1201 38.22ZM32.4181 23.1729C32.3374 22.8164 32.0812 22.524 31.7372 22.3995M32.4181 23.1729L31.7372 22.3995M48.659 16.8367C48.5327 16.6101 48.5091 16.3417 48.5907 16.0963L48.5278 16.9095M48.659 16.8367L48.5277 16.9092C48.5277 16.9093 48.5278 16.9094 48.5278 16.9095M48.659 16.8367C48.7841 17.0634 48.9987 17.2272 49.2495 17.2882L48.659 16.8367ZM48.5278 16.9095C48.3808 16.6456 48.3537 16.3336 48.4483 16.049L48.4484 16.0489C48.6693 15.3862 48.781 14.6927 48.781 13.9881C48.781 10.3956 45.8575 7.47272 42.2662 7.47272C40.9473 7.47272 39.6792 7.86439 38.5957 8.6052C38.116 8.9332 37.4622 8.82083 37.1195 8.35167C34.6708 5.00134 30.7346 3.0007 26.591 3.0007C19.4053 3.0007 13.5584 8.84768 13.5584 16.0341V16.0342V16.0344V16.0346V16.0347V16.0349V16.0351V16.0352V16.0354V16.0356V16.0357V16.0359V16.0361V16.0362V16.0364V16.0366V16.0367V16.0369V16.0371V16.0372V16.0374V16.0376V16.0377V16.0379V16.0381V16.0382V16.0384V16.0386V16.0387V16.0389V16.0391V16.0392V16.0394V16.0396V16.0397V16.0399V16.0401V16.0402V16.0404V16.0406V16.0407V16.0409V16.0411V16.0412V16.0414V16.0416V16.0417V16.0419V16.0421V16.0422V16.0424V16.0426V16.0427V16.0429V16.0431V16.0432V16.0434V16.0436V16.0437V16.0439V16.0441V16.0443V16.0444V16.0446V16.0448V16.0449V16.0451V16.0453V16.0454V16.0456V16.0458V16.0459V16.0461V16.0463V16.0464V16.0466V16.0468V16.0469V16.0471V16.0473V16.0474V16.0476V16.0478V16.0479V16.0481V16.0483V16.0484V16.0486V16.0488V16.0489V16.0491V16.0493V16.0494V16.0496V16.0498V16.0499V16.0501V16.0503V16.0504V16.0506V16.0508V16.051V16.0511V16.0513V16.0515V16.0516V16.0518V16.052V16.0521V16.0523V16.0525V16.0526V16.0528V16.053V16.0531V16.0533V16.0535V16.0536V16.0538V16.054V16.0541V16.0543V16.0545V16.0546V16.0548V16.055V16.0551V16.0553V16.0555V16.0557V16.0558V16.056V16.0562V16.0563V16.0565V16.0567V16.0568V16.057V16.0572V16.0573V16.0575V16.0577V16.0578V16.058V16.0582V16.0583V16.0585V16.0587V16.0588V16.059V16.0592V16.0594V16.0595V16.0597V16.0599V16.06V16.0602V16.0604V16.0605V16.0607V16.0609V16.061V16.0612V16.0614V16.0615V16.0617V16.0619V16.062V16.0622V16.0624V16.0625V16.0627V16.0629V16.0631V16.0632V16.0634V16.0636V16.0637V16.0639V16.0641V16.0642V16.0644V16.0646V16.0647V16.0649V16.0651V16.0652V16.0654V16.0656V16.0657V16.0659V16.0661V16.0663V16.0664V16.0666V16.0668V16.0669V16.0671V16.0673V16.0674V16.0676V16.0678V16.0679V16.0681V16.0683V16.0684V16.0686V16.0688V16.069V16.0691V16.0693V16.0695V16.0696V16.0698V16.07V16.0701V16.0703V16.0705V16.0706V16.0708V16.071V16.0711V16.0713V16.0715V16.0717V16.0718V16.072V16.0722V16.0723V16.0725V16.0727V16.0728V16.073V16.0732V16.0733V16.0735V16.0737V16.0739V16.074V16.0742V16.0744V16.0745V16.0747V16.0749V16.075V16.0752V16.0754V16.0755V16.0757V16.0759V16.076V16.0762V16.0764V16.0766V16.0767V16.0769V16.0771V16.0772V16.0774V16.0776V16.0777V16.0779V16.0781V16.0782V16.0784V16.0786V16.0788V16.0789V16.0791V16.0793V16.0794V16.0796V16.0798V16.0799V16.0801V16.0803V16.0804V16.0806V16.0808V16.081V16.0811V16.0813V16.0815V16.0816V16.0818V16.082V16.0821V16.0823V16.0825V16.0826V16.0828V16.083V16.0832V16.0833V16.0835V16.0837V16.0838V16.084V16.0842V16.0843V16.0845V16.0847V16.0848V16.085V16.0852V16.0854V16.0855V16.0857V16.0859V16.086V16.0862V16.0864V16.0865V16.0867V16.0869V16.0871V16.0872V16.0874V16.0876V16.0877V16.0879V16.0881V16.0882V16.0884V16.0886V16.0887V16.0889V16.0891V16.0893V16.0894V16.0896V16.0898V16.0899V16.0901V16.0903V16.0904V16.0906V16.0908V16.091V16.0911V16.0913V16.0915V16.0916V16.0918V16.092V16.0921V16.0923V16.0925V16.0926V16.0928V16.093V16.0932V16.0933V16.0935V16.0937V16.0938V16.094V16.0942V16.0943V16.0945V16.0947V16.0949V16.095V16.0952V16.0954V16.0955V16.0957V16.0959V16.096V16.0962V16.0964V16.0965V16.0967V16.0969V16.0971V16.0972V16.0974V16.0976V16.0977V16.0979V16.0981V16.0982V16.0984V16.0986V16.0988V16.0989V16.0991V16.0993V16.0994V16.0996V16.0998V16.0999V16.1001V16.1003V16.1005V16.1006V16.1008V16.101V16.1011V16.1013V16.1015V16.1016V16.1018V16.102V16.1022V16.1023V16.1025V16.1027V16.1028V16.103V16.1032V16.1033V16.1035V16.1037V16.1038V16.104V16.1042V16.1044V16.1045V16.1047V16.1049V16.105V16.1052V16.1054V16.1055V16.1057V16.1059V16.1061V16.1062V16.1064V16.1066V16.1067V16.1069V16.1071V16.1072V16.1074V16.1076V16.1078V16.1079V16.1081V16.1083V16.1084V16.1086V16.1088V16.1089V16.1091V16.1093V16.1095V16.1096V16.1098V16.11V16.1101V16.1103V16.1105V16.1106V16.1108V16.111V16.1112V16.1113V16.1115V16.1117V16.1118V16.112V16.1122V16.1123V16.1125V16.1127V16.1129V16.113V16.1132V16.1134V16.1135V16.1137V16.1139V16.114V16.1142V16.1144V16.1146V16.1147V16.1149V16.1151V16.1152V16.1154V16.1156V16.1157V16.1159V16.1161V16.1163V16.1164V16.1166V16.1168V16.1169V16.1171V16.1173V16.1174V16.1176V16.1178V16.118V16.1181V16.1183V16.1185V16.1186V16.1188L13.5601 16.1803L13.5602 16.1828C13.5665 16.7157 13.1824 17.1724 12.6568 17.2568C7.15322 18.1493 3.00129 23.0258 3.00129 28.5979C3.00129 33.0815 5.69779 37.1799 9.71524 39.0378C9.88889 27.7236 19.1458 18.5731 30.5003 18.5731C41.8548 18.5731 51.1123 27.7236 51.2854 39.0377C55.3028 37.1799 57.9993 33.0815 57.9993 28.5979C57.9993 23.285 54.3872 18.6947 49.214 17.434C48.9225 17.363 48.6732 17.1727 48.5278 16.9095ZM31.7372 22.3995C31.3932 22.274 31.0092 22.3323 30.7184 22.5534L31.7372 22.3995ZM30.6863 25.2774L30.9946 26.6466L30.9947 26.647C31.1063 27.1368 31.5415 27.4859 32.0446 27.4859H33.5292L38.9146 34.1532L38.7384 35.269L37.6585 35.9624C35.6939 34.3408 33.2229 33.8949 31.0348 34.8317L31.0346 34.8318C30.7403 34.9582 30.517 35.2103 30.427 35.518L30.427 35.5181C30.3373 35.8258 30.3876 36.1581 30.5685 36.4241L36.6966 45.468L35.0864 47.5587H24.5096L22.6504 45.1422V35.8805C22.6504 32.9349 23.8875 30.4412 26.2333 28.66L26.2333 28.66L30.6863 25.2774ZM57.1732 20.1152L57.1732 20.1151C55.5136 18.0368 53.2712 16.4766 50.7733 15.6459C50.8791 15.1018 50.9323 14.5473 50.9323 13.9881C50.9323 9.20967 47.0453 5.32202 42.2668 5.32202C40.8548 5.32202 39.4847 5.65974 38.2505 6.30658C35.379 2.87298 31.0911 0.85 26.5922 0.85C18.4626 0.85 11.805 7.27145 11.4255 15.3088C8.59181 15.9655 6.02333 17.5264 4.11574 19.7657L4.11573 19.7657C2.01066 22.2375 0.85 25.3743 0.85 28.5979C0.85 31.5674 1.79811 34.3951 3.58969 36.7757L3.58974 36.7758C5.17341 38.8775 7.36215 40.5 9.81272 41.4044C10.8431 51.9125 19.7268 60.15 30.5003 60.15C41.2738 60.15 50.1575 51.9125 51.1879 41.4044C53.6385 40.5 55.8278 38.8775 57.4109 36.7758L57.4109 36.7757C59.2025 34.3951 60.15 31.5674 60.15 28.5979C60.1506 25.5326 59.0927 22.5206 57.1732 20.1152ZM31.6656 31.6171C32.298 31.6171 32.8104 31.1037 32.8104 30.4716C32.8104 29.8395 32.2986 29.3261 31.6656 29.3261C31.0326 29.3261 30.5207 29.8395 30.5207 30.4716C30.5207 31.1037 31.0332 31.6171 31.6656 31.6171ZM37.5729 49.9862V51.9244H22.0249V49.9862C22.0249 49.8376 22.1528 49.7094 22.3022 49.7094H37.2956C37.4445 49.7094 37.5729 49.8378 37.5729 49.9862ZM49.1376 39.3612C49.1376 49.638 40.7775 57.9993 30.5003 57.9993C20.2237 57.9993 11.863 49.638 11.863 39.3612C11.863 29.0839 20.2237 20.7232 30.5003 20.7232C40.7769 20.7232 49.1376 29.0839 49.1376 39.3612Z" fill="#589CE7" stroke="#589CE7" stroke-width="0.3"/>
</svg>
