<svg width="61" height="61" viewBox="0 0 61 61" fill="none" xmlns="http://www.w3.org/2000/svg">
<mask id="path-1-outside-1_467_1708" maskUnits="userSpaceOnUse" x="0" y="0" width="61" height="61" fill="black">
<rect fill="white" width="61" height="61"/>
<path d="M52.5334 52.7649H50.8568V27.3821C50.8568 26.1514 50.3555 25.0424 49.5576 24.2717C52.0524 23.3181 53.8414 20.7866 53.8414 17.8225C53.8414 14.0662 50.9692 11.0076 47.4229 10.971C46.3915 8.51261 44.0724 6.89794 41.4969 6.89794C40.6528 6.89794 39.8145 7.07463 39.0367 7.40974C37.8815 5.32901 35.7583 4.01904 33.445 4.01904C32.1543 4.01904 30.9502 4.42117 29.939 5.11267C28.8587 4.3115 27.5594 3.87586 26.2255 3.87586C25.3786 3.87586 24.5402 4.05255 23.7653 4.38765C22.6101 2.30693 20.4898 1 18.1736 1C14.5984 1 11.6916 4.07687 11.6916 7.85447C11.6916 7.9885 11.6945 8.1256 11.7031 8.26269C9.0412 9.15222 7.16869 11.7996 7.16869 14.8003C7.16869 18.5809 10.0783 21.6547 13.6506 21.6547H22.3568L22.7025 22.2183L22.3309 23.1657H14.1668C11.9715 23.1657 10.1855 25.0576 10.1855 27.3789V52.7617H8.47424C7.63592 52.7617 6.95602 53.4837 6.95602 54.3672V54.9673C6.95602 57.7426 9.09071 60 11.7152 60H49.2871C51.9116 60 54.0463 57.7426 54.0463 54.9673V54.3672C54.0463 53.4807 53.3635 52.7617 52.528 52.7617L52.5334 52.7649ZM47.999 52.7649V27.3821C47.999 26.7363 47.4833 26.1879 46.8697 26.1879H41.0734V24.6769H46.8697C48.2785 24.6769 49.428 25.8894 49.428 27.3822V52.765L47.999 52.7649ZM23.9322 54.2729H37.0744V54.9827C37.0744 55.3757 36.7719 55.6956 36.4003 55.6956H24.6062C24.2346 55.6956 23.935 55.3757 23.935 54.9827V54.2729H23.9322ZM14.4715 52.7649V27.6987H19.9336V28.1709C19.9336 28.5274 20.1698 28.835 20.4982 28.9082L22.1806 29.2859L22.7021 30.6172L21.7658 32.1404C21.5843 32.4389 21.6218 32.8319 21.8609 33.0847L24.1973 35.5584C24.4364 35.8113 24.808 35.8539 25.0903 35.659L26.5307 34.6689L27.7925 35.2203L28.1497 36.9963C28.2189 37.3436 28.5099 37.5934 28.8469 37.5934H32.1542C32.4912 37.5934 32.7822 37.3436 32.8513 36.9963L33.2086 35.2203L34.4675 34.6689L35.9079 35.659C36.1902 35.8539 36.5618 35.8113 36.8009 35.5584L39.1402 33.0847C39.3793 32.8319 39.4168 32.4389 39.2353 32.1404L38.299 30.6172L38.8233 29.2859L40.5028 28.9082C40.8312 28.835 41.0675 28.5274 41.0675 28.1709V27.6987H46.567V52.7649H14.4715ZM23.3562 24.5004L24.1657 22.4319C24.2551 22.2035 24.232 21.9415 24.1052 21.7313L23.2813 20.3847L24.8024 18.7762L26.0758 19.6475C26.2717 19.7815 26.5194 19.8059 26.7384 19.7115L28.6944 18.8554C28.9134 18.761 29.0718 18.5569 29.1208 18.3162L29.4348 16.7473H31.5868L31.9009 18.3162C31.9498 18.5599 32.1083 18.761 32.3243 18.8554L34.2775 19.7115C34.4936 19.8059 34.7414 19.7815 34.9401 19.6475L36.2135 18.7762L37.7346 20.3847L36.9078 21.7282C36.7781 21.9384 36.758 22.2004 36.8473 22.4289L37.6597 24.4974C37.749 24.7259 37.942 24.8934 38.1696 24.9452L39.6504 25.2773V27.553L38.1696 27.885C37.9392 27.9368 37.749 28.1044 37.6597 28.3329L36.8473 30.3983C36.758 30.6298 36.7781 30.8918 36.9078 31.099L37.7346 32.4455L36.2135 34.0571L34.9401 33.1858C34.7442 33.0517 34.4965 33.0274 34.2775 33.1218L32.3243 33.9779C32.1083 34.0723 31.947 34.2764 31.9009 34.5171L31.5868 36.083H29.4348L29.1208 34.5171C29.0718 34.2734 28.9134 34.0723 28.6944 33.9779L26.7384 33.1218C26.5223 33.0274 26.2746 33.0517 26.0758 33.1858L24.8053 34.0571L23.2842 32.4455L24.1081 31.099C24.2349 30.8918 24.2579 30.6298 24.1686 30.3983L23.3591 28.3329C23.2698 28.1044 23.0767 27.9338 22.8492 27.885L21.3655 27.553V25.2773L22.8492 24.9452C23.0796 24.8934 23.2698 24.7259 23.3591 24.4943L23.3562 24.5004ZM38.0656 8.71093C38.1463 8.90285 38.299 9.05213 38.4891 9.11915C38.6792 9.18617 38.8867 9.1679 39.0595 9.06432C39.8028 8.63173 40.644 8.40629 41.4939 8.40629C43.6401 8.40629 45.5587 9.84424 46.2646 11.9858C46.3712 12.3087 46.6679 12.5159 46.9906 12.4885C47.0972 12.4793 47.2153 12.4763 47.3536 12.4763C50.1422 12.4763 52.4095 14.8738 52.4095 17.8197C52.4095 20.7656 50.1423 23.1662 47.3536 23.1662H38.6732L38.3016 22.2188L39.2407 20.6956C39.4251 20.3971 39.3847 20.001 39.1456 19.7482L36.8064 17.2775C36.5672 17.0247 36.1956 16.9851 35.9133 17.177L34.4729 18.1671L33.214 17.6157L32.8568 15.8366C32.7876 15.4893 32.4967 15.2395 32.1596 15.2395H28.8524C28.5153 15.2395 28.2243 15.4893 28.1552 15.8366L27.798 17.6157L26.5362 18.1671L25.0958 17.177C24.8134 16.982 24.4418 17.0247 24.2027 17.2775L23.8743 17.6248C23.9578 15.1847 25.623 13.0826 27.896 12.583C28.2734 12.5008 28.5182 12.12 28.4548 11.7178C28.4116 11.4498 28.3915 11.1634 28.3915 10.871C28.3915 7.92208 30.6587 5.52448 33.4474 5.52448C35.4438 5.52448 37.2559 6.77354 38.0683 8.70492L38.0656 8.71093ZM8.5944 14.8007C8.5944 12.2783 10.2884 10.0788 12.6218 9.56701C12.9963 9.48475 13.2412 9.107 13.1836 8.71093C13.1404 8.41848 13.1173 8.13211 13.1173 7.85486C13.1173 4.90596 15.3845 2.50837 18.1733 2.50837C20.1697 2.50837 21.9846 3.75743 22.7941 5.68881C22.8748 5.88073 23.0304 6.03001 23.2176 6.09703C23.4078 6.16405 23.6152 6.14577 23.7909 6.0422C24.5255 5.61265 25.3667 5.38417 26.2252 5.38417C27.1299 5.38417 28.0114 5.64007 28.7805 6.11836C27.657 7.35213 26.9627 9.02771 26.9627 10.8738C26.9627 11.0109 26.9656 11.148 26.9743 11.2821C24.3123 12.1716 22.4427 14.819 22.4427 17.8197C22.4427 18.2279 22.4773 18.6331 22.5435 19.0322L21.8636 19.7511C21.7599 19.8608 21.6937 20.0009 21.6677 20.1471H13.6504C10.8618 20.1471 8.5944 17.7497 8.5944 14.8007ZM11.6165 27.3794C11.6165 25.8897 12.763 24.6742 14.1717 24.6742H19.9363V26.1852H14.1717C13.5524 26.1852 13.0482 26.7214 13.0482 27.3794V52.7622H11.6193V27.3794L11.6165 27.3794ZM52.6251 54.9678C52.6251 56.9114 51.13 58.4925 49.292 58.4925L11.7171 58.4955C9.87913 58.4955 8.38399 56.9145 8.38399 54.9708V54.3707C8.38399 54.3158 8.42433 54.2732 8.47618 54.2732H22.5056V54.983C22.5056 56.2077 23.4476 57.2069 24.6058 57.2069H36.3999C37.558 57.2069 38.503 56.2108 38.503 54.983V54.2732H52.5324C52.5814 54.2732 52.6246 54.3189 52.6246 54.3707V54.9708L52.6251 54.9678ZM30.5031 31.6446C33.2284 31.6446 35.4437 29.2989 35.4437 26.42C35.4437 23.5381 33.2255 21.1985 30.5031 21.1985C27.7778 21.1985 25.5624 23.5412 25.5624 26.42C25.5624 29.2989 27.7807 31.6446 30.5031 31.6446ZM30.5031 22.7064C32.4419 22.7064 34.0177 24.3728 34.0177 26.42C34.0177 28.4671 32.4419 30.1366 30.5031 30.1366C28.5643 30.1366 26.9885 28.4702 26.9885 26.42C26.9885 24.3697 28.5643 22.7064 30.5031 22.7064ZM4.12862 14.8007C4.12862 15.2181 3.80885 15.5562 3.41417 15.5562H2.42894V16.5981C2.42894 17.0154 2.10917 17.3536 1.71449 17.3536C1.31981 17.3536 1.00004 17.0154 1.00004 16.5981V14.8007C1.00004 14.3833 1.31981 14.0452 1.71449 14.0452H3.41421C3.80889 14.0452 4.12862 14.3834 4.12862 14.8007ZM1.00288 21.3688V19.7421C1.00288 19.3247 1.32265 18.9865 1.71733 18.9865C2.11201 18.9865 2.43178 19.3247 2.43178 19.7421V21.3688C2.43178 21.7862 2.11201 22.1243 1.71733 22.1243C1.32265 22.1243 1.00288 21.7862 1.00288 21.3688ZM1.00288 26.1395V24.5128C1.00288 24.0954 1.32265 23.7572 1.71733 23.7572C2.11201 23.7572 2.43178 24.0954 2.43178 24.5128V26.1395C2.43178 26.5569 2.11201 26.895 1.71733 26.895C1.32265 26.895 1.00288 26.5569 1.00288 26.1395ZM4.12862 40.6219C4.12862 41.0393 3.80885 41.3774 3.41417 41.3774H1.71445C1.31977 41.3774 1 41.0393 1 40.6219V38.8215C1 38.4041 1.31977 38.066 1.71445 38.066C2.10913 38.066 2.42891 38.4041 2.42891 38.8215V39.8664H3.41413C3.80881 39.8664 4.12862 40.2046 4.12862 40.6219ZM7.92556 41.3774H6.38721C5.99253 41.3774 5.67276 41.0393 5.67276 40.6219C5.67276 40.2046 5.99253 39.8664 6.38721 39.8664H7.92556C8.32024 39.8664 8.64002 40.2046 8.64002 40.6219C8.64002 41.0393 8.32024 41.3774 7.92556 41.3774ZM1 30.9099V29.2831C1 28.8657 1.31977 28.5276 1.71445 28.5276C2.10913 28.5276 2.42891 28.8657 2.42891 29.2831V30.9099C2.42891 31.3272 2.10913 31.6654 1.71445 31.6654C1.31977 31.6654 1 31.3272 1 30.9099ZM1 35.4795V34.0538C1 33.6364 1.31977 33.2983 1.71445 33.2983C2.10913 33.2983 2.42891 33.6364 2.42891 34.0538V35.4795C2.42891 35.8969 2.10913 36.235 1.71445 36.235C1.31977 36.235 1 35.8969 1 35.4795ZM60 14.797V16.5944C60 17.0118 59.6802 17.3499 59.2855 17.3499C58.8908 17.3499 58.5711 17.0118 58.5711 16.5944V15.5526H57.5858C57.1912 15.5526 56.8714 15.2144 56.8714 14.7971C56.8714 14.3797 57.1912 14.0415 57.5858 14.0415H59.2855C59.6802 14.0415 60 14.3797 60 14.797ZM60 19.7383V21.365C60 21.7824 59.6802 22.1205 59.2855 22.1205C58.8908 22.1205 58.5711 21.7824 58.5711 21.365V19.7383C58.5711 19.3209 58.8908 18.9828 59.2855 18.9828C59.6802 18.9828 60 19.3209 60 19.7383ZM60 24.509V26.1357C60 26.5531 59.6802 26.8912 59.2855 26.8912C58.8908 26.8912 58.5711 26.5531 58.5711 26.1357V24.509C58.5711 24.0916 58.8908 23.7535 59.2855 23.7535C59.6802 23.7535 60 24.0916 60 24.509ZM60 38.8183V40.6187C60 41.0361 59.6802 41.3742 59.2855 41.3742H57.5858C57.1911 41.3742 56.8713 41.0361 56.8713 40.6187C56.8713 40.2013 57.1911 39.8632 57.5858 39.8632H58.571V38.8183C58.571 38.4009 58.8908 38.0628 59.2855 38.0628C59.6802 38.0628 60 38.4009 60 38.8183ZM55.3301 40.6187C55.3301 41.0361 55.0103 41.3742 54.6157 41.3742H53.0744C52.6798 41.3742 52.36 41.0361 52.36 40.6187C52.36 40.2013 52.6798 39.8632 53.0744 39.8632H54.6157C55.0103 39.8632 55.3301 40.2013 55.3301 40.6187ZM60 29.28V30.9067C60 31.3241 59.6802 31.6622 59.2855 31.6622C58.8908 31.6622 58.5711 31.3241 58.5711 30.9067V29.28C58.5711 28.8626 58.8908 28.5245 59.2855 28.5245C59.6802 28.5245 60 28.8626 60 29.28ZM60 34.0507V35.4764C60 35.8937 59.6802 36.2319 59.2855 36.2319C58.8908 36.2319 58.5711 35.8937 58.5711 35.4764V34.0507C58.5711 33.6333 58.8908 33.2952 59.2855 33.2952C59.6802 33.2952 60 33.6333 60 34.0507Z"/>
</mask>
<path d="M52.5334 52.7649H50.8568V27.3821C50.8568 26.1514 50.3555 25.0424 49.5576 24.2717C52.0524 23.3181 53.8414 20.7866 53.8414 17.8225C53.8414 14.0662 50.9692 11.0076 47.4229 10.971C46.3915 8.51261 44.0724 6.89794 41.4969 6.89794C40.6528 6.89794 39.8145 7.07463 39.0367 7.40974C37.8815 5.32901 35.7583 4.01904 33.445 4.01904C32.1543 4.01904 30.9502 4.42117 29.939 5.11267C28.8587 4.3115 27.5594 3.87586 26.2255 3.87586C25.3786 3.87586 24.5402 4.05255 23.7653 4.38765C22.6101 2.30693 20.4898 1 18.1736 1C14.5984 1 11.6916 4.07687 11.6916 7.85447C11.6916 7.9885 11.6945 8.1256 11.7031 8.26269C9.0412 9.15222 7.16869 11.7996 7.16869 14.8003C7.16869 18.5809 10.0783 21.6547 13.6506 21.6547H22.3568L22.7025 22.2183L22.3309 23.1657H14.1668C11.9715 23.1657 10.1855 25.0576 10.1855 27.3789V52.7617H8.47424C7.63592 52.7617 6.95602 53.4837 6.95602 54.3672V54.9673C6.95602 57.7426 9.09071 60 11.7152 60H49.2871C51.9116 60 54.0463 57.7426 54.0463 54.9673V54.3672C54.0463 53.4807 53.3635 52.7617 52.528 52.7617L52.5334 52.7649ZM47.999 52.7649V27.3821C47.999 26.7363 47.4833 26.1879 46.8697 26.1879H41.0734V24.6769H46.8697C48.2785 24.6769 49.428 25.8894 49.428 27.3822V52.765L47.999 52.7649ZM23.9322 54.2729H37.0744V54.9827C37.0744 55.3757 36.7719 55.6956 36.4003 55.6956H24.6062C24.2346 55.6956 23.935 55.3757 23.935 54.9827V54.2729H23.9322ZM14.4715 52.7649V27.6987H19.9336V28.1709C19.9336 28.5274 20.1698 28.835 20.4982 28.9082L22.1806 29.2859L22.7021 30.6172L21.7658 32.1404C21.5843 32.4389 21.6218 32.8319 21.8609 33.0847L24.1973 35.5584C24.4364 35.8113 24.808 35.8539 25.0903 35.659L26.5307 34.6689L27.7925 35.2203L28.1497 36.9963C28.2189 37.3436 28.5099 37.5934 28.8469 37.5934H32.1542C32.4912 37.5934 32.7822 37.3436 32.8513 36.9963L33.2086 35.2203L34.4675 34.6689L35.9079 35.659C36.1902 35.8539 36.5618 35.8113 36.8009 35.5584L39.1402 33.0847C39.3793 32.8319 39.4168 32.4389 39.2353 32.1404L38.299 30.6172L38.8233 29.2859L40.5028 28.9082C40.8312 28.835 41.0675 28.5274 41.0675 28.1709V27.6987H46.567V52.7649H14.4715ZM23.3562 24.5004L24.1657 22.4319C24.2551 22.2035 24.232 21.9415 24.1052 21.7313L23.2813 20.3847L24.8024 18.7762L26.0758 19.6475C26.2717 19.7815 26.5194 19.8059 26.7384 19.7115L28.6944 18.8554C28.9134 18.761 29.0718 18.5569 29.1208 18.3162L29.4348 16.7473H31.5868L31.9009 18.3162C31.9498 18.5599 32.1083 18.761 32.3243 18.8554L34.2775 19.7115C34.4936 19.8059 34.7414 19.7815 34.9401 19.6475L36.2135 18.7762L37.7346 20.3847L36.9078 21.7282C36.7781 21.9384 36.758 22.2004 36.8473 22.4289L37.6597 24.4974C37.749 24.7259 37.942 24.8934 38.1696 24.9452L39.6504 25.2773V27.553L38.1696 27.885C37.9392 27.9368 37.749 28.1044 37.6597 28.3329L36.8473 30.3983C36.758 30.6298 36.7781 30.8918 36.9078 31.099L37.7346 32.4455L36.2135 34.0571L34.9401 33.1858C34.7442 33.0517 34.4965 33.0274 34.2775 33.1218L32.3243 33.9779C32.1083 34.0723 31.947 34.2764 31.9009 34.5171L31.5868 36.083H29.4348L29.1208 34.5171C29.0718 34.2734 28.9134 34.0723 28.6944 33.9779L26.7384 33.1218C26.5223 33.0274 26.2746 33.0517 26.0758 33.1858L24.8053 34.0571L23.2842 32.4455L24.1081 31.099C24.2349 30.8918 24.2579 30.6298 24.1686 30.3983L23.3591 28.3329C23.2698 28.1044 23.0767 27.9338 22.8492 27.885L21.3655 27.553V25.2773L22.8492 24.9452C23.0796 24.8934 23.2698 24.7259 23.3591 24.4943L23.3562 24.5004ZM38.0656 8.71093C38.1463 8.90285 38.299 9.05213 38.4891 9.11915C38.6792 9.18617 38.8867 9.1679 39.0595 9.06432C39.8028 8.63173 40.644 8.40629 41.4939 8.40629C43.6401 8.40629 45.5587 9.84424 46.2646 11.9858C46.3712 12.3087 46.6679 12.5159 46.9906 12.4885C47.0972 12.4793 47.2153 12.4763 47.3536 12.4763C50.1422 12.4763 52.4095 14.8738 52.4095 17.8197C52.4095 20.7656 50.1423 23.1662 47.3536 23.1662H38.6732L38.3016 22.2188L39.2407 20.6956C39.4251 20.3971 39.3847 20.001 39.1456 19.7482L36.8064 17.2775C36.5672 17.0247 36.1956 16.9851 35.9133 17.177L34.4729 18.1671L33.214 17.6157L32.8568 15.8366C32.7876 15.4893 32.4967 15.2395 32.1596 15.2395H28.8524C28.5153 15.2395 28.2243 15.4893 28.1552 15.8366L27.798 17.6157L26.5362 18.1671L25.0958 17.177C24.8134 16.982 24.4418 17.0247 24.2027 17.2775L23.8743 17.6248C23.9578 15.1847 25.623 13.0826 27.896 12.583C28.2734 12.5008 28.5182 12.12 28.4548 11.7178C28.4116 11.4498 28.3915 11.1634 28.3915 10.871C28.3915 7.92208 30.6587 5.52448 33.4474 5.52448C35.4438 5.52448 37.2559 6.77354 38.0683 8.70492L38.0656 8.71093ZM8.5944 14.8007C8.5944 12.2783 10.2884 10.0788 12.6218 9.56701C12.9963 9.48475 13.2412 9.107 13.1836 8.71093C13.1404 8.41848 13.1173 8.13211 13.1173 7.85486C13.1173 4.90596 15.3845 2.50837 18.1733 2.50837C20.1697 2.50837 21.9846 3.75743 22.7941 5.68881C22.8748 5.88073 23.0304 6.03001 23.2176 6.09703C23.4078 6.16405 23.6152 6.14577 23.7909 6.0422C24.5255 5.61265 25.3667 5.38417 26.2252 5.38417C27.1299 5.38417 28.0114 5.64007 28.7805 6.11836C27.657 7.35213 26.9627 9.02771 26.9627 10.8738C26.9627 11.0109 26.9656 11.148 26.9743 11.2821C24.3123 12.1716 22.4427 14.819 22.4427 17.8197C22.4427 18.2279 22.4773 18.6331 22.5435 19.0322L21.8636 19.7511C21.7599 19.8608 21.6937 20.0009 21.6677 20.1471H13.6504C10.8618 20.1471 8.5944 17.7497 8.5944 14.8007ZM11.6165 27.3794C11.6165 25.8897 12.763 24.6742 14.1717 24.6742H19.9363V26.1852H14.1717C13.5524 26.1852 13.0482 26.7214 13.0482 27.3794V52.7622H11.6193V27.3794L11.6165 27.3794ZM52.6251 54.9678C52.6251 56.9114 51.13 58.4925 49.292 58.4925L11.7171 58.4955C9.87913 58.4955 8.38399 56.9145 8.38399 54.9708V54.3707C8.38399 54.3158 8.42433 54.2732 8.47618 54.2732H22.5056V54.983C22.5056 56.2077 23.4476 57.2069 24.6058 57.2069H36.3999C37.558 57.2069 38.503 56.2108 38.503 54.983V54.2732H52.5324C52.5814 54.2732 52.6246 54.3189 52.6246 54.3707V54.9708L52.6251 54.9678ZM30.5031 31.6446C33.2284 31.6446 35.4437 29.2989 35.4437 26.42C35.4437 23.5381 33.2255 21.1985 30.5031 21.1985C27.7778 21.1985 25.5624 23.5412 25.5624 26.42C25.5624 29.2989 27.7807 31.6446 30.5031 31.6446ZM30.5031 22.7064C32.4419 22.7064 34.0177 24.3728 34.0177 26.42C34.0177 28.4671 32.4419 30.1366 30.5031 30.1366C28.5643 30.1366 26.9885 28.4702 26.9885 26.42C26.9885 24.3697 28.5643 22.7064 30.5031 22.7064ZM4.12862 14.8007C4.12862 15.2181 3.80885 15.5562 3.41417 15.5562H2.42894V16.5981C2.42894 17.0154 2.10917 17.3536 1.71449 17.3536C1.31981 17.3536 1.00004 17.0154 1.00004 16.5981V14.8007C1.00004 14.3833 1.31981 14.0452 1.71449 14.0452H3.41421C3.80889 14.0452 4.12862 14.3834 4.12862 14.8007ZM1.00288 21.3688V19.7421C1.00288 19.3247 1.32265 18.9865 1.71733 18.9865C2.11201 18.9865 2.43178 19.3247 2.43178 19.7421V21.3688C2.43178 21.7862 2.11201 22.1243 1.71733 22.1243C1.32265 22.1243 1.00288 21.7862 1.00288 21.3688ZM1.00288 26.1395V24.5128C1.00288 24.0954 1.32265 23.7572 1.71733 23.7572C2.11201 23.7572 2.43178 24.0954 2.43178 24.5128V26.1395C2.43178 26.5569 2.11201 26.895 1.71733 26.895C1.32265 26.895 1.00288 26.5569 1.00288 26.1395ZM4.12862 40.6219C4.12862 41.0393 3.80885 41.3774 3.41417 41.3774H1.71445C1.31977 41.3774 1 41.0393 1 40.6219V38.8215C1 38.4041 1.31977 38.066 1.71445 38.066C2.10913 38.066 2.42891 38.4041 2.42891 38.8215V39.8664H3.41413C3.80881 39.8664 4.12862 40.2046 4.12862 40.6219ZM7.92556 41.3774H6.38721C5.99253 41.3774 5.67276 41.0393 5.67276 40.6219C5.67276 40.2046 5.99253 39.8664 6.38721 39.8664H7.92556C8.32024 39.8664 8.64002 40.2046 8.64002 40.6219C8.64002 41.0393 8.32024 41.3774 7.92556 41.3774ZM1 30.9099V29.2831C1 28.8657 1.31977 28.5276 1.71445 28.5276C2.10913 28.5276 2.42891 28.8657 2.42891 29.2831V30.9099C2.42891 31.3272 2.10913 31.6654 1.71445 31.6654C1.31977 31.6654 1 31.3272 1 30.9099ZM1 35.4795V34.0538C1 33.6364 1.31977 33.2983 1.71445 33.2983C2.10913 33.2983 2.42891 33.6364 2.42891 34.0538V35.4795C2.42891 35.8969 2.10913 36.235 1.71445 36.235C1.31977 36.235 1 35.8969 1 35.4795ZM60 14.797V16.5944C60 17.0118 59.6802 17.3499 59.2855 17.3499C58.8908 17.3499 58.5711 17.0118 58.5711 16.5944V15.5526H57.5858C57.1912 15.5526 56.8714 15.2144 56.8714 14.7971C56.8714 14.3797 57.1912 14.0415 57.5858 14.0415H59.2855C59.6802 14.0415 60 14.3797 60 14.797ZM60 19.7383V21.365C60 21.7824 59.6802 22.1205 59.2855 22.1205C58.8908 22.1205 58.5711 21.7824 58.5711 21.365V19.7383C58.5711 19.3209 58.8908 18.9828 59.2855 18.9828C59.6802 18.9828 60 19.3209 60 19.7383ZM60 24.509V26.1357C60 26.5531 59.6802 26.8912 59.2855 26.8912C58.8908 26.8912 58.5711 26.5531 58.5711 26.1357V24.509C58.5711 24.0916 58.8908 23.7535 59.2855 23.7535C59.6802 23.7535 60 24.0916 60 24.509ZM60 38.8183V40.6187C60 41.0361 59.6802 41.3742 59.2855 41.3742H57.5858C57.1911 41.3742 56.8713 41.0361 56.8713 40.6187C56.8713 40.2013 57.1911 39.8632 57.5858 39.8632H58.571V38.8183C58.571 38.4009 58.8908 38.0628 59.2855 38.0628C59.6802 38.0628 60 38.4009 60 38.8183ZM55.3301 40.6187C55.3301 41.0361 55.0103 41.3742 54.6157 41.3742H53.0744C52.6798 41.3742 52.36 41.0361 52.36 40.6187C52.36 40.2013 52.6798 39.8632 53.0744 39.8632H54.6157C55.0103 39.8632 55.3301 40.2013 55.3301 40.6187ZM60 29.28V30.9067C60 31.3241 59.6802 31.6622 59.2855 31.6622C58.8908 31.6622 58.5711 31.3241 58.5711 30.9067V29.28C58.5711 28.8626 58.8908 28.5245 59.2855 28.5245C59.6802 28.5245 60 28.8626 60 29.28ZM60 34.0507V35.4764C60 35.8937 59.6802 36.2319 59.2855 36.2319C58.8908 36.2319 58.5711 35.8937 58.5711 35.4764V34.0507C58.5711 33.6333 58.8908 33.2952 59.2855 33.2952C59.6802 33.2952 60 33.6333 60 34.0507Z" fill="#589CE7"/>
<path d="M52.5334 52.7649H50.8568V27.3821C50.8568 26.1514 50.3555 25.0424 49.5576 24.2717C52.0524 23.3181 53.8414 20.7866 53.8414 17.8225C53.8414 14.0662 50.9692 11.0076 47.4229 10.971C46.3915 8.51261 44.0724 6.89794 41.4969 6.89794C40.6528 6.89794 39.8145 7.07463 39.0367 7.40974C37.8815 5.32901 35.7583 4.01904 33.445 4.01904C32.1543 4.01904 30.9502 4.42117 29.939 5.11267C28.8587 4.3115 27.5594 3.87586 26.2255 3.87586C25.3786 3.87586 24.5402 4.05255 23.7653 4.38765C22.6101 2.30693 20.4898 1 18.1736 1C14.5984 1 11.6916 4.07687 11.6916 7.85447C11.6916 7.9885 11.6945 8.1256 11.7031 8.26269C9.0412 9.15222 7.16869 11.7996 7.16869 14.8003C7.16869 18.5809 10.0783 21.6547 13.6506 21.6547H22.3568L22.7025 22.2183L22.3309 23.1657H14.1668C11.9715 23.1657 10.1855 25.0576 10.1855 27.3789V52.7617H8.47424C7.63592 52.7617 6.95602 53.4837 6.95602 54.3672V54.9673C6.95602 57.7426 9.09071 60 11.7152 60H49.2871C51.9116 60 54.0463 57.7426 54.0463 54.9673V54.3672C54.0463 53.4807 53.3635 52.7617 52.528 52.7617L52.5334 52.7649ZM47.999 52.7649V27.3821C47.999 26.7363 47.4833 26.1879 46.8697 26.1879H41.0734V24.6769H46.8697C48.2785 24.6769 49.428 25.8894 49.428 27.3822V52.765L47.999 52.7649ZM23.9322 54.2729H37.0744V54.9827C37.0744 55.3757 36.7719 55.6956 36.4003 55.6956H24.6062C24.2346 55.6956 23.935 55.3757 23.935 54.9827V54.2729H23.9322ZM14.4715 52.7649V27.6987H19.9336V28.1709C19.9336 28.5274 20.1698 28.835 20.4982 28.9082L22.1806 29.2859L22.7021 30.6172L21.7658 32.1404C21.5843 32.4389 21.6218 32.8319 21.8609 33.0847L24.1973 35.5584C24.4364 35.8113 24.808 35.8539 25.0903 35.659L26.5307 34.6689L27.7925 35.2203L28.1497 36.9963C28.2189 37.3436 28.5099 37.5934 28.8469 37.5934H32.1542C32.4912 37.5934 32.7822 37.3436 32.8513 36.9963L33.2086 35.2203L34.4675 34.6689L35.9079 35.659C36.1902 35.8539 36.5618 35.8113 36.8009 35.5584L39.1402 33.0847C39.3793 32.8319 39.4168 32.4389 39.2353 32.1404L38.299 30.6172L38.8233 29.2859L40.5028 28.9082C40.8312 28.835 41.0675 28.5274 41.0675 28.1709V27.6987H46.567V52.7649H14.4715ZM23.3562 24.5004L24.1657 22.4319C24.2551 22.2035 24.232 21.9415 24.1052 21.7313L23.2813 20.3847L24.8024 18.7762L26.0758 19.6475C26.2717 19.7815 26.5194 19.8059 26.7384 19.7115L28.6944 18.8554C28.9134 18.761 29.0718 18.5569 29.1208 18.3162L29.4348 16.7473H31.5868L31.9009 18.3162C31.9498 18.5599 32.1083 18.761 32.3243 18.8554L34.2775 19.7115C34.4936 19.8059 34.7414 19.7815 34.9401 19.6475L36.2135 18.7762L37.7346 20.3847L36.9078 21.7282C36.7781 21.9384 36.758 22.2004 36.8473 22.4289L37.6597 24.4974C37.749 24.7259 37.942 24.8934 38.1696 24.9452L39.6504 25.2773V27.553L38.1696 27.885C37.9392 27.9368 37.749 28.1044 37.6597 28.3329L36.8473 30.3983C36.758 30.6298 36.7781 30.8918 36.9078 31.099L37.7346 32.4455L36.2135 34.0571L34.9401 33.1858C34.7442 33.0517 34.4965 33.0274 34.2775 33.1218L32.3243 33.9779C32.1083 34.0723 31.947 34.2764 31.9009 34.5171L31.5868 36.083H29.4348L29.1208 34.5171C29.0718 34.2734 28.9134 34.0723 28.6944 33.9779L26.7384 33.1218C26.5223 33.0274 26.2746 33.0517 26.0758 33.1858L24.8053 34.0571L23.2842 32.4455L24.1081 31.099C24.2349 30.8918 24.2579 30.6298 24.1686 30.3983L23.3591 28.3329C23.2698 28.1044 23.0767 27.9338 22.8492 27.885L21.3655 27.553V25.2773L22.8492 24.9452C23.0796 24.8934 23.2698 24.7259 23.3591 24.4943L23.3562 24.5004ZM38.0656 8.71093C38.1463 8.90285 38.299 9.05213 38.4891 9.11915C38.6792 9.18617 38.8867 9.1679 39.0595 9.06432C39.8028 8.63173 40.644 8.40629 41.4939 8.40629C43.6401 8.40629 45.5587 9.84424 46.2646 11.9858C46.3712 12.3087 46.6679 12.5159 46.9906 12.4885C47.0972 12.4793 47.2153 12.4763 47.3536 12.4763C50.1422 12.4763 52.4095 14.8738 52.4095 17.8197C52.4095 20.7656 50.1423 23.1662 47.3536 23.1662H38.6732L38.3016 22.2188L39.2407 20.6956C39.4251 20.3971 39.3847 20.001 39.1456 19.7482L36.8064 17.2775C36.5672 17.0247 36.1956 16.9851 35.9133 17.177L34.4729 18.1671L33.214 17.6157L32.8568 15.8366C32.7876 15.4893 32.4967 15.2395 32.1596 15.2395H28.8524C28.5153 15.2395 28.2243 15.4893 28.1552 15.8366L27.798 17.6157L26.5362 18.1671L25.0958 17.177C24.8134 16.982 24.4418 17.0247 24.2027 17.2775L23.8743 17.6248C23.9578 15.1847 25.623 13.0826 27.896 12.583C28.2734 12.5008 28.5182 12.12 28.4548 11.7178C28.4116 11.4498 28.3915 11.1634 28.3915 10.871C28.3915 7.92208 30.6587 5.52448 33.4474 5.52448C35.4438 5.52448 37.2559 6.77354 38.0683 8.70492L38.0656 8.71093ZM8.5944 14.8007C8.5944 12.2783 10.2884 10.0788 12.6218 9.56701C12.9963 9.48475 13.2412 9.107 13.1836 8.71093C13.1404 8.41848 13.1173 8.13211 13.1173 7.85486C13.1173 4.90596 15.3845 2.50837 18.1733 2.50837C20.1697 2.50837 21.9846 3.75743 22.7941 5.68881C22.8748 5.88073 23.0304 6.03001 23.2176 6.09703C23.4078 6.16405 23.6152 6.14577 23.7909 6.0422C24.5255 5.61265 25.3667 5.38417 26.2252 5.38417C27.1299 5.38417 28.0114 5.64007 28.7805 6.11836C27.657 7.35213 26.9627 9.02771 26.9627 10.8738C26.9627 11.0109 26.9656 11.148 26.9743 11.2821C24.3123 12.1716 22.4427 14.819 22.4427 17.8197C22.4427 18.2279 22.4773 18.6331 22.5435 19.0322L21.8636 19.7511C21.7599 19.8608 21.6937 20.0009 21.6677 20.1471H13.6504C10.8618 20.1471 8.5944 17.7497 8.5944 14.8007ZM11.6165 27.3794C11.6165 25.8897 12.763 24.6742 14.1717 24.6742H19.9363V26.1852H14.1717C13.5524 26.1852 13.0482 26.7214 13.0482 27.3794V52.7622H11.6193V27.3794L11.6165 27.3794ZM52.6251 54.9678C52.6251 56.9114 51.13 58.4925 49.292 58.4925L11.7171 58.4955C9.87913 58.4955 8.38399 56.9145 8.38399 54.9708V54.3707C8.38399 54.3158 8.42433 54.2732 8.47618 54.2732H22.5056V54.983C22.5056 56.2077 23.4476 57.2069 24.6058 57.2069H36.3999C37.558 57.2069 38.503 56.2108 38.503 54.983V54.2732H52.5324C52.5814 54.2732 52.6246 54.3189 52.6246 54.3707V54.9708L52.6251 54.9678ZM30.5031 31.6446C33.2284 31.6446 35.4437 29.2989 35.4437 26.42C35.4437 23.5381 33.2255 21.1985 30.5031 21.1985C27.7778 21.1985 25.5624 23.5412 25.5624 26.42C25.5624 29.2989 27.7807 31.6446 30.5031 31.6446ZM30.5031 22.7064C32.4419 22.7064 34.0177 24.3728 34.0177 26.42C34.0177 28.4671 32.4419 30.1366 30.5031 30.1366C28.5643 30.1366 26.9885 28.4702 26.9885 26.42C26.9885 24.3697 28.5643 22.7064 30.5031 22.7064ZM4.12862 14.8007C4.12862 15.2181 3.80885 15.5562 3.41417 15.5562H2.42894V16.5981C2.42894 17.0154 2.10917 17.3536 1.71449 17.3536C1.31981 17.3536 1.00004 17.0154 1.00004 16.5981V14.8007C1.00004 14.3833 1.31981 14.0452 1.71449 14.0452H3.41421C3.80889 14.0452 4.12862 14.3834 4.12862 14.8007ZM1.00288 21.3688V19.7421C1.00288 19.3247 1.32265 18.9865 1.71733 18.9865C2.11201 18.9865 2.43178 19.3247 2.43178 19.7421V21.3688C2.43178 21.7862 2.11201 22.1243 1.71733 22.1243C1.32265 22.1243 1.00288 21.7862 1.00288 21.3688ZM1.00288 26.1395V24.5128C1.00288 24.0954 1.32265 23.7572 1.71733 23.7572C2.11201 23.7572 2.43178 24.0954 2.43178 24.5128V26.1395C2.43178 26.5569 2.11201 26.895 1.71733 26.895C1.32265 26.895 1.00288 26.5569 1.00288 26.1395ZM4.12862 40.6219C4.12862 41.0393 3.80885 41.3774 3.41417 41.3774H1.71445C1.31977 41.3774 1 41.0393 1 40.6219V38.8215C1 38.4041 1.31977 38.066 1.71445 38.066C2.10913 38.066 2.42891 38.4041 2.42891 38.8215V39.8664H3.41413C3.80881 39.8664 4.12862 40.2046 4.12862 40.6219ZM7.92556 41.3774H6.38721C5.99253 41.3774 5.67276 41.0393 5.67276 40.6219C5.67276 40.2046 5.99253 39.8664 6.38721 39.8664H7.92556C8.32024 39.8664 8.64002 40.2046 8.64002 40.6219C8.64002 41.0393 8.32024 41.3774 7.92556 41.3774ZM1 30.9099V29.2831C1 28.8657 1.31977 28.5276 1.71445 28.5276C2.10913 28.5276 2.42891 28.8657 2.42891 29.2831V30.9099C2.42891 31.3272 2.10913 31.6654 1.71445 31.6654C1.31977 31.6654 1 31.3272 1 30.9099ZM1 35.4795V34.0538C1 33.6364 1.31977 33.2983 1.71445 33.2983C2.10913 33.2983 2.42891 33.6364 2.42891 34.0538V35.4795C2.42891 35.8969 2.10913 36.235 1.71445 36.235C1.31977 36.235 1 35.8969 1 35.4795ZM60 14.797V16.5944C60 17.0118 59.6802 17.3499 59.2855 17.3499C58.8908 17.3499 58.5711 17.0118 58.5711 16.5944V15.5526H57.5858C57.1912 15.5526 56.8714 15.2144 56.8714 14.7971C56.8714 14.3797 57.1912 14.0415 57.5858 14.0415H59.2855C59.6802 14.0415 60 14.3797 60 14.797ZM60 19.7383V21.365C60 21.7824 59.6802 22.1205 59.2855 22.1205C58.8908 22.1205 58.5711 21.7824 58.5711 21.365V19.7383C58.5711 19.3209 58.8908 18.9828 59.2855 18.9828C59.6802 18.9828 60 19.3209 60 19.7383ZM60 24.509V26.1357C60 26.5531 59.6802 26.8912 59.2855 26.8912C58.8908 26.8912 58.5711 26.5531 58.5711 26.1357V24.509C58.5711 24.0916 58.8908 23.7535 59.2855 23.7535C59.6802 23.7535 60 24.0916 60 24.509ZM60 38.8183V40.6187C60 41.0361 59.6802 41.3742 59.2855 41.3742H57.5858C57.1911 41.3742 56.8713 41.0361 56.8713 40.6187C56.8713 40.2013 57.1911 39.8632 57.5858 39.8632H58.571V38.8183C58.571 38.4009 58.8908 38.0628 59.2855 38.0628C59.6802 38.0628 60 38.4009 60 38.8183ZM55.3301 40.6187C55.3301 41.0361 55.0103 41.3742 54.6157 41.3742H53.0744C52.6798 41.3742 52.36 41.0361 52.36 40.6187C52.36 40.2013 52.6798 39.8632 53.0744 39.8632H54.6157C55.0103 39.8632 55.3301 40.2013 55.3301 40.6187ZM60 29.28V30.9067C60 31.3241 59.6802 31.6622 59.2855 31.6622C58.8908 31.6622 58.5711 31.3241 58.5711 30.9067V29.28C58.5711 28.8626 58.8908 28.5245 59.2855 28.5245C59.6802 28.5245 60 28.8626 60 29.28ZM60 34.0507V35.4764C60 35.8937 59.6802 36.2319 59.2855 36.2319C58.8908 36.2319 58.5711 35.8937 58.5711 35.4764V34.0507C58.5711 33.6333 58.8908 33.2952 59.2855 33.2952C59.6802 33.2952 60 33.6333 60 34.0507Z" stroke="#589CE7" stroke-width="0.6" mask="url(#path-1-outside-1_467_1708)"/>
</svg>
