<svg width="61" height="61" viewBox="0 0 61 61" fill="none" xmlns="http://www.w3.org/2000/svg">
<path d="M43.0045 12.1082L43.6289 11.9298L43.6458 11.9263L43.7156 11.9122C43.7765 11.8999 43.8647 11.8824 43.974 11.8614C44.1928 11.8193 44.4956 11.7633 44.8318 11.7072C45.5091 11.5943 46.306 11.4844 46.8288 11.4844C53.2137 11.4844 58.3566 16.6273 58.3566 23.0122C58.3566 28.2443 54.809 32.8558 49.7549 34.1858L49.5609 34.2369L49.6126 34.4308L49.9734 35.784L50.0249 35.977L50.218 35.9257C56.0789 34.3689 60.1098 29.1478 60.1098 23.1025L60.1098 23.0999C60.0182 15.9535 54.0648 10.0018 46.7385 10.0018C45.9741 10.0018 44.83 10.1568 44.0797 10.3247C42.3738 4.74428 37.2031 0.8 31.3119 0.8C25.6086 0.8 20.6187 4.38026 18.8233 9.68491C17.9713 9.4413 17.1113 9.28013 16.2462 9.28013C12.7941 9.28013 10.6839 10.7809 9.40906 12.5193C8.19765 14.1713 7.74617 16.0284 7.58842 16.9904C3.60038 18.1372 0.8 21.79 0.8 25.8991C0.8 29.0119 1.80875 31.5055 3.75228 33.2642C5.96881 35.2956 9.27401 36.2933 13.7202 36.2933C14.7217 36.2933 15.7216 36.2024 16.711 36.1124L16.7154 36.112L16.9098 36.0944L16.8968 35.8996L16.8066 34.5463L16.7929 34.3407L16.5878 34.3606C11.0088 34.9005 7.117 34.0815 4.9275 31.9796L4.9276 31.9795L4.92186 31.9744C3.35084 30.5779 2.55321 28.5635 2.55321 25.8991C2.55321 22.3852 5.10234 19.2216 8.52435 18.5178L9.06194 18.4282L9.22906 18.4003V18.2309V17.6896C9.22906 17.5802 9.35922 15.8793 10.2972 14.213C11.2272 12.5609 12.9484 10.9431 16.156 10.9431C16.8751 10.9431 17.5991 11.0897 18.2693 11.2527C18.1102 12.117 18.0309 13.0485 18.0309 13.9006V14.1006H18.2309H19.5841H19.7841V13.9006C19.7841 12.9187 19.8735 11.8553 20.1379 10.886L20.1384 10.8842C21.4678 5.83244 26.0775 2.37278 31.3119 2.37278C36.6322 2.37278 41.4219 6.1881 42.574 11.3282L42.5736 11.3282L42.5768 11.3394L42.7572 11.9709L42.8122 12.1632L43.0045 12.1082Z" fill="#589CE7" stroke="#589CE7" stroke-width="0.4"/>
<path d="M26.8703 44.6642V44.8642H27.0703H39.7905H39.9905V44.6642V32.0342V31.8342H39.7905H27.0703H26.8703V32.0342V44.6642ZM28.6235 33.5874H38.2373V43.2012H28.6235V33.5874Z" fill="#589CE7" stroke="#589CE7" stroke-width="0.4"/>
<mask id="path-3-outside-1_467_3403" maskUnits="userSpaceOnUse" x="13.3516" y="23.5459" width="40" height="38" fill="black">
<rect fill="white" x="13.3516" y="23.5459" width="40" height="38"/>
<path d="M47.9112 53.7753L49.8057 55.6698H40.6039V49.445H41.6864L44.4831 46.6484V45.5658H47.0091V44.2126H44.4831V42.2279H47.0091V40.8746H44.4831V38.8899H47.0091V37.5367H44.4831V35.552H47.0091V34.1988H44.4831V32.2141H47.0091V30.8609H44.4831V29.9587L41.6864 27.2523H40.6039V24.5459H39.2507V27.2523H37.2659V24.5459H35.9127V27.2523H33.928V24.5459H32.665V27.2523H30.6803V24.5459H29.3271V27.2523H27.3424V24.5459H25.9892V27.2523H24.9066L22.11 29.9587V31.0413H19.4036V32.3945H22.11V34.3792H19.4036V35.7324H22.11V37.7172H19.4036V39.0704H22.11V41.0551H19.4036V42.4083H22.11V44.393H19.4036V45.7462H22.11V46.8288L24.9066 49.6254H25.9892V55.8502H16.9678L18.8623 53.9557L17.8699 52.9633L14.3516 56.4817L17.8699 60L18.8623 59.0077L16.9678 57.023H27.5228V49.445H29.5075V52.1514H30.8607V49.445H32.665V52.1514H34.0182V49.445H36.0029V52.1514H37.3562V49.445H39.3409V57.023H49.8057L47.9112 58.9175L48.9036 59.9098L52.4219 56.3915L48.9036 52.8731L47.9112 53.7753ZM23.5534 46.1973V30.5L25.5381 28.5153H41.1451L43.1299 30.5V46.1973L41.1451 48.182H25.5381L23.5534 46.1973Z"/>
</mask>
<path d="M47.9112 53.7753L49.8057 55.6698H40.6039V49.445H41.6864L44.4831 46.6484V45.5658H47.0091V44.2126H44.4831V42.2279H47.0091V40.8746H44.4831V38.8899H47.0091V37.5367H44.4831V35.552H47.0091V34.1988H44.4831V32.2141H47.0091V30.8609H44.4831V29.9587L41.6864 27.2523H40.6039V24.5459H39.2507V27.2523H37.2659V24.5459H35.9127V27.2523H33.928V24.5459H32.665V27.2523H30.6803V24.5459H29.3271V27.2523H27.3424V24.5459H25.9892V27.2523H24.9066L22.11 29.9587V31.0413H19.4036V32.3945H22.11V34.3792H19.4036V35.7324H22.11V37.7172H19.4036V39.0704H22.11V41.0551H19.4036V42.4083H22.11V44.393H19.4036V45.7462H22.11V46.8288L24.9066 49.6254H25.9892V55.8502H16.9678L18.8623 53.9557L17.8699 52.9633L14.3516 56.4817L17.8699 60L18.8623 59.0077L16.9678 57.023H27.5228V49.445H29.5075V52.1514H30.8607V49.445H32.665V52.1514H34.0182V49.445H36.0029V52.1514H37.3562V49.445H39.3409V57.023H49.8057L47.9112 58.9175L48.9036 59.9098L52.4219 56.3915L48.9036 52.8731L47.9112 53.7753ZM23.5534 46.1973V30.5L25.5381 28.5153H41.1451L43.1299 30.5V46.1973L41.1451 48.182H25.5381L23.5534 46.1973Z" fill="#589CE7"/>
<path d="M47.9112 53.7753L49.8057 55.6698H40.6039V49.445H41.6864L44.4831 46.6484V45.5658H47.0091V44.2126H44.4831V42.2279H47.0091V40.8746H44.4831V38.8899H47.0091V37.5367H44.4831V35.552H47.0091V34.1988H44.4831V32.2141H47.0091V30.8609H44.4831V29.9587L41.6864 27.2523H40.6039V24.5459H39.2507V27.2523H37.2659V24.5459H35.9127V27.2523H33.928V24.5459H32.665V27.2523H30.6803V24.5459H29.3271V27.2523H27.3424V24.5459H25.9892V27.2523H24.9066L22.11 29.9587V31.0413H19.4036V32.3945H22.11V34.3792H19.4036V35.7324H22.11V37.7172H19.4036V39.0704H22.11V41.0551H19.4036V42.4083H22.11V44.393H19.4036V45.7462H22.11V46.8288L24.9066 49.6254H25.9892V55.8502H16.9678L18.8623 53.9557L17.8699 52.9633L14.3516 56.4817L17.8699 60L18.8623 59.0077L16.9678 57.023H27.5228V49.445H29.5075V52.1514H30.8607V49.445H32.665V52.1514H34.0182V49.445H36.0029V52.1514H37.3562V49.445H39.3409V57.023H49.8057L47.9112 58.9175L48.9036 59.9098L52.4219 56.3915L48.9036 52.8731L47.9112 53.7753ZM23.5534 46.1973V30.5L25.5381 28.5153H41.1451L43.1299 30.5V46.1973L41.1451 48.182H25.5381L23.5534 46.1973Z" stroke="#589CE7" stroke-width="0.8" mask="url(#path-3-outside-1_467_3403)"/>
</svg>
