<svg width="61" height="61" viewBox="0 0 61 61" fill="none" xmlns="http://www.w3.org/2000/svg">
<path d="M57.15 52.1333C57.15 51.8464 57.0363 51.57 56.8324 51.3672L50.2667 44.8015V41.2229C55.8444 40.2409 60.1 35.3725 60.1 29.5167C60.1 22.9547 54.7619 17.6167 48.2 17.6167C46.8245 17.6167 45.4863 17.8494 44.2075 18.3094C43.5913 15.6877 41.2518 13.724 38.4539 13.684C38.1444 6.58219 32.2682 0.9 25.0917 0.9C17.7165 0.9 11.7167 6.89984 11.7167 14.275C11.7167 14.7895 11.7465 15.304 11.8061 15.816C5.60224 16.7738 0.9 22.1462 0.9 28.5333C0.9 34.5852 5.09959 39.6632 10.7333 41.0385V44.8015L4.1676 51.3672C3.96368 51.57 3.85 51.8464 3.85 52.1333V56.0667V56.1667H3.95H5.91667H6.01667V56.0667V52.5819L12.5824 46.0161C12.7863 45.8133 12.9 45.5369 12.9 45.25V41.3746C13.1901 41.3969 13.4837 41.4167 13.7833 41.4167H16.6333V46.7681L12.0343 51.3672C11.8303 51.57 11.7167 51.8464 11.7167 52.1333V56.0667V56.1667H11.8167H13.7833H13.8833V56.0667V52.5819L18.4824 47.9828C18.6863 47.7799 18.8 47.5036 18.8 47.2167V41.4167H23.5167V48.7348L20.8843 51.3672C20.6803 51.57 20.5667 51.8464 20.5667 52.1333V56.0667V56.1667H20.6667H22.6333H22.7333V56.0667V52.5819L25.3657 49.9494C25.5697 49.7466 25.6833 49.4703 25.6833 49.1833V41.4167H29.4167V56.0667V56.1667H29.5167H31.4833H31.5833V56.0667V41.4167H35.3167V49.1833C35.3167 49.4703 35.4303 49.7466 35.6343 49.9494L38.2667 52.5819V56.0667V56.1667H38.3667H40.3333H40.4333V56.0667V52.1333C40.4333 51.8464 40.3197 51.57 40.1157 51.3672L37.4833 48.7348V41.4167H42.2V47.2167C42.2 47.5036 42.3137 47.7799 42.5176 47.9828L47.1167 52.5819V56.0667V56.1667H47.2167H49.1833H49.2833V56.0667V52.1333C49.2833 51.8464 49.1697 51.57 48.9657 51.3672L44.3667 46.7681V41.4167H48.1V45.25C48.1 45.5369 48.2137 45.8133 48.4176 46.0161L54.9833 52.5819V56.0667V56.1667H55.0833H57.05H57.15V56.0667V52.1333ZM13.1208 17.8519L13.1209 17.8519C13.4335 17.8324 13.7238 17.6789 13.9137 17.4296C14.1057 17.1801 14.1781 16.8594 14.1153 16.5521L14.1153 16.5519C13.9613 15.8043 13.8833 15.0382 13.8833 14.275C13.8833 8.09491 18.9116 3.06667 25.0917 3.06667C31.2718 3.06667 36.3 8.09491 36.3 14.275C36.3 14.3809 36.2924 14.4865 36.2845 14.5952L36.2845 14.5963L36.2707 14.8205L36.2706 14.8218C36.2544 15.1566 36.3941 15.4806 36.651 15.6984C36.9055 15.915 37.2467 16.0027 37.576 15.9334C39.9835 15.427 42.195 17.3084 42.1971 19.6602C42.1922 19.6993 42.1796 19.8122 42.1776 19.8429L42.1775 19.8442C42.1569 20.2311 42.3454 20.6005 42.6716 20.8107C42.9976 21.0208 43.4093 21.0414 43.7557 20.8638L43.7558 20.8638C45.1509 20.1472 46.6447 19.7833 48.2 19.7833C53.5669 19.7833 57.9333 24.1498 57.9333 29.5167C57.9333 34.8835 53.5669 39.25 48.2 39.25H13.7833C7.87464 39.25 3.06667 34.442 3.06667 28.5333C3.06667 22.8898 7.48293 18.1968 13.1208 17.8519Z" fill="#589CE7" stroke="#589CE7" stroke-width="0.2"/>
<path d="M27.9728 6.42829L28.0062 6.33403L27.912 6.30063C27.0074 5.98019 26.0589 5.81699 25.0918 5.81699H24.9918V5.91699V7.88366V7.98366H25.0918C25.8111 7.98366 26.5167 8.10466 27.1883 8.34273L27.2825 8.37614L27.316 8.28188L27.9728 6.42829Z" fill="#589CE7" stroke="#589CE7" stroke-width="0.2"/>
<path d="M22.3982 6.36113L22.3648 6.26685L22.2706 6.30028C18.8982 7.49638 16.6324 10.7004 16.6324 14.275V14.375H16.7324H18.6991H18.7991V14.275C18.7991 11.6162 20.4853 9.23193 22.9943 8.34237L23.0885 8.30895L23.0551 8.21471L22.3982 6.36113Z" fill="#589CE7" stroke="#589CE7" stroke-width="0.2"/>
<path d="M57.1507 58.0332V57.9332H57.0507H55.084H54.984V58.0332V59.9999V60.0999H55.084H57.0507H57.1507V59.9999V58.0332Z" fill="#589CE7" stroke="#589CE7" stroke-width="0.2"/>
<path d="M49.2835 58.0332V57.9332H49.1835H47.2168H47.1168V58.0332V59.9999V60.0999H47.2168H49.1835H49.2835V59.9999V58.0332Z" fill="#589CE7" stroke="#589CE7" stroke-width="0.2"/>
<path d="M40.4339 58.0332V57.9332H40.3339H38.3672H38.2672V58.0332V59.9999V60.0999H38.3672H40.3339H40.4339V59.9999V58.0332Z" fill="#589CE7" stroke="#589CE7" stroke-width="0.2"/>
<path d="M6.01589 58.0332V57.9332H5.91589H3.94922H3.84922V58.0332V59.9999V60.0999H3.94922H5.91589H6.01589V59.9999V58.0332Z" fill="#589CE7" stroke="#589CE7" stroke-width="0.2"/>
<path d="M13.8831 58.0332V57.9332H13.7831H11.8164H11.7164V58.0332V59.9999V60.0999H11.8164H13.7831H13.8831V59.9999V58.0332Z" fill="#589CE7" stroke="#589CE7" stroke-width="0.2"/>
<path d="M22.7327 58.0332V57.9332H22.6327H20.666H20.566V58.0332V59.9999V60.0999H20.666H22.6327H22.7327V59.9999V58.0332Z" fill="#589CE7" stroke="#589CE7" stroke-width="0.2"/>
<path d="M31.5842 58.0332V57.9332H31.4842H29.5176H29.4176V58.0332V59.9999V60.0999H29.5176H31.4842H31.5842V59.9999V58.0332Z" fill="#589CE7" stroke="#589CE7" stroke-width="0.2"/>
<path d="M27.6507 22.6338V22.5338H27.5507H25.584H25.484V22.6338V24.6005V24.7005H25.584H27.5507H27.6507V24.6005V22.6338Z" fill="#589CE7" stroke="#589CE7" stroke-width="0.2"/>
<path d="M27.6507 26.5664V26.4664H27.5507H25.584H25.484V26.5664V28.5331V28.6331H25.584H27.5507H27.6507V28.5331V26.5664Z" fill="#589CE7" stroke="#589CE7" stroke-width="0.2"/>
<path d="M27.6507 30.5V30.4H27.5507H25.584H25.484V30.5V32.4667V32.5667H25.584H27.5507H27.6507V32.4667V30.5Z" fill="#589CE7" stroke="#589CE7" stroke-width="0.2"/>
<path d="M31.5842 22.6338V22.5338H31.4842H29.5176H29.4176V22.6338V24.6005V24.7005H29.5176H31.4842H31.5842V24.6005V22.6338Z" fill="#589CE7" stroke="#589CE7" stroke-width="0.2"/>
<path d="M31.5842 26.5664V26.4664H31.4842H29.5176H29.4176V26.5664V28.5331V28.6331H29.5176H31.4842H31.5842V28.5331V26.5664Z" fill="#589CE7" stroke="#589CE7" stroke-width="0.2"/>
<path d="M31.5842 30.5V30.4H31.4842H29.5176H29.4176V30.5V32.4667V32.5667H29.5176H31.4842H31.5842V32.4667V30.5Z" fill="#589CE7" stroke="#589CE7" stroke-width="0.2"/>
<path d="M35.5159 22.6338V22.5338H35.4159H33.4492H33.3492V22.6338V24.6005V24.7005H33.4492H35.4159H35.5159V24.6005V22.6338Z" fill="#589CE7" stroke="#589CE7" stroke-width="0.2"/>
<path d="M35.5159 26.5664V26.4664H35.4159H33.4492H33.3492V26.5664V28.5331V28.6331H33.4492H35.4159H35.5159V28.5331V26.5664Z" fill="#589CE7" stroke="#589CE7" stroke-width="0.2"/>
<path d="M35.5159 30.5V30.4H35.4159H33.4492H33.3492V30.5V32.4667V32.5667H33.4492H35.4159H35.5159V32.4667V30.5Z" fill="#589CE7" stroke="#589CE7" stroke-width="0.2"/>
<path d="M37.2826 29.5166V34.3333H33.4492H33.3492V34.4333V36.3999V36.4999H33.4492H38.3659C38.965 36.4999 39.4492 36.0146 39.4492 35.4166V29.5166V29.4166H39.3492H37.3826H37.2826V29.5166Z" fill="#589CE7" stroke="#589CE7" stroke-width="0.2"/>
<path d="M28.6337 18.7002V18.6002H28.5337H22.6337C22.0346 18.6002 21.5504 19.0856 21.5504 19.6835V25.5835V25.6835H21.6504H23.6171H23.7171V25.5835V20.7669H28.5337H28.6337V20.6669V18.7002Z" fill="#589CE7" stroke="#589CE7" stroke-width="0.2"/>
<path d="M31.5841 34.4336V34.3336H31.4841H27.5508H27.4508V34.4336V36.4003V36.5003H27.5508H31.4841H31.5841V36.4003V34.4336Z" fill="#589CE7" stroke="#589CE7" stroke-width="0.2"/>
<path d="M33.55 18.7002V18.6002H33.45H30.5H30.4V18.7002V20.6669V20.7669H30.5H33.45H33.55V20.6669V18.7002Z" fill="#589CE7" stroke="#589CE7" stroke-width="0.2"/>
<path d="M35.416 18.6002H35.316V18.7002V20.6669V20.7669H35.416H37.2827V27.5502V27.6502H37.3827H39.3493H39.4493V27.5502V19.6835C39.4493 19.0856 38.9651 18.6002 38.366 18.6002H35.416Z" fill="#589CE7" stroke="#589CE7" stroke-width="0.2"/>
<path d="M23.7171 27.5498V27.4498H23.6171H21.6504H21.5504V27.5498V35.4165C21.5504 36.0144 22.0346 36.4998 22.6337 36.4998H25.5837H25.6837V36.3998V34.4331V34.3331H25.5837H23.7171V27.5498Z" fill="#589CE7" stroke="#589CE7" stroke-width="0.2"/>
</svg>
