<svg width="62" height="61" viewBox="0 0 62 61" fill="none" xmlns="http://www.w3.org/2000/svg">
<mask id="path-1-outside-1_467_3402" maskUnits="userSpaceOnUse" x="0" y="0" width="62" height="61" fill="black">
<rect fill="white" width="62" height="61"/>
<path d="M55.539 24.4127C55.8942 23.1569 56.0738 21.8592 56.0738 20.5416C56.0738 12.6725 49.6365 6.27042 41.7241 6.27042C40.3111 6.27042 38.9188 6.4743 37.5779 6.87609C36.1842 5.15935 34.424 3.73217 32.4554 2.72803C30.2064 1.5811 27.7763 1 25.2314 1C16.491 1 9.37987 8.07216 9.37987 16.7648C9.37987 17.6255 9.44999 18.4855 9.58955 19.3329C7.39525 19.6132 5.36523 20.6213 3.79463 22.2278C1.99231 24.0707 1 26.4921 1 29.0469C1 34.4475 5.41798 38.8413 10.8483 38.8413H17.6816V43.5459C17.6816 44.977 18.8522 46.1412 20.2913 46.1412H21.351V49.8888L17.697 53.1736C17.122 52.7791 16.4262 52.5473 15.6763 52.5473C13.709 52.5473 12.1084 54.1392 12.1084 56.0957C12.1084 58.0522 13.709 59.644 15.6763 59.644C17.6436 59.644 19.2442 58.0522 19.2442 56.0957C19.2442 55.478 19.0846 54.8969 18.8041 54.3902L22.7293 50.8618C22.9023 50.7064 23.0011 50.4852 23.0011 50.2528V46.1399H30.175V53.0002C28.6044 53.3715 27.4324 54.7774 27.4324 56.4516C27.4324 58.4081 29.0331 60 31.0003 60C32.9676 60 34.5682 58.4081 34.5682 56.4516C34.5682 54.7774 33.3963 53.3715 31.8257 53.0002V46.1399H38.9996V50.2521C38.9996 50.4839 39.0984 50.705 39.2714 50.8611L43.1965 54.3896C42.9161 54.8963 42.7565 55.4774 42.7565 56.095C42.7565 58.0515 44.3571 59.6434 46.3244 59.6434C48.2916 59.6434 49.8923 58.0515 49.8923 56.095C49.8923 54.1385 48.2916 52.5466 46.3244 52.5466C45.5745 52.5466 44.8786 52.7784 44.3037 53.1729L40.6496 49.8882V46.1399H41.7094C43.1484 46.1399 44.319 44.9757 44.319 43.5446V38.84H53.6191C57.6892 38.84 61 35.5466 61 31.4995C60.9993 28.159 58.7109 25.2654 55.539 24.4127ZM15.6763 58.0017C14.6192 58.0017 13.7585 57.1463 13.7585 56.0943C13.7585 55.043 14.6185 54.187 15.6763 54.187C16.734 54.187 17.5941 55.0424 17.5941 56.0943C17.5941 57.1463 16.734 58.0017 15.6763 58.0017ZM32.9175 56.4516C32.9175 57.5036 32.0574 58.359 30.9997 58.359C29.9426 58.359 29.0818 57.5036 29.0818 56.4516C29.0818 55.4003 29.9419 54.5443 30.9997 54.5443C32.0567 54.545 32.9175 55.4003 32.9175 56.4516ZM46.323 54.1877C47.3801 54.1877 48.2409 55.043 48.2409 56.095C48.2409 57.147 47.3808 58.0023 46.323 58.0023C45.2653 58.0023 44.4052 57.147 44.4052 56.095C44.4052 55.043 45.2653 54.1877 46.323 54.1877ZM42.6676 43.5452C42.6676 44.0712 42.2376 44.4989 41.7087 44.4989H20.2906C19.7617 44.4989 19.3317 44.0712 19.3317 43.5452V26.4283C19.3317 25.9023 19.7617 25.4746 20.2906 25.4746H41.7081C42.2369 25.4746 42.667 25.9023 42.667 26.4283L42.6676 43.5452ZM40.2122 23.8329H38.2063V22.1395C38.2063 18.1873 34.9736 14.9723 30.9997 14.9723C27.0258 14.9723 23.7931 18.1873 23.7931 22.1395V23.8329H21.7871V22.1395C21.7871 17.0875 25.9199 12.9773 30.9997 12.9773C36.0794 12.9773 40.2122 17.0875 40.2122 22.1395V23.8329ZM36.5562 23.8329H25.4431V22.1395C25.4431 19.0925 27.9359 16.6134 30.9997 16.6134C34.0634 16.6134 36.5562 19.0925 36.5562 22.1395V23.8329ZM53.6178 37.1996H44.3177V26.4283C44.3177 25.0489 43.2299 23.918 41.863 23.8383V22.1401C41.863 16.183 36.9896 11.3363 30.9997 11.3363C25.0097 11.3363 20.1363 16.183 20.1363 22.1401V23.8383C18.7694 23.918 17.6809 25.0489 17.6809 26.4283V37.1996H10.8483C6.32815 37.1996 2.65073 33.5423 2.65073 29.0463C2.65073 24.6843 6.2173 21.0284 10.6012 20.8976C10.8476 20.8903 11.0773 20.7734 11.2289 20.5801C11.3799 20.3862 11.4359 20.1358 11.3812 19.8967C11.1488 18.8733 11.0306 17.8194 11.0306 16.7648C11.0306 8.97669 17.4012 2.64103 25.2321 2.64103C29.7583 2.64103 33.9091 4.71307 36.6203 8.32586C36.8353 8.61275 37.2126 8.72765 37.5525 8.6101C38.8921 8.14721 40.2957 7.91211 41.7241 7.91211C48.7263 7.91211 54.4238 13.5777 54.4238 20.5423C54.4238 21.9887 54.1794 23.4086 53.6972 24.7627C53.6144 24.9958 53.6411 25.2542 53.7714 25.4653C53.9016 25.6765 54.1199 25.818 54.367 25.8505C57.2077 26.2238 59.3493 28.6524 59.3493 31.5008C59.3486 34.6428 56.7783 37.1996 53.6178 37.1996ZM35.2808 32.5687C35.2808 30.2211 33.3602 28.3111 30.9997 28.3111C28.6391 28.3111 26.7186 30.2211 26.7186 32.5687C26.7186 33.8657 27.3162 35.0837 28.3146 35.8846L27.0391 39.6362C26.8782 40.1104 26.9536 40.6158 27.2475 41.0229C27.5413 41.4293 27.998 41.6631 28.5015 41.6631H33.4985C34.002 41.6631 34.4594 41.43 34.7525 41.0229C35.0457 40.6158 35.1218 40.1104 34.9602 39.6362L33.6848 35.8853C34.6831 35.0831 35.2808 33.8657 35.2808 32.5687ZM32.2958 34.846C31.9519 35.0399 31.795 35.4497 31.9212 35.8222L33.3489 40.0208H28.6491L30.0768 35.8222C30.2037 35.4497 30.0468 35.0399 29.7022 34.846C28.8788 34.3811 28.3673 33.5084 28.3673 32.5687C28.3673 31.1256 29.5473 29.9521 30.9983 29.9521C32.4494 29.9521 33.6294 31.1263 33.6294 32.5687C33.6307 33.5084 33.1192 34.3811 32.2958 34.846Z"/>
</mask>
<path d="M55.539 24.4127C55.8942 23.1569 56.0738 21.8592 56.0738 20.5416C56.0738 12.6725 49.6365 6.27042 41.7241 6.27042C40.3111 6.27042 38.9188 6.4743 37.5779 6.87609C36.1842 5.15935 34.424 3.73217 32.4554 2.72803C30.2064 1.5811 27.7763 1 25.2314 1C16.491 1 9.37987 8.07216 9.37987 16.7648C9.37987 17.6255 9.44999 18.4855 9.58955 19.3329C7.39525 19.6132 5.36523 20.6213 3.79463 22.2278C1.99231 24.0707 1 26.4921 1 29.0469C1 34.4475 5.41798 38.8413 10.8483 38.8413H17.6816V43.5459C17.6816 44.977 18.8522 46.1412 20.2913 46.1412H21.351V49.8888L17.697 53.1736C17.122 52.7791 16.4262 52.5473 15.6763 52.5473C13.709 52.5473 12.1084 54.1392 12.1084 56.0957C12.1084 58.0522 13.709 59.644 15.6763 59.644C17.6436 59.644 19.2442 58.0522 19.2442 56.0957C19.2442 55.478 19.0846 54.8969 18.8041 54.3902L22.7293 50.8618C22.9023 50.7064 23.0011 50.4852 23.0011 50.2528V46.1399H30.175V53.0002C28.6044 53.3715 27.4324 54.7774 27.4324 56.4516C27.4324 58.4081 29.0331 60 31.0003 60C32.9676 60 34.5682 58.4081 34.5682 56.4516C34.5682 54.7774 33.3963 53.3715 31.8257 53.0002V46.1399H38.9996V50.2521C38.9996 50.4839 39.0984 50.705 39.2714 50.8611L43.1965 54.3896C42.9161 54.8963 42.7565 55.4774 42.7565 56.095C42.7565 58.0515 44.3571 59.6434 46.3244 59.6434C48.2916 59.6434 49.8923 58.0515 49.8923 56.095C49.8923 54.1385 48.2916 52.5466 46.3244 52.5466C45.5745 52.5466 44.8786 52.7784 44.3037 53.1729L40.6496 49.8882V46.1399H41.7094C43.1484 46.1399 44.319 44.9757 44.319 43.5446V38.84H53.6191C57.6892 38.84 61 35.5466 61 31.4995C60.9993 28.159 58.7109 25.2654 55.539 24.4127ZM15.6763 58.0017C14.6192 58.0017 13.7585 57.1463 13.7585 56.0943C13.7585 55.043 14.6185 54.187 15.6763 54.187C16.734 54.187 17.5941 55.0424 17.5941 56.0943C17.5941 57.1463 16.734 58.0017 15.6763 58.0017ZM32.9175 56.4516C32.9175 57.5036 32.0574 58.359 30.9997 58.359C29.9426 58.359 29.0818 57.5036 29.0818 56.4516C29.0818 55.4003 29.9419 54.5443 30.9997 54.5443C32.0567 54.545 32.9175 55.4003 32.9175 56.4516ZM46.323 54.1877C47.3801 54.1877 48.2409 55.043 48.2409 56.095C48.2409 57.147 47.3808 58.0023 46.323 58.0023C45.2653 58.0023 44.4052 57.147 44.4052 56.095C44.4052 55.043 45.2653 54.1877 46.323 54.1877ZM42.6676 43.5452C42.6676 44.0712 42.2376 44.4989 41.7087 44.4989H20.2906C19.7617 44.4989 19.3317 44.0712 19.3317 43.5452V26.4283C19.3317 25.9023 19.7617 25.4746 20.2906 25.4746H41.7081C42.2369 25.4746 42.667 25.9023 42.667 26.4283L42.6676 43.5452ZM40.2122 23.8329H38.2063V22.1395C38.2063 18.1873 34.9736 14.9723 30.9997 14.9723C27.0258 14.9723 23.7931 18.1873 23.7931 22.1395V23.8329H21.7871V22.1395C21.7871 17.0875 25.9199 12.9773 30.9997 12.9773C36.0794 12.9773 40.2122 17.0875 40.2122 22.1395V23.8329ZM36.5562 23.8329H25.4431V22.1395C25.4431 19.0925 27.9359 16.6134 30.9997 16.6134C34.0634 16.6134 36.5562 19.0925 36.5562 22.1395V23.8329ZM53.6178 37.1996H44.3177V26.4283C44.3177 25.0489 43.2299 23.918 41.863 23.8383V22.1401C41.863 16.183 36.9896 11.3363 30.9997 11.3363C25.0097 11.3363 20.1363 16.183 20.1363 22.1401V23.8383C18.7694 23.918 17.6809 25.0489 17.6809 26.4283V37.1996H10.8483C6.32815 37.1996 2.65073 33.5423 2.65073 29.0463C2.65073 24.6843 6.2173 21.0284 10.6012 20.8976C10.8476 20.8903 11.0773 20.7734 11.2289 20.5801C11.3799 20.3862 11.4359 20.1358 11.3812 19.8967C11.1488 18.8733 11.0306 17.8194 11.0306 16.7648C11.0306 8.97669 17.4012 2.64103 25.2321 2.64103C29.7583 2.64103 33.9091 4.71307 36.6203 8.32586C36.8353 8.61275 37.2126 8.72765 37.5525 8.6101C38.8921 8.14721 40.2957 7.91211 41.7241 7.91211C48.7263 7.91211 54.4238 13.5777 54.4238 20.5423C54.4238 21.9887 54.1794 23.4086 53.6972 24.7627C53.6144 24.9958 53.6411 25.2542 53.7714 25.4653C53.9016 25.6765 54.1199 25.818 54.367 25.8505C57.2077 26.2238 59.3493 28.6524 59.3493 31.5008C59.3486 34.6428 56.7783 37.1996 53.6178 37.1996ZM35.2808 32.5687C35.2808 30.2211 33.3602 28.3111 30.9997 28.3111C28.6391 28.3111 26.7186 30.2211 26.7186 32.5687C26.7186 33.8657 27.3162 35.0837 28.3146 35.8846L27.0391 39.6362C26.8782 40.1104 26.9536 40.6158 27.2475 41.0229C27.5413 41.4293 27.998 41.6631 28.5015 41.6631H33.4985C34.002 41.6631 34.4594 41.43 34.7525 41.0229C35.0457 40.6158 35.1218 40.1104 34.9602 39.6362L33.6848 35.8853C34.6831 35.0831 35.2808 33.8657 35.2808 32.5687ZM32.2958 34.846C31.9519 35.0399 31.795 35.4497 31.9212 35.8222L33.3489 40.0208H28.6491L30.0768 35.8222C30.2037 35.4497 30.0468 35.0399 29.7022 34.846C28.8788 34.3811 28.3673 33.5084 28.3673 32.5687C28.3673 31.1256 29.5473 29.9521 30.9983 29.9521C32.4494 29.9521 33.6294 31.1263 33.6294 32.5687C33.6307 33.5084 33.1192 34.3811 32.2958 34.846Z" fill="#589CE7"/>
<path d="M55.539 24.4127C55.8942 23.1569 56.0738 21.8592 56.0738 20.5416C56.0738 12.6725 49.6365 6.27042 41.7241 6.27042C40.3111 6.27042 38.9188 6.4743 37.5779 6.87609C36.1842 5.15935 34.424 3.73217 32.4554 2.72803C30.2064 1.5811 27.7763 1 25.2314 1C16.491 1 9.37987 8.07216 9.37987 16.7648C9.37987 17.6255 9.44999 18.4855 9.58955 19.3329C7.39525 19.6132 5.36523 20.6213 3.79463 22.2278C1.99231 24.0707 1 26.4921 1 29.0469C1 34.4475 5.41798 38.8413 10.8483 38.8413H17.6816V43.5459C17.6816 44.977 18.8522 46.1412 20.2913 46.1412H21.351V49.8888L17.697 53.1736C17.122 52.7791 16.4262 52.5473 15.6763 52.5473C13.709 52.5473 12.1084 54.1392 12.1084 56.0957C12.1084 58.0522 13.709 59.644 15.6763 59.644C17.6436 59.644 19.2442 58.0522 19.2442 56.0957C19.2442 55.478 19.0846 54.8969 18.8041 54.3902L22.7293 50.8618C22.9023 50.7064 23.0011 50.4852 23.0011 50.2528V46.1399H30.175V53.0002C28.6044 53.3715 27.4324 54.7774 27.4324 56.4516C27.4324 58.4081 29.0331 60 31.0003 60C32.9676 60 34.5682 58.4081 34.5682 56.4516C34.5682 54.7774 33.3963 53.3715 31.8257 53.0002V46.1399H38.9996V50.2521C38.9996 50.4839 39.0984 50.705 39.2714 50.8611L43.1965 54.3896C42.9161 54.8963 42.7565 55.4774 42.7565 56.095C42.7565 58.0515 44.3571 59.6434 46.3244 59.6434C48.2916 59.6434 49.8923 58.0515 49.8923 56.095C49.8923 54.1385 48.2916 52.5466 46.3244 52.5466C45.5745 52.5466 44.8786 52.7784 44.3037 53.1729L40.6496 49.8882V46.1399H41.7094C43.1484 46.1399 44.319 44.9757 44.319 43.5446V38.84H53.6191C57.6892 38.84 61 35.5466 61 31.4995C60.9993 28.159 58.7109 25.2654 55.539 24.4127ZM15.6763 58.0017C14.6192 58.0017 13.7585 57.1463 13.7585 56.0943C13.7585 55.043 14.6185 54.187 15.6763 54.187C16.734 54.187 17.5941 55.0424 17.5941 56.0943C17.5941 57.1463 16.734 58.0017 15.6763 58.0017ZM32.9175 56.4516C32.9175 57.5036 32.0574 58.359 30.9997 58.359C29.9426 58.359 29.0818 57.5036 29.0818 56.4516C29.0818 55.4003 29.9419 54.5443 30.9997 54.5443C32.0567 54.545 32.9175 55.4003 32.9175 56.4516ZM46.323 54.1877C47.3801 54.1877 48.2409 55.043 48.2409 56.095C48.2409 57.147 47.3808 58.0023 46.323 58.0023C45.2653 58.0023 44.4052 57.147 44.4052 56.095C44.4052 55.043 45.2653 54.1877 46.323 54.1877ZM42.6676 43.5452C42.6676 44.0712 42.2376 44.4989 41.7087 44.4989H20.2906C19.7617 44.4989 19.3317 44.0712 19.3317 43.5452V26.4283C19.3317 25.9023 19.7617 25.4746 20.2906 25.4746H41.7081C42.2369 25.4746 42.667 25.9023 42.667 26.4283L42.6676 43.5452ZM40.2122 23.8329H38.2063V22.1395C38.2063 18.1873 34.9736 14.9723 30.9997 14.9723C27.0258 14.9723 23.7931 18.1873 23.7931 22.1395V23.8329H21.7871V22.1395C21.7871 17.0875 25.9199 12.9773 30.9997 12.9773C36.0794 12.9773 40.2122 17.0875 40.2122 22.1395V23.8329ZM36.5562 23.8329H25.4431V22.1395C25.4431 19.0925 27.9359 16.6134 30.9997 16.6134C34.0634 16.6134 36.5562 19.0925 36.5562 22.1395V23.8329ZM53.6178 37.1996H44.3177V26.4283C44.3177 25.0489 43.2299 23.918 41.863 23.8383V22.1401C41.863 16.183 36.9896 11.3363 30.9997 11.3363C25.0097 11.3363 20.1363 16.183 20.1363 22.1401V23.8383C18.7694 23.918 17.6809 25.0489 17.6809 26.4283V37.1996H10.8483C6.32815 37.1996 2.65073 33.5423 2.65073 29.0463C2.65073 24.6843 6.2173 21.0284 10.6012 20.8976C10.8476 20.8903 11.0773 20.7734 11.2289 20.5801C11.3799 20.3862 11.4359 20.1358 11.3812 19.8967C11.1488 18.8733 11.0306 17.8194 11.0306 16.7648C11.0306 8.97669 17.4012 2.64103 25.2321 2.64103C29.7583 2.64103 33.9091 4.71307 36.6203 8.32586C36.8353 8.61275 37.2126 8.72765 37.5525 8.6101C38.8921 8.14721 40.2957 7.91211 41.7241 7.91211C48.7263 7.91211 54.4238 13.5777 54.4238 20.5423C54.4238 21.9887 54.1794 23.4086 53.6972 24.7627C53.6144 24.9958 53.6411 25.2542 53.7714 25.4653C53.9016 25.6765 54.1199 25.818 54.367 25.8505C57.2077 26.2238 59.3493 28.6524 59.3493 31.5008C59.3486 34.6428 56.7783 37.1996 53.6178 37.1996ZM35.2808 32.5687C35.2808 30.2211 33.3602 28.3111 30.9997 28.3111C28.6391 28.3111 26.7186 30.2211 26.7186 32.5687C26.7186 33.8657 27.3162 35.0837 28.3146 35.8846L27.0391 39.6362C26.8782 40.1104 26.9536 40.6158 27.2475 41.0229C27.5413 41.4293 27.998 41.6631 28.5015 41.6631H33.4985C34.002 41.6631 34.4594 41.43 34.7525 41.0229C35.0457 40.6158 35.1218 40.1104 34.9602 39.6362L33.6848 35.8853C34.6831 35.0831 35.2808 33.8657 35.2808 32.5687ZM32.2958 34.846C31.9519 35.0399 31.795 35.4497 31.9212 35.8222L33.3489 40.0208H28.6491L30.0768 35.8222C30.2037 35.4497 30.0468 35.0399 29.7022 34.846C28.8788 34.3811 28.3673 33.5084 28.3673 32.5687C28.3673 31.1256 29.5473 29.9521 30.9983 29.9521C32.4494 29.9521 33.6294 31.1263 33.6294 32.5687C33.6307 33.5084 33.1192 34.3811 32.2958 34.846Z" stroke="#589CE7" stroke-width="0.6" mask="url(#path-1-outside-1_467_3402)"/>
</svg>
