<svg width="69" height="59" viewBox="0 0 69 59" fill="none" xmlns="http://www.w3.org/2000/svg">
<path d="M65.921 35.5038V38.4106C65.921 39.6217 64.923 40.6079 63.6974 40.6079H63.2772V50.522H67.9345C68.5123 50.522 68.9851 50.9892 68.9851 51.5601V57.9619C68.9851 58.5328 68.5123 59 67.9345 59H1.05053C0.47274 59 0 58.5328 0 57.9619V51.5601C0 50.9892 0.47274 50.522 1.05053 50.522H4.20214V1.03812C4.20214 0.467155 4.67488 0 5.25267 0H33.6171C34.1949 0 34.6676 0.467155 34.6676 1.03812V50.522H40.6031V44.1202C39.8328 44.1202 39.2375 44.0856 38.6071 43.4801C38.2044 43.0821 37.9593 42.5284 37.9593 41.9229V39.0161C37.9593 37.805 38.9748 36.8188 40.1829 36.8188H43.1244C43.7372 36.8188 44.2975 37.061 44.7002 37.4589C45.1029 37.8569 45.3481 38.4106 45.3481 39.0161V41.9229C45.3481 43.134 44.3501 44.1202 43.1244 44.1202H42.7042V50.522H50.8809V47.4076C50.093 47.4076 49.5152 47.3903 48.8849 46.7674C48.4822 46.3695 48.237 45.8158 48.237 45.2103V42.3035C48.237 41.0924 49.235 40.1062 50.4607 40.1062H53.4022C54.015 40.1062 54.5753 40.3484 54.978 40.7636C55.3807 41.1616 55.6258 41.7153 55.6258 42.3208V45.2276C55.6258 46.4387 54.6103 47.4249 53.4022 47.4249H52.9819V50.5393H61.1761V40.6252C60.3882 40.6252 59.8104 40.5906 59.1801 39.985C58.7774 39.5871 58.5323 39.0334 58.5323 38.4279V35.5211C58.5323 34.31 59.5478 33.3238 60.7559 33.3238H63.6974C64.3102 33.3238 64.8705 33.566 65.2732 33.9639C65.6759 34.3446 65.921 34.8982 65.921 35.5038ZM63.82 38.4106V35.5038C63.82 35.4692 63.8024 35.4346 63.7849 35.4173L63.6974 35.3827L60.6859 35.4L60.6333 35.5038V38.4106C60.6333 38.4452 60.6508 38.4798 60.6684 38.4971L60.7559 38.5317L63.7674 38.5144L63.82 38.4106ZM53.5247 45.2103V42.3035C53.5247 42.2689 53.5072 42.2343 53.4897 42.217L53.4022 42.1824L50.3906 42.1997L50.3381 42.3035V45.2103C50.3381 45.2449 50.3556 45.2795 50.3731 45.2968L50.4607 45.3314L53.4722 45.3141L53.5247 45.2103ZM43.247 41.9229V39.0161C43.247 38.9815 43.2295 38.9469 43.212 38.9296L43.1244 38.895L40.1129 38.9123L40.0604 39.0161V41.9229C40.0604 41.9575 40.0779 41.9921 40.0954 42.0094L40.1829 42.044L43.1945 42.0267L43.247 41.9229ZM28.1718 6.48827C30.7982 6.48827 32.1639 9.63724 30.2729 11.4886C28.3819 13.3399 25.1953 11.9903 25.1953 9.41232C25.1953 7.80322 26.5435 6.48827 28.1718 6.48827ZM28.7846 8.80674C28.2594 8.28768 27.2789 8.63372 27.2789 9.41232C27.2789 10.5369 29.0298 10.5369 29.0298 9.41232C29.0473 9.17009 28.9422 8.96246 28.7846 8.80674ZM28.1718 40.729C30.7982 40.729 32.1639 43.878 30.2729 45.7293C28.3819 47.5806 25.1953 46.2311 25.1953 43.6531C25.1953 42.044 26.5435 40.729 28.1718 40.729ZM28.7846 43.0648C28.2594 42.5457 27.2789 42.8918 27.2789 43.6704C27.2789 44.795 29.0298 44.795 29.0298 43.6704C29.0473 43.4282 28.9422 43.2205 28.7846 43.0648ZM16.5284 32.1645C19.1547 32.1645 20.5204 35.3135 18.6295 37.1648C16.7385 39.0161 13.5519 37.6666 13.5519 35.0886C13.5519 33.4795 14.9001 32.1645 16.5284 32.1645ZM17.1412 34.5003C16.6159 33.9812 15.6355 34.3273 15.6355 35.1059C15.6355 36.2305 17.3863 36.2305 17.3863 35.1059C17.4039 34.8636 17.2988 34.656 17.1412 34.5003ZM22.3414 23.6173C24.9677 23.6173 26.3334 26.7663 24.4424 28.6176C22.5515 30.4689 19.3648 29.1194 19.3648 26.5413C19.3648 24.915 20.713 23.6173 22.3414 23.6173ZM22.9717 25.9358C22.4464 25.4167 21.4659 25.7628 21.4659 26.5413C21.4659 27.666 23.2168 27.666 23.2168 26.5413C23.2168 26.2991 23.1293 26.0915 22.9717 25.9358ZM16.5284 6.48827C19.1547 6.48827 20.5204 9.63724 18.6295 11.4886C16.7385 13.3399 13.5519 11.9903 13.5519 9.41232C13.5519 7.80322 14.9001 6.48827 16.5284 6.48827ZM17.1412 8.80674C16.6159 8.28768 15.6355 8.63372 15.6355 9.41232C15.6355 10.5369 17.3863 10.5369 17.3863 9.41232C17.4039 9.17009 17.2988 8.96246 17.1412 8.80674ZM9.64741 42.1997C9.64741 41.6287 10.1201 41.1616 10.6979 41.1616C11.2757 41.1616 11.7485 41.6287 11.7485 42.1997V45.1065C11.7485 45.6774 11.2757 46.1446 10.6979 46.1446C10.1201 46.1446 9.64741 45.6774 9.64741 45.1065V42.1997ZM9.64741 7.95894C9.64741 7.38798 10.1201 6.92082 10.6979 6.92082C11.2757 6.92082 11.7485 7.38798 11.7485 7.95894V10.8657C11.7485 11.4367 11.2757 11.9038 10.6979 11.9038C10.1201 11.9038 9.64741 11.4367 9.64741 10.8657V7.95894ZM21.2908 7.95894C21.2908 7.38798 21.7636 6.92082 22.3414 6.92082C22.9192 6.92082 23.3919 7.38798 23.3919 7.95894V10.8657C23.3919 11.4367 22.9192 11.9038 22.3414 11.9038C21.7636 11.9038 21.2908 11.4367 21.2908 10.8657V7.95894ZM9.64741 16.5235C9.64741 15.9525 10.1201 15.4853 10.6979 15.4853C11.2757 15.4853 11.7485 15.9525 11.7485 16.5235V19.4302C11.7485 20.0012 11.2757 20.4683 10.6979 20.4683C10.1201 20.4683 9.64741 20.0012 9.64741 19.4302V16.5235ZM27.1213 16.5235C27.1213 15.9525 27.594 15.4853 28.1718 15.4853C28.7496 15.4853 29.2224 15.9525 29.2224 16.5235V19.4302C29.2224 20.0012 28.7496 20.4683 28.1718 20.4683C27.594 20.4683 27.1213 20.0012 27.1213 19.4302V16.5235ZM21.2908 16.5235C21.2908 15.9525 21.7636 15.4853 22.3414 15.4853C22.9192 15.4853 23.3919 15.9525 23.3919 16.5235V19.4302C23.3919 20.0012 22.9192 20.4683 22.3414 20.4683C21.7636 20.4683 21.2908 20.0012 21.2908 19.4302V16.5235ZM15.4779 16.5235C15.4779 15.9525 15.9506 15.4853 16.5284 15.4853C17.1062 15.4853 17.5789 15.9525 17.5789 16.5235V19.4302C17.5789 20.0012 17.1062 20.4683 16.5284 20.4683C15.9506 20.4683 15.4779 20.0012 15.4779 19.4302V16.5235ZM9.64741 25.088C9.64741 24.517 10.1201 24.0499 10.6979 24.0499C11.2757 24.0499 11.7485 24.517 11.7485 25.088V27.9947C11.7485 28.5657 11.2757 29.0328 10.6979 29.0328C10.1201 29.0328 9.64741 28.5657 9.64741 27.9947V25.088ZM27.1213 25.088C27.1213 24.517 27.594 24.0499 28.1718 24.0499C28.7496 24.0499 29.2224 24.517 29.2224 25.088V27.9947C29.2224 28.5657 28.7496 29.0328 28.1718 29.0328C27.594 29.0328 27.1213 28.5657 27.1213 27.9947V25.088ZM15.4779 25.088C15.4779 24.517 15.9506 24.0499 16.5284 24.0499C17.1062 24.0499 17.5789 24.517 17.5789 25.088V27.9947C17.5789 28.5657 17.1062 29.0328 16.5284 29.0328C15.9506 29.0328 15.4779 28.5657 15.4779 27.9947V25.088ZM9.64741 33.6525C9.64741 33.0815 10.1201 32.6144 10.6979 32.6144C11.2757 32.6144 11.7485 33.0815 11.7485 33.6525V36.5592C11.7485 37.1302 11.2757 37.5974 10.6979 37.5974C10.1201 37.5974 9.64741 37.1302 9.64741 36.5592V33.6525ZM27.1213 33.6525C27.1213 33.0815 27.594 32.6144 28.1718 32.6144C28.7496 32.6144 29.2224 33.0815 29.2224 33.6525V36.5592C29.2224 37.1302 28.7496 37.5974 28.1718 37.5974C27.594 37.5974 27.1213 37.1302 27.1213 36.5592V33.6525ZM21.2908 33.6525C21.2908 33.0815 21.7636 32.6144 22.3414 32.6144C22.9192 32.6144 23.3919 33.0815 23.3919 33.6525V36.5592C23.3919 37.1302 22.9192 37.5974 22.3414 37.5974C21.7636 37.5974 21.2908 37.1302 21.2908 36.5592V33.6525ZM21.2908 42.1997C21.2908 41.6287 21.7636 41.1616 22.3414 41.1616C22.9192 41.1616 23.3919 41.6287 23.3919 42.1997V45.1065C23.3919 45.6774 22.9192 46.1446 22.3414 46.1446C21.7636 46.1446 21.2908 45.6774 21.2908 45.1065V42.1997ZM15.4779 42.1997C15.4779 41.6287 15.9506 41.1616 16.5284 41.1616C17.1062 41.1616 17.5789 41.6287 17.5789 42.1997V45.1065C17.5789 45.6774 17.1062 46.1446 16.5284 46.1446C15.9506 46.1446 15.4779 45.6774 15.4779 45.1065V42.1997ZM62.1916 6.41906L64.6954 5.00029C65.1857 4.72346 65.8335 4.87918 66.1136 5.38094L68.845 10.0352C69.1427 10.537 68.9676 11.1771 68.4073 11.4886L65.9735 12.89C66.3412 14.5683 66.3412 16.2639 65.9735 17.9422L68.4773 19.361C68.9851 19.6551 69.1427 20.278 68.8625 20.7798L66.1311 25.434C65.8335 25.9358 65.1857 26.1088 64.6429 25.7801L62.1916 24.3786C60.9135 25.5205 59.4077 26.3856 57.7619 26.922V29.7768C57.7619 30.3478 57.2891 30.815 56.7113 30.815H51.2661C50.6883 30.815 50.2155 30.3478 50.2155 29.7768V26.9047C48.5697 26.3683 47.0639 25.5032 45.7858 24.3613L43.282 25.7801C42.7743 26.0569 42.1439 25.9012 41.8463 25.3994L39.1149 20.7452C38.8172 20.2434 38.9923 19.6032 39.5526 19.2918L41.9864 17.8903C41.6187 16.212 41.6187 14.4991 41.9864 12.8208L39.4826 11.4021C38.9748 11.1252 38.7997 10.4677 39.0974 9.98328L41.8288 5.32903C42.1264 4.82727 42.7743 4.65425 43.317 4.98299L45.7683 6.38446C47.0464 5.24252 48.5522 4.37742 50.198 3.85836V1.03812C50.198 0.467155 50.6708 0 51.2486 0H56.6938C57.2716 0 57.7444 0.467155 57.7444 1.03812V3.89296C59.4077 4.41202 60.9135 5.27713 62.1916 6.41906ZM64.8355 7.30147L62.6118 8.56452C62.1916 8.82405 61.6313 8.77214 61.2812 8.4088C60.6333 7.73402 59.8805 7.16305 59.0575 6.69589C58.2696 6.24604 57.4117 5.9 56.5187 5.67507C56.046 5.58856 55.6783 5.15601 55.6783 4.65425V2.05894H52.3341V4.65425C52.3341 5.12141 52.019 5.53666 51.5462 5.65777C49.7078 6.10762 48.0444 7.07654 46.7138 8.4088C46.3986 8.73754 45.8733 8.82405 45.4356 8.58182L43.1595 7.28416L41.4786 10.1563L43.6847 11.4021C44.1399 11.6097 44.3851 12.1287 44.245 12.6305C43.7197 14.4126 43.7197 16.3331 44.245 18.1326C44.3676 18.5824 44.1925 19.0669 43.7548 19.3091L41.4786 20.6067L43.1595 23.4789L45.3831 22.2158C45.8033 21.939 46.3636 21.9909 46.7138 22.3543C47.3616 23.029 48.1145 23.6 48.9374 24.0672C49.7253 24.517 50.5832 24.8631 51.4762 25.088C51.9664 25.1745 52.3166 25.5897 52.3166 26.1088V28.7041H55.6608V26.1088C55.6608 25.6416 55.976 25.2264 56.4487 25.1053C58.2871 24.6554 59.9505 23.6865 61.2812 22.3543C61.5963 22.0255 62.1216 21.939 62.5593 22.1812L64.8355 23.4789L66.5163 20.6067L64.2927 19.3437C63.855 19.1188 63.6099 18.617 63.7499 18.1326C64.2577 16.3331 64.2577 14.4126 63.7499 12.6305C63.6274 12.1806 63.8024 11.6962 64.2402 11.454L66.5163 10.1563L64.8355 7.30147ZM53.9799 9.44692C57.3066 9.44692 60.003 12.1114 60.003 15.3988C60.003 18.6862 57.3066 21.3507 53.9799 21.3507C50.6533 21.3507 47.9569 18.6862 47.9569 15.3988C47.9744 12.1114 50.6708 9.44692 53.9799 9.44692ZM56.7639 12.6651C54.2951 10.2255 50.0755 11.9557 50.0755 15.3988C50.0755 18.8419 54.3126 20.5721 56.7639 18.1326C58.2871 16.6273 58.2871 14.1704 56.7639 12.6651ZM32.5666 50.522V2.07625H6.30321V50.522H32.5666ZM66.884 52.5982C45.2955 52.5982 23.7071 52.5982 2.10107 52.5982V56.9238H66.884V52.5982Z" fill="#589CE7"/>
</svg>
