<svg width="66" height="58" viewBox="0 0 66 58" fill="none" xmlns="http://www.w3.org/2000/svg">
<mask id="path-1-outside-1_467_1710" maskUnits="userSpaceOnUse" x="0" y="0" width="66" height="58" fill="black">
<rect fill="white" width="66" height="58"/>
<path d="M62.4933 1H3.50596C2.84157 1.00075 2.2046 1.26506 1.73481 1.73494C1.26501 2.20482 1.00075 2.84189 1 3.5064V54.4936C1.00075 55.1581 1.26501 55.7952 1.73481 56.2651C2.2046 56.7349 2.84157 56.9992 3.50596 57H62.4933C63.1578 56.9994 63.795 56.7352 64.2649 56.2653C64.7349 55.7954 64.9992 55.1582 65 54.4936V3.5064C64.9992 2.84177 64.7349 2.20459 64.2649 1.73469C63.795 1.26479 63.1578 1.00056 62.4933 1ZM3.50596 2.46586H62.4933C62.7692 2.46624 63.0337 2.57596 63.2288 2.771C63.424 2.96604 63.5338 3.23048 63.5344 3.5064V12.3364H2.4656V3.5064C2.46598 3.23055 2.57571 2.9661 2.77073 2.77104C2.96575 2.57599 3.23015 2.46624 3.50596 2.46586ZM62.4933 55.5341H3.50596C3.23015 55.5338 2.96575 55.424 2.77073 55.229C2.57571 55.0339 2.46598 54.7695 2.4656 54.4936V13.8023H63.5344V54.4936C63.5338 54.7695 63.424 55.034 63.2288 55.229C63.0337 55.424 62.7692 55.5338 62.4933 55.5341ZM22.6107 8.20626C22.6109 8.0119 22.6882 7.82557 22.8257 7.68821C22.9631 7.55084 23.1495 7.47368 23.3438 7.47368H56.7988C56.9892 7.47962 57.1698 7.55944 57.3024 7.69624C57.4349 7.83304 57.5091 8.01609 57.5091 8.20661C57.5091 8.39714 57.4349 8.58019 57.3024 8.71699C57.1698 8.85379 56.9892 8.93361 56.7988 8.93955H23.3438C23.1494 8.93936 22.9631 8.86204 22.8256 8.72456C22.6882 8.58709 22.6109 8.40068 22.6107 8.20626ZM17.1536 8.20626C17.1542 8.06133 17.1976 7.91981 17.2785 7.79955C17.3593 7.67928 17.474 7.58564 17.6079 7.53044C17.7419 7.47524 17.8892 7.46094 18.0313 7.48936C18.1734 7.51777 18.3039 7.58762 18.4064 7.69009C18.5088 7.79257 18.5787 7.9231 18.6071 8.06522C18.6355 8.20733 18.6212 8.35468 18.566 8.48868C18.5108 8.62268 18.4172 8.73735 18.297 8.81822C18.1767 8.89908 18.0352 8.94254 17.8903 8.9431C17.7935 8.94348 17.6975 8.92467 17.6079 8.88778C17.5184 8.85088 17.437 8.79662 17.3685 8.72812C17.3001 8.65963 17.2458 8.57825 17.2089 8.48868C17.172 8.39911 17.1532 8.30313 17.1536 8.20626ZM12.4603 8.20626C12.4608 8.06145 12.5042 7.92005 12.5849 7.79985C12.6657 7.67964 12.7801 7.58601 12.914 7.53072C13.0478 7.47544 13.1949 7.46098 13.337 7.48917C13.479 7.51735 13.6095 7.58692 13.7121 7.68911C13.8146 7.79131 13.8847 7.92157 13.9134 8.06349C13.9421 8.20542 13.9282 8.35268 13.8735 8.48673C13.8187 8.62078 13.7256 8.73563 13.6057 8.81684C13.4858 8.89805 13.3446 8.94198 13.1998 8.9431C13.103 8.94348 13.0071 8.92467 12.9176 8.88777C12.828 8.85086 12.7467 8.79659 12.6783 8.72808C12.6099 8.65958 12.5557 8.57819 12.5189 8.48863C12.4821 8.39906 12.4634 8.30309 12.4638 8.20626H12.4603ZM7.77049 8.20626C7.77105 8.06145 7.81443 7.92005 7.89516 7.79985C7.97589 7.67964 8.09037 7.58601 8.22418 7.53072C8.358 7.47544 8.50517 7.46098 8.64718 7.48917C8.7892 7.51735 8.9197 7.58692 9.02227 7.68911C9.12484 7.79131 9.1949 7.92157 9.22363 8.06349C9.25235 8.20542 9.23846 8.35268 9.18371 8.48673C9.12895 8.62078 9.03577 8.73563 8.9159 8.81684C8.79603 8.89805 8.65482 8.94198 8.51004 8.9431H8.50649C8.40997 8.94301 8.31442 8.92386 8.22532 8.88674C8.13622 8.84963 8.05532 8.79528 7.98727 8.72682C7.91922 8.65836 7.86535 8.57713 7.82876 8.4878C7.79217 8.39847 7.77358 8.30279 7.77404 8.20626H7.77049ZM26.2786 27.0334L20.0812 23.4523C19.8002 23.2901 19.4814 23.2046 19.1569 23.2046C18.8324 23.2046 18.5136 23.29 18.2326 23.4522C17.9515 23.6145 17.7181 23.8479 17.5558 24.1289C17.3935 24.41 17.308 24.7288 17.3079 25.0533V32.2134C17.3065 32.5385 17.391 32.8583 17.5529 33.1402C17.7149 33.4222 17.9485 33.6563 18.2301 33.8188C18.5116 33.9814 18.8312 34.0666 19.1562 34.0658C19.4814 34.065 19.8005 33.9783 20.0812 33.8144L26.2786 30.2354C26.5591 30.073 26.792 29.8396 26.9539 29.5587C27.1158 29.2778 27.201 28.9593 27.201 28.6351C27.201 28.3109 27.1158 27.9924 26.9539 27.7116C26.792 27.4307 26.5591 27.1973 26.2786 27.0349V27.0334ZM25.5454 28.9659L19.3467 32.5448C19.2886 32.5772 19.2232 32.5939 19.1568 32.5932C19.0903 32.5926 19.0252 32.5747 18.9678 32.5413C18.9104 32.5078 18.8627 32.46 18.8293 32.4025C18.796 32.345 18.7783 32.2798 18.7778 32.2134V25.0555C18.7748 24.9877 18.7912 24.9206 18.825 24.8618C18.8589 24.8031 18.9089 24.7553 18.9691 24.724C19.0262 24.6876 19.0926 24.6682 19.1604 24.6682C19.2281 24.6682 19.2945 24.6876 19.3516 24.724L25.549 28.303C25.6073 28.3364 25.6558 28.3847 25.6896 28.4429C25.7233 28.5011 25.7411 28.5672 25.7411 28.6344C25.7411 28.7017 25.7233 28.7678 25.6896 28.826C25.6558 28.8842 25.6073 28.9324 25.549 28.9659H25.5454ZM49.0334 41.1209C49.0334 41.6515 49.182 41.761 50.1712 41.9801C51.0302 42.1671 52.4674 42.478 52.4674 44.2802C52.4775 44.7882 52.3124 45.2842 51.9997 45.6846C51.687 46.085 51.246 46.3654 50.7508 46.4787V46.8179C50.7508 47.0124 50.6735 47.1989 50.536 47.3364C50.3985 47.474 50.212 47.5512 50.0176 47.5512C49.8232 47.5512 49.6367 47.474 49.4992 47.3364C49.3617 47.1989 49.2844 47.0124 49.2844 46.8179V46.4787C48.7892 46.3654 48.3482 46.085 48.0355 45.6846C47.7228 45.2842 47.5577 44.7882 47.5678 44.2802C47.5648 44.1821 47.5815 44.0843 47.6169 43.9927C47.6524 43.9011 47.7058 43.8175 47.7742 43.747C47.8425 43.6765 47.9244 43.6204 48.0148 43.5821C48.1052 43.5438 48.2024 43.5241 48.3006 43.5241C48.3988 43.5241 48.496 43.5438 48.5865 43.5821C48.6769 43.6204 48.7587 43.6765 48.8271 43.747C48.8954 43.8175 48.9489 43.9011 48.9843 43.9927C49.0198 44.0843 49.0365 44.1821 49.0334 44.2802C49.0334 45.0868 49.9166 45.1102 50.0176 45.1102C50.1186 45.1102 51.0018 45.0868 51.0018 44.2802C51.0018 43.7425 50.8524 43.6287 49.8583 43.4118C49.005 43.2255 47.5678 42.9139 47.5678 41.1209C47.5578 40.6131 47.7231 40.1173 48.0357 39.717C48.3484 39.3167 48.7894 39.0364 49.2844 38.9232V38.5839C49.2844 38.3895 49.3617 38.2029 49.4992 38.0654C49.6367 37.9279 49.8232 37.8506 50.0176 37.8506C50.212 37.8506 50.3985 37.9279 50.536 38.0654C50.6735 38.2029 50.7508 38.3895 50.7508 38.5839V38.9232C51.2458 39.0364 51.6868 39.3167 51.9995 39.717C52.3121 40.1173 52.4774 40.6131 52.4674 41.1209C52.4704 41.2191 52.4537 41.3169 52.4183 41.4085C52.3828 41.5001 52.3294 41.5836 52.261 41.6541C52.1927 41.7246 52.1108 41.7807 52.0204 41.819C51.93 41.8573 51.8328 41.877 51.7346 41.877C51.6364 41.877 51.5392 41.8573 51.4487 41.819C51.3583 41.7807 51.2765 41.7246 51.2081 41.6541C51.1398 41.5836 51.0863 41.5001 51.0509 41.4085C51.0154 41.3169 50.9987 41.2191 51.0018 41.1209C51.0018 40.3151 50.1186 40.2916 50.0176 40.2916C49.9166 40.2916 49.0334 40.3151 49.0334 41.1209ZM50.0176 35.1963C48.5337 35.1963 47.083 35.6364 45.8492 36.461C44.6153 37.2856 43.6537 38.4576 43.0858 39.8288C42.5179 41.2 42.3693 42.7089 42.6588 44.1646C42.9483 45.6203 43.6629 46.9574 44.7122 48.0069C45.7615 49.0564 47.0984 49.7711 48.5539 50.0606C50.0093 50.3502 51.5179 50.2016 52.8889 49.6336C54.2598 49.0656 55.4316 48.1038 56.2561 46.8697C57.0805 45.6357 57.5205 44.1848 57.5205 42.7006C57.5183 40.711 56.7271 38.8036 55.3205 37.3967C53.9139 35.9899 52.0068 35.1986 50.0176 35.1963ZM50.0176 48.739C48.8235 48.739 47.6563 48.3848 46.6634 47.7213C45.6706 47.0578 44.8968 46.1147 44.4398 45.0114C43.9829 43.908 43.8633 42.6939 44.0963 41.5225C44.3292 40.3512 44.9042 39.2753 45.7486 38.4308C46.5929 37.5863 47.6686 37.0112 48.8398 36.7782C50.0109 36.5452 51.2248 36.6648 52.328 37.1218C53.4312 37.5788 54.3741 38.3528 55.0375 39.3458C55.7008 40.3388 56.0549 41.5063 56.0549 42.7006C56.0531 44.3015 55.4164 45.8363 54.2846 46.9683C53.1527 48.1003 51.6182 48.7371 50.0176 48.739ZM32.8002 18.1273H10.1463C9.49248 18.1281 8.86565 18.3882 8.40332 18.8506C7.941 19.313 7.68093 19.9399 7.68018 20.5939V36.6757C7.68093 37.3296 7.941 37.9566 8.40332 38.419C8.86565 38.8814 9.49248 39.1415 10.1463 39.1423H32.8002C33.454 39.1415 34.0808 38.8814 34.5432 38.419C35.0055 37.9566 35.2656 37.3296 35.2663 36.6757V20.5939C35.2656 19.9399 35.0055 19.313 34.5432 18.8506C34.0808 18.3882 33.454 18.1281 32.8002 18.1273ZM33.8007 36.6757C33.8005 36.9411 33.6951 37.1956 33.5075 37.3833C33.3199 37.5711 33.0655 37.6767 32.8002 37.6771H10.1463C9.88107 37.6767 9.6268 37.5712 9.43924 37.3836C9.25169 37.196 9.14615 36.9417 9.14578 36.6764V20.5939C9.14597 20.3285 9.25144 20.0741 9.43904 19.8865C9.62663 19.6989 9.88101 19.5934 10.1463 19.5932H32.8002C33.0655 19.5934 33.3199 19.6989 33.5075 19.8865C33.695 20.0741 33.8005 20.3285 33.8007 20.5939V36.6757ZM35.2571 43.6913C35.2571 43.8856 35.1799 44.072 35.0425 44.2093C34.9052 44.3467 34.7189 44.4239 34.5246 44.4239H13.0263C12.8359 44.418 12.6553 44.3381 12.5227 44.2013C12.3901 44.0645 12.316 43.8815 12.316 43.691C12.316 43.5004 12.3901 43.3174 12.5227 43.1806C12.6553 43.0438 12.8359 42.964 13.0263 42.958H34.5246C34.6209 42.958 34.7162 42.977 34.8051 43.0139C34.894 43.0507 34.9748 43.1048 35.0428 43.1729C35.1108 43.241 35.1647 43.3218 35.2015 43.4108C35.2383 43.4997 35.2572 43.5951 35.2571 43.6913ZM10.0389 43.6913C10.0387 43.8857 9.96142 44.072 9.82395 44.2094C9.68647 44.3467 9.5001 44.4239 9.30578 44.4239H8.84C8.74185 44.427 8.64408 44.4103 8.5525 44.3748C8.46092 44.3394 8.3774 44.2859 8.30689 44.2175C8.23637 44.1491 8.18031 44.0673 8.14203 43.9769C8.10374 43.8864 8.08401 43.7892 8.08401 43.691C8.08401 43.5928 8.10374 43.4955 8.14203 43.4051C8.18031 43.3146 8.23637 43.2328 8.30689 43.1644C8.3774 43.0961 8.46092 43.0426 8.5525 43.0071C8.64408 42.9717 8.74185 42.955 8.84 42.958H9.30578C9.50022 42.958 9.6867 43.0353 9.8242 43.1728C9.96169 43.3103 10.0389 43.4968 10.0389 43.6913ZM35.2571 48.7411C35.2571 48.9354 35.1799 49.1217 35.0425 49.2591C34.9052 49.3965 34.7189 49.4737 34.5246 49.4737H13.0263C12.8359 49.4678 12.6553 49.3879 12.5227 49.2511C12.3901 49.1143 12.316 48.9313 12.316 48.7408C12.316 48.5502 12.3901 48.3672 12.5227 48.2304C12.6553 48.0936 12.8359 48.0138 13.0263 48.0078H34.5246C34.6211 48.0079 34.7166 48.0271 34.8056 48.0641C34.8947 48.1012 34.9755 48.1555 35.0436 48.2239C35.1116 48.2922 35.1655 48.3734 35.2021 48.4626C35.2388 48.5519 35.2574 48.6475 35.2571 48.744V48.7411ZM10.0389 48.7411C10.0387 48.9355 9.96142 49.1218 9.82395 49.2592C9.68647 49.3965 9.5001 49.4737 9.30578 49.4737H8.84C8.74185 49.4768 8.64408 49.4601 8.5525 49.4246C8.46092 49.3891 8.3774 49.3356 8.30689 49.2673C8.23637 49.1989 8.18031 49.1171 8.14203 49.0266C8.10374 48.9362 8.08401 48.839 8.08401 48.7408C8.08401 48.6425 8.10374 48.5453 8.14203 48.4549C8.18031 48.3644 8.23637 48.2826 8.30689 48.2142C8.3774 48.1459 8.46092 48.0924 8.5525 48.0569C8.64408 48.0215 8.74185 48.0048 8.84 48.0078H9.30578C9.40227 48.0079 9.4978 48.0271 9.58689 48.0641C9.67599 48.1012 9.7569 48.1554 9.825 48.2238C9.8931 48.2922 9.94704 48.3733 9.98375 48.4626C10.0205 48.5518 10.0392 48.6475 10.0389 48.744V48.7411ZM49.4978 30.7624C49.6353 30.9 49.8217 30.9772 50.0162 30.9772C50.2106 30.9772 50.3971 30.9 50.5346 30.7624L56.3244 24.9723C56.4267 24.8697 56.4963 24.7391 56.5245 24.597C56.5526 24.4548 56.5381 24.3076 56.4826 24.1737C56.4271 24.0399 56.3333 23.9255 56.2129 23.8449C56.0925 23.7644 55.9509 23.7213 55.806 23.7212H53.6443V18.6643C53.6444 18.568 53.6255 18.4726 53.5886 18.3836C53.5518 18.2946 53.4978 18.2137 53.4297 18.1456C53.3616 18.0775 53.2808 18.0235 53.1918 17.9866C53.1028 17.9498 53.0074 17.9309 52.9111 17.931H47.1234C47.0271 17.9309 46.9317 17.9498 46.8427 17.9866C46.7537 18.0235 46.6728 18.0775 46.6047 18.1456C46.5367 18.2137 46.4827 18.2946 46.4458 18.3836C46.409 18.4726 46.3901 18.568 46.3902 18.6643V23.7212H44.2284C44.0836 23.7213 43.942 23.7644 43.8216 23.8449C43.7012 23.9255 43.6074 24.0399 43.5519 24.1737C43.4964 24.3076 43.4819 24.4548 43.51 24.597C43.5382 24.7391 43.6078 24.8697 43.71 24.9723L49.4978 30.7624ZM47.122 25.1871C47.3162 25.1871 47.5025 25.1099 47.6399 24.9725C47.7772 24.8351 47.8544 24.6488 47.8544 24.4545V19.3983H52.178V24.4559C52.1785 24.65 52.256 24.836 52.3934 24.973C52.5309 25.1101 52.717 25.1871 52.9111 25.1871H54.0361L50.0162 29.2077L45.9963 25.1871H47.122Z"/>
</mask>
<path d="M62.4933 1H3.50596C2.84157 1.00075 2.2046 1.26506 1.73481 1.73494C1.26501 2.20482 1.00075 2.84189 1 3.5064V54.4936C1.00075 55.1581 1.26501 55.7952 1.73481 56.2651C2.2046 56.7349 2.84157 56.9992 3.50596 57H62.4933C63.1578 56.9994 63.795 56.7352 64.2649 56.2653C64.7349 55.7954 64.9992 55.1582 65 54.4936V3.5064C64.9992 2.84177 64.7349 2.20459 64.2649 1.73469C63.795 1.26479 63.1578 1.00056 62.4933 1ZM3.50596 2.46586H62.4933C62.7692 2.46624 63.0337 2.57596 63.2288 2.771C63.424 2.96604 63.5338 3.23048 63.5344 3.5064V12.3364H2.4656V3.5064C2.46598 3.23055 2.57571 2.9661 2.77073 2.77104C2.96575 2.57599 3.23015 2.46624 3.50596 2.46586ZM62.4933 55.5341H3.50596C3.23015 55.5338 2.96575 55.424 2.77073 55.229C2.57571 55.0339 2.46598 54.7695 2.4656 54.4936V13.8023H63.5344V54.4936C63.5338 54.7695 63.424 55.034 63.2288 55.229C63.0337 55.424 62.7692 55.5338 62.4933 55.5341ZM22.6107 8.20626C22.6109 8.0119 22.6882 7.82557 22.8257 7.68821C22.9631 7.55084 23.1495 7.47368 23.3438 7.47368H56.7988C56.9892 7.47962 57.1698 7.55944 57.3024 7.69624C57.4349 7.83304 57.5091 8.01609 57.5091 8.20661C57.5091 8.39714 57.4349 8.58019 57.3024 8.71699C57.1698 8.85379 56.9892 8.93361 56.7988 8.93955H23.3438C23.1494 8.93936 22.9631 8.86204 22.8256 8.72456C22.6882 8.58709 22.6109 8.40068 22.6107 8.20626ZM17.1536 8.20626C17.1542 8.06133 17.1976 7.91981 17.2785 7.79955C17.3593 7.67928 17.474 7.58564 17.6079 7.53044C17.7419 7.47524 17.8892 7.46094 18.0313 7.48936C18.1734 7.51777 18.3039 7.58762 18.4064 7.69009C18.5088 7.79257 18.5787 7.9231 18.6071 8.06522C18.6355 8.20733 18.6212 8.35468 18.566 8.48868C18.5108 8.62268 18.4172 8.73735 18.297 8.81822C18.1767 8.89908 18.0352 8.94254 17.8903 8.9431C17.7935 8.94348 17.6975 8.92467 17.6079 8.88778C17.5184 8.85088 17.437 8.79662 17.3685 8.72812C17.3001 8.65963 17.2458 8.57825 17.2089 8.48868C17.172 8.39911 17.1532 8.30313 17.1536 8.20626ZM12.4603 8.20626C12.4608 8.06145 12.5042 7.92005 12.5849 7.79985C12.6657 7.67964 12.7801 7.58601 12.914 7.53072C13.0478 7.47544 13.1949 7.46098 13.337 7.48917C13.479 7.51735 13.6095 7.58692 13.7121 7.68911C13.8146 7.79131 13.8847 7.92157 13.9134 8.06349C13.9421 8.20542 13.9282 8.35268 13.8735 8.48673C13.8187 8.62078 13.7256 8.73563 13.6057 8.81684C13.4858 8.89805 13.3446 8.94198 13.1998 8.9431C13.103 8.94348 13.0071 8.92467 12.9176 8.88777C12.828 8.85086 12.7467 8.79659 12.6783 8.72808C12.6099 8.65958 12.5557 8.57819 12.5189 8.48863C12.4821 8.39906 12.4634 8.30309 12.4638 8.20626H12.4603ZM7.77049 8.20626C7.77105 8.06145 7.81443 7.92005 7.89516 7.79985C7.97589 7.67964 8.09037 7.58601 8.22418 7.53072C8.358 7.47544 8.50517 7.46098 8.64718 7.48917C8.7892 7.51735 8.9197 7.58692 9.02227 7.68911C9.12484 7.79131 9.1949 7.92157 9.22363 8.06349C9.25235 8.20542 9.23846 8.35268 9.18371 8.48673C9.12895 8.62078 9.03577 8.73563 8.9159 8.81684C8.79603 8.89805 8.65482 8.94198 8.51004 8.9431H8.50649C8.40997 8.94301 8.31442 8.92386 8.22532 8.88674C8.13622 8.84963 8.05532 8.79528 7.98727 8.72682C7.91922 8.65836 7.86535 8.57713 7.82876 8.4878C7.79217 8.39847 7.77358 8.30279 7.77404 8.20626H7.77049ZM26.2786 27.0334L20.0812 23.4523C19.8002 23.2901 19.4814 23.2046 19.1569 23.2046C18.8324 23.2046 18.5136 23.29 18.2326 23.4522C17.9515 23.6145 17.7181 23.8479 17.5558 24.1289C17.3935 24.41 17.308 24.7288 17.3079 25.0533V32.2134C17.3065 32.5385 17.391 32.8583 17.5529 33.1402C17.7149 33.4222 17.9485 33.6563 18.2301 33.8188C18.5116 33.9814 18.8312 34.0666 19.1562 34.0658C19.4814 34.065 19.8005 33.9783 20.0812 33.8144L26.2786 30.2354C26.5591 30.073 26.792 29.8396 26.9539 29.5587C27.1158 29.2778 27.201 28.9593 27.201 28.6351C27.201 28.3109 27.1158 27.9924 26.9539 27.7116C26.792 27.4307 26.5591 27.1973 26.2786 27.0349V27.0334ZM25.5454 28.9659L19.3467 32.5448C19.2886 32.5772 19.2232 32.5939 19.1568 32.5932C19.0903 32.5926 19.0252 32.5747 18.9678 32.5413C18.9104 32.5078 18.8627 32.46 18.8293 32.4025C18.796 32.345 18.7783 32.2798 18.7778 32.2134V25.0555C18.7748 24.9877 18.7912 24.9206 18.825 24.8618C18.8589 24.8031 18.9089 24.7553 18.9691 24.724C19.0262 24.6876 19.0926 24.6682 19.1604 24.6682C19.2281 24.6682 19.2945 24.6876 19.3516 24.724L25.549 28.303C25.6073 28.3364 25.6558 28.3847 25.6896 28.4429C25.7233 28.5011 25.7411 28.5672 25.7411 28.6344C25.7411 28.7017 25.7233 28.7678 25.6896 28.826C25.6558 28.8842 25.6073 28.9324 25.549 28.9659H25.5454ZM49.0334 41.1209C49.0334 41.6515 49.182 41.761 50.1712 41.9801C51.0302 42.1671 52.4674 42.478 52.4674 44.2802C52.4775 44.7882 52.3124 45.2842 51.9997 45.6846C51.687 46.085 51.246 46.3654 50.7508 46.4787V46.8179C50.7508 47.0124 50.6735 47.1989 50.536 47.3364C50.3985 47.474 50.212 47.5512 50.0176 47.5512C49.8232 47.5512 49.6367 47.474 49.4992 47.3364C49.3617 47.1989 49.2844 47.0124 49.2844 46.8179V46.4787C48.7892 46.3654 48.3482 46.085 48.0355 45.6846C47.7228 45.2842 47.5577 44.7882 47.5678 44.2802C47.5648 44.1821 47.5815 44.0843 47.6169 43.9927C47.6524 43.9011 47.7058 43.8175 47.7742 43.747C47.8425 43.6765 47.9244 43.6204 48.0148 43.5821C48.1052 43.5438 48.2024 43.5241 48.3006 43.5241C48.3988 43.5241 48.496 43.5438 48.5865 43.5821C48.6769 43.6204 48.7587 43.6765 48.8271 43.747C48.8954 43.8175 48.9489 43.9011 48.9843 43.9927C49.0198 44.0843 49.0365 44.1821 49.0334 44.2802C49.0334 45.0868 49.9166 45.1102 50.0176 45.1102C50.1186 45.1102 51.0018 45.0868 51.0018 44.2802C51.0018 43.7425 50.8524 43.6287 49.8583 43.4118C49.005 43.2255 47.5678 42.9139 47.5678 41.1209C47.5578 40.6131 47.7231 40.1173 48.0357 39.717C48.3484 39.3167 48.7894 39.0364 49.2844 38.9232V38.5839C49.2844 38.3895 49.3617 38.2029 49.4992 38.0654C49.6367 37.9279 49.8232 37.8506 50.0176 37.8506C50.212 37.8506 50.3985 37.9279 50.536 38.0654C50.6735 38.2029 50.7508 38.3895 50.7508 38.5839V38.9232C51.2458 39.0364 51.6868 39.3167 51.9995 39.717C52.3121 40.1173 52.4774 40.6131 52.4674 41.1209C52.4704 41.2191 52.4537 41.3169 52.4183 41.4085C52.3828 41.5001 52.3294 41.5836 52.261 41.6541C52.1927 41.7246 52.1108 41.7807 52.0204 41.819C51.93 41.8573 51.8328 41.877 51.7346 41.877C51.6364 41.877 51.5392 41.8573 51.4487 41.819C51.3583 41.7807 51.2765 41.7246 51.2081 41.6541C51.1398 41.5836 51.0863 41.5001 51.0509 41.4085C51.0154 41.3169 50.9987 41.2191 51.0018 41.1209C51.0018 40.3151 50.1186 40.2916 50.0176 40.2916C49.9166 40.2916 49.0334 40.3151 49.0334 41.1209ZM50.0176 35.1963C48.5337 35.1963 47.083 35.6364 45.8492 36.461C44.6153 37.2856 43.6537 38.4576 43.0858 39.8288C42.5179 41.2 42.3693 42.7089 42.6588 44.1646C42.9483 45.6203 43.6629 46.9574 44.7122 48.0069C45.7615 49.0564 47.0984 49.7711 48.5539 50.0606C50.0093 50.3502 51.5179 50.2016 52.8889 49.6336C54.2598 49.0656 55.4316 48.1038 56.2561 46.8697C57.0805 45.6357 57.5205 44.1848 57.5205 42.7006C57.5183 40.711 56.7271 38.8036 55.3205 37.3967C53.9139 35.9899 52.0068 35.1986 50.0176 35.1963ZM50.0176 48.739C48.8235 48.739 47.6563 48.3848 46.6634 47.7213C45.6706 47.0578 44.8968 46.1147 44.4398 45.0114C43.9829 43.908 43.8633 42.6939 44.0963 41.5225C44.3292 40.3512 44.9042 39.2753 45.7486 38.4308C46.5929 37.5863 47.6686 37.0112 48.8398 36.7782C50.0109 36.5452 51.2248 36.6648 52.328 37.1218C53.4312 37.5788 54.3741 38.3528 55.0375 39.3458C55.7008 40.3388 56.0549 41.5063 56.0549 42.7006C56.0531 44.3015 55.4164 45.8363 54.2846 46.9683C53.1527 48.1003 51.6182 48.7371 50.0176 48.739ZM32.8002 18.1273H10.1463C9.49248 18.1281 8.86565 18.3882 8.40332 18.8506C7.941 19.313 7.68093 19.9399 7.68018 20.5939V36.6757C7.68093 37.3296 7.941 37.9566 8.40332 38.419C8.86565 38.8814 9.49248 39.1415 10.1463 39.1423H32.8002C33.454 39.1415 34.0808 38.8814 34.5432 38.419C35.0055 37.9566 35.2656 37.3296 35.2663 36.6757V20.5939C35.2656 19.9399 35.0055 19.313 34.5432 18.8506C34.0808 18.3882 33.454 18.1281 32.8002 18.1273ZM33.8007 36.6757C33.8005 36.9411 33.6951 37.1956 33.5075 37.3833C33.3199 37.5711 33.0655 37.6767 32.8002 37.6771H10.1463C9.88107 37.6767 9.6268 37.5712 9.43924 37.3836C9.25169 37.196 9.14615 36.9417 9.14578 36.6764V20.5939C9.14597 20.3285 9.25144 20.0741 9.43904 19.8865C9.62663 19.6989 9.88101 19.5934 10.1463 19.5932H32.8002C33.0655 19.5934 33.3199 19.6989 33.5075 19.8865C33.695 20.0741 33.8005 20.3285 33.8007 20.5939V36.6757ZM35.2571 43.6913C35.2571 43.8856 35.1799 44.072 35.0425 44.2093C34.9052 44.3467 34.7189 44.4239 34.5246 44.4239H13.0263C12.8359 44.418 12.6553 44.3381 12.5227 44.2013C12.3901 44.0645 12.316 43.8815 12.316 43.691C12.316 43.5004 12.3901 43.3174 12.5227 43.1806C12.6553 43.0438 12.8359 42.964 13.0263 42.958H34.5246C34.6209 42.958 34.7162 42.977 34.8051 43.0139C34.894 43.0507 34.9748 43.1048 35.0428 43.1729C35.1108 43.241 35.1647 43.3218 35.2015 43.4108C35.2383 43.4997 35.2572 43.5951 35.2571 43.6913ZM10.0389 43.6913C10.0387 43.8857 9.96142 44.072 9.82395 44.2094C9.68647 44.3467 9.5001 44.4239 9.30578 44.4239H8.84C8.74185 44.427 8.64408 44.4103 8.5525 44.3748C8.46092 44.3394 8.3774 44.2859 8.30689 44.2175C8.23637 44.1491 8.18031 44.0673 8.14203 43.9769C8.10374 43.8864 8.08401 43.7892 8.08401 43.691C8.08401 43.5928 8.10374 43.4955 8.14203 43.4051C8.18031 43.3146 8.23637 43.2328 8.30689 43.1644C8.3774 43.0961 8.46092 43.0426 8.5525 43.0071C8.64408 42.9717 8.74185 42.955 8.84 42.958H9.30578C9.50022 42.958 9.6867 43.0353 9.8242 43.1728C9.96169 43.3103 10.0389 43.4968 10.0389 43.6913ZM35.2571 48.7411C35.2571 48.9354 35.1799 49.1217 35.0425 49.2591C34.9052 49.3965 34.7189 49.4737 34.5246 49.4737H13.0263C12.8359 49.4678 12.6553 49.3879 12.5227 49.2511C12.3901 49.1143 12.316 48.9313 12.316 48.7408C12.316 48.5502 12.3901 48.3672 12.5227 48.2304C12.6553 48.0936 12.8359 48.0138 13.0263 48.0078H34.5246C34.6211 48.0079 34.7166 48.0271 34.8056 48.0641C34.8947 48.1012 34.9755 48.1555 35.0436 48.2239C35.1116 48.2922 35.1655 48.3734 35.2021 48.4626C35.2388 48.5519 35.2574 48.6475 35.2571 48.744V48.7411ZM10.0389 48.7411C10.0387 48.9355 9.96142 49.1218 9.82395 49.2592C9.68647 49.3965 9.5001 49.4737 9.30578 49.4737H8.84C8.74185 49.4768 8.64408 49.4601 8.5525 49.4246C8.46092 49.3891 8.3774 49.3356 8.30689 49.2673C8.23637 49.1989 8.18031 49.1171 8.14203 49.0266C8.10374 48.9362 8.08401 48.839 8.08401 48.7408C8.08401 48.6425 8.10374 48.5453 8.14203 48.4549C8.18031 48.3644 8.23637 48.2826 8.30689 48.2142C8.3774 48.1459 8.46092 48.0924 8.5525 48.0569C8.64408 48.0215 8.74185 48.0048 8.84 48.0078H9.30578C9.40227 48.0079 9.4978 48.0271 9.58689 48.0641C9.67599 48.1012 9.7569 48.1554 9.825 48.2238C9.8931 48.2922 9.94704 48.3733 9.98375 48.4626C10.0205 48.5518 10.0392 48.6475 10.0389 48.744V48.7411ZM49.4978 30.7624C49.6353 30.9 49.8217 30.9772 50.0162 30.9772C50.2106 30.9772 50.3971 30.9 50.5346 30.7624L56.3244 24.9723C56.4267 24.8697 56.4963 24.7391 56.5245 24.597C56.5526 24.4548 56.5381 24.3076 56.4826 24.1737C56.4271 24.0399 56.3333 23.9255 56.2129 23.8449C56.0925 23.7644 55.9509 23.7213 55.806 23.7212H53.6443V18.6643C53.6444 18.568 53.6255 18.4726 53.5886 18.3836C53.5518 18.2946 53.4978 18.2137 53.4297 18.1456C53.3616 18.0775 53.2808 18.0235 53.1918 17.9866C53.1028 17.9498 53.0074 17.9309 52.9111 17.931H47.1234C47.0271 17.9309 46.9317 17.9498 46.8427 17.9866C46.7537 18.0235 46.6728 18.0775 46.6047 18.1456C46.5367 18.2137 46.4827 18.2946 46.4458 18.3836C46.409 18.4726 46.3901 18.568 46.3902 18.6643V23.7212H44.2284C44.0836 23.7213 43.942 23.7644 43.8216 23.8449C43.7012 23.9255 43.6074 24.0399 43.5519 24.1737C43.4964 24.3076 43.4819 24.4548 43.51 24.597C43.5382 24.7391 43.6078 24.8697 43.71 24.9723L49.4978 30.7624ZM47.122 25.1871C47.3162 25.1871 47.5025 25.1099 47.6399 24.9725C47.7772 24.8351 47.8544 24.6488 47.8544 24.4545V19.3983H52.178V24.4559C52.1785 24.65 52.256 24.836 52.3934 24.973C52.5309 25.1101 52.717 25.1871 52.9111 25.1871H54.0361L50.0162 29.2077L45.9963 25.1871H47.122Z" fill="#589CE7"/>
<path d="M62.4933 1H3.50596C2.84157 1.00075 2.2046 1.26506 1.73481 1.73494C1.26501 2.20482 1.00075 2.84189 1 3.5064V54.4936C1.00075 55.1581 1.26501 55.7952 1.73481 56.2651C2.2046 56.7349 2.84157 56.9992 3.50596 57H62.4933C63.1578 56.9994 63.795 56.7352 64.2649 56.2653C64.7349 55.7954 64.9992 55.1582 65 54.4936V3.5064C64.9992 2.84177 64.7349 2.20459 64.2649 1.73469C63.795 1.26479 63.1578 1.00056 62.4933 1ZM3.50596 2.46586H62.4933C62.7692 2.46624 63.0337 2.57596 63.2288 2.771C63.424 2.96604 63.5338 3.23048 63.5344 3.5064V12.3364H2.4656V3.5064C2.46598 3.23055 2.57571 2.9661 2.77073 2.77104C2.96575 2.57599 3.23015 2.46624 3.50596 2.46586ZM62.4933 55.5341H3.50596C3.23015 55.5338 2.96575 55.424 2.77073 55.229C2.57571 55.0339 2.46598 54.7695 2.4656 54.4936V13.8023H63.5344V54.4936C63.5338 54.7695 63.424 55.034 63.2288 55.229C63.0337 55.424 62.7692 55.5338 62.4933 55.5341ZM22.6107 8.20626C22.6109 8.0119 22.6882 7.82557 22.8257 7.68821C22.9631 7.55084 23.1495 7.47368 23.3438 7.47368H56.7988C56.9892 7.47962 57.1698 7.55944 57.3024 7.69624C57.4349 7.83304 57.5091 8.01609 57.5091 8.20661C57.5091 8.39714 57.4349 8.58019 57.3024 8.71699C57.1698 8.85379 56.9892 8.93361 56.7988 8.93955H23.3438C23.1494 8.93936 22.9631 8.86204 22.8256 8.72456C22.6882 8.58709 22.6109 8.40068 22.6107 8.20626ZM17.1536 8.20626C17.1542 8.06133 17.1976 7.91981 17.2785 7.79955C17.3593 7.67928 17.474 7.58564 17.6079 7.53044C17.7419 7.47524 17.8892 7.46094 18.0313 7.48936C18.1734 7.51777 18.3039 7.58762 18.4064 7.69009C18.5088 7.79257 18.5787 7.9231 18.6071 8.06522C18.6355 8.20733 18.6212 8.35468 18.566 8.48868C18.5108 8.62268 18.4172 8.73735 18.297 8.81822C18.1767 8.89908 18.0352 8.94254 17.8903 8.9431C17.7935 8.94348 17.6975 8.92467 17.6079 8.88778C17.5184 8.85088 17.437 8.79662 17.3685 8.72812C17.3001 8.65963 17.2458 8.57825 17.2089 8.48868C17.172 8.39911 17.1532 8.30313 17.1536 8.20626ZM12.4603 8.20626C12.4608 8.06145 12.5042 7.92005 12.5849 7.79985C12.6657 7.67964 12.7801 7.58601 12.914 7.53072C13.0478 7.47544 13.1949 7.46098 13.337 7.48917C13.479 7.51735 13.6095 7.58692 13.7121 7.68911C13.8146 7.79131 13.8847 7.92157 13.9134 8.06349C13.9421 8.20542 13.9282 8.35268 13.8735 8.48673C13.8187 8.62078 13.7256 8.73563 13.6057 8.81684C13.4858 8.89805 13.3446 8.94198 13.1998 8.9431C13.103 8.94348 13.0071 8.92467 12.9176 8.88777C12.828 8.85086 12.7467 8.79659 12.6783 8.72808C12.6099 8.65958 12.5557 8.57819 12.5189 8.48863C12.4821 8.39906 12.4634 8.30309 12.4638 8.20626H12.4603ZM7.77049 8.20626C7.77105 8.06145 7.81443 7.92005 7.89516 7.79985C7.97589 7.67964 8.09037 7.58601 8.22418 7.53072C8.358 7.47544 8.50517 7.46098 8.64718 7.48917C8.7892 7.51735 8.9197 7.58692 9.02227 7.68911C9.12484 7.79131 9.1949 7.92157 9.22363 8.06349C9.25235 8.20542 9.23846 8.35268 9.18371 8.48673C9.12895 8.62078 9.03577 8.73563 8.9159 8.81684C8.79603 8.89805 8.65482 8.94198 8.51004 8.9431H8.50649C8.40997 8.94301 8.31442 8.92386 8.22532 8.88674C8.13622 8.84963 8.05532 8.79528 7.98727 8.72682C7.91922 8.65836 7.86535 8.57713 7.82876 8.4878C7.79217 8.39847 7.77358 8.30279 7.77404 8.20626H7.77049ZM26.2786 27.0334L20.0812 23.4523C19.8002 23.2901 19.4814 23.2046 19.1569 23.2046C18.8324 23.2046 18.5136 23.29 18.2326 23.4522C17.9515 23.6145 17.7181 23.8479 17.5558 24.1289C17.3935 24.41 17.308 24.7288 17.3079 25.0533V32.2134C17.3065 32.5385 17.391 32.8583 17.5529 33.1402C17.7149 33.4222 17.9485 33.6563 18.2301 33.8188C18.5116 33.9814 18.8312 34.0666 19.1562 34.0658C19.4814 34.065 19.8005 33.9783 20.0812 33.8144L26.2786 30.2354C26.5591 30.073 26.792 29.8396 26.9539 29.5587C27.1158 29.2778 27.201 28.9593 27.201 28.6351C27.201 28.3109 27.1158 27.9924 26.9539 27.7116C26.792 27.4307 26.5591 27.1973 26.2786 27.0349V27.0334ZM25.5454 28.9659L19.3467 32.5448C19.2886 32.5772 19.2232 32.5939 19.1568 32.5932C19.0903 32.5926 19.0252 32.5747 18.9678 32.5413C18.9104 32.5078 18.8627 32.46 18.8293 32.4025C18.796 32.345 18.7783 32.2798 18.7778 32.2134V25.0555C18.7748 24.9877 18.7912 24.9206 18.825 24.8618C18.8589 24.8031 18.9089 24.7553 18.9691 24.724C19.0262 24.6876 19.0926 24.6682 19.1604 24.6682C19.2281 24.6682 19.2945 24.6876 19.3516 24.724L25.549 28.303C25.6073 28.3364 25.6558 28.3847 25.6896 28.4429C25.7233 28.5011 25.7411 28.5672 25.7411 28.6344C25.7411 28.7017 25.7233 28.7678 25.6896 28.826C25.6558 28.8842 25.6073 28.9324 25.549 28.9659H25.5454ZM49.0334 41.1209C49.0334 41.6515 49.182 41.761 50.1712 41.9801C51.0302 42.1671 52.4674 42.478 52.4674 44.2802C52.4775 44.7882 52.3124 45.2842 51.9997 45.6846C51.687 46.085 51.246 46.3654 50.7508 46.4787V46.8179C50.7508 47.0124 50.6735 47.1989 50.536 47.3364C50.3985 47.474 50.212 47.5512 50.0176 47.5512C49.8232 47.5512 49.6367 47.474 49.4992 47.3364C49.3617 47.1989 49.2844 47.0124 49.2844 46.8179V46.4787C48.7892 46.3654 48.3482 46.085 48.0355 45.6846C47.7228 45.2842 47.5577 44.7882 47.5678 44.2802C47.5648 44.1821 47.5815 44.0843 47.6169 43.9927C47.6524 43.9011 47.7058 43.8175 47.7742 43.747C47.8425 43.6765 47.9244 43.6204 48.0148 43.5821C48.1052 43.5438 48.2024 43.5241 48.3006 43.5241C48.3988 43.5241 48.496 43.5438 48.5865 43.5821C48.6769 43.6204 48.7587 43.6765 48.8271 43.747C48.8954 43.8175 48.9489 43.9011 48.9843 43.9927C49.0198 44.0843 49.0365 44.1821 49.0334 44.2802C49.0334 45.0868 49.9166 45.1102 50.0176 45.1102C50.1186 45.1102 51.0018 45.0868 51.0018 44.2802C51.0018 43.7425 50.8524 43.6287 49.8583 43.4118C49.005 43.2255 47.5678 42.9139 47.5678 41.1209C47.5578 40.6131 47.7231 40.1173 48.0357 39.717C48.3484 39.3167 48.7894 39.0364 49.2844 38.9232V38.5839C49.2844 38.3895 49.3617 38.2029 49.4992 38.0654C49.6367 37.9279 49.8232 37.8506 50.0176 37.8506C50.212 37.8506 50.3985 37.9279 50.536 38.0654C50.6735 38.2029 50.7508 38.3895 50.7508 38.5839V38.9232C51.2458 39.0364 51.6868 39.3167 51.9995 39.717C52.3121 40.1173 52.4774 40.6131 52.4674 41.1209C52.4704 41.2191 52.4537 41.3169 52.4183 41.4085C52.3828 41.5001 52.3294 41.5836 52.261 41.6541C52.1927 41.7246 52.1108 41.7807 52.0204 41.819C51.93 41.8573 51.8328 41.877 51.7346 41.877C51.6364 41.877 51.5392 41.8573 51.4487 41.819C51.3583 41.7807 51.2765 41.7246 51.2081 41.6541C51.1398 41.5836 51.0863 41.5001 51.0509 41.4085C51.0154 41.3169 50.9987 41.2191 51.0018 41.1209C51.0018 40.3151 50.1186 40.2916 50.0176 40.2916C49.9166 40.2916 49.0334 40.3151 49.0334 41.1209ZM50.0176 35.1963C48.5337 35.1963 47.083 35.6364 45.8492 36.461C44.6153 37.2856 43.6537 38.4576 43.0858 39.8288C42.5179 41.2 42.3693 42.7089 42.6588 44.1646C42.9483 45.6203 43.6629 46.9574 44.7122 48.0069C45.7615 49.0564 47.0984 49.7711 48.5539 50.0606C50.0093 50.3502 51.5179 50.2016 52.8889 49.6336C54.2598 49.0656 55.4316 48.1038 56.2561 46.8697C57.0805 45.6357 57.5205 44.1848 57.5205 42.7006C57.5183 40.711 56.7271 38.8036 55.3205 37.3967C53.9139 35.9899 52.0068 35.1986 50.0176 35.1963ZM50.0176 48.739C48.8235 48.739 47.6563 48.3848 46.6634 47.7213C45.6706 47.0578 44.8968 46.1147 44.4398 45.0114C43.9829 43.908 43.8633 42.6939 44.0963 41.5225C44.3292 40.3512 44.9042 39.2753 45.7486 38.4308C46.5929 37.5863 47.6686 37.0112 48.8398 36.7782C50.0109 36.5452 51.2248 36.6648 52.328 37.1218C53.4312 37.5788 54.3741 38.3528 55.0375 39.3458C55.7008 40.3388 56.0549 41.5063 56.0549 42.7006C56.0531 44.3015 55.4164 45.8363 54.2846 46.9683C53.1527 48.1003 51.6182 48.7371 50.0176 48.739ZM32.8002 18.1273H10.1463C9.49248 18.1281 8.86565 18.3882 8.40332 18.8506C7.941 19.313 7.68093 19.9399 7.68018 20.5939V36.6757C7.68093 37.3296 7.941 37.9566 8.40332 38.419C8.86565 38.8814 9.49248 39.1415 10.1463 39.1423H32.8002C33.454 39.1415 34.0808 38.8814 34.5432 38.419C35.0055 37.9566 35.2656 37.3296 35.2663 36.6757V20.5939C35.2656 19.9399 35.0055 19.313 34.5432 18.8506C34.0808 18.3882 33.454 18.1281 32.8002 18.1273ZM33.8007 36.6757C33.8005 36.9411 33.6951 37.1956 33.5075 37.3833C33.3199 37.5711 33.0655 37.6767 32.8002 37.6771H10.1463C9.88107 37.6767 9.6268 37.5712 9.43924 37.3836C9.25169 37.196 9.14615 36.9417 9.14578 36.6764V20.5939C9.14597 20.3285 9.25144 20.0741 9.43904 19.8865C9.62663 19.6989 9.88101 19.5934 10.1463 19.5932H32.8002C33.0655 19.5934 33.3199 19.6989 33.5075 19.8865C33.695 20.0741 33.8005 20.3285 33.8007 20.5939V36.6757ZM35.2571 43.6913C35.2571 43.8856 35.1799 44.072 35.0425 44.2093C34.9052 44.3467 34.7189 44.4239 34.5246 44.4239H13.0263C12.8359 44.418 12.6553 44.3381 12.5227 44.2013C12.3901 44.0645 12.316 43.8815 12.316 43.691C12.316 43.5004 12.3901 43.3174 12.5227 43.1806C12.6553 43.0438 12.8359 42.964 13.0263 42.958H34.5246C34.6209 42.958 34.7162 42.977 34.8051 43.0139C34.894 43.0507 34.9748 43.1048 35.0428 43.1729C35.1108 43.241 35.1647 43.3218 35.2015 43.4108C35.2383 43.4997 35.2572 43.5951 35.2571 43.6913ZM10.0389 43.6913C10.0387 43.8857 9.96142 44.072 9.82395 44.2094C9.68647 44.3467 9.5001 44.4239 9.30578 44.4239H8.84C8.74185 44.427 8.64408 44.4103 8.5525 44.3748C8.46092 44.3394 8.3774 44.2859 8.30689 44.2175C8.23637 44.1491 8.18031 44.0673 8.14203 43.9769C8.10374 43.8864 8.08401 43.7892 8.08401 43.691C8.08401 43.5928 8.10374 43.4955 8.14203 43.4051C8.18031 43.3146 8.23637 43.2328 8.30689 43.1644C8.3774 43.0961 8.46092 43.0426 8.5525 43.0071C8.64408 42.9717 8.74185 42.955 8.84 42.958H9.30578C9.50022 42.958 9.6867 43.0353 9.8242 43.1728C9.96169 43.3103 10.0389 43.4968 10.0389 43.6913ZM35.2571 48.7411C35.2571 48.9354 35.1799 49.1217 35.0425 49.2591C34.9052 49.3965 34.7189 49.4737 34.5246 49.4737H13.0263C12.8359 49.4678 12.6553 49.3879 12.5227 49.2511C12.3901 49.1143 12.316 48.9313 12.316 48.7408C12.316 48.5502 12.3901 48.3672 12.5227 48.2304C12.6553 48.0936 12.8359 48.0138 13.0263 48.0078H34.5246C34.6211 48.0079 34.7166 48.0271 34.8056 48.0641C34.8947 48.1012 34.9755 48.1555 35.0436 48.2239C35.1116 48.2922 35.1655 48.3734 35.2021 48.4626C35.2388 48.5519 35.2574 48.6475 35.2571 48.744V48.7411ZM10.0389 48.7411C10.0387 48.9355 9.96142 49.1218 9.82395 49.2592C9.68647 49.3965 9.5001 49.4737 9.30578 49.4737H8.84C8.74185 49.4768 8.64408 49.4601 8.5525 49.4246C8.46092 49.3891 8.3774 49.3356 8.30689 49.2673C8.23637 49.1989 8.18031 49.1171 8.14203 49.0266C8.10374 48.9362 8.08401 48.839 8.08401 48.7408C8.08401 48.6425 8.10374 48.5453 8.14203 48.4549C8.18031 48.3644 8.23637 48.2826 8.30689 48.2142C8.3774 48.1459 8.46092 48.0924 8.5525 48.0569C8.64408 48.0215 8.74185 48.0048 8.84 48.0078H9.30578C9.40227 48.0079 9.4978 48.0271 9.58689 48.0641C9.67599 48.1012 9.7569 48.1554 9.825 48.2238C9.8931 48.2922 9.94704 48.3733 9.98375 48.4626C10.0205 48.5518 10.0392 48.6475 10.0389 48.744V48.7411ZM49.4978 30.7624C49.6353 30.9 49.8217 30.9772 50.0162 30.9772C50.2106 30.9772 50.3971 30.9 50.5346 30.7624L56.3244 24.9723C56.4267 24.8697 56.4963 24.7391 56.5245 24.597C56.5526 24.4548 56.5381 24.3076 56.4826 24.1737C56.4271 24.0399 56.3333 23.9255 56.2129 23.8449C56.0925 23.7644 55.9509 23.7213 55.806 23.7212H53.6443V18.6643C53.6444 18.568 53.6255 18.4726 53.5886 18.3836C53.5518 18.2946 53.4978 18.2137 53.4297 18.1456C53.3616 18.0775 53.2808 18.0235 53.1918 17.9866C53.1028 17.9498 53.0074 17.9309 52.9111 17.931H47.1234C47.0271 17.9309 46.9317 17.9498 46.8427 17.9866C46.7537 18.0235 46.6728 18.0775 46.6047 18.1456C46.5367 18.2137 46.4827 18.2946 46.4458 18.3836C46.409 18.4726 46.3901 18.568 46.3902 18.6643V23.7212H44.2284C44.0836 23.7213 43.942 23.7644 43.8216 23.8449C43.7012 23.9255 43.6074 24.0399 43.5519 24.1737C43.4964 24.3076 43.4819 24.4548 43.51 24.597C43.5382 24.7391 43.6078 24.8697 43.71 24.9723L49.4978 30.7624ZM47.122 25.1871C47.3162 25.1871 47.5025 25.1099 47.6399 24.9725C47.7772 24.8351 47.8544 24.6488 47.8544 24.4545V19.3983H52.178V24.4559C52.1785 24.65 52.256 24.836 52.3934 24.973C52.5309 25.1101 52.717 25.1871 52.9111 25.1871H54.0361L50.0162 29.2077L45.9963 25.1871H47.122Z" stroke="#589CE7" stroke-width="0.6" mask="url(#path-1-outside-1_467_1710)"/>
</svg>
