<svg width="58" height="58" viewBox="0 0 58 58" fill="none" xmlns="http://www.w3.org/2000/svg">
<path d="M53.02 1.00006H13.7167C11.5256 1.00006 9.7526 2.78226 9.7526 4.96415V8.64343L6.08249 9.04535C2.96358 9.38296 0.70138 12.1895 1.0321 15.3082L4.95256 51.9129C5.11333 53.4195 5.85283 54.7814 7.03797 55.7346C8.06229 56.5637 9.3094 57 10.6024 57C10.8068 57 11.0112 56.9908 11.2179 56.9633L46.8784 53.1507C49.2026 52.9004 51.0468 51.2721 51.6968 49.1683C54.6549 48.9639 56.9975 46.5042 56.9975 43.5024L56.9929 10.2832V4.97326C56.9838 2.7822 55.2111 1.00006 53.02 1.00006ZM10.821 4.97332C10.821 3.37944 12.1209 2.07719 13.7172 2.07719H53.0111C54.605 2.07719 55.9072 3.37709 55.9072 4.97332V9.73896H10.8208L10.821 4.97332ZM46.7572 52.0806L11.0968 55.8931C9.86807 56.0171 8.66459 55.6703 7.71146 54.8963C6.74916 54.1223 6.15204 53.0245 6.01881 51.7958L2.10065 15.1911C1.83423 12.6602 3.6693 10.3796 6.19796 10.1132L9.75324 9.72965V43.4933C9.75324 46.6283 12.3002 49.1776 15.4376 49.1776L50.5541 49.1754C49.9386 50.7256 48.5118 51.8922 46.7572 52.0806ZM55.9163 43.5024C55.9163 45.8633 54.1433 47.804 51.8534 48.082H50.8383C50.8383 48.0912 50.8291 48.1095 50.8291 48.1187L15.435 48.1164C12.888 48.1164 10.8209 46.0494 10.8209 43.5023V10.8158H55.9139L55.9163 43.5024Z" fill="#589CE7" stroke="#589CE7" stroke-width="0.6"/>
<path d="M17.5733 3.4668H15.4788C14.7117 3.4668 14.0801 4.0915 14.0801 4.86547V6.96005C14.0801 7.72715 14.7048 8.35873 15.4788 8.35873H17.5733C18.3404 8.35873 18.972 7.73403 18.972 6.96005V4.86547C18.9628 4.0915 18.3404 3.4668 17.5733 3.4668ZM17.8949 6.96005C17.8949 7.13919 17.7525 7.28159 17.5733 7.28159H15.4788C15.2996 7.28159 15.1572 7.13919 15.1572 6.96005L15.1595 4.86547C15.1595 4.68633 15.3019 4.54394 15.4811 4.54394H17.5756C17.7548 4.54394 17.8972 4.68633 17.8972 4.86547L17.8949 6.96005Z" fill="#589CE7" stroke="#589CE7" stroke-width="0.6"/>
<path d="M24.13 3.4668H22.0354C21.2683 3.4668 20.6367 4.0915 20.6367 4.86547V6.96005C20.6367 7.72715 21.2614 8.35873 22.0354 8.35873H24.13C24.8971 8.35873 25.5286 7.73403 25.5286 6.96005V4.86547C25.5286 4.0915 24.9062 3.4668 24.13 3.4668ZM24.4607 6.96005C24.4607 7.13919 24.3183 7.28159 24.1392 7.28159H22.0446C21.8654 7.28159 21.723 7.13919 21.723 6.96005L21.7253 4.86547C21.7253 4.68633 21.8677 4.54394 22.0469 4.54394H24.1415C24.3206 4.54394 24.463 4.68633 24.463 4.86547L24.4607 6.96005Z" fill="#589CE7" stroke="#589CE7" stroke-width="0.6"/>
<path d="M30.697 3.4668H28.6024C27.8376 3.4668 27.2129 4.0915 27.2129 4.86547V6.96005C27.2129 7.72715 27.8376 8.35873 28.6116 8.35873H30.7061C31.4732 8.35873 32.1048 7.73403 32.1048 6.96005V4.86547C32.0956 4.0915 31.471 3.4668 30.697 3.4668ZM31.0162 6.96005C31.0162 7.13919 30.8738 7.28159 30.6947 7.28159H28.6001C28.421 7.28159 28.2786 7.13919 28.2786 6.96005L28.2831 4.86547C28.2831 4.68633 28.4255 4.54394 28.6047 4.54394H30.6993C30.8784 4.54394 31.0208 4.68633 31.0208 4.86547L31.0162 6.96005Z" fill="#589CE7" stroke="#589CE7" stroke-width="0.6"/>
<path d="M52.4513 3.62797C52.2377 3.41438 51.9001 3.41438 51.6934 3.62797L50.1707 5.15064L48.6481 3.62797C48.4345 3.41438 48.0969 3.41438 47.8901 3.62797C47.6765 3.84156 47.6765 4.17917 47.8901 4.38589L49.4128 5.90857L47.8809 7.43125C47.6673 7.64484 47.6673 7.98245 47.8809 8.18917C47.9888 8.29712 48.1221 8.34994 48.2644 8.34994C48.3976 8.34994 48.54 8.29712 48.648 8.18917L50.1707 6.6665L51.6933 8.18917C51.8013 8.29712 51.9345 8.34994 52.0769 8.34994C52.2193 8.34994 52.3525 8.29712 52.4604 8.18917C52.674 7.97558 52.674 7.63797 52.4604 7.43125L50.9378 5.90857L52.4604 4.38589C52.6648 4.1723 52.6649 3.83239 52.4513 3.62797Z" fill="#589CE7" stroke="#589CE7" stroke-width="0.6"/>
<path d="M44.8252 5.37305H40.9668C40.6728 5.37305 40.4316 5.6142 40.4316 5.90818C40.4316 6.20215 40.6728 6.44331 40.9668 6.44331H44.8252C45.1192 6.44331 45.3603 6.20215 45.3603 5.90818C45.358 5.6142 45.1192 5.37305 44.8252 5.37305Z" fill="#589CE7" stroke="#589CE7" stroke-width="0.6"/>
<path d="M23.7655 30.0859C23.5335 29.3832 22.8835 28.8664 22.1004 28.8664C21.1289 28.8664 20.3457 29.6588 20.3457 30.6211C20.3457 31.5926 21.1381 32.3758 22.1004 32.3758C22.8835 32.3758 23.5335 31.859 23.7655 31.1563H28.6206C28.5058 31.9854 28.3542 32.7961 28.1751 33.5793H23.8091C22.8032 33.5793 21.9832 34.3992 21.9832 35.4051V36.3766C21.2804 36.6086 20.7637 37.2585 20.7637 38.0417C20.7637 39.0132 21.5561 39.7964 22.5184 39.7964C23.4898 39.7964 24.273 39.004 24.273 38.0417C24.273 37.2585 23.7563 36.6086 23.0535 36.3766V35.4143C23.0535 35.0055 23.3911 34.6656 23.8022 34.6656H27.8995C27.6147 35.7267 27.2679 36.751 26.8568 37.7386H26.8385C25.8325 37.7386 25.0126 38.5585 25.0126 39.5645V41.2847H24.6107C23.3727 41.2847 22.3576 42.2906 22.3576 43.5377V46.5211C22.3576 46.8151 22.5988 47.0563 22.8928 47.0563H42.3316C42.6256 47.0563 42.8667 46.8151 42.8667 46.5211V43.5377C42.8667 42.2998 41.8608 41.2847 40.6137 41.2847H40.2118V39.5645C40.2118 38.5586 39.3919 37.7386 38.3859 37.7386H38.3675C37.9587 36.7327 37.6096 35.6991 37.3249 34.6289H41.4314C41.8402 34.6289 42.1801 34.9665 42.1801 35.3776V36.3835C41.4773 36.6155 40.9605 37.2654 40.9605 38.0486C40.9605 39.02 41.7529 39.8032 42.7152 39.8032C43.6867 39.8032 44.4699 39.0109 44.4699 38.0486C44.4699 37.2654 43.9531 36.6154 43.2504 36.3835V35.3776C43.2504 34.3716 42.4305 33.5517 41.4245 33.5517H37.0516C36.8724 32.7593 36.7209 31.9578 36.6152 31.1287H41.4796C41.7115 31.8315 42.3615 32.3482 43.1447 32.3482C44.1161 32.3482 44.8993 31.5558 44.8993 30.5935C44.8993 29.6221 44.107 28.8388 43.1447 28.8388C42.3615 28.8388 41.7115 29.3556 41.4796 30.0584H36.482C36.4016 29.266 36.3488 28.4645 36.3212 27.6354H41.4268C42.4327 27.6354 43.2526 26.8155 43.2526 25.8095V24.838C43.9554 24.606 44.4722 23.9561 44.4722 23.1729C44.4722 22.2015 43.6798 21.4183 42.7175 21.4183C41.746 21.4183 40.9628 22.2106 40.9628 23.1729C40.9628 23.9561 41.4796 24.6061 42.1823 24.838V25.8095C42.1823 26.2183 41.8447 26.5582 41.4336 26.5582H36.312C36.312 25.5614 36.3396 24.5371 36.4108 23.4852H36.9804C37.7475 23.4852 38.3791 22.8605 38.3791 22.0865V20.5363C39.3505 20.279 40.0809 19.3971 40.0809 18.3452V14.6568C40.0809 13.4717 39.1186 12.5186 37.9427 12.5186C36.7668 12.5186 35.8045 13.4809 35.8045 14.6568V15.789C35.8045 16.0738 35.5725 16.315 35.2785 16.315C34.9846 16.315 34.7526 16.083 34.7526 15.789V14.6568C34.7526 13.4717 33.7903 12.5186 32.6144 12.5186C31.4293 12.5186 30.4762 13.4809 30.4762 14.6568V15.7799C30.4762 16.0738 30.2442 16.3058 29.9503 16.3058C29.6563 16.3058 29.4243 16.0738 29.4243 15.7799V14.6568C29.4243 13.4717 28.462 12.5186 27.2861 12.5186C26.1102 12.5186 25.1479 13.4809 25.1479 14.6568V18.3452C25.1479 19.3971 25.8691 20.279 26.8497 20.5363V22.0865C26.8497 22.8536 27.4744 23.4852 28.2484 23.4852H28.818C28.8892 24.5532 28.9259 25.5867 28.9167 26.5949H23.7952C23.3864 26.5949 23.0465 26.2573 23.0465 25.8462V24.8403C23.7492 24.6083 24.266 23.9584 24.266 23.1752C24.266 22.2038 23.4736 21.4205 22.5113 21.4205C21.5398 21.4205 20.7566 22.2129 20.7566 23.1752C20.7566 23.9584 21.2734 24.6084 21.9762 24.8403V25.8462C21.9762 26.8522 22.7961 27.6721 23.802 27.6721H28.9076C28.88 28.5012 28.8272 29.312 28.7468 30.0951H23.7653L23.7655 30.0859ZM22.1004 31.3078C21.726 31.3078 21.4137 31.0046 21.4137 30.621C21.4137 30.2467 21.726 29.9343 22.1004 29.9343C22.4747 29.9343 22.7871 30.2467 22.7871 30.621C22.7848 31.0046 22.484 31.3078 22.1004 31.3078ZM22.5368 38.7377C22.1624 38.7377 21.85 38.4254 21.85 38.051C21.85 37.6766 22.1624 37.3643 22.5368 37.3643C22.9111 37.3643 23.2235 37.6766 23.2235 38.051C23.2143 38.4253 22.9111 38.7377 22.5368 38.7377ZM41.831 43.5286V45.9791H23.4622V43.5286C23.4622 42.8786 23.9881 42.3527 24.6381 42.3527H40.6462C41.2985 42.3435 41.831 42.8786 41.831 43.5286ZM39.176 39.5553V41.2755H26.117V39.5553C26.117 39.1465 26.4546 38.8066 26.8657 38.8066H38.4295C38.8475 38.8089 39.176 39.1465 39.176 39.5553ZM42.768 38.7377C42.3937 38.7377 42.0813 38.4254 42.0813 38.051C42.0813 37.6766 42.3845 37.3643 42.768 37.3643C43.1424 37.3643 43.4548 37.6766 43.4548 38.051C43.4525 38.4253 43.1424 38.7377 42.768 38.7377ZM43.1952 29.909C43.5696 29.909 43.8819 30.2122 43.8819 30.5958C43.8819 30.9701 43.5696 31.2825 43.1952 31.2825C42.8209 31.2825 42.5085 30.9701 42.5085 30.5958C42.5085 30.2122 42.8208 29.909 43.1952 29.909ZM42.768 22.4791C43.1424 22.4791 43.4548 22.7914 43.4548 23.1658C43.4548 23.5402 43.1424 23.8525 42.768 23.8525C42.3937 23.8525 42.0813 23.5402 42.0813 23.1658C42.0813 22.7892 42.3845 22.4791 42.768 22.4791ZM22.5366 22.4791C22.911 22.4791 23.2234 22.7914 23.2234 23.1658C23.2234 23.5402 22.9202 23.8525 22.5366 23.8525C22.1531 23.8525 21.8499 23.5402 21.8499 23.1658C21.8499 22.7892 22.1531 22.4791 22.5366 22.4791ZM26.2504 18.3451V14.6566C26.2504 14.0687 26.7304 13.5887 27.3183 13.5887C27.9063 13.5887 28.3863 14.0687 28.3863 14.6566V15.7797C28.3863 16.6617 29.0982 17.3736 29.9802 17.3736C30.8621 17.3736 31.574 16.6524 31.574 15.7797V14.6566C31.574 14.0687 32.054 13.5887 32.642 13.5887C33.2299 13.5887 33.7099 14.0687 33.7099 14.6566V15.7889C33.7099 16.6708 34.4219 17.3828 35.3038 17.3828C36.1858 17.3828 36.8977 16.6708 36.8977 15.7889V14.6566C36.8977 14.0687 37.3777 13.5887 37.9657 13.5887C38.5536 13.5887 39.0336 14.0687 39.0336 14.6566V18.3451C39.0336 19.0134 38.4893 19.5486 37.8301 19.5486H27.454C26.7856 19.5555 26.2504 19.0134 26.2504 18.3451ZM27.943 22.0864V20.6257H37.3502V22.0864C37.3502 22.2655 37.2078 22.4079 37.0287 22.4079H28.2735C28.0852 22.4079 27.943 22.2655 27.943 22.0864ZM35.3818 23.4851C35.3014 24.7138 35.2738 25.8989 35.2922 27.0495C35.2922 27.0679 35.283 27.0771 35.283 27.0932C35.283 27.1115 35.2922 27.1207 35.2922 27.1368C35.3106 28.2599 35.391 29.337 35.5058 30.3981C35.4782 30.4601 35.4691 30.5221 35.4691 30.5933C35.4691 30.7013 35.5058 30.7885 35.5586 30.8689C35.8618 33.3103 36.4314 35.5909 37.2605 37.7386H28.0414C28.8705 35.6095 29.4309 33.3381 29.7432 30.9154C29.796 30.835 29.8328 30.7362 29.8328 30.6306C29.8328 30.5594 29.8144 30.4882 29.7891 30.4262C29.904 29.3743 29.9844 28.2972 30.0027 27.1741C30.0027 27.1557 30.0119 27.1466 30.0119 27.1305C30.0119 27.1121 30.0027 27.1029 30.0027 27.0868C30.0211 25.9201 29.9935 24.7259 29.9132 23.4879L35.3818 23.4851Z" fill="#589CE7" stroke="#589CE7" stroke-width="0.6"/>
</svg>
