<svg width="52" height="61" viewBox="0 0 52 61" fill="none" xmlns="http://www.w3.org/2000/svg">
<mask id="path-1-outside-1_467_1709" maskUnits="userSpaceOnUse" x="0" y="0" width="52" height="61" fill="black">
<rect fill="white" width="52" height="61"/>
<path d="M47.1353 11.7214H39.2136V9.03243C39.2133 8.88011 39.1724 8.73055 39.0952 8.59881C39.0179 8.46707 38.907 8.35778 38.7735 8.28195L26.2376 1.11626C26.1048 1.0401 25.9539 1 25.8004 1C25.6468 1 25.496 1.0401 25.3631 1.11626L22.8621 2.54753L22.8313 2.52948L21.5242 3.30735L12.8241 8.2807C12.6906 8.35644 12.5796 8.4657 12.5023 8.59747C12.425 8.72923 12.3842 8.87884 12.384 9.03119V11.7214H4.86468C3.84 11.7227 2.85768 12.1262 2.13319 12.8434C1.40869 13.5606 1.00116 14.533 1 15.5472V44.6898C1.00116 45.704 1.40869 46.6763 2.13319 47.3935C2.85768 48.1108 3.84 48.5143 4.86468 48.5156H17.8217L14.3205 53.797H10.7689C9.98119 53.8595 9.24618 54.2134 8.71021 54.7881C8.17424 55.3629 7.87662 56.1163 7.87662 56.8985C7.87662 57.6807 8.17424 58.4341 8.71021 59.0089C9.24618 59.5836 9.98119 59.9375 10.7689 60H41.2305C42.0182 59.9375 42.7532 59.5836 43.2892 59.0089C43.8251 58.4341 44.1227 57.6807 44.1227 56.8985C44.1227 56.1163 43.8251 55.3629 43.2892 54.7881C42.7532 54.2134 42.0182 53.8595 41.2305 53.797H37.6795L34.177 48.5156H47.1353C48.16 48.5143 49.1423 48.1108 49.8668 47.3935C50.5913 46.6763 50.9988 45.704 51 44.6898V15.5472C50.9988 14.533 50.5913 13.5606 49.8668 12.8434C49.1423 12.1262 48.16 11.7227 47.1353 11.7214ZM26.6752 29.0267V16.6966L28.9593 15.3898V21.4851C28.9592 21.6357 28.9988 21.7837 29.0741 21.9145C29.1495 22.0453 29.258 22.1544 29.389 22.231C29.52 22.3076 29.6689 22.3491 29.821 22.3513C29.9731 22.3535 30.1232 22.3164 30.2564 22.2437L35.8079 19.2187C35.9449 19.1439 36.0592 19.034 36.1388 18.9006C36.2184 18.7672 36.2605 18.6151 36.2605 18.4602V11.2192L37.4645 10.5309V22.8616L26.6752 29.0267ZM32.0017 36.5135C32.2292 36.5135 32.4517 36.5803 32.6409 36.7054C32.8301 36.8305 32.9775 37.0084 33.0646 37.2165C33.1517 37.4245 33.1745 37.6535 33.1301 37.8744C33.0857 38.0953 32.9761 38.2982 32.8152 38.4575C32.6543 38.6168 32.4493 38.7252 32.2261 38.7692C32.0029 38.8131 31.7716 38.7906 31.5614 38.7044C31.3511 38.6182 31.1714 38.4722 31.045 38.2849C30.9186 38.0977 30.8511 37.8775 30.8511 37.6523C30.8513 37.3503 30.9726 37.0607 31.1883 36.8472C31.404 36.6337 31.6966 36.5136 32.0017 36.5135ZM19.9983 36.8296C20.2259 36.8296 20.4483 36.8964 20.6375 37.0215C20.8267 37.1466 20.9742 37.3245 21.0613 37.5326C21.1484 37.7407 21.1712 37.9696 21.1268 38.1906C21.0824 38.4115 20.9728 38.6144 20.8119 38.7736C20.651 38.9329 20.446 39.0414 20.2228 39.0853C19.9996 39.1292 19.7683 39.1067 19.558 39.0205C19.3478 38.9343 19.1681 38.7883 19.0417 38.6011C18.9153 38.4138 18.8478 38.1936 18.8478 37.9684C18.848 37.6664 18.9692 37.3768 19.185 37.1633C19.4007 36.9498 19.6932 36.8298 19.9983 36.8296ZM14.1363 22.861V10.5309L24.9255 16.6966V29.0267L14.1363 22.861ZM22.8621 4.54509L33.6193 10.6921L29.8351 12.872L19.1383 6.76107L22.4076 4.80521L22.8621 4.54509ZM30.709 14.391L34.5102 12.2192V17.9486L30.709 20.0209V14.391ZM28.1005 13.882L25.8007 15.1962L15.0114 9.03243L17.3112 7.71815L28.1005 13.882ZM26 40.157C26.2275 40.1571 26.4499 40.224 26.639 40.3492C26.8282 40.4744 26.9755 40.6523 27.0625 40.8604C27.1495 41.0685 27.1722 41.2975 27.1277 41.5183C27.0833 41.7392 26.9736 41.942 26.8127 42.1012C26.6518 42.2604 26.4468 42.3688 26.2236 42.4127C26.0004 42.4566 25.7691 42.434 25.5589 42.3478C25.3487 42.2616 25.1691 42.1157 25.0427 41.9284C24.9163 41.7411 24.8488 41.521 24.8488 41.2958C24.8492 40.9937 24.9706 40.7042 25.1864 40.4907C25.4022 40.2772 25.6949 40.1572 26 40.157ZM25.8007 2.86614L36.5894 9.03243L35.4011 9.71135L24.6118 3.54506L25.8007 2.86614ZM42.3785 56.9016C42.4022 57.2323 42.2961 57.5592 42.0822 57.8143C41.8683 58.0693 41.5632 58.2328 41.2305 58.2707H10.7689C10.4461 58.211 10.1545 58.0415 9.9447 57.7915C9.73488 57.5414 9.62002 57.2266 9.62002 56.9016C9.62002 56.5766 9.73488 56.2618 9.9447 56.0118C10.1545 55.7617 10.4461 55.5922 10.7689 55.5326H41.2305C41.5632 55.5704 41.8683 55.7339 42.0822 55.9889C42.2961 56.244 42.4022 56.571 42.3785 56.9016ZM35.5884 53.7995H16.4128L19.9141 48.5181H32.084L35.5884 53.7995ZM49.2497 44.6898C49.2492 45.2448 49.0263 45.7769 48.6299 46.1695C48.2335 46.562 47.696 46.7829 47.1353 46.7838H4.86468C4.30395 46.7829 3.76645 46.562 3.37008 46.1695C2.97371 45.7769 2.75083 45.2448 2.75033 44.6898V15.5472C2.75016 14.9918 2.97275 14.459 3.36919 14.0659C3.76564 13.6728 4.30352 13.4515 4.86468 13.4507H12.3866V23.3613C12.3874 23.5131 12.4284 23.6619 12.5057 23.793C12.5829 23.924 12.6936 24.0327 12.8267 24.1081L15.1491 25.4354V30.0578L12.4123 31.6216C12.2793 31.6971 12.1687 31.8057 12.0914 31.9368C12.0142 32.0678 11.9731 32.2167 11.9722 32.3684V34.2166C11.3122 34.4234 10.7488 34.8571 10.3837 35.4393C10.0186 36.0215 9.87608 36.7138 9.9818 37.391C10.0875 38.0682 10.4345 38.6856 10.9601 39.1316C11.4857 39.5776 12.1551 39.8228 12.8474 39.8228C13.5397 39.8228 14.2091 39.5776 14.7347 39.1316C15.2603 38.6856 15.6073 38.0682 15.713 37.391C15.8187 36.7138 15.6762 36.0215 15.3111 35.4393C14.946 34.8571 14.3826 34.4234 13.7226 34.2166V32.8743L16.4587 31.3105C16.5923 31.2347 16.7033 31.1255 16.7805 30.9937C16.8578 30.862 16.8986 30.7124 16.8988 30.56V26.4386L19.1257 27.7111V35.2459C18.4659 35.4527 17.9026 35.8863 17.5376 36.4684C17.1727 37.0505 17.0302 37.7426 17.1359 38.4196C17.2416 39.0966 17.5885 39.7139 18.114 40.1598C18.6394 40.6057 19.3087 40.8508 20.0009 40.8508C20.693 40.8508 21.3623 40.6057 21.8877 40.1598C22.4132 39.7139 22.7601 39.0966 22.8658 38.4196C22.9715 37.7426 22.829 37.0505 22.4641 36.4684C22.0992 35.8863 21.5358 35.4527 20.876 35.2459V28.7118L25.1267 31.1387V38.5726C24.4665 38.7794 23.9029 39.2132 23.5377 39.7956C23.1726 40.3779 23.0299 41.0703 23.1356 41.7477C23.2414 42.4251 23.5884 43.0426 24.1141 43.4887C24.6398 43.9349 25.3094 44.1801 26.0019 44.1801C26.6943 44.1801 27.3639 43.9349 27.8896 43.4887C28.4153 43.0426 28.7624 42.4251 28.8681 41.7477C28.9738 41.0703 28.8312 40.3779 28.466 39.7956C28.1009 39.2132 27.5372 38.7794 26.8771 38.5726V30.9608C26.8771 30.9458 26.8733 30.9309 26.872 30.916L31.129 28.4828V34.9297C30.4692 35.1365 29.9059 35.5702 29.5409 36.1523C29.176 36.7344 29.0335 37.4265 29.1392 38.1035C29.2449 38.7805 29.5919 39.3978 30.1173 39.8437C30.6428 40.2895 31.3121 40.5346 32.0042 40.5346C32.6963 40.5346 33.3656 40.2895 33.891 39.8437C34.4165 39.3978 34.7634 38.7805 34.8691 38.1035C34.9748 37.4265 34.8324 36.7344 34.4674 36.1523C34.1025 35.5702 33.5392 35.1365 32.8793 34.9297V27.4828L35.1037 26.2077V30.3509C35.104 30.5032 35.1448 30.6528 35.2221 30.7846C35.2993 30.9163 35.4103 31.0256 35.5438 31.1014L38.2799 32.6646V34.0131C37.6198 34.2199 37.0561 34.6537 36.691 35.236C36.3258 35.8184 36.1832 36.5108 36.2889 37.1882C36.3946 37.8655 36.7417 38.4831 37.2674 38.9292C37.7931 39.3753 38.4627 39.6205 39.1551 39.6205C39.8476 39.6205 40.5172 39.3753 41.0429 38.9292C41.5686 38.4831 41.9156 37.8655 42.0214 37.1882C42.1271 36.5108 41.9844 35.8184 41.6193 35.236C41.2541 34.6537 40.6905 34.2199 40.0303 34.0131V32.1649C40.0294 32.0132 39.9883 31.8643 39.9111 31.7333C39.8338 31.6022 39.7232 31.4936 39.5902 31.4181L36.8534 29.8537V25.212L38.7766 24.1131C38.9096 24.0376 39.0202 23.9289 39.0974 23.7979C39.1747 23.6668 39.2158 23.518 39.2167 23.3663V13.4507H47.1385C47.6992 13.4515 48.2367 13.6725 48.6331 14.065C49.0294 14.4576 49.2523 14.9897 49.2528 15.5447L49.2497 44.6898ZM12.8474 35.8065C13.0751 35.8064 13.2978 35.8732 13.4872 35.9983C13.6766 36.1235 13.8242 36.3014 13.9114 36.5096C13.9987 36.7179 14.0215 36.947 13.9771 37.1681C13.9327 37.3892 13.8231 37.5923 13.662 37.7516C13.501 37.911 13.2958 38.0196 13.0725 38.0635C12.8491 38.1075 12.6176 38.0848 12.4072 37.9985C12.1968 37.9122 12.017 37.7661 11.8906 37.5786C11.7642 37.3911 11.6967 37.1707 11.6969 36.9453C11.6974 36.6435 11.8187 36.3541 12.0344 36.1406C12.2501 35.9272 12.5424 35.807 12.8474 35.8065ZM39.1526 35.5993C39.3801 35.5994 39.6025 35.6663 39.7916 35.7915C39.9808 35.9167 40.1281 36.0946 40.2151 36.3027C40.3021 36.5108 40.3248 36.7398 40.2803 36.9607C40.2359 37.1815 40.1262 37.3844 39.9653 37.5436C39.8044 37.7028 39.5994 37.8112 39.3762 37.8551C39.153 37.899 38.9217 37.8764 38.7115 37.7902C38.5013 37.704 38.3217 37.558 38.1953 37.3707C38.0689 37.1835 38.0014 36.9633 38.0014 36.7381C38.0019 36.4361 38.1234 36.1467 38.3392 35.9332C38.555 35.7197 38.8475 35.5996 39.1526 35.5993Z"/>
</mask>
<path d="M47.1353 11.7214H39.2136V9.03243C39.2133 8.88011 39.1724 8.73055 39.0952 8.59881C39.0179 8.46707 38.907 8.35778 38.7735 8.28195L26.2376 1.11626C26.1048 1.0401 25.9539 1 25.8004 1C25.6468 1 25.496 1.0401 25.3631 1.11626L22.8621 2.54753L22.8313 2.52948L21.5242 3.30735L12.8241 8.2807C12.6906 8.35644 12.5796 8.4657 12.5023 8.59747C12.425 8.72923 12.3842 8.87884 12.384 9.03119V11.7214H4.86468C3.84 11.7227 2.85768 12.1262 2.13319 12.8434C1.40869 13.5606 1.00116 14.533 1 15.5472V44.6898C1.00116 45.704 1.40869 46.6763 2.13319 47.3935C2.85768 48.1108 3.84 48.5143 4.86468 48.5156H17.8217L14.3205 53.797H10.7689C9.98119 53.8595 9.24618 54.2134 8.71021 54.7881C8.17424 55.3629 7.87662 56.1163 7.87662 56.8985C7.87662 57.6807 8.17424 58.4341 8.71021 59.0089C9.24618 59.5836 9.98119 59.9375 10.7689 60H41.2305C42.0182 59.9375 42.7532 59.5836 43.2892 59.0089C43.8251 58.4341 44.1227 57.6807 44.1227 56.8985C44.1227 56.1163 43.8251 55.3629 43.2892 54.7881C42.7532 54.2134 42.0182 53.8595 41.2305 53.797H37.6795L34.177 48.5156H47.1353C48.16 48.5143 49.1423 48.1108 49.8668 47.3935C50.5913 46.6763 50.9988 45.704 51 44.6898V15.5472C50.9988 14.533 50.5913 13.5606 49.8668 12.8434C49.1423 12.1262 48.16 11.7227 47.1353 11.7214ZM26.6752 29.0267V16.6966L28.9593 15.3898V21.4851C28.9592 21.6357 28.9988 21.7837 29.0741 21.9145C29.1495 22.0453 29.258 22.1544 29.389 22.231C29.52 22.3076 29.6689 22.3491 29.821 22.3513C29.9731 22.3535 30.1232 22.3164 30.2564 22.2437L35.8079 19.2187C35.9449 19.1439 36.0592 19.034 36.1388 18.9006C36.2184 18.7672 36.2605 18.6151 36.2605 18.4602V11.2192L37.4645 10.5309V22.8616L26.6752 29.0267ZM32.0017 36.5135C32.2292 36.5135 32.4517 36.5803 32.6409 36.7054C32.8301 36.8305 32.9775 37.0084 33.0646 37.2165C33.1517 37.4245 33.1745 37.6535 33.1301 37.8744C33.0857 38.0953 32.9761 38.2982 32.8152 38.4575C32.6543 38.6168 32.4493 38.7252 32.2261 38.7692C32.0029 38.8131 31.7716 38.7906 31.5614 38.7044C31.3511 38.6182 31.1714 38.4722 31.045 38.2849C30.9186 38.0977 30.8511 37.8775 30.8511 37.6523C30.8513 37.3503 30.9726 37.0607 31.1883 36.8472C31.404 36.6337 31.6966 36.5136 32.0017 36.5135ZM19.9983 36.8296C20.2259 36.8296 20.4483 36.8964 20.6375 37.0215C20.8267 37.1466 20.9742 37.3245 21.0613 37.5326C21.1484 37.7407 21.1712 37.9696 21.1268 38.1906C21.0824 38.4115 20.9728 38.6144 20.8119 38.7736C20.651 38.9329 20.446 39.0414 20.2228 39.0853C19.9996 39.1292 19.7683 39.1067 19.558 39.0205C19.3478 38.9343 19.1681 38.7883 19.0417 38.6011C18.9153 38.4138 18.8478 38.1936 18.8478 37.9684C18.848 37.6664 18.9692 37.3768 19.185 37.1633C19.4007 36.9498 19.6932 36.8298 19.9983 36.8296ZM14.1363 22.861V10.5309L24.9255 16.6966V29.0267L14.1363 22.861ZM22.8621 4.54509L33.6193 10.6921L29.8351 12.872L19.1383 6.76107L22.4076 4.80521L22.8621 4.54509ZM30.709 14.391L34.5102 12.2192V17.9486L30.709 20.0209V14.391ZM28.1005 13.882L25.8007 15.1962L15.0114 9.03243L17.3112 7.71815L28.1005 13.882ZM26 40.157C26.2275 40.1571 26.4499 40.224 26.639 40.3492C26.8282 40.4744 26.9755 40.6523 27.0625 40.8604C27.1495 41.0685 27.1722 41.2975 27.1277 41.5183C27.0833 41.7392 26.9736 41.942 26.8127 42.1012C26.6518 42.2604 26.4468 42.3688 26.2236 42.4127C26.0004 42.4566 25.7691 42.434 25.5589 42.3478C25.3487 42.2616 25.1691 42.1157 25.0427 41.9284C24.9163 41.7411 24.8488 41.521 24.8488 41.2958C24.8492 40.9937 24.9706 40.7042 25.1864 40.4907C25.4022 40.2772 25.6949 40.1572 26 40.157ZM25.8007 2.86614L36.5894 9.03243L35.4011 9.71135L24.6118 3.54506L25.8007 2.86614ZM42.3785 56.9016C42.4022 57.2323 42.2961 57.5592 42.0822 57.8143C41.8683 58.0693 41.5632 58.2328 41.2305 58.2707H10.7689C10.4461 58.211 10.1545 58.0415 9.9447 57.7915C9.73488 57.5414 9.62002 57.2266 9.62002 56.9016C9.62002 56.5766 9.73488 56.2618 9.9447 56.0118C10.1545 55.7617 10.4461 55.5922 10.7689 55.5326H41.2305C41.5632 55.5704 41.8683 55.7339 42.0822 55.9889C42.2961 56.244 42.4022 56.571 42.3785 56.9016ZM35.5884 53.7995H16.4128L19.9141 48.5181H32.084L35.5884 53.7995ZM49.2497 44.6898C49.2492 45.2448 49.0263 45.7769 48.6299 46.1695C48.2335 46.562 47.696 46.7829 47.1353 46.7838H4.86468C4.30395 46.7829 3.76645 46.562 3.37008 46.1695C2.97371 45.7769 2.75083 45.2448 2.75033 44.6898V15.5472C2.75016 14.9918 2.97275 14.459 3.36919 14.0659C3.76564 13.6728 4.30352 13.4515 4.86468 13.4507H12.3866V23.3613C12.3874 23.5131 12.4284 23.6619 12.5057 23.793C12.5829 23.924 12.6936 24.0327 12.8267 24.1081L15.1491 25.4354V30.0578L12.4123 31.6216C12.2793 31.6971 12.1687 31.8057 12.0914 31.9368C12.0142 32.0678 11.9731 32.2167 11.9722 32.3684V34.2166C11.3122 34.4234 10.7488 34.8571 10.3837 35.4393C10.0186 36.0215 9.87608 36.7138 9.9818 37.391C10.0875 38.0682 10.4345 38.6856 10.9601 39.1316C11.4857 39.5776 12.1551 39.8228 12.8474 39.8228C13.5397 39.8228 14.2091 39.5776 14.7347 39.1316C15.2603 38.6856 15.6073 38.0682 15.713 37.391C15.8187 36.7138 15.6762 36.0215 15.3111 35.4393C14.946 34.8571 14.3826 34.4234 13.7226 34.2166V32.8743L16.4587 31.3105C16.5923 31.2347 16.7033 31.1255 16.7805 30.9937C16.8578 30.862 16.8986 30.7124 16.8988 30.56V26.4386L19.1257 27.7111V35.2459C18.4659 35.4527 17.9026 35.8863 17.5376 36.4684C17.1727 37.0505 17.0302 37.7426 17.1359 38.4196C17.2416 39.0966 17.5885 39.7139 18.114 40.1598C18.6394 40.6057 19.3087 40.8508 20.0009 40.8508C20.693 40.8508 21.3623 40.6057 21.8877 40.1598C22.4132 39.7139 22.7601 39.0966 22.8658 38.4196C22.9715 37.7426 22.829 37.0505 22.4641 36.4684C22.0992 35.8863 21.5358 35.4527 20.876 35.2459V28.7118L25.1267 31.1387V38.5726C24.4665 38.7794 23.9029 39.2132 23.5377 39.7956C23.1726 40.3779 23.0299 41.0703 23.1356 41.7477C23.2414 42.4251 23.5884 43.0426 24.1141 43.4887C24.6398 43.9349 25.3094 44.1801 26.0019 44.1801C26.6943 44.1801 27.3639 43.9349 27.8896 43.4887C28.4153 43.0426 28.7624 42.4251 28.8681 41.7477C28.9738 41.0703 28.8312 40.3779 28.466 39.7956C28.1009 39.2132 27.5372 38.7794 26.8771 38.5726V30.9608C26.8771 30.9458 26.8733 30.9309 26.872 30.916L31.129 28.4828V34.9297C30.4692 35.1365 29.9059 35.5702 29.5409 36.1523C29.176 36.7344 29.0335 37.4265 29.1392 38.1035C29.2449 38.7805 29.5919 39.3978 30.1173 39.8437C30.6428 40.2895 31.3121 40.5346 32.0042 40.5346C32.6963 40.5346 33.3656 40.2895 33.891 39.8437C34.4165 39.3978 34.7634 38.7805 34.8691 38.1035C34.9748 37.4265 34.8324 36.7344 34.4674 36.1523C34.1025 35.5702 33.5392 35.1365 32.8793 34.9297V27.4828L35.1037 26.2077V30.3509C35.104 30.5032 35.1448 30.6528 35.2221 30.7846C35.2993 30.9163 35.4103 31.0256 35.5438 31.1014L38.2799 32.6646V34.0131C37.6198 34.2199 37.0561 34.6537 36.691 35.236C36.3258 35.8184 36.1832 36.5108 36.2889 37.1882C36.3946 37.8655 36.7417 38.4831 37.2674 38.9292C37.7931 39.3753 38.4627 39.6205 39.1551 39.6205C39.8476 39.6205 40.5172 39.3753 41.0429 38.9292C41.5686 38.4831 41.9156 37.8655 42.0214 37.1882C42.1271 36.5108 41.9844 35.8184 41.6193 35.236C41.2541 34.6537 40.6905 34.2199 40.0303 34.0131V32.1649C40.0294 32.0132 39.9883 31.8643 39.9111 31.7333C39.8338 31.6022 39.7232 31.4936 39.5902 31.4181L36.8534 29.8537V25.212L38.7766 24.1131C38.9096 24.0376 39.0202 23.9289 39.0974 23.7979C39.1747 23.6668 39.2158 23.518 39.2167 23.3663V13.4507H47.1385C47.6992 13.4515 48.2367 13.6725 48.6331 14.065C49.0294 14.4576 49.2523 14.9897 49.2528 15.5447L49.2497 44.6898ZM12.8474 35.8065C13.0751 35.8064 13.2978 35.8732 13.4872 35.9983C13.6766 36.1235 13.8242 36.3014 13.9114 36.5096C13.9987 36.7179 14.0215 36.947 13.9771 37.1681C13.9327 37.3892 13.8231 37.5923 13.662 37.7516C13.501 37.911 13.2958 38.0196 13.0725 38.0635C12.8491 38.1075 12.6176 38.0848 12.4072 37.9985C12.1968 37.9122 12.017 37.7661 11.8906 37.5786C11.7642 37.3911 11.6967 37.1707 11.6969 36.9453C11.6974 36.6435 11.8187 36.3541 12.0344 36.1406C12.2501 35.9272 12.5424 35.807 12.8474 35.8065ZM39.1526 35.5993C39.3801 35.5994 39.6025 35.6663 39.7916 35.7915C39.9808 35.9167 40.1281 36.0946 40.2151 36.3027C40.3021 36.5108 40.3248 36.7398 40.2803 36.9607C40.2359 37.1815 40.1262 37.3844 39.9653 37.5436C39.8044 37.7028 39.5994 37.8112 39.3762 37.8551C39.153 37.899 38.9217 37.8764 38.7115 37.7902C38.5013 37.704 38.3217 37.558 38.1953 37.3707C38.0689 37.1835 38.0014 36.9633 38.0014 36.7381C38.0019 36.4361 38.1234 36.1467 38.3392 35.9332C38.555 35.7197 38.8475 35.5996 39.1526 35.5993Z" fill="#589CE7"/>
<path d="M47.1353 11.7214H39.2136V9.03243C39.2133 8.88011 39.1724 8.73055 39.0952 8.59881C39.0179 8.46707 38.907 8.35778 38.7735 8.28195L26.2376 1.11626C26.1048 1.0401 25.9539 1 25.8004 1C25.6468 1 25.496 1.0401 25.3631 1.11626L22.8621 2.54753L22.8313 2.52948L21.5242 3.30735L12.8241 8.2807C12.6906 8.35644 12.5796 8.4657 12.5023 8.59747C12.425 8.72923 12.3842 8.87884 12.384 9.03119V11.7214H4.86468C3.84 11.7227 2.85768 12.1262 2.13319 12.8434C1.40869 13.5606 1.00116 14.533 1 15.5472V44.6898C1.00116 45.704 1.40869 46.6763 2.13319 47.3935C2.85768 48.1108 3.84 48.5143 4.86468 48.5156H17.8217L14.3205 53.797H10.7689C9.98119 53.8595 9.24618 54.2134 8.71021 54.7881C8.17424 55.3629 7.87662 56.1163 7.87662 56.8985C7.87662 57.6807 8.17424 58.4341 8.71021 59.0089C9.24618 59.5836 9.98119 59.9375 10.7689 60H41.2305C42.0182 59.9375 42.7532 59.5836 43.2892 59.0089C43.8251 58.4341 44.1227 57.6807 44.1227 56.8985C44.1227 56.1163 43.8251 55.3629 43.2892 54.7881C42.7532 54.2134 42.0182 53.8595 41.2305 53.797H37.6795L34.177 48.5156H47.1353C48.16 48.5143 49.1423 48.1108 49.8668 47.3935C50.5913 46.6763 50.9988 45.704 51 44.6898V15.5472C50.9988 14.533 50.5913 13.5606 49.8668 12.8434C49.1423 12.1262 48.16 11.7227 47.1353 11.7214ZM26.6752 29.0267V16.6966L28.9593 15.3898V21.4851C28.9592 21.6357 28.9988 21.7837 29.0741 21.9145C29.1495 22.0453 29.258 22.1544 29.389 22.231C29.52 22.3076 29.6689 22.3491 29.821 22.3513C29.9731 22.3535 30.1232 22.3164 30.2564 22.2437L35.8079 19.2187C35.9449 19.1439 36.0592 19.034 36.1388 18.9006C36.2184 18.7672 36.2605 18.6151 36.2605 18.4602V11.2192L37.4645 10.5309V22.8616L26.6752 29.0267ZM32.0017 36.5135C32.2292 36.5135 32.4517 36.5803 32.6409 36.7054C32.8301 36.8305 32.9775 37.0084 33.0646 37.2165C33.1517 37.4245 33.1745 37.6535 33.1301 37.8744C33.0857 38.0953 32.9761 38.2982 32.8152 38.4575C32.6543 38.6168 32.4493 38.7252 32.2261 38.7692C32.0029 38.8131 31.7716 38.7906 31.5614 38.7044C31.3511 38.6182 31.1714 38.4722 31.045 38.2849C30.9186 38.0977 30.8511 37.8775 30.8511 37.6523C30.8513 37.3503 30.9726 37.0607 31.1883 36.8472C31.404 36.6337 31.6966 36.5136 32.0017 36.5135ZM19.9983 36.8296C20.2259 36.8296 20.4483 36.8964 20.6375 37.0215C20.8267 37.1466 20.9742 37.3245 21.0613 37.5326C21.1484 37.7407 21.1712 37.9696 21.1268 38.1906C21.0824 38.4115 20.9728 38.6144 20.8119 38.7736C20.651 38.9329 20.446 39.0414 20.2228 39.0853C19.9996 39.1292 19.7683 39.1067 19.558 39.0205C19.3478 38.9343 19.1681 38.7883 19.0417 38.6011C18.9153 38.4138 18.8478 38.1936 18.8478 37.9684C18.848 37.6664 18.9692 37.3768 19.185 37.1633C19.4007 36.9498 19.6932 36.8298 19.9983 36.8296ZM14.1363 22.861V10.5309L24.9255 16.6966V29.0267L14.1363 22.861ZM22.8621 4.54509L33.6193 10.6921L29.8351 12.872L19.1383 6.76107L22.4076 4.80521L22.8621 4.54509ZM30.709 14.391L34.5102 12.2192V17.9486L30.709 20.0209V14.391ZM28.1005 13.882L25.8007 15.1962L15.0114 9.03243L17.3112 7.71815L28.1005 13.882ZM26 40.157C26.2275 40.1571 26.4499 40.224 26.639 40.3492C26.8282 40.4744 26.9755 40.6523 27.0625 40.8604C27.1495 41.0685 27.1722 41.2975 27.1277 41.5183C27.0833 41.7392 26.9736 41.942 26.8127 42.1012C26.6518 42.2604 26.4468 42.3688 26.2236 42.4127C26.0004 42.4566 25.7691 42.434 25.5589 42.3478C25.3487 42.2616 25.1691 42.1157 25.0427 41.9284C24.9163 41.7411 24.8488 41.521 24.8488 41.2958C24.8492 40.9937 24.9706 40.7042 25.1864 40.4907C25.4022 40.2772 25.6949 40.1572 26 40.157ZM25.8007 2.86614L36.5894 9.03243L35.4011 9.71135L24.6118 3.54506L25.8007 2.86614ZM42.3785 56.9016C42.4022 57.2323 42.2961 57.5592 42.0822 57.8143C41.8683 58.0693 41.5632 58.2328 41.2305 58.2707H10.7689C10.4461 58.211 10.1545 58.0415 9.9447 57.7915C9.73488 57.5414 9.62002 57.2266 9.62002 56.9016C9.62002 56.5766 9.73488 56.2618 9.9447 56.0118C10.1545 55.7617 10.4461 55.5922 10.7689 55.5326H41.2305C41.5632 55.5704 41.8683 55.7339 42.0822 55.9889C42.2961 56.244 42.4022 56.571 42.3785 56.9016ZM35.5884 53.7995H16.4128L19.9141 48.5181H32.084L35.5884 53.7995ZM49.2497 44.6898C49.2492 45.2448 49.0263 45.7769 48.6299 46.1695C48.2335 46.562 47.696 46.7829 47.1353 46.7838H4.86468C4.30395 46.7829 3.76645 46.562 3.37008 46.1695C2.97371 45.7769 2.75083 45.2448 2.75033 44.6898V15.5472C2.75016 14.9918 2.97275 14.459 3.36919 14.0659C3.76564 13.6728 4.30352 13.4515 4.86468 13.4507H12.3866V23.3613C12.3874 23.5131 12.4284 23.6619 12.5057 23.793C12.5829 23.924 12.6936 24.0327 12.8267 24.1081L15.1491 25.4354V30.0578L12.4123 31.6216C12.2793 31.6971 12.1687 31.8057 12.0914 31.9368C12.0142 32.0678 11.9731 32.2167 11.9722 32.3684V34.2166C11.3122 34.4234 10.7488 34.8571 10.3837 35.4393C10.0186 36.0215 9.87608 36.7138 9.9818 37.391C10.0875 38.0682 10.4345 38.6856 10.9601 39.1316C11.4857 39.5776 12.1551 39.8228 12.8474 39.8228C13.5397 39.8228 14.2091 39.5776 14.7347 39.1316C15.2603 38.6856 15.6073 38.0682 15.713 37.391C15.8187 36.7138 15.6762 36.0215 15.3111 35.4393C14.946 34.8571 14.3826 34.4234 13.7226 34.2166V32.8743L16.4587 31.3105C16.5923 31.2347 16.7033 31.1255 16.7805 30.9937C16.8578 30.862 16.8986 30.7124 16.8988 30.56V26.4386L19.1257 27.7111V35.2459C18.4659 35.4527 17.9026 35.8863 17.5376 36.4684C17.1727 37.0505 17.0302 37.7426 17.1359 38.4196C17.2416 39.0966 17.5885 39.7139 18.114 40.1598C18.6394 40.6057 19.3087 40.8508 20.0009 40.8508C20.693 40.8508 21.3623 40.6057 21.8877 40.1598C22.4132 39.7139 22.7601 39.0966 22.8658 38.4196C22.9715 37.7426 22.829 37.0505 22.4641 36.4684C22.0992 35.8863 21.5358 35.4527 20.876 35.2459V28.7118L25.1267 31.1387V38.5726C24.4665 38.7794 23.9029 39.2132 23.5377 39.7956C23.1726 40.3779 23.0299 41.0703 23.1356 41.7477C23.2414 42.4251 23.5884 43.0426 24.1141 43.4887C24.6398 43.9349 25.3094 44.1801 26.0019 44.1801C26.6943 44.1801 27.3639 43.9349 27.8896 43.4887C28.4153 43.0426 28.7624 42.4251 28.8681 41.7477C28.9738 41.0703 28.8312 40.3779 28.466 39.7956C28.1009 39.2132 27.5372 38.7794 26.8771 38.5726V30.9608C26.8771 30.9458 26.8733 30.9309 26.872 30.916L31.129 28.4828V34.9297C30.4692 35.1365 29.9059 35.5702 29.5409 36.1523C29.176 36.7344 29.0335 37.4265 29.1392 38.1035C29.2449 38.7805 29.5919 39.3978 30.1173 39.8437C30.6428 40.2895 31.3121 40.5346 32.0042 40.5346C32.6963 40.5346 33.3656 40.2895 33.891 39.8437C34.4165 39.3978 34.7634 38.7805 34.8691 38.1035C34.9748 37.4265 34.8324 36.7344 34.4674 36.1523C34.1025 35.5702 33.5392 35.1365 32.8793 34.9297V27.4828L35.1037 26.2077V30.3509C35.104 30.5032 35.1448 30.6528 35.2221 30.7846C35.2993 30.9163 35.4103 31.0256 35.5438 31.1014L38.2799 32.6646V34.0131C37.6198 34.2199 37.0561 34.6537 36.691 35.236C36.3258 35.8184 36.1832 36.5108 36.2889 37.1882C36.3946 37.8655 36.7417 38.4831 37.2674 38.9292C37.7931 39.3753 38.4627 39.6205 39.1551 39.6205C39.8476 39.6205 40.5172 39.3753 41.0429 38.9292C41.5686 38.4831 41.9156 37.8655 42.0214 37.1882C42.1271 36.5108 41.9844 35.8184 41.6193 35.236C41.2541 34.6537 40.6905 34.2199 40.0303 34.0131V32.1649C40.0294 32.0132 39.9883 31.8643 39.9111 31.7333C39.8338 31.6022 39.7232 31.4936 39.5902 31.4181L36.8534 29.8537V25.212L38.7766 24.1131C38.9096 24.0376 39.0202 23.9289 39.0974 23.7979C39.1747 23.6668 39.2158 23.518 39.2167 23.3663V13.4507H47.1385C47.6992 13.4515 48.2367 13.6725 48.6331 14.065C49.0294 14.4576 49.2523 14.9897 49.2528 15.5447L49.2497 44.6898ZM12.8474 35.8065C13.0751 35.8064 13.2978 35.8732 13.4872 35.9983C13.6766 36.1235 13.8242 36.3014 13.9114 36.5096C13.9987 36.7179 14.0215 36.947 13.9771 37.1681C13.9327 37.3892 13.8231 37.5923 13.662 37.7516C13.501 37.911 13.2958 38.0196 13.0725 38.0635C12.8491 38.1075 12.6176 38.0848 12.4072 37.9985C12.1968 37.9122 12.017 37.7661 11.8906 37.5786C11.7642 37.3911 11.6967 37.1707 11.6969 36.9453C11.6974 36.6435 11.8187 36.3541 12.0344 36.1406C12.2501 35.9272 12.5424 35.807 12.8474 35.8065ZM39.1526 35.5993C39.3801 35.5994 39.6025 35.6663 39.7916 35.7915C39.9808 35.9167 40.1281 36.0946 40.2151 36.3027C40.3021 36.5108 40.3248 36.7398 40.2803 36.9607C40.2359 37.1815 40.1262 37.3844 39.9653 37.5436C39.8044 37.7028 39.5994 37.8112 39.3762 37.8551C39.153 37.899 38.9217 37.8764 38.7115 37.7902C38.5013 37.704 38.3217 37.558 38.1953 37.3707C38.0689 37.1835 38.0014 36.9633 38.0014 36.7381C38.0019 36.4361 38.1234 36.1467 38.3392 35.9332C38.555 35.7197 38.8475 35.5996 39.1526 35.5993Z" stroke="#589CE7" stroke-width="0.4" mask="url(#path-1-outside-1_467_1709)"/>
</svg>
