<svg width="61" height="61" viewBox="0 0 61 61" fill="none" xmlns="http://www.w3.org/2000/svg">
<path fill-rule="evenodd" clip-rule="evenodd" d="M48.8699 38.4554L48.4538 36.442H45.1807L44.7646 38.4554C44.7091 38.7309 44.4872 38.9342 44.2167 38.9932C43.8769 39.085 43.551 39.1965 43.2251 39.3211C42.8853 39.4523 42.5524 39.6032 42.2473 39.7671C41.9977 39.8983 41.6995 39.8786 41.4776 39.7278L39.6815 38.5866L37.3653 40.7771L38.5789 42.4889C38.7384 42.7184 38.7384 43.0004 38.5997 43.2234C38.4263 43.512 38.2737 43.8203 38.1351 44.1351C37.9964 44.4499 37.8785 44.7712 37.7814 45.0992C37.7051 45.3615 37.4832 45.5386 37.2197 45.591L35.0907 45.9911V49.0867L37.2197 49.4802C37.5109 49.5327 37.7259 49.7425 37.7883 49.9983C37.8854 50.3197 38.0033 50.6279 38.1351 50.9362C38.2737 51.2576 38.4332 51.5724 38.6066 51.8609C38.7453 52.097 38.7245 52.3791 38.5719 52.5889L37.3653 54.2876L39.6815 56.4781L41.4914 55.3304C41.7341 55.1795 42.0323 55.1795 42.2681 55.3107C42.5732 55.4747 42.8992 55.6189 43.232 55.7501C43.5649 55.8813 43.9047 55.9928 44.2514 56.0846C44.5288 56.1567 44.716 56.3666 44.7715 56.6158L45.1876 58.6293H48.4607L48.8768 56.6158C48.9323 56.3404 49.1542 56.1371 49.4247 56.078C49.7645 55.9862 50.0904 55.8747 50.4163 55.7501C50.7561 55.6189 51.089 55.4681 51.3941 55.3041C51.6438 55.173 51.9419 55.1926 52.1639 55.3435L53.9599 56.4847L56.2761 54.2941L55.0625 52.5824C54.903 52.3528 54.903 52.0708 55.0417 51.8544C55.2151 51.5658 55.3677 51.2576 55.5064 50.9428C55.645 50.6279 55.7629 50.3066 55.86 49.9787C55.9363 49.7163 56.1582 49.5327 56.4217 49.4868L58.5507 49.0867V45.9911L56.4217 45.5976C56.1305 45.5451 55.9155 45.3353 55.8531 45.0795C55.756 44.7581 55.6381 44.4499 55.5064 44.1416C55.3677 43.8203 55.2082 43.5054 55.0348 43.2169C54.8961 42.9808 54.9169 42.6988 55.0764 42.4889L56.283 40.7902L53.9669 38.5997L52.1569 39.7474C51.9142 39.8983 51.616 39.8983 51.3802 39.7671C51.0751 39.6032 50.7492 39.4589 50.4163 39.3277C50.0835 39.1965 49.7437 39.085 49.3969 38.9932C49.1195 38.9211 48.9323 38.7112 48.8768 38.462L48.8699 38.4554ZM5.70169 12.4773C5.29948 12.4773 4.97355 12.1691 4.97355 11.7887C4.97355 11.4083 5.29948 11.1 5.70169 11.1H12.8305C13.2327 11.1 13.5587 11.4083 13.5587 11.7887C13.5587 12.1691 13.2327 12.4773 12.8305 12.4773H5.70169ZM42.8367 12.4773C42.4345 12.4773 42.1086 12.1691 42.1086 11.7887C42.1086 11.4083 42.4345 11.1 42.8367 11.1C43.239 11.1 43.5649 11.4083 43.5649 11.7887C43.5649 12.1691 43.239 12.4773 42.8367 12.4773ZM39.4596 12.4773C39.0574 12.4773 38.7314 12.1691 38.7314 11.7887C38.7314 11.4083 39.0574 11.1 39.4596 11.1C39.8618 11.1 40.1877 11.4083 40.1877 11.7887C40.1877 12.1691 39.8618 12.4773 39.4596 12.4773ZM36.0824 12.4773C35.6802 12.4773 35.3543 12.1691 35.3543 11.7887C35.3543 11.4083 35.6802 11.1 36.0824 11.1C36.4846 11.1 36.8105 11.4083 36.8105 11.7887C36.8105 12.1691 36.4846 12.4773 36.0824 12.4773ZM24.2658 4.22677C23.8635 4.22677 23.5376 3.91852 23.5376 3.53813C23.5376 3.15774 23.8635 2.84949 24.2658 2.84949C24.668 2.84949 24.9939 3.15774 24.9939 3.53813C24.9939 3.91852 24.668 4.22677 24.2658 4.22677ZM31.6442 2.3904L30.5416 5.59093C30.4445 5.88606 30.1533 6.0697 29.8481 6.0697H18.6764C18.3366 6.0697 18.0454 5.84671 17.9691 5.55158L16.8873 2.3904H6.91526C6.7835 2.3904 6.65867 2.44286 6.56852 2.52812C6.47837 2.61338 6.4229 2.72488 6.4229 2.85605V8.10938H42.0947V2.84293C42.0947 2.71832 42.0393 2.60027 41.9491 2.51501C41.859 2.42975 41.7411 2.37728 41.6024 2.37728H31.6303L31.6442 2.3904ZM18.4198 2.3904L19.2104 4.68586H29.3211L30.1117 2.3904H18.4198ZM49.7021 44.9549C49.9864 44.686 50.451 44.686 50.7353 44.9549C51.0196 45.2238 51.0196 45.6632 50.7353 45.9321L46.2902 50.1361C46.0059 50.405 45.5413 50.405 45.2569 50.1361L43.2182 48.2079C42.9338 47.939 42.9338 47.4996 43.2182 47.2307C43.5025 46.9618 43.9671 46.9618 44.2514 47.2307L45.777 48.6735L49.709 44.9549H49.7021ZM46.8034 40.3836C48.8976 40.3836 50.7908 41.1837 52.1639 42.4823C53.5369 43.7809 54.3829 45.5714 54.3829 47.552C54.3829 49.5327 53.5369 51.3231 52.1639 52.6217C50.7908 53.9203 48.8976 54.7204 46.8034 54.7204C44.7091 54.7204 42.8159 53.9203 41.4429 52.6217C40.0698 51.3231 39.2238 49.5327 39.2238 47.552C39.2238 45.5714 40.0698 43.7809 41.4429 42.4823C42.8159 41.1837 44.7091 40.3836 46.8034 40.3836ZM51.1237 43.4595C52.2332 44.5089 52.9128 45.9518 52.9128 47.5455C52.9128 49.1392 52.2263 50.5886 51.1237 51.6314C50.0141 52.6807 48.4885 53.3235 46.8034 53.3235C45.1182 53.3235 43.5857 52.6742 42.4831 51.6314C41.3805 50.5886 40.6939 49.1392 40.6939 47.5455C40.6939 45.9518 41.3805 44.5023 42.4831 43.4595C43.5857 42.4167 45.1182 41.7675 46.8034 41.7675C48.4885 41.7675 50.021 42.4167 51.1237 43.4595ZM4.97355 8.09626V2.84293C4.97355 2.33137 5.19546 1.87228 5.5422 1.53779C5.89586 1.20331 6.38129 1 6.92219 1H41.6232C42.1641 1 42.6495 1.20987 43.0032 1.53779C43.3568 1.86572 43.5718 2.33137 43.5718 2.84293V8.09626H45.5967C46.1307 8.09626 46.6231 8.30614 46.9767 8.63406C47.3304 8.96854 47.5454 9.42763 47.5454 9.93919V35.0516H48.7243C48.9947 35.0516 49.2444 35.1434 49.4385 35.2942C49.6396 35.4451 49.7783 35.6615 49.8269 35.9107L50.2152 37.7733C50.4718 37.852 50.7214 37.9439 50.9642 38.0357C51.2138 38.1341 51.4565 38.239 51.6923 38.357L53.3635 37.2946C53.5855 37.1503 53.849 37.0978 54.0986 37.1175C54.3552 37.1437 54.5979 37.2421 54.7921 37.4257L57.4897 39.977C57.6769 40.1541 57.7878 40.3902 57.8156 40.6328C57.8433 40.8689 57.7809 41.1182 57.6284 41.328L56.5049 42.9086C56.6298 43.1382 56.7407 43.3677 56.8447 43.5973C56.9488 43.8268 57.0389 44.0629 57.1221 44.3056L59.0916 44.6729C59.3551 44.7253 59.5839 44.8565 59.7434 45.0467C59.9099 45.2369 60 45.473 60 45.7222V49.3294C60 49.5852 59.9029 49.8213 59.7434 50.0049C59.5839 50.1951 59.3551 50.3263 59.0916 50.3787L57.1221 50.746C57.0389 50.9887 56.9418 51.2248 56.8447 51.4543C56.7407 51.6904 56.6298 51.92 56.5049 52.143L57.6284 53.7235C57.7809 53.9334 57.8364 54.1826 57.8156 54.4187C57.7878 54.6614 57.6838 54.8909 57.4897 55.0746L54.7921 57.6258C54.6048 57.8029 54.3552 57.9078 54.0986 57.9341C53.849 57.9603 53.5855 57.9013 53.3635 57.757L51.6923 56.6945C51.4496 56.8126 51.2069 56.9175 50.9642 57.0159C50.7214 57.1143 50.4718 57.1995 50.2152 57.2782L49.8269 59.1408C49.7783 59.3901 49.6327 59.6065 49.4385 59.7573C49.2374 59.9147 48.9878 60 48.7243 60H44.9102C44.6398 60 44.3901 59.9082 44.1959 59.7573C43.9948 59.6065 43.8561 59.3901 43.8007 59.1408L43.4123 57.2782C43.1557 57.1995 42.9061 57.1077 42.6634 57.0159C42.4207 56.9175 42.171 56.8126 41.9352 56.6945L40.264 57.757C40.0421 57.9013 39.7786 57.9538 39.5289 57.9341C39.307 57.9144 39.0851 57.8291 38.9048 57.6849C38.8771 57.6652 38.8563 57.6455 38.8354 57.6258L36.8452 55.7436H6.92219C6.38822 55.7436 5.89586 55.5337 5.5422 55.2058C5.18853 54.8713 4.97355 54.4122 4.97355 53.9006V41.3215H2.94864C2.41467 41.3215 1.92231 41.1116 1.56864 40.7837C1.21497 40.4492 1 39.9901 1 39.4785V9.93919C1 9.42763 1.22191 8.96854 1.56864 8.63406C1.91537 8.29958 2.40773 8.09626 2.94864 8.09626H4.97355ZM46.0822 35.0516H44.9033C44.6328 35.0516 44.3832 35.1434 44.189 35.2942C43.9879 35.4451 43.8492 35.6615 43.7937 35.9107L43.4054 37.7733C43.1488 37.852 42.8992 37.9439 42.6564 38.0357C42.4068 38.1341 42.1641 38.239 41.9283 38.357L40.2571 37.2946C40.0351 37.1503 39.7716 37.0978 39.522 37.1175C39.2654 37.1437 39.0227 37.2421 38.8285 37.4257L36.1656 39.9442H2.94864C2.81688 39.9442 2.69205 39.8917 2.6019 39.8065C2.51175 39.7212 2.45628 39.6097 2.45628 39.4785V15.468H46.0752V35.0516H46.0822ZM35.9922 41.3346L37.1157 42.9152C36.9908 43.1447 36.8799 43.3743 36.7759 43.6038C36.6718 43.8334 36.5817 44.0695 36.4985 44.3121L34.529 44.6794C34.2655 44.7319 34.0367 44.863 33.8772 45.0532C33.7107 45.2434 33.6206 45.4795 33.6206 45.7288V46.1747H6.43677V41.328H35.9922V41.3346ZM33.6137 47.5651V49.3425C33.6137 49.5983 33.7107 49.8344 33.8702 50.018C34.0297 50.2082 34.2586 50.3394 34.5221 50.3918L36.4915 50.7591C36.5748 51.0018 36.6718 51.2379 36.7689 51.4674C36.8729 51.7035 36.9839 51.9331 37.1087 52.1626L35.9853 53.7432C35.8466 53.94 35.7842 54.1564 35.7911 54.3794H6.92219C6.79043 54.3794 6.66561 54.3269 6.57546 54.2417C6.48531 54.1564 6.42983 54.0449 6.42983 53.9137V47.5586H33.6067L33.6137 47.5651ZM24.2727 16.478C27.5528 16.478 30.5208 17.7372 32.6705 19.7703C34.8203 21.8035 36.1517 24.6105 36.1517 27.7126C36.1517 30.8148 34.8203 33.6218 32.6705 35.655C30.5208 37.6881 27.5528 38.9473 24.2727 38.9473C20.9926 38.9473 18.0246 37.6881 15.8748 35.655C13.7251 33.6218 12.3936 30.8148 12.3936 27.7126C12.3936 24.6105 13.7251 21.8035 15.8748 19.7703C18.0246 17.7372 20.9926 16.478 24.2727 16.478ZM31.6373 20.7476C29.7511 18.9637 27.1506 17.8618 24.2727 17.8618C21.3948 17.8618 18.7943 18.9637 16.9081 20.7476C15.0219 22.5315 13.8568 24.9909 13.8568 27.7126C13.8568 30.4344 15.0219 32.8938 16.9081 34.6777C18.7943 36.4616 21.3948 37.5635 24.2727 37.5635C27.1506 37.5635 29.7511 36.4616 31.6373 34.6777C33.5235 32.8938 34.6885 30.4344 34.6885 27.7126C34.6885 24.9909 33.5235 22.5315 31.6373 20.7476ZM24.7096 23.489L22.4142 31.5887C22.3102 31.956 22.539 32.3364 22.9343 32.4347C23.3226 32.5331 23.7248 32.3167 23.8289 31.9429L26.1242 23.8432C26.2283 23.4759 25.9994 23.0955 25.6041 22.9971C25.2158 22.8987 24.8136 23.1152 24.7096 23.489ZM20.1604 23.5283L15.2091 27.1749C14.8901 27.411 14.8346 27.8438 15.0843 28.139C15.1259 28.1849 15.1744 28.2308 15.223 28.2636L20.1604 31.9035C20.4794 32.1396 20.9371 32.0871 21.1868 31.7855C21.4364 31.4838 21.3809 31.0509 21.0619 30.8214L16.8457 27.7192L21.0619 24.6171C21.3809 24.3809 21.4364 23.9481 21.1868 23.653C20.9371 23.3513 20.4794 23.2988 20.1604 23.5349V23.5283ZM27.4765 24.6171L31.6928 27.7192L27.4765 30.8214C27.1575 31.0575 27.102 31.4903 27.3517 31.7855C27.6013 32.0871 28.059 32.1396 28.3711 31.9035L33.3085 28.2636C33.3571 28.2308 33.4056 28.1849 33.4472 28.139C33.6969 27.8373 33.6414 27.4044 33.3224 27.1749L28.3711 23.5283C28.0521 23.2922 27.5944 23.3447 27.3517 23.6464C27.102 23.9481 27.1575 24.3809 27.4765 24.6105V24.6171ZM16.6515 51.6707H19.786C20.1882 51.6707 20.5141 51.3625 20.5141 50.9821C20.5141 50.6017 20.1882 50.2935 19.786 50.2935H16.6515C16.2493 50.2935 15.9234 50.6017 15.9234 50.9821C15.9234 51.3625 16.2493 51.6707 16.6515 51.6707ZM28.7455 51.6707H31.88C32.2822 51.6707 32.6081 51.3625 32.6081 50.9821C32.6081 50.6017 32.2822 50.2935 31.88 50.2935H28.7455C28.3433 50.2935 28.0174 50.6017 28.0174 50.9821C28.0174 51.3625 28.3433 51.6707 28.7455 51.6707ZM24.2658 48.9621C23.6763 48.9621 23.1423 49.1851 22.7609 49.5524C22.3726 49.9196 22.1368 50.4246 22.1368 50.9755C22.1368 51.5265 22.3726 52.038 22.7609 52.3987C23.1493 52.766 23.6832 52.989 24.2658 52.989C24.8483 52.989 25.3892 52.766 25.7706 52.3987C26.1589 52.0315 26.3947 51.5265 26.3947 50.9755C26.3947 50.4246 26.1589 49.9131 25.7706 49.5524C25.3822 49.1851 24.8483 48.9621 24.2658 48.9621ZM24.7373 50.5296C24.6194 50.4181 24.4461 50.3459 24.2658 50.3459C24.0855 50.3459 23.9121 50.4181 23.7942 50.5296C23.6763 50.6411 23.6 50.805 23.6 50.9755C23.6 51.1461 23.6763 51.31 23.7942 51.4215C23.9121 51.533 24.0855 51.6052 24.2658 51.6052C24.4461 51.6052 24.6194 51.533 24.7373 51.4215C24.8552 51.31 24.9315 51.1461 24.9315 50.9755C24.9315 50.805 24.8552 50.6411 24.7373 50.5296ZM46.0752 14.0907V9.94575C46.0752 9.82114 46.0197 9.70309 45.9296 9.61783C45.8394 9.53257 45.7216 9.4801 45.5829 9.4801H2.94864C2.81688 9.4801 2.69205 9.53257 2.6019 9.61783C2.51175 9.70309 2.45628 9.81458 2.45628 9.94575V14.0907H46.0752Z" fill="#589CE7" stroke="#589CE7" stroke-width="0.4"/>
</svg>
