<svg width="61" height="61" viewBox="0 0 61 61" fill="none" xmlns="http://www.w3.org/2000/svg">
<mask id="path-1-outside-1_467_1675" maskUnits="userSpaceOnUse" x="0" y="0" width="61" height="61" fill="black">
<rect fill="white" width="61" height="61"/>
<path fill-rule="evenodd" clip-rule="evenodd" d="M41.9557 46.966C37.2399 46.966 33.4049 43.1107 33.4049 38.3754C33.4049 33.6401 37.2423 29.7849 41.9557 29.7849C46.6715 29.7849 50.5065 33.6401 50.5065 38.3754C50.5065 43.1107 46.6715 46.966 41.9557 46.966ZM45.5051 24.0882C44.3576 23.8586 43.1721 23.7366 41.9581 23.7366C40.1513 23.7366 38.404 24.0069 36.7567 24.5043V13.5103C38.6849 13.0535 40.1251 11.3101 40.1251 9.23656C40.1251 6.8163 38.1659 4.84564 35.7545 4.84564C33.3454 4.84564 31.3838 6.8139 31.3838 9.23656C31.3838 11.3101 32.8241 13.0535 34.7523 13.5103V25.2457C28.3773 28.0463 23.909 34.4437 23.909 41.8695C23.909 46.545 25.6801 50.8116 28.582 54.0306C28.6058 54.0665 28.6344 54.1 28.6629 54.1335C29.8151 55.3938 31.1315 56.4724 32.5646 57.3478C32.5884 57.3621 32.6122 57.3764 32.6336 57.3908C32.7098 57.4362 32.786 57.4817 32.8645 57.5271C35.1974 58.8999 37.8636 59.7608 40.7083 59.957C40.7797 59.9617 40.8535 59.9665 40.9249 59.9713C40.9845 59.9737 41.0463 59.9785 41.1059 59.9809C41.2296 59.9856 41.3511 59.9904 41.4748 59.9952H41.5129C41.6605 60 41.8081 60 41.9533 60C42.1009 60 42.2485 59.9976 42.3937 59.9952H42.4318C42.5556 59.9928 42.677 59.988 42.8008 59.9809C42.8603 59.9785 42.9222 59.9737 42.9817 59.9713C43.0555 59.9665 43.1269 59.9617 43.2007 59.957C46.0454 59.7608 48.7116 58.8999 51.0469 57.5247C51.1231 57.4793 51.1992 57.4338 51.2754 57.3884C51.2992 57.3741 51.3206 57.3597 51.3445 57.3454C52.7775 56.47 54.0939 55.3914 55.2461 54.1287C55.2747 54.0952 55.3032 54.0617 55.3271 54.0259C58.2289 50.8068 60 46.5403 60 41.8647C60 37.9378 58.7502 34.3002 56.6316 31.3299V9.65987C58.5598 9.20308 60 7.46202 60 5.38614C60.0048 2.96826 58.0456 1 55.6365 1C53.2274 1 51.2659 2.96826 51.2659 5.39092C51.2659 7.46441 52.7061 9.20786 54.6343 9.66465V28.9766C52.6514 27.0083 50.2208 25.4992 47.5094 24.6144V17.8773C48.8616 17.4492 49.8423 16.1769 49.8423 14.6798C49.8423 12.8311 48.345 11.3292 46.5072 11.3292C44.6671 11.3292 43.1721 12.8335 43.1721 14.6798C43.1721 16.1769 44.1553 17.4492 45.5051 17.8773V24.0882ZM55.6294 7.76575C54.3272 7.76336 53.2703 6.69672 53.2703 5.38853C53.2703 4.07795 54.332 3.01131 55.6365 3.01131C56.941 3.01131 58.0027 4.07795 58.0027 5.38853C58.0027 6.69672 56.9458 7.76096 55.6437 7.76575H55.6365H55.6294ZM46.5049 13.3405C47.2381 13.3405 47.8356 13.9408 47.8356 14.6774C47.8356 15.414 47.2381 16.0143 46.5049 16.0143C45.7693 16.0143 45.1718 15.414 45.1718 14.6774C45.1742 13.9408 45.7717 13.3405 46.5049 13.3405ZM35.7521 6.85934C37.0566 6.85934 38.1183 7.92598 38.1183 9.23656C38.1183 10.5471 37.0566 11.6138 35.7521 11.6138C34.4476 11.6138 33.3859 10.5471 33.3859 9.23656C33.3859 7.92598 34.4476 6.85934 35.7521 6.85934ZM13.4062 56.5466H10.0854C9.60453 56.5466 9.1927 56.2046 9.10224 55.7311L8.59281 53.0716C7.85485 52.7751 7.16926 52.3757 6.54081 51.8806L3.99128 52.7679C3.5366 52.9257 3.03669 52.7392 2.79626 52.3207L1.13466 49.4293C0.89423 49.0107 0.982309 48.4798 1.34653 48.1641L3.38663 46.3896C3.33188 45.995 3.30331 45.598 3.30331 45.1986C3.30331 44.8016 3.33188 44.4022 3.38663 44.0076L1.34653 42.233C0.982309 41.9174 0.89423 41.3864 1.13466 40.9679L2.79626 38.0789C3.03669 37.6604 3.53898 37.4738 3.99128 37.6317L6.54081 38.5189C7.16688 38.0239 7.85485 37.6245 8.59281 37.3279L9.10224 34.6685C9.1927 34.195 9.60691 33.853 10.0854 33.853H13.4062C13.8871 33.853 14.2989 34.195 14.3894 34.6685L14.8988 37.3279C15.6367 37.6269 16.3247 38.0239 16.9508 38.5189L19.5003 37.6317C19.955 37.4738 20.4549 37.6604 20.6953 38.0789L22.3569 40.9679C22.5974 41.3864 22.5093 41.9174 22.1451 42.233L20.105 44.0076C20.1597 44.4022 20.1883 44.7992 20.1883 45.1986C20.1883 45.598 20.1597 45.995 20.105 46.3896L22.1451 48.1641C22.5093 48.4798 22.5974 49.0107 22.3569 49.4293L20.6953 52.3183C20.4549 52.7368 19.9526 52.9233 19.5003 52.7655L16.9508 51.8782C16.3247 52.3733 15.6367 52.7727 14.8988 53.0692L14.3894 55.7287C14.3013 56.2046 13.8871 56.5466 13.4062 56.5466ZM10.9138 54.5329H12.5802L13.0396 52.127C13.1086 51.7658 13.3681 51.4717 13.7181 51.3593C14.5941 51.0771 15.3844 50.6179 16.07 49.9937C16.3414 49.7473 16.7246 49.6684 17.0698 49.788L19.3765 50.5916L20.2097 49.1423L18.3672 47.5399C18.0911 47.2984 17.9673 46.9277 18.0434 46.5666C18.1387 46.1193 18.1863 45.6602 18.1863 45.201C18.1863 44.7418 18.1387 44.2826 18.0411 43.8354C17.9649 43.4767 18.0887 43.1036 18.3648 42.862L20.2097 41.2573L19.3765 39.808L17.0722 40.6116C16.727 40.7311 16.3414 40.6522 16.07 40.4059C15.3844 39.7817 14.5941 39.3225 13.7181 39.0403C13.3705 38.9279 13.1086 38.6337 13.0396 38.2726L12.5802 35.8691H10.9138L10.4544 38.275C10.3853 38.6361 10.1259 38.9303 9.77593 39.0427C8.8999 39.3249 8.10957 39.7841 7.42398 40.4083C7.1526 40.6546 6.76934 40.7335 6.42178 40.6139L4.11506 39.8104L3.28189 41.2597L5.1244 42.862C5.40054 43.1036 5.52433 43.4743 5.44815 43.8354C5.35293 44.2826 5.30294 44.7418 5.30294 45.201C5.30294 45.6602 5.35055 46.1193 5.44815 46.5666C5.52433 46.9253 5.40054 47.2984 5.1244 47.5399L3.28189 49.1423L4.11506 50.5916L6.42178 49.788C6.76696 49.6684 7.1526 49.7473 7.4216 49.9937C8.10719 50.6179 8.89752 51.0771 9.77355 51.3593C10.1211 51.4717 10.383 51.7658 10.452 52.127L10.9138 54.5329ZM11.747 50.1443C14.4608 50.1443 16.6675 47.9274 16.6675 45.201C16.6675 42.4746 14.4608 40.2576 11.747 40.2576C9.03321 40.2576 6.82647 42.4746 6.82647 45.201C6.82647 47.925 9.03321 50.1443 11.747 50.1443ZM11.747 42.2713C10.1401 42.2713 8.83086 43.5843 8.83086 45.201C8.83086 46.8153 10.1378 48.1306 11.747 48.1306C13.3538 48.1306 14.6631 46.8177 14.6631 45.201C14.6631 43.5843 13.3538 42.2713 11.747 42.2713ZM17.3745 30.8874H12.8992C12.4183 30.8874 12.0065 30.5454 11.916 30.0719L11.1923 26.2956C10.1021 25.8771 9.09748 25.2936 8.18812 24.5498L4.56974 25.8101C4.11506 25.968 3.61516 25.7814 3.37473 25.3629L1.13704 21.4694C0.896611 21.0509 0.98469 20.52 1.34891 20.2043L4.24361 17.686C4.15315 17.1096 4.10792 16.5261 4.10792 15.9425C4.10792 15.359 4.15315 14.7754 4.24361 14.1991L1.34653 11.6831C0.982309 11.3675 0.89423 10.8365 1.13466 10.418L3.37234 6.52452C3.61278 6.106 4.11506 5.91946 4.56736 6.0773L8.18574 7.33766C9.09272 6.59627 10.0997 6.01034 11.19 5.59181L11.9136 1.81552C12.0065 1.34199 12.4183 1 12.8992 1H17.3745C17.8554 1 18.2672 1.34199 18.3577 1.81552L19.0814 5.59181C20.1716 6.01034 21.1786 6.59388 22.0856 7.33766L25.7039 6.0773C26.1586 5.91946 26.6585 6.106 26.899 6.52452L29.1366 10.418C29.3771 10.8365 29.289 11.3675 28.9248 11.6831L26.0325 14.2015C26.1229 14.7778 26.1681 15.3614 26.1681 15.9449C26.1681 16.5285 26.1229 17.112 26.0325 17.6884L28.9272 20.2043C29.2914 20.52 29.3795 21.0509 29.139 21.4694L26.9013 25.3629C26.6609 25.7814 26.1586 25.968 25.7063 25.8101L22.0879 24.5498C21.181 25.2912 20.174 25.8771 19.0837 26.2956L18.3601 30.0719C18.2672 30.5454 17.8554 30.8874 17.3745 30.8874ZM13.7276 28.8737L13.0515 25.3486C12.9825 24.9874 12.723 24.6933 12.3731 24.5809C11.1471 24.1839 10.0378 23.5405 9.07606 22.6652C8.80468 22.4189 8.42141 22.34 8.07624 22.4595L4.69591 23.6362L3.28427 21.1824L5.98615 18.8315C6.26229 18.59 6.38607 18.2193 6.3099 17.8582C6.17659 17.2316 6.10755 16.5882 6.10755 15.9425C6.10755 15.2992 6.17659 14.6535 6.3099 14.0269C6.38607 13.6681 6.26229 13.2951 5.98615 13.0535L3.28427 10.705L4.69591 8.25124L8.07624 9.42789C8.42141 9.54747 8.80468 9.46854 9.07606 9.22221C10.0378 8.3469 11.1471 7.70357 12.3731 7.30657C12.7206 7.19416 12.9825 6.9 13.0515 6.53887L13.7276 3.01131H16.5485L17.2246 6.53648C17.2936 6.89761 17.5531 7.19177 17.903 7.30418C19.1313 7.70118 20.2407 8.34451 21.2 9.21982C21.4714 9.46615 21.8546 9.54507 22.2022 9.4255L25.5825 8.24885L26.9942 10.7026L24.2923 13.0535C24.0162 13.2951 23.8924 13.6657 23.9685 14.0269C24.1019 14.6535 24.1709 15.2992 24.1709 15.9425C24.1709 16.5859 24.1019 17.2316 23.9685 17.8582C23.8924 18.2169 24.0162 18.59 24.2923 18.8315L26.9942 21.1824L25.5825 23.6362L22.2022 22.4595C21.857 22.34 21.4714 22.4189 21.2024 22.6652C20.2407 23.5405 19.1313 24.1839 17.9054 24.5809C17.5578 24.6933 17.296 24.9874 17.2269 25.3486L16.5509 28.8761H13.7276V28.8737ZM15.1368 22.5887C18.7838 22.5887 21.7523 19.6064 21.7523 15.9425C21.7523 12.281 18.7838 9.29874 15.1368 9.29874C11.4899 9.29874 8.5214 12.281 8.5214 15.9449C8.5214 19.6088 11.4899 22.5887 15.1368 22.5887ZM15.1368 11.3124C12.5945 11.3124 10.5258 13.3907 10.5258 15.9449C10.5258 18.4991 12.5945 20.5774 15.1368 20.5774C17.6792 20.5774 19.7479 18.4991 19.7479 15.9449C19.7479 13.3907 17.6792 11.3124 15.1368 11.3124ZM41.9557 25.7503C33.1097 25.7503 25.911 32.9824 25.911 41.8695C25.911 45.6841 27.2394 49.1949 29.4532 51.9572C31.3743 50.1037 33.6858 48.6927 36.202 47.8413C36.4996 47.7408 36.8281 47.7863 37.0876 47.9656C38.5254 48.9533 40.2084 49.4771 41.9581 49.4771C43.7054 49.4771 45.3908 48.9557 46.8262 47.9656C47.0857 47.7863 47.4142 47.7408 47.7118 47.8413C50.228 48.6903 52.5418 50.1037 54.4605 51.9572C56.6744 49.1925 58.0027 45.6841 58.0027 41.8695C58.0004 32.9801 50.8041 25.7503 41.9557 25.7503ZM30.803 53.4447C32.4027 51.8902 34.3119 50.6824 36.3901 49.91C38.0636 50.9455 39.9775 51.4884 41.9557 51.4884C43.9363 51.4884 45.8502 50.9431 47.5213 49.91C49.5995 50.6824 51.5087 51.8926 53.1084 53.4447C52.2609 54.2698 51.323 55.0016 50.3137 55.6234C50.2827 55.6426 50.2518 55.6617 50.2209 55.6808C50.1613 55.7167 50.1018 55.7526 50.0399 55.7884C47.9189 57.0297 45.5265 57.7782 43.0555 57.9504C42.996 57.9552 42.9341 57.9576 42.8746 57.9624C42.827 57.9648 42.7794 57.9672 42.7318 57.9696C42.627 57.9743 42.5223 57.9791 42.4151 57.9815C42.3937 57.9815 42.3723 57.9839 42.3509 57.9839C42.2247 57.9863 42.0985 57.9887 41.97 57.9887H41.9557H41.9414C41.8153 57.9887 41.6891 57.9863 41.5605 57.9839C41.5391 57.9839 41.5177 57.9815 41.4963 57.9815C41.3915 57.9791 41.2844 57.9743 41.1797 57.9696C41.132 57.9672 41.0844 57.9648 41.0368 57.9624C40.9773 57.96 40.9178 57.9552 40.8583 57.9504C38.3849 57.7782 35.9925 57.0297 33.8715 55.7884C33.812 55.7526 33.7525 55.7191 33.6929 55.6832C33.662 55.6641 33.6287 55.645 33.5977 55.6258C32.5884 55.0016 31.6505 54.2698 30.803 53.4447ZM41.9557 31.7986C38.3445 31.7986 35.4069 34.7498 35.4069 38.3778C35.4069 42.0058 38.3445 44.9546 41.9557 44.9546C45.5669 44.9546 48.5021 42.0034 48.5021 38.3778C48.5021 34.7522 45.5669 31.7986 41.9557 31.7986Z"/>
</mask>
<path fill-rule="evenodd" clip-rule="evenodd" d="M41.9557 46.966C37.2399 46.966 33.4049 43.1107 33.4049 38.3754C33.4049 33.6401 37.2423 29.7849 41.9557 29.7849C46.6715 29.7849 50.5065 33.6401 50.5065 38.3754C50.5065 43.1107 46.6715 46.966 41.9557 46.966ZM45.5051 24.0882C44.3576 23.8586 43.1721 23.7366 41.9581 23.7366C40.1513 23.7366 38.404 24.0069 36.7567 24.5043V13.5103C38.6849 13.0535 40.1251 11.3101 40.1251 9.23656C40.1251 6.8163 38.1659 4.84564 35.7545 4.84564C33.3454 4.84564 31.3838 6.8139 31.3838 9.23656C31.3838 11.3101 32.8241 13.0535 34.7523 13.5103V25.2457C28.3773 28.0463 23.909 34.4437 23.909 41.8695C23.909 46.545 25.6801 50.8116 28.582 54.0306C28.6058 54.0665 28.6344 54.1 28.6629 54.1335C29.8151 55.3938 31.1315 56.4724 32.5646 57.3478C32.5884 57.3621 32.6122 57.3764 32.6336 57.3908C32.7098 57.4362 32.786 57.4817 32.8645 57.5271C35.1974 58.8999 37.8636 59.7608 40.7083 59.957C40.7797 59.9617 40.8535 59.9665 40.9249 59.9713C40.9845 59.9737 41.0463 59.9785 41.1059 59.9809C41.2296 59.9856 41.3511 59.9904 41.4748 59.9952H41.5129C41.6605 60 41.8081 60 41.9533 60C42.1009 60 42.2485 59.9976 42.3937 59.9952H42.4318C42.5556 59.9928 42.677 59.988 42.8008 59.9809C42.8603 59.9785 42.9222 59.9737 42.9817 59.9713C43.0555 59.9665 43.1269 59.9617 43.2007 59.957C46.0454 59.7608 48.7116 58.8999 51.0469 57.5247C51.1231 57.4793 51.1992 57.4338 51.2754 57.3884C51.2992 57.3741 51.3206 57.3597 51.3445 57.3454C52.7775 56.47 54.0939 55.3914 55.2461 54.1287C55.2747 54.0952 55.3032 54.0617 55.3271 54.0259C58.2289 50.8068 60 46.5403 60 41.8647C60 37.9378 58.7502 34.3002 56.6316 31.3299V9.65987C58.5598 9.20308 60 7.46202 60 5.38614C60.0048 2.96826 58.0456 1 55.6365 1C53.2274 1 51.2659 2.96826 51.2659 5.39092C51.2659 7.46441 52.7061 9.20786 54.6343 9.66465V28.9766C52.6514 27.0083 50.2208 25.4992 47.5094 24.6144V17.8773C48.8616 17.4492 49.8423 16.1769 49.8423 14.6798C49.8423 12.8311 48.345 11.3292 46.5072 11.3292C44.6671 11.3292 43.1721 12.8335 43.1721 14.6798C43.1721 16.1769 44.1553 17.4492 45.5051 17.8773V24.0882ZM55.6294 7.76575C54.3272 7.76336 53.2703 6.69672 53.2703 5.38853C53.2703 4.07795 54.332 3.01131 55.6365 3.01131C56.941 3.01131 58.0027 4.07795 58.0027 5.38853C58.0027 6.69672 56.9458 7.76096 55.6437 7.76575H55.6365H55.6294ZM46.5049 13.3405C47.2381 13.3405 47.8356 13.9408 47.8356 14.6774C47.8356 15.414 47.2381 16.0143 46.5049 16.0143C45.7693 16.0143 45.1718 15.414 45.1718 14.6774C45.1742 13.9408 45.7717 13.3405 46.5049 13.3405ZM35.7521 6.85934C37.0566 6.85934 38.1183 7.92598 38.1183 9.23656C38.1183 10.5471 37.0566 11.6138 35.7521 11.6138C34.4476 11.6138 33.3859 10.5471 33.3859 9.23656C33.3859 7.92598 34.4476 6.85934 35.7521 6.85934ZM13.4062 56.5466H10.0854C9.60453 56.5466 9.1927 56.2046 9.10224 55.7311L8.59281 53.0716C7.85485 52.7751 7.16926 52.3757 6.54081 51.8806L3.99128 52.7679C3.5366 52.9257 3.03669 52.7392 2.79626 52.3207L1.13466 49.4293C0.89423 49.0107 0.982309 48.4798 1.34653 48.1641L3.38663 46.3896C3.33188 45.995 3.30331 45.598 3.30331 45.1986C3.30331 44.8016 3.33188 44.4022 3.38663 44.0076L1.34653 42.233C0.982309 41.9174 0.89423 41.3864 1.13466 40.9679L2.79626 38.0789C3.03669 37.6604 3.53898 37.4738 3.99128 37.6317L6.54081 38.5189C7.16688 38.0239 7.85485 37.6245 8.59281 37.3279L9.10224 34.6685C9.1927 34.195 9.60691 33.853 10.0854 33.853H13.4062C13.8871 33.853 14.2989 34.195 14.3894 34.6685L14.8988 37.3279C15.6367 37.6269 16.3247 38.0239 16.9508 38.5189L19.5003 37.6317C19.955 37.4738 20.4549 37.6604 20.6953 38.0789L22.3569 40.9679C22.5974 41.3864 22.5093 41.9174 22.1451 42.233L20.105 44.0076C20.1597 44.4022 20.1883 44.7992 20.1883 45.1986C20.1883 45.598 20.1597 45.995 20.105 46.3896L22.1451 48.1641C22.5093 48.4798 22.5974 49.0107 22.3569 49.4293L20.6953 52.3183C20.4549 52.7368 19.9526 52.9233 19.5003 52.7655L16.9508 51.8782C16.3247 52.3733 15.6367 52.7727 14.8988 53.0692L14.3894 55.7287C14.3013 56.2046 13.8871 56.5466 13.4062 56.5466ZM10.9138 54.5329H12.5802L13.0396 52.127C13.1086 51.7658 13.3681 51.4717 13.7181 51.3593C14.5941 51.0771 15.3844 50.6179 16.07 49.9937C16.3414 49.7473 16.7246 49.6684 17.0698 49.788L19.3765 50.5916L20.2097 49.1423L18.3672 47.5399C18.0911 47.2984 17.9673 46.9277 18.0434 46.5666C18.1387 46.1193 18.1863 45.6602 18.1863 45.201C18.1863 44.7418 18.1387 44.2826 18.0411 43.8354C17.9649 43.4767 18.0887 43.1036 18.3648 42.862L20.2097 41.2573L19.3765 39.808L17.0722 40.6116C16.727 40.7311 16.3414 40.6522 16.07 40.4059C15.3844 39.7817 14.5941 39.3225 13.7181 39.0403C13.3705 38.9279 13.1086 38.6337 13.0396 38.2726L12.5802 35.8691H10.9138L10.4544 38.275C10.3853 38.6361 10.1259 38.9303 9.77593 39.0427C8.8999 39.3249 8.10957 39.7841 7.42398 40.4083C7.1526 40.6546 6.76934 40.7335 6.42178 40.6139L4.11506 39.8104L3.28189 41.2597L5.1244 42.862C5.40054 43.1036 5.52433 43.4743 5.44815 43.8354C5.35293 44.2826 5.30294 44.7418 5.30294 45.201C5.30294 45.6602 5.35055 46.1193 5.44815 46.5666C5.52433 46.9253 5.40054 47.2984 5.1244 47.5399L3.28189 49.1423L4.11506 50.5916L6.42178 49.788C6.76696 49.6684 7.1526 49.7473 7.4216 49.9937C8.10719 50.6179 8.89752 51.0771 9.77355 51.3593C10.1211 51.4717 10.383 51.7658 10.452 52.127L10.9138 54.5329ZM11.747 50.1443C14.4608 50.1443 16.6675 47.9274 16.6675 45.201C16.6675 42.4746 14.4608 40.2576 11.747 40.2576C9.03321 40.2576 6.82647 42.4746 6.82647 45.201C6.82647 47.925 9.03321 50.1443 11.747 50.1443ZM11.747 42.2713C10.1401 42.2713 8.83086 43.5843 8.83086 45.201C8.83086 46.8153 10.1378 48.1306 11.747 48.1306C13.3538 48.1306 14.6631 46.8177 14.6631 45.201C14.6631 43.5843 13.3538 42.2713 11.747 42.2713ZM17.3745 30.8874H12.8992C12.4183 30.8874 12.0065 30.5454 11.916 30.0719L11.1923 26.2956C10.1021 25.8771 9.09748 25.2936 8.18812 24.5498L4.56974 25.8101C4.11506 25.968 3.61516 25.7814 3.37473 25.3629L1.13704 21.4694C0.896611 21.0509 0.98469 20.52 1.34891 20.2043L4.24361 17.686C4.15315 17.1096 4.10792 16.5261 4.10792 15.9425C4.10792 15.359 4.15315 14.7754 4.24361 14.1991L1.34653 11.6831C0.982309 11.3675 0.89423 10.8365 1.13466 10.418L3.37234 6.52452C3.61278 6.106 4.11506 5.91946 4.56736 6.0773L8.18574 7.33766C9.09272 6.59627 10.0997 6.01034 11.19 5.59181L11.9136 1.81552C12.0065 1.34199 12.4183 1 12.8992 1H17.3745C17.8554 1 18.2672 1.34199 18.3577 1.81552L19.0814 5.59181C20.1716 6.01034 21.1786 6.59388 22.0856 7.33766L25.7039 6.0773C26.1586 5.91946 26.6585 6.106 26.899 6.52452L29.1366 10.418C29.3771 10.8365 29.289 11.3675 28.9248 11.6831L26.0325 14.2015C26.1229 14.7778 26.1681 15.3614 26.1681 15.9449C26.1681 16.5285 26.1229 17.112 26.0325 17.6884L28.9272 20.2043C29.2914 20.52 29.3795 21.0509 29.139 21.4694L26.9013 25.3629C26.6609 25.7814 26.1586 25.968 25.7063 25.8101L22.0879 24.5498C21.181 25.2912 20.174 25.8771 19.0837 26.2956L18.3601 30.0719C18.2672 30.5454 17.8554 30.8874 17.3745 30.8874ZM13.7276 28.8737L13.0515 25.3486C12.9825 24.9874 12.723 24.6933 12.3731 24.5809C11.1471 24.1839 10.0378 23.5405 9.07606 22.6652C8.80468 22.4189 8.42141 22.34 8.07624 22.4595L4.69591 23.6362L3.28427 21.1824L5.98615 18.8315C6.26229 18.59 6.38607 18.2193 6.3099 17.8582C6.17659 17.2316 6.10755 16.5882 6.10755 15.9425C6.10755 15.2992 6.17659 14.6535 6.3099 14.0269C6.38607 13.6681 6.26229 13.2951 5.98615 13.0535L3.28427 10.705L4.69591 8.25124L8.07624 9.42789C8.42141 9.54747 8.80468 9.46854 9.07606 9.22221C10.0378 8.3469 11.1471 7.70357 12.3731 7.30657C12.7206 7.19416 12.9825 6.9 13.0515 6.53887L13.7276 3.01131H16.5485L17.2246 6.53648C17.2936 6.89761 17.5531 7.19177 17.903 7.30418C19.1313 7.70118 20.2407 8.34451 21.2 9.21982C21.4714 9.46615 21.8546 9.54507 22.2022 9.4255L25.5825 8.24885L26.9942 10.7026L24.2923 13.0535C24.0162 13.2951 23.8924 13.6657 23.9685 14.0269C24.1019 14.6535 24.1709 15.2992 24.1709 15.9425C24.1709 16.5859 24.1019 17.2316 23.9685 17.8582C23.8924 18.2169 24.0162 18.59 24.2923 18.8315L26.9942 21.1824L25.5825 23.6362L22.2022 22.4595C21.857 22.34 21.4714 22.4189 21.2024 22.6652C20.2407 23.5405 19.1313 24.1839 17.9054 24.5809C17.5578 24.6933 17.296 24.9874 17.2269 25.3486L16.5509 28.8761H13.7276V28.8737ZM15.1368 22.5887C18.7838 22.5887 21.7523 19.6064 21.7523 15.9425C21.7523 12.281 18.7838 9.29874 15.1368 9.29874C11.4899 9.29874 8.5214 12.281 8.5214 15.9449C8.5214 19.6088 11.4899 22.5887 15.1368 22.5887ZM15.1368 11.3124C12.5945 11.3124 10.5258 13.3907 10.5258 15.9449C10.5258 18.4991 12.5945 20.5774 15.1368 20.5774C17.6792 20.5774 19.7479 18.4991 19.7479 15.9449C19.7479 13.3907 17.6792 11.3124 15.1368 11.3124ZM41.9557 25.7503C33.1097 25.7503 25.911 32.9824 25.911 41.8695C25.911 45.6841 27.2394 49.1949 29.4532 51.9572C31.3743 50.1037 33.6858 48.6927 36.202 47.8413C36.4996 47.7408 36.8281 47.7863 37.0876 47.9656C38.5254 48.9533 40.2084 49.4771 41.9581 49.4771C43.7054 49.4771 45.3908 48.9557 46.8262 47.9656C47.0857 47.7863 47.4142 47.7408 47.7118 47.8413C50.228 48.6903 52.5418 50.1037 54.4605 51.9572C56.6744 49.1925 58.0027 45.6841 58.0027 41.8695C58.0004 32.9801 50.8041 25.7503 41.9557 25.7503ZM30.803 53.4447C32.4027 51.8902 34.3119 50.6824 36.3901 49.91C38.0636 50.9455 39.9775 51.4884 41.9557 51.4884C43.9363 51.4884 45.8502 50.9431 47.5213 49.91C49.5995 50.6824 51.5087 51.8926 53.1084 53.4447C52.2609 54.2698 51.323 55.0016 50.3137 55.6234C50.2827 55.6426 50.2518 55.6617 50.2209 55.6808C50.1613 55.7167 50.1018 55.7526 50.0399 55.7884C47.9189 57.0297 45.5265 57.7782 43.0555 57.9504C42.996 57.9552 42.9341 57.9576 42.8746 57.9624C42.827 57.9648 42.7794 57.9672 42.7318 57.9696C42.627 57.9743 42.5223 57.9791 42.4151 57.9815C42.3937 57.9815 42.3723 57.9839 42.3509 57.9839C42.2247 57.9863 42.0985 57.9887 41.97 57.9887H41.9557H41.9414C41.8153 57.9887 41.6891 57.9863 41.5605 57.9839C41.5391 57.9839 41.5177 57.9815 41.4963 57.9815C41.3915 57.9791 41.2844 57.9743 41.1797 57.9696C41.132 57.9672 41.0844 57.9648 41.0368 57.9624C40.9773 57.96 40.9178 57.9552 40.8583 57.9504C38.3849 57.7782 35.9925 57.0297 33.8715 55.7884C33.812 55.7526 33.7525 55.7191 33.6929 55.6832C33.662 55.6641 33.6287 55.645 33.5977 55.6258C32.5884 55.0016 31.6505 54.2698 30.803 53.4447ZM41.9557 31.7986C38.3445 31.7986 35.4069 34.7498 35.4069 38.3778C35.4069 42.0058 38.3445 44.9546 41.9557 44.9546C45.5669 44.9546 48.5021 42.0034 48.5021 38.3778C48.5021 34.7522 45.5669 31.7986 41.9557 31.7986Z" fill="#589CE7"/>
<path fill-rule="evenodd" clip-rule="evenodd" d="M41.9557 46.966C37.2399 46.966 33.4049 43.1107 33.4049 38.3754C33.4049 33.6401 37.2423 29.7849 41.9557 29.7849C46.6715 29.7849 50.5065 33.6401 50.5065 38.3754C50.5065 43.1107 46.6715 46.966 41.9557 46.966ZM45.5051 24.0882C44.3576 23.8586 43.1721 23.7366 41.9581 23.7366C40.1513 23.7366 38.404 24.0069 36.7567 24.5043V13.5103C38.6849 13.0535 40.1251 11.3101 40.1251 9.23656C40.1251 6.8163 38.1659 4.84564 35.7545 4.84564C33.3454 4.84564 31.3838 6.8139 31.3838 9.23656C31.3838 11.3101 32.8241 13.0535 34.7523 13.5103V25.2457C28.3773 28.0463 23.909 34.4437 23.909 41.8695C23.909 46.545 25.6801 50.8116 28.582 54.0306C28.6058 54.0665 28.6344 54.1 28.6629 54.1335C29.8151 55.3938 31.1315 56.4724 32.5646 57.3478C32.5884 57.3621 32.6122 57.3764 32.6336 57.3908C32.7098 57.4362 32.786 57.4817 32.8645 57.5271C35.1974 58.8999 37.8636 59.7608 40.7083 59.957C40.7797 59.9617 40.8535 59.9665 40.9249 59.9713C40.9845 59.9737 41.0463 59.9785 41.1059 59.9809C41.2296 59.9856 41.3511 59.9904 41.4748 59.9952H41.5129C41.6605 60 41.8081 60 41.9533 60C42.1009 60 42.2485 59.9976 42.3937 59.9952H42.4318C42.5556 59.9928 42.677 59.988 42.8008 59.9809C42.8603 59.9785 42.9222 59.9737 42.9817 59.9713C43.0555 59.9665 43.1269 59.9617 43.2007 59.957C46.0454 59.7608 48.7116 58.8999 51.0469 57.5247C51.1231 57.4793 51.1992 57.4338 51.2754 57.3884C51.2992 57.3741 51.3206 57.3597 51.3445 57.3454C52.7775 56.47 54.0939 55.3914 55.2461 54.1287C55.2747 54.0952 55.3032 54.0617 55.3271 54.0259C58.2289 50.8068 60 46.5403 60 41.8647C60 37.9378 58.7502 34.3002 56.6316 31.3299V9.65987C58.5598 9.20308 60 7.46202 60 5.38614C60.0048 2.96826 58.0456 1 55.6365 1C53.2274 1 51.2659 2.96826 51.2659 5.39092C51.2659 7.46441 52.7061 9.20786 54.6343 9.66465V28.9766C52.6514 27.0083 50.2208 25.4992 47.5094 24.6144V17.8773C48.8616 17.4492 49.8423 16.1769 49.8423 14.6798C49.8423 12.8311 48.345 11.3292 46.5072 11.3292C44.6671 11.3292 43.1721 12.8335 43.1721 14.6798C43.1721 16.1769 44.1553 17.4492 45.5051 17.8773V24.0882ZM55.6294 7.76575C54.3272 7.76336 53.2703 6.69672 53.2703 5.38853C53.2703 4.07795 54.332 3.01131 55.6365 3.01131C56.941 3.01131 58.0027 4.07795 58.0027 5.38853C58.0027 6.69672 56.9458 7.76096 55.6437 7.76575H55.6365H55.6294ZM46.5049 13.3405C47.2381 13.3405 47.8356 13.9408 47.8356 14.6774C47.8356 15.414 47.2381 16.0143 46.5049 16.0143C45.7693 16.0143 45.1718 15.414 45.1718 14.6774C45.1742 13.9408 45.7717 13.3405 46.5049 13.3405ZM35.7521 6.85934C37.0566 6.85934 38.1183 7.92598 38.1183 9.23656C38.1183 10.5471 37.0566 11.6138 35.7521 11.6138C34.4476 11.6138 33.3859 10.5471 33.3859 9.23656C33.3859 7.92598 34.4476 6.85934 35.7521 6.85934ZM13.4062 56.5466H10.0854C9.60453 56.5466 9.1927 56.2046 9.10224 55.7311L8.59281 53.0716C7.85485 52.7751 7.16926 52.3757 6.54081 51.8806L3.99128 52.7679C3.5366 52.9257 3.03669 52.7392 2.79626 52.3207L1.13466 49.4293C0.89423 49.0107 0.982309 48.4798 1.34653 48.1641L3.38663 46.3896C3.33188 45.995 3.30331 45.598 3.30331 45.1986C3.30331 44.8016 3.33188 44.4022 3.38663 44.0076L1.34653 42.233C0.982309 41.9174 0.89423 41.3864 1.13466 40.9679L2.79626 38.0789C3.03669 37.6604 3.53898 37.4738 3.99128 37.6317L6.54081 38.5189C7.16688 38.0239 7.85485 37.6245 8.59281 37.3279L9.10224 34.6685C9.1927 34.195 9.60691 33.853 10.0854 33.853H13.4062C13.8871 33.853 14.2989 34.195 14.3894 34.6685L14.8988 37.3279C15.6367 37.6269 16.3247 38.0239 16.9508 38.5189L19.5003 37.6317C19.955 37.4738 20.4549 37.6604 20.6953 38.0789L22.3569 40.9679C22.5974 41.3864 22.5093 41.9174 22.1451 42.233L20.105 44.0076C20.1597 44.4022 20.1883 44.7992 20.1883 45.1986C20.1883 45.598 20.1597 45.995 20.105 46.3896L22.1451 48.1641C22.5093 48.4798 22.5974 49.0107 22.3569 49.4293L20.6953 52.3183C20.4549 52.7368 19.9526 52.9233 19.5003 52.7655L16.9508 51.8782C16.3247 52.3733 15.6367 52.7727 14.8988 53.0692L14.3894 55.7287C14.3013 56.2046 13.8871 56.5466 13.4062 56.5466ZM10.9138 54.5329H12.5802L13.0396 52.127C13.1086 51.7658 13.3681 51.4717 13.7181 51.3593C14.5941 51.0771 15.3844 50.6179 16.07 49.9937C16.3414 49.7473 16.7246 49.6684 17.0698 49.788L19.3765 50.5916L20.2097 49.1423L18.3672 47.5399C18.0911 47.2984 17.9673 46.9277 18.0434 46.5666C18.1387 46.1193 18.1863 45.6602 18.1863 45.201C18.1863 44.7418 18.1387 44.2826 18.0411 43.8354C17.9649 43.4767 18.0887 43.1036 18.3648 42.862L20.2097 41.2573L19.3765 39.808L17.0722 40.6116C16.727 40.7311 16.3414 40.6522 16.07 40.4059C15.3844 39.7817 14.5941 39.3225 13.7181 39.0403C13.3705 38.9279 13.1086 38.6337 13.0396 38.2726L12.5802 35.8691H10.9138L10.4544 38.275C10.3853 38.6361 10.1259 38.9303 9.77593 39.0427C8.8999 39.3249 8.10957 39.7841 7.42398 40.4083C7.1526 40.6546 6.76934 40.7335 6.42178 40.6139L4.11506 39.8104L3.28189 41.2597L5.1244 42.862C5.40054 43.1036 5.52433 43.4743 5.44815 43.8354C5.35293 44.2826 5.30294 44.7418 5.30294 45.201C5.30294 45.6602 5.35055 46.1193 5.44815 46.5666C5.52433 46.9253 5.40054 47.2984 5.1244 47.5399L3.28189 49.1423L4.11506 50.5916L6.42178 49.788C6.76696 49.6684 7.1526 49.7473 7.4216 49.9937C8.10719 50.6179 8.89752 51.0771 9.77355 51.3593C10.1211 51.4717 10.383 51.7658 10.452 52.127L10.9138 54.5329ZM11.747 50.1443C14.4608 50.1443 16.6675 47.9274 16.6675 45.201C16.6675 42.4746 14.4608 40.2576 11.747 40.2576C9.03321 40.2576 6.82647 42.4746 6.82647 45.201C6.82647 47.925 9.03321 50.1443 11.747 50.1443ZM11.747 42.2713C10.1401 42.2713 8.83086 43.5843 8.83086 45.201C8.83086 46.8153 10.1378 48.1306 11.747 48.1306C13.3538 48.1306 14.6631 46.8177 14.6631 45.201C14.6631 43.5843 13.3538 42.2713 11.747 42.2713ZM17.3745 30.8874H12.8992C12.4183 30.8874 12.0065 30.5454 11.916 30.0719L11.1923 26.2956C10.1021 25.8771 9.09748 25.2936 8.18812 24.5498L4.56974 25.8101C4.11506 25.968 3.61516 25.7814 3.37473 25.3629L1.13704 21.4694C0.896611 21.0509 0.98469 20.52 1.34891 20.2043L4.24361 17.686C4.15315 17.1096 4.10792 16.5261 4.10792 15.9425C4.10792 15.359 4.15315 14.7754 4.24361 14.1991L1.34653 11.6831C0.982309 11.3675 0.89423 10.8365 1.13466 10.418L3.37234 6.52452C3.61278 6.106 4.11506 5.91946 4.56736 6.0773L8.18574 7.33766C9.09272 6.59627 10.0997 6.01034 11.19 5.59181L11.9136 1.81552C12.0065 1.34199 12.4183 1 12.8992 1H17.3745C17.8554 1 18.2672 1.34199 18.3577 1.81552L19.0814 5.59181C20.1716 6.01034 21.1786 6.59388 22.0856 7.33766L25.7039 6.0773C26.1586 5.91946 26.6585 6.106 26.899 6.52452L29.1366 10.418C29.3771 10.8365 29.289 11.3675 28.9248 11.6831L26.0325 14.2015C26.1229 14.7778 26.1681 15.3614 26.1681 15.9449C26.1681 16.5285 26.1229 17.112 26.0325 17.6884L28.9272 20.2043C29.2914 20.52 29.3795 21.0509 29.139 21.4694L26.9013 25.3629C26.6609 25.7814 26.1586 25.968 25.7063 25.8101L22.0879 24.5498C21.181 25.2912 20.174 25.8771 19.0837 26.2956L18.3601 30.0719C18.2672 30.5454 17.8554 30.8874 17.3745 30.8874ZM13.7276 28.8737L13.0515 25.3486C12.9825 24.9874 12.723 24.6933 12.3731 24.5809C11.1471 24.1839 10.0378 23.5405 9.07606 22.6652C8.80468 22.4189 8.42141 22.34 8.07624 22.4595L4.69591 23.6362L3.28427 21.1824L5.98615 18.8315C6.26229 18.59 6.38607 18.2193 6.3099 17.8582C6.17659 17.2316 6.10755 16.5882 6.10755 15.9425C6.10755 15.2992 6.17659 14.6535 6.3099 14.0269C6.38607 13.6681 6.26229 13.2951 5.98615 13.0535L3.28427 10.705L4.69591 8.25124L8.07624 9.42789C8.42141 9.54747 8.80468 9.46854 9.07606 9.22221C10.0378 8.3469 11.1471 7.70357 12.3731 7.30657C12.7206 7.19416 12.9825 6.9 13.0515 6.53887L13.7276 3.01131H16.5485L17.2246 6.53648C17.2936 6.89761 17.5531 7.19177 17.903 7.30418C19.1313 7.70118 20.2407 8.34451 21.2 9.21982C21.4714 9.46615 21.8546 9.54507 22.2022 9.4255L25.5825 8.24885L26.9942 10.7026L24.2923 13.0535C24.0162 13.2951 23.8924 13.6657 23.9685 14.0269C24.1019 14.6535 24.1709 15.2992 24.1709 15.9425C24.1709 16.5859 24.1019 17.2316 23.9685 17.8582C23.8924 18.2169 24.0162 18.59 24.2923 18.8315L26.9942 21.1824L25.5825 23.6362L22.2022 22.4595C21.857 22.34 21.4714 22.4189 21.2024 22.6652C20.2407 23.5405 19.1313 24.1839 17.9054 24.5809C17.5578 24.6933 17.296 24.9874 17.2269 25.3486L16.5509 28.8761H13.7276V28.8737ZM15.1368 22.5887C18.7838 22.5887 21.7523 19.6064 21.7523 15.9425C21.7523 12.281 18.7838 9.29874 15.1368 9.29874C11.4899 9.29874 8.5214 12.281 8.5214 15.9449C8.5214 19.6088 11.4899 22.5887 15.1368 22.5887ZM15.1368 11.3124C12.5945 11.3124 10.5258 13.3907 10.5258 15.9449C10.5258 18.4991 12.5945 20.5774 15.1368 20.5774C17.6792 20.5774 19.7479 18.4991 19.7479 15.9449C19.7479 13.3907 17.6792 11.3124 15.1368 11.3124ZM41.9557 25.7503C33.1097 25.7503 25.911 32.9824 25.911 41.8695C25.911 45.6841 27.2394 49.1949 29.4532 51.9572C31.3743 50.1037 33.6858 48.6927 36.202 47.8413C36.4996 47.7408 36.8281 47.7863 37.0876 47.9656C38.5254 48.9533 40.2084 49.4771 41.9581 49.4771C43.7054 49.4771 45.3908 48.9557 46.8262 47.9656C47.0857 47.7863 47.4142 47.7408 47.7118 47.8413C50.228 48.6903 52.5418 50.1037 54.4605 51.9572C56.6744 49.1925 58.0027 45.6841 58.0027 41.8695C58.0004 32.9801 50.8041 25.7503 41.9557 25.7503ZM30.803 53.4447C32.4027 51.8902 34.3119 50.6824 36.3901 49.91C38.0636 50.9455 39.9775 51.4884 41.9557 51.4884C43.9363 51.4884 45.8502 50.9431 47.5213 49.91C49.5995 50.6824 51.5087 51.8926 53.1084 53.4447C52.2609 54.2698 51.323 55.0016 50.3137 55.6234C50.2827 55.6426 50.2518 55.6617 50.2209 55.6808C50.1613 55.7167 50.1018 55.7526 50.0399 55.7884C47.9189 57.0297 45.5265 57.7782 43.0555 57.9504C42.996 57.9552 42.9341 57.9576 42.8746 57.9624C42.827 57.9648 42.7794 57.9672 42.7318 57.9696C42.627 57.9743 42.5223 57.9791 42.4151 57.9815C42.3937 57.9815 42.3723 57.9839 42.3509 57.9839C42.2247 57.9863 42.0985 57.9887 41.97 57.9887H41.9557H41.9414C41.8153 57.9887 41.6891 57.9863 41.5605 57.9839C41.5391 57.9839 41.5177 57.9815 41.4963 57.9815C41.3915 57.9791 41.2844 57.9743 41.1797 57.9696C41.132 57.9672 41.0844 57.9648 41.0368 57.9624C40.9773 57.96 40.9178 57.9552 40.8583 57.9504C38.3849 57.7782 35.9925 57.0297 33.8715 55.7884C33.812 55.7526 33.7525 55.7191 33.6929 55.6832C33.662 55.6641 33.6287 55.645 33.5977 55.6258C32.5884 55.0016 31.6505 54.2698 30.803 53.4447ZM41.9557 31.7986C38.3445 31.7986 35.4069 34.7498 35.4069 38.3778C35.4069 42.0058 38.3445 44.9546 41.9557 44.9546C45.5669 44.9546 48.5021 42.0034 48.5021 38.3778C48.5021 34.7522 45.5669 31.7986 41.9557 31.7986Z" stroke="#589CE7" stroke-width="0.2" mask="url(#path-1-outside-1_467_1675)"/>
</svg>
