<svg width="61" height="61" viewBox="0 0 61 61" fill="none" xmlns="http://www.w3.org/2000/svg">
<path fill-rule="evenodd" clip-rule="evenodd" d="M36.1842 42.865L39.1542 44.3794L44.3729 39.1607L42.8584 36.1908C42.6879 35.8498 42.8191 35.4368 43.16 35.2598C43.2059 35.2401 43.2452 35.2205 43.2911 35.2073L46.425 34.1911V26.8089L43.2583 25.7795C42.8977 25.6615 42.6945 25.2747 42.8125 24.9076C42.8256 24.8748 42.8387 24.842 42.8518 24.8092L44.3663 21.8393L39.1476 16.6206L36.1777 18.135C35.8367 18.3055 35.4237 18.1744 35.2467 17.8335C35.227 17.7876 35.2073 17.7482 35.1942 17.7023L34.178 14.5685H26.7958L25.7664 17.7351C25.6484 18.0957 25.2616 18.2989 24.8945 18.1809C24.8617 18.1678 24.8289 18.1547 24.7961 18.1416L21.8262 16.6271L16.6075 21.8458L18.1219 24.8158C18.2924 25.1567 18.1613 25.5698 17.8203 25.7468C17.7745 25.7664 17.7351 25.7861 17.6892 25.7992L14.5554 26.8154V34.1977L17.722 35.227C18.0826 35.345 18.2858 35.7318 18.1678 36.099C18.1547 36.1318 18.1416 36.1645 18.1285 36.1973L16.614 39.1673L21.8327 44.386L24.8027 42.8715C25.1436 42.7011 25.5566 42.8322 25.7337 43.1731C25.7533 43.219 25.773 43.2583 25.7861 43.3042L26.8023 46.4381H34.1846L35.2139 43.2714C35.3319 42.9109 35.7187 42.7076 36.0859 42.8256C36.1186 42.8387 36.1514 42.8518 36.1842 42.865ZM12.6541 8.56957C12.359 8.81215 11.9263 8.76626 11.6838 8.47123C11.4412 8.1762 11.4871 7.74349 11.7821 7.50092C13.9981 5.69797 16.4763 4.20971 19.1578 3.09516C21.7606 2.01995 24.5535 1.29877 27.4645 1.00374C27.8447 0.964404 28.1791 1.24632 28.2184 1.62002C28.2578 2.00028 27.9759 2.33465 27.6022 2.37398C24.8223 2.6559 22.1671 3.3443 19.6823 4.36706C17.1319 5.42261 14.7652 6.8453 12.6541 8.56302V8.56957ZM33.3913 2.37398C33.011 2.33465 32.7357 2.00028 32.775 1.62002C32.8143 1.23976 33.1487 0.964404 33.529 1.00374C36.4465 1.29877 39.2328 2.01995 41.8356 3.09516C44.5171 4.20316 46.9954 5.69797 49.2113 7.50092C49.5064 7.74349 49.5523 8.1762 49.3097 8.47123C49.0671 8.76626 48.6344 8.81215 48.3394 8.56957C46.2283 6.85185 43.8615 5.42916 41.3111 4.37362C38.8264 3.3443 36.1711 2.66245 33.3913 2.38054V2.37398ZM52.4304 12.6541C52.1878 12.359 52.2337 11.9263 52.5288 11.6838C52.8238 11.4412 53.2565 11.4871 53.4991 11.7821C55.302 13.9981 56.7903 16.4763 57.9048 19.1578C58.98 21.7606 59.7012 24.5535 59.9963 27.4645C60.0356 27.8447 59.7537 28.1791 59.38 28.2184C58.9997 28.2578 58.6654 27.9759 58.626 27.6022C58.3441 24.8223 57.6557 22.1671 56.6329 19.6823C55.5774 17.1319 54.1547 14.7652 52.437 12.6541H52.4304ZM58.626 33.3913C58.6654 33.011 58.9997 32.7357 59.38 32.775C59.7602 32.8143 60.0356 33.1487 59.9963 33.529C59.7012 36.4465 58.98 39.2328 57.9048 41.8356C56.7968 44.5171 55.302 46.9953 53.4991 49.2048C53.2565 49.4998 52.8238 49.5457 52.5288 49.3031C52.2337 49.0606 52.1878 48.6278 52.4304 48.3328C54.1481 46.2217 55.5708 43.8549 56.6264 41.3046C57.6557 38.8198 58.3375 36.1645 58.6195 33.3847L58.626 33.3913ZM48.3459 52.4304C48.641 52.1878 49.0737 52.2337 49.3162 52.5288C49.5588 52.8238 49.5129 53.2565 49.2179 53.4991C47.0019 55.302 44.5237 56.7903 41.8422 57.9048C39.2394 58.9801 36.4465 59.7012 33.5355 59.9963C33.1553 60.0356 32.8209 59.7537 32.7816 59.38C32.7422 59.0063 33.0241 58.6654 33.3978 58.626C36.1777 58.3441 38.8329 57.6557 41.3177 56.6329C43.8681 55.5774 46.2348 54.1547 48.3459 52.437V52.4304ZM27.6087 58.626C27.989 58.6654 28.2643 58.9997 28.225 59.38C28.1857 59.7602 27.8513 60.0356 27.471 59.9963C24.5535 59.7012 21.7672 58.9801 19.1644 57.9048C16.4829 56.7968 14.0046 55.302 11.7887 53.4991C11.4936 53.2565 11.4477 52.8238 11.6903 52.5288C11.9329 52.2337 12.3656 52.1878 12.6606 52.4304C14.7717 54.1481 17.1385 55.5708 19.6889 56.6264C22.1737 57.6557 24.8289 58.3375 27.6087 58.6195V58.626ZM8.56957 48.3459C8.81215 48.641 8.76626 49.0737 8.47123 49.3162C8.1762 49.5588 7.74349 49.5129 7.50092 49.2179C5.69797 47.0019 4.20971 44.5237 3.09516 41.8422C2.01995 39.2394 1.29877 36.4465 1.00374 33.5355C0.964404 33.1553 1.24632 32.8209 1.62002 32.7816C2.00028 32.7422 2.33465 33.0241 2.37398 33.3978C2.6559 36.1777 3.3443 38.8329 4.36706 41.3177C5.42261 43.8681 6.8453 46.2348 8.56302 48.3459H8.56957ZM2.37398 27.6087C2.33465 27.989 2.00028 28.2643 1.62002 28.225C1.23976 28.1857 0.964404 27.8513 1.00374 27.471C1.29877 24.5535 2.01995 21.7672 3.09516 19.1644C4.20316 16.4829 5.69797 14.0046 7.50092 11.7887C7.74349 11.4936 8.1762 11.4477 8.47123 11.6903C8.76626 11.9329 8.81215 12.3656 8.56957 12.6606C6.85185 14.7717 5.42916 17.1385 4.37362 19.6889C3.3443 22.1737 2.66245 24.8289 2.38054 27.6087H2.37398ZM11.0675 11.0675C11.6903 10.4446 12.5033 10.1365 13.3162 10.1365C13.9719 10.1365 14.6275 10.3397 15.1848 10.7397C16.9353 9.38254 18.8628 8.25488 20.9411 7.39602C22.9604 6.55683 25.1108 5.97988 27.3596 5.69797C27.4645 5.02268 27.7857 4.41296 28.2512 3.94747C28.8282 3.37052 29.6215 3.01649 30.5 3.01649C31.3785 3.01649 32.1718 3.37052 32.7488 3.94747C33.2143 4.41296 33.5355 5.01612 33.6404 5.69797C35.8892 5.97988 38.0396 6.55683 40.0589 7.39602C42.1372 8.25488 44.0647 9.3891 45.8152 10.7397C46.3725 10.3332 47.0281 10.1365 47.6838 10.1365C48.4967 10.1365 49.3097 10.4446 49.9325 11.0675C50.5554 11.6903 50.8635 12.5033 50.8635 13.3163C50.8635 13.9719 50.6603 14.6275 50.2603 15.1848C51.6175 16.9353 52.7451 18.8628 53.604 20.9411C54.4432 22.9604 55.0201 25.1108 55.302 27.3596C55.9773 27.4645 56.587 27.7857 57.0525 28.2512C57.6295 28.8282 57.9835 29.6215 57.9835 30.5C57.9835 31.3785 57.6295 32.1718 57.0525 32.7488C56.587 33.2143 55.9839 33.5355 55.302 33.6404C55.0201 35.8892 54.4432 38.0396 53.604 40.0589C52.7451 42.1372 51.6109 44.0647 50.2603 45.8152C50.6668 46.3725 50.8635 47.0281 50.8635 47.6838C50.8635 48.4967 50.5554 49.3097 49.9325 49.9325C49.3097 50.5554 48.4967 50.8635 47.6838 50.8635C47.0281 50.8635 46.3725 50.6603 45.8152 50.2603C44.0647 51.6175 42.1372 52.7451 40.0589 53.604C38.0396 54.4432 35.8892 55.0201 33.6404 55.302C33.5355 55.9773 33.2143 56.587 32.7488 57.0525C32.1718 57.6295 31.3785 57.9835 30.5 57.9835C29.6215 57.9835 28.8282 57.6295 28.2512 57.0525C27.7857 56.587 27.4645 55.9839 27.3596 55.302C25.1108 55.0201 22.9604 54.4432 20.9411 53.604C18.8628 52.7451 16.9353 51.6109 15.1848 50.2603C14.6275 50.6668 13.9719 50.8635 13.3162 50.8635C12.5033 50.8635 11.6903 50.5554 11.0675 49.9325C10.4446 49.3097 10.1365 48.4967 10.1365 47.6838C10.1365 47.0281 10.3397 46.3725 10.7397 45.8152C9.38254 44.0647 8.25488 42.1372 7.39602 40.0589C6.55683 38.0396 5.97988 35.8892 5.69797 33.6404C5.02268 33.5355 4.41296 33.2143 3.94747 32.7488C3.37052 32.1718 3.01649 31.3785 3.01649 30.5C3.01649 29.6215 3.37052 28.8282 3.94747 28.2512C4.41296 27.7857 5.01612 27.4645 5.69797 27.3596C5.97988 25.1108 6.55683 22.9604 7.39602 20.9411C8.25488 18.8693 9.3891 16.9353 10.7397 15.1848C10.3332 14.6275 10.1365 13.9719 10.1365 13.3163C10.1365 12.5033 10.4446 11.6903 11.0675 11.0675ZM16.1026 11.7755C17.7351 10.5168 19.5381 9.46777 21.4656 8.66792C23.3472 7.88773 25.3534 7.34357 27.4448 7.07476C27.5956 7.59926 27.8775 8.0713 28.2512 8.44501C28.8282 9.02195 29.6215 9.37598 30.5 9.37598C31.3785 9.37598 32.1718 9.02195 32.7488 8.44501C33.1225 8.0713 33.4044 7.59926 33.5552 7.07476C35.6466 7.34357 37.6528 7.88773 39.5344 8.66792C41.4619 9.46777 43.2649 10.5168 44.8974 11.7755C44.6351 12.2541 44.4974 12.7852 44.4974 13.3163C44.4974 14.1292 44.8056 14.9422 45.4284 15.565C46.0513 16.1879 46.8642 16.496 47.6772 16.496C48.2082 16.496 48.7393 16.3649 49.2179 16.0961C50.4767 17.7286 51.5257 19.5315 52.3255 21.459C53.1057 23.3407 53.6499 25.3468 53.9187 27.4383C53.3942 27.5891 52.9221 27.871 52.5484 28.2447C51.9715 28.8216 51.6175 29.6149 51.6175 30.4934C51.6175 31.372 51.9715 32.1653 52.5484 32.7422C52.9221 33.1159 53.3942 33.3978 53.9187 33.5486C53.6499 35.64 53.1057 37.6462 52.3255 39.5279C51.5257 41.4554 50.4767 43.2583 49.2179 44.8908C48.7393 44.6286 48.2082 44.4909 47.6772 44.4909C46.8642 44.4909 46.0513 44.799 45.4284 45.4219C44.8056 46.0447 44.4974 46.8577 44.4974 47.6706C44.4974 48.2017 44.6286 48.7327 44.8974 49.2113C43.2649 50.4701 41.4619 51.5191 39.5344 52.319C37.6528 53.0992 35.6466 53.6433 33.5552 53.9121C33.4044 53.3876 33.1225 52.9156 32.7488 52.5419C32.1718 51.9649 31.3785 51.6109 30.5 51.6109C29.6215 51.6109 28.8282 51.9649 28.2512 52.5419C27.8775 52.9156 27.5956 53.3876 27.4448 53.9121C25.3534 53.6433 23.3472 53.0992 21.4656 52.319C19.5381 51.5191 17.7351 50.4701 16.1026 49.2113C16.3649 48.7327 16.5026 48.2017 16.5026 47.6706C16.5026 46.8577 16.1944 46.0447 15.5716 45.4219C14.9487 44.799 14.1358 44.4909 13.3228 44.4909C12.7918 44.4909 12.2607 44.622 11.7821 44.8908C10.5233 43.2583 9.47433 41.4554 8.67447 39.5279C7.89429 37.6462 7.35012 35.64 7.08132 33.5486C7.60581 33.3978 8.07786 33.1159 8.45156 32.7422C9.02851 32.1653 9.38254 31.372 9.38254 30.4934C9.38254 29.6149 9.02851 28.8216 8.45156 28.2447C8.07786 27.871 7.60581 27.5891 7.08132 27.4383C7.35012 25.3468 7.89429 23.3407 8.67447 21.459C9.47433 19.5315 10.5233 17.7286 11.7821 16.0961C12.2607 16.3583 12.7918 16.496 13.3228 16.496C14.1358 16.496 14.9487 16.1879 15.5716 15.565C16.1944 14.9422 16.5026 14.1292 16.5026 13.3163C16.5026 12.7852 16.3714 12.2541 16.1026 11.7755ZM13.3162 11.5199C13.7752 11.5199 14.2341 11.6969 14.5881 12.0444C14.9422 12.3918 15.1126 12.8573 15.1126 13.3163C15.1126 13.7752 14.9356 14.2341 14.5881 14.5881C14.2341 14.9422 13.7752 15.1126 13.3162 15.1126C12.8573 15.1126 12.3984 14.9356 12.0444 14.5881C11.6903 14.2341 11.5199 13.7752 11.5199 13.3163C11.5199 12.8573 11.6969 12.3984 12.0444 12.0444C12.3984 11.6903 12.8573 11.5199 13.3162 11.5199ZM4.92434 29.2281C4.59653 29.5559 4.39984 30.0017 4.39984 30.5C4.39984 30.9983 4.60308 31.4441 4.92434 31.7719C5.25215 32.0997 5.69797 32.2964 6.19624 32.2964C6.69451 32.2964 7.14033 32.0932 7.46814 31.7719C7.79594 31.4441 7.99263 30.9983 7.99263 30.5C7.99263 30.0017 7.78939 29.5559 7.46814 29.2281C7.14033 28.9003 6.69451 28.7036 6.19624 28.7036C5.69797 28.7036 5.25215 28.9068 4.92434 29.2281ZM11.5133 47.6838C11.5133 47.2248 11.6903 46.7659 12.0378 46.4118C12.3918 46.0578 12.8508 45.8874 13.3097 45.8874C13.7686 45.8874 14.2276 46.0644 14.5816 46.4118C14.9356 46.7659 15.1061 47.2248 15.1061 47.6838C15.1061 48.1427 14.9291 48.6016 14.5816 48.9557C14.2276 49.3097 13.7686 49.4801 13.3097 49.4801C12.8508 49.4801 12.3918 49.3031 12.0378 48.9557C11.6838 48.6016 11.5133 48.1427 11.5133 47.6838ZM29.2215 56.0757C29.5494 56.4035 29.9952 56.6002 30.4934 56.6002C30.9917 56.6002 31.4375 56.3969 31.7653 56.0757C32.0932 55.7479 32.2898 55.302 32.2898 54.8038C32.2898 54.3055 32.0866 53.8597 31.7653 53.5319C31.4375 53.2041 30.9917 53.0074 30.4934 53.0074C29.9952 53.0074 29.5494 53.2106 29.2215 53.5319C28.8937 53.8597 28.6971 54.3055 28.6971 54.8038C28.6971 55.302 28.9003 55.7479 29.2215 56.0757ZM47.6772 49.4867C47.2183 49.4867 46.7593 49.3097 46.4053 48.9622C46.0513 48.6082 45.8808 48.1492 45.8808 47.6903C45.8808 47.2314 46.0578 46.7724 46.4053 46.4184C46.7593 46.0644 47.2183 45.8939 47.6772 45.8939C48.1361 45.8939 48.5951 46.0709 48.9491 46.4184C49.3031 46.7724 49.4736 47.2314 49.4736 47.6903C49.4736 48.1492 49.2966 48.6082 48.9491 48.9622C48.5951 49.3162 48.1361 49.4867 47.6772 49.4867ZM56.0691 31.7785C56.3969 31.4506 56.5936 31.0048 56.5936 30.5066C56.5936 30.0083 56.3904 29.5625 56.0691 29.2347C55.7413 28.9068 55.2955 28.7102 54.7972 28.7102C54.2989 28.7102 53.8531 28.9134 53.5253 29.2347C53.1975 29.5625 53.0008 30.0083 53.0008 30.5066C53.0008 31.0048 53.2041 31.4506 53.5253 31.7785C53.8531 32.1063 54.2989 32.3029 54.7972 32.3029C55.2955 32.3029 55.7413 32.0997 56.0691 31.7785ZM49.4801 13.3228C49.4801 13.7817 49.3031 14.2407 48.9557 14.5947C48.6016 14.9487 48.1427 15.1192 47.6838 15.1192C47.2248 15.1192 46.7659 14.9422 46.4118 14.5947C46.0578 14.2407 45.8874 13.7817 45.8874 13.3228C45.8874 12.8639 46.0644 12.4049 46.4118 12.0509C46.7659 11.6969 47.2248 11.5264 47.6838 11.5264C48.1427 11.5264 48.6016 11.7034 48.9557 12.0509C49.3097 12.3984 49.4801 12.8639 49.4801 13.3228ZM31.7719 4.93089C31.4441 4.60308 30.9983 4.4064 30.5 4.4064C30.0017 4.4064 29.5559 4.60964 29.2281 4.93089C28.9003 5.25215 28.7036 5.70452 28.7036 6.20279C28.7036 6.70106 28.9068 7.14688 29.2281 7.47469C29.5559 7.8025 30.0017 7.99919 30.5 7.99919C30.9983 7.99919 31.4441 7.79594 31.7719 7.47469C32.0997 7.14688 32.2964 6.70106 32.2964 6.20279C32.2964 5.70452 32.0932 5.2587 31.7719 4.93089ZM30.5 39.5016C28.0152 39.5016 25.7664 38.492 24.1405 36.8661C22.5146 35.2401 21.5049 32.9913 21.5049 30.5066C21.5049 28.0218 22.5146 25.773 24.1405 24.1471C25.7664 22.5211 28.0152 21.5115 30.5 21.5115C32.9848 21.5115 35.2336 22.5211 36.8595 24.1471C38.4854 25.773 39.4951 28.0218 39.4951 30.5066C39.4951 32.9913 38.4854 35.2401 36.8595 36.8661C35.2336 38.492 32.9848 39.5016 30.5 39.5016ZM37.8364 37.8429C35.9613 39.718 33.3651 40.885 30.5 40.885C27.6349 40.885 25.0387 39.7245 23.1636 37.8429C21.2886 35.9679 20.1216 33.3716 20.1216 30.5066C20.1216 27.6415 21.282 25.0453 23.1636 23.1702C25.0387 21.2951 27.6349 20.1281 30.5 20.1281C33.3651 20.1281 35.9613 21.2886 37.8364 23.1702C39.7114 25.0453 40.8784 27.6415 40.8784 30.5066C40.8784 33.3716 39.718 35.9679 37.8364 37.8429ZM30.5 34.6566C29.3527 34.6566 28.3168 34.1911 27.5628 33.4372C26.8089 32.6832 26.3434 31.6473 26.3434 30.5C26.3434 29.3527 26.8089 28.3168 27.5628 27.5628C28.3168 26.8089 29.3527 26.3434 30.5 26.3434C31.6473 26.3434 32.6832 26.8089 33.4372 27.5628C34.1911 28.3168 34.6566 29.3527 34.6566 30.5C34.6566 31.6473 34.1911 32.6832 33.4372 33.4372C32.6832 34.1911 31.6473 34.6566 30.5 34.6566ZM34.414 34.4206C33.4109 35.4237 32.0276 36.04 30.5 36.04C28.9724 36.04 27.5891 35.4171 26.586 34.4206C25.5829 33.4175 24.9666 32.0341 24.9666 30.5066C24.9666 28.979 25.5894 27.5956 26.586 26.5925C27.5825 25.5894 28.9724 24.9731 30.5 24.9731C32.0276 24.9731 33.4109 25.596 34.414 26.5925C35.4171 27.5956 36.0334 28.979 36.0334 30.5066C36.0334 32.0341 35.4106 33.4175 34.414 34.4206ZM38.9837 45.8415L36.2826 44.4647L35.3581 47.3035C35.2795 47.6051 35.0107 47.8214 34.6894 47.8214H26.304C26.0156 47.8214 25.7402 47.6379 25.6484 47.3428L24.7109 44.4647L22.036 45.8284C21.7737 45.9791 21.4328 45.9398 21.2099 45.7169L15.2831 39.7901C15.0799 39.5869 15.0143 39.2591 15.1585 38.9903L16.5353 36.2957L13.6965 35.3712C13.3949 35.2926 13.1786 35.0238 13.1786 34.7025V26.3172C13.1786 26.0287 13.3621 25.7533 13.6572 25.6615L16.5353 24.724L15.1716 22.0491C15.0209 21.7868 15.0602 21.4459 15.2831 21.223L21.2099 15.2962C21.4131 15.093 21.7409 15.0274 22.0097 15.1716L24.7043 16.5484L25.6288 13.7096C25.7074 13.408 25.9762 13.1917 26.2975 13.1917H34.6828C34.9713 13.1917 35.2467 13.3753 35.3385 13.6703L36.276 16.5484L38.9509 15.1848C39.2132 15.034 39.5541 15.0733 39.777 15.2962L45.7038 21.223C45.907 21.4262 45.9726 21.7541 45.8284 22.0229L44.4516 24.7174L47.2904 25.6419C47.592 25.7205 47.8083 25.9893 47.8083 26.3106V34.696C47.8083 34.9844 47.6247 35.2598 47.3297 35.3516L44.4516 36.2891L45.8152 38.964C45.966 39.2263 45.9267 39.5672 45.7038 39.7901L39.777 45.7169C39.5738 45.9201 39.2459 45.9857 38.9771 45.8415H38.9837Z" fill="#589CE7" stroke="#589CE7" stroke-width="0.5"/>
</svg>
