<svg width="65" height="59" viewBox="0 0 65 59" fill="none" xmlns="http://www.w3.org/2000/svg">
<path d="M29.1363 5.08624H35.8605C36.1577 5.08624 36.4427 4.97907 36.6529 4.7883C36.8631 4.59753 36.9811 4.33879 36.9811 4.069C36.9811 3.79921 36.8631 3.54047 36.6529 3.3497C36.4427 3.15893 36.1577 3.05176 35.8605 3.05176H29.1363C28.8391 3.05176 28.554 3.15893 28.3439 3.3497C28.1337 3.54047 28.0156 3.79921 28.0156 4.069C28.0156 4.33879 28.1337 4.59753 28.3439 4.7883C28.554 4.97907 28.8391 5.08624 29.1363 5.08624Z" fill="#589CE7"/>
<path d="M32.4988 49.8447C31.8338 49.8447 31.1838 50.0237 30.6309 50.359C30.078 50.6944 29.6471 51.171 29.3926 51.7286C29.1382 52.2862 29.0716 52.8998 29.2013 53.4918C29.331 54.0838 29.6513 54.6276 30.1214 55.0543C30.5916 55.4811 31.1907 55.7718 31.8429 55.8895C32.4951 56.0073 33.1711 55.9469 33.7854 55.7159C34.3997 55.4849 34.9248 55.0938 35.2942 54.5919C35.6637 54.09 35.8609 53.5 35.8609 52.8965C35.8609 52.0871 35.5066 51.3109 34.8761 50.7386C34.2456 50.1662 33.3905 49.8447 32.4988 49.8447ZM32.4988 53.9137C32.2771 53.9137 32.0605 53.854 31.8762 53.7423C31.6919 53.6305 31.5482 53.4716 31.4634 53.2857C31.3786 53.0999 31.3564 52.8953 31.3996 52.698C31.4429 52.5007 31.5496 52.3194 31.7063 52.1772C31.8631 52.0349 32.0628 51.938 32.2802 51.8988C32.4975 51.8595 32.7229 51.8797 32.9277 51.9566C33.1324 52.0336 33.3075 52.164 33.4306 52.3313C33.5538 52.4986 33.6195 52.6953 33.6195 52.8965C33.6195 53.1662 33.5014 53.425 33.2912 53.6157C33.0811 53.8065 32.796 53.9137 32.4988 53.9137Z" fill="#589CE7"/>
<path d="M39.2245 34.5859H25.7762C24.723 34.5837 23.7027 34.9189 22.895 35.5324C22.0874 36.146 21.5442 36.9986 21.3611 37.94C21.178 38.8814 21.3668 39.8513 21.8942 40.6788C22.4216 41.5063 23.2538 42.1383 24.2442 42.4635C24.3431 42.5065 24.4485 42.536 24.5569 42.551C24.9525 42.66 25.3629 42.7182 25.7762 42.7239H39.2245C40.4134 42.7239 41.5536 42.2952 42.3943 41.5321C43.235 40.769 43.7073 39.7341 43.7073 38.6549C43.7073 37.5758 43.235 36.5408 42.3943 35.7777C41.5536 35.0146 40.4134 34.5859 39.2245 34.5859ZM30.9516 40.6894L33.1929 36.6204H35.1698L32.9285 40.6894H30.9516ZM26.4688 40.6894L28.7102 36.6204H30.6871L28.4457 40.6894H26.4688ZM25.7762 36.6204H26.2054L24.2655 40.1482C23.9313 39.8726 23.697 39.5114 23.5935 39.1124C23.49 38.7134 23.5222 38.2953 23.6858 37.9133C23.8494 37.5312 24.1367 37.2032 24.5099 36.9724C24.8831 36.7415 25.3246 36.6188 25.7762 36.6204ZM39.2245 40.6894H35.4343L37.6757 36.6204H39.2245C39.8189 36.6204 40.3891 36.8348 40.8094 37.2163C41.2297 37.5979 41.4659 38.1153 41.4659 38.6549C41.4659 39.1945 41.2297 39.712 40.8094 40.0935C40.3891 40.4751 39.8189 40.6894 39.2245 40.6894Z" fill="#589CE7"/>
<path d="M33.6207 15.2591H36.9828C37.28 15.2591 37.565 15.1519 37.7752 14.9611C37.9854 14.7704 38.1034 14.5116 38.1034 14.2419C38.1034 13.9721 37.9854 13.7133 37.7752 13.5226C37.565 13.3318 37.28 13.2246 36.9828 13.2246H33.6207C33.3235 13.2246 33.0384 13.3318 32.8282 13.5226C32.6181 13.7133 32.5 13.9721 32.5 14.2419C32.5 14.5116 32.6181 14.7704 32.8282 14.9611C33.0384 15.1519 33.3235 15.2591 33.6207 15.2591Z" fill="#589CE7"/>
<path d="M40.3433 15.2591H42.5847C42.882 15.2591 43.167 15.1519 43.3772 14.9611C43.5873 14.7704 43.7054 14.5116 43.7054 14.2419C43.7054 13.9721 43.5873 13.7133 43.3772 13.5226C43.167 13.3318 42.882 13.2246 42.5847 13.2246H40.3433C40.0461 13.2246 39.7611 13.3318 39.5509 13.5226C39.3407 13.7133 39.2227 13.9721 39.2227 14.2419C39.2227 14.5116 39.3407 14.7704 39.5509 14.9611C39.7611 15.1519 40.0461 15.2591 40.3433 15.2591Z" fill="#589CE7"/>
<path d="M33.6207 19.3275H42.5862C42.8834 19.3275 43.1685 19.2203 43.3787 19.0295C43.5888 18.8387 43.7069 18.58 43.7069 18.3102C43.7069 18.0404 43.5888 17.7817 43.3787 17.5909C43.1685 17.4001 42.8834 17.293 42.5862 17.293H33.6207C33.3235 17.293 33.0384 17.4001 32.8282 17.5909C32.6181 17.7817 32.5 18.0404 32.5 18.3102C32.5 18.58 32.6181 18.8387 32.8282 19.0295C33.0384 19.2203 33.3235 19.3275 33.6207 19.3275Z" fill="#589CE7"/>
<path d="M1.12069 9.15558H6.72414C7.02136 9.15558 7.30642 9.0484 7.51659 8.85763C7.72676 8.66686 7.84483 8.40812 7.84483 8.13834C7.84483 7.86855 7.72676 7.60981 7.51659 7.41904C7.30642 7.22827 7.02136 7.12109 6.72414 7.12109H1.12069C0.823464 7.12109 0.538412 7.22827 0.328242 7.41904C0.118072 7.60981 0 7.86855 0 8.13834C0 8.40812 0.118072 8.66686 0.328242 8.85763C0.538412 9.0484 0.823464 9.15558 1.12069 9.15558Z" fill="#589CE7"/>
<path d="M1.12069 5.08624H6.72414C7.02136 5.08624 7.30642 4.97907 7.51659 4.7883C7.72676 4.59753 7.84483 4.33879 7.84483 4.069C7.84483 3.79921 7.72676 3.54047 7.51659 3.3497C7.30642 3.15893 7.02136 3.05176 6.72414 3.05176H1.12069C0.823464 3.05176 0.538412 3.15893 0.328242 3.3497C0.118072 3.54047 0 3.79921 0 4.069C0 4.33879 0.118072 4.59753 0.328242 4.7883C0.538412 4.97907 0.823464 5.08624 1.12069 5.08624Z" fill="#589CE7"/>
<path d="M63.8793 22.3793H57.1552C56.858 22.3794 56.573 22.4866 56.3628 22.6774L52.2084 26.4483H50.431V5.08621C50.4293 3.73776 49.8383 2.445 48.7879 1.4915C47.7374 0.538001 46.3132 0.00161523 44.8276 0H20.1724C18.6868 0.00161523 17.2626 0.538001 16.2121 1.4915C15.1617 2.445 14.5707 3.73776 14.569 5.08621V15.2586H12.7916L8.63715 11.4877C8.42703 11.2969 8.14203 11.1897 7.84483 11.1897H1.12069C0.823464 11.1897 0.538412 11.2968 0.328242 11.4876C0.118072 11.6784 0 11.9371 0 12.2069C0 12.4767 0.118072 12.7354 0.328242 12.9262C0.538412 13.117 0.823464 13.2241 1.12069 13.2241H7.38086L11.5353 16.9951C11.7454 17.1858 12.0304 17.293 12.3276 17.2931H14.569V53.9138C14.5707 55.2622 15.1617 56.555 16.2121 57.5085C17.2626 58.462 18.6868 58.9984 20.1724 59H44.8276C46.3132 58.9984 47.7374 58.462 48.7879 57.5085C49.8383 56.555 50.4293 55.2622 50.431 53.9138V28.4828H52.6724C52.9696 28.4827 53.2546 28.3755 53.4647 28.1847L57.6191 24.4138H63.8793C64.1765 24.4138 64.4616 24.3066 64.6718 24.1159C64.8819 23.9251 65 23.6663 65 23.3966C65 23.1268 64.8819 22.868 64.6718 22.6773C64.4616 22.4865 64.1765 22.3793 63.8793 22.3793ZM20.1724 2.03448H44.8276C45.7193 2.03448 46.5744 2.356 47.2049 2.92831C47.8354 3.50062 48.1897 4.27684 48.1897 5.08621V6.10345H16.8103V5.08621C16.8103 4.27684 17.1646 3.50062 17.7951 2.92831C18.4256 2.356 19.2807 2.03448 20.1724 2.03448ZM44.8276 56.9655H20.1724C19.2807 56.9655 18.4256 56.644 17.7951 56.0717C17.1646 55.4994 16.8103 54.7232 16.8103 53.9138V48.8276H48.1897V53.9138C48.1897 54.7232 47.8354 55.4994 47.2049 56.0717C46.5744 56.644 45.7193 56.9655 44.8276 56.9655ZM48.1897 46.7931H16.8103V17.2931H21.2931V18.3103C21.2931 18.8499 21.5292 19.3674 21.9496 19.7489C22.3699 20.1305 22.94 20.3448 23.5345 20.3448H28.0172C28.6117 20.3448 29.1818 20.1305 29.6021 19.7489C30.0225 19.3674 30.2586 18.8499 30.2586 18.3103V14.2414C30.2586 13.7018 30.0225 13.1843 29.6021 12.8028C29.1818 12.4212 28.6117 12.2069 28.0172 12.2069H23.5345C22.94 12.2069 22.3699 12.4212 21.9496 12.8028C21.5292 13.1843 21.2931 13.7018 21.2931 14.2414V15.2586H16.8103V8.13793H48.1897V26.4483H43.7069V25.431C43.7069 24.8915 43.4708 24.374 43.0504 23.9924C42.6301 23.6109 42.06 23.3966 41.4655 23.3966H23.5345C22.94 23.3966 22.3699 23.6109 21.9496 23.9924C21.5292 24.374 21.2931 24.8915 21.2931 25.431V29.5C21.2931 30.0396 21.5292 30.5571 21.9496 30.9386C22.3699 31.3201 22.94 31.5345 23.5345 31.5345H41.4655C42.06 31.5345 42.6301 31.3201 43.0504 30.9386C43.4708 30.5571 43.7069 30.0396 43.7069 29.5V28.4828H48.1897V46.7931ZM23.5345 14.2414H28.0172V18.3103H23.5345V14.2414ZM41.4655 29.5H23.5345V25.431H41.4655V29.5Z" fill="#589CE7"/>
<path d="M63.8804 18.3105H58.2769C57.9797 18.3105 57.6947 18.4177 57.4845 18.6085C57.2743 18.7993 57.1562 19.058 57.1562 19.3278C57.1562 19.5976 57.2743 19.8563 57.4845 20.0471C57.6947 20.2379 57.9797 20.345 58.2769 20.345H63.8804C64.1776 20.345 64.4627 20.2379 64.6728 20.0471C64.883 19.8563 65.0011 19.5976 65.0011 19.3278C65.0011 19.058 64.883 18.7993 64.6728 18.6085C64.4627 18.4177 64.1776 18.3105 63.8804 18.3105Z" fill="#589CE7"/>
<path d="M58.2769 16.2757H63.8804C64.1776 16.2757 64.4627 16.1685 64.6728 15.9778C64.883 15.787 65.0011 15.5282 65.0011 15.2585C65.0011 14.9887 64.883 14.7299 64.6728 14.5392C64.4627 14.3484 64.1776 14.2412 63.8804 14.2412H58.2769C57.9797 14.2412 57.6947 14.3484 57.4845 14.5392C57.2743 14.7299 57.1562 14.9887 57.1562 15.2585C57.1562 15.5282 57.2743 15.787 57.4845 15.9778C57.6947 16.1685 57.9797 16.2757 58.2769 16.2757Z" fill="#589CE7"/>
</svg>
