<svg width="68" height="61" viewBox="0 0 68 61" fill="none" xmlns="http://www.w3.org/2000/svg">
<path d="M48.7228 60.0003H19.2693C17.7884 59.9992 16.3683 59.4115 15.321 58.3661C14.2738 57.3207 13.6848 55.9032 13.6836 54.4247V50.1333C13.6836 49.955 13.7545 49.7839 13.8808 49.6579C14.0071 49.5318 14.1784 49.4609 14.3571 49.4609C14.5357 49.4609 14.707 49.5318 14.8333 49.6579C14.9596 49.7839 15.0305 49.955 15.0305 50.1333V54.4281C15.0318 55.5499 15.4788 56.6255 16.2735 57.4187C17.0681 58.2119 18.1456 58.658 19.2693 58.659H48.7228C49.8128 58.6627 50.8619 58.2455 51.6508 57.4946C52.4397 56.7438 52.9073 55.7175 52.9556 54.6305C52.9636 54.4521 53.0423 54.2843 53.1743 54.1639C53.3062 54.0435 53.4807 53.9804 53.6593 53.9884C53.838 53.9964 54.0061 54.0749 54.1267 54.2067C54.2473 54.3385 54.3105 54.5126 54.3025 54.691C54.2381 56.1236 53.6215 57.4759 52.5817 58.4653C51.5419 59.4547 50.1593 60.0047 48.7228 60.0003Z" fill="#589CE7" stroke="#589CE7" stroke-width="0.4"/>
<path d="M48.7228 59.9999H19.2693C17.7884 59.9988 16.3683 59.411 15.321 58.3657C14.2738 57.3203 13.6848 55.9027 13.6836 54.4243V6.57755C13.6848 5.09908 14.2738 3.68152 15.321 2.63615C16.3683 1.59077 17.7884 1.00302 19.2693 1.00195H48.7228C50.2041 1.00337 51.6243 1.59111 52.6722 2.63629C53.72 3.68148 54.3099 5.09881 54.3126 6.57755L54.2991 54.6576V54.6871C54.2356 56.1198 53.6199 57.4724 52.5807 58.4625C51.5415 59.4525 50.1593 60.0033 48.7228 59.9999ZM19.2693 2.3466C18.1456 2.34767 17.0682 2.79375 16.2735 3.58696C15.4788 4.38016 15.0318 5.4557 15.0305 6.57755V54.4243C15.0318 55.5461 15.4788 56.6217 16.2735 57.4149C17.0682 58.2081 18.1456 58.6541 19.2693 58.6552H48.7228C49.8102 58.6587 50.857 58.2434 51.6453 57.4957C52.4336 56.7481 52.9027 55.7257 52.9549 54.6414L52.9684 6.57755C52.9661 5.45533 52.5182 4.3798 51.7228 3.58671C50.9275 2.79362 49.8497 2.34767 48.7255 2.3466H19.2693Z" fill="#589CE7" stroke="#589CE7" stroke-width="0.4"/>
<path d="M53.6412 11.5461H14.3571C14.1784 11.5461 14.0071 11.4753 13.8808 11.3492C13.7545 11.2231 13.6836 11.0521 13.6836 10.8738V6.5803C13.6848 5.1007 14.2742 3.68205 15.3222 2.63581C16.3702 1.58957 17.7913 1.00125 19.2734 1H48.7255C50.2076 1.00125 51.6287 1.58957 52.6767 2.63581C53.7247 3.68205 54.3141 5.1007 54.3153 6.5803V10.8738C54.3153 10.9621 54.2979 11.0496 54.264 11.1312C54.2301 11.2128 54.1804 11.287 54.1178 11.3494C54.0552 11.4119 53.9809 11.4614 53.8991 11.4951C53.8173 11.5289 53.7297 11.5462 53.6412 11.5461ZM15.0305 10.2014H52.9677V6.5803C52.9677 5.45694 52.5207 4.37958 51.725 3.58524C50.9293 2.79091 49.8501 2.34465 48.7248 2.34465H19.2727C18.1474 2.34465 17.0682 2.79091 16.2726 3.58524C15.4769 4.37958 15.0299 5.45694 15.0299 6.5803L15.0305 10.2014Z" fill="#589CE7" stroke="#589CE7" stroke-width="0.4"/>
<path d="M48.7269 60.0001H19.2734C17.7913 59.9989 16.3702 59.4106 15.3222 58.3643C14.2742 57.3181 13.6848 55.8994 13.6836 54.4198V50.1284C13.6836 49.9501 13.7545 49.7791 13.8808 49.653C14.0071 49.5269 14.1784 49.4561 14.3571 49.4561H53.6405C53.8191 49.4561 53.9904 49.5269 54.1167 49.653C54.243 49.7791 54.314 49.9501 54.314 50.1284V54.4219C54.3122 55.9006 53.723 57.3184 52.6756 58.3641C51.6282 59.4098 50.2082 59.9982 48.7269 60.0001ZM15.0319 50.8007V54.4219C15.0319 55.5452 15.4789 56.6226 16.2746 57.4169C17.0703 58.2112 18.1495 58.6575 19.2747 58.6575H48.7269C49.8521 58.6575 50.9313 58.2112 51.727 57.4169C52.5227 56.6226 52.9697 55.5452 52.9697 54.4219V50.8007H15.0319Z" fill="#589CE7" stroke="#589CE7" stroke-width="0.4"/>
<path d="M39.1722 6.94621H28.8297C28.6511 6.94621 28.4798 6.87538 28.3535 6.74929C28.2272 6.62321 28.1562 6.4522 28.1562 6.27389C28.1562 6.09558 28.2272 5.92457 28.3535 5.79848C28.4798 5.6724 28.6511 5.60156 28.8297 5.60156H39.1722C39.3508 5.60156 39.5221 5.6724 39.6484 5.79848C39.7747 5.92457 39.8456 6.09558 39.8456 6.27389C39.8456 6.4522 39.7747 6.62321 39.6484 6.74929C39.5221 6.87538 39.3508 6.94621 39.1722 6.94621Z" fill="#589CE7" stroke="#589CE7" stroke-width="0.4"/>
<path d="M34.0018 57.6512C33.4226 57.6511 32.8565 57.4795 32.3751 57.1582C31.8936 56.8369 31.5184 56.3802 31.2969 55.846C31.0754 55.3118 31.0175 54.724 31.1306 54.157C31.2437 53.59 31.5227 53.0692 31.9324 52.6604C32.342 52.2517 32.8638 51.9734 33.4319 51.8607C33.9999 51.7481 34.5887 51.8061 35.1237 52.0275C35.6587 52.2488 36.1159 52.6236 36.4376 53.1044C36.7592 53.5852 36.9308 54.1505 36.9307 54.7286C36.9296 55.5037 36.6207 56.2466 36.0716 56.7945C35.5225 57.3424 34.7781 57.6505 34.0018 57.6512ZM34.0018 53.1467C33.6891 53.1468 33.3834 53.2395 33.1234 53.413C32.8635 53.5866 32.6609 53.8332 32.5413 54.1216C32.4218 54.4101 32.3905 54.7275 32.4516 55.0337C32.5127 55.3398 32.6634 55.6211 32.8846 55.8418C33.1057 56.0625 33.3875 56.2128 33.6942 56.2736C34.0009 56.3345 34.3189 56.3032 34.6078 56.1837C34.8967 56.0642 35.1436 55.8618 35.3173 55.6022C35.491 55.3426 35.5838 55.0375 35.5838 54.7253C35.5825 54.3072 35.4153 53.9066 35.1188 53.6113C34.8223 53.3161 34.4206 53.1502 34.0018 53.15V53.1467Z" fill="#589CE7" stroke="#589CE7" stroke-width="0.4"/>
<path d="M37.6016 39.3141H30.3632C30.2559 39.3141 30.1503 39.2885 30.0549 39.2395C29.9595 39.1906 29.8773 39.1195 29.815 39.0324L27.5575 35.8792C27.2078 35.3862 27.0151 34.7995 27.0044 34.1955C26.9937 33.5915 27.1656 32.9984 27.4976 32.4934L32.2583 25.3277C32.4466 25.0438 32.7025 24.811 33.003 24.65C33.3035 24.489 33.6393 24.4049 33.9804 24.4053H33.9851C34.3252 24.4055 34.6598 24.4901 34.959 24.6514C35.2582 24.8128 35.5125 25.0459 35.6991 25.3297L40.4592 32.494C40.7919 32.9984 40.9647 33.5912 40.955 34.195C40.9452 34.7989 40.7534 35.3858 40.4046 35.8792L38.1498 39.0324C38.0875 39.1195 38.0053 39.1906 37.9099 39.2395C37.8146 39.2885 37.7089 39.3141 37.6016 39.3141ZM30.706 37.9694H37.2548L39.3075 35.0986C39.499 34.8273 39.6042 34.5048 39.6095 34.173C39.6148 33.8412 39.5199 33.5155 39.3372 33.2383L34.5757 26.0713C34.5118 25.9722 34.4239 25.8907 34.32 25.8346C34.2162 25.7784 34.0998 25.7493 33.9817 25.7499C33.8627 25.7489 33.7452 25.7778 33.6403 25.8341C33.5355 25.8904 33.4465 25.9722 33.3817 26.072L28.6196 33.2376C28.4374 33.5155 28.3433 33.8417 28.3494 34.1737C28.3555 34.5058 28.4616 34.8283 28.6539 35.0993L30.706 37.9694Z" fill="#589CE7" stroke="#589CE7" stroke-width="0.4"/>
<path d="M37.6583 50.7251H30.2946C30.1159 50.7251 29.9446 50.6543 29.8183 50.5282C29.692 50.4021 29.6211 50.2311 29.6211 50.0528V38.6421C29.6211 38.4637 29.692 38.2927 29.8183 38.1666C29.9446 38.0406 30.1159 37.9697 30.2946 37.9697H37.6583C37.8369 37.9697 38.0082 38.0406 38.1345 38.1666C38.2608 38.2927 38.3317 38.4637 38.3317 38.6421V50.0528C38.3317 50.2311 38.2608 50.4021 38.1345 50.5282C38.0082 50.6543 37.8369 50.7251 37.6583 50.7251ZM30.9694 49.3804H36.9848V39.3144H30.968L30.9694 49.3804Z" fill="#589CE7" stroke="#589CE7" stroke-width="0.4"/>
<path d="M33.9821 32.0859C33.8034 32.0859 33.6321 32.0151 33.5058 31.889C33.3795 31.7629 33.3086 31.5919 33.3086 31.4136V25.1186C33.3086 24.9403 33.3795 24.7693 33.5058 24.6432C33.6321 24.5171 33.8034 24.4463 33.9821 24.4463C34.1607 24.4463 34.332 24.5171 34.4583 24.6432C34.5846 24.7693 34.6555 24.9403 34.6555 25.1186V31.4136C34.6555 31.5919 34.5846 31.7629 34.4583 31.889C34.332 32.0151 34.1607 32.0859 33.9821 32.0859Z" fill="#589CE7" stroke="#589CE7" stroke-width="0.4"/>
<path d="M33.9753 35.1194C33.5416 35.1189 33.1178 34.99 32.7575 34.749C32.3972 34.508 32.1165 34.1658 31.951 33.7655C31.7856 33.3653 31.7427 32.9251 31.8278 32.5006C31.913 32.0761 32.1223 31.6863 32.4293 31.3805C32.7364 31.0747 33.1273 30.8667 33.5528 30.7828C33.9783 30.6988 34.4191 30.7427 34.8196 30.9089C35.2201 31.0751 35.5622 31.3561 35.8027 31.7163C36.0432 32.0766 36.1713 32.5 36.1708 32.933C36.1705 33.2205 36.1135 33.5051 36.003 33.7706C35.8925 34.0361 35.7307 34.2773 35.5268 34.4803C35.3229 34.6834 35.081 34.8443 34.8147 34.954C34.5485 35.0636 34.2633 35.1198 33.9753 35.1194ZM33.9753 32.0859C33.8082 32.0864 33.645 32.1363 33.5063 32.2293C33.3677 32.3223 33.2597 32.4542 33.196 32.6084C33.1323 32.7626 33.1158 32.9321 33.1485 33.0957C33.1812 33.2593 33.2617 33.4095 33.3798 33.5274C33.498 33.6453 33.6485 33.7257 33.8123 33.7584C33.9761 33.7911 34.146 33.7746 34.3004 33.711C34.4549 33.6474 34.587 33.5396 34.6802 33.4011C34.7733 33.2627 34.8233 33.0998 34.8238 32.933C34.8241 32.8217 34.8023 32.7114 34.7598 32.6085C34.7172 32.5056 34.6548 32.4121 34.5759 32.3334C34.4971 32.2547 34.4034 32.1923 34.3003 32.1498C34.1973 32.1073 34.0868 32.0856 33.9753 32.0859Z" fill="#589CE7" stroke="#589CE7" stroke-width="0.4"/>
<path d="M46.2509 30.7953C46.0897 30.7952 45.9339 30.7373 45.8118 30.6321C45.6897 30.527 45.6094 30.3817 45.5855 30.2225C45.1994 27.7436 44.0311 25.4524 42.2506 23.6822C40.47 21.9119 38.1702 20.755 35.6855 20.3796C35.5088 20.3539 35.3495 20.2591 35.2428 20.1161C35.1361 19.9731 35.0906 19.7937 35.1164 19.6172C35.1283 19.5294 35.1576 19.4449 35.2026 19.3686C35.2476 19.2923 35.3074 19.2257 35.3786 19.1728C35.4497 19.1198 35.5307 19.0816 35.6169 19.0604C35.703 19.0392 35.7925 19.0353 35.8802 19.0491C38.6504 19.4677 41.2146 20.7577 43.1998 22.7315C45.185 24.7052 46.4876 27.2597 46.9183 30.0235C46.9314 30.1108 46.9271 30.1998 46.9058 30.2855C46.8844 30.3712 46.8463 30.4518 46.7937 30.5228C46.7411 30.5938 46.675 30.6537 46.5992 30.6992C46.5234 30.7447 46.4394 30.7748 46.3519 30.7879C46.3185 30.7927 46.2847 30.7952 46.2509 30.7953Z" fill="#589CE7" stroke="#589CE7" stroke-width="0.4"/>
<path d="M21.7054 30.7946C21.6716 30.7945 21.6378 30.7918 21.6044 30.7865C21.4279 30.76 21.2691 30.6645 21.163 30.5212C21.057 30.3778 21.0122 30.1983 21.0387 30.0221C21.4722 27.2519 22.7811 24.6926 24.7745 22.7175C26.7678 20.7425 29.3413 19.455 32.1193 19.043C32.2068 19.0304 32.296 19.0352 32.3817 19.057C32.4674 19.0788 32.548 19.1173 32.6188 19.1702C32.6896 19.2231 32.7493 19.2894 32.7945 19.3654C32.8396 19.4413 32.8694 19.5254 32.882 19.6128C32.8946 19.7002 32.8898 19.7892 32.8679 19.8748C32.8461 19.9604 32.8075 20.0408 32.7545 20.1115C32.7015 20.1822 32.6351 20.2418 32.559 20.2869C32.483 20.3319 32.3988 20.3616 32.3112 20.3742C29.8191 20.7434 27.5104 21.8981 25.7221 23.6698C23.9339 25.4415 22.7596 27.7374 22.3708 30.2224C22.3468 30.3815 22.2665 30.5267 22.1444 30.6317C22.0223 30.7366 21.8665 30.7944 21.7054 30.7946Z" fill="#589CE7" stroke="#589CE7" stroke-width="0.4"/>
<path d="M46.2498 20.2597H35.7867C35.6081 20.2597 35.4368 20.1889 35.3105 20.0628C35.1842 19.9367 35.1133 19.7657 35.1133 19.5874C35.1133 19.4091 35.1842 19.238 35.3105 19.112C35.4368 18.9859 35.6081 18.915 35.7867 18.915H46.2498C46.4284 18.915 46.5997 18.9859 46.726 19.112C46.8523 19.238 46.9232 19.4091 46.9232 19.5874C46.9232 19.7657 46.8523 19.9367 46.726 20.0628C46.5997 20.1889 46.4284 20.2597 46.2498 20.2597Z" fill="#589CE7" stroke="#589CE7" stroke-width="0.4"/>
<path d="M32.2084 20.2597H21.7555C21.5769 20.2597 21.4056 20.1889 21.2793 20.0628C21.153 19.9367 21.082 19.7657 21.082 19.5874C21.082 19.4091 21.153 19.238 21.2793 19.112C21.4056 18.9859 21.5769 18.915 21.7555 18.915H32.2084C32.387 18.915 32.5583 18.9859 32.6846 19.112C32.8109 19.238 32.8819 19.4091 32.8819 19.5874C32.8819 19.7657 32.8109 19.9367 32.6846 20.0628C32.5583 20.1889 32.387 20.2597 32.2084 20.2597Z" fill="#589CE7" stroke="#589CE7" stroke-width="0.4"/>
<path d="M48.0339 22.049C47.5465 22.0489 47.0701 21.9044 46.6649 21.634C46.2598 21.3636 45.944 20.9793 45.7576 20.5297C45.5712 20.0802 45.5226 19.5855 45.6178 19.1084C45.713 18.6312 45.9478 18.1929 46.2925 17.849C46.6373 17.505 47.0764 17.2708 47.5544 17.176C48.0325 17.0813 48.5279 17.1301 48.9782 17.3164C49.4284 17.5027 49.8132 17.8182 50.0838 18.2228C50.3545 18.6274 50.4989 19.1031 50.4988 19.5896C50.4982 20.242 50.2383 20.8674 49.7761 21.3285C49.314 21.7897 48.6873 22.0488 48.0339 22.049ZM48.0339 18.4742C47.8129 18.4744 47.597 18.5399 47.4133 18.6625C47.2297 18.7852 47.0866 18.9594 47.0021 19.1632C46.9176 19.3671 46.8956 19.5913 46.9388 19.8076C46.982 20.024 47.0885 20.2226 47.2447 20.3786C47.401 20.5345 47.6001 20.6406 47.8168 20.6836C48.0335 20.7266 48.2581 20.7045 48.4623 20.62C48.6664 20.5356 48.8408 20.3926 48.9636 20.2092C49.0863 20.0258 49.1518 19.8102 49.1518 19.5896C49.1516 19.2937 49.0338 19.01 48.8241 18.8009C48.6145 18.5917 48.3302 18.4742 48.0339 18.4742Z" fill="#589CE7" stroke="#589CE7" stroke-width="0.4"/>
<path d="M46.3932 34.3664C45.9059 34.3662 45.4295 34.2218 45.0244 33.9515C44.6192 33.6811 44.3035 33.2968 44.1171 32.8473C43.9307 32.3978 43.882 31.9031 43.9771 31.426C44.0723 30.9488 44.307 30.5106 44.6517 30.1666C44.9963 29.8226 45.4354 29.5884 45.9134 29.4935C46.3914 29.3986 46.8868 29.4474 47.3371 29.6336C47.7873 29.8198 48.1721 30.1351 48.4429 30.5397C48.7136 30.9442 48.8581 31.4198 48.8581 31.9063C48.8576 32.5587 48.5977 33.1842 48.1355 33.6455C47.6734 34.1067 47.0467 34.366 46.3932 34.3664ZM46.3932 30.7909C46.1723 30.7911 45.9563 30.8566 45.7727 30.9792C45.589 31.1019 45.4459 31.2761 45.3615 31.48C45.277 31.6838 45.255 31.908 45.2982 32.1243C45.3414 32.3407 45.4478 32.5393 45.6041 32.6953C45.7604 32.8512 45.9595 32.9574 46.1762 33.0003C46.3929 33.0433 46.6175 33.0212 46.8216 32.9367C47.0257 32.8523 47.2002 32.7093 47.3229 32.5259C47.4457 32.3425 47.5112 32.1269 47.5112 31.9063C47.511 31.6104 47.3931 31.3267 47.1835 31.1176C46.9739 30.9084 46.6896 30.7909 46.3932 30.7909Z" fill="#589CE7" stroke="#589CE7" stroke-width="0.4"/>
<path d="M21.571 34.3664C21.0836 34.3666 20.607 34.2226 20.2016 33.9524C19.7962 33.6823 19.4802 33.2982 19.2934 32.8487C19.1067 32.3992 19.0577 31.9045 19.1527 31.4272C19.2476 30.9499 19.4822 30.5115 19.8267 30.1673C20.1713 29.8231 20.6104 29.5887 21.0884 29.4937C21.5665 29.3986 22.062 29.4473 22.5124 29.6334C22.9628 29.8196 23.3477 30.1349 23.6185 30.5395C23.8894 30.944 24.0339 31.4197 24.0339 31.9063C24.0332 32.5583 23.7735 33.1834 23.3118 33.6446C22.8502 34.1057 22.2241 34.3653 21.571 34.3664ZM21.571 30.7909C21.35 30.7907 21.1339 30.8559 20.9499 30.9783C20.766 31.1007 20.6226 31.2748 20.5378 31.4786C20.4531 31.6823 20.4308 31.9067 20.4737 32.1231C20.5167 32.3396 20.623 32.5384 20.7792 32.6946C20.9354 32.8507 21.1345 32.957 21.3512 33.0002C21.568 33.0433 21.7927 33.0213 21.9969 32.9369C22.2012 32.8526 22.3758 32.7096 22.4986 32.5261C22.6214 32.3427 22.687 32.127 22.687 31.9063C22.6866 31.6109 22.569 31.3276 22.3598 31.1185C22.1507 30.9094 21.867 30.7917 21.571 30.7909Z" fill="#589CE7" stroke="#589CE7" stroke-width="0.4"/>
<path d="M34.0011 22.0493C33.3766 22.0476 32.7759 21.81 32.3197 21.3842C31.8636 20.9584 31.5858 20.3759 31.5423 19.754C31.5364 19.6989 31.5342 19.6434 31.5355 19.588C31.5462 18.943 31.8104 18.3281 32.271 17.8757C32.7317 17.4234 33.3519 17.1699 33.9981 17.1699C34.6442 17.1699 35.2645 17.4234 35.7251 17.8757C36.1858 18.3281 36.4499 18.943 36.4606 19.588C36.4613 19.658 36.4579 19.7281 36.4505 19.7977C36.4004 20.4117 36.1205 20.9842 35.6666 21.4015C35.2127 21.8187 34.6181 22.05 34.0011 22.0493ZM34.0011 18.4766C33.7052 18.4761 33.4212 18.5928 33.2114 18.8012C33.0017 19.0096 32.8834 19.2926 32.8825 19.588C32.8825 19.6007 32.8825 19.6505 32.8865 19.6633C32.9054 19.9442 33.0304 20.2075 33.2361 20.4C33.4419 20.5926 33.7132 20.7 33.9952 20.7007C34.2772 20.7014 34.549 20.5953 34.7557 20.4037C34.9625 20.2122 35.0887 19.9495 35.109 19.6686L35.113 19.588C35.1128 19.2935 34.9957 19.0111 34.7872 18.8028C34.5788 18.5944 34.2961 18.4771 34.0011 18.4766Z" fill="#589CE7" stroke="#589CE7" stroke-width="0.4"/>
<path d="M19.9642 22.049C19.4768 22.049 19.0004 21.9047 18.5951 21.6343C18.1899 21.364 17.874 20.9798 17.6875 20.5302C17.501 20.0807 17.4523 19.586 17.5474 19.1088C17.6425 18.6315 17.8773 18.1932 18.222 17.8492C18.5667 17.5052 19.0058 17.2709 19.4839 17.1761C19.9619 17.0812 20.4574 17.1301 20.9077 17.3164C21.358 17.5027 21.7428 17.8181 22.0135 18.2227C22.2842 18.6273 22.4286 19.103 22.4284 19.5896C22.4277 20.2418 22.1679 20.867 21.7059 21.3281C21.2439 21.7892 20.6175 22.0485 19.9642 22.049ZM19.9642 18.4742C19.7432 18.4742 19.5272 18.5396 19.3435 18.6622C19.1598 18.7848 19.0166 18.959 18.932 19.1628C18.8474 19.3666 18.8253 19.5909 18.8684 19.8072C18.9115 20.0236 19.0179 20.2223 19.1742 20.3783C19.3304 20.5343 19.5295 20.6405 19.7463 20.6836C19.963 20.7266 20.1876 20.7045 20.3918 20.6201C20.5959 20.5357 20.7704 20.3927 20.8932 20.2093C21.016 20.0259 21.0815 19.8102 21.0815 19.5896C21.0813 19.2939 20.9636 19.0103 20.7541 18.8011C20.5446 18.592 20.2605 18.4744 19.9642 18.4742Z" fill="#589CE7" stroke="#589CE7" stroke-width="0.4"/>
<path d="M47.4521 27.1761C47.3193 27.1763 47.1895 27.1374 47.0788 27.0642C46.9682 26.9911 46.8817 26.8869 46.8301 26.7647C46.7786 26.6426 46.7644 26.508 46.7893 26.3779C46.8141 26.2477 46.8769 26.1278 46.9699 26.0331L50.876 22.0415C50.9388 21.9775 51.0139 21.9267 51.0967 21.8921C51.1795 21.8574 51.2684 21.8397 51.3582 21.8398H57.8955C58.0742 21.8398 58.2455 21.9107 58.3718 22.0368C58.4981 22.1628 58.569 22.3339 58.569 22.5122C58.569 22.6905 58.4981 22.8615 58.3718 22.9876C58.2455 23.1137 58.0742 23.1845 57.8955 23.1845H51.6397L47.9356 26.9724C47.8728 27.0369 47.7976 27.0882 47.7145 27.1232C47.6315 27.1582 47.5422 27.1762 47.4521 27.1761Z" fill="#589CE7" stroke="#589CE7" stroke-width="0.4"/>
<path d="M66.3261 27.395H57.8922C57.7136 27.395 57.5423 27.3242 57.416 27.1981C57.2897 27.072 57.2188 26.901 57.2188 26.7227V18.3032C57.2188 18.1249 57.2897 17.9539 57.416 17.8278C57.5423 17.7017 57.7136 17.6309 57.8922 17.6309H66.3261C66.5047 17.6309 66.676 17.7017 66.8023 17.8278C66.9286 17.9539 66.9995 18.1249 66.9995 18.3032V26.7227C66.9995 26.901 66.9286 27.072 66.8023 27.1981C66.676 27.3242 66.5047 27.395 66.3261 27.395ZM58.5657 26.0504H65.6526V18.9755H58.5657V26.0504Z" fill="#589CE7" stroke="#589CE7" stroke-width="0.4"/>
<path d="M64.5759 21.956H59.6461C59.4675 21.956 59.2962 21.8851 59.1699 21.7591C59.0436 21.633 58.9727 21.462 58.9727 21.2837C58.9727 21.1053 59.0436 20.9343 59.1699 20.8082C59.2962 20.6822 59.4675 20.6113 59.6461 20.6113H64.5759C64.7545 20.6113 64.9258 20.6822 65.0521 20.8082C65.1784 20.9343 65.2494 21.1053 65.2494 21.2837C65.2494 21.462 65.1784 21.633 65.0521 21.7591C64.9258 21.8851 64.7545 21.956 64.5759 21.956Z" fill="#589CE7" stroke="#589CE7" stroke-width="0.4"/>
<path d="M64.5759 24.415H59.6461C59.4675 24.415 59.2962 24.3441 59.1699 24.218C59.0436 24.092 58.9727 23.9209 58.9727 23.7426C58.9727 23.5643 59.0436 23.3933 59.1699 23.2672C59.2962 23.1411 59.4675 23.0703 59.6461 23.0703H64.5759C64.7545 23.0703 64.9258 23.1411 65.0521 23.2672C65.1784 23.3933 65.2494 23.5643 65.2494 23.7426C65.2494 23.9209 65.1784 24.092 65.0521 24.218C64.9258 24.3441 64.7545 24.415 64.5759 24.415Z" fill="#589CE7" stroke="#589CE7" stroke-width="0.4"/>
<path d="M20.5485 44.8007C20.4588 44.8008 20.3701 44.783 20.2874 44.7484C20.2047 44.7137 20.1298 44.663 20.067 44.599L16.3629 40.8105H10.1071C9.92845 40.8105 9.75715 40.7396 9.63085 40.6136C9.50455 40.4875 9.43359 40.3165 9.43359 40.1381C9.43359 39.9598 9.50455 39.7888 9.63085 39.6627C9.75715 39.5367 9.92845 39.4658 10.1071 39.4658H16.6437C16.7335 39.4657 16.8224 39.4834 16.9053 39.518C16.9881 39.5527 17.0631 39.6035 17.126 39.6675L21.0321 43.6584C21.125 43.7531 21.1878 43.873 21.2127 44.0032C21.2375 44.1333 21.2233 44.2679 21.1718 44.39C21.1203 44.5122 21.0337 44.6164 20.9231 44.6895C20.8124 44.7627 20.6826 44.8016 20.5499 44.8014L20.5485 44.8007Z" fill="#589CE7" stroke="#589CE7" stroke-width="0.4"/>
<path d="M10.1073 45.0234H1.67347C1.49485 45.0234 1.32355 44.9526 1.19725 44.8265C1.07095 44.7004 1 44.5294 1 44.3511V35.9282C1 35.7499 1.07095 35.5789 1.19725 35.4528C1.32355 35.3267 1.49485 35.2559 1.67347 35.2559H10.1073C10.2859 35.2559 10.4572 35.3267 10.5835 35.4528C10.7098 35.5789 10.7808 35.7499 10.7808 35.9282V44.3511C10.7808 44.5294 10.7098 44.7004 10.5835 44.8265C10.4572 44.9526 10.2859 45.0234 10.1073 45.0234ZM2.34694 43.6788H9.43385V36.6005H2.34694V43.6788Z" fill="#589CE7" stroke="#589CE7" stroke-width="0.4"/>
<path d="M8.35326 39.5771H3.42347C3.24485 39.5771 3.07355 39.5062 2.94725 39.3802C2.82095 39.2541 2.75 39.0831 2.75 38.9047C2.75 38.7264 2.82095 38.5554 2.94725 38.4293C3.07355 38.3033 3.24485 38.2324 3.42347 38.2324H8.35326C8.53187 38.2324 8.70317 38.3033 8.82947 38.4293C8.95577 38.5554 9.02673 38.7264 9.02673 38.9047C9.02673 39.0831 8.95577 39.2541 8.82947 39.3802C8.70317 39.5062 8.53187 39.5771 8.35326 39.5771Z" fill="#589CE7" stroke="#589CE7" stroke-width="0.4"/>
<path d="M8.35326 42.04H3.42347C3.24485 42.04 3.07355 41.9691 2.94725 41.843C2.82095 41.717 2.75 41.5459 2.75 41.3676C2.75 41.1893 2.82095 41.0183 2.94725 40.8922C3.07355 40.7661 3.24485 40.6953 3.42347 40.6953H8.35326C8.53187 40.6953 8.70317 40.7661 8.82947 40.8922C8.95577 41.0183 9.02673 41.1893 9.02673 41.3676C9.02673 41.5459 8.95577 41.717 8.82947 41.843C8.70317 41.9691 8.53187 42.04 8.35326 42.04Z" fill="#589CE7" stroke="#589CE7" stroke-width="0.4"/>
</svg>
