<svg width="64" height="61" viewBox="0 0 64 61" fill="none" xmlns="http://www.w3.org/2000/svg">
<path d="M34.8991 5.33398H26.6291C26.1691 5.33398 25.7891 5.70159 25.7891 6.14658C25.7891 6.59157 26.1691 6.95917 26.6291 6.95917H34.8991C35.3591 6.95917 35.7391 6.59157 35.7391 6.14658C35.7391 5.70159 35.3591 5.33398 34.8991 5.33398Z" fill="#589CE7" stroke="#589CE7" stroke-width="0.4"/>
<path d="M58.7603 13.8273H50.7103V10.5093C50.7103 10.4996 50.7203 10.4899 50.7203 10.4802C50.7203 10.4706 50.7103 10.4609 50.7103 10.4512V6.4463C50.7103 3.44745 48.1903 1 45.0903 1H16.4503C13.3503 1 10.8303 3.43778 10.8303 6.4463V10.4609C10.8303 10.4706 10.8203 10.4802 10.8203 10.4899C10.8203 10.4996 10.8303 10.5093 10.8303 10.5189V13.6629C10.8303 14.1079 11.2103 14.4755 11.6703 14.4755C12.1303 14.4755 12.5103 14.1079 12.5103 13.6629V11.3025H49.0203V13.837H33.7603C31.3603 13.837 29.4103 15.7234 29.4103 18.0451V42.2391C29.4103 44.5607 31.3603 46.4471 33.7603 46.4471H49.0203V48.7688H12.5203V41.7844C12.5203 41.3394 12.1403 40.9718 11.6803 40.9718C11.2203 40.9718 10.8403 41.3394 10.8403 41.7844V49.5524C10.8403 49.5621 10.8303 49.5717 10.8303 49.5814C10.8303 49.5911 10.8403 49.6008 10.8403 49.6104V54.5634C10.8403 57.5622 13.3603 60 16.4603 60H45.1003C45.4503 60 45.7603 59.971 46.0403 59.9226L45.8803 59.1294L46.1903 59.9033C46.3803 59.8742 46.5503 59.8259 46.7203 59.7775C47.7503 59.4873 48.6603 58.9069 49.3203 58.162C49.4103 58.0653 49.5003 57.9782 49.5903 57.8524C49.7403 57.659 49.8803 57.4558 50.0303 57.185C50.0803 57.0979 50.1203 57.0205 50.1503 56.9721C50.3203 56.6432 50.4603 56.2659 50.5803 55.821C50.6103 55.6662 50.6403 55.5114 50.6603 55.3469C50.6603 55.3373 50.6603 55.3373 50.6603 55.3276C50.6803 55.2115 50.7003 55.0858 50.7003 54.96C50.7103 54.8923 50.7103 54.8439 50.7103 54.7955C50.7103 54.7762 50.7103 54.7568 50.7103 54.7278V49.6685C50.7103 49.6395 50.7303 49.6201 50.7303 49.5911C50.7303 49.5621 50.7203 49.5427 50.7103 49.5137V46.4568H58.7703C61.1703 46.4568 63.1203 44.5704 63.1203 42.2487V18.0354C63.1103 15.7137 61.1603 13.8273 58.7603 13.8273ZM12.5103 9.66765V6.4463C12.5103 4.33743 14.2803 2.62518 16.4503 2.62518H45.0903C47.2603 2.62518 49.0303 4.33743 49.0303 6.4463V9.67732H12.5103V9.66765ZM49.0103 54.7278C49.0003 54.7665 49.0003 54.8052 49.0003 54.8536C49.0003 54.931 48.9903 55.0084 48.9703 55.0858C48.9703 55.1051 48.9603 55.1245 48.9603 55.1535C48.9503 55.2599 48.9303 55.3663 48.9103 55.4437C48.8303 55.7436 48.7303 56.0048 48.6003 56.2659C48.5903 56.295 48.5703 56.3337 48.5503 56.3627C48.5403 56.3724 48.5003 56.4497 48.5003 56.4594C48.4103 56.6142 48.3103 56.7496 48.2203 56.8754C48.1903 56.9141 48.1503 56.9528 48.0703 57.0398C47.5903 57.5912 46.9503 57.9975 46.2203 58.2007C46.1003 58.2394 45.9903 58.2684 45.8703 58.2878L45.7103 58.3168C45.5303 58.3458 45.3203 58.3651 45.0803 58.3651H16.4503C14.2803 58.3651 12.5103 56.6529 12.5103 54.5537V50.3843H49.0103V54.7085C49.0103 54.7182 49.0103 54.7278 49.0103 54.7278ZM61.4303 42.2294C61.4303 43.6514 60.2303 44.8123 58.7603 44.8123H49.8803C49.8703 44.8123 49.8703 44.8123 49.8603 44.8123C49.8503 44.8123 49.8503 44.8123 49.8403 44.8123H33.7603C32.2903 44.8123 31.0903 43.6514 31.0903 42.2294V18.0354C31.0903 16.6134 32.2903 15.4525 33.7603 15.4525H58.7603C60.2303 15.4525 61.4303 16.6134 61.4303 18.0354V42.2294Z" fill="#589CE7" stroke="#589CE7" stroke-width="0.4"/>
<path d="M58.1291 17.832H34.3791C33.9191 17.832 33.5391 18.1996 33.5391 18.6446V24.5262C33.5391 24.9712 33.9191 25.3388 34.3791 25.3388H58.1291C58.5891 25.3388 58.9691 24.9712 58.9691 24.5262V18.6446C58.9691 18.1996 58.5891 17.832 58.1291 17.832ZM57.2891 23.7137H35.2191V19.4572H57.2891V23.7137Z" fill="#589CE7" stroke="#589CE7" stroke-width="0.4"/>
<path d="M58.1313 27.0703H49.8713C49.4113 27.0703 49.0312 27.4379 49.0312 27.8829V33.7645C49.0312 34.2095 49.4113 34.5771 49.8713 34.5771H58.1313C58.5913 34.5771 58.9712 34.2095 58.9712 33.7645V27.8829C58.9712 27.4379 58.5913 27.0703 58.1313 27.0703ZM57.2913 32.9519H50.7113V28.6955H57.2913V32.9519Z" fill="#589CE7" stroke="#589CE7" stroke-width="0.4"/>
<path d="M42.6391 27.0703H34.3791C33.9191 27.0703 33.5391 27.4379 33.5391 27.8829V33.7645C33.5391 34.2095 33.9191 34.5771 34.3791 34.5771H42.6391C43.0991 34.5771 43.4791 34.2095 43.4791 33.7645V27.8829C43.4791 27.4379 43.0991 27.0703 42.6391 27.0703ZM41.7991 32.9519H35.2191V28.6955H41.7991V32.9519Z" fill="#589CE7" stroke="#589CE7" stroke-width="0.4"/>
<path d="M12.6205 33.223C15.6805 33.1843 18.1505 30.7368 18.1205 27.7767C18.0805 24.8359 15.5905 22.4658 12.5505 22.4658C12.5305 22.4658 12.5105 22.4658 12.4905 22.4658C9.42048 22.5045 6.96048 24.9423 7.00048 27.9024C7.02048 29.3438 7.61048 30.6885 8.68048 31.6945C9.73048 32.6813 11.1005 33.223 12.5605 33.223C12.5705 33.223 12.5905 33.223 12.6205 33.223ZM8.67048 27.8831C8.64048 25.8129 10.3605 24.1104 12.5005 24.091C12.5105 24.091 12.5305 24.091 12.5405 24.091C14.6605 24.091 16.4005 25.7452 16.4305 27.796C16.4505 29.8662 14.7305 31.5688 12.5905 31.5978C11.5605 31.6172 10.5805 31.2302 9.84048 30.524C9.10048 29.8275 8.68048 28.8892 8.67048 27.8831Z" fill="#589CE7" stroke="#589CE7" stroke-width="0.4"/>
<path d="M11.8801 38.8923L13.4901 38.8729C14.3601 38.8633 15.1301 38.2925 15.3701 37.4799L15.7101 36.2997C16.0801 36.174 16.4401 36.0289 16.7901 35.8547L17.9101 36.4352C18.6801 36.8318 19.6401 36.6867 20.2501 36.0772L21.3801 34.9551C21.9901 34.3553 22.1101 33.417 21.6901 32.6817L21.0701 31.608C21.2301 31.2887 21.3601 30.9598 21.4801 30.6212C21.4901 30.6019 21.4901 30.5826 21.5001 30.5632L22.7201 30.1956C23.5501 29.9441 24.1201 29.1895 24.1101 28.3479L24.0901 26.7905C24.0801 25.9488 23.4901 25.204 22.6501 24.9718L21.4201 24.6332C21.4101 24.5945 21.3901 24.5558 21.3801 24.5171C21.2601 24.1979 21.1201 23.8883 20.9601 23.5788L21.5501 22.4953C21.9601 21.7504 21.8101 20.8218 21.1901 20.2317L20.0501 19.1869C19.4301 18.5968 18.4601 18.4711 17.7001 18.887L16.5501 19.5158L15.5201 19.1192L15.1401 17.91C14.8901 17.1071 14.1101 16.5653 13.2301 16.5557L11.6201 16.575C10.7501 16.5847 9.98013 17.1554 9.74013 17.9584L9.39013 19.1482C9.02013 19.274 8.66013 19.4288 8.32013 19.5932L7.21013 19.0128C6.44013 18.6162 5.47013 18.7613 4.86013 19.361L3.74013 20.4735C3.13013 21.0733 3.01013 22.0116 3.44013 22.7468L4.05013 23.8013C3.87013 24.1495 3.73013 24.5075 3.61013 24.8557L2.39013 25.2233C1.56013 25.4748 0.99013 26.2294 1.00013 27.071L1.02013 28.6285C1.03013 29.4701 1.62013 30.215 2.45013 30.4374L3.68013 30.776C3.81013 31.134 3.97013 31.4822 4.14013 31.8208L3.55013 32.8946C3.14013 33.6394 3.29013 34.5681 3.91013 35.1582L5.05013 36.2514C5.67013 36.8414 6.64013 36.9672 7.39013 36.5512L8.50013 35.9515C8.85013 36.1159 9.21013 36.2514 9.58013 36.3771L9.95013 37.5476C10.2001 38.3409 10.9801 38.8923 11.8401 38.8923C11.8601 38.8923 11.8701 38.8923 11.8801 38.8923ZM11.5701 37.0736L11.0701 35.4871C10.9901 35.2259 10.7701 35.0228 10.4901 34.9454C9.93013 34.7906 9.39013 34.5778 8.89013 34.3166C8.77013 34.2489 8.63013 34.2199 8.49013 34.2199C8.35013 34.2199 8.21013 34.2586 8.08013 34.3263L6.58013 35.1389C6.47013 35.1969 6.32013 35.1776 6.23013 35.0905L5.08013 34.007C4.99013 33.92 4.96013 33.7749 5.03013 33.6685L5.83013 32.2077C5.96013 31.9659 5.96013 31.666 5.82013 31.4242C5.53013 30.9405 5.30013 30.4181 5.13013 29.8764C5.05013 29.6055 4.83013 29.4024 4.56013 29.3346L2.91013 28.88C2.78013 28.8413 2.70013 28.7349 2.69013 28.6091L2.67013 27.0516C2.67013 26.9259 2.75013 26.8098 2.88013 26.7711L4.52013 26.2777C4.79013 26.2004 5.01013 25.9875 5.08013 25.7167C5.22013 25.204 5.44013 24.7009 5.73013 24.1689C5.87013 23.927 5.86013 23.6272 5.72013 23.3853L4.88013 21.9439C4.82013 21.8375 4.83013 21.6924 4.93013 21.6053L6.05013 20.4929C6.14013 20.4058 6.29013 20.3768 6.40013 20.4445L7.91013 21.2281C8.16013 21.3635 8.47013 21.3538 8.72013 21.2184C9.22013 20.9379 9.75013 20.725 10.3101 20.5509C10.5801 20.4735 10.7901 20.2607 10.8701 19.9995L11.3501 18.3937C11.3901 18.2776 11.5001 18.1905 11.6301 18.1905L13.2401 18.1712C13.3701 18.1712 13.4901 18.2486 13.5301 18.3743L14.0301 19.9608C14.1001 20.193 14.2801 20.3865 14.5201 20.4735L16.3001 21.1604C16.5401 21.2474 16.8001 21.2377 17.0201 21.112L18.5201 20.2994C18.6301 20.2317 18.7801 20.251 18.8701 20.3478L20.0201 21.4409C20.1101 21.528 20.1301 21.6731 20.0701 21.7795L19.2601 23.2402C19.1201 23.482 19.1301 23.7819 19.2701 24.0238C19.4801 24.372 19.6501 24.7396 19.7901 25.0976C19.8401 25.2523 19.9001 25.4071 19.9501 25.5619C20.0301 25.8231 20.2501 26.0359 20.5201 26.1036L22.1801 26.5583C22.3101 26.597 22.3901 26.7034 22.4001 26.8292L22.4201 28.3866C22.4201 28.5124 22.3401 28.6285 22.2101 28.6672L20.5701 29.1508C20.5301 29.1605 20.4901 29.1799 20.4601 29.1895C20.2401 29.2863 20.0701 29.4797 20.0001 29.7119C19.9601 29.8474 19.9201 29.9731 19.8801 30.0989C19.7401 30.4955 19.5701 30.8824 19.3601 31.2597C19.2301 31.5016 19.2301 31.7918 19.3701 32.0336L20.2101 33.475C20.2701 33.5814 20.2501 33.7265 20.1601 33.8136L19.0501 34.9454C18.9601 35.0325 18.8101 35.0615 18.7001 34.9938L17.1801 34.2102C16.9301 34.0844 16.6201 34.0844 16.3701 34.2199C15.8601 34.5004 15.3301 34.7132 14.7901 34.8777C14.5101 34.9551 14.3001 35.1679 14.2201 35.4388L13.7501 37.0446C13.7101 37.1704 13.6001 37.2477 13.4701 37.2574L11.8601 37.2671C11.7001 37.2671 11.6101 37.1897 11.5701 37.0736Z" fill="#589CE7" stroke="#589CE7" stroke-width="0.4"/>
<path d="M42.6391 36.4541H34.3791C33.9191 36.4541 33.5391 36.8217 33.5391 37.2667C33.5391 37.7117 33.9191 38.0793 34.3791 38.0793H42.6391C43.0991 38.0793 43.4791 37.7117 43.4791 37.2667C43.4791 36.812 43.0991 36.4541 42.6391 36.4541Z" fill="#589CE7" stroke="#589CE7" stroke-width="0.4"/>
<path d="M39.9708 39.9658H34.3908C33.9308 39.9658 33.5508 40.3334 33.5508 40.7784C33.5508 41.2234 33.9308 41.591 34.3908 41.591H39.9708C40.4308 41.591 40.8108 41.2234 40.8108 40.7784C40.8008 40.3237 40.4308 39.9658 39.9708 39.9658Z" fill="#589CE7" stroke="#589CE7" stroke-width="0.4"/>
<path d="M58.1313 36.4541H49.8713C49.4113 36.4541 49.0312 36.8217 49.0312 37.2667C49.0312 37.7117 49.4113 38.0793 49.8713 38.0793H58.1313C58.5913 38.0793 58.9712 37.7117 58.9712 37.2667C58.9712 36.812 58.5913 36.4541 58.1313 36.4541Z" fill="#589CE7" stroke="#589CE7" stroke-width="0.4"/>
<path d="M55.4513 39.9658H49.8713C49.4113 39.9658 49.0312 40.3334 49.0312 40.7784C49.0312 41.2234 49.4113 41.591 49.8713 41.591H55.4513C55.9113 41.591 56.2913 41.2234 56.2913 40.7784C56.2913 40.3237 55.9213 39.9658 55.4513 39.9658Z" fill="#589CE7" stroke="#589CE7" stroke-width="0.4"/>
<path d="M30.7717 51.71C29.2517 51.71 28.0117 52.9095 28.0117 54.3799C28.0117 55.8503 29.2517 57.0499 30.7717 57.0499C32.2917 57.0499 33.5317 55.8503 33.5317 54.3799C33.5317 52.9095 32.2917 51.71 30.7717 51.71ZM30.7717 55.4247C30.1817 55.4247 29.6917 54.9603 29.6917 54.3799C29.6917 53.7995 30.1717 53.3351 30.7717 53.3351C31.3717 53.3351 31.8517 53.7995 31.8517 54.3799C31.8517 54.9507 31.3617 55.4247 30.7717 55.4247Z" fill="#589CE7" stroke="#589CE7" stroke-width="0.4"/>
</svg>
