<svg width="66" height="61" viewBox="0 0 66 61" fill="none" xmlns="http://www.w3.org/2000/svg">
<path d="M64.2136 11.6522H54.6744V1.76555C54.6744 1.34356 54.3243 1.00271 53.891 1.00271L12.0924 1C11.6591 1 11.309 1.34084 11.309 1.76285L11.3062 11.6523H1.78339C1.35004 11.6523 1 11.9931 1 12.4152V49.6504C1 50.0724 1.35002 50.4132 1.78339 50.4132H26.2096V53.6458H25.2123C23.1872 53.6458 21.5399 55.2472 21.5399 57.2192V59.2372C21.5399 59.6591 21.89 60 22.3233 60H43.6632C44.0965 60 44.4465 59.6592 44.4465 59.2372V57.2192C44.4465 55.2472 42.7993 53.6458 40.7742 53.6458H39.7769V50.4132H64.2166C64.65 50.4132 65 50.0724 65 49.6504V12.4152C64.9972 11.9932 64.6469 11.6522 64.2136 11.6522ZM63.4329 13.1779V41.4675H35.8877V40.1529C36.9989 39.8851 38.0656 39.455 39.0795 38.8626L40.5879 40.3314C40.8824 40.6154 41.4018 40.6154 41.6963 40.3314L43.9408 38.1458H53.891C54.3244 38.1458 54.6744 37.8049 54.6744 37.3829V13.1783L63.4329 13.1779ZM31.037 38.7862C29.7037 38.5454 28.4286 38.0315 27.2425 37.2551C26.9314 37.0523 26.5175 37.0928 26.2508 37.3498L24.8536 38.7104L22.9813 36.8872L24.3785 35.5266C24.6452 35.2669 24.6841 34.8585 24.4702 34.5583C23.6896 33.4465 23.1562 32.2022 22.8868 30.8632C22.8146 30.5061 22.4923 30.2464 22.1173 30.2464H20.1506V27.674H22.1173C22.4923 27.674 22.8146 27.4143 22.8868 27.0572C23.1562 25.7182 23.6896 24.4739 24.4702 23.3622C24.6841 23.0592 24.6452 22.6535 24.3785 22.3938L22.9813 21.0332L24.8536 19.21L26.2508 20.5706C26.5147 20.8276 26.9314 20.8682 27.2425 20.6653C28.4259 19.8916 29.7037 19.3777 31.037 19.1343C31.4065 19.0666 31.676 18.7528 31.676 18.385V16.4563H34.3177V18.385C34.3177 18.7529 34.5872 19.0667 34.9566 19.1343C36.2872 19.375 37.5651 19.8889 38.7512 20.6653C39.0623 20.8682 39.4762 20.8276 39.7429 20.5706L41.1401 19.21L43.0124 21.0332L41.6151 22.3938C41.3512 22.6508 41.3096 23.0538 41.5179 23.3595C42.2929 24.4821 42.8207 25.7291 43.0902 27.06C43.1624 27.4171 43.4846 27.6767 43.8596 27.6767H45.8403V30.2492H43.8596C43.4846 30.2492 43.1624 30.5062 43.0902 30.866C42.8207 32.1969 42.2929 33.4439 41.5179 34.5665C41.3096 34.8695 41.3512 35.2725 41.6151 35.5322L43.0124 36.8928L41.1401 38.716L39.7429 37.3554C39.479 37.0984 39.0623 37.0578 38.7512 37.2607C37.5678 38.0343 36.29 38.5483 34.9566 38.7917C34.5872 38.8593 34.3177 39.1731 34.3177 39.541V41.4697H31.676V39.541C31.6787 39.1704 31.4093 38.8538 31.037 38.7862ZM12.8725 36.6194V9.58807H53.1072V36.6194H44.8516C44.8127 36.5221 44.7572 36.4274 44.6766 36.3489L43.1682 34.8801C43.7627 33.9117 44.2043 32.8703 44.4877 31.772H46.6267C47.0601 31.772 47.4101 31.4339 47.4101 31.0091V26.911C47.4101 26.489 47.0601 26.1481 46.6267 26.1481H44.4877C44.2044 25.0526 43.7627 24.0112 43.1682 23.04L44.6766 21.5712C44.9822 21.2709 44.9822 20.7894 44.6766 20.4919L41.6959 17.5894C41.3904 17.2918 40.8931 17.2918 40.5876 17.5894L39.0792 19.0555C38.0652 18.4658 36.9958 18.033 35.8874 17.7679V15.6904C35.8874 15.2684 35.5374 14.9276 35.104 14.9276H30.8955C30.4621 14.9276 30.1121 15.2684 30.1121 15.6904V17.7679C29.0009 18.0357 27.9342 18.4658 26.9203 19.0555L25.4119 17.5894C25.1063 17.2918 24.6119 17.2918 24.3035 17.5894L21.3228 20.4919C21.0173 20.7894 21.0173 21.2736 21.3228 21.5712L22.8257 23.0373C22.2257 24.003 21.7784 25.0444 21.4951 26.1481H19.3728C18.9394 26.1481 18.5894 26.489 18.5894 26.911V31.0091C18.5894 31.4311 18.9394 31.772 19.3728 31.772H21.4951C21.7812 32.8784 22.2284 33.9198 22.8257 34.8855L21.3228 36.3489C21.2423 36.4274 21.1867 36.5221 21.1478 36.6194H12.8725ZM53.1072 2.52812V8.06265H12.8725V2.52812H53.1072ZM11.3058 13.1779V37.3826C11.3058 37.8046 11.6558 38.1454 12.0892 38.1454H22.0565L24.301 40.3311C24.5955 40.6151 25.1149 40.6151 25.4094 40.3311L26.9178 38.8622C27.9317 39.4546 29.0012 39.8847 30.1096 40.1525V41.4672H2.56721V13.1775L11.3058 13.1779ZM42.8768 57.219V58.4741H23.1064V57.219C23.1064 56.1072 24.0704 55.1686 25.212 55.1686H40.7739C41.9323 55.1713 42.8768 56.0883 42.8768 57.219ZM38.2072 53.6456H27.7762V50.413H38.2072V53.6456ZM2.56707 48.8874V42.9931H63.4334V48.8874H2.56707ZM32.9988 43.7099C31.7377 43.7099 30.7098 44.7081 30.7098 45.9389C30.7098 47.167 31.7376 48.1679 32.9988 48.1679C34.26 48.1679 35.2878 47.1697 35.2878 45.9389C35.2878 44.7108 34.26 43.7099 32.9988 43.7099ZM32.9988 46.6422C32.6016 46.6422 32.2766 46.3257 32.2766 45.9389C32.2766 45.5521 32.5988 45.2356 32.9988 45.2356C33.3988 45.2356 33.721 45.5521 33.721 45.9389C33.721 46.3257 33.3988 46.6422 32.9988 46.6422ZM15.7622 5.29566C15.7622 4.87368 16.1122 4.53281 16.5456 4.53281H16.6067C17.0401 4.53281 17.3901 4.87365 17.3901 5.29566C17.3901 5.71765 17.0401 6.05851 16.6067 6.05851H16.5456C16.1151 6.05851 15.7622 5.71767 15.7622 5.29566ZM21.0624 5.29566C21.0624 4.87368 21.4124 4.53281 21.8458 4.53281H21.9069C22.3403 4.53281 22.6903 4.87365 22.6903 5.29566C22.6903 5.71765 22.3403 6.05851 21.9069 6.05851H21.8458C21.4152 6.05851 21.0624 5.71767 21.0624 5.29566ZM26.346 5.29566C26.346 4.87368 26.696 4.53281 27.1293 4.53281H27.1905C27.6238 4.53281 27.9739 4.87365 27.9739 5.29566C27.9739 5.71765 27.6238 6.05851 27.1905 6.05851H27.1293C26.6988 6.05851 26.346 5.71767 26.346 5.29566ZM41.2635 28.9595C41.2635 24.5232 37.5551 20.912 32.9994 20.912C28.4437 20.912 24.7352 24.5232 24.7352 28.9595C24.7352 33.3985 28.4437 37.0069 32.9994 37.0069C37.5551 37.0069 41.2635 33.3984 41.2635 28.9595ZM26.3019 28.9595C26.3019 25.3645 29.3076 22.4376 32.9994 22.4376C36.6939 22.4376 39.6969 25.3645 39.6969 28.9595C39.6969 32.5572 36.6912 35.484 32.9994 35.484C29.3076 35.484 26.3019 32.5572 26.3019 28.9595ZM45.1833 12.4152C45.1833 11.9959 45.5333 11.6523 45.9667 11.6523H50.2224C50.6558 11.6523 51.0058 11.9931 51.0058 12.4152C51.0058 12.8371 50.6558 13.178 50.2224 13.178H45.9667C45.5333 13.178 45.1833 12.8372 45.1833 12.4152ZM45.1833 15.7667C45.1833 15.3447 45.5333 15.0038 45.9667 15.0038H50.2224C50.6558 15.0038 51.0058 15.3447 51.0058 15.7667C51.0058 16.1887 50.6558 16.5295 50.2224 16.5295H45.9667C45.5333 16.5295 45.1833 16.186 45.1833 15.7667ZM45.1833 19.1182C45.1833 18.6962 45.5333 18.3553 45.9667 18.3553H50.2224C50.6558 18.3553 51.0058 18.6962 51.0058 19.1182C51.0058 19.5402 50.6558 19.881 50.2224 19.881H45.9667C45.5333 19.881 45.1833 19.5375 45.1833 19.1182ZM30.558 26.9115L28.4524 28.9592L30.558 31.0096C30.8636 31.3071 30.8636 31.7913 30.558 32.0889C30.4052 32.2404 30.2052 32.3134 30.0052 32.3134C29.8052 32.3134 29.6052 32.2404 29.4524 32.0889L26.794 29.5029C26.4884 29.2026 26.4884 28.7211 26.794 28.4235L29.4524 25.8348C29.758 25.5372 30.2552 25.5372 30.5608 25.8348C30.8636 26.1296 30.8636 26.6139 30.558 26.9115ZM35.4249 26.9115C35.1193 26.6112 35.1193 26.1297 35.4249 25.8322C35.7305 25.5346 36.2277 25.5346 36.5333 25.8322L39.1917 28.4209C39.4973 28.7185 39.4973 29.2027 39.1917 29.5002L36.5333 32.0863C36.3805 32.2377 36.1805 32.3108 35.9805 32.3108C35.7805 32.3108 35.5805 32.2377 35.4277 32.0863C35.1221 31.7887 35.1221 31.3045 35.4277 31.0069L37.5305 28.9565L35.4249 26.9115ZM34.7693 25.4615L32.7414 32.8518C32.647 33.1926 32.3303 33.4172 31.9859 33.4172C31.9192 33.4172 31.8525 33.409 31.7831 33.3901C31.3636 33.2819 31.1164 32.8653 31.2275 32.4568L33.2554 25.0666C33.3665 24.6608 33.7971 24.4174 34.2166 24.5283C34.6332 24.6365 34.8832 25.0558 34.7693 25.4615Z" fill="#589CE7" stroke="#589CE7" stroke-width="0.3"/>
</svg>
